M48
; DRILL file {KiCad 9.0.5} date 2025-11-19T18:22:54+0200
; FORMAT={-:-/ absolute / metric / decimal}
; #@! TF.CreationDate,2025-11-19T18:22:54+02:00
; #@! TF.GenerationSoftware,Kicad,Pcbnew,9.0.5
; #@! TF.FileFunction,Plated,1,4,PTH
FMAT,2
METRIC
; #@! TA.AperFunction,Plated,PTH,ComponentDrill
T1C0.780
; #@! TA.AperFunction,Plated,PTH,ComponentDrill
T2C1.000
; #@! TA.AperFunction,Plated,PTH,ComponentDrill
T3C1.600
%
G90
G05
T1
X80.0Y-33.34
X80.0Y-35.84
X80.0Y-45.38
X80.0Y-47.88
X80.0Y-57.42
X80.0Y-59.92
X80.0Y-69.46
X80.0Y-71.96
X80.0Y-81.5
X80.0Y-84.0
X80.0Y-93.54
X80.0Y-96.04
X80.0Y-105.58
X80.0Y-108.08
X80.0Y-117.62
X80.0Y-120.12
X81.0Y-31.34
X81.0Y-37.84
X81.0Y-43.38
X81.0Y-49.88
X81.0Y-55.42
X81.0Y-61.92
X81.0Y-67.46
X81.0Y-73.96
X81.0Y-79.5
X81.0Y-86.0
X81.0Y-91.54
X81.0Y-98.04
X81.0Y-103.58
X81.0Y-110.08
X81.0Y-115.62
X81.0Y-122.12
X82.0Y-33.34
X82.0Y-35.84
X82.0Y-45.38
X82.0Y-47.88
X82.0Y-57.42
X82.0Y-59.92
X82.0Y-69.46
X82.0Y-71.96
X82.0Y-81.5
X82.0Y-84.0
X82.0Y-93.54
X82.0Y-96.04
X82.0Y-105.58
X82.0Y-108.08
X82.0Y-117.62
X82.0Y-120.12
X83.0Y-31.34
X83.0Y-37.84
X83.0Y-43.38
X83.0Y-49.88
X83.0Y-55.42
X83.0Y-61.92
X83.0Y-67.46
X83.0Y-73.96
X83.0Y-79.5
X83.0Y-86.0
X83.0Y-91.54
X83.0Y-98.04
X83.0Y-103.58
X83.0Y-110.08
X83.0Y-115.62
X83.0Y-122.12
X84.0Y-33.34
X84.0Y-35.84
X84.0Y-45.38
X84.0Y-47.88
X84.0Y-57.42
X84.0Y-59.92
X84.0Y-69.46
X84.0Y-71.96
X84.0Y-81.5
X84.0Y-84.0
X84.0Y-93.54
X84.0Y-96.04
X84.0Y-105.58
X84.0Y-108.08
X84.0Y-117.62
X84.0Y-120.12
X85.0Y-31.34
X85.0Y-37.84
X85.0Y-43.38
X85.0Y-49.88
X85.0Y-55.42
X85.0Y-61.92
X85.0Y-67.46
X85.0Y-73.96
X85.0Y-79.5
X85.0Y-86.0
X85.0Y-91.54
X85.0Y-98.04
X85.0Y-103.58
X85.0Y-110.08
X85.0Y-115.62
X85.0Y-122.12
X86.0Y-33.34
X86.0Y-35.84
X86.0Y-45.38
X86.0Y-47.88
X86.0Y-57.42
X86.0Y-59.92
X86.0Y-69.46
X86.0Y-71.96
X86.0Y-81.5
X86.0Y-84.0
X86.0Y-93.54
X86.0Y-96.04
X86.0Y-105.58
X86.0Y-108.08
X86.0Y-117.62
X86.0Y-120.12
X87.0Y-31.34
X87.0Y-37.84
X87.0Y-43.38
X87.0Y-49.88
X87.0Y-55.42
X87.0Y-61.92
X87.0Y-67.46
X87.0Y-73.96
X87.0Y-79.5
X87.0Y-86.0
X87.0Y-91.54
X87.0Y-98.04
X87.0Y-103.58
X87.0Y-110.08
X87.0Y-115.62
X87.0Y-122.12
X88.0Y-33.34
X88.0Y-35.84
X88.0Y-45.38
X88.0Y-47.88
X88.0Y-57.42
X88.0Y-59.92
X88.0Y-69.46
X88.0Y-71.96
X88.0Y-81.5
X88.0Y-84.0
X88.0Y-93.54
X88.0Y-96.04
X88.0Y-105.58
X88.0Y-108.08
X88.0Y-117.62
X88.0Y-120.12
X89.0Y-31.34
X89.0Y-37.84
X89.0Y-43.38
X89.0Y-49.88
X89.0Y-55.42
X89.0Y-61.92
X89.0Y-67.46
X89.0Y-73.96
X89.0Y-79.5
X89.0Y-86.0
X89.0Y-91.54
X89.0Y-98.04
X89.0Y-103.58
X89.0Y-110.08
X89.0Y-115.62
X89.0Y-122.12
X90.0Y-33.34
X90.0Y-35.84
X90.0Y-45.38
X90.0Y-47.88
X90.0Y-57.42
X90.0Y-59.92
X90.0Y-69.46
X90.0Y-71.96
X90.0Y-81.5
X90.0Y-84.0
X90.0Y-93.54
X90.0Y-96.04
X90.0Y-105.58
X90.0Y-108.08
X90.0Y-117.62
X90.0Y-120.12
X93.0Y-31.34
X93.0Y-37.84
X93.0Y-43.38
X93.0Y-49.88
X93.0Y-55.42
X93.0Y-61.92
X93.0Y-67.46
X93.0Y-73.96
X93.0Y-79.5
X93.0Y-86.0
X93.0Y-91.54
X93.0Y-98.04
X93.0Y-103.58
X93.0Y-110.08
X93.0Y-115.62
X93.0Y-122.12
X94.0Y-33.34
X94.0Y-35.84
X94.0Y-45.38
X94.0Y-47.88
X94.0Y-57.42
X94.0Y-59.92
X94.0Y-69.46
X94.0Y-71.96
X94.0Y-81.5
X94.0Y-84.0
X94.0Y-93.54
X94.0Y-96.04
X94.0Y-105.58
X94.0Y-108.08
X94.0Y-117.62
X94.0Y-120.12
X95.0Y-31.34
X95.0Y-37.84
X95.0Y-43.38
X95.0Y-49.88
X95.0Y-55.42
X95.0Y-61.92
X95.0Y-67.46
X95.0Y-73.96
X95.0Y-79.5
X95.0Y-86.0
X95.0Y-91.54
X95.0Y-98.04
X95.0Y-103.58
X95.0Y-110.08
X95.0Y-115.62
X95.0Y-122.12
X96.0Y-33.34
X96.0Y-35.84
X96.0Y-45.38
X96.0Y-47.88
X96.0Y-57.42
X96.0Y-59.92
X96.0Y-69.46
X96.0Y-71.96
X96.0Y-81.5
X96.0Y-84.0
X96.0Y-93.54
X96.0Y-96.04
X96.0Y-105.58
X96.0Y-108.08
X96.0Y-117.62
X96.0Y-120.12
X97.0Y-31.34
X97.0Y-37.84
X97.0Y-43.38
X97.0Y-49.88
X97.0Y-55.42
X97.0Y-61.92
X97.0Y-67.46
X97.0Y-73.96
X97.0Y-79.5
X97.0Y-86.0
X97.0Y-91.54
X97.0Y-98.04
X97.0Y-103.58
X97.0Y-110.08
X97.0Y-115.62
X97.0Y-122.12
X98.0Y-33.34
X98.0Y-35.84
X98.0Y-45.38
X98.0Y-47.88
X98.0Y-57.42
X98.0Y-59.92
X98.0Y-69.46
X98.0Y-71.96
X98.0Y-81.5
X98.0Y-84.0
X98.0Y-93.54
X98.0Y-96.04
X98.0Y-105.58
X98.0Y-108.08
X98.0Y-117.62
X98.0Y-120.12
X99.0Y-31.34
X99.0Y-37.84
X99.0Y-43.38
X99.0Y-49.88
X99.0Y-55.42
X99.0Y-61.92
X99.0Y-67.46
X99.0Y-73.96
X99.0Y-79.5
X99.0Y-86.0
X99.0Y-91.54
X99.0Y-98.04
X99.0Y-103.58
X99.0Y-110.08
X99.0Y-115.62
X99.0Y-122.12
X100.0Y-33.34
X100.0Y-35.84
X100.0Y-45.38
X100.0Y-47.88
X100.0Y-57.42
X100.0Y-59.92
X100.0Y-69.46
X100.0Y-71.96
X100.0Y-81.5
X100.0Y-84.0
X100.0Y-93.54
X100.0Y-96.04
X100.0Y-105.58
X100.0Y-108.08
X100.0Y-117.62
X100.0Y-120.12
X101.0Y-31.34
X101.0Y-37.84
X101.0Y-43.38
X101.0Y-49.88
X101.0Y-55.42
X101.0Y-61.92
X101.0Y-67.46
X101.0Y-73.96
X101.0Y-79.5
X101.0Y-86.0
X101.0Y-91.54
X101.0Y-98.04
X101.0Y-103.58
X101.0Y-110.08
X101.0Y-115.62
X101.0Y-122.12
X102.0Y-33.34
X102.0Y-35.84
X102.0Y-45.38
X102.0Y-47.88
X102.0Y-57.42
X102.0Y-59.92
X102.0Y-69.46
X102.0Y-71.96
X102.0Y-81.5
X102.0Y-84.0
X102.0Y-93.54
X102.0Y-96.04
X102.0Y-105.58
X102.0Y-108.08
X102.0Y-117.62
X102.0Y-120.12
X103.0Y-31.34
X103.0Y-37.84
X103.0Y-43.38
X103.0Y-49.88
X103.0Y-55.42
X103.0Y-61.92
X103.0Y-67.46
X103.0Y-73.96
X103.0Y-79.5
X103.0Y-86.0
X103.0Y-91.54
X103.0Y-98.04
X103.0Y-103.58
X103.0Y-110.08
X103.0Y-115.62
X103.0Y-122.12
X104.0Y-33.34
X104.0Y-35.84
X104.0Y-45.38
X104.0Y-47.88
X104.0Y-57.42
X104.0Y-59.92
X104.0Y-69.46
X104.0Y-71.96
X104.0Y-81.5
X104.0Y-84.0
X104.0Y-93.54
X104.0Y-96.04
X104.0Y-105.58
X104.0Y-108.08
X104.0Y-117.62
X104.0Y-120.12
X105.0Y-31.34
X105.0Y-37.84
X105.0Y-43.38
X105.0Y-49.88
X105.0Y-55.42
X105.0Y-61.92
X105.0Y-67.46
X105.0Y-73.96
X105.0Y-79.5
X105.0Y-86.0
X105.0Y-91.54
X105.0Y-98.04
X105.0Y-103.58
X105.0Y-110.08
X105.0Y-115.62
X105.0Y-122.12
X106.0Y-33.34
X106.0Y-35.84
X106.0Y-45.38
X106.0Y-47.88
X106.0Y-57.42
X106.0Y-59.92
X106.0Y-69.46
X106.0Y-71.96
X106.0Y-81.5
X106.0Y-84.0
X106.0Y-93.54
X106.0Y-96.04
X106.0Y-105.58
X106.0Y-108.08
X106.0Y-117.62
X106.0Y-120.12
X107.0Y-31.34
X107.0Y-37.84
X107.0Y-43.38
X107.0Y-49.88
X107.0Y-55.42
X107.0Y-61.92
X107.0Y-67.46
X107.0Y-73.96
X107.0Y-79.5
X107.0Y-86.0
X107.0Y-91.54
X107.0Y-98.04
X107.0Y-103.58
X107.0Y-110.08
X107.0Y-115.62
X107.0Y-122.12
X108.0Y-33.34
X108.0Y-35.84
X108.0Y-45.38
X108.0Y-47.88
X108.0Y-57.42
X108.0Y-59.92
X108.0Y-69.46
X108.0Y-71.96
X108.0Y-81.5
X108.0Y-84.0
X108.0Y-93.54
X108.0Y-96.04
X108.0Y-105.58
X108.0Y-108.08
X108.0Y-117.62
X108.0Y-120.12
X109.0Y-31.34
X109.0Y-37.84
X109.0Y-43.38
X109.0Y-49.88
X109.0Y-55.42
X109.0Y-61.92
X109.0Y-67.46
X109.0Y-73.96
X109.0Y-79.5
X109.0Y-86.0
X109.0Y-91.54
X109.0Y-98.04
X109.0Y-103.58
X109.0Y-110.08
X109.0Y-115.62
X109.0Y-122.12
X110.0Y-33.34
X110.0Y-35.84
X110.0Y-45.38
X110.0Y-47.88
X110.0Y-57.42
X110.0Y-59.92
X110.0Y-69.46
X110.0Y-71.96
X110.0Y-81.5
X110.0Y-84.0
X110.0Y-93.54
X110.0Y-96.04
X110.0Y-105.58
X110.0Y-108.08
X110.0Y-117.62
X110.0Y-120.12
X111.0Y-31.34
X111.0Y-37.84
X111.0Y-43.38
X111.0Y-49.88
X111.0Y-55.42
X111.0Y-61.92
X111.0Y-67.46
X111.0Y-73.96
X111.0Y-79.5
X111.0Y-86.0
X111.0Y-91.54
X111.0Y-98.04
X111.0Y-103.58
X111.0Y-110.08
X111.0Y-115.62
X111.0Y-122.12
X112.0Y-33.34
X112.0Y-35.84
X112.0Y-45.38
X112.0Y-47.88
X112.0Y-57.42
X112.0Y-59.92
X112.0Y-69.46
X112.0Y-71.96
X112.0Y-81.5
X112.0Y-84.0
X112.0Y-93.54
X112.0Y-96.04
X112.0Y-105.58
X112.0Y-108.08
X112.0Y-117.62
X112.0Y-120.12
X113.0Y-31.34
X113.0Y-37.84
X113.0Y-43.38
X113.0Y-49.88
X113.0Y-55.42
X113.0Y-61.92
X113.0Y-67.46
X113.0Y-73.96
X113.0Y-79.5
X113.0Y-86.0
X113.0Y-91.54
X113.0Y-98.04
X113.0Y-103.58
X113.0Y-110.08
X113.0Y-115.62
X113.0Y-122.12
X114.0Y-33.34
X114.0Y-35.84
X114.0Y-45.38
X114.0Y-47.88
X114.0Y-57.42
X114.0Y-59.92
X114.0Y-69.46
X114.0Y-71.96
X114.0Y-81.5
X114.0Y-84.0
X114.0Y-93.54
X114.0Y-96.04
X114.0Y-105.58
X114.0Y-108.08
X114.0Y-117.62
X114.0Y-120.12
X115.0Y-31.34
X115.0Y-37.84
X115.0Y-43.38
X115.0Y-49.88
X115.0Y-55.42
X115.0Y-61.92
X115.0Y-67.46
X115.0Y-73.96
X115.0Y-79.5
X115.0Y-86.0
X115.0Y-91.54
X115.0Y-98.04
X115.0Y-103.58
X115.0Y-110.08
X115.0Y-115.62
X115.0Y-122.12
X116.0Y-33.34
X116.0Y-35.84
X116.0Y-45.38
X116.0Y-47.88
X116.0Y-57.42
X116.0Y-59.92
X116.0Y-69.46
X116.0Y-71.96
X116.0Y-81.5
X116.0Y-84.0
X116.0Y-93.54
X116.0Y-96.04
X116.0Y-105.58
X116.0Y-108.08
X116.0Y-117.62
X116.0Y-120.12
X117.0Y-31.34
X117.0Y-37.84
X117.0Y-43.38
X117.0Y-49.88
X117.0Y-55.42
X117.0Y-61.92
X117.0Y-67.46
X117.0Y-73.96
X117.0Y-79.5
X117.0Y-86.0
X117.0Y-91.54
X117.0Y-98.04
X117.0Y-103.58
X117.0Y-110.08
X117.0Y-115.62
X117.0Y-122.12
X118.0Y-33.34
X118.0Y-35.84
X118.0Y-45.38
X118.0Y-47.88
X118.0Y-57.42
X118.0Y-59.92
X118.0Y-69.46
X118.0Y-71.96
X118.0Y-81.5
X118.0Y-84.0
X118.0Y-93.54
X118.0Y-96.04
X118.0Y-105.58
X118.0Y-108.08
X118.0Y-117.62
X118.0Y-120.12
X119.0Y-31.34
X119.0Y-37.84
X119.0Y-43.38
X119.0Y-49.88
X119.0Y-55.42
X119.0Y-61.92
X119.0Y-67.46
X119.0Y-73.96
X119.0Y-79.5
X119.0Y-86.0
X119.0Y-91.54
X119.0Y-98.04
X119.0Y-103.58
X119.0Y-110.08
X119.0Y-115.62
X119.0Y-122.12
X120.0Y-33.34
X120.0Y-35.84
X120.0Y-45.38
X120.0Y-47.88
X120.0Y-57.42
X120.0Y-59.92
X120.0Y-69.46
X120.0Y-71.96
X120.0Y-81.5
X120.0Y-84.0
X120.0Y-93.54
X120.0Y-96.04
X120.0Y-105.58
X120.0Y-108.08
X120.0Y-117.62
X120.0Y-120.12
X121.0Y-31.34
X121.0Y-37.84
X121.0Y-43.38
X121.0Y-49.88
X121.0Y-55.42
X121.0Y-61.92
X121.0Y-67.46
X121.0Y-73.96
X121.0Y-79.5
X121.0Y-86.0
X121.0Y-91.54
X121.0Y-98.04
X121.0Y-103.58
X121.0Y-110.08
X121.0Y-115.62
X121.0Y-122.12
X122.0Y-33.34
X122.0Y-35.84
X122.0Y-45.38
X122.0Y-47.88
X122.0Y-57.42
X122.0Y-59.92
X122.0Y-69.46
X122.0Y-71.96
X122.0Y-81.5
X122.0Y-84.0
X122.0Y-93.54
X122.0Y-96.04
X122.0Y-105.58
X122.0Y-108.08
X122.0Y-117.62
X122.0Y-120.12
X123.0Y-31.34
X123.0Y-37.84
X123.0Y-43.38
X123.0Y-49.88
X123.0Y-55.42
X123.0Y-61.92
X123.0Y-67.46
X123.0Y-73.96
X123.0Y-79.5
X123.0Y-86.0
X123.0Y-91.54
X123.0Y-98.04
X123.0Y-103.58
X123.0Y-110.08
X123.0Y-115.62
X123.0Y-122.12
X124.0Y-33.34
X124.0Y-35.84
X124.0Y-45.38
X124.0Y-47.88
X124.0Y-57.42
X124.0Y-59.92
X124.0Y-69.46
X124.0Y-71.96
X124.0Y-81.5
X124.0Y-84.0
X124.0Y-93.54
X124.0Y-96.04
X124.0Y-105.58
X124.0Y-108.08
X124.0Y-117.62
X124.0Y-120.12
X125.0Y-31.34
X125.0Y-37.84
X125.0Y-43.38
X125.0Y-49.88
X125.0Y-55.42
X125.0Y-61.92
X125.0Y-67.46
X125.0Y-73.96
X125.0Y-79.5
X125.0Y-86.0
X125.0Y-91.54
X125.0Y-98.04
X125.0Y-103.58
X125.0Y-110.08
X125.0Y-115.62
X125.0Y-122.12
X126.0Y-33.34
X126.0Y-35.84
X126.0Y-45.38
X126.0Y-47.88
X126.0Y-57.42
X126.0Y-59.92
X126.0Y-69.46
X126.0Y-71.96
X126.0Y-81.5
X126.0Y-84.0
X126.0Y-93.54
X126.0Y-96.04
X126.0Y-105.58
X126.0Y-108.08
X126.0Y-117.62
X126.0Y-120.12
X127.0Y-31.34
X127.0Y-37.84
X127.0Y-43.38
X127.0Y-49.88
X127.0Y-55.42
X127.0Y-61.92
X127.0Y-67.46
X127.0Y-73.96
X127.0Y-79.5
X127.0Y-86.0
X127.0Y-91.54
X127.0Y-98.04
X127.0Y-103.58
X127.0Y-110.08
X127.0Y-115.62
X127.0Y-122.12
X128.0Y-33.34
X128.0Y-35.84
X128.0Y-45.38
X128.0Y-47.88
X128.0Y-57.42
X128.0Y-59.92
X128.0Y-69.46
X128.0Y-71.96
X128.0Y-81.5
X128.0Y-84.0
X128.0Y-93.54
X128.0Y-96.04
X128.0Y-105.58
X128.0Y-108.08
X128.0Y-117.62
X128.0Y-120.12
X129.0Y-31.34
X129.0Y-37.84
X129.0Y-43.38
X129.0Y-49.88
X129.0Y-55.42
X129.0Y-61.92
X129.0Y-67.46
X129.0Y-73.96
X129.0Y-79.5
X129.0Y-86.0
X129.0Y-91.54
X129.0Y-98.04
X129.0Y-103.58
X129.0Y-110.08
X129.0Y-115.62
X129.0Y-122.12
X130.0Y-33.34
X130.0Y-35.84
X130.0Y-45.38
X130.0Y-47.88
X130.0Y-57.42
X130.0Y-59.92
X130.0Y-69.46
X130.0Y-71.96
X130.0Y-81.5
X130.0Y-84.0
X130.0Y-93.54
X130.0Y-96.04
X130.0Y-105.58
X130.0Y-108.08
X130.0Y-117.62
X130.0Y-120.12
X131.0Y-31.34
X131.0Y-37.84
X131.0Y-43.38
X131.0Y-49.88
X131.0Y-55.42
X131.0Y-61.92
X131.0Y-67.46
X131.0Y-73.96
X131.0Y-79.5
X131.0Y-86.0
X131.0Y-91.54
X131.0Y-98.04
X131.0Y-103.58
X131.0Y-110.08
X131.0Y-115.62
X131.0Y-122.12
X132.0Y-33.34
X132.0Y-35.84
X132.0Y-45.38
X132.0Y-47.88
X132.0Y-57.42
X132.0Y-59.92
X132.0Y-69.46
X132.0Y-71.96
X132.0Y-81.5
X132.0Y-84.0
X132.0Y-93.54
X132.0Y-96.04
X132.0Y-105.58
X132.0Y-108.08
X132.0Y-117.62
X132.0Y-120.12
X133.0Y-31.34
X133.0Y-37.84
X133.0Y-43.38
X133.0Y-49.88
X133.0Y-55.42
X133.0Y-61.92
X133.0Y-67.46
X133.0Y-73.96
X133.0Y-79.5
X133.0Y-86.0
X133.0Y-91.54
X133.0Y-98.04
X133.0Y-103.58
X133.0Y-110.08
X133.0Y-115.62
X133.0Y-122.12
X134.0Y-33.34
X134.0Y-35.84
X134.0Y-45.38
X134.0Y-47.88
X134.0Y-57.42
X134.0Y-59.92
X134.0Y-69.46
X134.0Y-71.96
X134.0Y-81.5
X134.0Y-84.0
X134.0Y-93.54
X134.0Y-96.04
X134.0Y-105.58
X134.0Y-108.08
X134.0Y-117.62
X134.0Y-120.12
X135.0Y-31.34
X135.0Y-37.84
X135.0Y-43.38
X135.0Y-49.88
X135.0Y-55.42
X135.0Y-61.92
X135.0Y-67.46
X135.0Y-73.96
X135.0Y-79.5
X135.0Y-86.0
X135.0Y-91.54
X135.0Y-98.04
X135.0Y-103.58
X135.0Y-110.08
X135.0Y-115.62
X135.0Y-122.12
X136.0Y-33.34
X136.0Y-35.84
X136.0Y-45.38
X136.0Y-47.88
X136.0Y-57.42
X136.0Y-59.92
X136.0Y-69.46
X136.0Y-71.96
X136.0Y-81.5
X136.0Y-84.0
X136.0Y-93.54
X136.0Y-96.04
X136.0Y-105.58
X136.0Y-108.08
X136.0Y-117.62
X136.0Y-120.12
X137.0Y-31.34
X137.0Y-37.84
X137.0Y-43.38
X137.0Y-49.88
X137.0Y-55.42
X137.0Y-61.92
X137.0Y-67.46
X137.0Y-73.96
X137.0Y-79.5
X137.0Y-86.0
X137.0Y-91.54
X137.0Y-98.04
X137.0Y-103.58
X137.0Y-110.08
X137.0Y-115.62
X137.0Y-122.12
X138.0Y-33.34
X138.0Y-35.84
X138.0Y-45.38
X138.0Y-47.88
X138.0Y-57.42
X138.0Y-59.92
X138.0Y-69.46
X138.0Y-71.96
X138.0Y-81.5
X138.0Y-84.0
X138.0Y-93.54
X138.0Y-96.04
X138.0Y-105.58
X138.0Y-108.08
X138.0Y-117.62
X138.0Y-120.12
X139.0Y-31.34
X139.0Y-37.84
X139.0Y-43.38
X139.0Y-49.88
X139.0Y-55.42
X139.0Y-61.92
X139.0Y-67.46
X139.0Y-73.96
X139.0Y-79.5
X139.0Y-86.0
X139.0Y-91.54
X139.0Y-98.04
X139.0Y-103.58
X139.0Y-110.08
X139.0Y-115.62
X139.0Y-122.12
X140.0Y-33.34
X140.0Y-35.84
X140.0Y-45.38
X140.0Y-47.88
X140.0Y-57.42
X140.0Y-59.92
X140.0Y-69.46
X140.0Y-71.96
X140.0Y-81.5
X140.0Y-84.0
X140.0Y-93.54
X140.0Y-96.04
X140.0Y-105.58
X140.0Y-108.08
X140.0Y-117.62
X140.0Y-120.12
X141.0Y-31.34
X141.0Y-37.84
X141.0Y-43.38
X141.0Y-49.88
X141.0Y-55.42
X141.0Y-61.92
X141.0Y-67.46
X141.0Y-73.96
X141.0Y-79.5
X141.0Y-86.0
X141.0Y-91.54
X141.0Y-98.04
X141.0Y-103.58
X141.0Y-110.08
X141.0Y-115.62
X141.0Y-122.12
X142.0Y-33.34
X142.0Y-35.84
X142.0Y-45.38
X142.0Y-47.88
X142.0Y-57.42
X142.0Y-59.92
X142.0Y-69.46
X142.0Y-71.96
X142.0Y-81.5
X142.0Y-84.0
X142.0Y-93.54
X142.0Y-96.04
X142.0Y-105.58
X142.0Y-108.08
X142.0Y-117.62
X142.0Y-120.12
X143.0Y-31.34
X143.0Y-37.84
X143.0Y-43.38
X143.0Y-49.88
X143.0Y-55.42
X143.0Y-61.92
X143.0Y-67.46
X143.0Y-73.96
X143.0Y-79.5
X143.0Y-86.0
X143.0Y-91.54
X143.0Y-98.04
X143.0Y-103.58
X143.0Y-110.08
X143.0Y-115.62
X143.0Y-122.12
X144.0Y-33.34
X144.0Y-35.84
X144.0Y-45.38
X144.0Y-47.88
X144.0Y-57.42
X144.0Y-59.92
X144.0Y-69.46
X144.0Y-71.96
X144.0Y-81.5
X144.0Y-84.0
X144.0Y-93.54
X144.0Y-96.04
X144.0Y-105.58
X144.0Y-108.08
X144.0Y-117.62
X144.0Y-120.12
X145.0Y-31.34
X145.0Y-37.84
X145.0Y-43.38
X145.0Y-49.88
X145.0Y-55.42
X145.0Y-61.92
X145.0Y-67.46
X145.0Y-73.96
X145.0Y-79.5
X145.0Y-86.0
X145.0Y-91.54
X145.0Y-98.04
X145.0Y-103.58
X145.0Y-110.08
X145.0Y-115.62
X145.0Y-122.12
X146.0Y-33.34
X146.0Y-35.84
X146.0Y-45.38
X146.0Y-47.88
X146.0Y-57.42
X146.0Y-59.92
X146.0Y-69.46
X146.0Y-71.96
X146.0Y-81.5
X146.0Y-84.0
X146.0Y-93.54
X146.0Y-96.04
X146.0Y-105.58
X146.0Y-108.08
X146.0Y-117.62
X146.0Y-120.12
X147.0Y-31.34
X147.0Y-37.84
X147.0Y-43.38
X147.0Y-49.88
X147.0Y-55.42
X147.0Y-61.92
X147.0Y-67.46
X147.0Y-73.96
X147.0Y-79.5
X147.0Y-86.0
X147.0Y-91.54
X147.0Y-98.04
X147.0Y-103.58
X147.0Y-110.08
X147.0Y-115.62
X147.0Y-122.12
X148.0Y-33.34
X148.0Y-35.84
X148.0Y-45.38
X148.0Y-47.88
X148.0Y-57.42
X148.0Y-59.92
X148.0Y-69.46
X148.0Y-71.96
X148.0Y-81.5
X148.0Y-84.0
X148.0Y-93.54
X148.0Y-96.04
X148.0Y-105.58
X148.0Y-108.08
X148.0Y-117.62
X148.0Y-120.12
X149.0Y-31.34
X149.0Y-37.84
X149.0Y-43.38
X149.0Y-49.88
X149.0Y-55.42
X149.0Y-61.92
X149.0Y-67.46
X149.0Y-73.96
X149.0Y-79.5
X149.0Y-86.0
X149.0Y-91.54
X149.0Y-98.04
X149.0Y-103.58
X149.0Y-110.08
X149.0Y-115.62
X149.0Y-122.12
X150.0Y-33.34
X150.0Y-35.84
X150.0Y-45.38
X150.0Y-47.88
X150.0Y-57.42
X150.0Y-59.92
X150.0Y-69.46
X150.0Y-71.96
X150.0Y-81.5
X150.0Y-84.0
X150.0Y-93.54
X150.0Y-96.04
X150.0Y-105.58
X150.0Y-108.08
X150.0Y-117.62
X150.0Y-120.12
X151.0Y-31.34
X151.0Y-37.84
X151.0Y-43.38
X151.0Y-49.88
X151.0Y-55.42
X151.0Y-61.92
X151.0Y-67.46
X151.0Y-73.96
X151.0Y-79.5
X151.0Y-86.0
X151.0Y-91.54
X151.0Y-98.04
X151.0Y-103.58
X151.0Y-110.08
X151.0Y-115.62
X151.0Y-122.12
X152.0Y-33.34
X152.0Y-35.84
X152.0Y-45.38
X152.0Y-47.88
X152.0Y-57.42
X152.0Y-59.92
X152.0Y-69.46
X152.0Y-71.96
X152.0Y-81.5
X152.0Y-84.0
X152.0Y-93.54
X152.0Y-96.04
X152.0Y-105.58
X152.0Y-108.08
X152.0Y-117.62
X152.0Y-120.12
X153.0Y-31.34
X153.0Y-37.84
X153.0Y-43.38
X153.0Y-49.88
X153.0Y-55.42
X153.0Y-61.92
X153.0Y-67.46
X153.0Y-73.96
X153.0Y-79.5
X153.0Y-86.0
X153.0Y-91.54
X153.0Y-98.04
X153.0Y-103.58
X153.0Y-110.08
X153.0Y-115.62
X153.0Y-122.12
X154.0Y-33.34
X154.0Y-35.84
X154.0Y-45.38
X154.0Y-47.88
X154.0Y-57.42
X154.0Y-59.92
X154.0Y-69.46
X154.0Y-71.96
X154.0Y-81.5
X154.0Y-84.0
X154.0Y-93.54
X154.0Y-96.04
X154.0Y-105.58
X154.0Y-108.08
X154.0Y-117.62
X154.0Y-120.12
X155.0Y-31.34
X155.0Y-37.84
X155.0Y-43.38
X155.0Y-49.88
X155.0Y-55.42
X155.0Y-61.92
X155.0Y-67.46
X155.0Y-73.96
X155.0Y-79.5
X155.0Y-86.0
X155.0Y-91.54
X155.0Y-98.04
X155.0Y-103.58
X155.0Y-110.08
X155.0Y-115.62
X155.0Y-122.12
X156.0Y-33.34
X156.0Y-35.84
X156.0Y-45.38
X156.0Y-47.88
X156.0Y-57.42
X156.0Y-59.92
X156.0Y-69.46
X156.0Y-71.96
X156.0Y-81.5
X156.0Y-84.0
X156.0Y-93.54
X156.0Y-96.04
X156.0Y-105.58
X156.0Y-108.08
X156.0Y-117.62
X156.0Y-120.12
X157.0Y-31.34
X157.0Y-37.84
X157.0Y-43.38
X157.0Y-49.88
X157.0Y-55.42
X157.0Y-61.92
X157.0Y-67.46
X157.0Y-73.96
X157.0Y-79.5
X157.0Y-86.0
X157.0Y-91.54
X157.0Y-98.04
X157.0Y-103.58
X157.0Y-110.08
X157.0Y-115.62
X157.0Y-122.12
X158.0Y-33.34
X158.0Y-35.84
X158.0Y-45.38
X158.0Y-47.88
X158.0Y-57.42
X158.0Y-59.92
X158.0Y-69.46
X158.0Y-71.96
X158.0Y-81.5
X158.0Y-84.0
X158.0Y-93.54
X158.0Y-96.04
X158.0Y-105.58
X158.0Y-108.08
X158.0Y-117.62
X158.0Y-120.12
X159.0Y-31.34
X159.0Y-37.84
X159.0Y-43.38
X159.0Y-49.88
X159.0Y-55.42
X159.0Y-61.92
X159.0Y-67.46
X159.0Y-73.96
X159.0Y-79.5
X159.0Y-86.0
X159.0Y-91.54
X159.0Y-98.04
X159.0Y-103.58
X159.0Y-110.08
X159.0Y-115.62
X159.0Y-122.12
X160.0Y-33.34
X160.0Y-35.84
X160.0Y-45.38
X160.0Y-47.88
X160.0Y-57.42
X160.0Y-59.92
X160.0Y-69.46
X160.0Y-71.96
X160.0Y-81.5
X160.0Y-84.0
X160.0Y-93.54
X160.0Y-96.04
X160.0Y-105.58
X160.0Y-108.08
X160.0Y-117.62
X160.0Y-120.12
X161.0Y-31.34
X161.0Y-37.84
X161.0Y-43.38
X161.0Y-49.88
X161.0Y-55.42
X161.0Y-61.92
X161.0Y-67.46
X161.0Y-73.96
X161.0Y-79.5
X161.0Y-86.0
X161.0Y-91.54
X161.0Y-98.04
X161.0Y-103.58
X161.0Y-110.08
X161.0Y-115.62
X161.0Y-122.12
X162.0Y-33.34
X162.0Y-35.84
X162.0Y-45.38
X162.0Y-47.88
X162.0Y-57.42
X162.0Y-59.92
X162.0Y-69.46
X162.0Y-71.96
X162.0Y-81.5
X162.0Y-84.0
X162.0Y-93.54
X162.0Y-96.04
X162.0Y-105.58
X162.0Y-108.08
X162.0Y-117.62
X162.0Y-120.12
X163.0Y-31.34
X163.0Y-37.84
X163.0Y-43.38
X163.0Y-49.88
X163.0Y-55.42
X163.0Y-61.92
X163.0Y-67.46
X163.0Y-73.96
X163.0Y-79.5
X163.0Y-86.0
X163.0Y-91.54
X163.0Y-98.04
X163.0Y-103.58
X163.0Y-110.08
X163.0Y-115.62
X163.0Y-122.12
T2
X96.84Y-27.5
X99.38Y-27.5
X101.92Y-27.5
X104.46Y-27.5
X107.0Y-27.5
X109.54Y-27.5
X112.08Y-27.5
X114.62Y-27.5
X117.16Y-27.5
X119.7Y-27.5
X122.24Y-27.5
X124.78Y-27.5
X127.32Y-27.5
X129.86Y-27.5
X132.4Y-27.5
X134.94Y-27.5
X137.48Y-27.5
X140.02Y-27.5
X142.56Y-27.5
X145.1Y-27.5
T3
X71.5Y-38.0
X71.5Y-43.0
M30
