%TF.GenerationSoftware,KiCad,Pcbnew,9.0.5*%
%TF.CreationDate,2025-11-19T18:22:51+02:00*%
%TF.ProjectId,backplane,6261636b-706c-4616-9e65-2e6b69636164,rev?*%
%TF.SameCoordinates,Original*%
%TF.FileFunction,Legend,Top*%
%TF.FilePolarity,Positive*%
%FSLAX46Y46*%
G04 Gerber Fmt 4.6, Leading zero omitted, Abs format (unit mm)*
G04 Created by KiCad (PCBNEW 9.0.5) date 2025-11-19 18:22:51*
%MOMM*%
%LPD*%
G01*
G04 APERTURE LIST*
%ADD10C,0.300000*%
%ADD11C,0.254000*%
%ADD12C,0.150000*%
%ADD13C,0.200000*%
%ADD14C,0.120000*%
%ADD15R,2.400000X2.400000*%
%ADD16C,2.400000*%
G04 APERTURE END LIST*
D10*
X73800828Y-102445489D02*
X72300828Y-102445489D01*
X72300828Y-102445489D02*
X73800828Y-101588346D01*
X73800828Y-101588346D02*
X72300828Y-101588346D01*
X73800828Y-100874060D02*
X72300828Y-100874060D01*
X73800828Y-100159774D02*
X72300828Y-100159774D01*
X73800828Y-99302631D02*
X72943685Y-99945488D01*
X72300828Y-99302631D02*
X73157971Y-100159774D01*
X73800828Y-98659774D02*
X72300828Y-98659774D01*
X72300828Y-98159773D02*
X72300828Y-97302631D01*
X73800828Y-97731202D02*
X72300828Y-97731202D01*
X73372257Y-96874059D02*
X73372257Y-96159774D01*
X73800828Y-97016916D02*
X72300828Y-96516916D01*
X72300828Y-96516916D02*
X73800828Y-96016916D01*
X73800828Y-93659774D02*
X73800828Y-94374060D01*
X73800828Y-94374060D02*
X72300828Y-94374060D01*
X73015114Y-93159774D02*
X73015114Y-92659774D01*
X73800828Y-92445488D02*
X73800828Y-93159774D01*
X73800828Y-93159774D02*
X72300828Y-93159774D01*
X72300828Y-93159774D02*
X72300828Y-92445488D01*
X73800828Y-91802631D02*
X72300828Y-91802631D01*
X72300828Y-91802631D02*
X73800828Y-90945488D01*
X73800828Y-90945488D02*
X72300828Y-90945488D01*
X73086542Y-89945487D02*
X73800828Y-89945487D01*
X72300828Y-90445487D02*
X73086542Y-89945487D01*
X73086542Y-89945487D02*
X72300828Y-89445487D01*
X73800828Y-88945488D02*
X72300828Y-88945488D01*
X73800828Y-88088345D02*
X72943685Y-88731202D01*
X72300828Y-88088345D02*
X73157971Y-88945488D01*
X71872257Y-62516917D02*
X71872257Y-61802632D01*
X72300828Y-62659774D02*
X70800828Y-62159774D01*
X70800828Y-62159774D02*
X72300828Y-61659774D01*
X72300828Y-61159775D02*
X70800828Y-61159775D01*
X70800828Y-61159775D02*
X72300828Y-60302632D01*
X72300828Y-60302632D02*
X70800828Y-60302632D01*
X72300828Y-59588346D02*
X70800828Y-59588346D01*
X70800828Y-59588346D02*
X70800828Y-59231203D01*
X70800828Y-59231203D02*
X70872257Y-59016917D01*
X70872257Y-59016917D02*
X71015114Y-58874060D01*
X71015114Y-58874060D02*
X71157971Y-58802631D01*
X71157971Y-58802631D02*
X71443685Y-58731203D01*
X71443685Y-58731203D02*
X71657971Y-58731203D01*
X71657971Y-58731203D02*
X71943685Y-58802631D01*
X71943685Y-58802631D02*
X72086542Y-58874060D01*
X72086542Y-58874060D02*
X72229400Y-59016917D01*
X72229400Y-59016917D02*
X72300828Y-59231203D01*
X72300828Y-59231203D02*
X72300828Y-59588346D01*
X72300828Y-57231203D02*
X71586542Y-57731203D01*
X72300828Y-58088346D02*
X70800828Y-58088346D01*
X70800828Y-58088346D02*
X70800828Y-57516917D01*
X70800828Y-57516917D02*
X70872257Y-57374060D01*
X70872257Y-57374060D02*
X70943685Y-57302631D01*
X70943685Y-57302631D02*
X71086542Y-57231203D01*
X71086542Y-57231203D02*
X71300828Y-57231203D01*
X71300828Y-57231203D02*
X71443685Y-57302631D01*
X71443685Y-57302631D02*
X71515114Y-57374060D01*
X71515114Y-57374060D02*
X71586542Y-57516917D01*
X71586542Y-57516917D02*
X71586542Y-58088346D01*
X72300828Y-56588346D02*
X70800828Y-56588346D01*
X72300828Y-55874060D02*
X70800828Y-55874060D01*
X72300828Y-54016917D02*
X70800828Y-54016917D01*
X70800828Y-54016917D02*
X71872257Y-53516917D01*
X71872257Y-53516917D02*
X70800828Y-53016917D01*
X70800828Y-53016917D02*
X72300828Y-53016917D01*
X70800828Y-52016916D02*
X70800828Y-51731202D01*
X70800828Y-51731202D02*
X70872257Y-51588345D01*
X70872257Y-51588345D02*
X71015114Y-51445488D01*
X71015114Y-51445488D02*
X71300828Y-51374059D01*
X71300828Y-51374059D02*
X71800828Y-51374059D01*
X71800828Y-51374059D02*
X72086542Y-51445488D01*
X72086542Y-51445488D02*
X72229400Y-51588345D01*
X72229400Y-51588345D02*
X72300828Y-51731202D01*
X72300828Y-51731202D02*
X72300828Y-52016916D01*
X72300828Y-52016916D02*
X72229400Y-52159774D01*
X72229400Y-52159774D02*
X72086542Y-52302631D01*
X72086542Y-52302631D02*
X71800828Y-52374059D01*
X71800828Y-52374059D02*
X71300828Y-52374059D01*
X71300828Y-52374059D02*
X71015114Y-52302631D01*
X71015114Y-52302631D02*
X70872257Y-52159774D01*
X70872257Y-52159774D02*
X70800828Y-52016916D01*
X72300828Y-49874059D02*
X71586542Y-50374059D01*
X72300828Y-50731202D02*
X70800828Y-50731202D01*
X70800828Y-50731202D02*
X70800828Y-50159773D01*
X70800828Y-50159773D02*
X70872257Y-50016916D01*
X70872257Y-50016916D02*
X70943685Y-49945487D01*
X70943685Y-49945487D02*
X71086542Y-49874059D01*
X71086542Y-49874059D02*
X71300828Y-49874059D01*
X71300828Y-49874059D02*
X71443685Y-49945487D01*
X71443685Y-49945487D02*
X71515114Y-50016916D01*
X71515114Y-50016916D02*
X71586542Y-50159773D01*
X71586542Y-50159773D02*
X71586542Y-50731202D01*
X70800828Y-48945487D02*
X70800828Y-48659773D01*
X70800828Y-48659773D02*
X70872257Y-48516916D01*
X70872257Y-48516916D02*
X71015114Y-48374059D01*
X71015114Y-48374059D02*
X71300828Y-48302630D01*
X71300828Y-48302630D02*
X71800828Y-48302630D01*
X71800828Y-48302630D02*
X72086542Y-48374059D01*
X72086542Y-48374059D02*
X72229400Y-48516916D01*
X72229400Y-48516916D02*
X72300828Y-48659773D01*
X72300828Y-48659773D02*
X72300828Y-48945487D01*
X72300828Y-48945487D02*
X72229400Y-49088345D01*
X72229400Y-49088345D02*
X72086542Y-49231202D01*
X72086542Y-49231202D02*
X71800828Y-49302630D01*
X71800828Y-49302630D02*
X71300828Y-49302630D01*
X71300828Y-49302630D02*
X71015114Y-49231202D01*
X71015114Y-49231202D02*
X70872257Y-49088345D01*
X70872257Y-49088345D02*
X70800828Y-48945487D01*
X70800828Y-47802630D02*
X70800828Y-46802630D01*
X70800828Y-46802630D02*
X72300828Y-47802630D01*
X72300828Y-47802630D02*
X72300828Y-46802630D01*
X72617257Y-123571428D02*
X69617257Y-123571428D01*
X69617257Y-123571428D02*
X71760114Y-122571428D01*
X71760114Y-122571428D02*
X69617257Y-121571428D01*
X69617257Y-121571428D02*
X72617257Y-121571428D01*
X71760114Y-120285714D02*
X71760114Y-118857143D01*
X72617257Y-120571428D02*
X69617257Y-119571428D01*
X69617257Y-119571428D02*
X72617257Y-118571428D01*
X72617257Y-117571428D02*
X69617257Y-117571428D01*
X69617257Y-117571428D02*
X69617257Y-116857142D01*
X69617257Y-116857142D02*
X69760114Y-116428571D01*
X69760114Y-116428571D02*
X70045828Y-116142856D01*
X70045828Y-116142856D02*
X70331542Y-115999999D01*
X70331542Y-115999999D02*
X70902971Y-115857142D01*
X70902971Y-115857142D02*
X71331542Y-115857142D01*
X71331542Y-115857142D02*
X71902971Y-115999999D01*
X71902971Y-115999999D02*
X72188685Y-116142856D01*
X72188685Y-116142856D02*
X72474400Y-116428571D01*
X72474400Y-116428571D02*
X72617257Y-116857142D01*
X72617257Y-116857142D02*
X72617257Y-117571428D01*
X71045828Y-114571428D02*
X71045828Y-113571428D01*
X72617257Y-113142856D02*
X72617257Y-114571428D01*
X72617257Y-114571428D02*
X69617257Y-114571428D01*
X69617257Y-114571428D02*
X69617257Y-113142856D01*
X71045828Y-108571428D02*
X71188685Y-108142856D01*
X71188685Y-108142856D02*
X71331542Y-107999999D01*
X71331542Y-107999999D02*
X71617257Y-107857142D01*
X71617257Y-107857142D02*
X72045828Y-107857142D01*
X72045828Y-107857142D02*
X72331542Y-107999999D01*
X72331542Y-107999999D02*
X72474400Y-108142856D01*
X72474400Y-108142856D02*
X72617257Y-108428571D01*
X72617257Y-108428571D02*
X72617257Y-109571428D01*
X72617257Y-109571428D02*
X69617257Y-109571428D01*
X69617257Y-109571428D02*
X69617257Y-108571428D01*
X69617257Y-108571428D02*
X69760114Y-108285714D01*
X69760114Y-108285714D02*
X69902971Y-108142856D01*
X69902971Y-108142856D02*
X70188685Y-107999999D01*
X70188685Y-107999999D02*
X70474400Y-107999999D01*
X70474400Y-107999999D02*
X70760114Y-108142856D01*
X70760114Y-108142856D02*
X70902971Y-108285714D01*
X70902971Y-108285714D02*
X71045828Y-108571428D01*
X71045828Y-108571428D02*
X71045828Y-109571428D01*
X71188685Y-105999999D02*
X72617257Y-105999999D01*
X69617257Y-106999999D02*
X71188685Y-105999999D01*
X71188685Y-105999999D02*
X69617257Y-104999999D01*
X69622257Y-102516917D02*
X69622257Y-101802632D01*
X70050828Y-102659774D02*
X68550828Y-102159774D01*
X68550828Y-102159774D02*
X70050828Y-101659774D01*
X70050828Y-101159775D02*
X68550828Y-101159775D01*
X68550828Y-101159775D02*
X70050828Y-100302632D01*
X70050828Y-100302632D02*
X68550828Y-100302632D01*
X70050828Y-99588346D02*
X68550828Y-99588346D01*
X68550828Y-99588346D02*
X68550828Y-99231203D01*
X68550828Y-99231203D02*
X68622257Y-99016917D01*
X68622257Y-99016917D02*
X68765114Y-98874060D01*
X68765114Y-98874060D02*
X68907971Y-98802631D01*
X68907971Y-98802631D02*
X69193685Y-98731203D01*
X69193685Y-98731203D02*
X69407971Y-98731203D01*
X69407971Y-98731203D02*
X69693685Y-98802631D01*
X69693685Y-98802631D02*
X69836542Y-98874060D01*
X69836542Y-98874060D02*
X69979400Y-99016917D01*
X69979400Y-99016917D02*
X70050828Y-99231203D01*
X70050828Y-99231203D02*
X70050828Y-99588346D01*
X70050828Y-97231203D02*
X69336542Y-97731203D01*
X70050828Y-98088346D02*
X68550828Y-98088346D01*
X68550828Y-98088346D02*
X68550828Y-97516917D01*
X68550828Y-97516917D02*
X68622257Y-97374060D01*
X68622257Y-97374060D02*
X68693685Y-97302631D01*
X68693685Y-97302631D02*
X68836542Y-97231203D01*
X68836542Y-97231203D02*
X69050828Y-97231203D01*
X69050828Y-97231203D02*
X69193685Y-97302631D01*
X69193685Y-97302631D02*
X69265114Y-97374060D01*
X69265114Y-97374060D02*
X69336542Y-97516917D01*
X69336542Y-97516917D02*
X69336542Y-98088346D01*
X70050828Y-96588346D02*
X68550828Y-96588346D01*
X70050828Y-95874060D02*
X68550828Y-95874060D01*
X70050828Y-94016917D02*
X68550828Y-94016917D01*
X70050828Y-93159774D02*
X69193685Y-93802631D01*
X68550828Y-93159774D02*
X69407971Y-94016917D01*
X70050828Y-91659774D02*
X69336542Y-92159774D01*
X70050828Y-92516917D02*
X68550828Y-92516917D01*
X68550828Y-92516917D02*
X68550828Y-91945488D01*
X68550828Y-91945488D02*
X68622257Y-91802631D01*
X68622257Y-91802631D02*
X68693685Y-91731202D01*
X68693685Y-91731202D02*
X68836542Y-91659774D01*
X68836542Y-91659774D02*
X69050828Y-91659774D01*
X69050828Y-91659774D02*
X69193685Y-91731202D01*
X69193685Y-91731202D02*
X69265114Y-91802631D01*
X69265114Y-91802631D02*
X69336542Y-91945488D01*
X69336542Y-91945488D02*
X69336542Y-92516917D01*
X69336542Y-90731202D02*
X70050828Y-90731202D01*
X68550828Y-91231202D02*
X69336542Y-90731202D01*
X69336542Y-90731202D02*
X68550828Y-90231202D01*
X68550828Y-89945488D02*
X70050828Y-89445488D01*
X70050828Y-89445488D02*
X68550828Y-88945488D01*
X69336542Y-88159774D02*
X70050828Y-88159774D01*
X68550828Y-88659774D02*
X69336542Y-88159774D01*
X69336542Y-88159774D02*
X68550828Y-87659774D01*
X70050828Y-87159775D02*
X68550828Y-87159775D01*
X72300828Y-83659774D02*
X72300828Y-83374060D01*
X72300828Y-83374060D02*
X72372257Y-83231203D01*
X72372257Y-83231203D02*
X72515114Y-83088346D01*
X72515114Y-83088346D02*
X72800828Y-83016917D01*
X72800828Y-83016917D02*
X73300828Y-83016917D01*
X73300828Y-83016917D02*
X73586542Y-83088346D01*
X73586542Y-83088346D02*
X73729400Y-83231203D01*
X73729400Y-83231203D02*
X73800828Y-83374060D01*
X73800828Y-83374060D02*
X73800828Y-83659774D01*
X73800828Y-83659774D02*
X73729400Y-83802632D01*
X73729400Y-83802632D02*
X73586542Y-83945489D01*
X73586542Y-83945489D02*
X73300828Y-84016917D01*
X73300828Y-84016917D02*
X72800828Y-84016917D01*
X72800828Y-84016917D02*
X72515114Y-83945489D01*
X72515114Y-83945489D02*
X72372257Y-83802632D01*
X72372257Y-83802632D02*
X72300828Y-83659774D01*
X73729400Y-82445488D02*
X73800828Y-82231203D01*
X73800828Y-82231203D02*
X73800828Y-81874060D01*
X73800828Y-81874060D02*
X73729400Y-81731203D01*
X73729400Y-81731203D02*
X73657971Y-81659774D01*
X73657971Y-81659774D02*
X73515114Y-81588345D01*
X73515114Y-81588345D02*
X73372257Y-81588345D01*
X73372257Y-81588345D02*
X73229400Y-81659774D01*
X73229400Y-81659774D02*
X73157971Y-81731203D01*
X73157971Y-81731203D02*
X73086542Y-81874060D01*
X73086542Y-81874060D02*
X73015114Y-82159774D01*
X73015114Y-82159774D02*
X72943685Y-82302631D01*
X72943685Y-82302631D02*
X72872257Y-82374060D01*
X72872257Y-82374060D02*
X72729400Y-82445488D01*
X72729400Y-82445488D02*
X72586542Y-82445488D01*
X72586542Y-82445488D02*
X72443685Y-82374060D01*
X72443685Y-82374060D02*
X72372257Y-82302631D01*
X72372257Y-82302631D02*
X72300828Y-82159774D01*
X72300828Y-82159774D02*
X72300828Y-81802631D01*
X72300828Y-81802631D02*
X72372257Y-81588345D01*
X72300828Y-81159774D02*
X72300828Y-80302632D01*
X73800828Y-80731203D02*
X72300828Y-80731203D01*
X73372257Y-79874060D02*
X73372257Y-79159775D01*
X73800828Y-80016917D02*
X72300828Y-79516917D01*
X72300828Y-79516917D02*
X73800828Y-79016917D01*
X73800828Y-78516918D02*
X72300828Y-78516918D01*
X72300828Y-78516918D02*
X72300828Y-77945489D01*
X72300828Y-77945489D02*
X72372257Y-77802632D01*
X72372257Y-77802632D02*
X72443685Y-77731203D01*
X72443685Y-77731203D02*
X72586542Y-77659775D01*
X72586542Y-77659775D02*
X72800828Y-77659775D01*
X72800828Y-77659775D02*
X72943685Y-77731203D01*
X72943685Y-77731203D02*
X73015114Y-77802632D01*
X73015114Y-77802632D02*
X73086542Y-77945489D01*
X73086542Y-77945489D02*
X73086542Y-78516918D01*
X73800828Y-75874061D02*
X72300828Y-75874061D01*
X73800828Y-75016918D02*
X72943685Y-75659775D01*
X72300828Y-75016918D02*
X73157971Y-75874061D01*
X72300828Y-74088346D02*
X72300828Y-73802632D01*
X72300828Y-73802632D02*
X72372257Y-73659775D01*
X72372257Y-73659775D02*
X72515114Y-73516918D01*
X72515114Y-73516918D02*
X72800828Y-73445489D01*
X72800828Y-73445489D02*
X73300828Y-73445489D01*
X73300828Y-73445489D02*
X73586542Y-73516918D01*
X73586542Y-73516918D02*
X73729400Y-73659775D01*
X73729400Y-73659775D02*
X73800828Y-73802632D01*
X73800828Y-73802632D02*
X73800828Y-74088346D01*
X73800828Y-74088346D02*
X73729400Y-74231204D01*
X73729400Y-74231204D02*
X73586542Y-74374061D01*
X73586542Y-74374061D02*
X73300828Y-74445489D01*
X73300828Y-74445489D02*
X72800828Y-74445489D01*
X72800828Y-74445489D02*
X72515114Y-74374061D01*
X72515114Y-74374061D02*
X72372257Y-74231204D01*
X72372257Y-74231204D02*
X72300828Y-74088346D01*
X73729400Y-72874060D02*
X73800828Y-72659775D01*
X73800828Y-72659775D02*
X73800828Y-72302632D01*
X73800828Y-72302632D02*
X73729400Y-72159775D01*
X73729400Y-72159775D02*
X73657971Y-72088346D01*
X73657971Y-72088346D02*
X73515114Y-72016917D01*
X73515114Y-72016917D02*
X73372257Y-72016917D01*
X73372257Y-72016917D02*
X73229400Y-72088346D01*
X73229400Y-72088346D02*
X73157971Y-72159775D01*
X73157971Y-72159775D02*
X73086542Y-72302632D01*
X73086542Y-72302632D02*
X73015114Y-72588346D01*
X73015114Y-72588346D02*
X72943685Y-72731203D01*
X72943685Y-72731203D02*
X72872257Y-72802632D01*
X72872257Y-72802632D02*
X72729400Y-72874060D01*
X72729400Y-72874060D02*
X72586542Y-72874060D01*
X72586542Y-72874060D02*
X72443685Y-72802632D01*
X72443685Y-72802632D02*
X72372257Y-72731203D01*
X72372257Y-72731203D02*
X72300828Y-72588346D01*
X72300828Y-72588346D02*
X72300828Y-72231203D01*
X72300828Y-72231203D02*
X72372257Y-72016917D01*
X72300828Y-71588346D02*
X72300828Y-70731204D01*
X73800828Y-71159775D02*
X72300828Y-71159775D01*
X73800828Y-70231204D02*
X72300828Y-70231204D01*
X72300828Y-69516918D02*
X73515114Y-69516918D01*
X73515114Y-69516918D02*
X73657971Y-69445489D01*
X73657971Y-69445489D02*
X73729400Y-69374061D01*
X73729400Y-69374061D02*
X73800828Y-69231203D01*
X73800828Y-69231203D02*
X73800828Y-68945489D01*
X73800828Y-68945489D02*
X73729400Y-68802632D01*
X73729400Y-68802632D02*
X73657971Y-68731203D01*
X73657971Y-68731203D02*
X73515114Y-68659775D01*
X73515114Y-68659775D02*
X72300828Y-68659775D01*
X73800828Y-67945489D02*
X72300828Y-67945489D01*
X73800828Y-67088346D02*
X72943685Y-67731203D01*
X72300828Y-67088346D02*
X73157971Y-67945489D01*
X70050828Y-83231203D02*
X70050828Y-83945489D01*
X70050828Y-83945489D02*
X68550828Y-83945489D01*
X68550828Y-82731203D02*
X69765114Y-82731203D01*
X69765114Y-82731203D02*
X69907971Y-82659774D01*
X69907971Y-82659774D02*
X69979400Y-82588346D01*
X69979400Y-82588346D02*
X70050828Y-82445488D01*
X70050828Y-82445488D02*
X70050828Y-82159774D01*
X70050828Y-82159774D02*
X69979400Y-82016917D01*
X69979400Y-82016917D02*
X69907971Y-81945488D01*
X69907971Y-81945488D02*
X69765114Y-81874060D01*
X69765114Y-81874060D02*
X68550828Y-81874060D01*
X70050828Y-81159774D02*
X68550828Y-81159774D01*
X70050828Y-80302631D02*
X69193685Y-80945488D01*
X68550828Y-80302631D02*
X69407971Y-81159774D01*
X69622257Y-79731202D02*
X69622257Y-79016917D01*
X70050828Y-79874059D02*
X68550828Y-79374059D01*
X68550828Y-79374059D02*
X70050828Y-78874059D01*
X70050828Y-77231203D02*
X68550828Y-77231203D01*
X70050828Y-76374060D02*
X69193685Y-77016917D01*
X68550828Y-76374060D02*
X69407971Y-77231203D01*
X68550828Y-75445488D02*
X68550828Y-75159774D01*
X68550828Y-75159774D02*
X68622257Y-75016917D01*
X68622257Y-75016917D02*
X68765114Y-74874060D01*
X68765114Y-74874060D02*
X69050828Y-74802631D01*
X69050828Y-74802631D02*
X69550828Y-74802631D01*
X69550828Y-74802631D02*
X69836542Y-74874060D01*
X69836542Y-74874060D02*
X69979400Y-75016917D01*
X69979400Y-75016917D02*
X70050828Y-75159774D01*
X70050828Y-75159774D02*
X70050828Y-75445488D01*
X70050828Y-75445488D02*
X69979400Y-75588346D01*
X69979400Y-75588346D02*
X69836542Y-75731203D01*
X69836542Y-75731203D02*
X69550828Y-75802631D01*
X69550828Y-75802631D02*
X69050828Y-75802631D01*
X69050828Y-75802631D02*
X68765114Y-75731203D01*
X68765114Y-75731203D02*
X68622257Y-75588346D01*
X68622257Y-75588346D02*
X68550828Y-75445488D01*
X70050828Y-74159774D02*
X68550828Y-74159774D01*
X68550828Y-74159774D02*
X70050828Y-73302631D01*
X70050828Y-73302631D02*
X68550828Y-73302631D01*
X68550828Y-72302630D02*
X68550828Y-72016916D01*
X68550828Y-72016916D02*
X68622257Y-71874059D01*
X68622257Y-71874059D02*
X68765114Y-71731202D01*
X68765114Y-71731202D02*
X69050828Y-71659773D01*
X69050828Y-71659773D02*
X69550828Y-71659773D01*
X69550828Y-71659773D02*
X69836542Y-71731202D01*
X69836542Y-71731202D02*
X69979400Y-71874059D01*
X69979400Y-71874059D02*
X70050828Y-72016916D01*
X70050828Y-72016916D02*
X70050828Y-72302630D01*
X70050828Y-72302630D02*
X69979400Y-72445488D01*
X69979400Y-72445488D02*
X69836542Y-72588345D01*
X69836542Y-72588345D02*
X69550828Y-72659773D01*
X69550828Y-72659773D02*
X69050828Y-72659773D01*
X69050828Y-72659773D02*
X68765114Y-72588345D01*
X68765114Y-72588345D02*
X68622257Y-72445488D01*
X68622257Y-72445488D02*
X68550828Y-72302630D01*
X68550828Y-71231201D02*
X70050828Y-70731201D01*
X70050828Y-70731201D02*
X68550828Y-70231201D01*
X69622257Y-69802630D02*
X69622257Y-69088345D01*
X70050828Y-69945487D02*
X68550828Y-69445487D01*
X68550828Y-69445487D02*
X70050828Y-68945487D01*
X70050828Y-67731202D02*
X70050828Y-68445488D01*
X70050828Y-68445488D02*
X68550828Y-68445488D01*
X68550828Y-66945487D02*
X68550828Y-66659773D01*
X68550828Y-66659773D02*
X68622257Y-66516916D01*
X68622257Y-66516916D02*
X68765114Y-66374059D01*
X68765114Y-66374059D02*
X69050828Y-66302630D01*
X69050828Y-66302630D02*
X69550828Y-66302630D01*
X69550828Y-66302630D02*
X69836542Y-66374059D01*
X69836542Y-66374059D02*
X69979400Y-66516916D01*
X69979400Y-66516916D02*
X70050828Y-66659773D01*
X70050828Y-66659773D02*
X70050828Y-66945487D01*
X70050828Y-66945487D02*
X69979400Y-67088345D01*
X69979400Y-67088345D02*
X69836542Y-67231202D01*
X69836542Y-67231202D02*
X69550828Y-67302630D01*
X69550828Y-67302630D02*
X69050828Y-67302630D01*
X69050828Y-67302630D02*
X68765114Y-67231202D01*
X68765114Y-67231202D02*
X68622257Y-67088345D01*
X68622257Y-67088345D02*
X68550828Y-66945487D01*
X68550828Y-65874058D02*
X70050828Y-65374058D01*
X70050828Y-65374058D02*
X68550828Y-64874058D01*
D11*
X68054318Y-37173332D02*
X68961461Y-37173332D01*
X68961461Y-37173332D02*
X69142889Y-37233809D01*
X69142889Y-37233809D02*
X69263842Y-37354761D01*
X69263842Y-37354761D02*
X69324318Y-37536190D01*
X69324318Y-37536190D02*
X69324318Y-37657142D01*
X69324318Y-35903332D02*
X69324318Y-36629047D01*
X69324318Y-36266190D02*
X68054318Y-36266190D01*
X68054318Y-36266190D02*
X68235746Y-36387142D01*
X68235746Y-36387142D02*
X68356699Y-36508094D01*
X68356699Y-36508094D02*
X68417175Y-36629047D01*
D12*
X93524819Y-27833333D02*
X94239104Y-27833333D01*
X94239104Y-27833333D02*
X94381961Y-27880952D01*
X94381961Y-27880952D02*
X94477200Y-27976190D01*
X94477200Y-27976190D02*
X94524819Y-28119047D01*
X94524819Y-28119047D02*
X94524819Y-28214285D01*
X93620057Y-27404761D02*
X93572438Y-27357142D01*
X93572438Y-27357142D02*
X93524819Y-27261904D01*
X93524819Y-27261904D02*
X93524819Y-27023809D01*
X93524819Y-27023809D02*
X93572438Y-26928571D01*
X93572438Y-26928571D02*
X93620057Y-26880952D01*
X93620057Y-26880952D02*
X93715295Y-26833333D01*
X93715295Y-26833333D02*
X93810533Y-26833333D01*
X93810533Y-26833333D02*
X93953390Y-26880952D01*
X93953390Y-26880952D02*
X94524819Y-27452380D01*
X94524819Y-27452380D02*
X94524819Y-26833333D01*
X69306819Y-33761904D02*
X69306819Y-33190476D01*
X70306819Y-33476190D02*
X69306819Y-33476190D01*
X70306819Y-32857142D02*
X69306819Y-32857142D01*
X69306819Y-32857142D02*
X69306819Y-32476190D01*
X69306819Y-32476190D02*
X69354438Y-32380952D01*
X69354438Y-32380952D02*
X69402057Y-32333333D01*
X69402057Y-32333333D02*
X69497295Y-32285714D01*
X69497295Y-32285714D02*
X69640152Y-32285714D01*
X69640152Y-32285714D02*
X69735390Y-32333333D01*
X69735390Y-32333333D02*
X69783009Y-32380952D01*
X69783009Y-32380952D02*
X69830628Y-32476190D01*
X69830628Y-32476190D02*
X69830628Y-32857142D01*
X69402057Y-31904761D02*
X69354438Y-31857142D01*
X69354438Y-31857142D02*
X69306819Y-31761904D01*
X69306819Y-31761904D02*
X69306819Y-31523809D01*
X69306819Y-31523809D02*
X69354438Y-31428571D01*
X69354438Y-31428571D02*
X69402057Y-31380952D01*
X69402057Y-31380952D02*
X69497295Y-31333333D01*
X69497295Y-31333333D02*
X69592533Y-31333333D01*
X69592533Y-31333333D02*
X69735390Y-31380952D01*
X69735390Y-31380952D02*
X70306819Y-31952380D01*
X70306819Y-31952380D02*
X70306819Y-31333333D01*
%TO.C,MOD2*%
X77000000Y-42930000D02*
X80036000Y-42930000D01*
X77000000Y-51730000D02*
X77000000Y-42930000D01*
X89964000Y-42930000D02*
X92036000Y-42930000D01*
X163964000Y-42930000D02*
X166000000Y-42930000D01*
X166000000Y-42930000D02*
X166000000Y-45110000D01*
X166000000Y-51730000D02*
X77000000Y-51730000D01*
X166000000Y-51730000D02*
X166000000Y-48150000D01*
X80050000Y-42380000D02*
G75*
G02*
X79950000Y-42380000I-50000J0D01*
G01*
X79950000Y-42380000D02*
G75*
G02*
X80050000Y-42380000I50000J0D01*
G01*
D13*
%TO.C,J1*%
X67700000Y-38000000D02*
X67700000Y-45500000D01*
X67700000Y-45500000D02*
X75500000Y-45500000D01*
X75500000Y-35500000D02*
X71500000Y-35500000D01*
X75500000Y-45500000D02*
X75500000Y-35500000D01*
D12*
%TO.C,MOD6*%
X77000000Y-91090000D02*
X80036000Y-91090000D01*
X77000000Y-99890000D02*
X77000000Y-91090000D01*
X89964000Y-91090000D02*
X92036000Y-91090000D01*
X163964000Y-91090000D02*
X166000000Y-91090000D01*
X166000000Y-91090000D02*
X166000000Y-93270000D01*
X166000000Y-99890000D02*
X77000000Y-99890000D01*
X166000000Y-99890000D02*
X166000000Y-96310000D01*
X80050000Y-90540000D02*
G75*
G02*
X79950000Y-90540000I-50000J0D01*
G01*
X79950000Y-90540000D02*
G75*
G02*
X80050000Y-90540000I50000J0D01*
G01*
%TO.C,MOD7*%
X77000000Y-103130000D02*
X80036000Y-103130000D01*
X77000000Y-111930000D02*
X77000000Y-103130000D01*
X89964000Y-103130000D02*
X92036000Y-103130000D01*
X163964000Y-103130000D02*
X166000000Y-103130000D01*
X166000000Y-103130000D02*
X166000000Y-105310000D01*
X166000000Y-111930000D02*
X77000000Y-111930000D01*
X166000000Y-111930000D02*
X166000000Y-108350000D01*
X80050000Y-102580000D02*
G75*
G02*
X79950000Y-102580000I-50000J0D01*
G01*
X79950000Y-102580000D02*
G75*
G02*
X80050000Y-102580000I50000J0D01*
G01*
%TO.C,MOD5*%
X77000000Y-79050000D02*
X80036000Y-79050000D01*
X77000000Y-87850000D02*
X77000000Y-79050000D01*
X89964000Y-79050000D02*
X92036000Y-79050000D01*
X163964000Y-79050000D02*
X166000000Y-79050000D01*
X166000000Y-79050000D02*
X166000000Y-81230000D01*
X166000000Y-87850000D02*
X77000000Y-87850000D01*
X166000000Y-87850000D02*
X166000000Y-84270000D01*
X80050000Y-78500000D02*
G75*
G02*
X79950000Y-78500000I-50000J0D01*
G01*
X79950000Y-78500000D02*
G75*
G02*
X80050000Y-78500000I50000J0D01*
G01*
%TO.C,MOD4*%
X77000000Y-67010000D02*
X80036000Y-67010000D01*
X77000000Y-75810000D02*
X77000000Y-67010000D01*
X89964000Y-67010000D02*
X92036000Y-67010000D01*
X163964000Y-67010000D02*
X166000000Y-67010000D01*
X166000000Y-67010000D02*
X166000000Y-69190000D01*
X166000000Y-75810000D02*
X77000000Y-75810000D01*
X166000000Y-75810000D02*
X166000000Y-72230000D01*
X80050000Y-66460000D02*
G75*
G02*
X79950000Y-66460000I-50000J0D01*
G01*
X79950000Y-66460000D02*
G75*
G02*
X80050000Y-66460000I50000J0D01*
G01*
%TO.C,MOD8*%
X77000000Y-115170000D02*
X80036000Y-115170000D01*
X77000000Y-123970000D02*
X77000000Y-115170000D01*
X89964000Y-115170000D02*
X92036000Y-115170000D01*
X163964000Y-115170000D02*
X166000000Y-115170000D01*
X166000000Y-115170000D02*
X166000000Y-117350000D01*
X166000000Y-123970000D02*
X77000000Y-123970000D01*
X166000000Y-123970000D02*
X166000000Y-120390000D01*
X80050000Y-114620000D02*
G75*
G02*
X79950000Y-114620000I-50000J0D01*
G01*
X79950000Y-114620000D02*
G75*
G02*
X80050000Y-114620000I50000J0D01*
G01*
%TO.C,MOD3*%
X77000000Y-54970000D02*
X80036000Y-54970000D01*
X77000000Y-63770000D02*
X77000000Y-54970000D01*
X89964000Y-54970000D02*
X92036000Y-54970000D01*
X163964000Y-54970000D02*
X166000000Y-54970000D01*
X166000000Y-54970000D02*
X166000000Y-57150000D01*
X166000000Y-63770000D02*
X77000000Y-63770000D01*
X166000000Y-63770000D02*
X166000000Y-60190000D01*
X80050000Y-54420000D02*
G75*
G02*
X79950000Y-54420000I-50000J0D01*
G01*
X79950000Y-54420000D02*
G75*
G02*
X80050000Y-54420000I50000J0D01*
G01*
D14*
%TO.C,J2*%
X95510000Y-26170000D02*
X96840000Y-26170000D01*
X95510000Y-27500000D02*
X95510000Y-26170000D01*
X98110000Y-26170000D02*
X146430000Y-26170000D01*
X98110000Y-28830000D02*
X98110000Y-26170000D01*
X98110000Y-28830000D02*
X146430000Y-28830000D01*
X146430000Y-28830000D02*
X146430000Y-26170000D01*
D12*
%TO.C,MOD1*%
X77000000Y-30890000D02*
X80036000Y-30890000D01*
X77000000Y-39690000D02*
X77000000Y-30890000D01*
X89964000Y-30890000D02*
X92036000Y-30890000D01*
X163964000Y-30890000D02*
X166000000Y-30890000D01*
X166000000Y-30890000D02*
X166000000Y-33070000D01*
X166000000Y-39690000D02*
X77000000Y-39690000D01*
X166000000Y-39690000D02*
X166000000Y-36110000D01*
X80050000Y-30340000D02*
G75*
G02*
X79950000Y-30340000I-50000J0D01*
G01*
X79950000Y-30340000D02*
G75*
G02*
X80050000Y-30340000I50000J0D01*
G01*
D14*
%TO.C,TP2*%
X72450000Y-32500000D02*
G75*
G02*
X70550000Y-32500000I-950000J0D01*
G01*
X70550000Y-32500000D02*
G75*
G02*
X72450000Y-32500000I950000J0D01*
G01*
%TD*%
D15*
%TO.C,J1*%
X71500000Y-38000000D03*
D16*
X71500000Y-43000000D03*
%TD*%
M02*
