%TF.GenerationSoftware,KiCad,Pcbnew,9.0.5*%
%TF.CreationDate,2025-11-19T18:22:51+02:00*%
%TF.ProjectId,backplane,6261636b-706c-4616-9e65-2e6b69636164,rev?*%
%TF.SameCoordinates,Original*%
%TF.FileFunction,Copper,L3,Inr*%
%TF.FilePolarity,Positive*%
%FSLAX46Y46*%
G04 Gerber Fmt 4.6, Leading zero omitted, Abs format (unit mm)*
G04 Created by KiCad (PCBNEW 9.0.5) date 2025-11-19 18:22:51*
%MOMM*%
%LPD*%
G01*
G04 APERTURE LIST*
%TA.AperFunction,ComponentPad*%
%ADD10R,1.288000X1.288000*%
%TD*%
%TA.AperFunction,ComponentPad*%
%ADD11C,1.288000*%
%TD*%
%TA.AperFunction,ComponentPad*%
%ADD12R,2.400000X2.400000*%
%TD*%
%TA.AperFunction,ComponentPad*%
%ADD13C,2.400000*%
%TD*%
%TA.AperFunction,ComponentPad*%
%ADD14R,1.700000X1.700000*%
%TD*%
%TA.AperFunction,ComponentPad*%
%ADD15C,1.700000*%
%TD*%
%TA.AperFunction,Conductor*%
%ADD16C,0.200000*%
%TD*%
%TA.AperFunction,Conductor*%
%ADD17C,0.700000*%
%TD*%
%TA.AperFunction,Conductor*%
%ADD18C,0.300000*%
%TD*%
%TA.AperFunction,Conductor*%
%ADD19C,1.000000*%
%TD*%
G04 APERTURE END LIST*
D10*
%TO.N,VCC*%
%TO.C,MOD2*%
X80000000Y-45380000D03*
D11*
X81000000Y-43380000D03*
X82000000Y-45380000D03*
X83000000Y-43380000D03*
X84000000Y-45380000D03*
%TO.N,N/C*%
X85000000Y-43380000D03*
X86000000Y-45380000D03*
X87000000Y-43380000D03*
X88000000Y-45380000D03*
X89000000Y-43380000D03*
X90000000Y-45380000D03*
%TO.N,GND*%
X93000000Y-43380000D03*
X94000000Y-45380000D03*
%TO.N,/~{LMEM}*%
X95000000Y-43380000D03*
%TO.N,/LSPH*%
X96000000Y-45380000D03*
%TO.N,/LSPL*%
X97000000Y-43380000D03*
%TO.N,/LPCH*%
X98000000Y-45380000D03*
%TO.N,/LPCL*%
X99000000Y-43380000D03*
%TO.N,/~{LARGH}*%
X100000000Y-45380000D03*
%TO.N,/~{LARGL}*%
X101000000Y-43380000D03*
%TO.N,/~{LAC}*%
X102000000Y-45380000D03*
%TO.N,/~{LXH}*%
X103000000Y-43380000D03*
%TO.N,GND*%
X104000000Y-45380000D03*
%TO.N,/~{LYL}*%
X105000000Y-43380000D03*
%TO.N,/~{LYH}*%
X106000000Y-45380000D03*
%TO.N,/~{LZL}*%
X107000000Y-43380000D03*
%TO.N,/~{LZH}*%
X108000000Y-45380000D03*
%TO.N,/~{LFR}*%
X109000000Y-43380000D03*
%TO.N,/~{LINST}*%
X110000000Y-45380000D03*
%TO.N,/LADRH*%
X111000000Y-43380000D03*
%TO.N,/LADRL*%
X112000000Y-45380000D03*
%TO.N,GND*%
X113000000Y-43380000D03*
%TO.N,/STATE0*%
X114000000Y-45380000D03*
%TO.N,/STATE1*%
X115000000Y-43380000D03*
%TO.N,/STATE2*%
X116000000Y-45380000D03*
%TO.N,/STATE3*%
X117000000Y-43380000D03*
%TO.N,/STATE4*%
X118000000Y-45380000D03*
%TO.N,/STATE5*%
X119000000Y-43380000D03*
%TO.N,/STATE6*%
X120000000Y-45380000D03*
%TO.N,/STATE7*%
X121000000Y-43380000D03*
%TO.N,GND*%
X122000000Y-45380000D03*
%TO.N,/STATE8*%
X123000000Y-43380000D03*
%TO.N,/STATE9*%
X124000000Y-45380000D03*
%TO.N,/STATE10*%
X125000000Y-43380000D03*
%TO.N,/STATE11*%
X126000000Y-45380000D03*
%TO.N,/STATE12*%
X127000000Y-43380000D03*
%TO.N,/STATE13*%
X128000000Y-45380000D03*
%TO.N,/STATE14*%
X129000000Y-43380000D03*
%TO.N,/STATE15*%
X130000000Y-45380000D03*
%TO.N,GND*%
X131000000Y-43380000D03*
%TO.N,/DATA0*%
X132000000Y-45380000D03*
%TO.N,/DATA1*%
X133000000Y-43380000D03*
%TO.N,/DATA2*%
X134000000Y-45380000D03*
%TO.N,/DATA3*%
X135000000Y-43380000D03*
%TO.N,/DATA4*%
X136000000Y-45380000D03*
%TO.N,/DATA5*%
X137000000Y-43380000D03*
%TO.N,/DATA6*%
X138000000Y-45380000D03*
%TO.N,/DATA7*%
X139000000Y-43380000D03*
%TO.N,GND*%
X140000000Y-45380000D03*
%TO.N,/ALUZO*%
X141000000Y-43380000D03*
%TO.N,/~{ALUCO}*%
X142000000Y-45380000D03*
%TO.N,/ALUSO*%
X143000000Y-43380000D03*
%TO.N,GND*%
X144000000Y-45380000D03*
X145000000Y-43380000D03*
X146000000Y-45380000D03*
X147000000Y-43380000D03*
%TO.N,/INTREQ*%
X148000000Y-45380000D03*
%TO.N,/~{WAIT}*%
X149000000Y-43380000D03*
%TO.N,/RESET*%
X150000000Y-45380000D03*
%TO.N,GND*%
X151000000Y-43380000D03*
X152000000Y-45380000D03*
X153000000Y-43380000D03*
X154000000Y-45380000D03*
X155000000Y-43380000D03*
X156000000Y-45380000D03*
X157000000Y-43380000D03*
%TO.N,N/C*%
X158000000Y-45380000D03*
X159000000Y-43380000D03*
%TO.N,/STATE16*%
X160000000Y-45380000D03*
%TO.N,N/C*%
X161000000Y-43380000D03*
X162000000Y-45380000D03*
X163000000Y-43380000D03*
%TO.N,VCC*%
X80000000Y-47880000D03*
X81000000Y-49880000D03*
X82000000Y-47880000D03*
X83000000Y-49880000D03*
X84000000Y-47880000D03*
%TO.N,N/C*%
X85000000Y-49880000D03*
X86000000Y-47880000D03*
X87000000Y-49880000D03*
X88000000Y-47880000D03*
X89000000Y-49880000D03*
X90000000Y-47880000D03*
%TO.N,GND*%
X93000000Y-49880000D03*
X94000000Y-47880000D03*
%TO.N,/~{RMEM}*%
X95000000Y-49880000D03*
%TO.N,/~{RSPH}*%
X96000000Y-47880000D03*
%TO.N,/~{RSPL}*%
X97000000Y-49880000D03*
%TO.N,/~{RPCH}*%
X98000000Y-47880000D03*
%TO.N,/~{RPCL}*%
X99000000Y-49880000D03*
%TO.N,/~{RARGH}*%
X100000000Y-47880000D03*
%TO.N,/~{RARGL}*%
X101000000Y-49880000D03*
%TO.N,/~{RAC}*%
X102000000Y-47880000D03*
%TO.N,/~{RXH}*%
X103000000Y-49880000D03*
%TO.N,GND*%
X104000000Y-47880000D03*
%TO.N,/~{RYL}*%
X105000000Y-49880000D03*
%TO.N,/~{RYH}*%
X106000000Y-47880000D03*
%TO.N,/~{RZL}*%
X107000000Y-49880000D03*
%TO.N,/~{RZH}*%
X108000000Y-47880000D03*
%TO.N,/~{RFR}*%
X109000000Y-49880000D03*
%TO.N,/~{RCONST}*%
X110000000Y-47880000D03*
%TO.N,/~{RALU}*%
X111000000Y-49880000D03*
%TO.N,/~{RINTC}*%
X112000000Y-47880000D03*
%TO.N,GND*%
X113000000Y-49880000D03*
%TO.N,/L0*%
X114000000Y-47880000D03*
%TO.N,/L1*%
X115000000Y-49880000D03*
%TO.N,/L2*%
X116000000Y-47880000D03*
%TO.N,/L3*%
X117000000Y-49880000D03*
%TO.N,/ALUM*%
X118000000Y-47880000D03*
%TO.N,/~{ALUCI}*%
X119000000Y-49880000D03*
%TO.N,/FRUpd*%
X120000000Y-47880000D03*
%TO.N,/R0*%
X121000000Y-49880000D03*
%TO.N,GND*%
X122000000Y-47880000D03*
%TO.N,/R1*%
X123000000Y-49880000D03*
%TO.N,/R2*%
X124000000Y-47880000D03*
%TO.N,/R3*%
X125000000Y-49880000D03*
%TO.N,/~{SCCLR}*%
X126000000Y-47880000D03*
%TO.N,/~{HALT}*%
X127000000Y-49880000D03*
%TO.N,/PCINC*%
X128000000Y-47880000D03*
%TO.N,/ALUS0*%
X129000000Y-49880000D03*
%TO.N,/ALUS1*%
X130000000Y-47880000D03*
%TO.N,GND*%
X131000000Y-49880000D03*
%TO.N,/ALUS2*%
X132000000Y-47880000D03*
%TO.N,/ALUS3*%
X133000000Y-49880000D03*
%TO.N,/SPDEC*%
X134000000Y-47880000D03*
%TO.N,/SPINC*%
X135000000Y-49880000D03*
%TO.N,/ACSHLEFT*%
X136000000Y-47880000D03*
%TO.N,/ACSHRIGHT*%
X137000000Y-49880000D03*
%TO.N,/INTE*%
X138000000Y-47880000D03*
%TO.N,/~{INTD}*%
X139000000Y-49880000D03*
%TO.N,GND*%
X140000000Y-47880000D03*
%TO.N,/ADRDEC*%
X141000000Y-49880000D03*
%TO.N,/ADRINC*%
X142000000Y-47880000D03*
%TO.N,GND*%
X143000000Y-49880000D03*
X144000000Y-47880000D03*
X145000000Y-49880000D03*
X146000000Y-47880000D03*
X147000000Y-49880000D03*
X148000000Y-47880000D03*
X149000000Y-49880000D03*
X150000000Y-47880000D03*
X151000000Y-49880000D03*
X152000000Y-47880000D03*
X153000000Y-49880000D03*
%TO.N,/~{CLK}*%
X154000000Y-47880000D03*
%TO.N,/PULSE*%
X155000000Y-49880000D03*
%TO.N,GND*%
X156000000Y-47880000D03*
X157000000Y-49880000D03*
%TO.N,N/C*%
X158000000Y-47880000D03*
X159000000Y-49880000D03*
%TO.N,/L4*%
X160000000Y-47880000D03*
%TO.N,/R4*%
X161000000Y-49880000D03*
%TO.N,N/C*%
X162000000Y-47880000D03*
X163000000Y-49880000D03*
%TD*%
D12*
%TO.N,GND*%
%TO.C,J1*%
X71500000Y-38000000D03*
D13*
%TO.N,VCC*%
X71500000Y-43000000D03*
%TD*%
D10*
%TO.N,VCC*%
%TO.C,MOD6*%
X80000000Y-93540000D03*
D11*
X81000000Y-91540000D03*
X82000000Y-93540000D03*
X83000000Y-91540000D03*
X84000000Y-93540000D03*
%TO.N,N/C*%
X85000000Y-91540000D03*
X86000000Y-93540000D03*
X87000000Y-91540000D03*
X88000000Y-93540000D03*
X89000000Y-91540000D03*
X90000000Y-93540000D03*
%TO.N,GND*%
X93000000Y-91540000D03*
X94000000Y-93540000D03*
%TO.N,/~{LMEM}*%
X95000000Y-91540000D03*
%TO.N,/LSPH*%
X96000000Y-93540000D03*
%TO.N,/LSPL*%
X97000000Y-91540000D03*
%TO.N,/LPCH*%
X98000000Y-93540000D03*
%TO.N,/LPCL*%
X99000000Y-91540000D03*
%TO.N,/~{LARGH}*%
X100000000Y-93540000D03*
%TO.N,/~{LARGL}*%
X101000000Y-91540000D03*
%TO.N,/~{LAC}*%
X102000000Y-93540000D03*
%TO.N,/~{LXH}*%
X103000000Y-91540000D03*
%TO.N,GND*%
X104000000Y-93540000D03*
%TO.N,/~{LYL}*%
X105000000Y-91540000D03*
%TO.N,/~{LYH}*%
X106000000Y-93540000D03*
%TO.N,/~{LZL}*%
X107000000Y-91540000D03*
%TO.N,/~{LZH}*%
X108000000Y-93540000D03*
%TO.N,/~{LFR}*%
X109000000Y-91540000D03*
%TO.N,/~{LINST}*%
X110000000Y-93540000D03*
%TO.N,/LADRH*%
X111000000Y-91540000D03*
%TO.N,/LADRL*%
X112000000Y-93540000D03*
%TO.N,GND*%
X113000000Y-91540000D03*
%TO.N,/STATE0*%
X114000000Y-93540000D03*
%TO.N,/STATE1*%
X115000000Y-91540000D03*
%TO.N,/STATE2*%
X116000000Y-93540000D03*
%TO.N,/STATE3*%
X117000000Y-91540000D03*
%TO.N,/STATE4*%
X118000000Y-93540000D03*
%TO.N,/STATE5*%
X119000000Y-91540000D03*
%TO.N,/STATE6*%
X120000000Y-93540000D03*
%TO.N,/STATE7*%
X121000000Y-91540000D03*
%TO.N,GND*%
X122000000Y-93540000D03*
%TO.N,/STATE8*%
X123000000Y-91540000D03*
%TO.N,/STATE9*%
X124000000Y-93540000D03*
%TO.N,/STATE10*%
X125000000Y-91540000D03*
%TO.N,/STATE11*%
X126000000Y-93540000D03*
%TO.N,/STATE12*%
X127000000Y-91540000D03*
%TO.N,/STATE13*%
X128000000Y-93540000D03*
%TO.N,/STATE14*%
X129000000Y-91540000D03*
%TO.N,/STATE15*%
X130000000Y-93540000D03*
%TO.N,GND*%
X131000000Y-91540000D03*
%TO.N,/DATA0*%
X132000000Y-93540000D03*
%TO.N,/DATA1*%
X133000000Y-91540000D03*
%TO.N,/DATA2*%
X134000000Y-93540000D03*
%TO.N,/DATA3*%
X135000000Y-91540000D03*
%TO.N,/DATA4*%
X136000000Y-93540000D03*
%TO.N,/DATA5*%
X137000000Y-91540000D03*
%TO.N,/DATA6*%
X138000000Y-93540000D03*
%TO.N,/DATA7*%
X139000000Y-91540000D03*
%TO.N,GND*%
X140000000Y-93540000D03*
%TO.N,/ALUZO*%
X141000000Y-91540000D03*
%TO.N,/~{ALUCO}*%
X142000000Y-93540000D03*
%TO.N,/ALUSO*%
X143000000Y-91540000D03*
%TO.N,GND*%
X144000000Y-93540000D03*
X145000000Y-91540000D03*
X146000000Y-93540000D03*
X147000000Y-91540000D03*
%TO.N,/INTREQ*%
X148000000Y-93540000D03*
%TO.N,/~{WAIT}*%
X149000000Y-91540000D03*
%TO.N,/RESET*%
X150000000Y-93540000D03*
%TO.N,GND*%
X151000000Y-91540000D03*
X152000000Y-93540000D03*
X153000000Y-91540000D03*
X154000000Y-93540000D03*
X155000000Y-91540000D03*
X156000000Y-93540000D03*
X157000000Y-91540000D03*
%TO.N,N/C*%
X158000000Y-93540000D03*
X159000000Y-91540000D03*
%TO.N,/STATE16*%
X160000000Y-93540000D03*
%TO.N,N/C*%
X161000000Y-91540000D03*
X162000000Y-93540000D03*
X163000000Y-91540000D03*
%TO.N,VCC*%
X80000000Y-96040000D03*
X81000000Y-98040000D03*
X82000000Y-96040000D03*
X83000000Y-98040000D03*
X84000000Y-96040000D03*
%TO.N,N/C*%
X85000000Y-98040000D03*
X86000000Y-96040000D03*
X87000000Y-98040000D03*
X88000000Y-96040000D03*
X89000000Y-98040000D03*
X90000000Y-96040000D03*
%TO.N,GND*%
X93000000Y-98040000D03*
X94000000Y-96040000D03*
%TO.N,/~{RMEM}*%
X95000000Y-98040000D03*
%TO.N,/~{RSPH}*%
X96000000Y-96040000D03*
%TO.N,/~{RSPL}*%
X97000000Y-98040000D03*
%TO.N,/~{RPCH}*%
X98000000Y-96040000D03*
%TO.N,/~{RPCL}*%
X99000000Y-98040000D03*
%TO.N,/~{RARGH}*%
X100000000Y-96040000D03*
%TO.N,/~{RARGL}*%
X101000000Y-98040000D03*
%TO.N,/~{RAC}*%
X102000000Y-96040000D03*
%TO.N,/~{RXH}*%
X103000000Y-98040000D03*
%TO.N,GND*%
X104000000Y-96040000D03*
%TO.N,/~{RYL}*%
X105000000Y-98040000D03*
%TO.N,/~{RYH}*%
X106000000Y-96040000D03*
%TO.N,/~{RZL}*%
X107000000Y-98040000D03*
%TO.N,/~{RZH}*%
X108000000Y-96040000D03*
%TO.N,/~{RFR}*%
X109000000Y-98040000D03*
%TO.N,/~{RCONST}*%
X110000000Y-96040000D03*
%TO.N,/~{RALU}*%
X111000000Y-98040000D03*
%TO.N,/~{RINTC}*%
X112000000Y-96040000D03*
%TO.N,GND*%
X113000000Y-98040000D03*
%TO.N,/L0*%
X114000000Y-96040000D03*
%TO.N,/L1*%
X115000000Y-98040000D03*
%TO.N,/L2*%
X116000000Y-96040000D03*
%TO.N,/L3*%
X117000000Y-98040000D03*
%TO.N,/ALUM*%
X118000000Y-96040000D03*
%TO.N,/~{ALUCI}*%
X119000000Y-98040000D03*
%TO.N,/FRUpd*%
X120000000Y-96040000D03*
%TO.N,/R0*%
X121000000Y-98040000D03*
%TO.N,GND*%
X122000000Y-96040000D03*
%TO.N,/R1*%
X123000000Y-98040000D03*
%TO.N,/R2*%
X124000000Y-96040000D03*
%TO.N,/R3*%
X125000000Y-98040000D03*
%TO.N,/~{SCCLR}*%
X126000000Y-96040000D03*
%TO.N,/~{HALT}*%
X127000000Y-98040000D03*
%TO.N,/PCINC*%
X128000000Y-96040000D03*
%TO.N,/ALUS0*%
X129000000Y-98040000D03*
%TO.N,/ALUS1*%
X130000000Y-96040000D03*
%TO.N,GND*%
X131000000Y-98040000D03*
%TO.N,/ALUS2*%
X132000000Y-96040000D03*
%TO.N,/ALUS3*%
X133000000Y-98040000D03*
%TO.N,/SPDEC*%
X134000000Y-96040000D03*
%TO.N,/SPINC*%
X135000000Y-98040000D03*
%TO.N,/ACSHLEFT*%
X136000000Y-96040000D03*
%TO.N,/ACSHRIGHT*%
X137000000Y-98040000D03*
%TO.N,/INTE*%
X138000000Y-96040000D03*
%TO.N,/~{INTD}*%
X139000000Y-98040000D03*
%TO.N,GND*%
X140000000Y-96040000D03*
%TO.N,/ADRDEC*%
X141000000Y-98040000D03*
%TO.N,/ADRINC*%
X142000000Y-96040000D03*
%TO.N,GND*%
X143000000Y-98040000D03*
X144000000Y-96040000D03*
X145000000Y-98040000D03*
X146000000Y-96040000D03*
X147000000Y-98040000D03*
X148000000Y-96040000D03*
X149000000Y-98040000D03*
X150000000Y-96040000D03*
X151000000Y-98040000D03*
X152000000Y-96040000D03*
X153000000Y-98040000D03*
%TO.N,/~{CLK}*%
X154000000Y-96040000D03*
%TO.N,/PULSE*%
X155000000Y-98040000D03*
%TO.N,GND*%
X156000000Y-96040000D03*
X157000000Y-98040000D03*
%TO.N,N/C*%
X158000000Y-96040000D03*
X159000000Y-98040000D03*
%TO.N,/L4*%
X160000000Y-96040000D03*
%TO.N,/R4*%
X161000000Y-98040000D03*
%TO.N,N/C*%
X162000000Y-96040000D03*
X163000000Y-98040000D03*
%TD*%
D10*
%TO.N,VCC*%
%TO.C,MOD7*%
X80000000Y-105580000D03*
D11*
X81000000Y-103580000D03*
X82000000Y-105580000D03*
X83000000Y-103580000D03*
X84000000Y-105580000D03*
%TO.N,N/C*%
X85000000Y-103580000D03*
X86000000Y-105580000D03*
X87000000Y-103580000D03*
X88000000Y-105580000D03*
X89000000Y-103580000D03*
X90000000Y-105580000D03*
%TO.N,GND*%
X93000000Y-103580000D03*
X94000000Y-105580000D03*
%TO.N,/~{LMEM}*%
X95000000Y-103580000D03*
%TO.N,/LSPH*%
X96000000Y-105580000D03*
%TO.N,/LSPL*%
X97000000Y-103580000D03*
%TO.N,/LPCH*%
X98000000Y-105580000D03*
%TO.N,/LPCL*%
X99000000Y-103580000D03*
%TO.N,/~{LARGH}*%
X100000000Y-105580000D03*
%TO.N,/~{LARGL}*%
X101000000Y-103580000D03*
%TO.N,/~{LAC}*%
X102000000Y-105580000D03*
%TO.N,/~{LXH}*%
X103000000Y-103580000D03*
%TO.N,GND*%
X104000000Y-105580000D03*
%TO.N,/~{LYL}*%
X105000000Y-103580000D03*
%TO.N,/~{LYH}*%
X106000000Y-105580000D03*
%TO.N,/~{LZL}*%
X107000000Y-103580000D03*
%TO.N,/~{LZH}*%
X108000000Y-105580000D03*
%TO.N,/~{LFR}*%
X109000000Y-103580000D03*
%TO.N,/~{LINST}*%
X110000000Y-105580000D03*
%TO.N,/LADRH*%
X111000000Y-103580000D03*
%TO.N,/LADRL*%
X112000000Y-105580000D03*
%TO.N,GND*%
X113000000Y-103580000D03*
%TO.N,/STATE0*%
X114000000Y-105580000D03*
%TO.N,/STATE1*%
X115000000Y-103580000D03*
%TO.N,/STATE2*%
X116000000Y-105580000D03*
%TO.N,/STATE3*%
X117000000Y-103580000D03*
%TO.N,/STATE4*%
X118000000Y-105580000D03*
%TO.N,/STATE5*%
X119000000Y-103580000D03*
%TO.N,/STATE6*%
X120000000Y-105580000D03*
%TO.N,/STATE7*%
X121000000Y-103580000D03*
%TO.N,GND*%
X122000000Y-105580000D03*
%TO.N,/STATE8*%
X123000000Y-103580000D03*
%TO.N,/STATE9*%
X124000000Y-105580000D03*
%TO.N,/STATE10*%
X125000000Y-103580000D03*
%TO.N,/STATE11*%
X126000000Y-105580000D03*
%TO.N,/STATE12*%
X127000000Y-103580000D03*
%TO.N,/STATE13*%
X128000000Y-105580000D03*
%TO.N,/STATE14*%
X129000000Y-103580000D03*
%TO.N,/STATE15*%
X130000000Y-105580000D03*
%TO.N,GND*%
X131000000Y-103580000D03*
%TO.N,/DATA0*%
X132000000Y-105580000D03*
%TO.N,/DATA1*%
X133000000Y-103580000D03*
%TO.N,/DATA2*%
X134000000Y-105580000D03*
%TO.N,/DATA3*%
X135000000Y-103580000D03*
%TO.N,/DATA4*%
X136000000Y-105580000D03*
%TO.N,/DATA5*%
X137000000Y-103580000D03*
%TO.N,/DATA6*%
X138000000Y-105580000D03*
%TO.N,/DATA7*%
X139000000Y-103580000D03*
%TO.N,GND*%
X140000000Y-105580000D03*
%TO.N,/ALUZO*%
X141000000Y-103580000D03*
%TO.N,/~{ALUCO}*%
X142000000Y-105580000D03*
%TO.N,/ALUSO*%
X143000000Y-103580000D03*
%TO.N,GND*%
X144000000Y-105580000D03*
X145000000Y-103580000D03*
X146000000Y-105580000D03*
X147000000Y-103580000D03*
%TO.N,/INTREQ*%
X148000000Y-105580000D03*
%TO.N,/~{WAIT}*%
X149000000Y-103580000D03*
%TO.N,/RESET*%
X150000000Y-105580000D03*
%TO.N,GND*%
X151000000Y-103580000D03*
X152000000Y-105580000D03*
X153000000Y-103580000D03*
X154000000Y-105580000D03*
X155000000Y-103580000D03*
X156000000Y-105580000D03*
X157000000Y-103580000D03*
%TO.N,N/C*%
X158000000Y-105580000D03*
X159000000Y-103580000D03*
%TO.N,/STATE16*%
X160000000Y-105580000D03*
%TO.N,N/C*%
X161000000Y-103580000D03*
X162000000Y-105580000D03*
X163000000Y-103580000D03*
%TO.N,VCC*%
X80000000Y-108080000D03*
X81000000Y-110080000D03*
X82000000Y-108080000D03*
X83000000Y-110080000D03*
X84000000Y-108080000D03*
%TO.N,N/C*%
X85000000Y-110080000D03*
X86000000Y-108080000D03*
X87000000Y-110080000D03*
X88000000Y-108080000D03*
X89000000Y-110080000D03*
X90000000Y-108080000D03*
%TO.N,GND*%
X93000000Y-110080000D03*
X94000000Y-108080000D03*
%TO.N,/~{RMEM}*%
X95000000Y-110080000D03*
%TO.N,/~{RSPH}*%
X96000000Y-108080000D03*
%TO.N,/~{RSPL}*%
X97000000Y-110080000D03*
%TO.N,/~{RPCH}*%
X98000000Y-108080000D03*
%TO.N,/~{RPCL}*%
X99000000Y-110080000D03*
%TO.N,/~{RARGH}*%
X100000000Y-108080000D03*
%TO.N,/~{RARGL}*%
X101000000Y-110080000D03*
%TO.N,/~{RAC}*%
X102000000Y-108080000D03*
%TO.N,/~{RXH}*%
X103000000Y-110080000D03*
%TO.N,GND*%
X104000000Y-108080000D03*
%TO.N,/~{RYL}*%
X105000000Y-110080000D03*
%TO.N,/~{RYH}*%
X106000000Y-108080000D03*
%TO.N,/~{RZL}*%
X107000000Y-110080000D03*
%TO.N,/~{RZH}*%
X108000000Y-108080000D03*
%TO.N,/~{RFR}*%
X109000000Y-110080000D03*
%TO.N,/~{RCONST}*%
X110000000Y-108080000D03*
%TO.N,/~{RALU}*%
X111000000Y-110080000D03*
%TO.N,/~{RINTC}*%
X112000000Y-108080000D03*
%TO.N,GND*%
X113000000Y-110080000D03*
%TO.N,/L0*%
X114000000Y-108080000D03*
%TO.N,/L1*%
X115000000Y-110080000D03*
%TO.N,/L2*%
X116000000Y-108080000D03*
%TO.N,/L3*%
X117000000Y-110080000D03*
%TO.N,/ALUM*%
X118000000Y-108080000D03*
%TO.N,/~{ALUCI}*%
X119000000Y-110080000D03*
%TO.N,/FRUpd*%
X120000000Y-108080000D03*
%TO.N,/R0*%
X121000000Y-110080000D03*
%TO.N,GND*%
X122000000Y-108080000D03*
%TO.N,/R1*%
X123000000Y-110080000D03*
%TO.N,/R2*%
X124000000Y-108080000D03*
%TO.N,/R3*%
X125000000Y-110080000D03*
%TO.N,/~{SCCLR}*%
X126000000Y-108080000D03*
%TO.N,/~{HALT}*%
X127000000Y-110080000D03*
%TO.N,/PCINC*%
X128000000Y-108080000D03*
%TO.N,/ALUS0*%
X129000000Y-110080000D03*
%TO.N,/ALUS1*%
X130000000Y-108080000D03*
%TO.N,GND*%
X131000000Y-110080000D03*
%TO.N,/ALUS2*%
X132000000Y-108080000D03*
%TO.N,/ALUS3*%
X133000000Y-110080000D03*
%TO.N,/SPDEC*%
X134000000Y-108080000D03*
%TO.N,/SPINC*%
X135000000Y-110080000D03*
%TO.N,/ACSHLEFT*%
X136000000Y-108080000D03*
%TO.N,/ACSHRIGHT*%
X137000000Y-110080000D03*
%TO.N,/INTE*%
X138000000Y-108080000D03*
%TO.N,/~{INTD}*%
X139000000Y-110080000D03*
%TO.N,GND*%
X140000000Y-108080000D03*
%TO.N,/ADRDEC*%
X141000000Y-110080000D03*
%TO.N,/ADRINC*%
X142000000Y-108080000D03*
%TO.N,GND*%
X143000000Y-110080000D03*
X144000000Y-108080000D03*
X145000000Y-110080000D03*
X146000000Y-108080000D03*
X147000000Y-110080000D03*
X148000000Y-108080000D03*
X149000000Y-110080000D03*
X150000000Y-108080000D03*
X151000000Y-110080000D03*
X152000000Y-108080000D03*
X153000000Y-110080000D03*
%TO.N,/~{CLK}*%
X154000000Y-108080000D03*
%TO.N,/PULSE*%
X155000000Y-110080000D03*
%TO.N,GND*%
X156000000Y-108080000D03*
X157000000Y-110080000D03*
%TO.N,N/C*%
X158000000Y-108080000D03*
X159000000Y-110080000D03*
%TO.N,/L4*%
X160000000Y-108080000D03*
%TO.N,/R4*%
X161000000Y-110080000D03*
%TO.N,N/C*%
X162000000Y-108080000D03*
X163000000Y-110080000D03*
%TD*%
D10*
%TO.N,VCC*%
%TO.C,MOD5*%
X80000000Y-81500000D03*
D11*
X81000000Y-79500000D03*
X82000000Y-81500000D03*
X83000000Y-79500000D03*
X84000000Y-81500000D03*
%TO.N,N/C*%
X85000000Y-79500000D03*
X86000000Y-81500000D03*
X87000000Y-79500000D03*
X88000000Y-81500000D03*
X89000000Y-79500000D03*
X90000000Y-81500000D03*
%TO.N,GND*%
X93000000Y-79500000D03*
X94000000Y-81500000D03*
%TO.N,/~{LMEM}*%
X95000000Y-79500000D03*
%TO.N,/LSPH*%
X96000000Y-81500000D03*
%TO.N,/LSPL*%
X97000000Y-79500000D03*
%TO.N,/LPCH*%
X98000000Y-81500000D03*
%TO.N,/LPCL*%
X99000000Y-79500000D03*
%TO.N,/~{LARGH}*%
X100000000Y-81500000D03*
%TO.N,/~{LARGL}*%
X101000000Y-79500000D03*
%TO.N,/~{LAC}*%
X102000000Y-81500000D03*
%TO.N,/~{LXH}*%
X103000000Y-79500000D03*
%TO.N,GND*%
X104000000Y-81500000D03*
%TO.N,/~{LYL}*%
X105000000Y-79500000D03*
%TO.N,/~{LYH}*%
X106000000Y-81500000D03*
%TO.N,/~{LZL}*%
X107000000Y-79500000D03*
%TO.N,/~{LZH}*%
X108000000Y-81500000D03*
%TO.N,/~{LFR}*%
X109000000Y-79500000D03*
%TO.N,/~{LINST}*%
X110000000Y-81500000D03*
%TO.N,/LADRH*%
X111000000Y-79500000D03*
%TO.N,/LADRL*%
X112000000Y-81500000D03*
%TO.N,GND*%
X113000000Y-79500000D03*
%TO.N,/STATE0*%
X114000000Y-81500000D03*
%TO.N,/STATE1*%
X115000000Y-79500000D03*
%TO.N,/STATE2*%
X116000000Y-81500000D03*
%TO.N,/STATE3*%
X117000000Y-79500000D03*
%TO.N,/STATE4*%
X118000000Y-81500000D03*
%TO.N,/STATE5*%
X119000000Y-79500000D03*
%TO.N,/STATE6*%
X120000000Y-81500000D03*
%TO.N,/STATE7*%
X121000000Y-79500000D03*
%TO.N,GND*%
X122000000Y-81500000D03*
%TO.N,/STATE8*%
X123000000Y-79500000D03*
%TO.N,/STATE9*%
X124000000Y-81500000D03*
%TO.N,/STATE10*%
X125000000Y-79500000D03*
%TO.N,/STATE11*%
X126000000Y-81500000D03*
%TO.N,/STATE12*%
X127000000Y-79500000D03*
%TO.N,/STATE13*%
X128000000Y-81500000D03*
%TO.N,/STATE14*%
X129000000Y-79500000D03*
%TO.N,/STATE15*%
X130000000Y-81500000D03*
%TO.N,GND*%
X131000000Y-79500000D03*
%TO.N,/DATA0*%
X132000000Y-81500000D03*
%TO.N,/DATA1*%
X133000000Y-79500000D03*
%TO.N,/DATA2*%
X134000000Y-81500000D03*
%TO.N,/DATA3*%
X135000000Y-79500000D03*
%TO.N,/DATA4*%
X136000000Y-81500000D03*
%TO.N,/DATA5*%
X137000000Y-79500000D03*
%TO.N,/DATA6*%
X138000000Y-81500000D03*
%TO.N,/DATA7*%
X139000000Y-79500000D03*
%TO.N,GND*%
X140000000Y-81500000D03*
%TO.N,/ALUZO*%
X141000000Y-79500000D03*
%TO.N,/~{ALUCO}*%
X142000000Y-81500000D03*
%TO.N,/ALUSO*%
X143000000Y-79500000D03*
%TO.N,GND*%
X144000000Y-81500000D03*
X145000000Y-79500000D03*
X146000000Y-81500000D03*
X147000000Y-79500000D03*
%TO.N,/INTREQ*%
X148000000Y-81500000D03*
%TO.N,/~{WAIT}*%
X149000000Y-79500000D03*
%TO.N,/RESET*%
X150000000Y-81500000D03*
%TO.N,GND*%
X151000000Y-79500000D03*
X152000000Y-81500000D03*
X153000000Y-79500000D03*
X154000000Y-81500000D03*
X155000000Y-79500000D03*
X156000000Y-81500000D03*
X157000000Y-79500000D03*
%TO.N,N/C*%
X158000000Y-81500000D03*
X159000000Y-79500000D03*
%TO.N,/STATE16*%
X160000000Y-81500000D03*
%TO.N,N/C*%
X161000000Y-79500000D03*
X162000000Y-81500000D03*
X163000000Y-79500000D03*
%TO.N,VCC*%
X80000000Y-84000000D03*
X81000000Y-86000000D03*
X82000000Y-84000000D03*
X83000000Y-86000000D03*
X84000000Y-84000000D03*
%TO.N,N/C*%
X85000000Y-86000000D03*
X86000000Y-84000000D03*
X87000000Y-86000000D03*
X88000000Y-84000000D03*
X89000000Y-86000000D03*
X90000000Y-84000000D03*
%TO.N,GND*%
X93000000Y-86000000D03*
X94000000Y-84000000D03*
%TO.N,/~{RMEM}*%
X95000000Y-86000000D03*
%TO.N,/~{RSPH}*%
X96000000Y-84000000D03*
%TO.N,/~{RSPL}*%
X97000000Y-86000000D03*
%TO.N,/~{RPCH}*%
X98000000Y-84000000D03*
%TO.N,/~{RPCL}*%
X99000000Y-86000000D03*
%TO.N,/~{RARGH}*%
X100000000Y-84000000D03*
%TO.N,/~{RARGL}*%
X101000000Y-86000000D03*
%TO.N,/~{RAC}*%
X102000000Y-84000000D03*
%TO.N,/~{RXH}*%
X103000000Y-86000000D03*
%TO.N,GND*%
X104000000Y-84000000D03*
%TO.N,/~{RYL}*%
X105000000Y-86000000D03*
%TO.N,/~{RYH}*%
X106000000Y-84000000D03*
%TO.N,/~{RZL}*%
X107000000Y-86000000D03*
%TO.N,/~{RZH}*%
X108000000Y-84000000D03*
%TO.N,/~{RFR}*%
X109000000Y-86000000D03*
%TO.N,/~{RCONST}*%
X110000000Y-84000000D03*
%TO.N,/~{RALU}*%
X111000000Y-86000000D03*
%TO.N,/~{RINTC}*%
X112000000Y-84000000D03*
%TO.N,GND*%
X113000000Y-86000000D03*
%TO.N,/L0*%
X114000000Y-84000000D03*
%TO.N,/L1*%
X115000000Y-86000000D03*
%TO.N,/L2*%
X116000000Y-84000000D03*
%TO.N,/L3*%
X117000000Y-86000000D03*
%TO.N,/ALUM*%
X118000000Y-84000000D03*
%TO.N,/~{ALUCI}*%
X119000000Y-86000000D03*
%TO.N,/FRUpd*%
X120000000Y-84000000D03*
%TO.N,/R0*%
X121000000Y-86000000D03*
%TO.N,GND*%
X122000000Y-84000000D03*
%TO.N,/R1*%
X123000000Y-86000000D03*
%TO.N,/R2*%
X124000000Y-84000000D03*
%TO.N,/R3*%
X125000000Y-86000000D03*
%TO.N,/~{SCCLR}*%
X126000000Y-84000000D03*
%TO.N,/~{HALT}*%
X127000000Y-86000000D03*
%TO.N,/PCINC*%
X128000000Y-84000000D03*
%TO.N,/ALUS0*%
X129000000Y-86000000D03*
%TO.N,/ALUS1*%
X130000000Y-84000000D03*
%TO.N,GND*%
X131000000Y-86000000D03*
%TO.N,/ALUS2*%
X132000000Y-84000000D03*
%TO.N,/ALUS3*%
X133000000Y-86000000D03*
%TO.N,/SPDEC*%
X134000000Y-84000000D03*
%TO.N,/SPINC*%
X135000000Y-86000000D03*
%TO.N,/ACSHLEFT*%
X136000000Y-84000000D03*
%TO.N,/ACSHRIGHT*%
X137000000Y-86000000D03*
%TO.N,/INTE*%
X138000000Y-84000000D03*
%TO.N,/~{INTD}*%
X139000000Y-86000000D03*
%TO.N,GND*%
X140000000Y-84000000D03*
%TO.N,/ADRDEC*%
X141000000Y-86000000D03*
%TO.N,/ADRINC*%
X142000000Y-84000000D03*
%TO.N,GND*%
X143000000Y-86000000D03*
X144000000Y-84000000D03*
X145000000Y-86000000D03*
X146000000Y-84000000D03*
X147000000Y-86000000D03*
X148000000Y-84000000D03*
X149000000Y-86000000D03*
X150000000Y-84000000D03*
X151000000Y-86000000D03*
X152000000Y-84000000D03*
X153000000Y-86000000D03*
%TO.N,/~{CLK}*%
X154000000Y-84000000D03*
%TO.N,/PULSE*%
X155000000Y-86000000D03*
%TO.N,GND*%
X156000000Y-84000000D03*
X157000000Y-86000000D03*
%TO.N,N/C*%
X158000000Y-84000000D03*
X159000000Y-86000000D03*
%TO.N,/L4*%
X160000000Y-84000000D03*
%TO.N,/R4*%
X161000000Y-86000000D03*
%TO.N,N/C*%
X162000000Y-84000000D03*
X163000000Y-86000000D03*
%TD*%
D10*
%TO.N,VCC*%
%TO.C,MOD4*%
X80000000Y-69460000D03*
D11*
X81000000Y-67460000D03*
X82000000Y-69460000D03*
X83000000Y-67460000D03*
X84000000Y-69460000D03*
%TO.N,N/C*%
X85000000Y-67460000D03*
X86000000Y-69460000D03*
X87000000Y-67460000D03*
X88000000Y-69460000D03*
X89000000Y-67460000D03*
X90000000Y-69460000D03*
%TO.N,GND*%
X93000000Y-67460000D03*
X94000000Y-69460000D03*
%TO.N,/~{LMEM}*%
X95000000Y-67460000D03*
%TO.N,/LSPH*%
X96000000Y-69460000D03*
%TO.N,/LSPL*%
X97000000Y-67460000D03*
%TO.N,/LPCH*%
X98000000Y-69460000D03*
%TO.N,/LPCL*%
X99000000Y-67460000D03*
%TO.N,/~{LARGH}*%
X100000000Y-69460000D03*
%TO.N,/~{LARGL}*%
X101000000Y-67460000D03*
%TO.N,/~{LAC}*%
X102000000Y-69460000D03*
%TO.N,/~{LXH}*%
X103000000Y-67460000D03*
%TO.N,GND*%
X104000000Y-69460000D03*
%TO.N,/~{LYL}*%
X105000000Y-67460000D03*
%TO.N,/~{LYH}*%
X106000000Y-69460000D03*
%TO.N,/~{LZL}*%
X107000000Y-67460000D03*
%TO.N,/~{LZH}*%
X108000000Y-69460000D03*
%TO.N,/~{LFR}*%
X109000000Y-67460000D03*
%TO.N,/~{LINST}*%
X110000000Y-69460000D03*
%TO.N,/LADRH*%
X111000000Y-67460000D03*
%TO.N,/LADRL*%
X112000000Y-69460000D03*
%TO.N,GND*%
X113000000Y-67460000D03*
%TO.N,/STATE0*%
X114000000Y-69460000D03*
%TO.N,/STATE1*%
X115000000Y-67460000D03*
%TO.N,/STATE2*%
X116000000Y-69460000D03*
%TO.N,/STATE3*%
X117000000Y-67460000D03*
%TO.N,/STATE4*%
X118000000Y-69460000D03*
%TO.N,/STATE5*%
X119000000Y-67460000D03*
%TO.N,/STATE6*%
X120000000Y-69460000D03*
%TO.N,/STATE7*%
X121000000Y-67460000D03*
%TO.N,GND*%
X122000000Y-69460000D03*
%TO.N,/STATE8*%
X123000000Y-67460000D03*
%TO.N,/STATE9*%
X124000000Y-69460000D03*
%TO.N,/STATE10*%
X125000000Y-67460000D03*
%TO.N,/STATE11*%
X126000000Y-69460000D03*
%TO.N,/STATE12*%
X127000000Y-67460000D03*
%TO.N,/STATE13*%
X128000000Y-69460000D03*
%TO.N,/STATE14*%
X129000000Y-67460000D03*
%TO.N,/STATE15*%
X130000000Y-69460000D03*
%TO.N,GND*%
X131000000Y-67460000D03*
%TO.N,/DATA0*%
X132000000Y-69460000D03*
%TO.N,/DATA1*%
X133000000Y-67460000D03*
%TO.N,/DATA2*%
X134000000Y-69460000D03*
%TO.N,/DATA3*%
X135000000Y-67460000D03*
%TO.N,/DATA4*%
X136000000Y-69460000D03*
%TO.N,/DATA5*%
X137000000Y-67460000D03*
%TO.N,/DATA6*%
X138000000Y-69460000D03*
%TO.N,/DATA7*%
X139000000Y-67460000D03*
%TO.N,GND*%
X140000000Y-69460000D03*
%TO.N,/ALUZO*%
X141000000Y-67460000D03*
%TO.N,/~{ALUCO}*%
X142000000Y-69460000D03*
%TO.N,/ALUSO*%
X143000000Y-67460000D03*
%TO.N,GND*%
X144000000Y-69460000D03*
X145000000Y-67460000D03*
X146000000Y-69460000D03*
X147000000Y-67460000D03*
%TO.N,/INTREQ*%
X148000000Y-69460000D03*
%TO.N,/~{WAIT}*%
X149000000Y-67460000D03*
%TO.N,/RESET*%
X150000000Y-69460000D03*
%TO.N,GND*%
X151000000Y-67460000D03*
X152000000Y-69460000D03*
X153000000Y-67460000D03*
X154000000Y-69460000D03*
X155000000Y-67460000D03*
X156000000Y-69460000D03*
X157000000Y-67460000D03*
%TO.N,N/C*%
X158000000Y-69460000D03*
X159000000Y-67460000D03*
%TO.N,/STATE16*%
X160000000Y-69460000D03*
%TO.N,N/C*%
X161000000Y-67460000D03*
X162000000Y-69460000D03*
X163000000Y-67460000D03*
%TO.N,VCC*%
X80000000Y-71960000D03*
X81000000Y-73960000D03*
X82000000Y-71960000D03*
X83000000Y-73960000D03*
X84000000Y-71960000D03*
%TO.N,N/C*%
X85000000Y-73960000D03*
X86000000Y-71960000D03*
X87000000Y-73960000D03*
X88000000Y-71960000D03*
X89000000Y-73960000D03*
X90000000Y-71960000D03*
%TO.N,GND*%
X93000000Y-73960000D03*
X94000000Y-71960000D03*
%TO.N,/~{RMEM}*%
X95000000Y-73960000D03*
%TO.N,/~{RSPH}*%
X96000000Y-71960000D03*
%TO.N,/~{RSPL}*%
X97000000Y-73960000D03*
%TO.N,/~{RPCH}*%
X98000000Y-71960000D03*
%TO.N,/~{RPCL}*%
X99000000Y-73960000D03*
%TO.N,/~{RARGH}*%
X100000000Y-71960000D03*
%TO.N,/~{RARGL}*%
X101000000Y-73960000D03*
%TO.N,/~{RAC}*%
X102000000Y-71960000D03*
%TO.N,/~{RXH}*%
X103000000Y-73960000D03*
%TO.N,GND*%
X104000000Y-71960000D03*
%TO.N,/~{RYL}*%
X105000000Y-73960000D03*
%TO.N,/~{RYH}*%
X106000000Y-71960000D03*
%TO.N,/~{RZL}*%
X107000000Y-73960000D03*
%TO.N,/~{RZH}*%
X108000000Y-71960000D03*
%TO.N,/~{RFR}*%
X109000000Y-73960000D03*
%TO.N,/~{RCONST}*%
X110000000Y-71960000D03*
%TO.N,/~{RALU}*%
X111000000Y-73960000D03*
%TO.N,/~{RINTC}*%
X112000000Y-71960000D03*
%TO.N,GND*%
X113000000Y-73960000D03*
%TO.N,/L0*%
X114000000Y-71960000D03*
%TO.N,/L1*%
X115000000Y-73960000D03*
%TO.N,/L2*%
X116000000Y-71960000D03*
%TO.N,/L3*%
X117000000Y-73960000D03*
%TO.N,/ALUM*%
X118000000Y-71960000D03*
%TO.N,/~{ALUCI}*%
X119000000Y-73960000D03*
%TO.N,/FRUpd*%
X120000000Y-71960000D03*
%TO.N,/R0*%
X121000000Y-73960000D03*
%TO.N,GND*%
X122000000Y-71960000D03*
%TO.N,/R1*%
X123000000Y-73960000D03*
%TO.N,/R2*%
X124000000Y-71960000D03*
%TO.N,/R3*%
X125000000Y-73960000D03*
%TO.N,/~{SCCLR}*%
X126000000Y-71960000D03*
%TO.N,/~{HALT}*%
X127000000Y-73960000D03*
%TO.N,/PCINC*%
X128000000Y-71960000D03*
%TO.N,/ALUS0*%
X129000000Y-73960000D03*
%TO.N,/ALUS1*%
X130000000Y-71960000D03*
%TO.N,GND*%
X131000000Y-73960000D03*
%TO.N,/ALUS2*%
X132000000Y-71960000D03*
%TO.N,/ALUS3*%
X133000000Y-73960000D03*
%TO.N,/SPDEC*%
X134000000Y-71960000D03*
%TO.N,/SPINC*%
X135000000Y-73960000D03*
%TO.N,/ACSHLEFT*%
X136000000Y-71960000D03*
%TO.N,/ACSHRIGHT*%
X137000000Y-73960000D03*
%TO.N,/INTE*%
X138000000Y-71960000D03*
%TO.N,/~{INTD}*%
X139000000Y-73960000D03*
%TO.N,GND*%
X140000000Y-71960000D03*
%TO.N,/ADRDEC*%
X141000000Y-73960000D03*
%TO.N,/ADRINC*%
X142000000Y-71960000D03*
%TO.N,GND*%
X143000000Y-73960000D03*
X144000000Y-71960000D03*
X145000000Y-73960000D03*
X146000000Y-71960000D03*
X147000000Y-73960000D03*
X148000000Y-71960000D03*
X149000000Y-73960000D03*
X150000000Y-71960000D03*
X151000000Y-73960000D03*
X152000000Y-71960000D03*
X153000000Y-73960000D03*
%TO.N,/~{CLK}*%
X154000000Y-71960000D03*
%TO.N,/PULSE*%
X155000000Y-73960000D03*
%TO.N,GND*%
X156000000Y-71960000D03*
X157000000Y-73960000D03*
%TO.N,N/C*%
X158000000Y-71960000D03*
X159000000Y-73960000D03*
%TO.N,/L4*%
X160000000Y-71960000D03*
%TO.N,/R4*%
X161000000Y-73960000D03*
%TO.N,N/C*%
X162000000Y-71960000D03*
X163000000Y-73960000D03*
%TD*%
D10*
%TO.N,VCC*%
%TO.C,MOD8*%
X80000000Y-117620000D03*
D11*
X81000000Y-115620000D03*
X82000000Y-117620000D03*
X83000000Y-115620000D03*
X84000000Y-117620000D03*
%TO.N,N/C*%
X85000000Y-115620000D03*
X86000000Y-117620000D03*
X87000000Y-115620000D03*
X88000000Y-117620000D03*
X89000000Y-115620000D03*
X90000000Y-117620000D03*
%TO.N,GND*%
X93000000Y-115620000D03*
X94000000Y-117620000D03*
%TO.N,/~{LMEM}*%
X95000000Y-115620000D03*
%TO.N,/LSPH*%
X96000000Y-117620000D03*
%TO.N,/LSPL*%
X97000000Y-115620000D03*
%TO.N,/LPCH*%
X98000000Y-117620000D03*
%TO.N,/LPCL*%
X99000000Y-115620000D03*
%TO.N,/~{LARGH}*%
X100000000Y-117620000D03*
%TO.N,/~{LARGL}*%
X101000000Y-115620000D03*
%TO.N,/~{LAC}*%
X102000000Y-117620000D03*
%TO.N,/~{LXH}*%
X103000000Y-115620000D03*
%TO.N,GND*%
X104000000Y-117620000D03*
%TO.N,/~{LYL}*%
X105000000Y-115620000D03*
%TO.N,/~{LYH}*%
X106000000Y-117620000D03*
%TO.N,/~{LZL}*%
X107000000Y-115620000D03*
%TO.N,/~{LZH}*%
X108000000Y-117620000D03*
%TO.N,/~{LFR}*%
X109000000Y-115620000D03*
%TO.N,/~{LINST}*%
X110000000Y-117620000D03*
%TO.N,/LADRH*%
X111000000Y-115620000D03*
%TO.N,/LADRL*%
X112000000Y-117620000D03*
%TO.N,GND*%
X113000000Y-115620000D03*
%TO.N,/STATE0*%
X114000000Y-117620000D03*
%TO.N,/STATE1*%
X115000000Y-115620000D03*
%TO.N,/STATE2*%
X116000000Y-117620000D03*
%TO.N,/STATE3*%
X117000000Y-115620000D03*
%TO.N,/STATE4*%
X118000000Y-117620000D03*
%TO.N,/STATE5*%
X119000000Y-115620000D03*
%TO.N,/STATE6*%
X120000000Y-117620000D03*
%TO.N,/STATE7*%
X121000000Y-115620000D03*
%TO.N,GND*%
X122000000Y-117620000D03*
%TO.N,/STATE8*%
X123000000Y-115620000D03*
%TO.N,/STATE9*%
X124000000Y-117620000D03*
%TO.N,/STATE10*%
X125000000Y-115620000D03*
%TO.N,/STATE11*%
X126000000Y-117620000D03*
%TO.N,/STATE12*%
X127000000Y-115620000D03*
%TO.N,/STATE13*%
X128000000Y-117620000D03*
%TO.N,/STATE14*%
X129000000Y-115620000D03*
%TO.N,/STATE15*%
X130000000Y-117620000D03*
%TO.N,GND*%
X131000000Y-115620000D03*
%TO.N,/DATA0*%
X132000000Y-117620000D03*
%TO.N,/DATA1*%
X133000000Y-115620000D03*
%TO.N,/DATA2*%
X134000000Y-117620000D03*
%TO.N,/DATA3*%
X135000000Y-115620000D03*
%TO.N,/DATA4*%
X136000000Y-117620000D03*
%TO.N,/DATA5*%
X137000000Y-115620000D03*
%TO.N,/DATA6*%
X138000000Y-117620000D03*
%TO.N,/DATA7*%
X139000000Y-115620000D03*
%TO.N,GND*%
X140000000Y-117620000D03*
%TO.N,/ALUZO*%
X141000000Y-115620000D03*
%TO.N,/~{ALUCO}*%
X142000000Y-117620000D03*
%TO.N,/ALUSO*%
X143000000Y-115620000D03*
%TO.N,GND*%
X144000000Y-117620000D03*
X145000000Y-115620000D03*
X146000000Y-117620000D03*
X147000000Y-115620000D03*
%TO.N,/INTREQ*%
X148000000Y-117620000D03*
%TO.N,/~{WAIT}*%
X149000000Y-115620000D03*
%TO.N,/RESET*%
X150000000Y-117620000D03*
%TO.N,GND*%
X151000000Y-115620000D03*
X152000000Y-117620000D03*
X153000000Y-115620000D03*
X154000000Y-117620000D03*
X155000000Y-115620000D03*
X156000000Y-117620000D03*
X157000000Y-115620000D03*
%TO.N,N/C*%
X158000000Y-117620000D03*
X159000000Y-115620000D03*
%TO.N,/STATE16*%
X160000000Y-117620000D03*
%TO.N,N/C*%
X161000000Y-115620000D03*
X162000000Y-117620000D03*
X163000000Y-115620000D03*
%TO.N,VCC*%
X80000000Y-120120000D03*
X81000000Y-122120000D03*
X82000000Y-120120000D03*
X83000000Y-122120000D03*
X84000000Y-120120000D03*
%TO.N,N/C*%
X85000000Y-122120000D03*
X86000000Y-120120000D03*
X87000000Y-122120000D03*
X88000000Y-120120000D03*
X89000000Y-122120000D03*
X90000000Y-120120000D03*
%TO.N,GND*%
X93000000Y-122120000D03*
X94000000Y-120120000D03*
%TO.N,/~{RMEM}*%
X95000000Y-122120000D03*
%TO.N,/~{RSPH}*%
X96000000Y-120120000D03*
%TO.N,/~{RSPL}*%
X97000000Y-122120000D03*
%TO.N,/~{RPCH}*%
X98000000Y-120120000D03*
%TO.N,/~{RPCL}*%
X99000000Y-122120000D03*
%TO.N,/~{RARGH}*%
X100000000Y-120120000D03*
%TO.N,/~{RARGL}*%
X101000000Y-122120000D03*
%TO.N,/~{RAC}*%
X102000000Y-120120000D03*
%TO.N,/~{RXH}*%
X103000000Y-122120000D03*
%TO.N,GND*%
X104000000Y-120120000D03*
%TO.N,/~{RYL}*%
X105000000Y-122120000D03*
%TO.N,/~{RYH}*%
X106000000Y-120120000D03*
%TO.N,/~{RZL}*%
X107000000Y-122120000D03*
%TO.N,/~{RZH}*%
X108000000Y-120120000D03*
%TO.N,/~{RFR}*%
X109000000Y-122120000D03*
%TO.N,/~{RCONST}*%
X110000000Y-120120000D03*
%TO.N,/~{RALU}*%
X111000000Y-122120000D03*
%TO.N,/~{RINTC}*%
X112000000Y-120120000D03*
%TO.N,GND*%
X113000000Y-122120000D03*
%TO.N,/L0*%
X114000000Y-120120000D03*
%TO.N,/L1*%
X115000000Y-122120000D03*
%TO.N,/L2*%
X116000000Y-120120000D03*
%TO.N,/L3*%
X117000000Y-122120000D03*
%TO.N,/ALUM*%
X118000000Y-120120000D03*
%TO.N,/~{ALUCI}*%
X119000000Y-122120000D03*
%TO.N,/FRUpd*%
X120000000Y-120120000D03*
%TO.N,/R0*%
X121000000Y-122120000D03*
%TO.N,GND*%
X122000000Y-120120000D03*
%TO.N,/R1*%
X123000000Y-122120000D03*
%TO.N,/R2*%
X124000000Y-120120000D03*
%TO.N,/R3*%
X125000000Y-122120000D03*
%TO.N,/~{SCCLR}*%
X126000000Y-120120000D03*
%TO.N,/~{HALT}*%
X127000000Y-122120000D03*
%TO.N,/PCINC*%
X128000000Y-120120000D03*
%TO.N,/ALUS0*%
X129000000Y-122120000D03*
%TO.N,/ALUS1*%
X130000000Y-120120000D03*
%TO.N,GND*%
X131000000Y-122120000D03*
%TO.N,/ALUS2*%
X132000000Y-120120000D03*
%TO.N,/ALUS3*%
X133000000Y-122120000D03*
%TO.N,/SPDEC*%
X134000000Y-120120000D03*
%TO.N,/SPINC*%
X135000000Y-122120000D03*
%TO.N,/ACSHLEFT*%
X136000000Y-120120000D03*
%TO.N,/ACSHRIGHT*%
X137000000Y-122120000D03*
%TO.N,/INTE*%
X138000000Y-120120000D03*
%TO.N,/~{INTD}*%
X139000000Y-122120000D03*
%TO.N,GND*%
X140000000Y-120120000D03*
%TO.N,/ADRDEC*%
X141000000Y-122120000D03*
%TO.N,/ADRINC*%
X142000000Y-120120000D03*
%TO.N,GND*%
X143000000Y-122120000D03*
X144000000Y-120120000D03*
X145000000Y-122120000D03*
X146000000Y-120120000D03*
X147000000Y-122120000D03*
X148000000Y-120120000D03*
X149000000Y-122120000D03*
X150000000Y-120120000D03*
X151000000Y-122120000D03*
X152000000Y-120120000D03*
X153000000Y-122120000D03*
%TO.N,/~{CLK}*%
X154000000Y-120120000D03*
%TO.N,/PULSE*%
X155000000Y-122120000D03*
%TO.N,GND*%
X156000000Y-120120000D03*
X157000000Y-122120000D03*
%TO.N,N/C*%
X158000000Y-120120000D03*
X159000000Y-122120000D03*
%TO.N,/L4*%
X160000000Y-120120000D03*
%TO.N,/R4*%
X161000000Y-122120000D03*
%TO.N,N/C*%
X162000000Y-120120000D03*
X163000000Y-122120000D03*
%TD*%
D10*
%TO.N,VCC*%
%TO.C,MOD3*%
X80000000Y-57420000D03*
D11*
X81000000Y-55420000D03*
X82000000Y-57420000D03*
X83000000Y-55420000D03*
X84000000Y-57420000D03*
%TO.N,N/C*%
X85000000Y-55420000D03*
X86000000Y-57420000D03*
X87000000Y-55420000D03*
X88000000Y-57420000D03*
X89000000Y-55420000D03*
X90000000Y-57420000D03*
%TO.N,GND*%
X93000000Y-55420000D03*
X94000000Y-57420000D03*
%TO.N,/~{LMEM}*%
X95000000Y-55420000D03*
%TO.N,/LSPH*%
X96000000Y-57420000D03*
%TO.N,/LSPL*%
X97000000Y-55420000D03*
%TO.N,/LPCH*%
X98000000Y-57420000D03*
%TO.N,/LPCL*%
X99000000Y-55420000D03*
%TO.N,/~{LARGH}*%
X100000000Y-57420000D03*
%TO.N,/~{LARGL}*%
X101000000Y-55420000D03*
%TO.N,/~{LAC}*%
X102000000Y-57420000D03*
%TO.N,/~{LXH}*%
X103000000Y-55420000D03*
%TO.N,GND*%
X104000000Y-57420000D03*
%TO.N,/~{LYL}*%
X105000000Y-55420000D03*
%TO.N,/~{LYH}*%
X106000000Y-57420000D03*
%TO.N,/~{LZL}*%
X107000000Y-55420000D03*
%TO.N,/~{LZH}*%
X108000000Y-57420000D03*
%TO.N,/~{LFR}*%
X109000000Y-55420000D03*
%TO.N,/~{LINST}*%
X110000000Y-57420000D03*
%TO.N,/LADRH*%
X111000000Y-55420000D03*
%TO.N,/LADRL*%
X112000000Y-57420000D03*
%TO.N,GND*%
X113000000Y-55420000D03*
%TO.N,/STATE0*%
X114000000Y-57420000D03*
%TO.N,/STATE1*%
X115000000Y-55420000D03*
%TO.N,/STATE2*%
X116000000Y-57420000D03*
%TO.N,/STATE3*%
X117000000Y-55420000D03*
%TO.N,/STATE4*%
X118000000Y-57420000D03*
%TO.N,/STATE5*%
X119000000Y-55420000D03*
%TO.N,/STATE6*%
X120000000Y-57420000D03*
%TO.N,/STATE7*%
X121000000Y-55420000D03*
%TO.N,GND*%
X122000000Y-57420000D03*
%TO.N,/STATE8*%
X123000000Y-55420000D03*
%TO.N,/STATE9*%
X124000000Y-57420000D03*
%TO.N,/STATE10*%
X125000000Y-55420000D03*
%TO.N,/STATE11*%
X126000000Y-57420000D03*
%TO.N,/STATE12*%
X127000000Y-55420000D03*
%TO.N,/STATE13*%
X128000000Y-57420000D03*
%TO.N,/STATE14*%
X129000000Y-55420000D03*
%TO.N,/STATE15*%
X130000000Y-57420000D03*
%TO.N,GND*%
X131000000Y-55420000D03*
%TO.N,/DATA0*%
X132000000Y-57420000D03*
%TO.N,/DATA1*%
X133000000Y-55420000D03*
%TO.N,/DATA2*%
X134000000Y-57420000D03*
%TO.N,/DATA3*%
X135000000Y-55420000D03*
%TO.N,/DATA4*%
X136000000Y-57420000D03*
%TO.N,/DATA5*%
X137000000Y-55420000D03*
%TO.N,/DATA6*%
X138000000Y-57420000D03*
%TO.N,/DATA7*%
X139000000Y-55420000D03*
%TO.N,GND*%
X140000000Y-57420000D03*
%TO.N,/ALUZO*%
X141000000Y-55420000D03*
%TO.N,/~{ALUCO}*%
X142000000Y-57420000D03*
%TO.N,/ALUSO*%
X143000000Y-55420000D03*
%TO.N,GND*%
X144000000Y-57420000D03*
X145000000Y-55420000D03*
X146000000Y-57420000D03*
X147000000Y-55420000D03*
%TO.N,/INTREQ*%
X148000000Y-57420000D03*
%TO.N,/~{WAIT}*%
X149000000Y-55420000D03*
%TO.N,/RESET*%
X150000000Y-57420000D03*
%TO.N,GND*%
X151000000Y-55420000D03*
X152000000Y-57420000D03*
X153000000Y-55420000D03*
X154000000Y-57420000D03*
X155000000Y-55420000D03*
X156000000Y-57420000D03*
X157000000Y-55420000D03*
%TO.N,N/C*%
X158000000Y-57420000D03*
X159000000Y-55420000D03*
%TO.N,/STATE16*%
X160000000Y-57420000D03*
%TO.N,N/C*%
X161000000Y-55420000D03*
X162000000Y-57420000D03*
X163000000Y-55420000D03*
%TO.N,VCC*%
X80000000Y-59920000D03*
X81000000Y-61920000D03*
X82000000Y-59920000D03*
X83000000Y-61920000D03*
X84000000Y-59920000D03*
%TO.N,N/C*%
X85000000Y-61920000D03*
X86000000Y-59920000D03*
X87000000Y-61920000D03*
X88000000Y-59920000D03*
X89000000Y-61920000D03*
X90000000Y-59920000D03*
%TO.N,GND*%
X93000000Y-61920000D03*
X94000000Y-59920000D03*
%TO.N,/~{RMEM}*%
X95000000Y-61920000D03*
%TO.N,/~{RSPH}*%
X96000000Y-59920000D03*
%TO.N,/~{RSPL}*%
X97000000Y-61920000D03*
%TO.N,/~{RPCH}*%
X98000000Y-59920000D03*
%TO.N,/~{RPCL}*%
X99000000Y-61920000D03*
%TO.N,/~{RARGH}*%
X100000000Y-59920000D03*
%TO.N,/~{RARGL}*%
X101000000Y-61920000D03*
%TO.N,/~{RAC}*%
X102000000Y-59920000D03*
%TO.N,/~{RXH}*%
X103000000Y-61920000D03*
%TO.N,GND*%
X104000000Y-59920000D03*
%TO.N,/~{RYL}*%
X105000000Y-61920000D03*
%TO.N,/~{RYH}*%
X106000000Y-59920000D03*
%TO.N,/~{RZL}*%
X107000000Y-61920000D03*
%TO.N,/~{RZH}*%
X108000000Y-59920000D03*
%TO.N,/~{RFR}*%
X109000000Y-61920000D03*
%TO.N,/~{RCONST}*%
X110000000Y-59920000D03*
%TO.N,/~{RALU}*%
X111000000Y-61920000D03*
%TO.N,/~{RINTC}*%
X112000000Y-59920000D03*
%TO.N,GND*%
X113000000Y-61920000D03*
%TO.N,/L0*%
X114000000Y-59920000D03*
%TO.N,/L1*%
X115000000Y-61920000D03*
%TO.N,/L2*%
X116000000Y-59920000D03*
%TO.N,/L3*%
X117000000Y-61920000D03*
%TO.N,/ALUM*%
X118000000Y-59920000D03*
%TO.N,/~{ALUCI}*%
X119000000Y-61920000D03*
%TO.N,/FRUpd*%
X120000000Y-59920000D03*
%TO.N,/R0*%
X121000000Y-61920000D03*
%TO.N,GND*%
X122000000Y-59920000D03*
%TO.N,/R1*%
X123000000Y-61920000D03*
%TO.N,/R2*%
X124000000Y-59920000D03*
%TO.N,/R3*%
X125000000Y-61920000D03*
%TO.N,/~{SCCLR}*%
X126000000Y-59920000D03*
%TO.N,/~{HALT}*%
X127000000Y-61920000D03*
%TO.N,/PCINC*%
X128000000Y-59920000D03*
%TO.N,/ALUS0*%
X129000000Y-61920000D03*
%TO.N,/ALUS1*%
X130000000Y-59920000D03*
%TO.N,GND*%
X131000000Y-61920000D03*
%TO.N,/ALUS2*%
X132000000Y-59920000D03*
%TO.N,/ALUS3*%
X133000000Y-61920000D03*
%TO.N,/SPDEC*%
X134000000Y-59920000D03*
%TO.N,/SPINC*%
X135000000Y-61920000D03*
%TO.N,/ACSHLEFT*%
X136000000Y-59920000D03*
%TO.N,/ACSHRIGHT*%
X137000000Y-61920000D03*
%TO.N,/INTE*%
X138000000Y-59920000D03*
%TO.N,/~{INTD}*%
X139000000Y-61920000D03*
%TO.N,GND*%
X140000000Y-59920000D03*
%TO.N,/ADRDEC*%
X141000000Y-61920000D03*
%TO.N,/ADRINC*%
X142000000Y-59920000D03*
%TO.N,GND*%
X143000000Y-61920000D03*
X144000000Y-59920000D03*
X145000000Y-61920000D03*
X146000000Y-59920000D03*
X147000000Y-61920000D03*
X148000000Y-59920000D03*
X149000000Y-61920000D03*
X150000000Y-59920000D03*
X151000000Y-61920000D03*
X152000000Y-59920000D03*
X153000000Y-61920000D03*
%TO.N,/~{CLK}*%
X154000000Y-59920000D03*
%TO.N,/PULSE*%
X155000000Y-61920000D03*
%TO.N,GND*%
X156000000Y-59920000D03*
X157000000Y-61920000D03*
%TO.N,N/C*%
X158000000Y-59920000D03*
X159000000Y-61920000D03*
%TO.N,/L4*%
X160000000Y-59920000D03*
%TO.N,/R4*%
X161000000Y-61920000D03*
%TO.N,N/C*%
X162000000Y-59920000D03*
X163000000Y-61920000D03*
%TD*%
D14*
%TO.N,GND*%
%TO.C,J2*%
X96840000Y-27500000D03*
D15*
X99380000Y-27500000D03*
%TO.N,/~{SCCLR}*%
X101920000Y-27500000D03*
%TO.N,/PCINC*%
X104460000Y-27500000D03*
%TO.N,/STATE8*%
X107000000Y-27500000D03*
%TO.N,/STATE9*%
X109540000Y-27500000D03*
%TO.N,/STATE10*%
X112080000Y-27500000D03*
%TO.N,/STATE11*%
X114620000Y-27500000D03*
%TO.N,/STATE12*%
X117160000Y-27500000D03*
%TO.N,/STATE13*%
X119700000Y-27500000D03*
%TO.N,/STATE14*%
X122240000Y-27500000D03*
%TO.N,/STATE15*%
X124780000Y-27500000D03*
%TO.N,/DATA0*%
X127320000Y-27500000D03*
%TO.N,/DATA1*%
X129860000Y-27500000D03*
%TO.N,/DATA2*%
X132400000Y-27500000D03*
%TO.N,/DATA3*%
X134940000Y-27500000D03*
%TO.N,/DATA4*%
X137480000Y-27500000D03*
%TO.N,/DATA5*%
X140020000Y-27500000D03*
%TO.N,/DATA6*%
X142560000Y-27500000D03*
%TO.N,/DATA7*%
X145100000Y-27500000D03*
%TD*%
D10*
%TO.N,VCC*%
%TO.C,MOD1*%
X80000000Y-33340000D03*
D11*
X81000000Y-31340000D03*
X82000000Y-33340000D03*
X83000000Y-31340000D03*
X84000000Y-33340000D03*
%TO.N,N/C*%
X85000000Y-31340000D03*
X86000000Y-33340000D03*
X87000000Y-31340000D03*
X88000000Y-33340000D03*
X89000000Y-31340000D03*
X90000000Y-33340000D03*
%TO.N,GND*%
X93000000Y-31340000D03*
X94000000Y-33340000D03*
%TO.N,/~{LMEM}*%
X95000000Y-31340000D03*
%TO.N,/LSPH*%
X96000000Y-33340000D03*
%TO.N,/LSPL*%
X97000000Y-31340000D03*
%TO.N,/LPCH*%
X98000000Y-33340000D03*
%TO.N,/LPCL*%
X99000000Y-31340000D03*
%TO.N,/~{LARGH}*%
X100000000Y-33340000D03*
%TO.N,/~{LARGL}*%
X101000000Y-31340000D03*
%TO.N,/~{LAC}*%
X102000000Y-33340000D03*
%TO.N,/~{LXH}*%
X103000000Y-31340000D03*
%TO.N,GND*%
X104000000Y-33340000D03*
%TO.N,/~{LYL}*%
X105000000Y-31340000D03*
%TO.N,/~{LYH}*%
X106000000Y-33340000D03*
%TO.N,/~{LZL}*%
X107000000Y-31340000D03*
%TO.N,/~{LZH}*%
X108000000Y-33340000D03*
%TO.N,/~{LFR}*%
X109000000Y-31340000D03*
%TO.N,/~{LINST}*%
X110000000Y-33340000D03*
%TO.N,/LADRH*%
X111000000Y-31340000D03*
%TO.N,/LADRL*%
X112000000Y-33340000D03*
%TO.N,GND*%
X113000000Y-31340000D03*
%TO.N,/STATE0*%
X114000000Y-33340000D03*
%TO.N,/STATE1*%
X115000000Y-31340000D03*
%TO.N,/STATE2*%
X116000000Y-33340000D03*
%TO.N,/STATE3*%
X117000000Y-31340000D03*
%TO.N,/STATE4*%
X118000000Y-33340000D03*
%TO.N,/STATE5*%
X119000000Y-31340000D03*
%TO.N,/STATE6*%
X120000000Y-33340000D03*
%TO.N,/STATE7*%
X121000000Y-31340000D03*
%TO.N,GND*%
X122000000Y-33340000D03*
%TO.N,/STATE8*%
X123000000Y-31340000D03*
%TO.N,/STATE9*%
X124000000Y-33340000D03*
%TO.N,/STATE10*%
X125000000Y-31340000D03*
%TO.N,/STATE11*%
X126000000Y-33340000D03*
%TO.N,/STATE12*%
X127000000Y-31340000D03*
%TO.N,/STATE13*%
X128000000Y-33340000D03*
%TO.N,/STATE14*%
X129000000Y-31340000D03*
%TO.N,/STATE15*%
X130000000Y-33340000D03*
%TO.N,GND*%
X131000000Y-31340000D03*
%TO.N,/DATA0*%
X132000000Y-33340000D03*
%TO.N,/DATA1*%
X133000000Y-31340000D03*
%TO.N,/DATA2*%
X134000000Y-33340000D03*
%TO.N,/DATA3*%
X135000000Y-31340000D03*
%TO.N,/DATA4*%
X136000000Y-33340000D03*
%TO.N,/DATA5*%
X137000000Y-31340000D03*
%TO.N,/DATA6*%
X138000000Y-33340000D03*
%TO.N,/DATA7*%
X139000000Y-31340000D03*
%TO.N,GND*%
X140000000Y-33340000D03*
%TO.N,/ALUZO*%
X141000000Y-31340000D03*
%TO.N,/~{ALUCO}*%
X142000000Y-33340000D03*
%TO.N,/ALUSO*%
X143000000Y-31340000D03*
%TO.N,GND*%
X144000000Y-33340000D03*
X145000000Y-31340000D03*
X146000000Y-33340000D03*
X147000000Y-31340000D03*
%TO.N,/INTREQ*%
X148000000Y-33340000D03*
%TO.N,/~{WAIT}*%
X149000000Y-31340000D03*
%TO.N,/RESET*%
X150000000Y-33340000D03*
%TO.N,GND*%
X151000000Y-31340000D03*
X152000000Y-33340000D03*
X153000000Y-31340000D03*
X154000000Y-33340000D03*
X155000000Y-31340000D03*
X156000000Y-33340000D03*
X157000000Y-31340000D03*
%TO.N,N/C*%
X158000000Y-33340000D03*
X159000000Y-31340000D03*
%TO.N,/STATE16*%
X160000000Y-33340000D03*
%TO.N,N/C*%
X161000000Y-31340000D03*
X162000000Y-33340000D03*
X163000000Y-31340000D03*
%TO.N,VCC*%
X80000000Y-35840000D03*
X81000000Y-37840000D03*
X82000000Y-35840000D03*
X83000000Y-37840000D03*
X84000000Y-35840000D03*
%TO.N,N/C*%
X85000000Y-37840000D03*
X86000000Y-35840000D03*
X87000000Y-37840000D03*
X88000000Y-35840000D03*
X89000000Y-37840000D03*
X90000000Y-35840000D03*
%TO.N,GND*%
X93000000Y-37840000D03*
X94000000Y-35840000D03*
%TO.N,/~{RMEM}*%
X95000000Y-37840000D03*
%TO.N,/~{RSPH}*%
X96000000Y-35840000D03*
%TO.N,/~{RSPL}*%
X97000000Y-37840000D03*
%TO.N,/~{RPCH}*%
X98000000Y-35840000D03*
%TO.N,/~{RPCL}*%
X99000000Y-37840000D03*
%TO.N,/~{RARGH}*%
X100000000Y-35840000D03*
%TO.N,/~{RARGL}*%
X101000000Y-37840000D03*
%TO.N,/~{RAC}*%
X102000000Y-35840000D03*
%TO.N,/~{RXH}*%
X103000000Y-37840000D03*
%TO.N,GND*%
X104000000Y-35840000D03*
%TO.N,/~{RYL}*%
X105000000Y-37840000D03*
%TO.N,/~{RYH}*%
X106000000Y-35840000D03*
%TO.N,/~{RZL}*%
X107000000Y-37840000D03*
%TO.N,/~{RZH}*%
X108000000Y-35840000D03*
%TO.N,/~{RFR}*%
X109000000Y-37840000D03*
%TO.N,/~{RCONST}*%
X110000000Y-35840000D03*
%TO.N,/~{RALU}*%
X111000000Y-37840000D03*
%TO.N,/~{RINTC}*%
X112000000Y-35840000D03*
%TO.N,GND*%
X113000000Y-37840000D03*
%TO.N,/L0*%
X114000000Y-35840000D03*
%TO.N,/L1*%
X115000000Y-37840000D03*
%TO.N,/L2*%
X116000000Y-35840000D03*
%TO.N,/L3*%
X117000000Y-37840000D03*
%TO.N,/ALUM*%
X118000000Y-35840000D03*
%TO.N,/~{ALUCI}*%
X119000000Y-37840000D03*
%TO.N,/FRUpd*%
X120000000Y-35840000D03*
%TO.N,/R0*%
X121000000Y-37840000D03*
%TO.N,GND*%
X122000000Y-35840000D03*
%TO.N,/R1*%
X123000000Y-37840000D03*
%TO.N,/R2*%
X124000000Y-35840000D03*
%TO.N,/R3*%
X125000000Y-37840000D03*
%TO.N,/~{SCCLR}*%
X126000000Y-35840000D03*
%TO.N,/~{HALT}*%
X127000000Y-37840000D03*
%TO.N,/PCINC*%
X128000000Y-35840000D03*
%TO.N,/ALUS0*%
X129000000Y-37840000D03*
%TO.N,/ALUS1*%
X130000000Y-35840000D03*
%TO.N,GND*%
X131000000Y-37840000D03*
%TO.N,/ALUS2*%
X132000000Y-35840000D03*
%TO.N,/ALUS3*%
X133000000Y-37840000D03*
%TO.N,/SPDEC*%
X134000000Y-35840000D03*
%TO.N,/SPINC*%
X135000000Y-37840000D03*
%TO.N,/ACSHLEFT*%
X136000000Y-35840000D03*
%TO.N,/ACSHRIGHT*%
X137000000Y-37840000D03*
%TO.N,/INTE*%
X138000000Y-35840000D03*
%TO.N,/~{INTD}*%
X139000000Y-37840000D03*
%TO.N,GND*%
X140000000Y-35840000D03*
%TO.N,/ADRDEC*%
X141000000Y-37840000D03*
%TO.N,/ADRINC*%
X142000000Y-35840000D03*
%TO.N,GND*%
X143000000Y-37840000D03*
X144000000Y-35840000D03*
X145000000Y-37840000D03*
X146000000Y-35840000D03*
X147000000Y-37840000D03*
X148000000Y-35840000D03*
X149000000Y-37840000D03*
X150000000Y-35840000D03*
X151000000Y-37840000D03*
X152000000Y-35840000D03*
X153000000Y-37840000D03*
%TO.N,/~{CLK}*%
X154000000Y-35840000D03*
%TO.N,/PULSE*%
X155000000Y-37840000D03*
%TO.N,GND*%
X156000000Y-35840000D03*
X157000000Y-37840000D03*
%TO.N,N/C*%
X158000000Y-35840000D03*
X159000000Y-37840000D03*
%TO.N,/L4*%
X160000000Y-35840000D03*
%TO.N,/R4*%
X161000000Y-37840000D03*
%TO.N,N/C*%
X162000000Y-35840000D03*
X163000000Y-37840000D03*
%TD*%
D16*
%TO.N,/PCINC*%
X128000000Y-84000000D02*
X128000000Y-92203568D01*
X128945000Y-107135000D02*
X128000000Y-108080000D01*
X128000000Y-44043568D02*
X128945000Y-44988568D01*
X128945000Y-46935000D02*
X128000000Y-47880000D01*
X128000000Y-59920000D02*
X128000000Y-68123568D01*
X128000000Y-92203568D02*
X129000000Y-93203568D01*
X129000000Y-81163568D02*
X129000000Y-83000000D01*
X128000000Y-80163568D02*
X129000000Y-81163568D01*
X129000000Y-69123568D02*
X129000000Y-70960000D01*
X129000000Y-95040000D02*
X128000000Y-96040000D01*
X128945000Y-44988568D02*
X128945000Y-46935000D01*
X128945000Y-104945000D02*
X128945000Y-107135000D01*
X128000000Y-35840000D02*
X128000000Y-44043568D01*
X128000000Y-104000000D02*
X128945000Y-104945000D01*
X128000000Y-47880000D02*
X128000000Y-56000000D01*
X128945000Y-56945000D02*
X128945000Y-58975000D01*
X128000000Y-56000000D02*
X128945000Y-56945000D01*
X128000000Y-116283568D02*
X129000000Y-117283568D01*
X129000000Y-93203568D02*
X129000000Y-95040000D01*
X128000000Y-71960000D02*
X128000000Y-80163568D01*
X129000000Y-70960000D02*
X128000000Y-71960000D01*
X129000000Y-119120000D02*
X128000000Y-120120000D01*
X128000000Y-108080000D02*
X128000000Y-116283568D01*
X129000000Y-83000000D02*
X128000000Y-84000000D01*
X128000000Y-68123568D02*
X129000000Y-69123568D01*
X128945000Y-58975000D02*
X128000000Y-59920000D01*
X129000000Y-117283568D02*
X129000000Y-119120000D01*
X128000000Y-96040000D02*
X128000000Y-104000000D01*
%TO.N,/STATE13*%
X124055000Y-31731432D02*
X124608568Y-32285000D01*
X126945000Y-32285000D02*
X128000000Y-33340000D01*
X124055000Y-30555000D02*
X124055000Y-31731432D01*
X124608568Y-32285000D02*
X126945000Y-32285000D01*
X119700000Y-27500000D02*
X120851000Y-28651000D01*
X122151000Y-28651000D02*
X124055000Y-30555000D01*
X120851000Y-28651000D02*
X122151000Y-28651000D01*
D17*
%TO.N,GND*%
X142805000Y-34535000D02*
X144000000Y-33340000D01*
D18*
X104000000Y-35840000D02*
X103000000Y-34840000D01*
D17*
X138000000Y-34535000D02*
X138805000Y-34535000D01*
X94000000Y-33340000D02*
X95195000Y-34535000D01*
X93000000Y-55420000D02*
X93000000Y-56420000D01*
D18*
X139000000Y-34840000D02*
X139000000Y-34535000D01*
D17*
X93000000Y-61920000D02*
X93000000Y-67460000D01*
X93000000Y-68460000D02*
X94000000Y-69460000D01*
X94000000Y-60920000D02*
X93000000Y-61920000D01*
X94000000Y-59920000D02*
X94000000Y-60920000D01*
X93000000Y-43380000D02*
X93000000Y-44380000D01*
D18*
X103000000Y-34535000D02*
X103000000Y-34340000D01*
D17*
X131000000Y-34535000D02*
X138000000Y-34535000D01*
X94000000Y-85000000D02*
X93000000Y-86000000D01*
X93000000Y-103580000D02*
X93000000Y-104580000D01*
X93000000Y-67460000D02*
X93000000Y-68460000D01*
X142805000Y-34535000D02*
X142805000Y-34645000D01*
X93000000Y-115620000D02*
X93000000Y-116620000D01*
X142805000Y-34645000D02*
X144000000Y-35840000D01*
X94000000Y-35840000D02*
X94000000Y-36840000D01*
X93000000Y-98040000D02*
X93000000Y-103580000D01*
X139000000Y-34535000D02*
X141195000Y-34535000D01*
D18*
X140000000Y-35840000D02*
X139000000Y-34840000D01*
X103000000Y-34840000D02*
X103000000Y-34535000D01*
D17*
X93000000Y-56420000D02*
X94000000Y-57420000D01*
X94000000Y-109080000D02*
X93000000Y-110080000D01*
X93000000Y-91540000D02*
X93000000Y-92540000D01*
D18*
X140000000Y-33340000D02*
X138805000Y-34535000D01*
D17*
X113000000Y-34535000D02*
X131000000Y-34535000D01*
X94000000Y-93540000D02*
X94000000Y-96040000D01*
X94000000Y-47880000D02*
X94000000Y-48880000D01*
D18*
X122000000Y-57420000D02*
X122000000Y-33340000D01*
D17*
X94000000Y-72960000D02*
X93000000Y-73960000D01*
X94000000Y-84000000D02*
X94000000Y-85000000D01*
X94000000Y-57420000D02*
X94000000Y-59920000D01*
X93000000Y-86000000D02*
X93000000Y-91540000D01*
D18*
X131000000Y-31340000D02*
X131000000Y-34535000D01*
X122000000Y-81500000D02*
X122000000Y-120120000D01*
X104000000Y-35535000D02*
X105000000Y-34535000D01*
X113000000Y-31340000D02*
X113000000Y-34535000D01*
D17*
X138000000Y-34535000D02*
X139000000Y-34535000D01*
D18*
X104000000Y-33340000D02*
X104000000Y-33535000D01*
X103000000Y-34340000D02*
X104000000Y-33340000D01*
D17*
X94000000Y-105580000D02*
X94000000Y-108080000D01*
D18*
X122000000Y-81500000D02*
X122000000Y-71960000D01*
D17*
X94000000Y-120120000D02*
X94000000Y-121120000D01*
X94000000Y-96040000D02*
X94000000Y-97040000D01*
X94000000Y-36840000D02*
X93000000Y-37840000D01*
X93000000Y-44380000D02*
X94000000Y-45380000D01*
D19*
X94000000Y-32340000D02*
X93000000Y-31340000D01*
D17*
X93000000Y-92540000D02*
X94000000Y-93540000D01*
X95195000Y-34535000D02*
X103000000Y-34535000D01*
X93000000Y-73960000D02*
X93000000Y-79500000D01*
X93000000Y-37840000D02*
X93000000Y-43380000D01*
X93000000Y-79500000D02*
X93000000Y-80500000D01*
X94000000Y-71960000D02*
X94000000Y-72960000D01*
X93000000Y-104580000D02*
X94000000Y-105580000D01*
X93000000Y-116620000D02*
X94000000Y-117620000D01*
X94000000Y-48880000D02*
X93000000Y-49880000D01*
X94000000Y-117620000D02*
X94000000Y-120120000D01*
X94000000Y-69460000D02*
X94000000Y-71960000D01*
D18*
X140000000Y-35730000D02*
X141195000Y-34535000D01*
X104000000Y-33535000D02*
X105000000Y-34535000D01*
D17*
X94000000Y-97040000D02*
X93000000Y-98040000D01*
D19*
X94000000Y-33340000D02*
X94000000Y-32340000D01*
D17*
X105000000Y-34535000D02*
X113000000Y-34535000D01*
X95195000Y-34535000D02*
X95195000Y-34645000D01*
X94000000Y-81500000D02*
X94000000Y-84000000D01*
D18*
X140000000Y-35840000D02*
X140000000Y-35730000D01*
D17*
X93000000Y-110080000D02*
X93000000Y-115620000D01*
X93000000Y-80500000D02*
X94000000Y-81500000D01*
X141195000Y-34535000D02*
X142805000Y-34535000D01*
D18*
X122000000Y-71960000D02*
X122000000Y-57420000D01*
D17*
X95195000Y-34645000D02*
X94000000Y-35840000D01*
D18*
X140000000Y-33340000D02*
X141195000Y-34535000D01*
D17*
X94000000Y-121120000D02*
X93000000Y-122120000D01*
X94000000Y-45380000D02*
X94000000Y-47880000D01*
D18*
X104000000Y-35840000D02*
X104000000Y-35535000D01*
D17*
X103000000Y-34535000D02*
X105000000Y-34535000D01*
X94000000Y-108080000D02*
X94000000Y-109080000D01*
X93000000Y-49880000D02*
X93000000Y-55420000D01*
X94000000Y-33340000D02*
X94000000Y-35840000D01*
D16*
%TO.N,/~{RARGH}*%
X100000000Y-68000000D02*
X100945000Y-68945000D01*
X100000000Y-56083568D02*
X100945000Y-57028568D01*
X100945000Y-93148568D02*
X100945000Y-95095000D01*
X100945000Y-83055000D02*
X100000000Y-84000000D01*
X100945000Y-104861432D02*
X100945000Y-107135000D01*
X100945000Y-46935000D02*
X100000000Y-47880000D01*
X100000000Y-59920000D02*
X100000000Y-68000000D01*
X100945000Y-57028568D02*
X100945000Y-58975000D01*
X100945000Y-71015000D02*
X100000000Y-71960000D01*
X100945000Y-68945000D02*
X100945000Y-71015000D01*
X100945000Y-119175000D02*
X100000000Y-120120000D01*
X100945000Y-44988568D02*
X100945000Y-46935000D01*
X100000000Y-108080000D02*
X100000000Y-116283568D01*
X100000000Y-116283568D02*
X100945000Y-117228568D01*
X100945000Y-107135000D02*
X100000000Y-108080000D01*
X100000000Y-71960000D02*
X100000000Y-80163568D01*
X100000000Y-84000000D02*
X100000000Y-92203568D01*
X100945000Y-95095000D02*
X100000000Y-96040000D01*
X100000000Y-96040000D02*
X100000000Y-103916432D01*
X100000000Y-92203568D02*
X100945000Y-93148568D01*
X100945000Y-58975000D02*
X100000000Y-59920000D01*
X100945000Y-117228568D02*
X100945000Y-119175000D01*
X100000000Y-47880000D02*
X100000000Y-56083568D01*
X100000000Y-103916432D02*
X100945000Y-104861432D01*
X100000000Y-35840000D02*
X100000000Y-44043568D01*
X100000000Y-80163568D02*
X100945000Y-81108568D01*
X100945000Y-81108568D02*
X100945000Y-83055000D01*
X100000000Y-44043568D02*
X100945000Y-44988568D01*
%TO.N,/ADRINC*%
X142000000Y-84000000D02*
X142000000Y-92000000D01*
X142945000Y-46935000D02*
X142000000Y-47880000D01*
X142000000Y-96040000D02*
X142000000Y-104000000D01*
X142000000Y-116283568D02*
X142945000Y-117228568D01*
X142945000Y-119175000D02*
X142000000Y-120120000D01*
X142945000Y-71015000D02*
X142000000Y-71960000D01*
X142000000Y-108080000D02*
X142000000Y-116283568D01*
X142000000Y-59920000D02*
X142000000Y-68000000D01*
X142945000Y-95095000D02*
X142000000Y-96040000D01*
X142945000Y-44988568D02*
X142945000Y-46935000D01*
X142945000Y-80945000D02*
X142945000Y-83055000D01*
X142945000Y-107135000D02*
X142000000Y-108080000D01*
X142945000Y-58975000D02*
X142000000Y-59920000D01*
X142945000Y-68945000D02*
X142945000Y-71015000D01*
X142945000Y-92945000D02*
X142945000Y-95095000D01*
X142000000Y-35840000D02*
X142000000Y-44043568D01*
X142000000Y-56000000D02*
X142945000Y-56945000D01*
X142000000Y-104000000D02*
X142945000Y-104945000D01*
X142945000Y-117228568D02*
X142945000Y-119175000D01*
X142000000Y-80000000D02*
X142945000Y-80945000D01*
X142000000Y-47880000D02*
X142000000Y-56000000D01*
X142000000Y-92000000D02*
X142945000Y-92945000D01*
X142945000Y-56945000D02*
X142945000Y-58975000D01*
X142000000Y-71960000D02*
X142000000Y-80000000D01*
X142000000Y-68000000D02*
X142945000Y-68945000D01*
X142000000Y-44043568D02*
X142945000Y-44988568D01*
X142945000Y-83055000D02*
X142000000Y-84000000D01*
X142945000Y-104945000D02*
X142945000Y-107135000D01*
%TO.N,/~{RPCH}*%
X98000000Y-35840000D02*
X98000000Y-44043568D01*
X98945000Y-95095000D02*
X98000000Y-96040000D01*
X98945000Y-105188568D02*
X98945000Y-107135000D01*
X98945000Y-44988568D02*
X98945000Y-46935000D01*
X98945000Y-46935000D02*
X98000000Y-47880000D01*
X98000000Y-68123568D02*
X98945000Y-69068568D01*
X98000000Y-108080000D02*
X98000000Y-116283568D01*
X98000000Y-96040000D02*
X98000000Y-104243568D01*
X98945000Y-81108568D02*
X98945000Y-83055000D01*
X98000000Y-84000000D02*
X98000000Y-92203568D01*
X98000000Y-47880000D02*
X98000000Y-56083568D01*
X98945000Y-83055000D02*
X98000000Y-84000000D01*
X98945000Y-117228568D02*
X98945000Y-119175000D01*
X98945000Y-58975000D02*
X98000000Y-59920000D01*
X98000000Y-80163568D02*
X98945000Y-81108568D01*
X98000000Y-104243568D02*
X98945000Y-105188568D01*
X98945000Y-57028568D02*
X98945000Y-58975000D01*
X98000000Y-92203568D02*
X98945000Y-93148568D01*
X98945000Y-69068568D02*
X98945000Y-71015000D01*
X98000000Y-71960000D02*
X98000000Y-80163568D01*
X98000000Y-59920000D02*
X98000000Y-68123568D01*
X98945000Y-93148568D02*
X98945000Y-95095000D01*
X98945000Y-119175000D02*
X98000000Y-120120000D01*
X98945000Y-107135000D02*
X98000000Y-108080000D01*
X98000000Y-116283568D02*
X98945000Y-117228568D01*
X98000000Y-56083568D02*
X98945000Y-57028568D01*
X98945000Y-71015000D02*
X98000000Y-71960000D01*
X98000000Y-44043568D02*
X98945000Y-44988568D01*
%TO.N,/L0*%
X114945000Y-71015000D02*
X114000000Y-71960000D01*
X114000000Y-104000000D02*
X114945000Y-104945000D01*
X114000000Y-108080000D02*
X114000000Y-116283568D01*
X114000000Y-116283568D02*
X115000000Y-117283568D01*
X114000000Y-96040000D02*
X114000000Y-104000000D01*
X114000000Y-59920000D02*
X114000000Y-68123568D01*
X114000000Y-71960000D02*
X114000000Y-80163568D01*
X114945000Y-46935000D02*
X114000000Y-47880000D01*
X114000000Y-80163568D02*
X115000000Y-81163568D01*
X114000000Y-84000000D02*
X114000000Y-92000000D01*
X115000000Y-119120000D02*
X114000000Y-120120000D01*
X114000000Y-47880000D02*
X114000000Y-56083568D01*
X114945000Y-92945000D02*
X114945000Y-95095000D01*
X114945000Y-44988568D02*
X114945000Y-46935000D01*
X114000000Y-56083568D02*
X114945000Y-57028568D01*
X114945000Y-95095000D02*
X114000000Y-96040000D01*
X114945000Y-104945000D02*
X114945000Y-107135000D01*
X114945000Y-57028568D02*
X114945000Y-58975000D01*
X115000000Y-117283568D02*
X115000000Y-119120000D01*
X114945000Y-58975000D02*
X114000000Y-59920000D01*
X115000000Y-83000000D02*
X114000000Y-84000000D01*
X115000000Y-81163568D02*
X115000000Y-83000000D01*
X114000000Y-35840000D02*
X114000000Y-44043568D01*
X114000000Y-92000000D02*
X114945000Y-92945000D01*
X114000000Y-44043568D02*
X114945000Y-44988568D01*
X114000000Y-68123568D02*
X114945000Y-69068568D01*
X114945000Y-107135000D02*
X114000000Y-108080000D01*
X114945000Y-69068568D02*
X114945000Y-71015000D01*
%TO.N,/ALUM*%
X119000000Y-69123568D02*
X119000000Y-70960000D01*
X118000000Y-80163568D02*
X118945000Y-81108568D01*
X118000000Y-92000000D02*
X118945000Y-92945000D01*
X118945000Y-119175000D02*
X118000000Y-120120000D01*
X119000000Y-46880000D02*
X118000000Y-47880000D01*
X118000000Y-71960000D02*
X118000000Y-80163568D01*
X119000000Y-70960000D02*
X118000000Y-71960000D01*
X118000000Y-35840000D02*
X118000000Y-43716432D01*
X118945000Y-107135000D02*
X118000000Y-108080000D01*
X118000000Y-68123568D02*
X119000000Y-69123568D01*
X118945000Y-58975000D02*
X118000000Y-59920000D01*
X118945000Y-83055000D02*
X118000000Y-84000000D01*
X118945000Y-105188568D02*
X118945000Y-107135000D01*
X118945000Y-95095000D02*
X118000000Y-96040000D01*
X118000000Y-84000000D02*
X118000000Y-92000000D01*
X118000000Y-43716432D02*
X119000000Y-44716432D01*
X118000000Y-104243568D02*
X118945000Y-105188568D01*
X118945000Y-92945000D02*
X118945000Y-95095000D01*
X118000000Y-59920000D02*
X118000000Y-68123568D01*
X118945000Y-56945000D02*
X118945000Y-58975000D01*
X118000000Y-56000000D02*
X118945000Y-56945000D01*
X118000000Y-116283568D02*
X118945000Y-117228568D01*
X118000000Y-47880000D02*
X118000000Y-56000000D01*
X119000000Y-44716432D02*
X119000000Y-46880000D01*
X118945000Y-81108568D02*
X118945000Y-83055000D01*
X118000000Y-108080000D02*
X118000000Y-116283568D01*
X118000000Y-96040000D02*
X118000000Y-104243568D01*
X118945000Y-117228568D02*
X118945000Y-119175000D01*
%TO.N,/~{RYH}*%
X106945000Y-104945000D02*
X106945000Y-107135000D01*
X106000000Y-68123568D02*
X106945000Y-69068568D01*
X106000000Y-55756432D02*
X106945000Y-56701432D01*
X106000000Y-104000000D02*
X106945000Y-104945000D01*
X106945000Y-69068568D02*
X106945000Y-71015000D01*
X106000000Y-96040000D02*
X106000000Y-104000000D01*
X106000000Y-116283568D02*
X107000000Y-117283568D01*
X106000000Y-43933568D02*
X107000000Y-44933568D01*
X106945000Y-56701432D02*
X106945000Y-58975000D01*
X107000000Y-81163568D02*
X107000000Y-83000000D01*
X106000000Y-59920000D02*
X106000000Y-68123568D01*
X107000000Y-119120000D02*
X106000000Y-120120000D01*
X106945000Y-107135000D02*
X106000000Y-108080000D01*
X106000000Y-84000000D02*
X106000000Y-92000000D01*
X106000000Y-108080000D02*
X106000000Y-116283568D01*
X106000000Y-71960000D02*
X106000000Y-80163568D01*
X106000000Y-92000000D02*
X106945000Y-92945000D01*
X106000000Y-80163568D02*
X107000000Y-81163568D01*
X107000000Y-83000000D02*
X106000000Y-84000000D01*
X106945000Y-92945000D02*
X106945000Y-95095000D01*
X106945000Y-58975000D02*
X106000000Y-59920000D01*
X107000000Y-44933568D02*
X107000000Y-46880000D01*
X106000000Y-35840000D02*
X106000000Y-43933568D01*
X106945000Y-71015000D02*
X106000000Y-71960000D01*
X106945000Y-95095000D02*
X106000000Y-96040000D01*
X107000000Y-117283568D02*
X107000000Y-119120000D01*
X106000000Y-47880000D02*
X106000000Y-55756432D01*
X107000000Y-46880000D02*
X106000000Y-47880000D01*
%TO.N,/L2*%
X116000000Y-68123568D02*
X116945000Y-69068568D01*
X116000000Y-116283568D02*
X116945000Y-117228568D01*
X116000000Y-84000000D02*
X116000000Y-92203568D01*
X116000000Y-104243568D02*
X116945000Y-105188568D01*
X116945000Y-69068568D02*
X116945000Y-71015000D01*
X116945000Y-81108568D02*
X116945000Y-83055000D01*
X116945000Y-95095000D02*
X116000000Y-96040000D01*
X116945000Y-93148568D02*
X116945000Y-95095000D01*
X116000000Y-44043568D02*
X116945000Y-44988568D01*
X116945000Y-119175000D02*
X116000000Y-120120000D01*
X116000000Y-71960000D02*
X116000000Y-80163568D01*
X116000000Y-56083568D02*
X116945000Y-57028568D01*
X116945000Y-44988568D02*
X116945000Y-46935000D01*
X116000000Y-59920000D02*
X116000000Y-68123568D01*
X116945000Y-105188568D02*
X116945000Y-107135000D01*
X116945000Y-58975000D02*
X116000000Y-59920000D01*
X116945000Y-71015000D02*
X116000000Y-71960000D01*
X116000000Y-92203568D02*
X116945000Y-93148568D01*
X116000000Y-47880000D02*
X116000000Y-56083568D01*
X116945000Y-83055000D02*
X116000000Y-84000000D01*
X116945000Y-117228568D02*
X116945000Y-119175000D01*
X116000000Y-108080000D02*
X116000000Y-116283568D01*
X116000000Y-96040000D02*
X116000000Y-104243568D01*
X116000000Y-35840000D02*
X116000000Y-44043568D01*
X116945000Y-46935000D02*
X116000000Y-47880000D01*
X116000000Y-80163568D02*
X116945000Y-81108568D01*
X116945000Y-57028568D02*
X116945000Y-58975000D01*
X116945000Y-107135000D02*
X116000000Y-108080000D01*
%TO.N,/L4*%
X160945000Y-105078568D02*
X160945000Y-107135000D01*
X160000000Y-68013568D02*
X161055000Y-69068568D01*
X160945000Y-95095000D02*
X160000000Y-96040000D01*
X160000000Y-104133568D02*
X160945000Y-105078568D01*
X160945000Y-44878568D02*
X160945000Y-46935000D01*
X161000000Y-83000000D02*
X160000000Y-84000000D01*
X160000000Y-71960000D02*
X160000000Y-79836432D01*
X160000000Y-96040000D02*
X160000000Y-104133568D01*
X161000000Y-117283568D02*
X161000000Y-119120000D01*
X160000000Y-79836432D02*
X161000000Y-80836432D01*
X160000000Y-47880000D02*
X160000000Y-56083568D01*
X160945000Y-107135000D02*
X160000000Y-108080000D01*
X160000000Y-43933568D02*
X160945000Y-44878568D01*
X160945000Y-58975000D02*
X160000000Y-59920000D01*
X160945000Y-93038568D02*
X160945000Y-95095000D01*
X160945000Y-57028568D02*
X160945000Y-58975000D01*
X161055000Y-69068568D02*
X161055000Y-70905000D01*
X160000000Y-56083568D02*
X160945000Y-57028568D01*
X161000000Y-80836432D02*
X161000000Y-83000000D01*
X160000000Y-84000000D02*
X160000000Y-92093568D01*
X160000000Y-92093568D02*
X160945000Y-93038568D01*
X161000000Y-119120000D02*
X160000000Y-120120000D01*
X160000000Y-35840000D02*
X160000000Y-43933568D01*
X160000000Y-116283568D02*
X161000000Y-117283568D01*
X160945000Y-46935000D02*
X160000000Y-47880000D01*
X160000000Y-59920000D02*
X160000000Y-68013568D01*
X161055000Y-70905000D02*
X160000000Y-71960000D01*
X160000000Y-108080000D02*
X160000000Y-116283568D01*
%TO.N,/~{RINTC}*%
X112000000Y-79836432D02*
X112945000Y-80781432D01*
X112000000Y-68123568D02*
X112945000Y-69068568D01*
X112945000Y-71015000D02*
X112000000Y-71960000D01*
X112945000Y-80781432D02*
X112945000Y-83055000D01*
X112945000Y-56945000D02*
X112945000Y-58975000D01*
X112945000Y-105188568D02*
X112945000Y-107135000D01*
X112000000Y-44043568D02*
X112945000Y-44988568D01*
X112945000Y-44988568D02*
X112945000Y-46935000D01*
X112945000Y-46935000D02*
X112000000Y-47880000D01*
X112945000Y-83055000D02*
X112000000Y-84000000D01*
X112945000Y-58975000D02*
X112000000Y-59920000D01*
X112000000Y-56000000D02*
X112945000Y-56945000D01*
X112000000Y-96040000D02*
X112000000Y-104243568D01*
X112000000Y-47880000D02*
X112000000Y-56000000D01*
X112945000Y-119175000D02*
X112000000Y-120120000D01*
X112000000Y-108080000D02*
X112000000Y-115956432D01*
X112945000Y-107135000D02*
X112000000Y-108080000D01*
X112945000Y-95095000D02*
X112000000Y-96040000D01*
X112000000Y-115956432D02*
X112945000Y-116901432D01*
X112000000Y-104243568D02*
X112945000Y-105188568D01*
X112000000Y-71960000D02*
X112000000Y-79836432D01*
X112945000Y-93148568D02*
X112945000Y-95095000D01*
X112945000Y-116901432D02*
X112945000Y-119175000D01*
X112000000Y-84000000D02*
X112000000Y-92203568D01*
X112000000Y-92203568D02*
X112945000Y-93148568D01*
X112000000Y-59920000D02*
X112000000Y-68123568D01*
X112945000Y-69068568D02*
X112945000Y-71015000D01*
X112000000Y-35840000D02*
X112000000Y-44043568D01*
%TO.N,/ALUS1*%
X130945000Y-95095000D02*
X130000000Y-96040000D01*
X130000000Y-35840000D02*
X130000000Y-44043568D01*
X130945000Y-116945000D02*
X130945000Y-119175000D01*
X130945000Y-105188568D02*
X130945000Y-107135000D01*
X130945000Y-83055000D02*
X130000000Y-84000000D01*
X130000000Y-71960000D02*
X130000000Y-80163568D01*
X131000000Y-56756432D02*
X131000000Y-58920000D01*
X130000000Y-55756432D02*
X131000000Y-56756432D01*
X130945000Y-119175000D02*
X130000000Y-120120000D01*
X130000000Y-116000000D02*
X130945000Y-116945000D01*
X130000000Y-68000000D02*
X130945000Y-68945000D01*
X131000000Y-58920000D02*
X130000000Y-59920000D01*
X130000000Y-96040000D02*
X130000000Y-104243568D01*
X130000000Y-92203568D02*
X130945000Y-93148568D01*
X130000000Y-80163568D02*
X130945000Y-81108568D01*
X130000000Y-59920000D02*
X130000000Y-68000000D01*
X130945000Y-44988568D02*
X130945000Y-46935000D01*
X130000000Y-47880000D02*
X130000000Y-55756432D01*
X130945000Y-68945000D02*
X130945000Y-71015000D01*
X130945000Y-107135000D02*
X130000000Y-108080000D01*
X130945000Y-71015000D02*
X130000000Y-71960000D01*
X130945000Y-46935000D02*
X130000000Y-47880000D01*
X130000000Y-104243568D02*
X130945000Y-105188568D01*
X130945000Y-93148568D02*
X130945000Y-95095000D01*
X130000000Y-44043568D02*
X130945000Y-44988568D01*
X130945000Y-81108568D02*
X130945000Y-83055000D01*
X130000000Y-108080000D02*
X130000000Y-116000000D01*
X130000000Y-84000000D02*
X130000000Y-92203568D01*
%TO.N,/~{RSPH}*%
X96000000Y-84000000D02*
X96000000Y-92203568D01*
X96000000Y-44043568D02*
X96945000Y-44988568D01*
X96945000Y-46935000D02*
X96000000Y-47880000D01*
X96000000Y-108080000D02*
X96000000Y-116283568D01*
X96000000Y-96040000D02*
X96000000Y-104243568D01*
X96000000Y-116283568D02*
X96945000Y-117228568D01*
X96945000Y-117228568D02*
X96945000Y-119175000D01*
X96945000Y-58975000D02*
X96000000Y-59920000D01*
X97000000Y-81163568D02*
X97000000Y-83000000D01*
X96945000Y-119175000D02*
X96000000Y-120120000D01*
X96945000Y-71015000D02*
X96000000Y-71960000D01*
X96000000Y-92203568D02*
X96945000Y-93148568D01*
X96945000Y-68945000D02*
X96945000Y-71015000D01*
X96000000Y-104243568D02*
X96945000Y-105188568D01*
X96945000Y-107135000D02*
X96000000Y-108080000D01*
X96000000Y-71960000D02*
X96000000Y-80163568D01*
X96945000Y-57028568D02*
X96945000Y-58975000D01*
X96000000Y-47880000D02*
X96000000Y-56083568D01*
X96945000Y-44988568D02*
X96945000Y-46935000D01*
X96000000Y-68000000D02*
X96945000Y-68945000D01*
X96000000Y-80163568D02*
X97000000Y-81163568D01*
X97000000Y-83000000D02*
X96000000Y-84000000D01*
X96000000Y-59920000D02*
X96000000Y-68000000D01*
X96000000Y-35840000D02*
X96000000Y-44043568D01*
X96945000Y-105188568D02*
X96945000Y-107135000D01*
X96945000Y-93148568D02*
X96945000Y-95095000D01*
X96945000Y-95095000D02*
X96000000Y-96040000D01*
X96000000Y-56083568D02*
X96945000Y-57028568D01*
%TO.N,/ACSHLEFT*%
X136945000Y-44988568D02*
X136945000Y-46935000D01*
X137000000Y-117283568D02*
X137000000Y-119120000D01*
X136000000Y-92203568D02*
X136945000Y-93148568D01*
X136000000Y-59920000D02*
X136000000Y-68123568D01*
X136945000Y-81108568D02*
X136945000Y-83055000D01*
X136000000Y-68123568D02*
X136945000Y-69068568D01*
X136000000Y-108080000D02*
X136000000Y-116283568D01*
X136945000Y-46935000D02*
X136000000Y-47880000D01*
X136945000Y-57028568D02*
X136945000Y-58975000D01*
X136000000Y-56083568D02*
X136945000Y-57028568D01*
X136000000Y-80163568D02*
X136945000Y-81108568D01*
X136945000Y-105188568D02*
X136945000Y-107135000D01*
X136945000Y-107135000D02*
X136000000Y-108080000D01*
X136945000Y-93148568D02*
X136945000Y-95095000D01*
X136000000Y-84000000D02*
X136000000Y-92203568D01*
X136945000Y-69068568D02*
X136945000Y-71015000D01*
X136000000Y-96040000D02*
X136000000Y-104243568D01*
X136945000Y-83055000D02*
X136000000Y-84000000D01*
X136000000Y-104243568D02*
X136945000Y-105188568D01*
X136000000Y-35840000D02*
X136000000Y-44043568D01*
X136000000Y-116283568D02*
X137000000Y-117283568D01*
X136945000Y-58975000D02*
X136000000Y-59920000D01*
X136945000Y-71015000D02*
X136000000Y-71960000D01*
X136000000Y-47880000D02*
X136000000Y-56083568D01*
X136000000Y-71960000D02*
X136000000Y-80163568D01*
X137000000Y-119120000D02*
X136000000Y-120120000D01*
X136000000Y-44043568D02*
X136945000Y-44988568D01*
X136945000Y-95095000D02*
X136000000Y-96040000D01*
%TO.N,/SPDEC*%
X134945000Y-58975000D02*
X134000000Y-59920000D01*
X134000000Y-44043568D02*
X134945000Y-44988568D01*
X135000000Y-107080000D02*
X134000000Y-108080000D01*
X135000000Y-117283568D02*
X135000000Y-119120000D01*
X134000000Y-71960000D02*
X134000000Y-80163568D01*
X134000000Y-96040000D02*
X134000000Y-104243568D01*
X134000000Y-116283568D02*
X135000000Y-117283568D01*
X134945000Y-71015000D02*
X134000000Y-71960000D01*
X134000000Y-59920000D02*
X134000000Y-68000000D01*
X134000000Y-56083568D02*
X134945000Y-57028568D01*
X134000000Y-68000000D02*
X134945000Y-68945000D01*
X134000000Y-91876432D02*
X134945000Y-92821432D01*
X134945000Y-57028568D02*
X134945000Y-58975000D01*
X134000000Y-35840000D02*
X134000000Y-44043568D01*
X134000000Y-84000000D02*
X134000000Y-91876432D01*
X134000000Y-104243568D02*
X135000000Y-105243568D01*
X135000000Y-83000000D02*
X134000000Y-84000000D01*
X134000000Y-108080000D02*
X134000000Y-116283568D01*
X134945000Y-44988568D02*
X134945000Y-46935000D01*
X135000000Y-81163568D02*
X135000000Y-83000000D01*
X134945000Y-46935000D02*
X134000000Y-47880000D01*
X134945000Y-92821432D02*
X134945000Y-95095000D01*
X134000000Y-47880000D02*
X134000000Y-56083568D01*
X135000000Y-119120000D02*
X134000000Y-120120000D01*
X134000000Y-80163568D02*
X135000000Y-81163568D01*
X134945000Y-95095000D02*
X134000000Y-96040000D01*
X134945000Y-68945000D02*
X134945000Y-71015000D01*
X135000000Y-105243568D02*
X135000000Y-107080000D01*
%TO.N,/STATE14*%
X122240000Y-27500000D02*
X125135000Y-30395000D01*
X125135000Y-30395000D02*
X128055000Y-30395000D01*
X128055000Y-30395000D02*
X129000000Y-31340000D01*
%TO.N,/~{CLK}*%
X154945000Y-71015000D02*
X154000000Y-71960000D01*
X154000000Y-56083568D02*
X154945000Y-57028568D01*
X154945000Y-117228568D02*
X154945000Y-119175000D01*
X154000000Y-104243568D02*
X154945000Y-105188568D01*
X154945000Y-107135000D02*
X154000000Y-108080000D01*
X154000000Y-80163568D02*
X154945000Y-81108568D01*
X154000000Y-92000000D02*
X154945000Y-92945000D01*
X155000000Y-46880000D02*
X154000000Y-47880000D01*
X154000000Y-47880000D02*
X154000000Y-56083568D01*
X154000000Y-35840000D02*
X154000000Y-43716432D01*
X154000000Y-108080000D02*
X154000000Y-116283568D01*
X154945000Y-68958568D02*
X154945000Y-71015000D01*
X154945000Y-95095000D02*
X154000000Y-96040000D01*
X154000000Y-71960000D02*
X154000000Y-80163568D01*
X154945000Y-57028568D02*
X154945000Y-58975000D01*
X154000000Y-116283568D02*
X154945000Y-117228568D01*
X154000000Y-84000000D02*
X154000000Y-92000000D01*
X154945000Y-119175000D02*
X154000000Y-120120000D01*
X154945000Y-92945000D02*
X154945000Y-95095000D01*
X154945000Y-81108568D02*
X154945000Y-83055000D01*
X154000000Y-96040000D02*
X154000000Y-104243568D01*
X155000000Y-44716432D02*
X155000000Y-46880000D01*
X154000000Y-59920000D02*
X154000000Y-68013568D01*
X154945000Y-105188568D02*
X154945000Y-107135000D01*
X154000000Y-43716432D02*
X155000000Y-44716432D01*
X154945000Y-83055000D02*
X154000000Y-84000000D01*
X154000000Y-68013568D02*
X154945000Y-68958568D01*
X154945000Y-58975000D02*
X154000000Y-59920000D01*
%TO.N,/~{RAC}*%
X102000000Y-47880000D02*
X102000000Y-56000000D01*
X102000000Y-80163568D02*
X103000000Y-81163568D01*
X102000000Y-84000000D02*
X102000000Y-92203568D01*
X102000000Y-59920000D02*
X102000000Y-68123568D01*
X102000000Y-104000000D02*
X102945000Y-104945000D01*
X102945000Y-71015000D02*
X102000000Y-71960000D01*
X102000000Y-108080000D02*
X102000000Y-116283568D01*
X103000000Y-93203568D02*
X103000000Y-95040000D01*
X102000000Y-116283568D02*
X102945000Y-117228568D01*
X102945000Y-56945000D02*
X102945000Y-58975000D01*
X103000000Y-81163568D02*
X103000000Y-83000000D01*
X102945000Y-104945000D02*
X102945000Y-107135000D01*
X102945000Y-107135000D02*
X102000000Y-108080000D01*
X102000000Y-44043568D02*
X102945000Y-44988568D01*
X102945000Y-46935000D02*
X102000000Y-47880000D01*
X102945000Y-119175000D02*
X102000000Y-120120000D01*
X103000000Y-83000000D02*
X102000000Y-84000000D01*
X102945000Y-44988568D02*
X102945000Y-46935000D01*
X102000000Y-71960000D02*
X102000000Y-80163568D01*
X103000000Y-95040000D02*
X102000000Y-96040000D01*
X102945000Y-69068568D02*
X102945000Y-71015000D01*
X102000000Y-56000000D02*
X102945000Y-56945000D01*
X102000000Y-96040000D02*
X102000000Y-104000000D01*
X102945000Y-117228568D02*
X102945000Y-119175000D01*
X102000000Y-92203568D02*
X103000000Y-93203568D01*
X102000000Y-68123568D02*
X102945000Y-69068568D01*
X102945000Y-58975000D02*
X102000000Y-59920000D01*
X102000000Y-35840000D02*
X102000000Y-44043568D01*
%TO.N,/~{RCONST}*%
X110945000Y-69068568D02*
X110945000Y-71015000D01*
X110945000Y-92945000D02*
X110945000Y-95095000D01*
X110000000Y-80163568D02*
X110945000Y-81108568D01*
X110000000Y-56083568D02*
X110945000Y-57028568D01*
X110000000Y-96040000D02*
X110000000Y-104000000D01*
X110945000Y-58975000D02*
X110000000Y-59920000D01*
X110000000Y-59920000D02*
X110000000Y-68123568D01*
X110945000Y-57028568D02*
X110945000Y-58975000D01*
X110000000Y-84000000D02*
X110000000Y-92000000D01*
X110945000Y-95095000D02*
X110000000Y-96040000D01*
X110000000Y-92000000D02*
X110945000Y-92945000D01*
X110945000Y-46935000D02*
X110000000Y-47880000D01*
X111000000Y-117283568D02*
X111000000Y-119120000D01*
X110000000Y-108080000D02*
X110000000Y-116283568D01*
X110945000Y-71015000D02*
X110000000Y-71960000D01*
X110000000Y-44043568D02*
X110945000Y-44988568D01*
X111000000Y-119120000D02*
X110000000Y-120120000D01*
X110945000Y-44988568D02*
X110945000Y-46935000D01*
X110000000Y-35840000D02*
X110000000Y-44043568D01*
X110000000Y-68123568D02*
X110945000Y-69068568D01*
X110945000Y-107135000D02*
X110000000Y-108080000D01*
X110945000Y-83055000D02*
X110000000Y-84000000D01*
X110945000Y-104945000D02*
X110945000Y-107135000D01*
X110000000Y-104000000D02*
X110945000Y-104945000D01*
X110000000Y-71960000D02*
X110000000Y-80163568D01*
X110000000Y-116283568D02*
X111000000Y-117283568D01*
X110945000Y-81108568D02*
X110945000Y-83055000D01*
X110000000Y-47880000D02*
X110000000Y-56083568D01*
%TO.N,/R2*%
X125000000Y-119120000D02*
X124000000Y-120120000D01*
X124000000Y-68123568D02*
X124945000Y-69068568D01*
X124000000Y-104243568D02*
X124945000Y-105188568D01*
X124945000Y-58975000D02*
X124000000Y-59920000D01*
X124000000Y-96040000D02*
X124000000Y-104243568D01*
X124000000Y-56000000D02*
X124945000Y-56945000D01*
X124000000Y-84000000D02*
X124000000Y-92203568D01*
X125000000Y-45043568D02*
X125000000Y-46880000D01*
X124000000Y-44043568D02*
X125000000Y-45043568D01*
X124945000Y-81108568D02*
X124945000Y-83055000D01*
X125000000Y-117283568D02*
X125000000Y-119120000D01*
X124000000Y-35840000D02*
X124000000Y-44043568D01*
X124000000Y-47880000D02*
X124000000Y-56000000D01*
X124000000Y-116283568D02*
X125000000Y-117283568D01*
X124000000Y-108080000D02*
X124000000Y-116283568D01*
X124000000Y-92203568D02*
X124945000Y-93148568D01*
X124945000Y-56945000D02*
X124945000Y-58975000D01*
X124945000Y-105188568D02*
X124945000Y-107135000D01*
X124000000Y-80163568D02*
X124945000Y-81108568D01*
X124945000Y-71015000D02*
X124000000Y-71960000D01*
X124000000Y-71960000D02*
X124000000Y-80163568D01*
X124945000Y-107135000D02*
X124000000Y-108080000D01*
X125000000Y-46880000D02*
X124000000Y-47880000D01*
X124945000Y-83055000D02*
X124000000Y-84000000D01*
X124945000Y-93148568D02*
X124945000Y-95095000D01*
X124945000Y-95095000D02*
X124000000Y-96040000D01*
X124945000Y-69068568D02*
X124945000Y-71015000D01*
X124000000Y-59920000D02*
X124000000Y-68123568D01*
%TO.N,/~{SCCLR}*%
X126000000Y-47880000D02*
X126000000Y-56000000D01*
X126000000Y-59920000D02*
X126000000Y-67796432D01*
X127000000Y-45043568D02*
X127000000Y-46880000D01*
X126000000Y-84000000D02*
X126000000Y-92203568D01*
X127000000Y-83000000D02*
X126000000Y-84000000D01*
X126000000Y-71960000D02*
X126000000Y-80163568D01*
X126000000Y-56000000D02*
X126945000Y-56945000D01*
X126000000Y-92203568D02*
X126945000Y-93148568D01*
X126945000Y-56945000D02*
X126945000Y-58975000D01*
X126945000Y-117228568D02*
X126945000Y-119175000D01*
X126945000Y-58975000D02*
X126000000Y-59920000D01*
X126000000Y-96040000D02*
X126000000Y-104133568D01*
X127000000Y-68796432D02*
X127000000Y-70960000D01*
X127000000Y-70960000D02*
X126000000Y-71960000D01*
X126000000Y-35840000D02*
X126000000Y-44043568D01*
X127000000Y-81163568D02*
X127000000Y-83000000D01*
X126945000Y-93148568D02*
X126945000Y-95095000D01*
X126000000Y-80163568D02*
X127000000Y-81163568D01*
X127000000Y-46880000D02*
X126000000Y-47880000D01*
X126000000Y-104133568D02*
X127055000Y-105188568D01*
X126945000Y-119175000D02*
X126000000Y-120120000D01*
X126000000Y-67796432D02*
X127000000Y-68796432D01*
X126000000Y-108080000D02*
X126000000Y-116283568D01*
X126000000Y-44043568D02*
X127000000Y-45043568D01*
X126945000Y-95095000D02*
X126000000Y-96040000D01*
X126000000Y-116283568D02*
X126945000Y-117228568D01*
X127055000Y-107025000D02*
X126000000Y-108080000D01*
X127055000Y-105188568D02*
X127055000Y-107025000D01*
%TO.N,/FRUpd*%
X120945000Y-71015000D02*
X120000000Y-71960000D01*
X120000000Y-80163568D02*
X120945000Y-81108568D01*
X120945000Y-119175000D02*
X120000000Y-120120000D01*
X120945000Y-83055000D02*
X120000000Y-84000000D01*
X120000000Y-56000000D02*
X120945000Y-56945000D01*
X120945000Y-81108568D02*
X120945000Y-83055000D01*
X120945000Y-117228568D02*
X120945000Y-119175000D01*
X120000000Y-116283568D02*
X120945000Y-117228568D01*
X120000000Y-59920000D02*
X120000000Y-68000000D01*
X120000000Y-47880000D02*
X120000000Y-56000000D01*
X120945000Y-95095000D02*
X120000000Y-96040000D01*
X120000000Y-68000000D02*
X120945000Y-68945000D01*
X120945000Y-56945000D02*
X120945000Y-58975000D01*
X120000000Y-104000000D02*
X120945000Y-104945000D01*
X120000000Y-84000000D02*
X120000000Y-92203568D01*
X120000000Y-44043568D02*
X120945000Y-44988568D01*
X120000000Y-108080000D02*
X120000000Y-116283568D01*
X120945000Y-107135000D02*
X120000000Y-108080000D01*
X120945000Y-58975000D02*
X120000000Y-59920000D01*
X120945000Y-104945000D02*
X120945000Y-107135000D01*
X120000000Y-96040000D02*
X120000000Y-104000000D01*
X120945000Y-68945000D02*
X120945000Y-71015000D01*
X120945000Y-93148568D02*
X120945000Y-95095000D01*
X120945000Y-46935000D02*
X120000000Y-47880000D01*
X120945000Y-44988568D02*
X120945000Y-46935000D01*
X120000000Y-71960000D02*
X120000000Y-80163568D01*
X120000000Y-35840000D02*
X120000000Y-44043568D01*
X120000000Y-92203568D02*
X120945000Y-93148568D01*
%TO.N,/~{RZH}*%
X108000000Y-80163568D02*
X108945000Y-81108568D01*
X108945000Y-69068568D02*
X108945000Y-71015000D01*
X108000000Y-84000000D02*
X108000000Y-92000000D01*
X108945000Y-57028568D02*
X108945000Y-58975000D01*
X109000000Y-117283568D02*
X109000000Y-119120000D01*
X108945000Y-83055000D02*
X108000000Y-84000000D01*
X108000000Y-68123568D02*
X108945000Y-69068568D01*
X108000000Y-96040000D02*
X108000000Y-104243568D01*
X108000000Y-47880000D02*
X108000000Y-56083568D01*
X108000000Y-116283568D02*
X109000000Y-117283568D01*
X108945000Y-107135000D02*
X108000000Y-108080000D01*
X108945000Y-81108568D02*
X108945000Y-83055000D01*
X108000000Y-92000000D02*
X108945000Y-92945000D01*
X109000000Y-119120000D02*
X108000000Y-120120000D01*
X108000000Y-104243568D02*
X108945000Y-105188568D01*
X108945000Y-92945000D02*
X108945000Y-95095000D01*
X108000000Y-44043568D02*
X108945000Y-44988568D01*
X108000000Y-35840000D02*
X108000000Y-44043568D01*
X108000000Y-59920000D02*
X108000000Y-68123568D01*
X108945000Y-105188568D02*
X108945000Y-107135000D01*
X108945000Y-71015000D02*
X108000000Y-71960000D01*
X108000000Y-56083568D02*
X108945000Y-57028568D01*
X108945000Y-46935000D02*
X108000000Y-47880000D01*
X108000000Y-108080000D02*
X108000000Y-116283568D01*
X108945000Y-58975000D02*
X108000000Y-59920000D01*
X108945000Y-95095000D02*
X108000000Y-96040000D01*
X108000000Y-71960000D02*
X108000000Y-80163568D01*
X108945000Y-44988568D02*
X108945000Y-46935000D01*
%TO.N,/ALUS2*%
X132000000Y-59920000D02*
X132000000Y-68123568D01*
X132000000Y-35840000D02*
X132000000Y-43716432D01*
X132945000Y-92945000D02*
X132945000Y-95095000D01*
X132945000Y-57028568D02*
X132945000Y-58975000D01*
X132945000Y-69068568D02*
X132945000Y-71015000D01*
X132945000Y-107135000D02*
X132000000Y-108080000D01*
X132000000Y-56083568D02*
X132945000Y-57028568D01*
X132945000Y-119175000D02*
X132000000Y-120120000D01*
X132000000Y-104243568D02*
X132945000Y-105188568D01*
X132000000Y-71960000D02*
X132000000Y-80163568D01*
X132945000Y-105188568D02*
X132945000Y-107135000D01*
X132000000Y-116283568D02*
X132945000Y-117228568D01*
X132000000Y-96040000D02*
X132000000Y-104243568D01*
X132000000Y-108080000D02*
X132000000Y-116283568D01*
X132945000Y-95095000D02*
X132000000Y-96040000D01*
X132000000Y-92000000D02*
X132945000Y-92945000D01*
X132000000Y-47880000D02*
X132000000Y-56083568D01*
X132000000Y-43716432D02*
X132945000Y-44661432D01*
X132000000Y-84000000D02*
X132000000Y-92000000D01*
X133000000Y-83000000D02*
X132000000Y-84000000D01*
X132945000Y-44661432D02*
X132945000Y-46935000D01*
X132945000Y-71015000D02*
X132000000Y-71960000D01*
X132945000Y-58975000D02*
X132000000Y-59920000D01*
X132000000Y-80163568D02*
X133000000Y-81163568D01*
X133000000Y-81163568D02*
X133000000Y-83000000D01*
X132945000Y-46935000D02*
X132000000Y-47880000D01*
X132000000Y-68123568D02*
X132945000Y-69068568D01*
X132945000Y-117228568D02*
X132945000Y-119175000D01*
%TO.N,/INTE*%
X138000000Y-47880000D02*
X138000000Y-55973568D01*
X138000000Y-55973568D02*
X138945000Y-56918568D01*
X139000000Y-95040000D02*
X138000000Y-96040000D01*
X138000000Y-35840000D02*
X138000000Y-44043568D01*
X138945000Y-83055000D02*
X138000000Y-84000000D01*
X138000000Y-108080000D02*
X138000000Y-116000000D01*
X138000000Y-84000000D02*
X138000000Y-92203568D01*
X139000000Y-93203568D02*
X139000000Y-95040000D01*
X138000000Y-71960000D02*
X138000000Y-80053568D01*
X138000000Y-44043568D02*
X138945000Y-44988568D01*
X138945000Y-56918568D02*
X138945000Y-58975000D01*
X138000000Y-59920000D02*
X138000000Y-68123568D01*
X138945000Y-80998568D02*
X138945000Y-83055000D01*
X138945000Y-119175000D02*
X138000000Y-120120000D01*
X138945000Y-104945000D02*
X138945000Y-107135000D01*
X138000000Y-104000000D02*
X138945000Y-104945000D01*
X138000000Y-96040000D02*
X138000000Y-104000000D01*
X138000000Y-80053568D02*
X138945000Y-80998568D01*
X138000000Y-92203568D02*
X139000000Y-93203568D01*
X138945000Y-44988568D02*
X138945000Y-46935000D01*
X138945000Y-107135000D02*
X138000000Y-108080000D01*
X138945000Y-69068568D02*
X138945000Y-71015000D01*
X138945000Y-116945000D02*
X138945000Y-119175000D01*
X138945000Y-71015000D02*
X138000000Y-71960000D01*
X138945000Y-46935000D02*
X138000000Y-47880000D01*
X138945000Y-58975000D02*
X138000000Y-59920000D01*
X138000000Y-68123568D02*
X138945000Y-69068568D01*
X138000000Y-116000000D02*
X138945000Y-116945000D01*
%TD*%
%TA.AperFunction,Conductor*%
%TO.N,GND*%
G36*
X159943039Y-25520185D02*
G01*
X159988794Y-25572989D01*
X160000000Y-25624500D01*
X160000000Y-29876000D01*
X159980315Y-29943039D01*
X159927511Y-29988794D01*
X159876000Y-30000000D01*
X128144577Y-30000000D01*
X128112492Y-29995776D01*
X128107727Y-29994500D01*
X128107723Y-29994500D01*
X125352255Y-29994500D01*
X125285216Y-29974815D01*
X125264574Y-29958181D01*
X123345674Y-28039281D01*
X123312189Y-27977958D01*
X123315423Y-27913284D01*
X123362171Y-27769409D01*
X123374274Y-27692993D01*
X123387527Y-27609321D01*
X123417456Y-27546186D01*
X123476768Y-27509255D01*
X123546630Y-27510253D01*
X123604863Y-27548863D01*
X123632473Y-27609321D01*
X123657829Y-27769410D01*
X123713787Y-27941636D01*
X123713788Y-27941639D01*
X123763540Y-28039281D01*
X123795869Y-28102730D01*
X123796006Y-28102997D01*
X123891361Y-28234244D01*
X123891365Y-28234248D01*
X123902447Y-28249501D01*
X124030499Y-28377553D01*
X124045751Y-28388634D01*
X124045755Y-28388638D01*
X124160612Y-28472085D01*
X124177006Y-28483996D01*
X124252523Y-28522474D01*
X124338360Y-28566211D01*
X124338363Y-28566212D01*
X124424476Y-28594191D01*
X124510591Y-28622171D01*
X124593429Y-28635291D01*
X124689449Y-28650500D01*
X124689454Y-28650500D01*
X124870551Y-28650500D01*
X124957259Y-28636765D01*
X125049409Y-28622171D01*
X125221639Y-28566211D01*
X125382994Y-28483996D01*
X125529501Y-28377553D01*
X125657553Y-28249501D01*
X125763996Y-28102994D01*
X125846211Y-27941639D01*
X125902171Y-27769409D01*
X125916422Y-27679425D01*
X125927527Y-27609321D01*
X125957456Y-27546186D01*
X126016768Y-27509255D01*
X126086630Y-27510253D01*
X126144863Y-27548863D01*
X126172473Y-27609321D01*
X126197829Y-27769410D01*
X126253787Y-27941636D01*
X126253788Y-27941639D01*
X126303540Y-28039281D01*
X126335869Y-28102730D01*
X126336006Y-28102997D01*
X126442441Y-28249494D01*
X126442445Y-28249499D01*
X126570500Y-28377554D01*
X126570505Y-28377558D01*
X126628753Y-28419877D01*
X126717006Y-28483996D01*
X126792523Y-28522474D01*
X126878360Y-28566211D01*
X126878363Y-28566212D01*
X126964476Y-28594191D01*
X127050591Y-28622171D01*
X127133429Y-28635291D01*
X127229449Y-28650500D01*
X127229454Y-28650500D01*
X127410551Y-28650500D01*
X127497259Y-28636765D01*
X127589409Y-28622171D01*
X127761639Y-28566211D01*
X127922994Y-28483996D01*
X128069501Y-28377553D01*
X128197553Y-28249501D01*
X128303996Y-28102994D01*
X128386211Y-27941639D01*
X128442171Y-27769409D01*
X128456422Y-27679425D01*
X128467527Y-27609321D01*
X128497456Y-27546186D01*
X128556768Y-27509255D01*
X128626630Y-27510253D01*
X128684863Y-27548863D01*
X128712473Y-27609321D01*
X128737829Y-27769410D01*
X128793787Y-27941636D01*
X128793788Y-27941639D01*
X128843540Y-28039281D01*
X128875869Y-28102730D01*
X128876006Y-28102997D01*
X128982441Y-28249494D01*
X128982445Y-28249499D01*
X129110500Y-28377554D01*
X129110505Y-28377558D01*
X129168753Y-28419877D01*
X129257006Y-28483996D01*
X129332523Y-28522474D01*
X129418360Y-28566211D01*
X129418363Y-28566212D01*
X129504476Y-28594191D01*
X129590591Y-28622171D01*
X129673429Y-28635291D01*
X129769449Y-28650500D01*
X129769454Y-28650500D01*
X129950551Y-28650500D01*
X130037259Y-28636765D01*
X130129409Y-28622171D01*
X130301639Y-28566211D01*
X130462994Y-28483996D01*
X130609501Y-28377553D01*
X130737553Y-28249501D01*
X130843996Y-28102994D01*
X130926211Y-27941639D01*
X130982171Y-27769409D01*
X130996422Y-27679425D01*
X131007527Y-27609321D01*
X131037456Y-27546186D01*
X131096768Y-27509255D01*
X131166630Y-27510253D01*
X131224863Y-27548863D01*
X131252473Y-27609321D01*
X131277829Y-27769410D01*
X131333787Y-27941636D01*
X131333788Y-27941639D01*
X131383540Y-28039281D01*
X131415869Y-28102730D01*
X131416006Y-28102997D01*
X131522441Y-28249494D01*
X131522445Y-28249499D01*
X131650500Y-28377554D01*
X131650505Y-28377558D01*
X131708753Y-28419877D01*
X131797006Y-28483996D01*
X131872523Y-28522474D01*
X131958360Y-28566211D01*
X131958363Y-28566212D01*
X132044476Y-28594191D01*
X132130591Y-28622171D01*
X132213429Y-28635291D01*
X132309449Y-28650500D01*
X132309454Y-28650500D01*
X132490551Y-28650500D01*
X132577259Y-28636765D01*
X132669409Y-28622171D01*
X132841639Y-28566211D01*
X133002994Y-28483996D01*
X133149501Y-28377553D01*
X133277553Y-28249501D01*
X133383996Y-28102994D01*
X133466211Y-27941639D01*
X133522171Y-27769409D01*
X133536422Y-27679425D01*
X133547527Y-27609321D01*
X133577456Y-27546186D01*
X133636768Y-27509255D01*
X133706630Y-27510253D01*
X133764863Y-27548863D01*
X133792473Y-27609321D01*
X133817829Y-27769410D01*
X133873787Y-27941636D01*
X133873788Y-27941639D01*
X133923540Y-28039281D01*
X133955869Y-28102730D01*
X133956006Y-28102997D01*
X134062441Y-28249494D01*
X134062445Y-28249499D01*
X134190500Y-28377554D01*
X134190505Y-28377558D01*
X134248753Y-28419877D01*
X134337006Y-28483996D01*
X134412523Y-28522474D01*
X134498360Y-28566211D01*
X134498363Y-28566212D01*
X134584476Y-28594191D01*
X134670591Y-28622171D01*
X134753429Y-28635291D01*
X134849449Y-28650500D01*
X134849454Y-28650500D01*
X135030551Y-28650500D01*
X135117259Y-28636765D01*
X135209409Y-28622171D01*
X135381639Y-28566211D01*
X135542994Y-28483996D01*
X135689501Y-28377553D01*
X135817553Y-28249501D01*
X135923996Y-28102994D01*
X136006211Y-27941639D01*
X136062171Y-27769409D01*
X136076422Y-27679425D01*
X136087527Y-27609321D01*
X136117456Y-27546186D01*
X136176768Y-27509255D01*
X136246630Y-27510253D01*
X136304863Y-27548863D01*
X136332473Y-27609321D01*
X136357829Y-27769410D01*
X136413787Y-27941636D01*
X136413788Y-27941639D01*
X136463540Y-28039281D01*
X136495869Y-28102730D01*
X136496006Y-28102997D01*
X136602441Y-28249494D01*
X136602445Y-28249499D01*
X136730500Y-28377554D01*
X136730505Y-28377558D01*
X136788753Y-28419877D01*
X136877006Y-28483996D01*
X136952523Y-28522474D01*
X137038360Y-28566211D01*
X137038363Y-28566212D01*
X137124476Y-28594191D01*
X137210591Y-28622171D01*
X137293429Y-28635291D01*
X137389449Y-28650500D01*
X137389454Y-28650500D01*
X137570551Y-28650500D01*
X137657259Y-28636765D01*
X137749409Y-28622171D01*
X137921639Y-28566211D01*
X138082994Y-28483996D01*
X138229501Y-28377553D01*
X138357553Y-28249501D01*
X138463996Y-28102994D01*
X138546211Y-27941639D01*
X138602171Y-27769409D01*
X138616422Y-27679425D01*
X138627527Y-27609321D01*
X138657456Y-27546186D01*
X138716768Y-27509255D01*
X138786630Y-27510253D01*
X138844863Y-27548863D01*
X138872473Y-27609321D01*
X138897829Y-27769410D01*
X138953787Y-27941636D01*
X138953788Y-27941639D01*
X139003540Y-28039281D01*
X139035869Y-28102730D01*
X139036006Y-28102997D01*
X139142441Y-28249494D01*
X139142445Y-28249499D01*
X139270500Y-28377554D01*
X139270505Y-28377558D01*
X139328753Y-28419877D01*
X139417006Y-28483996D01*
X139492523Y-28522474D01*
X139578360Y-28566211D01*
X139578363Y-28566212D01*
X139664476Y-28594191D01*
X139750591Y-28622171D01*
X139833429Y-28635291D01*
X139929449Y-28650500D01*
X139929454Y-28650500D01*
X140110551Y-28650500D01*
X140197259Y-28636765D01*
X140289409Y-28622171D01*
X140461639Y-28566211D01*
X140622994Y-28483996D01*
X140769501Y-28377553D01*
X140897553Y-28249501D01*
X141003996Y-28102994D01*
X141086211Y-27941639D01*
X141142171Y-27769409D01*
X141156422Y-27679425D01*
X141167527Y-27609321D01*
X141197456Y-27546186D01*
X141256768Y-27509255D01*
X141326630Y-27510253D01*
X141384863Y-27548863D01*
X141412473Y-27609321D01*
X141437829Y-27769410D01*
X141493787Y-27941636D01*
X141493788Y-27941639D01*
X141543540Y-28039281D01*
X141575869Y-28102730D01*
X141576006Y-28102997D01*
X141682441Y-28249494D01*
X141682445Y-28249499D01*
X141810500Y-28377554D01*
X141810505Y-28377558D01*
X141868753Y-28419877D01*
X141957006Y-28483996D01*
X142032523Y-28522474D01*
X142118360Y-28566211D01*
X142118363Y-28566212D01*
X142204476Y-28594191D01*
X142290591Y-28622171D01*
X142373429Y-28635291D01*
X142469449Y-28650500D01*
X142469454Y-28650500D01*
X142650551Y-28650500D01*
X142737259Y-28636765D01*
X142829409Y-28622171D01*
X143001639Y-28566211D01*
X143162994Y-28483996D01*
X143309501Y-28377553D01*
X143437553Y-28249501D01*
X143543996Y-28102994D01*
X143626211Y-27941639D01*
X143682171Y-27769409D01*
X143696422Y-27679425D01*
X143707527Y-27609321D01*
X143737456Y-27546186D01*
X143796768Y-27509255D01*
X143866630Y-27510253D01*
X143924863Y-27548863D01*
X143952473Y-27609321D01*
X143977829Y-27769410D01*
X144033787Y-27941636D01*
X144033788Y-27941639D01*
X144083540Y-28039281D01*
X144115869Y-28102730D01*
X144116006Y-28102997D01*
X144222441Y-28249494D01*
X144222445Y-28249499D01*
X144350500Y-28377554D01*
X144350505Y-28377558D01*
X144408753Y-28419877D01*
X144497006Y-28483996D01*
X144572523Y-28522474D01*
X144658360Y-28566211D01*
X144658363Y-28566212D01*
X144744476Y-28594191D01*
X144830591Y-28622171D01*
X144913429Y-28635291D01*
X145009449Y-28650500D01*
X145009454Y-28650500D01*
X145190551Y-28650500D01*
X145277259Y-28636765D01*
X145369409Y-28622171D01*
X145541639Y-28566211D01*
X145702994Y-28483996D01*
X145849501Y-28377553D01*
X145977553Y-28249501D01*
X146083996Y-28102994D01*
X146166211Y-27941639D01*
X146222171Y-27769409D01*
X146236765Y-27677259D01*
X146250500Y-27590551D01*
X146250500Y-27409448D01*
X146222189Y-27230706D01*
X146222171Y-27230591D01*
X146166273Y-27058552D01*
X146166212Y-27058363D01*
X146166211Y-27058360D01*
X146136474Y-27000000D01*
X146083996Y-26897006D01*
X146070396Y-26878287D01*
X145977558Y-26750505D01*
X145977554Y-26750500D01*
X145849499Y-26622445D01*
X145849494Y-26622441D01*
X145702997Y-26516006D01*
X145702996Y-26516005D01*
X145702994Y-26516004D01*
X145651300Y-26489664D01*
X145541639Y-26433788D01*
X145541636Y-26433787D01*
X145369410Y-26377829D01*
X145190551Y-26349500D01*
X145190546Y-26349500D01*
X145009454Y-26349500D01*
X145009449Y-26349500D01*
X144830589Y-26377829D01*
X144658363Y-26433787D01*
X144658360Y-26433788D01*
X144497002Y-26516006D01*
X144350505Y-26622441D01*
X144350500Y-26622445D01*
X144222445Y-26750500D01*
X144222441Y-26750505D01*
X144116006Y-26897002D01*
X144033788Y-27058360D01*
X144033787Y-27058363D01*
X143977829Y-27230589D01*
X143952473Y-27390678D01*
X143922544Y-27453813D01*
X143863232Y-27490744D01*
X143793369Y-27489746D01*
X143735137Y-27451136D01*
X143707527Y-27390678D01*
X143682189Y-27230706D01*
X143682171Y-27230591D01*
X143626273Y-27058552D01*
X143626212Y-27058363D01*
X143626211Y-27058360D01*
X143596474Y-27000000D01*
X143543996Y-26897006D01*
X143530396Y-26878287D01*
X143437558Y-26750505D01*
X143437554Y-26750500D01*
X143309499Y-26622445D01*
X143309494Y-26622441D01*
X143162997Y-26516006D01*
X143162996Y-26516005D01*
X143162994Y-26516004D01*
X143111300Y-26489664D01*
X143001639Y-26433788D01*
X143001636Y-26433787D01*
X142829410Y-26377829D01*
X142650551Y-26349500D01*
X142650546Y-26349500D01*
X142469454Y-26349500D01*
X142469449Y-26349500D01*
X142290589Y-26377829D01*
X142118363Y-26433787D01*
X142118360Y-26433788D01*
X141957002Y-26516006D01*
X141810505Y-26622441D01*
X141810500Y-26622445D01*
X141682445Y-26750500D01*
X141682441Y-26750505D01*
X141576006Y-26897002D01*
X141493788Y-27058360D01*
X141493787Y-27058363D01*
X141437829Y-27230589D01*
X141412473Y-27390678D01*
X141382544Y-27453813D01*
X141323232Y-27490744D01*
X141253369Y-27489746D01*
X141195137Y-27451136D01*
X141167527Y-27390678D01*
X141142189Y-27230706D01*
X141142171Y-27230591D01*
X141086273Y-27058552D01*
X141086212Y-27058363D01*
X141086211Y-27058360D01*
X141056474Y-27000000D01*
X141003996Y-26897006D01*
X140990396Y-26878287D01*
X140897558Y-26750505D01*
X140897554Y-26750500D01*
X140769499Y-26622445D01*
X140769494Y-26622441D01*
X140622997Y-26516006D01*
X140622996Y-26516005D01*
X140622994Y-26516004D01*
X140571300Y-26489664D01*
X140461639Y-26433788D01*
X140461636Y-26433787D01*
X140289410Y-26377829D01*
X140110551Y-26349500D01*
X140110546Y-26349500D01*
X139929454Y-26349500D01*
X139929449Y-26349500D01*
X139750589Y-26377829D01*
X139578363Y-26433787D01*
X139578360Y-26433788D01*
X139417002Y-26516006D01*
X139270505Y-26622441D01*
X139270500Y-26622445D01*
X139142445Y-26750500D01*
X139142441Y-26750505D01*
X139036006Y-26897002D01*
X138953788Y-27058360D01*
X138953787Y-27058363D01*
X138897829Y-27230589D01*
X138872473Y-27390678D01*
X138842544Y-27453813D01*
X138783232Y-27490744D01*
X138713369Y-27489746D01*
X138655137Y-27451136D01*
X138627527Y-27390678D01*
X138602189Y-27230706D01*
X138602171Y-27230591D01*
X138546273Y-27058552D01*
X138546212Y-27058363D01*
X138546211Y-27058360D01*
X138516474Y-27000000D01*
X138463996Y-26897006D01*
X138450396Y-26878287D01*
X138357558Y-26750505D01*
X138357554Y-26750500D01*
X138229499Y-26622445D01*
X138229494Y-26622441D01*
X138082997Y-26516006D01*
X138082996Y-26516005D01*
X138082994Y-26516004D01*
X138031300Y-26489664D01*
X137921639Y-26433788D01*
X137921636Y-26433787D01*
X137749410Y-26377829D01*
X137570551Y-26349500D01*
X137570546Y-26349500D01*
X137389454Y-26349500D01*
X137389449Y-26349500D01*
X137210589Y-26377829D01*
X137038363Y-26433787D01*
X137038360Y-26433788D01*
X136877002Y-26516006D01*
X136730505Y-26622441D01*
X136730500Y-26622445D01*
X136602445Y-26750500D01*
X136602441Y-26750505D01*
X136496006Y-26897002D01*
X136413788Y-27058360D01*
X136413787Y-27058363D01*
X136357829Y-27230589D01*
X136332473Y-27390678D01*
X136302544Y-27453813D01*
X136243232Y-27490744D01*
X136173369Y-27489746D01*
X136115137Y-27451136D01*
X136087527Y-27390678D01*
X136062189Y-27230706D01*
X136062171Y-27230591D01*
X136006273Y-27058552D01*
X136006212Y-27058363D01*
X136006211Y-27058360D01*
X135976474Y-27000000D01*
X135923996Y-26897006D01*
X135910396Y-26878287D01*
X135817558Y-26750505D01*
X135817554Y-26750500D01*
X135689499Y-26622445D01*
X135689494Y-26622441D01*
X135542997Y-26516006D01*
X135542996Y-26516005D01*
X135542994Y-26516004D01*
X135491300Y-26489664D01*
X135381639Y-26433788D01*
X135381636Y-26433787D01*
X135209410Y-26377829D01*
X135030551Y-26349500D01*
X135030546Y-26349500D01*
X134849454Y-26349500D01*
X134849449Y-26349500D01*
X134670589Y-26377829D01*
X134498363Y-26433787D01*
X134498360Y-26433788D01*
X134337002Y-26516006D01*
X134190505Y-26622441D01*
X134190500Y-26622445D01*
X134062445Y-26750500D01*
X134062441Y-26750505D01*
X133956006Y-26897002D01*
X133873788Y-27058360D01*
X133873787Y-27058363D01*
X133817829Y-27230589D01*
X133792473Y-27390678D01*
X133762544Y-27453813D01*
X133703232Y-27490744D01*
X133633369Y-27489746D01*
X133575137Y-27451136D01*
X133547527Y-27390678D01*
X133522189Y-27230706D01*
X133522171Y-27230591D01*
X133466273Y-27058552D01*
X133466212Y-27058363D01*
X133466211Y-27058360D01*
X133436474Y-27000000D01*
X133383996Y-26897006D01*
X133370396Y-26878287D01*
X133277558Y-26750505D01*
X133277554Y-26750500D01*
X133149499Y-26622445D01*
X133149494Y-26622441D01*
X133002997Y-26516006D01*
X133002996Y-26516005D01*
X133002994Y-26516004D01*
X132951300Y-26489664D01*
X132841639Y-26433788D01*
X132841636Y-26433787D01*
X132669410Y-26377829D01*
X132490551Y-26349500D01*
X132490546Y-26349500D01*
X132309454Y-26349500D01*
X132309449Y-26349500D01*
X132130589Y-26377829D01*
X131958363Y-26433787D01*
X131958360Y-26433788D01*
X131797002Y-26516006D01*
X131650505Y-26622441D01*
X131650500Y-26622445D01*
X131522445Y-26750500D01*
X131522441Y-26750505D01*
X131416006Y-26897002D01*
X131333788Y-27058360D01*
X131333787Y-27058363D01*
X131277829Y-27230589D01*
X131252473Y-27390678D01*
X131222544Y-27453813D01*
X131163232Y-27490744D01*
X131093369Y-27489746D01*
X131035137Y-27451136D01*
X131007527Y-27390678D01*
X130982189Y-27230706D01*
X130982171Y-27230591D01*
X130926273Y-27058552D01*
X130926212Y-27058363D01*
X130926211Y-27058360D01*
X130896474Y-27000000D01*
X130843996Y-26897006D01*
X130830396Y-26878287D01*
X130737558Y-26750505D01*
X130737554Y-26750500D01*
X130609499Y-26622445D01*
X130609494Y-26622441D01*
X130462997Y-26516006D01*
X130462996Y-26516005D01*
X130462994Y-26516004D01*
X130411300Y-26489664D01*
X130301639Y-26433788D01*
X130301636Y-26433787D01*
X130129410Y-26377829D01*
X129950551Y-26349500D01*
X129950546Y-26349500D01*
X129769454Y-26349500D01*
X129769449Y-26349500D01*
X129590589Y-26377829D01*
X129418363Y-26433787D01*
X129418360Y-26433788D01*
X129257002Y-26516006D01*
X129110505Y-26622441D01*
X129110500Y-26622445D01*
X128982445Y-26750500D01*
X128982441Y-26750505D01*
X128876006Y-26897002D01*
X128793788Y-27058360D01*
X128793787Y-27058363D01*
X128737829Y-27230589D01*
X128712473Y-27390678D01*
X128682544Y-27453813D01*
X128623232Y-27490744D01*
X128553369Y-27489746D01*
X128495137Y-27451136D01*
X128467527Y-27390678D01*
X128442189Y-27230706D01*
X128442171Y-27230591D01*
X128386273Y-27058552D01*
X128386212Y-27058363D01*
X128386211Y-27058360D01*
X128356474Y-27000000D01*
X128303996Y-26897006D01*
X128290396Y-26878287D01*
X128197558Y-26750505D01*
X128197554Y-26750500D01*
X128069499Y-26622445D01*
X128069494Y-26622441D01*
X127922997Y-26516006D01*
X127922996Y-26516005D01*
X127922994Y-26516004D01*
X127871300Y-26489664D01*
X127761639Y-26433788D01*
X127761636Y-26433787D01*
X127589410Y-26377829D01*
X127410551Y-26349500D01*
X127410546Y-26349500D01*
X127229454Y-26349500D01*
X127229449Y-26349500D01*
X127050589Y-26377829D01*
X126878363Y-26433787D01*
X126878360Y-26433788D01*
X126717002Y-26516006D01*
X126570505Y-26622441D01*
X126570500Y-26622445D01*
X126442445Y-26750500D01*
X126442441Y-26750505D01*
X126336006Y-26897002D01*
X126253788Y-27058360D01*
X126253787Y-27058363D01*
X126197829Y-27230589D01*
X126172473Y-27390678D01*
X126142544Y-27453813D01*
X126083232Y-27490744D01*
X126013369Y-27489746D01*
X125955137Y-27451136D01*
X125927527Y-27390678D01*
X125902189Y-27230706D01*
X125902171Y-27230591D01*
X125846273Y-27058552D01*
X125846212Y-27058363D01*
X125846211Y-27058360D01*
X125816474Y-27000000D01*
X125763996Y-26897006D01*
X125750396Y-26878287D01*
X125657558Y-26750505D01*
X125657554Y-26750500D01*
X125529499Y-26622445D01*
X125529494Y-26622441D01*
X125382997Y-26516006D01*
X125382996Y-26516005D01*
X125382994Y-26516004D01*
X125331300Y-26489664D01*
X125221639Y-26433788D01*
X125221636Y-26433787D01*
X125049410Y-26377829D01*
X124870551Y-26349500D01*
X124870546Y-26349500D01*
X124689454Y-26349500D01*
X124689449Y-26349500D01*
X124510589Y-26377829D01*
X124338363Y-26433787D01*
X124338360Y-26433788D01*
X124177002Y-26516006D01*
X124030505Y-26622441D01*
X124030500Y-26622445D01*
X123902445Y-26750500D01*
X123902441Y-26750505D01*
X123796006Y-26897002D01*
X123713788Y-27058360D01*
X123713787Y-27058363D01*
X123657829Y-27230589D01*
X123632473Y-27390678D01*
X123602544Y-27453813D01*
X123543232Y-27490744D01*
X123473369Y-27489746D01*
X123415137Y-27451136D01*
X123387527Y-27390678D01*
X123362189Y-27230706D01*
X123362171Y-27230591D01*
X123306273Y-27058552D01*
X123306212Y-27058363D01*
X123306211Y-27058360D01*
X123276474Y-27000000D01*
X123223996Y-26897006D01*
X123210396Y-26878287D01*
X123117558Y-26750505D01*
X123117554Y-26750500D01*
X122989499Y-26622445D01*
X122989494Y-26622441D01*
X122842997Y-26516006D01*
X122842996Y-26516005D01*
X122842994Y-26516004D01*
X122791300Y-26489664D01*
X122681639Y-26433788D01*
X122681636Y-26433787D01*
X122509410Y-26377829D01*
X122330551Y-26349500D01*
X122330546Y-26349500D01*
X122149454Y-26349500D01*
X122149449Y-26349500D01*
X121970589Y-26377829D01*
X121798363Y-26433787D01*
X121798360Y-26433788D01*
X121637002Y-26516006D01*
X121490505Y-26622441D01*
X121490500Y-26622445D01*
X121362445Y-26750500D01*
X121362441Y-26750505D01*
X121256006Y-26897002D01*
X121173788Y-27058360D01*
X121173787Y-27058363D01*
X121117829Y-27230589D01*
X121092473Y-27390678D01*
X121062544Y-27453813D01*
X121003232Y-27490744D01*
X120933369Y-27489746D01*
X120875137Y-27451136D01*
X120847527Y-27390678D01*
X120822189Y-27230706D01*
X120822171Y-27230591D01*
X120766273Y-27058552D01*
X120766212Y-27058363D01*
X120766211Y-27058360D01*
X120736474Y-27000000D01*
X120683996Y-26897006D01*
X120670396Y-26878287D01*
X120577558Y-26750505D01*
X120577554Y-26750500D01*
X120449499Y-26622445D01*
X120449494Y-26622441D01*
X120302997Y-26516006D01*
X120302996Y-26516005D01*
X120302994Y-26516004D01*
X120251300Y-26489664D01*
X120141639Y-26433788D01*
X120141636Y-26433787D01*
X119969410Y-26377829D01*
X119790551Y-26349500D01*
X119790546Y-26349500D01*
X119609454Y-26349500D01*
X119609449Y-26349500D01*
X119430589Y-26377829D01*
X119258363Y-26433787D01*
X119258360Y-26433788D01*
X119097002Y-26516006D01*
X118950505Y-26622441D01*
X118950500Y-26622445D01*
X118822445Y-26750500D01*
X118822441Y-26750505D01*
X118716006Y-26897002D01*
X118633788Y-27058360D01*
X118633787Y-27058363D01*
X118577829Y-27230589D01*
X118552473Y-27390678D01*
X118522544Y-27453813D01*
X118463232Y-27490744D01*
X118393369Y-27489746D01*
X118335137Y-27451136D01*
X118307527Y-27390678D01*
X118282189Y-27230706D01*
X118282171Y-27230591D01*
X118226273Y-27058552D01*
X118226212Y-27058363D01*
X118226211Y-27058360D01*
X118196474Y-27000000D01*
X118143996Y-26897006D01*
X118130396Y-26878287D01*
X118037558Y-26750505D01*
X118037554Y-26750500D01*
X117909499Y-26622445D01*
X117909494Y-26622441D01*
X117762997Y-26516006D01*
X117762996Y-26516005D01*
X117762994Y-26516004D01*
X117711300Y-26489664D01*
X117601639Y-26433788D01*
X117601636Y-26433787D01*
X117429410Y-26377829D01*
X117250551Y-26349500D01*
X117250546Y-26349500D01*
X117069454Y-26349500D01*
X117069449Y-26349500D01*
X116890589Y-26377829D01*
X116718363Y-26433787D01*
X116718360Y-26433788D01*
X116557002Y-26516006D01*
X116410505Y-26622441D01*
X116410500Y-26622445D01*
X116282445Y-26750500D01*
X116282441Y-26750505D01*
X116176006Y-26897002D01*
X116093788Y-27058360D01*
X116093787Y-27058363D01*
X116037829Y-27230589D01*
X116012473Y-27390678D01*
X115982544Y-27453813D01*
X115923232Y-27490744D01*
X115853369Y-27489746D01*
X115795137Y-27451136D01*
X115767527Y-27390678D01*
X115742189Y-27230706D01*
X115742171Y-27230591D01*
X115686273Y-27058552D01*
X115686212Y-27058363D01*
X115686211Y-27058360D01*
X115656474Y-27000000D01*
X115603996Y-26897006D01*
X115590396Y-26878287D01*
X115497558Y-26750505D01*
X115497554Y-26750500D01*
X115369499Y-26622445D01*
X115369494Y-26622441D01*
X115222997Y-26516006D01*
X115222996Y-26516005D01*
X115222994Y-26516004D01*
X115171300Y-26489664D01*
X115061639Y-26433788D01*
X115061636Y-26433787D01*
X114889410Y-26377829D01*
X114710551Y-26349500D01*
X114710546Y-26349500D01*
X114529454Y-26349500D01*
X114529449Y-26349500D01*
X114350589Y-26377829D01*
X114178363Y-26433787D01*
X114178360Y-26433788D01*
X114017002Y-26516006D01*
X113870505Y-26622441D01*
X113870500Y-26622445D01*
X113742445Y-26750500D01*
X113742441Y-26750505D01*
X113636006Y-26897002D01*
X113553788Y-27058360D01*
X113553787Y-27058363D01*
X113497829Y-27230589D01*
X113472473Y-27390678D01*
X113442544Y-27453813D01*
X113383232Y-27490744D01*
X113313369Y-27489746D01*
X113255137Y-27451136D01*
X113227527Y-27390678D01*
X113202189Y-27230706D01*
X113202171Y-27230591D01*
X113146273Y-27058552D01*
X113146212Y-27058363D01*
X113146211Y-27058360D01*
X113116474Y-27000000D01*
X113063996Y-26897006D01*
X113050396Y-26878287D01*
X112957558Y-26750505D01*
X112957554Y-26750500D01*
X112829499Y-26622445D01*
X112829494Y-26622441D01*
X112682997Y-26516006D01*
X112682996Y-26516005D01*
X112682994Y-26516004D01*
X112631300Y-26489664D01*
X112521639Y-26433788D01*
X112521636Y-26433787D01*
X112349410Y-26377829D01*
X112170551Y-26349500D01*
X112170546Y-26349500D01*
X111989454Y-26349500D01*
X111989449Y-26349500D01*
X111810589Y-26377829D01*
X111638363Y-26433787D01*
X111638360Y-26433788D01*
X111477002Y-26516006D01*
X111330505Y-26622441D01*
X111330500Y-26622445D01*
X111202445Y-26750500D01*
X111202441Y-26750505D01*
X111096006Y-26897002D01*
X111013788Y-27058360D01*
X111013787Y-27058363D01*
X110957829Y-27230589D01*
X110932473Y-27390678D01*
X110902544Y-27453813D01*
X110843232Y-27490744D01*
X110773369Y-27489746D01*
X110715137Y-27451136D01*
X110687527Y-27390678D01*
X110662189Y-27230706D01*
X110662171Y-27230591D01*
X110606273Y-27058552D01*
X110606212Y-27058363D01*
X110606211Y-27058360D01*
X110576474Y-27000000D01*
X110523996Y-26897006D01*
X110510396Y-26878287D01*
X110417558Y-26750505D01*
X110417554Y-26750500D01*
X110289499Y-26622445D01*
X110289494Y-26622441D01*
X110142997Y-26516006D01*
X110142996Y-26516005D01*
X110142994Y-26516004D01*
X110091300Y-26489664D01*
X109981639Y-26433788D01*
X109981636Y-26433787D01*
X109809410Y-26377829D01*
X109630551Y-26349500D01*
X109630546Y-26349500D01*
X109449454Y-26349500D01*
X109449449Y-26349500D01*
X109270589Y-26377829D01*
X109098363Y-26433787D01*
X109098360Y-26433788D01*
X108937002Y-26516006D01*
X108790505Y-26622441D01*
X108790500Y-26622445D01*
X108662445Y-26750500D01*
X108662441Y-26750505D01*
X108556006Y-26897002D01*
X108473788Y-27058360D01*
X108473787Y-27058363D01*
X108417829Y-27230589D01*
X108392473Y-27390678D01*
X108362544Y-27453813D01*
X108303232Y-27490744D01*
X108233369Y-27489746D01*
X108175137Y-27451136D01*
X108147527Y-27390678D01*
X108122189Y-27230706D01*
X108122171Y-27230591D01*
X108066273Y-27058552D01*
X108066212Y-27058363D01*
X108066211Y-27058360D01*
X108036474Y-27000000D01*
X107983996Y-26897006D01*
X107970396Y-26878287D01*
X107877558Y-26750505D01*
X107877554Y-26750500D01*
X107749499Y-26622445D01*
X107749494Y-26622441D01*
X107602997Y-26516006D01*
X107602996Y-26516005D01*
X107602994Y-26516004D01*
X107551300Y-26489664D01*
X107441639Y-26433788D01*
X107441636Y-26433787D01*
X107269410Y-26377829D01*
X107090551Y-26349500D01*
X107090546Y-26349500D01*
X106909454Y-26349500D01*
X106909449Y-26349500D01*
X106730589Y-26377829D01*
X106558363Y-26433787D01*
X106558360Y-26433788D01*
X106397002Y-26516006D01*
X106250505Y-26622441D01*
X106250500Y-26622445D01*
X106122445Y-26750500D01*
X106122441Y-26750505D01*
X106016006Y-26897002D01*
X105933788Y-27058360D01*
X105933787Y-27058363D01*
X105877829Y-27230589D01*
X105852473Y-27390678D01*
X105822544Y-27453813D01*
X105763232Y-27490744D01*
X105693369Y-27489746D01*
X105635137Y-27451136D01*
X105607527Y-27390678D01*
X105582189Y-27230706D01*
X105582171Y-27230591D01*
X105526273Y-27058552D01*
X105526212Y-27058363D01*
X105526211Y-27058360D01*
X105496474Y-27000000D01*
X105443996Y-26897006D01*
X105430396Y-26878287D01*
X105337558Y-26750505D01*
X105337554Y-26750500D01*
X105209499Y-26622445D01*
X105209494Y-26622441D01*
X105062997Y-26516006D01*
X105062996Y-26516005D01*
X105062994Y-26516004D01*
X105011300Y-26489664D01*
X104901639Y-26433788D01*
X104901636Y-26433787D01*
X104729410Y-26377829D01*
X104550551Y-26349500D01*
X104550546Y-26349500D01*
X104369454Y-26349500D01*
X104369449Y-26349500D01*
X104190589Y-26377829D01*
X104018363Y-26433787D01*
X104018360Y-26433788D01*
X103857002Y-26516006D01*
X103710505Y-26622441D01*
X103710500Y-26622445D01*
X103582445Y-26750500D01*
X103582441Y-26750505D01*
X103476006Y-26897002D01*
X103393788Y-27058360D01*
X103393787Y-27058363D01*
X103337829Y-27230589D01*
X103312473Y-27390678D01*
X103282544Y-27453813D01*
X103223232Y-27490744D01*
X103153369Y-27489746D01*
X103095137Y-27451136D01*
X103067527Y-27390678D01*
X103042189Y-27230706D01*
X103042171Y-27230591D01*
X102986273Y-27058552D01*
X102986212Y-27058363D01*
X102986211Y-27058360D01*
X102956474Y-27000000D01*
X102903996Y-26897006D01*
X102890396Y-26878287D01*
X102797558Y-26750505D01*
X102797554Y-26750500D01*
X102669499Y-26622445D01*
X102669494Y-26622441D01*
X102522997Y-26516006D01*
X102522996Y-26516005D01*
X102522994Y-26516004D01*
X102471300Y-26489664D01*
X102361639Y-26433788D01*
X102361636Y-26433787D01*
X102189410Y-26377829D01*
X102010551Y-26349500D01*
X102010546Y-26349500D01*
X101829454Y-26349500D01*
X101829449Y-26349500D01*
X101650589Y-26377829D01*
X101478363Y-26433787D01*
X101478360Y-26433788D01*
X101317002Y-26516006D01*
X101170505Y-26622441D01*
X101170500Y-26622445D01*
X101042445Y-26750500D01*
X101042441Y-26750505D01*
X100936006Y-26897002D01*
X100853788Y-27058360D01*
X100853787Y-27058363D01*
X100797829Y-27230589D01*
X100772219Y-27392280D01*
X100742289Y-27455414D01*
X100682978Y-27492345D01*
X100613115Y-27491347D01*
X100554883Y-27452737D01*
X100527273Y-27392279D01*
X100501682Y-27230706D01*
X100445748Y-27058555D01*
X100445747Y-27058552D01*
X100363571Y-26897275D01*
X100363566Y-26897267D01*
X100352085Y-26881466D01*
X99862962Y-27370589D01*
X99845925Y-27307007D01*
X99780099Y-27192993D01*
X99687007Y-27099901D01*
X99572993Y-27034075D01*
X99509409Y-27017037D01*
X99998533Y-26527913D01*
X99982730Y-26516431D01*
X99821447Y-26434252D01*
X99821444Y-26434251D01*
X99649293Y-26378317D01*
X99470506Y-26350000D01*
X99289494Y-26350000D01*
X99110706Y-26378317D01*
X98938555Y-26434251D01*
X98938547Y-26434254D01*
X98777269Y-26516432D01*
X98761466Y-26527912D01*
X98761466Y-26527913D01*
X99250591Y-27017037D01*
X99187007Y-27034075D01*
X99072993Y-27099901D01*
X98979901Y-27192993D01*
X98914075Y-27307007D01*
X98897037Y-27370590D01*
X98407912Y-26881466D01*
X98396432Y-26897269D01*
X98314254Y-27058547D01*
X98314251Y-27058555D01*
X98258317Y-27230706D01*
X98236472Y-27368628D01*
X98206543Y-27431763D01*
X98147231Y-27468694D01*
X98077368Y-27467696D01*
X98019136Y-27429086D01*
X97991022Y-27365122D01*
X97989999Y-27349230D01*
X97989999Y-26605214D01*
X97989998Y-26605206D01*
X97988172Y-26589456D01*
X97988172Y-26589453D01*
X97987091Y-26580130D01*
X97987090Y-26580126D01*
X97941788Y-26477525D01*
X97941785Y-26477520D01*
X97862479Y-26398214D01*
X97862474Y-26398211D01*
X97759876Y-26352910D01*
X97734794Y-26350000D01*
X97090000Y-26350000D01*
X97090000Y-27066988D01*
X97032993Y-27034075D01*
X96905826Y-27000000D01*
X96774174Y-27000000D01*
X96647007Y-27034075D01*
X96590000Y-27066988D01*
X96590000Y-26350000D01*
X95945214Y-26350000D01*
X95945191Y-26350002D01*
X95920130Y-26352908D01*
X95920126Y-26352909D01*
X95817525Y-26398211D01*
X95817520Y-26398214D01*
X95738214Y-26477520D01*
X95738211Y-26477525D01*
X95692910Y-26580122D01*
X95692910Y-26580124D01*
X95690000Y-26605205D01*
X95690000Y-27250000D01*
X96406988Y-27250000D01*
X96374075Y-27307007D01*
X96340000Y-27434174D01*
X96340000Y-27565826D01*
X96374075Y-27692993D01*
X96406988Y-27750000D01*
X95690001Y-27750000D01*
X95690001Y-28394785D01*
X95690002Y-28394808D01*
X95692908Y-28419869D01*
X95692909Y-28419873D01*
X95738211Y-28522474D01*
X95738214Y-28522479D01*
X95817520Y-28601785D01*
X95817525Y-28601788D01*
X95920123Y-28647089D01*
X95945206Y-28649999D01*
X96589999Y-28649999D01*
X96590000Y-28649998D01*
X96590000Y-27933012D01*
X96647007Y-27965925D01*
X96774174Y-28000000D01*
X96905826Y-28000000D01*
X97032993Y-27965925D01*
X97090000Y-27933012D01*
X97090000Y-28649999D01*
X97734786Y-28649999D01*
X97734808Y-28649997D01*
X97759869Y-28647091D01*
X97759873Y-28647090D01*
X97862474Y-28601788D01*
X97862479Y-28601785D01*
X97941785Y-28522479D01*
X97941788Y-28522474D01*
X97987089Y-28419877D01*
X97987091Y-28419869D01*
X97988175Y-28410532D01*
X97989999Y-28394802D01*
X97989999Y-27650770D01*
X98009683Y-27583731D01*
X98062487Y-27537976D01*
X98131646Y-27528032D01*
X98195202Y-27557057D01*
X98232976Y-27615835D01*
X98236472Y-27631372D01*
X98258317Y-27769293D01*
X98314251Y-27941444D01*
X98314252Y-27941447D01*
X98396431Y-28102730D01*
X98407913Y-28118532D01*
X98407913Y-28118533D01*
X98897037Y-27629408D01*
X98914075Y-27692993D01*
X98979901Y-27807007D01*
X99072993Y-27900099D01*
X99187007Y-27965925D01*
X99250590Y-27982962D01*
X98761466Y-28472085D01*
X98761466Y-28472086D01*
X98777267Y-28483566D01*
X98777275Y-28483571D01*
X98938552Y-28565747D01*
X98938555Y-28565748D01*
X99110706Y-28621682D01*
X99289494Y-28650000D01*
X99470506Y-28650000D01*
X99649293Y-28621682D01*
X99821444Y-28565748D01*
X99821452Y-28565745D01*
X99982730Y-28483568D01*
X99998532Y-28472085D01*
X99998533Y-28472085D01*
X99509410Y-27982962D01*
X99572993Y-27965925D01*
X99687007Y-27900099D01*
X99780099Y-27807007D01*
X99845925Y-27692993D01*
X99862962Y-27629410D01*
X100352085Y-28118533D01*
X100352085Y-28118532D01*
X100363568Y-28102730D01*
X100445745Y-27941452D01*
X100445748Y-27941444D01*
X100501683Y-27769292D01*
X100527273Y-27607721D01*
X100557202Y-27544586D01*
X100616513Y-27507654D01*
X100686376Y-27508652D01*
X100744609Y-27547261D01*
X100772219Y-27607720D01*
X100797828Y-27769410D01*
X100853787Y-27941636D01*
X100853788Y-27941639D01*
X100903540Y-28039281D01*
X100935869Y-28102730D01*
X100936006Y-28102997D01*
X101042441Y-28249494D01*
X101042445Y-28249499D01*
X101170500Y-28377554D01*
X101170505Y-28377558D01*
X101228753Y-28419877D01*
X101317006Y-28483996D01*
X101392523Y-28522474D01*
X101478360Y-28566211D01*
X101478363Y-28566212D01*
X101564476Y-28594191D01*
X101650591Y-28622171D01*
X101733429Y-28635291D01*
X101829449Y-28650500D01*
X101829454Y-28650500D01*
X102010551Y-28650500D01*
X102097259Y-28636765D01*
X102189409Y-28622171D01*
X102361639Y-28566211D01*
X102522994Y-28483996D01*
X102669501Y-28377553D01*
X102797553Y-28249501D01*
X102903996Y-28102994D01*
X102986211Y-27941639D01*
X103042171Y-27769409D01*
X103056422Y-27679425D01*
X103067527Y-27609321D01*
X103097456Y-27546186D01*
X103156768Y-27509255D01*
X103226630Y-27510253D01*
X103284863Y-27548863D01*
X103312473Y-27609321D01*
X103337829Y-27769410D01*
X103393787Y-27941636D01*
X103393788Y-27941639D01*
X103443540Y-28039281D01*
X103475869Y-28102730D01*
X103476006Y-28102997D01*
X103582441Y-28249494D01*
X103582445Y-28249499D01*
X103710500Y-28377554D01*
X103710505Y-28377558D01*
X103768753Y-28419877D01*
X103857006Y-28483996D01*
X103932523Y-28522474D01*
X104018360Y-28566211D01*
X104018363Y-28566212D01*
X104104476Y-28594191D01*
X104190591Y-28622171D01*
X104273429Y-28635291D01*
X104369449Y-28650500D01*
X104369454Y-28650500D01*
X104550551Y-28650500D01*
X104637259Y-28636765D01*
X104729409Y-28622171D01*
X104901639Y-28566211D01*
X105062994Y-28483996D01*
X105209501Y-28377553D01*
X105337553Y-28249501D01*
X105443996Y-28102994D01*
X105526211Y-27941639D01*
X105582171Y-27769409D01*
X105596422Y-27679425D01*
X105607527Y-27609321D01*
X105637456Y-27546186D01*
X105696768Y-27509255D01*
X105766630Y-27510253D01*
X105824863Y-27548863D01*
X105852473Y-27609321D01*
X105877829Y-27769410D01*
X105933787Y-27941636D01*
X105933788Y-27941639D01*
X105983540Y-28039281D01*
X106015869Y-28102730D01*
X106016006Y-28102997D01*
X106122441Y-28249494D01*
X106122445Y-28249499D01*
X106250500Y-28377554D01*
X106250505Y-28377558D01*
X106308753Y-28419877D01*
X106397006Y-28483996D01*
X106472523Y-28522474D01*
X106558360Y-28566211D01*
X106558363Y-28566212D01*
X106644476Y-28594191D01*
X106730591Y-28622171D01*
X106813429Y-28635291D01*
X106909449Y-28650500D01*
X106909454Y-28650500D01*
X107090551Y-28650500D01*
X107177259Y-28636765D01*
X107269409Y-28622171D01*
X107441639Y-28566211D01*
X107602994Y-28483996D01*
X107749501Y-28377553D01*
X107877553Y-28249501D01*
X107983996Y-28102994D01*
X108066211Y-27941639D01*
X108122171Y-27769409D01*
X108136422Y-27679425D01*
X108147527Y-27609321D01*
X108177456Y-27546186D01*
X108236768Y-27509255D01*
X108306630Y-27510253D01*
X108364863Y-27548863D01*
X108392473Y-27609321D01*
X108417829Y-27769410D01*
X108473787Y-27941636D01*
X108473788Y-27941639D01*
X108523540Y-28039281D01*
X108555869Y-28102730D01*
X108556006Y-28102997D01*
X108662441Y-28249494D01*
X108662445Y-28249499D01*
X108790500Y-28377554D01*
X108790505Y-28377558D01*
X108848753Y-28419877D01*
X108937006Y-28483996D01*
X109012523Y-28522474D01*
X109098360Y-28566211D01*
X109098363Y-28566212D01*
X109184476Y-28594191D01*
X109270591Y-28622171D01*
X109353429Y-28635291D01*
X109449449Y-28650500D01*
X109449454Y-28650500D01*
X109630551Y-28650500D01*
X109717259Y-28636765D01*
X109809409Y-28622171D01*
X109981639Y-28566211D01*
X110142994Y-28483996D01*
X110289501Y-28377553D01*
X110417553Y-28249501D01*
X110523996Y-28102994D01*
X110606211Y-27941639D01*
X110662171Y-27769409D01*
X110676422Y-27679425D01*
X110687527Y-27609321D01*
X110717456Y-27546186D01*
X110776768Y-27509255D01*
X110846630Y-27510253D01*
X110904863Y-27548863D01*
X110932473Y-27609321D01*
X110957829Y-27769410D01*
X111013787Y-27941636D01*
X111013788Y-27941639D01*
X111063540Y-28039281D01*
X111095869Y-28102730D01*
X111096006Y-28102997D01*
X111202441Y-28249494D01*
X111202445Y-28249499D01*
X111330500Y-28377554D01*
X111330505Y-28377558D01*
X111388753Y-28419877D01*
X111477006Y-28483996D01*
X111552523Y-28522474D01*
X111638360Y-28566211D01*
X111638363Y-28566212D01*
X111724476Y-28594191D01*
X111810591Y-28622171D01*
X111893429Y-28635291D01*
X111989449Y-28650500D01*
X111989454Y-28650500D01*
X112170551Y-28650500D01*
X112257259Y-28636765D01*
X112349409Y-28622171D01*
X112521639Y-28566211D01*
X112682994Y-28483996D01*
X112829501Y-28377553D01*
X112957553Y-28249501D01*
X113063996Y-28102994D01*
X113146211Y-27941639D01*
X113202171Y-27769409D01*
X113216422Y-27679425D01*
X113227527Y-27609321D01*
X113257456Y-27546186D01*
X113316768Y-27509255D01*
X113386630Y-27510253D01*
X113444863Y-27548863D01*
X113472473Y-27609321D01*
X113497829Y-27769410D01*
X113553787Y-27941636D01*
X113553788Y-27941639D01*
X113603540Y-28039281D01*
X113635869Y-28102730D01*
X113636006Y-28102997D01*
X113742441Y-28249494D01*
X113742445Y-28249499D01*
X113870500Y-28377554D01*
X113870505Y-28377558D01*
X113928753Y-28419877D01*
X114017006Y-28483996D01*
X114092523Y-28522474D01*
X114178360Y-28566211D01*
X114178363Y-28566212D01*
X114264476Y-28594191D01*
X114350591Y-28622171D01*
X114433429Y-28635291D01*
X114529449Y-28650500D01*
X114529454Y-28650500D01*
X114710551Y-28650500D01*
X114797259Y-28636765D01*
X114889409Y-28622171D01*
X115061639Y-28566211D01*
X115222994Y-28483996D01*
X115369501Y-28377553D01*
X115497553Y-28249501D01*
X115603996Y-28102994D01*
X115686211Y-27941639D01*
X115742171Y-27769409D01*
X115756422Y-27679425D01*
X115767527Y-27609321D01*
X115797456Y-27546186D01*
X115856768Y-27509255D01*
X115926630Y-27510253D01*
X115984863Y-27548863D01*
X116012473Y-27609321D01*
X116037829Y-27769410D01*
X116093787Y-27941636D01*
X116093788Y-27941639D01*
X116143540Y-28039281D01*
X116175869Y-28102730D01*
X116176006Y-28102997D01*
X116282441Y-28249494D01*
X116282445Y-28249499D01*
X116410500Y-28377554D01*
X116410505Y-28377558D01*
X116468753Y-28419877D01*
X116557006Y-28483996D01*
X116632523Y-28522474D01*
X116718360Y-28566211D01*
X116718363Y-28566212D01*
X116804476Y-28594191D01*
X116890591Y-28622171D01*
X116973429Y-28635291D01*
X117069449Y-28650500D01*
X117069454Y-28650500D01*
X117250551Y-28650500D01*
X117337259Y-28636765D01*
X117429409Y-28622171D01*
X117601639Y-28566211D01*
X117762994Y-28483996D01*
X117909501Y-28377553D01*
X118037553Y-28249501D01*
X118143996Y-28102994D01*
X118226211Y-27941639D01*
X118282171Y-27769409D01*
X118296422Y-27679425D01*
X118307527Y-27609321D01*
X118337456Y-27546186D01*
X118396768Y-27509255D01*
X118466630Y-27510253D01*
X118524863Y-27548863D01*
X118552473Y-27609321D01*
X118577829Y-27769410D01*
X118633787Y-27941636D01*
X118633788Y-27941639D01*
X118683540Y-28039281D01*
X118715869Y-28102730D01*
X118716006Y-28102997D01*
X118822441Y-28249494D01*
X118822445Y-28249499D01*
X118950500Y-28377554D01*
X118950505Y-28377558D01*
X119008753Y-28419877D01*
X119097006Y-28483996D01*
X119172523Y-28522474D01*
X119258360Y-28566211D01*
X119258363Y-28566212D01*
X119344476Y-28594191D01*
X119430591Y-28622171D01*
X119513429Y-28635291D01*
X119609449Y-28650500D01*
X119609454Y-28650500D01*
X119790551Y-28650500D01*
X119969409Y-28622171D01*
X120032142Y-28601788D01*
X120113284Y-28575423D01*
X120183123Y-28573429D01*
X120239281Y-28605674D01*
X120605087Y-28971480D01*
X120696412Y-29024207D01*
X120798273Y-29051500D01*
X121933745Y-29051500D01*
X122000784Y-29071185D01*
X122021426Y-29087819D01*
X122721926Y-29788319D01*
X122755411Y-29849642D01*
X122750427Y-29919334D01*
X122708555Y-29975267D01*
X122643091Y-29999684D01*
X122634245Y-30000000D01*
X75000000Y-30000000D01*
X75000000Y-39871000D01*
X74980315Y-39938039D01*
X74927511Y-39983794D01*
X74876000Y-39995000D01*
X67624500Y-39995000D01*
X67557461Y-39975315D01*
X67511706Y-39922511D01*
X67500500Y-39871000D01*
X67500500Y-37207105D01*
X70000000Y-37207105D01*
X70000000Y-38792893D01*
X70702339Y-38090554D01*
X70730743Y-38233351D01*
X70791049Y-38378942D01*
X70878599Y-38509970D01*
X70990030Y-38621401D01*
X71121058Y-38708951D01*
X71266649Y-38769257D01*
X71409445Y-38797660D01*
X70707105Y-39499998D01*
X70707106Y-39499999D01*
X72292893Y-39499999D01*
X72292893Y-39499998D01*
X71590554Y-38797660D01*
X71733351Y-38769257D01*
X71878942Y-38708951D01*
X72009970Y-38621401D01*
X72121401Y-38509970D01*
X72208951Y-38378942D01*
X72269257Y-38233351D01*
X72297660Y-38090554D01*
X72999998Y-38792893D01*
X72999999Y-38792892D01*
X72999999Y-37207106D01*
X72999998Y-37207105D01*
X72297660Y-37909444D01*
X72269257Y-37766649D01*
X72208951Y-37621058D01*
X72121401Y-37490030D01*
X72009970Y-37378599D01*
X71878942Y-37291049D01*
X71733351Y-37230743D01*
X71590555Y-37202339D01*
X72292893Y-36500000D01*
X70707105Y-36500000D01*
X71409445Y-37202339D01*
X71266649Y-37230743D01*
X71121058Y-37291049D01*
X70990030Y-37378599D01*
X70878599Y-37490030D01*
X70791049Y-37621058D01*
X70730743Y-37766649D01*
X70702339Y-37909444D01*
X70000000Y-37207105D01*
X67500500Y-37207105D01*
X67500500Y-25624500D01*
X67520185Y-25557461D01*
X67572989Y-25511706D01*
X67624500Y-25500500D01*
X159876000Y-25500500D01*
X159943039Y-25520185D01*
G37*
%TD.AperFunction*%
%TD*%
M02*
