%TF.GenerationSoftware,KiCad,Pcbnew,9.0.5*%
%TF.CreationDate,2025-11-19T18:22:51+02:00*%
%TF.ProjectId,backplane,6261636b-706c-4616-9e65-2e6b69636164,rev?*%
%TF.SameCoordinates,Original*%
%TF.FileFunction,Copper,L2,Inr*%
%TF.FilePolarity,Positive*%
%FSLAX46Y46*%
G04 Gerber Fmt 4.6, Leading zero omitted, Abs format (unit mm)*
G04 Created by KiCad (PCBNEW 9.0.5) date 2025-11-19 18:22:51*
%MOMM*%
%LPD*%
G01*
G04 APERTURE LIST*
%TA.AperFunction,ComponentPad*%
%ADD10R,1.288000X1.288000*%
%TD*%
%TA.AperFunction,ComponentPad*%
%ADD11C,1.288000*%
%TD*%
%TA.AperFunction,ComponentPad*%
%ADD12R,2.400000X2.400000*%
%TD*%
%TA.AperFunction,ComponentPad*%
%ADD13C,2.400000*%
%TD*%
%TA.AperFunction,ComponentPad*%
%ADD14R,1.700000X1.700000*%
%TD*%
%TA.AperFunction,ComponentPad*%
%ADD15C,1.700000*%
%TD*%
%TA.AperFunction,Conductor*%
%ADD16C,0.200000*%
%TD*%
%TA.AperFunction,Conductor*%
%ADD17C,0.300000*%
%TD*%
G04 APERTURE END LIST*
D10*
%TO.N,VCC*%
%TO.C,MOD2*%
X80000000Y-45380000D03*
D11*
X81000000Y-43380000D03*
X82000000Y-45380000D03*
X83000000Y-43380000D03*
X84000000Y-45380000D03*
%TO.N,N/C*%
X85000000Y-43380000D03*
X86000000Y-45380000D03*
X87000000Y-43380000D03*
X88000000Y-45380000D03*
X89000000Y-43380000D03*
X90000000Y-45380000D03*
%TO.N,GND*%
X93000000Y-43380000D03*
X94000000Y-45380000D03*
%TO.N,/~{LMEM}*%
X95000000Y-43380000D03*
%TO.N,/LSPH*%
X96000000Y-45380000D03*
%TO.N,/LSPL*%
X97000000Y-43380000D03*
%TO.N,/LPCH*%
X98000000Y-45380000D03*
%TO.N,/LPCL*%
X99000000Y-43380000D03*
%TO.N,/~{LARGH}*%
X100000000Y-45380000D03*
%TO.N,/~{LARGL}*%
X101000000Y-43380000D03*
%TO.N,/~{LAC}*%
X102000000Y-45380000D03*
%TO.N,/~{LXH}*%
X103000000Y-43380000D03*
%TO.N,GND*%
X104000000Y-45380000D03*
%TO.N,/~{LYL}*%
X105000000Y-43380000D03*
%TO.N,/~{LYH}*%
X106000000Y-45380000D03*
%TO.N,/~{LZL}*%
X107000000Y-43380000D03*
%TO.N,/~{LZH}*%
X108000000Y-45380000D03*
%TO.N,/~{LFR}*%
X109000000Y-43380000D03*
%TO.N,/~{LINST}*%
X110000000Y-45380000D03*
%TO.N,/LADRH*%
X111000000Y-43380000D03*
%TO.N,/LADRL*%
X112000000Y-45380000D03*
%TO.N,GND*%
X113000000Y-43380000D03*
%TO.N,/STATE0*%
X114000000Y-45380000D03*
%TO.N,/STATE1*%
X115000000Y-43380000D03*
%TO.N,/STATE2*%
X116000000Y-45380000D03*
%TO.N,/STATE3*%
X117000000Y-43380000D03*
%TO.N,/STATE4*%
X118000000Y-45380000D03*
%TO.N,/STATE5*%
X119000000Y-43380000D03*
%TO.N,/STATE6*%
X120000000Y-45380000D03*
%TO.N,/STATE7*%
X121000000Y-43380000D03*
%TO.N,GND*%
X122000000Y-45380000D03*
%TO.N,/STATE8*%
X123000000Y-43380000D03*
%TO.N,/STATE9*%
X124000000Y-45380000D03*
%TO.N,/STATE10*%
X125000000Y-43380000D03*
%TO.N,/STATE11*%
X126000000Y-45380000D03*
%TO.N,/STATE12*%
X127000000Y-43380000D03*
%TO.N,/STATE13*%
X128000000Y-45380000D03*
%TO.N,/STATE14*%
X129000000Y-43380000D03*
%TO.N,/STATE15*%
X130000000Y-45380000D03*
%TO.N,GND*%
X131000000Y-43380000D03*
%TO.N,/DATA0*%
X132000000Y-45380000D03*
%TO.N,/DATA1*%
X133000000Y-43380000D03*
%TO.N,/DATA2*%
X134000000Y-45380000D03*
%TO.N,/DATA3*%
X135000000Y-43380000D03*
%TO.N,/DATA4*%
X136000000Y-45380000D03*
%TO.N,/DATA5*%
X137000000Y-43380000D03*
%TO.N,/DATA6*%
X138000000Y-45380000D03*
%TO.N,/DATA7*%
X139000000Y-43380000D03*
%TO.N,GND*%
X140000000Y-45380000D03*
%TO.N,/ALUZO*%
X141000000Y-43380000D03*
%TO.N,/~{ALUCO}*%
X142000000Y-45380000D03*
%TO.N,/ALUSO*%
X143000000Y-43380000D03*
%TO.N,GND*%
X144000000Y-45380000D03*
X145000000Y-43380000D03*
X146000000Y-45380000D03*
X147000000Y-43380000D03*
%TO.N,/INTREQ*%
X148000000Y-45380000D03*
%TO.N,/~{WAIT}*%
X149000000Y-43380000D03*
%TO.N,/RESET*%
X150000000Y-45380000D03*
%TO.N,GND*%
X151000000Y-43380000D03*
X152000000Y-45380000D03*
X153000000Y-43380000D03*
X154000000Y-45380000D03*
X155000000Y-43380000D03*
X156000000Y-45380000D03*
X157000000Y-43380000D03*
%TO.N,N/C*%
X158000000Y-45380000D03*
X159000000Y-43380000D03*
%TO.N,/STATE16*%
X160000000Y-45380000D03*
%TO.N,N/C*%
X161000000Y-43380000D03*
X162000000Y-45380000D03*
X163000000Y-43380000D03*
%TO.N,VCC*%
X80000000Y-47880000D03*
X81000000Y-49880000D03*
X82000000Y-47880000D03*
X83000000Y-49880000D03*
X84000000Y-47880000D03*
%TO.N,N/C*%
X85000000Y-49880000D03*
X86000000Y-47880000D03*
X87000000Y-49880000D03*
X88000000Y-47880000D03*
X89000000Y-49880000D03*
X90000000Y-47880000D03*
%TO.N,GND*%
X93000000Y-49880000D03*
X94000000Y-47880000D03*
%TO.N,/~{RMEM}*%
X95000000Y-49880000D03*
%TO.N,/~{RSPH}*%
X96000000Y-47880000D03*
%TO.N,/~{RSPL}*%
X97000000Y-49880000D03*
%TO.N,/~{RPCH}*%
X98000000Y-47880000D03*
%TO.N,/~{RPCL}*%
X99000000Y-49880000D03*
%TO.N,/~{RARGH}*%
X100000000Y-47880000D03*
%TO.N,/~{RARGL}*%
X101000000Y-49880000D03*
%TO.N,/~{RAC}*%
X102000000Y-47880000D03*
%TO.N,/~{RXH}*%
X103000000Y-49880000D03*
%TO.N,GND*%
X104000000Y-47880000D03*
%TO.N,/~{RYL}*%
X105000000Y-49880000D03*
%TO.N,/~{RYH}*%
X106000000Y-47880000D03*
%TO.N,/~{RZL}*%
X107000000Y-49880000D03*
%TO.N,/~{RZH}*%
X108000000Y-47880000D03*
%TO.N,/~{RFR}*%
X109000000Y-49880000D03*
%TO.N,/~{RCONST}*%
X110000000Y-47880000D03*
%TO.N,/~{RALU}*%
X111000000Y-49880000D03*
%TO.N,/~{RINTC}*%
X112000000Y-47880000D03*
%TO.N,GND*%
X113000000Y-49880000D03*
%TO.N,/L0*%
X114000000Y-47880000D03*
%TO.N,/L1*%
X115000000Y-49880000D03*
%TO.N,/L2*%
X116000000Y-47880000D03*
%TO.N,/L3*%
X117000000Y-49880000D03*
%TO.N,/ALUM*%
X118000000Y-47880000D03*
%TO.N,/~{ALUCI}*%
X119000000Y-49880000D03*
%TO.N,/FRUpd*%
X120000000Y-47880000D03*
%TO.N,/R0*%
X121000000Y-49880000D03*
%TO.N,GND*%
X122000000Y-47880000D03*
%TO.N,/R1*%
X123000000Y-49880000D03*
%TO.N,/R2*%
X124000000Y-47880000D03*
%TO.N,/R3*%
X125000000Y-49880000D03*
%TO.N,/~{SCCLR}*%
X126000000Y-47880000D03*
%TO.N,/~{HALT}*%
X127000000Y-49880000D03*
%TO.N,/PCINC*%
X128000000Y-47880000D03*
%TO.N,/ALUS0*%
X129000000Y-49880000D03*
%TO.N,/ALUS1*%
X130000000Y-47880000D03*
%TO.N,GND*%
X131000000Y-49880000D03*
%TO.N,/ALUS2*%
X132000000Y-47880000D03*
%TO.N,/ALUS3*%
X133000000Y-49880000D03*
%TO.N,/SPDEC*%
X134000000Y-47880000D03*
%TO.N,/SPINC*%
X135000000Y-49880000D03*
%TO.N,/ACSHLEFT*%
X136000000Y-47880000D03*
%TO.N,/ACSHRIGHT*%
X137000000Y-49880000D03*
%TO.N,/INTE*%
X138000000Y-47880000D03*
%TO.N,/~{INTD}*%
X139000000Y-49880000D03*
%TO.N,GND*%
X140000000Y-47880000D03*
%TO.N,/ADRDEC*%
X141000000Y-49880000D03*
%TO.N,/ADRINC*%
X142000000Y-47880000D03*
%TO.N,GND*%
X143000000Y-49880000D03*
X144000000Y-47880000D03*
X145000000Y-49880000D03*
X146000000Y-47880000D03*
X147000000Y-49880000D03*
X148000000Y-47880000D03*
X149000000Y-49880000D03*
X150000000Y-47880000D03*
X151000000Y-49880000D03*
X152000000Y-47880000D03*
X153000000Y-49880000D03*
%TO.N,/~{CLK}*%
X154000000Y-47880000D03*
%TO.N,/PULSE*%
X155000000Y-49880000D03*
%TO.N,GND*%
X156000000Y-47880000D03*
X157000000Y-49880000D03*
%TO.N,N/C*%
X158000000Y-47880000D03*
X159000000Y-49880000D03*
%TO.N,/L4*%
X160000000Y-47880000D03*
%TO.N,/R4*%
X161000000Y-49880000D03*
%TO.N,N/C*%
X162000000Y-47880000D03*
X163000000Y-49880000D03*
%TD*%
D12*
%TO.N,GND*%
%TO.C,J1*%
X71500000Y-38000000D03*
D13*
%TO.N,VCC*%
X71500000Y-43000000D03*
%TD*%
D10*
%TO.N,VCC*%
%TO.C,MOD6*%
X80000000Y-93540000D03*
D11*
X81000000Y-91540000D03*
X82000000Y-93540000D03*
X83000000Y-91540000D03*
X84000000Y-93540000D03*
%TO.N,N/C*%
X85000000Y-91540000D03*
X86000000Y-93540000D03*
X87000000Y-91540000D03*
X88000000Y-93540000D03*
X89000000Y-91540000D03*
X90000000Y-93540000D03*
%TO.N,GND*%
X93000000Y-91540000D03*
X94000000Y-93540000D03*
%TO.N,/~{LMEM}*%
X95000000Y-91540000D03*
%TO.N,/LSPH*%
X96000000Y-93540000D03*
%TO.N,/LSPL*%
X97000000Y-91540000D03*
%TO.N,/LPCH*%
X98000000Y-93540000D03*
%TO.N,/LPCL*%
X99000000Y-91540000D03*
%TO.N,/~{LARGH}*%
X100000000Y-93540000D03*
%TO.N,/~{LARGL}*%
X101000000Y-91540000D03*
%TO.N,/~{LAC}*%
X102000000Y-93540000D03*
%TO.N,/~{LXH}*%
X103000000Y-91540000D03*
%TO.N,GND*%
X104000000Y-93540000D03*
%TO.N,/~{LYL}*%
X105000000Y-91540000D03*
%TO.N,/~{LYH}*%
X106000000Y-93540000D03*
%TO.N,/~{LZL}*%
X107000000Y-91540000D03*
%TO.N,/~{LZH}*%
X108000000Y-93540000D03*
%TO.N,/~{LFR}*%
X109000000Y-91540000D03*
%TO.N,/~{LINST}*%
X110000000Y-93540000D03*
%TO.N,/LADRH*%
X111000000Y-91540000D03*
%TO.N,/LADRL*%
X112000000Y-93540000D03*
%TO.N,GND*%
X113000000Y-91540000D03*
%TO.N,/STATE0*%
X114000000Y-93540000D03*
%TO.N,/STATE1*%
X115000000Y-91540000D03*
%TO.N,/STATE2*%
X116000000Y-93540000D03*
%TO.N,/STATE3*%
X117000000Y-91540000D03*
%TO.N,/STATE4*%
X118000000Y-93540000D03*
%TO.N,/STATE5*%
X119000000Y-91540000D03*
%TO.N,/STATE6*%
X120000000Y-93540000D03*
%TO.N,/STATE7*%
X121000000Y-91540000D03*
%TO.N,GND*%
X122000000Y-93540000D03*
%TO.N,/STATE8*%
X123000000Y-91540000D03*
%TO.N,/STATE9*%
X124000000Y-93540000D03*
%TO.N,/STATE10*%
X125000000Y-91540000D03*
%TO.N,/STATE11*%
X126000000Y-93540000D03*
%TO.N,/STATE12*%
X127000000Y-91540000D03*
%TO.N,/STATE13*%
X128000000Y-93540000D03*
%TO.N,/STATE14*%
X129000000Y-91540000D03*
%TO.N,/STATE15*%
X130000000Y-93540000D03*
%TO.N,GND*%
X131000000Y-91540000D03*
%TO.N,/DATA0*%
X132000000Y-93540000D03*
%TO.N,/DATA1*%
X133000000Y-91540000D03*
%TO.N,/DATA2*%
X134000000Y-93540000D03*
%TO.N,/DATA3*%
X135000000Y-91540000D03*
%TO.N,/DATA4*%
X136000000Y-93540000D03*
%TO.N,/DATA5*%
X137000000Y-91540000D03*
%TO.N,/DATA6*%
X138000000Y-93540000D03*
%TO.N,/DATA7*%
X139000000Y-91540000D03*
%TO.N,GND*%
X140000000Y-93540000D03*
%TO.N,/ALUZO*%
X141000000Y-91540000D03*
%TO.N,/~{ALUCO}*%
X142000000Y-93540000D03*
%TO.N,/ALUSO*%
X143000000Y-91540000D03*
%TO.N,GND*%
X144000000Y-93540000D03*
X145000000Y-91540000D03*
X146000000Y-93540000D03*
X147000000Y-91540000D03*
%TO.N,/INTREQ*%
X148000000Y-93540000D03*
%TO.N,/~{WAIT}*%
X149000000Y-91540000D03*
%TO.N,/RESET*%
X150000000Y-93540000D03*
%TO.N,GND*%
X151000000Y-91540000D03*
X152000000Y-93540000D03*
X153000000Y-91540000D03*
X154000000Y-93540000D03*
X155000000Y-91540000D03*
X156000000Y-93540000D03*
X157000000Y-91540000D03*
%TO.N,N/C*%
X158000000Y-93540000D03*
X159000000Y-91540000D03*
%TO.N,/STATE16*%
X160000000Y-93540000D03*
%TO.N,N/C*%
X161000000Y-91540000D03*
X162000000Y-93540000D03*
X163000000Y-91540000D03*
%TO.N,VCC*%
X80000000Y-96040000D03*
X81000000Y-98040000D03*
X82000000Y-96040000D03*
X83000000Y-98040000D03*
X84000000Y-96040000D03*
%TO.N,N/C*%
X85000000Y-98040000D03*
X86000000Y-96040000D03*
X87000000Y-98040000D03*
X88000000Y-96040000D03*
X89000000Y-98040000D03*
X90000000Y-96040000D03*
%TO.N,GND*%
X93000000Y-98040000D03*
X94000000Y-96040000D03*
%TO.N,/~{RMEM}*%
X95000000Y-98040000D03*
%TO.N,/~{RSPH}*%
X96000000Y-96040000D03*
%TO.N,/~{RSPL}*%
X97000000Y-98040000D03*
%TO.N,/~{RPCH}*%
X98000000Y-96040000D03*
%TO.N,/~{RPCL}*%
X99000000Y-98040000D03*
%TO.N,/~{RARGH}*%
X100000000Y-96040000D03*
%TO.N,/~{RARGL}*%
X101000000Y-98040000D03*
%TO.N,/~{RAC}*%
X102000000Y-96040000D03*
%TO.N,/~{RXH}*%
X103000000Y-98040000D03*
%TO.N,GND*%
X104000000Y-96040000D03*
%TO.N,/~{RYL}*%
X105000000Y-98040000D03*
%TO.N,/~{RYH}*%
X106000000Y-96040000D03*
%TO.N,/~{RZL}*%
X107000000Y-98040000D03*
%TO.N,/~{RZH}*%
X108000000Y-96040000D03*
%TO.N,/~{RFR}*%
X109000000Y-98040000D03*
%TO.N,/~{RCONST}*%
X110000000Y-96040000D03*
%TO.N,/~{RALU}*%
X111000000Y-98040000D03*
%TO.N,/~{RINTC}*%
X112000000Y-96040000D03*
%TO.N,GND*%
X113000000Y-98040000D03*
%TO.N,/L0*%
X114000000Y-96040000D03*
%TO.N,/L1*%
X115000000Y-98040000D03*
%TO.N,/L2*%
X116000000Y-96040000D03*
%TO.N,/L3*%
X117000000Y-98040000D03*
%TO.N,/ALUM*%
X118000000Y-96040000D03*
%TO.N,/~{ALUCI}*%
X119000000Y-98040000D03*
%TO.N,/FRUpd*%
X120000000Y-96040000D03*
%TO.N,/R0*%
X121000000Y-98040000D03*
%TO.N,GND*%
X122000000Y-96040000D03*
%TO.N,/R1*%
X123000000Y-98040000D03*
%TO.N,/R2*%
X124000000Y-96040000D03*
%TO.N,/R3*%
X125000000Y-98040000D03*
%TO.N,/~{SCCLR}*%
X126000000Y-96040000D03*
%TO.N,/~{HALT}*%
X127000000Y-98040000D03*
%TO.N,/PCINC*%
X128000000Y-96040000D03*
%TO.N,/ALUS0*%
X129000000Y-98040000D03*
%TO.N,/ALUS1*%
X130000000Y-96040000D03*
%TO.N,GND*%
X131000000Y-98040000D03*
%TO.N,/ALUS2*%
X132000000Y-96040000D03*
%TO.N,/ALUS3*%
X133000000Y-98040000D03*
%TO.N,/SPDEC*%
X134000000Y-96040000D03*
%TO.N,/SPINC*%
X135000000Y-98040000D03*
%TO.N,/ACSHLEFT*%
X136000000Y-96040000D03*
%TO.N,/ACSHRIGHT*%
X137000000Y-98040000D03*
%TO.N,/INTE*%
X138000000Y-96040000D03*
%TO.N,/~{INTD}*%
X139000000Y-98040000D03*
%TO.N,GND*%
X140000000Y-96040000D03*
%TO.N,/ADRDEC*%
X141000000Y-98040000D03*
%TO.N,/ADRINC*%
X142000000Y-96040000D03*
%TO.N,GND*%
X143000000Y-98040000D03*
X144000000Y-96040000D03*
X145000000Y-98040000D03*
X146000000Y-96040000D03*
X147000000Y-98040000D03*
X148000000Y-96040000D03*
X149000000Y-98040000D03*
X150000000Y-96040000D03*
X151000000Y-98040000D03*
X152000000Y-96040000D03*
X153000000Y-98040000D03*
%TO.N,/~{CLK}*%
X154000000Y-96040000D03*
%TO.N,/PULSE*%
X155000000Y-98040000D03*
%TO.N,GND*%
X156000000Y-96040000D03*
X157000000Y-98040000D03*
%TO.N,N/C*%
X158000000Y-96040000D03*
X159000000Y-98040000D03*
%TO.N,/L4*%
X160000000Y-96040000D03*
%TO.N,/R4*%
X161000000Y-98040000D03*
%TO.N,N/C*%
X162000000Y-96040000D03*
X163000000Y-98040000D03*
%TD*%
D10*
%TO.N,VCC*%
%TO.C,MOD7*%
X80000000Y-105580000D03*
D11*
X81000000Y-103580000D03*
X82000000Y-105580000D03*
X83000000Y-103580000D03*
X84000000Y-105580000D03*
%TO.N,N/C*%
X85000000Y-103580000D03*
X86000000Y-105580000D03*
X87000000Y-103580000D03*
X88000000Y-105580000D03*
X89000000Y-103580000D03*
X90000000Y-105580000D03*
%TO.N,GND*%
X93000000Y-103580000D03*
X94000000Y-105580000D03*
%TO.N,/~{LMEM}*%
X95000000Y-103580000D03*
%TO.N,/LSPH*%
X96000000Y-105580000D03*
%TO.N,/LSPL*%
X97000000Y-103580000D03*
%TO.N,/LPCH*%
X98000000Y-105580000D03*
%TO.N,/LPCL*%
X99000000Y-103580000D03*
%TO.N,/~{LARGH}*%
X100000000Y-105580000D03*
%TO.N,/~{LARGL}*%
X101000000Y-103580000D03*
%TO.N,/~{LAC}*%
X102000000Y-105580000D03*
%TO.N,/~{LXH}*%
X103000000Y-103580000D03*
%TO.N,GND*%
X104000000Y-105580000D03*
%TO.N,/~{LYL}*%
X105000000Y-103580000D03*
%TO.N,/~{LYH}*%
X106000000Y-105580000D03*
%TO.N,/~{LZL}*%
X107000000Y-103580000D03*
%TO.N,/~{LZH}*%
X108000000Y-105580000D03*
%TO.N,/~{LFR}*%
X109000000Y-103580000D03*
%TO.N,/~{LINST}*%
X110000000Y-105580000D03*
%TO.N,/LADRH*%
X111000000Y-103580000D03*
%TO.N,/LADRL*%
X112000000Y-105580000D03*
%TO.N,GND*%
X113000000Y-103580000D03*
%TO.N,/STATE0*%
X114000000Y-105580000D03*
%TO.N,/STATE1*%
X115000000Y-103580000D03*
%TO.N,/STATE2*%
X116000000Y-105580000D03*
%TO.N,/STATE3*%
X117000000Y-103580000D03*
%TO.N,/STATE4*%
X118000000Y-105580000D03*
%TO.N,/STATE5*%
X119000000Y-103580000D03*
%TO.N,/STATE6*%
X120000000Y-105580000D03*
%TO.N,/STATE7*%
X121000000Y-103580000D03*
%TO.N,GND*%
X122000000Y-105580000D03*
%TO.N,/STATE8*%
X123000000Y-103580000D03*
%TO.N,/STATE9*%
X124000000Y-105580000D03*
%TO.N,/STATE10*%
X125000000Y-103580000D03*
%TO.N,/STATE11*%
X126000000Y-105580000D03*
%TO.N,/STATE12*%
X127000000Y-103580000D03*
%TO.N,/STATE13*%
X128000000Y-105580000D03*
%TO.N,/STATE14*%
X129000000Y-103580000D03*
%TO.N,/STATE15*%
X130000000Y-105580000D03*
%TO.N,GND*%
X131000000Y-103580000D03*
%TO.N,/DATA0*%
X132000000Y-105580000D03*
%TO.N,/DATA1*%
X133000000Y-103580000D03*
%TO.N,/DATA2*%
X134000000Y-105580000D03*
%TO.N,/DATA3*%
X135000000Y-103580000D03*
%TO.N,/DATA4*%
X136000000Y-105580000D03*
%TO.N,/DATA5*%
X137000000Y-103580000D03*
%TO.N,/DATA6*%
X138000000Y-105580000D03*
%TO.N,/DATA7*%
X139000000Y-103580000D03*
%TO.N,GND*%
X140000000Y-105580000D03*
%TO.N,/ALUZO*%
X141000000Y-103580000D03*
%TO.N,/~{ALUCO}*%
X142000000Y-105580000D03*
%TO.N,/ALUSO*%
X143000000Y-103580000D03*
%TO.N,GND*%
X144000000Y-105580000D03*
X145000000Y-103580000D03*
X146000000Y-105580000D03*
X147000000Y-103580000D03*
%TO.N,/INTREQ*%
X148000000Y-105580000D03*
%TO.N,/~{WAIT}*%
X149000000Y-103580000D03*
%TO.N,/RESET*%
X150000000Y-105580000D03*
%TO.N,GND*%
X151000000Y-103580000D03*
X152000000Y-105580000D03*
X153000000Y-103580000D03*
X154000000Y-105580000D03*
X155000000Y-103580000D03*
X156000000Y-105580000D03*
X157000000Y-103580000D03*
%TO.N,N/C*%
X158000000Y-105580000D03*
X159000000Y-103580000D03*
%TO.N,/STATE16*%
X160000000Y-105580000D03*
%TO.N,N/C*%
X161000000Y-103580000D03*
X162000000Y-105580000D03*
X163000000Y-103580000D03*
%TO.N,VCC*%
X80000000Y-108080000D03*
X81000000Y-110080000D03*
X82000000Y-108080000D03*
X83000000Y-110080000D03*
X84000000Y-108080000D03*
%TO.N,N/C*%
X85000000Y-110080000D03*
X86000000Y-108080000D03*
X87000000Y-110080000D03*
X88000000Y-108080000D03*
X89000000Y-110080000D03*
X90000000Y-108080000D03*
%TO.N,GND*%
X93000000Y-110080000D03*
X94000000Y-108080000D03*
%TO.N,/~{RMEM}*%
X95000000Y-110080000D03*
%TO.N,/~{RSPH}*%
X96000000Y-108080000D03*
%TO.N,/~{RSPL}*%
X97000000Y-110080000D03*
%TO.N,/~{RPCH}*%
X98000000Y-108080000D03*
%TO.N,/~{RPCL}*%
X99000000Y-110080000D03*
%TO.N,/~{RARGH}*%
X100000000Y-108080000D03*
%TO.N,/~{RARGL}*%
X101000000Y-110080000D03*
%TO.N,/~{RAC}*%
X102000000Y-108080000D03*
%TO.N,/~{RXH}*%
X103000000Y-110080000D03*
%TO.N,GND*%
X104000000Y-108080000D03*
%TO.N,/~{RYL}*%
X105000000Y-110080000D03*
%TO.N,/~{RYH}*%
X106000000Y-108080000D03*
%TO.N,/~{RZL}*%
X107000000Y-110080000D03*
%TO.N,/~{RZH}*%
X108000000Y-108080000D03*
%TO.N,/~{RFR}*%
X109000000Y-110080000D03*
%TO.N,/~{RCONST}*%
X110000000Y-108080000D03*
%TO.N,/~{RALU}*%
X111000000Y-110080000D03*
%TO.N,/~{RINTC}*%
X112000000Y-108080000D03*
%TO.N,GND*%
X113000000Y-110080000D03*
%TO.N,/L0*%
X114000000Y-108080000D03*
%TO.N,/L1*%
X115000000Y-110080000D03*
%TO.N,/L2*%
X116000000Y-108080000D03*
%TO.N,/L3*%
X117000000Y-110080000D03*
%TO.N,/ALUM*%
X118000000Y-108080000D03*
%TO.N,/~{ALUCI}*%
X119000000Y-110080000D03*
%TO.N,/FRUpd*%
X120000000Y-108080000D03*
%TO.N,/R0*%
X121000000Y-110080000D03*
%TO.N,GND*%
X122000000Y-108080000D03*
%TO.N,/R1*%
X123000000Y-110080000D03*
%TO.N,/R2*%
X124000000Y-108080000D03*
%TO.N,/R3*%
X125000000Y-110080000D03*
%TO.N,/~{SCCLR}*%
X126000000Y-108080000D03*
%TO.N,/~{HALT}*%
X127000000Y-110080000D03*
%TO.N,/PCINC*%
X128000000Y-108080000D03*
%TO.N,/ALUS0*%
X129000000Y-110080000D03*
%TO.N,/ALUS1*%
X130000000Y-108080000D03*
%TO.N,GND*%
X131000000Y-110080000D03*
%TO.N,/ALUS2*%
X132000000Y-108080000D03*
%TO.N,/ALUS3*%
X133000000Y-110080000D03*
%TO.N,/SPDEC*%
X134000000Y-108080000D03*
%TO.N,/SPINC*%
X135000000Y-110080000D03*
%TO.N,/ACSHLEFT*%
X136000000Y-108080000D03*
%TO.N,/ACSHRIGHT*%
X137000000Y-110080000D03*
%TO.N,/INTE*%
X138000000Y-108080000D03*
%TO.N,/~{INTD}*%
X139000000Y-110080000D03*
%TO.N,GND*%
X140000000Y-108080000D03*
%TO.N,/ADRDEC*%
X141000000Y-110080000D03*
%TO.N,/ADRINC*%
X142000000Y-108080000D03*
%TO.N,GND*%
X143000000Y-110080000D03*
X144000000Y-108080000D03*
X145000000Y-110080000D03*
X146000000Y-108080000D03*
X147000000Y-110080000D03*
X148000000Y-108080000D03*
X149000000Y-110080000D03*
X150000000Y-108080000D03*
X151000000Y-110080000D03*
X152000000Y-108080000D03*
X153000000Y-110080000D03*
%TO.N,/~{CLK}*%
X154000000Y-108080000D03*
%TO.N,/PULSE*%
X155000000Y-110080000D03*
%TO.N,GND*%
X156000000Y-108080000D03*
X157000000Y-110080000D03*
%TO.N,N/C*%
X158000000Y-108080000D03*
X159000000Y-110080000D03*
%TO.N,/L4*%
X160000000Y-108080000D03*
%TO.N,/R4*%
X161000000Y-110080000D03*
%TO.N,N/C*%
X162000000Y-108080000D03*
X163000000Y-110080000D03*
%TD*%
D10*
%TO.N,VCC*%
%TO.C,MOD5*%
X80000000Y-81500000D03*
D11*
X81000000Y-79500000D03*
X82000000Y-81500000D03*
X83000000Y-79500000D03*
X84000000Y-81500000D03*
%TO.N,N/C*%
X85000000Y-79500000D03*
X86000000Y-81500000D03*
X87000000Y-79500000D03*
X88000000Y-81500000D03*
X89000000Y-79500000D03*
X90000000Y-81500000D03*
%TO.N,GND*%
X93000000Y-79500000D03*
X94000000Y-81500000D03*
%TO.N,/~{LMEM}*%
X95000000Y-79500000D03*
%TO.N,/LSPH*%
X96000000Y-81500000D03*
%TO.N,/LSPL*%
X97000000Y-79500000D03*
%TO.N,/LPCH*%
X98000000Y-81500000D03*
%TO.N,/LPCL*%
X99000000Y-79500000D03*
%TO.N,/~{LARGH}*%
X100000000Y-81500000D03*
%TO.N,/~{LARGL}*%
X101000000Y-79500000D03*
%TO.N,/~{LAC}*%
X102000000Y-81500000D03*
%TO.N,/~{LXH}*%
X103000000Y-79500000D03*
%TO.N,GND*%
X104000000Y-81500000D03*
%TO.N,/~{LYL}*%
X105000000Y-79500000D03*
%TO.N,/~{LYH}*%
X106000000Y-81500000D03*
%TO.N,/~{LZL}*%
X107000000Y-79500000D03*
%TO.N,/~{LZH}*%
X108000000Y-81500000D03*
%TO.N,/~{LFR}*%
X109000000Y-79500000D03*
%TO.N,/~{LINST}*%
X110000000Y-81500000D03*
%TO.N,/LADRH*%
X111000000Y-79500000D03*
%TO.N,/LADRL*%
X112000000Y-81500000D03*
%TO.N,GND*%
X113000000Y-79500000D03*
%TO.N,/STATE0*%
X114000000Y-81500000D03*
%TO.N,/STATE1*%
X115000000Y-79500000D03*
%TO.N,/STATE2*%
X116000000Y-81500000D03*
%TO.N,/STATE3*%
X117000000Y-79500000D03*
%TO.N,/STATE4*%
X118000000Y-81500000D03*
%TO.N,/STATE5*%
X119000000Y-79500000D03*
%TO.N,/STATE6*%
X120000000Y-81500000D03*
%TO.N,/STATE7*%
X121000000Y-79500000D03*
%TO.N,GND*%
X122000000Y-81500000D03*
%TO.N,/STATE8*%
X123000000Y-79500000D03*
%TO.N,/STATE9*%
X124000000Y-81500000D03*
%TO.N,/STATE10*%
X125000000Y-79500000D03*
%TO.N,/STATE11*%
X126000000Y-81500000D03*
%TO.N,/STATE12*%
X127000000Y-79500000D03*
%TO.N,/STATE13*%
X128000000Y-81500000D03*
%TO.N,/STATE14*%
X129000000Y-79500000D03*
%TO.N,/STATE15*%
X130000000Y-81500000D03*
%TO.N,GND*%
X131000000Y-79500000D03*
%TO.N,/DATA0*%
X132000000Y-81500000D03*
%TO.N,/DATA1*%
X133000000Y-79500000D03*
%TO.N,/DATA2*%
X134000000Y-81500000D03*
%TO.N,/DATA3*%
X135000000Y-79500000D03*
%TO.N,/DATA4*%
X136000000Y-81500000D03*
%TO.N,/DATA5*%
X137000000Y-79500000D03*
%TO.N,/DATA6*%
X138000000Y-81500000D03*
%TO.N,/DATA7*%
X139000000Y-79500000D03*
%TO.N,GND*%
X140000000Y-81500000D03*
%TO.N,/ALUZO*%
X141000000Y-79500000D03*
%TO.N,/~{ALUCO}*%
X142000000Y-81500000D03*
%TO.N,/ALUSO*%
X143000000Y-79500000D03*
%TO.N,GND*%
X144000000Y-81500000D03*
X145000000Y-79500000D03*
X146000000Y-81500000D03*
X147000000Y-79500000D03*
%TO.N,/INTREQ*%
X148000000Y-81500000D03*
%TO.N,/~{WAIT}*%
X149000000Y-79500000D03*
%TO.N,/RESET*%
X150000000Y-81500000D03*
%TO.N,GND*%
X151000000Y-79500000D03*
X152000000Y-81500000D03*
X153000000Y-79500000D03*
X154000000Y-81500000D03*
X155000000Y-79500000D03*
X156000000Y-81500000D03*
X157000000Y-79500000D03*
%TO.N,N/C*%
X158000000Y-81500000D03*
X159000000Y-79500000D03*
%TO.N,/STATE16*%
X160000000Y-81500000D03*
%TO.N,N/C*%
X161000000Y-79500000D03*
X162000000Y-81500000D03*
X163000000Y-79500000D03*
%TO.N,VCC*%
X80000000Y-84000000D03*
X81000000Y-86000000D03*
X82000000Y-84000000D03*
X83000000Y-86000000D03*
X84000000Y-84000000D03*
%TO.N,N/C*%
X85000000Y-86000000D03*
X86000000Y-84000000D03*
X87000000Y-86000000D03*
X88000000Y-84000000D03*
X89000000Y-86000000D03*
X90000000Y-84000000D03*
%TO.N,GND*%
X93000000Y-86000000D03*
X94000000Y-84000000D03*
%TO.N,/~{RMEM}*%
X95000000Y-86000000D03*
%TO.N,/~{RSPH}*%
X96000000Y-84000000D03*
%TO.N,/~{RSPL}*%
X97000000Y-86000000D03*
%TO.N,/~{RPCH}*%
X98000000Y-84000000D03*
%TO.N,/~{RPCL}*%
X99000000Y-86000000D03*
%TO.N,/~{RARGH}*%
X100000000Y-84000000D03*
%TO.N,/~{RARGL}*%
X101000000Y-86000000D03*
%TO.N,/~{RAC}*%
X102000000Y-84000000D03*
%TO.N,/~{RXH}*%
X103000000Y-86000000D03*
%TO.N,GND*%
X104000000Y-84000000D03*
%TO.N,/~{RYL}*%
X105000000Y-86000000D03*
%TO.N,/~{RYH}*%
X106000000Y-84000000D03*
%TO.N,/~{RZL}*%
X107000000Y-86000000D03*
%TO.N,/~{RZH}*%
X108000000Y-84000000D03*
%TO.N,/~{RFR}*%
X109000000Y-86000000D03*
%TO.N,/~{RCONST}*%
X110000000Y-84000000D03*
%TO.N,/~{RALU}*%
X111000000Y-86000000D03*
%TO.N,/~{RINTC}*%
X112000000Y-84000000D03*
%TO.N,GND*%
X113000000Y-86000000D03*
%TO.N,/L0*%
X114000000Y-84000000D03*
%TO.N,/L1*%
X115000000Y-86000000D03*
%TO.N,/L2*%
X116000000Y-84000000D03*
%TO.N,/L3*%
X117000000Y-86000000D03*
%TO.N,/ALUM*%
X118000000Y-84000000D03*
%TO.N,/~{ALUCI}*%
X119000000Y-86000000D03*
%TO.N,/FRUpd*%
X120000000Y-84000000D03*
%TO.N,/R0*%
X121000000Y-86000000D03*
%TO.N,GND*%
X122000000Y-84000000D03*
%TO.N,/R1*%
X123000000Y-86000000D03*
%TO.N,/R2*%
X124000000Y-84000000D03*
%TO.N,/R3*%
X125000000Y-86000000D03*
%TO.N,/~{SCCLR}*%
X126000000Y-84000000D03*
%TO.N,/~{HALT}*%
X127000000Y-86000000D03*
%TO.N,/PCINC*%
X128000000Y-84000000D03*
%TO.N,/ALUS0*%
X129000000Y-86000000D03*
%TO.N,/ALUS1*%
X130000000Y-84000000D03*
%TO.N,GND*%
X131000000Y-86000000D03*
%TO.N,/ALUS2*%
X132000000Y-84000000D03*
%TO.N,/ALUS3*%
X133000000Y-86000000D03*
%TO.N,/SPDEC*%
X134000000Y-84000000D03*
%TO.N,/SPINC*%
X135000000Y-86000000D03*
%TO.N,/ACSHLEFT*%
X136000000Y-84000000D03*
%TO.N,/ACSHRIGHT*%
X137000000Y-86000000D03*
%TO.N,/INTE*%
X138000000Y-84000000D03*
%TO.N,/~{INTD}*%
X139000000Y-86000000D03*
%TO.N,GND*%
X140000000Y-84000000D03*
%TO.N,/ADRDEC*%
X141000000Y-86000000D03*
%TO.N,/ADRINC*%
X142000000Y-84000000D03*
%TO.N,GND*%
X143000000Y-86000000D03*
X144000000Y-84000000D03*
X145000000Y-86000000D03*
X146000000Y-84000000D03*
X147000000Y-86000000D03*
X148000000Y-84000000D03*
X149000000Y-86000000D03*
X150000000Y-84000000D03*
X151000000Y-86000000D03*
X152000000Y-84000000D03*
X153000000Y-86000000D03*
%TO.N,/~{CLK}*%
X154000000Y-84000000D03*
%TO.N,/PULSE*%
X155000000Y-86000000D03*
%TO.N,GND*%
X156000000Y-84000000D03*
X157000000Y-86000000D03*
%TO.N,N/C*%
X158000000Y-84000000D03*
X159000000Y-86000000D03*
%TO.N,/L4*%
X160000000Y-84000000D03*
%TO.N,/R4*%
X161000000Y-86000000D03*
%TO.N,N/C*%
X162000000Y-84000000D03*
X163000000Y-86000000D03*
%TD*%
D10*
%TO.N,VCC*%
%TO.C,MOD4*%
X80000000Y-69460000D03*
D11*
X81000000Y-67460000D03*
X82000000Y-69460000D03*
X83000000Y-67460000D03*
X84000000Y-69460000D03*
%TO.N,N/C*%
X85000000Y-67460000D03*
X86000000Y-69460000D03*
X87000000Y-67460000D03*
X88000000Y-69460000D03*
X89000000Y-67460000D03*
X90000000Y-69460000D03*
%TO.N,GND*%
X93000000Y-67460000D03*
X94000000Y-69460000D03*
%TO.N,/~{LMEM}*%
X95000000Y-67460000D03*
%TO.N,/LSPH*%
X96000000Y-69460000D03*
%TO.N,/LSPL*%
X97000000Y-67460000D03*
%TO.N,/LPCH*%
X98000000Y-69460000D03*
%TO.N,/LPCL*%
X99000000Y-67460000D03*
%TO.N,/~{LARGH}*%
X100000000Y-69460000D03*
%TO.N,/~{LARGL}*%
X101000000Y-67460000D03*
%TO.N,/~{LAC}*%
X102000000Y-69460000D03*
%TO.N,/~{LXH}*%
X103000000Y-67460000D03*
%TO.N,GND*%
X104000000Y-69460000D03*
%TO.N,/~{LYL}*%
X105000000Y-67460000D03*
%TO.N,/~{LYH}*%
X106000000Y-69460000D03*
%TO.N,/~{LZL}*%
X107000000Y-67460000D03*
%TO.N,/~{LZH}*%
X108000000Y-69460000D03*
%TO.N,/~{LFR}*%
X109000000Y-67460000D03*
%TO.N,/~{LINST}*%
X110000000Y-69460000D03*
%TO.N,/LADRH*%
X111000000Y-67460000D03*
%TO.N,/LADRL*%
X112000000Y-69460000D03*
%TO.N,GND*%
X113000000Y-67460000D03*
%TO.N,/STATE0*%
X114000000Y-69460000D03*
%TO.N,/STATE1*%
X115000000Y-67460000D03*
%TO.N,/STATE2*%
X116000000Y-69460000D03*
%TO.N,/STATE3*%
X117000000Y-67460000D03*
%TO.N,/STATE4*%
X118000000Y-69460000D03*
%TO.N,/STATE5*%
X119000000Y-67460000D03*
%TO.N,/STATE6*%
X120000000Y-69460000D03*
%TO.N,/STATE7*%
X121000000Y-67460000D03*
%TO.N,GND*%
X122000000Y-69460000D03*
%TO.N,/STATE8*%
X123000000Y-67460000D03*
%TO.N,/STATE9*%
X124000000Y-69460000D03*
%TO.N,/STATE10*%
X125000000Y-67460000D03*
%TO.N,/STATE11*%
X126000000Y-69460000D03*
%TO.N,/STATE12*%
X127000000Y-67460000D03*
%TO.N,/STATE13*%
X128000000Y-69460000D03*
%TO.N,/STATE14*%
X129000000Y-67460000D03*
%TO.N,/STATE15*%
X130000000Y-69460000D03*
%TO.N,GND*%
X131000000Y-67460000D03*
%TO.N,/DATA0*%
X132000000Y-69460000D03*
%TO.N,/DATA1*%
X133000000Y-67460000D03*
%TO.N,/DATA2*%
X134000000Y-69460000D03*
%TO.N,/DATA3*%
X135000000Y-67460000D03*
%TO.N,/DATA4*%
X136000000Y-69460000D03*
%TO.N,/DATA5*%
X137000000Y-67460000D03*
%TO.N,/DATA6*%
X138000000Y-69460000D03*
%TO.N,/DATA7*%
X139000000Y-67460000D03*
%TO.N,GND*%
X140000000Y-69460000D03*
%TO.N,/ALUZO*%
X141000000Y-67460000D03*
%TO.N,/~{ALUCO}*%
X142000000Y-69460000D03*
%TO.N,/ALUSO*%
X143000000Y-67460000D03*
%TO.N,GND*%
X144000000Y-69460000D03*
X145000000Y-67460000D03*
X146000000Y-69460000D03*
X147000000Y-67460000D03*
%TO.N,/INTREQ*%
X148000000Y-69460000D03*
%TO.N,/~{WAIT}*%
X149000000Y-67460000D03*
%TO.N,/RESET*%
X150000000Y-69460000D03*
%TO.N,GND*%
X151000000Y-67460000D03*
X152000000Y-69460000D03*
X153000000Y-67460000D03*
X154000000Y-69460000D03*
X155000000Y-67460000D03*
X156000000Y-69460000D03*
X157000000Y-67460000D03*
%TO.N,N/C*%
X158000000Y-69460000D03*
X159000000Y-67460000D03*
%TO.N,/STATE16*%
X160000000Y-69460000D03*
%TO.N,N/C*%
X161000000Y-67460000D03*
X162000000Y-69460000D03*
X163000000Y-67460000D03*
%TO.N,VCC*%
X80000000Y-71960000D03*
X81000000Y-73960000D03*
X82000000Y-71960000D03*
X83000000Y-73960000D03*
X84000000Y-71960000D03*
%TO.N,N/C*%
X85000000Y-73960000D03*
X86000000Y-71960000D03*
X87000000Y-73960000D03*
X88000000Y-71960000D03*
X89000000Y-73960000D03*
X90000000Y-71960000D03*
%TO.N,GND*%
X93000000Y-73960000D03*
X94000000Y-71960000D03*
%TO.N,/~{RMEM}*%
X95000000Y-73960000D03*
%TO.N,/~{RSPH}*%
X96000000Y-71960000D03*
%TO.N,/~{RSPL}*%
X97000000Y-73960000D03*
%TO.N,/~{RPCH}*%
X98000000Y-71960000D03*
%TO.N,/~{RPCL}*%
X99000000Y-73960000D03*
%TO.N,/~{RARGH}*%
X100000000Y-71960000D03*
%TO.N,/~{RARGL}*%
X101000000Y-73960000D03*
%TO.N,/~{RAC}*%
X102000000Y-71960000D03*
%TO.N,/~{RXH}*%
X103000000Y-73960000D03*
%TO.N,GND*%
X104000000Y-71960000D03*
%TO.N,/~{RYL}*%
X105000000Y-73960000D03*
%TO.N,/~{RYH}*%
X106000000Y-71960000D03*
%TO.N,/~{RZL}*%
X107000000Y-73960000D03*
%TO.N,/~{RZH}*%
X108000000Y-71960000D03*
%TO.N,/~{RFR}*%
X109000000Y-73960000D03*
%TO.N,/~{RCONST}*%
X110000000Y-71960000D03*
%TO.N,/~{RALU}*%
X111000000Y-73960000D03*
%TO.N,/~{RINTC}*%
X112000000Y-71960000D03*
%TO.N,GND*%
X113000000Y-73960000D03*
%TO.N,/L0*%
X114000000Y-71960000D03*
%TO.N,/L1*%
X115000000Y-73960000D03*
%TO.N,/L2*%
X116000000Y-71960000D03*
%TO.N,/L3*%
X117000000Y-73960000D03*
%TO.N,/ALUM*%
X118000000Y-71960000D03*
%TO.N,/~{ALUCI}*%
X119000000Y-73960000D03*
%TO.N,/FRUpd*%
X120000000Y-71960000D03*
%TO.N,/R0*%
X121000000Y-73960000D03*
%TO.N,GND*%
X122000000Y-71960000D03*
%TO.N,/R1*%
X123000000Y-73960000D03*
%TO.N,/R2*%
X124000000Y-71960000D03*
%TO.N,/R3*%
X125000000Y-73960000D03*
%TO.N,/~{SCCLR}*%
X126000000Y-71960000D03*
%TO.N,/~{HALT}*%
X127000000Y-73960000D03*
%TO.N,/PCINC*%
X128000000Y-71960000D03*
%TO.N,/ALUS0*%
X129000000Y-73960000D03*
%TO.N,/ALUS1*%
X130000000Y-71960000D03*
%TO.N,GND*%
X131000000Y-73960000D03*
%TO.N,/ALUS2*%
X132000000Y-71960000D03*
%TO.N,/ALUS3*%
X133000000Y-73960000D03*
%TO.N,/SPDEC*%
X134000000Y-71960000D03*
%TO.N,/SPINC*%
X135000000Y-73960000D03*
%TO.N,/ACSHLEFT*%
X136000000Y-71960000D03*
%TO.N,/ACSHRIGHT*%
X137000000Y-73960000D03*
%TO.N,/INTE*%
X138000000Y-71960000D03*
%TO.N,/~{INTD}*%
X139000000Y-73960000D03*
%TO.N,GND*%
X140000000Y-71960000D03*
%TO.N,/ADRDEC*%
X141000000Y-73960000D03*
%TO.N,/ADRINC*%
X142000000Y-71960000D03*
%TO.N,GND*%
X143000000Y-73960000D03*
X144000000Y-71960000D03*
X145000000Y-73960000D03*
X146000000Y-71960000D03*
X147000000Y-73960000D03*
X148000000Y-71960000D03*
X149000000Y-73960000D03*
X150000000Y-71960000D03*
X151000000Y-73960000D03*
X152000000Y-71960000D03*
X153000000Y-73960000D03*
%TO.N,/~{CLK}*%
X154000000Y-71960000D03*
%TO.N,/PULSE*%
X155000000Y-73960000D03*
%TO.N,GND*%
X156000000Y-71960000D03*
X157000000Y-73960000D03*
%TO.N,N/C*%
X158000000Y-71960000D03*
X159000000Y-73960000D03*
%TO.N,/L4*%
X160000000Y-71960000D03*
%TO.N,/R4*%
X161000000Y-73960000D03*
%TO.N,N/C*%
X162000000Y-71960000D03*
X163000000Y-73960000D03*
%TD*%
D10*
%TO.N,VCC*%
%TO.C,MOD8*%
X80000000Y-117620000D03*
D11*
X81000000Y-115620000D03*
X82000000Y-117620000D03*
X83000000Y-115620000D03*
X84000000Y-117620000D03*
%TO.N,N/C*%
X85000000Y-115620000D03*
X86000000Y-117620000D03*
X87000000Y-115620000D03*
X88000000Y-117620000D03*
X89000000Y-115620000D03*
X90000000Y-117620000D03*
%TO.N,GND*%
X93000000Y-115620000D03*
X94000000Y-117620000D03*
%TO.N,/~{LMEM}*%
X95000000Y-115620000D03*
%TO.N,/LSPH*%
X96000000Y-117620000D03*
%TO.N,/LSPL*%
X97000000Y-115620000D03*
%TO.N,/LPCH*%
X98000000Y-117620000D03*
%TO.N,/LPCL*%
X99000000Y-115620000D03*
%TO.N,/~{LARGH}*%
X100000000Y-117620000D03*
%TO.N,/~{LARGL}*%
X101000000Y-115620000D03*
%TO.N,/~{LAC}*%
X102000000Y-117620000D03*
%TO.N,/~{LXH}*%
X103000000Y-115620000D03*
%TO.N,GND*%
X104000000Y-117620000D03*
%TO.N,/~{LYL}*%
X105000000Y-115620000D03*
%TO.N,/~{LYH}*%
X106000000Y-117620000D03*
%TO.N,/~{LZL}*%
X107000000Y-115620000D03*
%TO.N,/~{LZH}*%
X108000000Y-117620000D03*
%TO.N,/~{LFR}*%
X109000000Y-115620000D03*
%TO.N,/~{LINST}*%
X110000000Y-117620000D03*
%TO.N,/LADRH*%
X111000000Y-115620000D03*
%TO.N,/LADRL*%
X112000000Y-117620000D03*
%TO.N,GND*%
X113000000Y-115620000D03*
%TO.N,/STATE0*%
X114000000Y-117620000D03*
%TO.N,/STATE1*%
X115000000Y-115620000D03*
%TO.N,/STATE2*%
X116000000Y-117620000D03*
%TO.N,/STATE3*%
X117000000Y-115620000D03*
%TO.N,/STATE4*%
X118000000Y-117620000D03*
%TO.N,/STATE5*%
X119000000Y-115620000D03*
%TO.N,/STATE6*%
X120000000Y-117620000D03*
%TO.N,/STATE7*%
X121000000Y-115620000D03*
%TO.N,GND*%
X122000000Y-117620000D03*
%TO.N,/STATE8*%
X123000000Y-115620000D03*
%TO.N,/STATE9*%
X124000000Y-117620000D03*
%TO.N,/STATE10*%
X125000000Y-115620000D03*
%TO.N,/STATE11*%
X126000000Y-117620000D03*
%TO.N,/STATE12*%
X127000000Y-115620000D03*
%TO.N,/STATE13*%
X128000000Y-117620000D03*
%TO.N,/STATE14*%
X129000000Y-115620000D03*
%TO.N,/STATE15*%
X130000000Y-117620000D03*
%TO.N,GND*%
X131000000Y-115620000D03*
%TO.N,/DATA0*%
X132000000Y-117620000D03*
%TO.N,/DATA1*%
X133000000Y-115620000D03*
%TO.N,/DATA2*%
X134000000Y-117620000D03*
%TO.N,/DATA3*%
X135000000Y-115620000D03*
%TO.N,/DATA4*%
X136000000Y-117620000D03*
%TO.N,/DATA5*%
X137000000Y-115620000D03*
%TO.N,/DATA6*%
X138000000Y-117620000D03*
%TO.N,/DATA7*%
X139000000Y-115620000D03*
%TO.N,GND*%
X140000000Y-117620000D03*
%TO.N,/ALUZO*%
X141000000Y-115620000D03*
%TO.N,/~{ALUCO}*%
X142000000Y-117620000D03*
%TO.N,/ALUSO*%
X143000000Y-115620000D03*
%TO.N,GND*%
X144000000Y-117620000D03*
X145000000Y-115620000D03*
X146000000Y-117620000D03*
X147000000Y-115620000D03*
%TO.N,/INTREQ*%
X148000000Y-117620000D03*
%TO.N,/~{WAIT}*%
X149000000Y-115620000D03*
%TO.N,/RESET*%
X150000000Y-117620000D03*
%TO.N,GND*%
X151000000Y-115620000D03*
X152000000Y-117620000D03*
X153000000Y-115620000D03*
X154000000Y-117620000D03*
X155000000Y-115620000D03*
X156000000Y-117620000D03*
X157000000Y-115620000D03*
%TO.N,N/C*%
X158000000Y-117620000D03*
X159000000Y-115620000D03*
%TO.N,/STATE16*%
X160000000Y-117620000D03*
%TO.N,N/C*%
X161000000Y-115620000D03*
X162000000Y-117620000D03*
X163000000Y-115620000D03*
%TO.N,VCC*%
X80000000Y-120120000D03*
X81000000Y-122120000D03*
X82000000Y-120120000D03*
X83000000Y-122120000D03*
X84000000Y-120120000D03*
%TO.N,N/C*%
X85000000Y-122120000D03*
X86000000Y-120120000D03*
X87000000Y-122120000D03*
X88000000Y-120120000D03*
X89000000Y-122120000D03*
X90000000Y-120120000D03*
%TO.N,GND*%
X93000000Y-122120000D03*
X94000000Y-120120000D03*
%TO.N,/~{RMEM}*%
X95000000Y-122120000D03*
%TO.N,/~{RSPH}*%
X96000000Y-120120000D03*
%TO.N,/~{RSPL}*%
X97000000Y-122120000D03*
%TO.N,/~{RPCH}*%
X98000000Y-120120000D03*
%TO.N,/~{RPCL}*%
X99000000Y-122120000D03*
%TO.N,/~{RARGH}*%
X100000000Y-120120000D03*
%TO.N,/~{RARGL}*%
X101000000Y-122120000D03*
%TO.N,/~{RAC}*%
X102000000Y-120120000D03*
%TO.N,/~{RXH}*%
X103000000Y-122120000D03*
%TO.N,GND*%
X104000000Y-120120000D03*
%TO.N,/~{RYL}*%
X105000000Y-122120000D03*
%TO.N,/~{RYH}*%
X106000000Y-120120000D03*
%TO.N,/~{RZL}*%
X107000000Y-122120000D03*
%TO.N,/~{RZH}*%
X108000000Y-120120000D03*
%TO.N,/~{RFR}*%
X109000000Y-122120000D03*
%TO.N,/~{RCONST}*%
X110000000Y-120120000D03*
%TO.N,/~{RALU}*%
X111000000Y-122120000D03*
%TO.N,/~{RINTC}*%
X112000000Y-120120000D03*
%TO.N,GND*%
X113000000Y-122120000D03*
%TO.N,/L0*%
X114000000Y-120120000D03*
%TO.N,/L1*%
X115000000Y-122120000D03*
%TO.N,/L2*%
X116000000Y-120120000D03*
%TO.N,/L3*%
X117000000Y-122120000D03*
%TO.N,/ALUM*%
X118000000Y-120120000D03*
%TO.N,/~{ALUCI}*%
X119000000Y-122120000D03*
%TO.N,/FRUpd*%
X120000000Y-120120000D03*
%TO.N,/R0*%
X121000000Y-122120000D03*
%TO.N,GND*%
X122000000Y-120120000D03*
%TO.N,/R1*%
X123000000Y-122120000D03*
%TO.N,/R2*%
X124000000Y-120120000D03*
%TO.N,/R3*%
X125000000Y-122120000D03*
%TO.N,/~{SCCLR}*%
X126000000Y-120120000D03*
%TO.N,/~{HALT}*%
X127000000Y-122120000D03*
%TO.N,/PCINC*%
X128000000Y-120120000D03*
%TO.N,/ALUS0*%
X129000000Y-122120000D03*
%TO.N,/ALUS1*%
X130000000Y-120120000D03*
%TO.N,GND*%
X131000000Y-122120000D03*
%TO.N,/ALUS2*%
X132000000Y-120120000D03*
%TO.N,/ALUS3*%
X133000000Y-122120000D03*
%TO.N,/SPDEC*%
X134000000Y-120120000D03*
%TO.N,/SPINC*%
X135000000Y-122120000D03*
%TO.N,/ACSHLEFT*%
X136000000Y-120120000D03*
%TO.N,/ACSHRIGHT*%
X137000000Y-122120000D03*
%TO.N,/INTE*%
X138000000Y-120120000D03*
%TO.N,/~{INTD}*%
X139000000Y-122120000D03*
%TO.N,GND*%
X140000000Y-120120000D03*
%TO.N,/ADRDEC*%
X141000000Y-122120000D03*
%TO.N,/ADRINC*%
X142000000Y-120120000D03*
%TO.N,GND*%
X143000000Y-122120000D03*
X144000000Y-120120000D03*
X145000000Y-122120000D03*
X146000000Y-120120000D03*
X147000000Y-122120000D03*
X148000000Y-120120000D03*
X149000000Y-122120000D03*
X150000000Y-120120000D03*
X151000000Y-122120000D03*
X152000000Y-120120000D03*
X153000000Y-122120000D03*
%TO.N,/~{CLK}*%
X154000000Y-120120000D03*
%TO.N,/PULSE*%
X155000000Y-122120000D03*
%TO.N,GND*%
X156000000Y-120120000D03*
X157000000Y-122120000D03*
%TO.N,N/C*%
X158000000Y-120120000D03*
X159000000Y-122120000D03*
%TO.N,/L4*%
X160000000Y-120120000D03*
%TO.N,/R4*%
X161000000Y-122120000D03*
%TO.N,N/C*%
X162000000Y-120120000D03*
X163000000Y-122120000D03*
%TD*%
D10*
%TO.N,VCC*%
%TO.C,MOD3*%
X80000000Y-57420000D03*
D11*
X81000000Y-55420000D03*
X82000000Y-57420000D03*
X83000000Y-55420000D03*
X84000000Y-57420000D03*
%TO.N,N/C*%
X85000000Y-55420000D03*
X86000000Y-57420000D03*
X87000000Y-55420000D03*
X88000000Y-57420000D03*
X89000000Y-55420000D03*
X90000000Y-57420000D03*
%TO.N,GND*%
X93000000Y-55420000D03*
X94000000Y-57420000D03*
%TO.N,/~{LMEM}*%
X95000000Y-55420000D03*
%TO.N,/LSPH*%
X96000000Y-57420000D03*
%TO.N,/LSPL*%
X97000000Y-55420000D03*
%TO.N,/LPCH*%
X98000000Y-57420000D03*
%TO.N,/LPCL*%
X99000000Y-55420000D03*
%TO.N,/~{LARGH}*%
X100000000Y-57420000D03*
%TO.N,/~{LARGL}*%
X101000000Y-55420000D03*
%TO.N,/~{LAC}*%
X102000000Y-57420000D03*
%TO.N,/~{LXH}*%
X103000000Y-55420000D03*
%TO.N,GND*%
X104000000Y-57420000D03*
%TO.N,/~{LYL}*%
X105000000Y-55420000D03*
%TO.N,/~{LYH}*%
X106000000Y-57420000D03*
%TO.N,/~{LZL}*%
X107000000Y-55420000D03*
%TO.N,/~{LZH}*%
X108000000Y-57420000D03*
%TO.N,/~{LFR}*%
X109000000Y-55420000D03*
%TO.N,/~{LINST}*%
X110000000Y-57420000D03*
%TO.N,/LADRH*%
X111000000Y-55420000D03*
%TO.N,/LADRL*%
X112000000Y-57420000D03*
%TO.N,GND*%
X113000000Y-55420000D03*
%TO.N,/STATE0*%
X114000000Y-57420000D03*
%TO.N,/STATE1*%
X115000000Y-55420000D03*
%TO.N,/STATE2*%
X116000000Y-57420000D03*
%TO.N,/STATE3*%
X117000000Y-55420000D03*
%TO.N,/STATE4*%
X118000000Y-57420000D03*
%TO.N,/STATE5*%
X119000000Y-55420000D03*
%TO.N,/STATE6*%
X120000000Y-57420000D03*
%TO.N,/STATE7*%
X121000000Y-55420000D03*
%TO.N,GND*%
X122000000Y-57420000D03*
%TO.N,/STATE8*%
X123000000Y-55420000D03*
%TO.N,/STATE9*%
X124000000Y-57420000D03*
%TO.N,/STATE10*%
X125000000Y-55420000D03*
%TO.N,/STATE11*%
X126000000Y-57420000D03*
%TO.N,/STATE12*%
X127000000Y-55420000D03*
%TO.N,/STATE13*%
X128000000Y-57420000D03*
%TO.N,/STATE14*%
X129000000Y-55420000D03*
%TO.N,/STATE15*%
X130000000Y-57420000D03*
%TO.N,GND*%
X131000000Y-55420000D03*
%TO.N,/DATA0*%
X132000000Y-57420000D03*
%TO.N,/DATA1*%
X133000000Y-55420000D03*
%TO.N,/DATA2*%
X134000000Y-57420000D03*
%TO.N,/DATA3*%
X135000000Y-55420000D03*
%TO.N,/DATA4*%
X136000000Y-57420000D03*
%TO.N,/DATA5*%
X137000000Y-55420000D03*
%TO.N,/DATA6*%
X138000000Y-57420000D03*
%TO.N,/DATA7*%
X139000000Y-55420000D03*
%TO.N,GND*%
X140000000Y-57420000D03*
%TO.N,/ALUZO*%
X141000000Y-55420000D03*
%TO.N,/~{ALUCO}*%
X142000000Y-57420000D03*
%TO.N,/ALUSO*%
X143000000Y-55420000D03*
%TO.N,GND*%
X144000000Y-57420000D03*
X145000000Y-55420000D03*
X146000000Y-57420000D03*
X147000000Y-55420000D03*
%TO.N,/INTREQ*%
X148000000Y-57420000D03*
%TO.N,/~{WAIT}*%
X149000000Y-55420000D03*
%TO.N,/RESET*%
X150000000Y-57420000D03*
%TO.N,GND*%
X151000000Y-55420000D03*
X152000000Y-57420000D03*
X153000000Y-55420000D03*
X154000000Y-57420000D03*
X155000000Y-55420000D03*
X156000000Y-57420000D03*
X157000000Y-55420000D03*
%TO.N,N/C*%
X158000000Y-57420000D03*
X159000000Y-55420000D03*
%TO.N,/STATE16*%
X160000000Y-57420000D03*
%TO.N,N/C*%
X161000000Y-55420000D03*
X162000000Y-57420000D03*
X163000000Y-55420000D03*
%TO.N,VCC*%
X80000000Y-59920000D03*
X81000000Y-61920000D03*
X82000000Y-59920000D03*
X83000000Y-61920000D03*
X84000000Y-59920000D03*
%TO.N,N/C*%
X85000000Y-61920000D03*
X86000000Y-59920000D03*
X87000000Y-61920000D03*
X88000000Y-59920000D03*
X89000000Y-61920000D03*
X90000000Y-59920000D03*
%TO.N,GND*%
X93000000Y-61920000D03*
X94000000Y-59920000D03*
%TO.N,/~{RMEM}*%
X95000000Y-61920000D03*
%TO.N,/~{RSPH}*%
X96000000Y-59920000D03*
%TO.N,/~{RSPL}*%
X97000000Y-61920000D03*
%TO.N,/~{RPCH}*%
X98000000Y-59920000D03*
%TO.N,/~{RPCL}*%
X99000000Y-61920000D03*
%TO.N,/~{RARGH}*%
X100000000Y-59920000D03*
%TO.N,/~{RARGL}*%
X101000000Y-61920000D03*
%TO.N,/~{RAC}*%
X102000000Y-59920000D03*
%TO.N,/~{RXH}*%
X103000000Y-61920000D03*
%TO.N,GND*%
X104000000Y-59920000D03*
%TO.N,/~{RYL}*%
X105000000Y-61920000D03*
%TO.N,/~{RYH}*%
X106000000Y-59920000D03*
%TO.N,/~{RZL}*%
X107000000Y-61920000D03*
%TO.N,/~{RZH}*%
X108000000Y-59920000D03*
%TO.N,/~{RFR}*%
X109000000Y-61920000D03*
%TO.N,/~{RCONST}*%
X110000000Y-59920000D03*
%TO.N,/~{RALU}*%
X111000000Y-61920000D03*
%TO.N,/~{RINTC}*%
X112000000Y-59920000D03*
%TO.N,GND*%
X113000000Y-61920000D03*
%TO.N,/L0*%
X114000000Y-59920000D03*
%TO.N,/L1*%
X115000000Y-61920000D03*
%TO.N,/L2*%
X116000000Y-59920000D03*
%TO.N,/L3*%
X117000000Y-61920000D03*
%TO.N,/ALUM*%
X118000000Y-59920000D03*
%TO.N,/~{ALUCI}*%
X119000000Y-61920000D03*
%TO.N,/FRUpd*%
X120000000Y-59920000D03*
%TO.N,/R0*%
X121000000Y-61920000D03*
%TO.N,GND*%
X122000000Y-59920000D03*
%TO.N,/R1*%
X123000000Y-61920000D03*
%TO.N,/R2*%
X124000000Y-59920000D03*
%TO.N,/R3*%
X125000000Y-61920000D03*
%TO.N,/~{SCCLR}*%
X126000000Y-59920000D03*
%TO.N,/~{HALT}*%
X127000000Y-61920000D03*
%TO.N,/PCINC*%
X128000000Y-59920000D03*
%TO.N,/ALUS0*%
X129000000Y-61920000D03*
%TO.N,/ALUS1*%
X130000000Y-59920000D03*
%TO.N,GND*%
X131000000Y-61920000D03*
%TO.N,/ALUS2*%
X132000000Y-59920000D03*
%TO.N,/ALUS3*%
X133000000Y-61920000D03*
%TO.N,/SPDEC*%
X134000000Y-59920000D03*
%TO.N,/SPINC*%
X135000000Y-61920000D03*
%TO.N,/ACSHLEFT*%
X136000000Y-59920000D03*
%TO.N,/ACSHRIGHT*%
X137000000Y-61920000D03*
%TO.N,/INTE*%
X138000000Y-59920000D03*
%TO.N,/~{INTD}*%
X139000000Y-61920000D03*
%TO.N,GND*%
X140000000Y-59920000D03*
%TO.N,/ADRDEC*%
X141000000Y-61920000D03*
%TO.N,/ADRINC*%
X142000000Y-59920000D03*
%TO.N,GND*%
X143000000Y-61920000D03*
X144000000Y-59920000D03*
X145000000Y-61920000D03*
X146000000Y-59920000D03*
X147000000Y-61920000D03*
X148000000Y-59920000D03*
X149000000Y-61920000D03*
X150000000Y-59920000D03*
X151000000Y-61920000D03*
X152000000Y-59920000D03*
X153000000Y-61920000D03*
%TO.N,/~{CLK}*%
X154000000Y-59920000D03*
%TO.N,/PULSE*%
X155000000Y-61920000D03*
%TO.N,GND*%
X156000000Y-59920000D03*
X157000000Y-61920000D03*
%TO.N,N/C*%
X158000000Y-59920000D03*
X159000000Y-61920000D03*
%TO.N,/L4*%
X160000000Y-59920000D03*
%TO.N,/R4*%
X161000000Y-61920000D03*
%TO.N,N/C*%
X162000000Y-59920000D03*
X163000000Y-61920000D03*
%TD*%
D14*
%TO.N,GND*%
%TO.C,J2*%
X96840000Y-27500000D03*
D15*
X99380000Y-27500000D03*
%TO.N,/~{SCCLR}*%
X101920000Y-27500000D03*
%TO.N,/PCINC*%
X104460000Y-27500000D03*
%TO.N,/STATE8*%
X107000000Y-27500000D03*
%TO.N,/STATE9*%
X109540000Y-27500000D03*
%TO.N,/STATE10*%
X112080000Y-27500000D03*
%TO.N,/STATE11*%
X114620000Y-27500000D03*
%TO.N,/STATE12*%
X117160000Y-27500000D03*
%TO.N,/STATE13*%
X119700000Y-27500000D03*
%TO.N,/STATE14*%
X122240000Y-27500000D03*
%TO.N,/STATE15*%
X124780000Y-27500000D03*
%TO.N,/DATA0*%
X127320000Y-27500000D03*
%TO.N,/DATA1*%
X129860000Y-27500000D03*
%TO.N,/DATA2*%
X132400000Y-27500000D03*
%TO.N,/DATA3*%
X134940000Y-27500000D03*
%TO.N,/DATA4*%
X137480000Y-27500000D03*
%TO.N,/DATA5*%
X140020000Y-27500000D03*
%TO.N,/DATA6*%
X142560000Y-27500000D03*
%TO.N,/DATA7*%
X145100000Y-27500000D03*
%TD*%
D10*
%TO.N,VCC*%
%TO.C,MOD1*%
X80000000Y-33340000D03*
D11*
X81000000Y-31340000D03*
X82000000Y-33340000D03*
X83000000Y-31340000D03*
X84000000Y-33340000D03*
%TO.N,N/C*%
X85000000Y-31340000D03*
X86000000Y-33340000D03*
X87000000Y-31340000D03*
X88000000Y-33340000D03*
X89000000Y-31340000D03*
X90000000Y-33340000D03*
%TO.N,GND*%
X93000000Y-31340000D03*
X94000000Y-33340000D03*
%TO.N,/~{LMEM}*%
X95000000Y-31340000D03*
%TO.N,/LSPH*%
X96000000Y-33340000D03*
%TO.N,/LSPL*%
X97000000Y-31340000D03*
%TO.N,/LPCH*%
X98000000Y-33340000D03*
%TO.N,/LPCL*%
X99000000Y-31340000D03*
%TO.N,/~{LARGH}*%
X100000000Y-33340000D03*
%TO.N,/~{LARGL}*%
X101000000Y-31340000D03*
%TO.N,/~{LAC}*%
X102000000Y-33340000D03*
%TO.N,/~{LXH}*%
X103000000Y-31340000D03*
%TO.N,GND*%
X104000000Y-33340000D03*
%TO.N,/~{LYL}*%
X105000000Y-31340000D03*
%TO.N,/~{LYH}*%
X106000000Y-33340000D03*
%TO.N,/~{LZL}*%
X107000000Y-31340000D03*
%TO.N,/~{LZH}*%
X108000000Y-33340000D03*
%TO.N,/~{LFR}*%
X109000000Y-31340000D03*
%TO.N,/~{LINST}*%
X110000000Y-33340000D03*
%TO.N,/LADRH*%
X111000000Y-31340000D03*
%TO.N,/LADRL*%
X112000000Y-33340000D03*
%TO.N,GND*%
X113000000Y-31340000D03*
%TO.N,/STATE0*%
X114000000Y-33340000D03*
%TO.N,/STATE1*%
X115000000Y-31340000D03*
%TO.N,/STATE2*%
X116000000Y-33340000D03*
%TO.N,/STATE3*%
X117000000Y-31340000D03*
%TO.N,/STATE4*%
X118000000Y-33340000D03*
%TO.N,/STATE5*%
X119000000Y-31340000D03*
%TO.N,/STATE6*%
X120000000Y-33340000D03*
%TO.N,/STATE7*%
X121000000Y-31340000D03*
%TO.N,GND*%
X122000000Y-33340000D03*
%TO.N,/STATE8*%
X123000000Y-31340000D03*
%TO.N,/STATE9*%
X124000000Y-33340000D03*
%TO.N,/STATE10*%
X125000000Y-31340000D03*
%TO.N,/STATE11*%
X126000000Y-33340000D03*
%TO.N,/STATE12*%
X127000000Y-31340000D03*
%TO.N,/STATE13*%
X128000000Y-33340000D03*
%TO.N,/STATE14*%
X129000000Y-31340000D03*
%TO.N,/STATE15*%
X130000000Y-33340000D03*
%TO.N,GND*%
X131000000Y-31340000D03*
%TO.N,/DATA0*%
X132000000Y-33340000D03*
%TO.N,/DATA1*%
X133000000Y-31340000D03*
%TO.N,/DATA2*%
X134000000Y-33340000D03*
%TO.N,/DATA3*%
X135000000Y-31340000D03*
%TO.N,/DATA4*%
X136000000Y-33340000D03*
%TO.N,/DATA5*%
X137000000Y-31340000D03*
%TO.N,/DATA6*%
X138000000Y-33340000D03*
%TO.N,/DATA7*%
X139000000Y-31340000D03*
%TO.N,GND*%
X140000000Y-33340000D03*
%TO.N,/ALUZO*%
X141000000Y-31340000D03*
%TO.N,/~{ALUCO}*%
X142000000Y-33340000D03*
%TO.N,/ALUSO*%
X143000000Y-31340000D03*
%TO.N,GND*%
X144000000Y-33340000D03*
X145000000Y-31340000D03*
X146000000Y-33340000D03*
X147000000Y-31340000D03*
%TO.N,/INTREQ*%
X148000000Y-33340000D03*
%TO.N,/~{WAIT}*%
X149000000Y-31340000D03*
%TO.N,/RESET*%
X150000000Y-33340000D03*
%TO.N,GND*%
X151000000Y-31340000D03*
X152000000Y-33340000D03*
X153000000Y-31340000D03*
X154000000Y-33340000D03*
X155000000Y-31340000D03*
X156000000Y-33340000D03*
X157000000Y-31340000D03*
%TO.N,N/C*%
X158000000Y-33340000D03*
X159000000Y-31340000D03*
%TO.N,/STATE16*%
X160000000Y-33340000D03*
%TO.N,N/C*%
X161000000Y-31340000D03*
X162000000Y-33340000D03*
X163000000Y-31340000D03*
%TO.N,VCC*%
X80000000Y-35840000D03*
X81000000Y-37840000D03*
X82000000Y-35840000D03*
X83000000Y-37840000D03*
X84000000Y-35840000D03*
%TO.N,N/C*%
X85000000Y-37840000D03*
X86000000Y-35840000D03*
X87000000Y-37840000D03*
X88000000Y-35840000D03*
X89000000Y-37840000D03*
X90000000Y-35840000D03*
%TO.N,GND*%
X93000000Y-37840000D03*
X94000000Y-35840000D03*
%TO.N,/~{RMEM}*%
X95000000Y-37840000D03*
%TO.N,/~{RSPH}*%
X96000000Y-35840000D03*
%TO.N,/~{RSPL}*%
X97000000Y-37840000D03*
%TO.N,/~{RPCH}*%
X98000000Y-35840000D03*
%TO.N,/~{RPCL}*%
X99000000Y-37840000D03*
%TO.N,/~{RARGH}*%
X100000000Y-35840000D03*
%TO.N,/~{RARGL}*%
X101000000Y-37840000D03*
%TO.N,/~{RAC}*%
X102000000Y-35840000D03*
%TO.N,/~{RXH}*%
X103000000Y-37840000D03*
%TO.N,GND*%
X104000000Y-35840000D03*
%TO.N,/~{RYL}*%
X105000000Y-37840000D03*
%TO.N,/~{RYH}*%
X106000000Y-35840000D03*
%TO.N,/~{RZL}*%
X107000000Y-37840000D03*
%TO.N,/~{RZH}*%
X108000000Y-35840000D03*
%TO.N,/~{RFR}*%
X109000000Y-37840000D03*
%TO.N,/~{RCONST}*%
X110000000Y-35840000D03*
%TO.N,/~{RALU}*%
X111000000Y-37840000D03*
%TO.N,/~{RINTC}*%
X112000000Y-35840000D03*
%TO.N,GND*%
X113000000Y-37840000D03*
%TO.N,/L0*%
X114000000Y-35840000D03*
%TO.N,/L1*%
X115000000Y-37840000D03*
%TO.N,/L2*%
X116000000Y-35840000D03*
%TO.N,/L3*%
X117000000Y-37840000D03*
%TO.N,/ALUM*%
X118000000Y-35840000D03*
%TO.N,/~{ALUCI}*%
X119000000Y-37840000D03*
%TO.N,/FRUpd*%
X120000000Y-35840000D03*
%TO.N,/R0*%
X121000000Y-37840000D03*
%TO.N,GND*%
X122000000Y-35840000D03*
%TO.N,/R1*%
X123000000Y-37840000D03*
%TO.N,/R2*%
X124000000Y-35840000D03*
%TO.N,/R3*%
X125000000Y-37840000D03*
%TO.N,/~{SCCLR}*%
X126000000Y-35840000D03*
%TO.N,/~{HALT}*%
X127000000Y-37840000D03*
%TO.N,/PCINC*%
X128000000Y-35840000D03*
%TO.N,/ALUS0*%
X129000000Y-37840000D03*
%TO.N,/ALUS1*%
X130000000Y-35840000D03*
%TO.N,GND*%
X131000000Y-37840000D03*
%TO.N,/ALUS2*%
X132000000Y-35840000D03*
%TO.N,/ALUS3*%
X133000000Y-37840000D03*
%TO.N,/SPDEC*%
X134000000Y-35840000D03*
%TO.N,/SPINC*%
X135000000Y-37840000D03*
%TO.N,/ACSHLEFT*%
X136000000Y-35840000D03*
%TO.N,/ACSHRIGHT*%
X137000000Y-37840000D03*
%TO.N,/INTE*%
X138000000Y-35840000D03*
%TO.N,/~{INTD}*%
X139000000Y-37840000D03*
%TO.N,GND*%
X140000000Y-35840000D03*
%TO.N,/ADRDEC*%
X141000000Y-37840000D03*
%TO.N,/ADRINC*%
X142000000Y-35840000D03*
%TO.N,GND*%
X143000000Y-37840000D03*
X144000000Y-35840000D03*
X145000000Y-37840000D03*
X146000000Y-35840000D03*
X147000000Y-37840000D03*
X148000000Y-35840000D03*
X149000000Y-37840000D03*
X150000000Y-35840000D03*
X151000000Y-37840000D03*
X152000000Y-35840000D03*
X153000000Y-37840000D03*
%TO.N,/~{CLK}*%
X154000000Y-35840000D03*
%TO.N,/PULSE*%
X155000000Y-37840000D03*
%TO.N,GND*%
X156000000Y-35840000D03*
X157000000Y-37840000D03*
%TO.N,N/C*%
X158000000Y-35840000D03*
X159000000Y-37840000D03*
%TO.N,/L4*%
X160000000Y-35840000D03*
%TO.N,/R4*%
X161000000Y-37840000D03*
%TO.N,N/C*%
X162000000Y-35840000D03*
X163000000Y-37840000D03*
%TD*%
D16*
%TO.N,/~{ALUCO}*%
X142945000Y-82445000D02*
X142945000Y-84391432D01*
X142945000Y-48271432D02*
X142000000Y-49216432D01*
X142000000Y-69460000D02*
X142945000Y-70405000D01*
X142000000Y-85336432D02*
X142000000Y-93540000D01*
X142000000Y-97376432D02*
X142000000Y-105580000D01*
X142945000Y-34285000D02*
X142945000Y-36231432D01*
X142945000Y-36231432D02*
X142000000Y-37176432D01*
X142945000Y-108471432D02*
X142000000Y-109416432D01*
X142000000Y-61583568D02*
X142000000Y-69460000D01*
X142945000Y-84391432D02*
X142000000Y-85336432D01*
X142000000Y-73296432D02*
X142000000Y-81500000D01*
X142000000Y-81500000D02*
X142945000Y-82445000D01*
X142000000Y-37176432D02*
X142000000Y-45380000D01*
X142945000Y-96431432D02*
X142000000Y-97376432D01*
X142945000Y-46325000D02*
X142945000Y-48271432D01*
X142945000Y-106525000D02*
X142945000Y-108471432D01*
X142000000Y-109416432D02*
X142000000Y-117620000D01*
X142000000Y-49216432D02*
X142000000Y-57420000D01*
X143000000Y-60583568D02*
X142000000Y-61583568D01*
X142000000Y-105580000D02*
X142945000Y-106525000D01*
X142000000Y-57420000D02*
X143000000Y-58420000D01*
X142945000Y-72351432D02*
X142000000Y-73296432D01*
X142945000Y-70405000D02*
X142945000Y-72351432D01*
X142000000Y-33340000D02*
X142945000Y-34285000D01*
X143000000Y-58420000D02*
X143000000Y-60583568D01*
X142000000Y-93540000D02*
X142945000Y-94485000D01*
X142000000Y-45380000D02*
X142945000Y-46325000D01*
X142945000Y-94485000D02*
X142945000Y-96431432D01*
%TO.N,/STATE13*%
X128945000Y-84391432D02*
X128000000Y-85336432D01*
X128000000Y-49543568D02*
X128000000Y-57420000D01*
X128945000Y-96431432D02*
X128000000Y-97376432D01*
X128945000Y-36231432D02*
X128000000Y-37176432D01*
X128945000Y-70405000D02*
X128945000Y-72351432D01*
X128000000Y-93540000D02*
X128945000Y-94485000D01*
X128000000Y-45380000D02*
X129055000Y-46435000D01*
X128945000Y-108471432D02*
X128000000Y-109416432D01*
X128945000Y-106525000D02*
X128945000Y-108471432D01*
X128000000Y-61256432D02*
X128000000Y-69460000D01*
X128945000Y-58365000D02*
X128945000Y-60311432D01*
X128945000Y-34285000D02*
X128945000Y-36231432D01*
X128945000Y-60311432D02*
X128000000Y-61256432D01*
X128000000Y-37176432D02*
X128000000Y-45380000D01*
X128000000Y-85336432D02*
X128000000Y-93540000D01*
X128000000Y-69460000D02*
X128945000Y-70405000D01*
X128000000Y-109416432D02*
X128000000Y-117620000D01*
X128945000Y-72351432D02*
X128000000Y-73296432D01*
X128000000Y-97376432D02*
X128000000Y-105580000D01*
X128000000Y-105580000D02*
X128945000Y-106525000D01*
X128000000Y-73296432D02*
X128000000Y-81500000D01*
X128000000Y-33340000D02*
X128945000Y-34285000D01*
X128945000Y-82445000D02*
X128945000Y-84391432D01*
X129055000Y-46435000D02*
X129055000Y-48488568D01*
X128000000Y-81500000D02*
X128945000Y-82445000D01*
X128000000Y-57420000D02*
X128945000Y-58365000D01*
X128945000Y-94485000D02*
X128945000Y-96431432D01*
X129055000Y-48488568D02*
X128000000Y-49543568D01*
D17*
%TO.N,GND*%
X104000000Y-33340000D02*
X104000000Y-120120000D01*
X140000000Y-120120000D02*
X140000000Y-33340000D01*
D16*
%TO.N,/STATE16*%
X160000000Y-37176432D02*
X160000000Y-45380000D01*
X160000000Y-57420000D02*
X160945000Y-58365000D01*
X160945000Y-108471432D02*
X160000000Y-109416432D01*
X160945000Y-106525000D02*
X160945000Y-108471432D01*
X160945000Y-60311432D02*
X160000000Y-61256432D01*
X160945000Y-82445000D02*
X160945000Y-84391432D01*
X160000000Y-73296432D02*
X160000000Y-81500000D01*
X160945000Y-36231432D02*
X160000000Y-37176432D01*
X160945000Y-94485000D02*
X160945000Y-96431432D01*
X160000000Y-93540000D02*
X160945000Y-94485000D01*
X160945000Y-46325000D02*
X160945000Y-48488568D01*
X160000000Y-81500000D02*
X160945000Y-82445000D01*
X160000000Y-97376432D02*
X160000000Y-105580000D01*
X160000000Y-33340000D02*
X160945000Y-34285000D01*
X160945000Y-70405000D02*
X160945000Y-72351432D01*
X160000000Y-49433568D02*
X160000000Y-57420000D01*
X160000000Y-109416432D02*
X160000000Y-117620000D01*
X160000000Y-85336432D02*
X160000000Y-93540000D01*
X160000000Y-61256432D02*
X160000000Y-69460000D01*
X160000000Y-69460000D02*
X160945000Y-70405000D01*
X160945000Y-84391432D02*
X160000000Y-85336432D01*
X160945000Y-34285000D02*
X160945000Y-36231432D01*
X160945000Y-58365000D02*
X160945000Y-60311432D01*
X160000000Y-45380000D02*
X160945000Y-46325000D01*
X160945000Y-48488568D02*
X160000000Y-49433568D01*
X160945000Y-72351432D02*
X160000000Y-73296432D01*
X160000000Y-105580000D02*
X160945000Y-106525000D01*
X160945000Y-96431432D02*
X160000000Y-97376432D01*
%TO.N,/STATE0*%
X114000000Y-105580000D02*
X114945000Y-106525000D01*
X114000000Y-61473568D02*
X114000000Y-69460000D01*
X114945000Y-46325000D02*
X114945000Y-48271432D01*
X114945000Y-36231432D02*
X114000000Y-37176432D01*
X114000000Y-73296432D02*
X114000000Y-81500000D01*
X114000000Y-57420000D02*
X114945000Y-58365000D01*
X114000000Y-85553568D02*
X114000000Y-93540000D01*
X114945000Y-108471432D02*
X114000000Y-109416432D01*
X114945000Y-106525000D02*
X114945000Y-108471432D01*
X114000000Y-109416432D02*
X114000000Y-117620000D01*
X114945000Y-48271432D02*
X114000000Y-49216432D01*
X114945000Y-82445000D02*
X114945000Y-84608568D01*
X114000000Y-93540000D02*
X115000000Y-94540000D01*
X114000000Y-45380000D02*
X114945000Y-46325000D01*
X114945000Y-58365000D02*
X114945000Y-60528568D01*
X114000000Y-81500000D02*
X114945000Y-82445000D01*
X114945000Y-72351432D02*
X114000000Y-73296432D01*
X114945000Y-70405000D02*
X114945000Y-72351432D01*
X114000000Y-49216432D02*
X114000000Y-57420000D01*
X114000000Y-33340000D02*
X114945000Y-34285000D01*
X115000000Y-96703568D02*
X114000000Y-97703568D01*
X115000000Y-94540000D02*
X115000000Y-96703568D01*
X114945000Y-84608568D02*
X114000000Y-85553568D01*
X114000000Y-97703568D02*
X114000000Y-105580000D01*
X114945000Y-60528568D02*
X114000000Y-61473568D01*
X114000000Y-69460000D02*
X114945000Y-70405000D01*
X114000000Y-37176432D02*
X114000000Y-45380000D01*
X114945000Y-34285000D02*
X114945000Y-36231432D01*
%TO.N,/DATA7*%
X140232100Y-30395000D02*
X139287100Y-31340000D01*
X145100000Y-27500000D02*
X142205000Y-30395000D01*
X142205000Y-30395000D02*
X140232100Y-30395000D01*
X139287100Y-31340000D02*
X139000000Y-31340000D01*
%TO.N,/STATE8*%
X110000000Y-31676432D02*
X110608568Y-32285000D01*
X107000000Y-27500000D02*
X110000000Y-30500000D01*
X122055000Y-32285000D02*
X123000000Y-31340000D01*
X110608568Y-32285000D02*
X122055000Y-32285000D01*
X110000000Y-30500000D02*
X110000000Y-31676432D01*
%TO.N,/~{LAC}*%
X102000000Y-57420000D02*
X102945000Y-58365000D01*
X102000000Y-69460000D02*
X102945000Y-70405000D01*
X102945000Y-94485000D02*
X102945000Y-96431432D01*
X102945000Y-58365000D02*
X102945000Y-60311432D01*
X102945000Y-34285000D02*
X102945000Y-36231432D01*
X102945000Y-36231432D02*
X102000000Y-37176432D01*
X102000000Y-85336432D02*
X102000000Y-93540000D01*
X102945000Y-84391432D02*
X102000000Y-85336432D01*
X102000000Y-49216432D02*
X102000000Y-57420000D01*
X102000000Y-117620000D02*
X102000000Y-109416432D01*
X102000000Y-73296432D02*
X102000000Y-81500000D01*
X102000000Y-93540000D02*
X102945000Y-94485000D01*
X102945000Y-108471432D02*
X102945000Y-106525000D01*
X102945000Y-82445000D02*
X102945000Y-84391432D01*
X102945000Y-72351432D02*
X102000000Y-73296432D01*
X102945000Y-60311432D02*
X102000000Y-61256432D01*
X102945000Y-48271432D02*
X102000000Y-49216432D01*
X102945000Y-70405000D02*
X102945000Y-72351432D01*
X102000000Y-33340000D02*
X102945000Y-34285000D01*
X102000000Y-45380000D02*
X102945000Y-46325000D01*
X102000000Y-61256432D02*
X102000000Y-69460000D01*
X102945000Y-106525000D02*
X102000000Y-105580000D01*
X102000000Y-37176432D02*
X102000000Y-45380000D01*
X102945000Y-46325000D02*
X102945000Y-48271432D01*
X102945000Y-96431432D02*
X102000000Y-97376432D01*
X102000000Y-97376432D02*
X102000000Y-105580000D01*
X102000000Y-109416432D02*
X102945000Y-108471432D01*
X102000000Y-81500000D02*
X102945000Y-82445000D01*
%TO.N,/DATA6*%
X138000000Y-85336432D02*
X138000000Y-93540000D01*
X138000000Y-37176432D02*
X138000000Y-45380000D01*
X138945000Y-58365000D02*
X138945000Y-60311432D01*
X138945000Y-72351432D02*
X138000000Y-73296432D01*
X138945000Y-34285000D02*
X138945000Y-36231432D01*
X138000000Y-81500000D02*
X138945000Y-82445000D01*
X138000000Y-45380000D02*
X138945000Y-46325000D01*
X138945000Y-36231432D02*
X138000000Y-37176432D01*
X138608568Y-30395000D02*
X138000000Y-31003568D01*
X138000000Y-69460000D02*
X138945000Y-70405000D01*
X138000000Y-105580000D02*
X138945000Y-106525000D01*
X138945000Y-82445000D02*
X138945000Y-84391432D01*
X138000000Y-33340000D02*
X138945000Y-34285000D01*
X138945000Y-106525000D02*
X138945000Y-108471432D01*
X138000000Y-49216432D02*
X138000000Y-57420000D01*
X138945000Y-96648568D02*
X138000000Y-97593568D01*
X139665000Y-30395000D02*
X138608568Y-30395000D01*
X138000000Y-61256432D02*
X138000000Y-69460000D01*
X138000000Y-109416432D02*
X138000000Y-117620000D01*
X138000000Y-57420000D02*
X138945000Y-58365000D01*
X138000000Y-93540000D02*
X138945000Y-94485000D01*
X138945000Y-108471432D02*
X138000000Y-109416432D01*
X138000000Y-73296432D02*
X138000000Y-81500000D01*
X138000000Y-97593568D02*
X138000000Y-105580000D01*
X138945000Y-60311432D02*
X138000000Y-61256432D01*
X138000000Y-31003568D02*
X138000000Y-33340000D01*
X138945000Y-84391432D02*
X138000000Y-85336432D01*
X138945000Y-46325000D02*
X138945000Y-48271432D01*
X142560000Y-27500000D02*
X139665000Y-30395000D01*
X138945000Y-94485000D02*
X138945000Y-96648568D01*
X138945000Y-48271432D02*
X138000000Y-49216432D01*
X138945000Y-70405000D02*
X138945000Y-72351432D01*
%TO.N,/STATE2*%
X117000000Y-82500000D02*
X116000000Y-81500000D01*
X116945000Y-60311432D02*
X116945000Y-58365000D01*
X116000000Y-37503568D02*
X116000000Y-45380000D01*
X116945000Y-106525000D02*
X116000000Y-105580000D01*
X116945000Y-94485000D02*
X116000000Y-93540000D01*
X116945000Y-108471432D02*
X116945000Y-106525000D01*
X116000000Y-85336432D02*
X117000000Y-84336432D01*
X116000000Y-93540000D02*
X116000000Y-85336432D01*
X116000000Y-33340000D02*
X117000000Y-34340000D01*
X116000000Y-69460000D02*
X116000000Y-61256432D01*
X116000000Y-73623568D02*
X116945000Y-72678568D01*
X117000000Y-36503568D02*
X116000000Y-37503568D01*
X116945000Y-58365000D02*
X116000000Y-57420000D01*
X117000000Y-48543568D02*
X116000000Y-49543568D01*
X116000000Y-61256432D02*
X116945000Y-60311432D01*
X116945000Y-72678568D02*
X116945000Y-70405000D01*
X116000000Y-49543568D02*
X116000000Y-57420000D01*
X116000000Y-45380000D02*
X117000000Y-46380000D01*
X116000000Y-117620000D02*
X116000000Y-109416432D01*
X117000000Y-46380000D02*
X117000000Y-48543568D01*
X116945000Y-70405000D02*
X116000000Y-69460000D01*
X116945000Y-96431432D02*
X116945000Y-94485000D01*
X116000000Y-109416432D02*
X116945000Y-108471432D01*
X116000000Y-81500000D02*
X116000000Y-73623568D01*
X117000000Y-34340000D02*
X117000000Y-36503568D01*
X116000000Y-97376432D02*
X116945000Y-96431432D01*
X116000000Y-105580000D02*
X116000000Y-97376432D01*
X117000000Y-84336432D02*
X117000000Y-82500000D01*
%TO.N,/STATE15*%
X130000000Y-97376432D02*
X130000000Y-105580000D01*
X131000000Y-48543568D02*
X130000000Y-49543568D01*
X130945000Y-70405000D02*
X130945000Y-72351432D01*
X130000000Y-69460000D02*
X130945000Y-70405000D01*
X130000000Y-73296432D02*
X130000000Y-81500000D01*
X130000000Y-37176432D02*
X130000000Y-45380000D01*
X128055000Y-30775000D02*
X128055000Y-32058568D01*
X130945000Y-72351432D02*
X130000000Y-73296432D01*
X128055000Y-32058568D02*
X129336432Y-33340000D01*
X130945000Y-36231432D02*
X130000000Y-37176432D01*
X130945000Y-60311432D02*
X130000000Y-61256432D01*
X130945000Y-34285000D02*
X130945000Y-36231432D01*
X129336432Y-33340000D02*
X130000000Y-33340000D01*
X130000000Y-117620000D02*
X130000000Y-109416432D01*
X124780000Y-27500000D02*
X128055000Y-30775000D01*
X130000000Y-45380000D02*
X131000000Y-46380000D01*
X130000000Y-81500000D02*
X130945000Y-82445000D01*
X130945000Y-106525000D02*
X130000000Y-105580000D01*
X130000000Y-93540000D02*
X130945000Y-94485000D01*
X130945000Y-58365000D02*
X130945000Y-60311432D01*
X131000000Y-46380000D02*
X131000000Y-48543568D01*
X130000000Y-61256432D02*
X130000000Y-69460000D01*
X130000000Y-85336432D02*
X130000000Y-93540000D01*
X130000000Y-109416432D02*
X130945000Y-108471432D01*
X130000000Y-57420000D02*
X130945000Y-58365000D01*
X130945000Y-94485000D02*
X130945000Y-96431432D01*
X130945000Y-96431432D02*
X130000000Y-97376432D01*
X130945000Y-108471432D02*
X130945000Y-106525000D01*
X130000000Y-49543568D02*
X130000000Y-57420000D01*
X130945000Y-84391432D02*
X130000000Y-85336432D01*
X130945000Y-82445000D02*
X130945000Y-84391432D01*
X130000000Y-33340000D02*
X130945000Y-34285000D01*
%TO.N,/DATA1*%
X129860000Y-27500000D02*
X133000000Y-30640000D01*
X133000000Y-30640000D02*
X133000000Y-31340000D01*
%TO.N,/~{LARGH}*%
X100945000Y-96431432D02*
X100000000Y-97376432D01*
X100945000Y-108471432D02*
X100000000Y-109416432D01*
X100000000Y-93540000D02*
X100945000Y-94485000D01*
X100945000Y-60311432D02*
X100000000Y-61256432D01*
X100000000Y-45380000D02*
X100945000Y-46325000D01*
X100000000Y-61256432D02*
X100000000Y-69460000D01*
X100945000Y-46325000D02*
X100945000Y-48598568D01*
X100000000Y-69460000D02*
X100945000Y-70405000D01*
X100000000Y-105580000D02*
X100945000Y-106525000D01*
X100945000Y-106525000D02*
X100945000Y-108471432D01*
X100000000Y-109416432D02*
X100000000Y-117620000D01*
X100000000Y-97376432D02*
X100000000Y-105580000D01*
X100000000Y-37393568D02*
X100000000Y-45380000D01*
X100945000Y-72351432D02*
X100000000Y-73296432D01*
X100945000Y-94485000D02*
X100945000Y-96431432D01*
X100945000Y-34285000D02*
X100945000Y-36448568D01*
X100000000Y-49543568D02*
X100000000Y-57420000D01*
X100945000Y-82445000D02*
X100945000Y-84608568D01*
X100945000Y-70405000D02*
X100945000Y-72351432D01*
X100945000Y-84608568D02*
X100000000Y-85553568D01*
X100945000Y-36448568D02*
X100000000Y-37393568D01*
X100000000Y-81500000D02*
X100945000Y-82445000D01*
X100000000Y-57420000D02*
X100945000Y-58365000D01*
X100945000Y-48598568D02*
X100000000Y-49543568D01*
X100945000Y-58365000D02*
X100945000Y-60311432D01*
X100000000Y-33340000D02*
X100945000Y-34285000D01*
X100000000Y-85553568D02*
X100000000Y-93540000D01*
X100000000Y-73296432D02*
X100000000Y-81500000D01*
D17*
%TO.N,/LSPH*%
X97005000Y-72547857D02*
X96000000Y-73552857D01*
X97005000Y-96627857D02*
X96000000Y-97632857D01*
X96000000Y-73552857D02*
X96000000Y-81500000D01*
X96000000Y-109672857D02*
X96000000Y-117620000D01*
X96000000Y-69460000D02*
X96000000Y-61512857D01*
X96000000Y-93540000D02*
X97005000Y-94545000D01*
D16*
X96945000Y-46325000D02*
X96945000Y-48271432D01*
D17*
X97005000Y-94545000D02*
X97005000Y-96627857D01*
X97005000Y-60507857D02*
X97005000Y-58425000D01*
X96000000Y-81500000D02*
X97000000Y-82500000D01*
D16*
X96000000Y-49216432D02*
X96000000Y-57420000D01*
D17*
X97005000Y-58425000D02*
X96000000Y-57420000D01*
X97005000Y-70465000D02*
X97005000Y-72547857D01*
D16*
X96000000Y-37176432D02*
X96000000Y-45380000D01*
D17*
X97000000Y-84592857D02*
X96000000Y-85592857D01*
X97000000Y-82500000D02*
X97000000Y-84592857D01*
X96000000Y-85592857D02*
X96000000Y-93540000D01*
X96000000Y-69460000D02*
X97005000Y-70465000D01*
D16*
X96000000Y-33340000D02*
X96945000Y-34285000D01*
D17*
X97005000Y-106585000D02*
X97005000Y-108667857D01*
X96000000Y-97632857D02*
X96000000Y-105580000D01*
D16*
X96945000Y-48271432D02*
X96000000Y-49216432D01*
D17*
X97005000Y-108667857D02*
X96000000Y-109672857D01*
X96000000Y-105580000D02*
X97005000Y-106585000D01*
D16*
X96000000Y-45380000D02*
X96945000Y-46325000D01*
X96945000Y-36231432D02*
X96000000Y-37176432D01*
D17*
X96000000Y-61512857D02*
X97005000Y-60507857D01*
D16*
X96945000Y-34285000D02*
X96945000Y-36231432D01*
%TO.N,/DATA4*%
X136000000Y-109743568D02*
X136000000Y-117620000D01*
X137000000Y-94540000D02*
X137000000Y-96703568D01*
X137000000Y-106580000D02*
X137000000Y-108743568D01*
X136945000Y-34285000D02*
X136945000Y-36448568D01*
X136945000Y-48271432D02*
X136000000Y-49216432D01*
X136945000Y-84391432D02*
X136000000Y-85336432D01*
X136000000Y-57420000D02*
X136945000Y-58365000D01*
X136000000Y-85336432D02*
X136000000Y-93540000D01*
X136945000Y-46325000D02*
X136945000Y-48271432D01*
X136000000Y-93540000D02*
X137000000Y-94540000D01*
X136945000Y-72351432D02*
X136000000Y-73296432D01*
X137000000Y-108743568D02*
X136000000Y-109743568D01*
X136000000Y-37393568D02*
X136000000Y-45380000D01*
X136000000Y-49216432D02*
X136000000Y-57420000D01*
X136000000Y-33340000D02*
X136945000Y-34285000D01*
X136945000Y-82445000D02*
X136945000Y-84391432D01*
X136945000Y-58365000D02*
X136945000Y-60311432D01*
X136000000Y-105580000D02*
X137000000Y-106580000D01*
X136000000Y-61256432D02*
X136000000Y-69460000D01*
X136000000Y-73296432D02*
X136000000Y-81500000D01*
X136000000Y-28980000D02*
X136000000Y-33340000D01*
X136000000Y-69460000D02*
X136945000Y-70405000D01*
X136945000Y-36448568D02*
X136000000Y-37393568D01*
X137480000Y-27500000D02*
X136000000Y-28980000D01*
X136000000Y-45380000D02*
X136945000Y-46325000D01*
X137000000Y-96703568D02*
X136000000Y-97703568D01*
X136000000Y-81500000D02*
X136945000Y-82445000D01*
X136945000Y-60311432D02*
X136000000Y-61256432D01*
X136945000Y-70405000D02*
X136945000Y-72351432D01*
X136000000Y-97703568D02*
X136000000Y-105580000D01*
%TO.N,/LPCH*%
X98945000Y-106525000D02*
X98945000Y-108471432D01*
X98000000Y-105580000D02*
X98945000Y-106525000D01*
X98945000Y-108471432D02*
X98000000Y-109416432D01*
X98000000Y-61583568D02*
X98000000Y-69460000D01*
X98945000Y-96431432D02*
X98000000Y-97376432D01*
X98000000Y-97376432D02*
X98000000Y-105580000D01*
X98945000Y-84608568D02*
X98000000Y-85553568D01*
X98000000Y-81500000D02*
X98945000Y-82445000D01*
X98000000Y-93540000D02*
X98945000Y-94485000D01*
X99000000Y-60583568D02*
X98000000Y-61583568D01*
X98000000Y-69460000D02*
X98945000Y-70405000D01*
X98000000Y-49543568D02*
X98000000Y-57420000D01*
X98000000Y-45380000D02*
X99000000Y-46380000D01*
X98945000Y-82445000D02*
X98945000Y-84608568D01*
X99000000Y-46380000D02*
X99000000Y-48543568D01*
X98000000Y-33340000D02*
X98945000Y-34285000D01*
X98000000Y-85553568D02*
X98000000Y-93540000D01*
X98945000Y-36231432D02*
X98000000Y-37176432D01*
X98000000Y-57420000D02*
X99000000Y-58420000D01*
X98000000Y-109416432D02*
X98000000Y-117620000D01*
X98945000Y-70405000D02*
X98945000Y-72351432D01*
X98000000Y-73296432D02*
X98000000Y-81500000D01*
X98945000Y-94485000D02*
X98945000Y-96431432D01*
X99000000Y-58420000D02*
X99000000Y-60583568D01*
X98945000Y-34285000D02*
X98945000Y-36231432D01*
X98945000Y-72351432D02*
X98000000Y-73296432D01*
X98000000Y-37176432D02*
X98000000Y-45380000D01*
X99000000Y-48543568D02*
X98000000Y-49543568D01*
%TO.N,/STATE9*%
X124945000Y-108471432D02*
X124000000Y-109416432D01*
X124000000Y-69460000D02*
X124945000Y-70405000D01*
X124000000Y-93540000D02*
X124945000Y-94485000D01*
X123395000Y-30395000D02*
X124000000Y-31000000D01*
X124945000Y-94485000D02*
X124945000Y-96431432D01*
X124000000Y-45380000D02*
X125000000Y-46380000D01*
X125000000Y-48543568D02*
X124000000Y-49543568D01*
X124945000Y-70405000D02*
X124945000Y-72351432D01*
X124000000Y-105580000D02*
X124945000Y-106525000D01*
X124000000Y-57420000D02*
X125000000Y-58420000D01*
X124000000Y-81500000D02*
X124945000Y-82445000D01*
X124000000Y-73296432D02*
X124000000Y-81500000D01*
X125000000Y-58420000D02*
X125000000Y-60583568D01*
X124945000Y-82445000D02*
X124945000Y-84391432D01*
X124000000Y-85336432D02*
X124000000Y-93540000D01*
X112435000Y-30395000D02*
X123395000Y-30395000D01*
X124945000Y-96431432D02*
X124000000Y-97376432D01*
X124000000Y-97376432D02*
X124000000Y-105580000D01*
X124945000Y-106525000D02*
X124945000Y-108471432D01*
X109540000Y-27500000D02*
X112435000Y-30395000D01*
X124945000Y-36231432D02*
X124000000Y-37176432D01*
X124000000Y-49543568D02*
X124000000Y-57420000D01*
X124945000Y-34285000D02*
X124945000Y-36231432D01*
X124000000Y-61583568D02*
X124000000Y-69460000D01*
X125000000Y-46380000D02*
X125000000Y-48543568D01*
X124945000Y-84391432D02*
X124000000Y-85336432D01*
X124945000Y-72351432D02*
X124000000Y-73296432D01*
X124000000Y-31000000D02*
X124000000Y-33340000D01*
X124000000Y-109416432D02*
X124000000Y-117620000D01*
X125000000Y-60583568D02*
X124000000Y-61583568D01*
X124000000Y-37176432D02*
X124000000Y-45380000D01*
X124000000Y-33340000D02*
X124945000Y-34285000D01*
%TO.N,/DATA2*%
X134000000Y-93540000D02*
X134945000Y-94485000D01*
X134000000Y-69460000D02*
X134945000Y-70405000D01*
X134000000Y-109743568D02*
X134000000Y-117620000D01*
X134000000Y-81500000D02*
X134945000Y-82445000D01*
X135000000Y-108743568D02*
X134000000Y-109743568D01*
X134000000Y-49216432D02*
X134000000Y-57420000D01*
X134945000Y-72678568D02*
X134000000Y-73623568D01*
X134945000Y-82445000D02*
X134945000Y-84391432D01*
X134000000Y-29100000D02*
X134000000Y-33340000D01*
X134945000Y-36558568D02*
X134000000Y-37503568D01*
X134945000Y-58365000D02*
X134945000Y-60528568D01*
X134945000Y-94485000D02*
X134945000Y-96431432D01*
X134945000Y-46325000D02*
X134945000Y-48271432D01*
X134000000Y-33340000D02*
X134945000Y-34285000D01*
X134000000Y-61473568D02*
X134000000Y-69460000D01*
X134000000Y-45380000D02*
X134945000Y-46325000D01*
X134945000Y-70405000D02*
X134945000Y-72678568D01*
X134945000Y-96431432D02*
X134000000Y-97376432D01*
X134945000Y-34285000D02*
X134945000Y-36558568D01*
X134000000Y-85336432D02*
X134000000Y-93540000D01*
X132400000Y-27500000D02*
X134000000Y-29100000D01*
X134000000Y-105580000D02*
X135000000Y-106580000D01*
X134945000Y-60528568D02*
X134000000Y-61473568D01*
X134945000Y-84391432D02*
X134000000Y-85336432D01*
X134000000Y-37503568D02*
X134000000Y-45380000D01*
X134000000Y-57420000D02*
X134945000Y-58365000D01*
X134000000Y-73623568D02*
X134000000Y-81500000D01*
X135000000Y-106580000D02*
X135000000Y-108743568D01*
X134945000Y-48271432D02*
X134000000Y-49216432D01*
X134000000Y-97376432D02*
X134000000Y-105580000D01*
%TO.N,/~{LINST}*%
X110000000Y-73296432D02*
X110000000Y-81500000D01*
X110000000Y-45380000D02*
X111055000Y-46435000D01*
X110945000Y-106525000D02*
X110945000Y-108471432D01*
X110945000Y-96648568D02*
X110000000Y-97593568D01*
X110945000Y-36231432D02*
X110000000Y-37176432D01*
X110000000Y-69460000D02*
X110945000Y-70405000D01*
X110000000Y-61256432D02*
X110000000Y-69460000D01*
X110945000Y-34285000D02*
X110945000Y-36231432D01*
X110000000Y-57420000D02*
X110945000Y-58365000D01*
X111055000Y-46435000D02*
X111055000Y-48488568D01*
X110000000Y-49543568D02*
X110000000Y-57420000D01*
X110945000Y-58365000D02*
X110945000Y-60311432D01*
X110000000Y-109416432D02*
X110000000Y-117620000D01*
X110000000Y-97593568D02*
X110000000Y-105580000D01*
X110945000Y-108471432D02*
X110000000Y-109416432D01*
X110000000Y-33340000D02*
X110945000Y-34285000D01*
X110945000Y-82445000D02*
X110945000Y-84391432D01*
X110000000Y-37176432D02*
X110000000Y-45380000D01*
X110000000Y-93540000D02*
X110945000Y-94485000D01*
X110945000Y-84391432D02*
X110000000Y-85336432D01*
X110000000Y-105580000D02*
X110945000Y-106525000D01*
X110945000Y-94485000D02*
X110945000Y-96648568D01*
X110945000Y-70405000D02*
X110945000Y-72351432D01*
X110000000Y-85336432D02*
X110000000Y-93540000D01*
X110000000Y-81500000D02*
X110945000Y-82445000D01*
X110945000Y-60311432D02*
X110000000Y-61256432D01*
X110945000Y-72351432D02*
X110000000Y-73296432D01*
X111055000Y-48488568D02*
X110000000Y-49543568D01*
%TO.N,/~{LYH}*%
X106000000Y-49216432D02*
X106000000Y-57420000D01*
X106000000Y-97376432D02*
X106000000Y-105580000D01*
X106000000Y-73296432D02*
X106000000Y-81500000D01*
X106945000Y-70405000D02*
X106945000Y-72351432D01*
X106000000Y-69460000D02*
X106945000Y-70405000D01*
X106945000Y-46325000D02*
X106945000Y-48271432D01*
X106000000Y-93540000D02*
X106945000Y-94485000D01*
X106000000Y-81500000D02*
X106945000Y-82445000D01*
X106945000Y-72351432D02*
X106000000Y-73296432D01*
X106000000Y-57420000D02*
X107000000Y-58420000D01*
X106000000Y-37176432D02*
X106000000Y-45380000D01*
X106000000Y-61583568D02*
X106000000Y-69460000D01*
X106000000Y-85553568D02*
X106000000Y-93540000D01*
X107000000Y-60583568D02*
X106000000Y-61583568D01*
X106945000Y-96431432D02*
X106000000Y-97376432D01*
X106945000Y-84608568D02*
X106000000Y-85553568D01*
X106945000Y-82445000D02*
X106945000Y-84608568D01*
X106945000Y-108471432D02*
X106000000Y-109416432D01*
X106000000Y-109416432D02*
X106000000Y-117620000D01*
X106945000Y-106525000D02*
X106945000Y-108471432D01*
X106945000Y-34285000D02*
X106945000Y-36231432D01*
X106000000Y-105580000D02*
X106945000Y-106525000D01*
X106000000Y-45380000D02*
X106945000Y-46325000D01*
X106945000Y-48271432D02*
X106000000Y-49216432D01*
X106945000Y-94485000D02*
X106945000Y-96431432D01*
X106000000Y-33340000D02*
X106945000Y-34285000D01*
X106945000Y-36231432D02*
X106000000Y-37176432D01*
X107000000Y-58420000D02*
X107000000Y-60583568D01*
%TO.N,/INTREQ*%
X148000000Y-61583568D02*
X148000000Y-69460000D01*
X148000000Y-85663568D02*
X148000000Y-93540000D01*
X149000000Y-60583568D02*
X148000000Y-61583568D01*
X148945000Y-108471432D02*
X148000000Y-109416432D01*
X149000000Y-58420000D02*
X149000000Y-60583568D01*
X148000000Y-57420000D02*
X149000000Y-58420000D01*
X149000000Y-82500000D02*
X149000000Y-84663568D01*
X148000000Y-69460000D02*
X148945000Y-70405000D01*
X148945000Y-70405000D02*
X148945000Y-72351432D01*
X148000000Y-49543568D02*
X148000000Y-57420000D01*
X149000000Y-46380000D02*
X149000000Y-48543568D01*
X148945000Y-72351432D02*
X148000000Y-73296432D01*
X149000000Y-48543568D02*
X148000000Y-49543568D01*
X148000000Y-37503568D02*
X148000000Y-45380000D01*
X148000000Y-105580000D02*
X148945000Y-106525000D01*
X148945000Y-106525000D02*
X148945000Y-108471432D01*
X149000000Y-96486432D02*
X149000000Y-94540000D01*
X148000000Y-33340000D02*
X149000000Y-34340000D01*
X148000000Y-105580000D02*
X148000000Y-97486432D01*
X148000000Y-97486432D02*
X149000000Y-96486432D01*
X149000000Y-94540000D02*
X148000000Y-93540000D01*
X148000000Y-45380000D02*
X149000000Y-46380000D01*
X149000000Y-34340000D02*
X149000000Y-36503568D01*
X148000000Y-81500000D02*
X149000000Y-82500000D01*
X149000000Y-84663568D02*
X148000000Y-85663568D01*
X149000000Y-36503568D02*
X148000000Y-37503568D01*
X148000000Y-73296432D02*
X148000000Y-81500000D01*
X148000000Y-109416432D02*
X148000000Y-117620000D01*
%TO.N,/STATE6*%
X120000000Y-97376432D02*
X121000000Y-96376432D01*
X120945000Y-106525000D02*
X120000000Y-105580000D01*
X121000000Y-94540000D02*
X120000000Y-93540000D01*
X120945000Y-72351432D02*
X120945000Y-70405000D01*
X120945000Y-84391432D02*
X120945000Y-82445000D01*
X120945000Y-82445000D02*
X120000000Y-81500000D01*
X120945000Y-60311432D02*
X120945000Y-58365000D01*
X120000000Y-33340000D02*
X120945000Y-34285000D01*
X120945000Y-46325000D02*
X120945000Y-48271432D01*
X120000000Y-93540000D02*
X120000000Y-85336432D01*
X120000000Y-69460000D02*
X120000000Y-61256432D01*
X120000000Y-105580000D02*
X120000000Y-97376432D01*
X120000000Y-61256432D02*
X120945000Y-60311432D01*
X120945000Y-58365000D02*
X120000000Y-57420000D01*
X120000000Y-81500000D02*
X120000000Y-73296432D01*
X120000000Y-85336432D02*
X120945000Y-84391432D01*
X120000000Y-109416432D02*
X120945000Y-108471432D01*
X120000000Y-73296432D02*
X120945000Y-72351432D01*
X120000000Y-117620000D02*
X120000000Y-109416432D01*
X120945000Y-108471432D02*
X120945000Y-106525000D01*
X120945000Y-48271432D02*
X120000000Y-49216432D01*
X120945000Y-70405000D02*
X120000000Y-69460000D01*
X120000000Y-37393568D02*
X120000000Y-45380000D01*
X120945000Y-34285000D02*
X120945000Y-36448568D01*
X120000000Y-49216432D02*
X120000000Y-57420000D01*
X120945000Y-36448568D02*
X120000000Y-37393568D01*
X121000000Y-96376432D02*
X121000000Y-94540000D01*
X120000000Y-45380000D02*
X120945000Y-46325000D01*
%TO.N,/RESET*%
X150945000Y-60311432D02*
X150000000Y-61256432D01*
X150945000Y-58365000D02*
X150945000Y-60311432D01*
X150000000Y-105580000D02*
X150945000Y-106525000D01*
X150000000Y-73623568D02*
X150000000Y-81500000D01*
X150000000Y-33340000D02*
X150945000Y-34285000D01*
X150000000Y-81500000D02*
X150945000Y-82445000D01*
X150945000Y-106525000D02*
X150945000Y-108798568D01*
X150000000Y-93540000D02*
X150945000Y-94485000D01*
X150000000Y-49216432D02*
X150000000Y-57420000D01*
X150945000Y-36231432D02*
X150000000Y-37176432D01*
X150945000Y-48271432D02*
X150000000Y-49216432D01*
X151000000Y-72623568D02*
X150000000Y-73623568D01*
X150000000Y-45380000D02*
X150945000Y-46325000D01*
X150000000Y-109743568D02*
X150000000Y-117620000D01*
X150945000Y-34285000D02*
X150945000Y-36231432D01*
X150945000Y-46325000D02*
X150945000Y-48271432D01*
X150000000Y-97593568D02*
X150000000Y-105580000D01*
X150000000Y-85336432D02*
X150000000Y-93540000D01*
X150000000Y-57420000D02*
X150945000Y-58365000D01*
X151000000Y-70460000D02*
X151000000Y-72623568D01*
X150945000Y-96648568D02*
X150000000Y-97593568D01*
X150945000Y-108798568D02*
X150000000Y-109743568D01*
X150945000Y-84391432D02*
X150000000Y-85336432D01*
X150000000Y-69460000D02*
X151000000Y-70460000D01*
X150945000Y-82445000D02*
X150945000Y-84391432D01*
X150000000Y-61256432D02*
X150000000Y-69460000D01*
X150000000Y-37176432D02*
X150000000Y-45380000D01*
X150945000Y-94485000D02*
X150945000Y-96648568D01*
%TO.N,/STATE11*%
X126000000Y-85336432D02*
X126945000Y-84391432D01*
X126000000Y-61256432D02*
X126945000Y-60311432D01*
X116713000Y-29593000D02*
X124589432Y-29593000D01*
X114620000Y-27500000D02*
X116713000Y-29593000D01*
X124589432Y-29593000D02*
X126000000Y-31003568D01*
X126000000Y-117620000D02*
X126000000Y-109743568D01*
X126945000Y-94485000D02*
X126000000Y-93540000D01*
X126945000Y-84391432D02*
X126945000Y-82445000D01*
X126945000Y-108798568D02*
X126945000Y-106525000D01*
X126945000Y-58365000D02*
X126000000Y-57420000D01*
X126945000Y-82445000D02*
X126000000Y-81500000D01*
X126945000Y-36231432D02*
X126000000Y-37176432D01*
X126945000Y-96431432D02*
X126945000Y-94485000D01*
X127000000Y-48543568D02*
X126000000Y-49543568D01*
X126945000Y-72351432D02*
X126945000Y-70405000D01*
X126000000Y-37176432D02*
X126000000Y-45380000D01*
X126000000Y-45380000D02*
X127000000Y-46380000D01*
X126000000Y-81500000D02*
X126000000Y-73296432D01*
X126000000Y-105580000D02*
X126000000Y-97376432D01*
X126000000Y-31003568D02*
X126000000Y-33340000D01*
X126000000Y-73296432D02*
X126945000Y-72351432D01*
X126945000Y-34285000D02*
X126945000Y-36231432D01*
X126000000Y-69460000D02*
X126000000Y-61256432D01*
X126945000Y-60311432D02*
X126945000Y-58365000D01*
X126000000Y-93540000D02*
X126000000Y-85336432D01*
X126000000Y-49543568D02*
X126000000Y-57420000D01*
X126945000Y-106525000D02*
X126000000Y-105580000D01*
X126000000Y-33340000D02*
X126945000Y-34285000D01*
X126000000Y-97376432D02*
X126945000Y-96431432D01*
X126945000Y-70405000D02*
X126000000Y-69460000D01*
X126000000Y-109743568D02*
X126945000Y-108798568D01*
X127000000Y-46380000D02*
X127000000Y-48543568D01*
%TO.N,/DATA5*%
X137000000Y-30520000D02*
X137000000Y-31340000D01*
X140020000Y-27500000D02*
X137000000Y-30520000D01*
%TO.N,/STATE4*%
X118945000Y-106525000D02*
X118945000Y-108471432D01*
X118945000Y-70405000D02*
X118945000Y-72351432D01*
X118000000Y-61256432D02*
X118000000Y-69460000D01*
X118945000Y-96431432D02*
X118000000Y-97376432D01*
X118945000Y-108471432D02*
X118000000Y-109416432D01*
X118000000Y-93540000D02*
X118945000Y-94485000D01*
X119055000Y-46435000D02*
X119055000Y-48271432D01*
X118000000Y-57420000D02*
X118945000Y-58365000D01*
X118000000Y-97376432D02*
X118000000Y-105580000D01*
X119000000Y-34340000D02*
X119000000Y-36503568D01*
X119000000Y-36503568D02*
X118000000Y-37503568D01*
X118000000Y-69460000D02*
X118945000Y-70405000D01*
X118000000Y-105580000D02*
X118945000Y-106525000D01*
X118000000Y-109416432D02*
X118000000Y-117620000D01*
X118000000Y-85336432D02*
X118000000Y-93540000D01*
X118000000Y-33340000D02*
X119000000Y-34340000D01*
X119055000Y-48271432D02*
X118000000Y-49326432D01*
X118945000Y-58365000D02*
X118945000Y-60311432D01*
X118000000Y-73296432D02*
X118000000Y-81500000D01*
X118945000Y-60311432D02*
X118000000Y-61256432D01*
X118945000Y-72351432D02*
X118000000Y-73296432D01*
X118000000Y-49326432D02*
X118000000Y-57420000D01*
X118000000Y-37503568D02*
X118000000Y-45380000D01*
X118000000Y-45380000D02*
X119055000Y-46435000D01*
X118945000Y-94485000D02*
X118945000Y-96431432D01*
X118945000Y-84391432D02*
X118000000Y-85336432D01*
X118000000Y-81500000D02*
X118945000Y-82445000D01*
X118945000Y-82445000D02*
X118945000Y-84391432D01*
%TO.N,/LADRL*%
X112000000Y-61583568D02*
X112000000Y-69460000D01*
X112945000Y-82445000D02*
X112945000Y-84391432D01*
X112945000Y-70405000D02*
X112945000Y-72351432D01*
X112945000Y-96648568D02*
X112000000Y-97593568D01*
X112000000Y-49326432D02*
X113000000Y-48326432D01*
X112000000Y-69460000D02*
X112945000Y-70405000D01*
X112945000Y-60638568D02*
X112000000Y-61583568D01*
X112945000Y-84391432D02*
X112000000Y-85336432D01*
X112000000Y-109416432D02*
X112000000Y-117620000D01*
X113000000Y-46380000D02*
X112000000Y-45380000D01*
X112945000Y-34285000D02*
X112945000Y-36448568D01*
X112000000Y-57420000D02*
X112945000Y-58365000D01*
X112000000Y-73296432D02*
X112000000Y-81500000D01*
X112945000Y-108471432D02*
X112000000Y-109416432D01*
X112945000Y-94485000D02*
X112945000Y-96648568D01*
X112945000Y-36448568D02*
X112000000Y-37393568D01*
X112000000Y-97593568D02*
X112000000Y-105580000D01*
X112000000Y-37393568D02*
X112000000Y-45380000D01*
X113000000Y-48326432D02*
X113000000Y-46380000D01*
X112945000Y-106525000D02*
X112945000Y-108471432D01*
X112000000Y-105580000D02*
X112945000Y-106525000D01*
X112000000Y-93540000D02*
X112945000Y-94485000D01*
X112000000Y-81500000D02*
X112945000Y-82445000D01*
X112945000Y-58365000D02*
X112945000Y-60638568D01*
X112945000Y-72351432D02*
X112000000Y-73296432D01*
X112000000Y-57420000D02*
X112000000Y-49326432D01*
X112000000Y-85336432D02*
X112000000Y-93540000D01*
X112000000Y-33340000D02*
X112945000Y-34285000D01*
%TO.N,/~{LZH}*%
X108000000Y-61583568D02*
X108000000Y-69460000D01*
X108000000Y-93540000D02*
X108945000Y-94485000D01*
X108000000Y-73623568D02*
X108000000Y-81500000D01*
X109000000Y-48543568D02*
X109000000Y-46380000D01*
X108000000Y-85336432D02*
X108000000Y-93540000D01*
X109000000Y-72623568D02*
X108000000Y-73623568D01*
X108000000Y-33340000D02*
X108945000Y-34285000D01*
X108945000Y-108471432D02*
X108000000Y-109416432D01*
X108945000Y-84391432D02*
X108000000Y-85336432D01*
X108000000Y-81500000D02*
X108945000Y-82445000D01*
X108000000Y-97376432D02*
X108000000Y-105580000D01*
X108000000Y-69460000D02*
X109000000Y-70460000D01*
X108945000Y-34285000D02*
X108945000Y-36448568D01*
X108945000Y-96431432D02*
X108000000Y-97376432D01*
X108945000Y-36448568D02*
X108000000Y-37393568D01*
X109000000Y-58420000D02*
X109000000Y-60583568D01*
X108000000Y-37393568D02*
X108000000Y-45380000D01*
X108945000Y-94485000D02*
X108945000Y-96431432D01*
X109000000Y-46380000D02*
X108000000Y-45380000D01*
X109000000Y-70460000D02*
X109000000Y-72623568D01*
X108000000Y-105580000D02*
X108945000Y-106525000D01*
X108000000Y-57420000D02*
X109000000Y-58420000D01*
X108000000Y-109416432D02*
X108000000Y-117620000D01*
X108000000Y-49543568D02*
X109000000Y-48543568D01*
X108000000Y-57420000D02*
X108000000Y-49543568D01*
X109000000Y-60583568D02*
X108000000Y-61583568D01*
X108945000Y-106525000D02*
X108945000Y-108471432D01*
X108945000Y-82445000D02*
X108945000Y-84391432D01*
%TO.N,/DATA3*%
X134940000Y-27500000D02*
X134940000Y-31280000D01*
X134940000Y-31280000D02*
X135000000Y-31340000D01*
%TO.N,/STATE12*%
X118311000Y-28651000D02*
X124311000Y-28651000D01*
X117160000Y-27500000D02*
X118311000Y-28651000D01*
X124311000Y-28651000D02*
X127000000Y-31340000D01*
%TO.N,/DATA0*%
X132000000Y-85336432D02*
X132000000Y-93540000D01*
X132000000Y-73623568D02*
X132000000Y-81500000D01*
X132000000Y-37503568D02*
X132000000Y-45380000D01*
X132000000Y-33340000D02*
X132945000Y-34285000D01*
X132945000Y-46325000D02*
X132945000Y-48271432D01*
X132000000Y-93540000D02*
X132945000Y-94485000D01*
X133000000Y-72623568D02*
X132000000Y-73623568D01*
X132945000Y-34285000D02*
X132945000Y-36558568D01*
X132945000Y-58365000D02*
X132945000Y-60311432D01*
X131663568Y-33340000D02*
X132000000Y-33340000D01*
X132945000Y-96431432D02*
X132000000Y-97376432D01*
X132000000Y-97376432D02*
X132000000Y-105580000D01*
X132945000Y-82445000D02*
X132945000Y-84391432D01*
X130055000Y-30235000D02*
X130055000Y-31731432D01*
X132000000Y-61256432D02*
X132000000Y-69460000D01*
X132945000Y-94485000D02*
X132945000Y-96431432D01*
X132000000Y-109416432D02*
X132000000Y-117620000D01*
X132945000Y-48271432D02*
X132000000Y-49216432D01*
X132000000Y-57420000D02*
X132945000Y-58365000D01*
X132000000Y-81500000D02*
X132945000Y-82445000D01*
X132945000Y-84391432D02*
X132000000Y-85336432D01*
X132945000Y-60311432D02*
X132000000Y-61256432D01*
X132000000Y-49216432D02*
X132000000Y-57420000D01*
X127320000Y-27500000D02*
X130055000Y-30235000D01*
X132945000Y-108471432D02*
X132000000Y-109416432D01*
X132000000Y-105580000D02*
X132945000Y-106525000D01*
X130055000Y-31731432D02*
X131663568Y-33340000D01*
X132945000Y-36558568D02*
X132000000Y-37503568D01*
X133000000Y-70460000D02*
X133000000Y-72623568D01*
X132000000Y-69460000D02*
X133000000Y-70460000D01*
X132000000Y-45380000D02*
X132945000Y-46325000D01*
X132945000Y-106525000D02*
X132945000Y-108471432D01*
%TO.N,/STATE10*%
X112080000Y-27500000D02*
X114574000Y-29994000D01*
X114574000Y-29994000D02*
X123654000Y-29994000D01*
X123654000Y-29994000D02*
X125000000Y-31340000D01*
%TD*%
%TA.AperFunction,Conductor*%
%TO.N,GND*%
G36*
X159943039Y-25520185D02*
G01*
X159988794Y-25572989D01*
X160000000Y-25624500D01*
X160000000Y-29876000D01*
X159980315Y-29943039D01*
X159927511Y-29988794D01*
X159876000Y-30000000D01*
X143465754Y-30000000D01*
X143398715Y-29980315D01*
X143352960Y-29927511D01*
X143343016Y-29858353D01*
X143372041Y-29794797D01*
X143378073Y-29788319D01*
X143969138Y-29197254D01*
X144560719Y-28605672D01*
X144622040Y-28572189D01*
X144686716Y-28575424D01*
X144830591Y-28622171D01*
X144913429Y-28635291D01*
X145009449Y-28650500D01*
X145009454Y-28650500D01*
X145190551Y-28650500D01*
X145277259Y-28636765D01*
X145369409Y-28622171D01*
X145541639Y-28566211D01*
X145702994Y-28483996D01*
X145849501Y-28377553D01*
X145977553Y-28249501D01*
X146083996Y-28102994D01*
X146166211Y-27941639D01*
X146222171Y-27769409D01*
X146236765Y-27677259D01*
X146250500Y-27590551D01*
X146250500Y-27409448D01*
X146222189Y-27230706D01*
X146222171Y-27230591D01*
X146166273Y-27058552D01*
X146166212Y-27058363D01*
X146166211Y-27058360D01*
X146136474Y-27000000D01*
X146083996Y-26897006D01*
X146070396Y-26878287D01*
X145977558Y-26750505D01*
X145977554Y-26750500D01*
X145849499Y-26622445D01*
X145849494Y-26622441D01*
X145702997Y-26516006D01*
X145702996Y-26516005D01*
X145702994Y-26516004D01*
X145651300Y-26489664D01*
X145541639Y-26433788D01*
X145541636Y-26433787D01*
X145369410Y-26377829D01*
X145190551Y-26349500D01*
X145190546Y-26349500D01*
X145009454Y-26349500D01*
X145009449Y-26349500D01*
X144830589Y-26377829D01*
X144658363Y-26433787D01*
X144658360Y-26433788D01*
X144497002Y-26516006D01*
X144350505Y-26622441D01*
X144350500Y-26622445D01*
X144222445Y-26750500D01*
X144222441Y-26750505D01*
X144116006Y-26897002D01*
X144033788Y-27058360D01*
X144033787Y-27058363D01*
X143977829Y-27230589D01*
X143952473Y-27390678D01*
X143922544Y-27453813D01*
X143863232Y-27490744D01*
X143793369Y-27489746D01*
X143735137Y-27451136D01*
X143707527Y-27390678D01*
X143682189Y-27230706D01*
X143682171Y-27230591D01*
X143626273Y-27058552D01*
X143626212Y-27058363D01*
X143626211Y-27058360D01*
X143596474Y-27000000D01*
X143543996Y-26897006D01*
X143530396Y-26878287D01*
X143437558Y-26750505D01*
X143437554Y-26750500D01*
X143309499Y-26622445D01*
X143309494Y-26622441D01*
X143162997Y-26516006D01*
X143162996Y-26516005D01*
X143162994Y-26516004D01*
X143111300Y-26489664D01*
X143001639Y-26433788D01*
X143001636Y-26433787D01*
X142829410Y-26377829D01*
X142650551Y-26349500D01*
X142650546Y-26349500D01*
X142469454Y-26349500D01*
X142469449Y-26349500D01*
X142290589Y-26377829D01*
X142118363Y-26433787D01*
X142118360Y-26433788D01*
X141957002Y-26516006D01*
X141810505Y-26622441D01*
X141810500Y-26622445D01*
X141682445Y-26750500D01*
X141682441Y-26750505D01*
X141576006Y-26897002D01*
X141493788Y-27058360D01*
X141493787Y-27058363D01*
X141437829Y-27230589D01*
X141412473Y-27390678D01*
X141382544Y-27453813D01*
X141323232Y-27490744D01*
X141253369Y-27489746D01*
X141195137Y-27451136D01*
X141167527Y-27390678D01*
X141142189Y-27230706D01*
X141142171Y-27230591D01*
X141086273Y-27058552D01*
X141086212Y-27058363D01*
X141086211Y-27058360D01*
X141056474Y-27000000D01*
X141003996Y-26897006D01*
X140990396Y-26878287D01*
X140897558Y-26750505D01*
X140897554Y-26750500D01*
X140769499Y-26622445D01*
X140769494Y-26622441D01*
X140622997Y-26516006D01*
X140622996Y-26516005D01*
X140622994Y-26516004D01*
X140571300Y-26489664D01*
X140461639Y-26433788D01*
X140461636Y-26433787D01*
X140289410Y-26377829D01*
X140110551Y-26349500D01*
X140110546Y-26349500D01*
X139929454Y-26349500D01*
X139929449Y-26349500D01*
X139750589Y-26377829D01*
X139578363Y-26433787D01*
X139578360Y-26433788D01*
X139417002Y-26516006D01*
X139270505Y-26622441D01*
X139270500Y-26622445D01*
X139142445Y-26750500D01*
X139142441Y-26750505D01*
X139036006Y-26897002D01*
X138953788Y-27058360D01*
X138953787Y-27058363D01*
X138897829Y-27230589D01*
X138872473Y-27390678D01*
X138842544Y-27453813D01*
X138783232Y-27490744D01*
X138713369Y-27489746D01*
X138655137Y-27451136D01*
X138627527Y-27390678D01*
X138602189Y-27230706D01*
X138602171Y-27230591D01*
X138546273Y-27058552D01*
X138546212Y-27058363D01*
X138546211Y-27058360D01*
X138516474Y-27000000D01*
X138463996Y-26897006D01*
X138450396Y-26878287D01*
X138357558Y-26750505D01*
X138357554Y-26750500D01*
X138229499Y-26622445D01*
X138229494Y-26622441D01*
X138082997Y-26516006D01*
X138082996Y-26516005D01*
X138082994Y-26516004D01*
X138031300Y-26489664D01*
X137921639Y-26433788D01*
X137921636Y-26433787D01*
X137749410Y-26377829D01*
X137570551Y-26349500D01*
X137570546Y-26349500D01*
X137389454Y-26349500D01*
X137389449Y-26349500D01*
X137210589Y-26377829D01*
X137038363Y-26433787D01*
X137038360Y-26433788D01*
X136877002Y-26516006D01*
X136730505Y-26622441D01*
X136730500Y-26622445D01*
X136602445Y-26750500D01*
X136602441Y-26750505D01*
X136496006Y-26897002D01*
X136413788Y-27058360D01*
X136413787Y-27058363D01*
X136357829Y-27230589D01*
X136332473Y-27390678D01*
X136302544Y-27453813D01*
X136243232Y-27490744D01*
X136173369Y-27489746D01*
X136115137Y-27451136D01*
X136087527Y-27390678D01*
X136062189Y-27230706D01*
X136062171Y-27230591D01*
X136006273Y-27058552D01*
X136006212Y-27058363D01*
X136006211Y-27058360D01*
X135976474Y-27000000D01*
X135923996Y-26897006D01*
X135910396Y-26878287D01*
X135817558Y-26750505D01*
X135817554Y-26750500D01*
X135689499Y-26622445D01*
X135689494Y-26622441D01*
X135542997Y-26516006D01*
X135542996Y-26516005D01*
X135542994Y-26516004D01*
X135491300Y-26489664D01*
X135381639Y-26433788D01*
X135381636Y-26433787D01*
X135209410Y-26377829D01*
X135030551Y-26349500D01*
X135030546Y-26349500D01*
X134849454Y-26349500D01*
X134849449Y-26349500D01*
X134670589Y-26377829D01*
X134498363Y-26433787D01*
X134498360Y-26433788D01*
X134337002Y-26516006D01*
X134190505Y-26622441D01*
X134190500Y-26622445D01*
X134062445Y-26750500D01*
X134062441Y-26750505D01*
X133956006Y-26897002D01*
X133873788Y-27058360D01*
X133873787Y-27058363D01*
X133817829Y-27230589D01*
X133792473Y-27390678D01*
X133762544Y-27453813D01*
X133703232Y-27490744D01*
X133633369Y-27489746D01*
X133575137Y-27451136D01*
X133547527Y-27390678D01*
X133522189Y-27230706D01*
X133522171Y-27230591D01*
X133466273Y-27058552D01*
X133466212Y-27058363D01*
X133466211Y-27058360D01*
X133436474Y-27000000D01*
X133383996Y-26897006D01*
X133370396Y-26878287D01*
X133277558Y-26750505D01*
X133277554Y-26750500D01*
X133149499Y-26622445D01*
X133149494Y-26622441D01*
X133002997Y-26516006D01*
X133002996Y-26516005D01*
X133002994Y-26516004D01*
X132951300Y-26489664D01*
X132841639Y-26433788D01*
X132841636Y-26433787D01*
X132669410Y-26377829D01*
X132490551Y-26349500D01*
X132490546Y-26349500D01*
X132309454Y-26349500D01*
X132309449Y-26349500D01*
X132130589Y-26377829D01*
X131958363Y-26433787D01*
X131958360Y-26433788D01*
X131797002Y-26516006D01*
X131650505Y-26622441D01*
X131650500Y-26622445D01*
X131522445Y-26750500D01*
X131522441Y-26750505D01*
X131416006Y-26897002D01*
X131333788Y-27058360D01*
X131333787Y-27058363D01*
X131277829Y-27230589D01*
X131252473Y-27390678D01*
X131222544Y-27453813D01*
X131163232Y-27490744D01*
X131093369Y-27489746D01*
X131035137Y-27451136D01*
X131007527Y-27390678D01*
X130982189Y-27230706D01*
X130982171Y-27230591D01*
X130926273Y-27058552D01*
X130926212Y-27058363D01*
X130926211Y-27058360D01*
X130896474Y-27000000D01*
X130843996Y-26897006D01*
X130830396Y-26878287D01*
X130737558Y-26750505D01*
X130737554Y-26750500D01*
X130609499Y-26622445D01*
X130609494Y-26622441D01*
X130462997Y-26516006D01*
X130462996Y-26516005D01*
X130462994Y-26516004D01*
X130411300Y-26489664D01*
X130301639Y-26433788D01*
X130301636Y-26433787D01*
X130129410Y-26377829D01*
X129950551Y-26349500D01*
X129950546Y-26349500D01*
X129769454Y-26349500D01*
X129769449Y-26349500D01*
X129590589Y-26377829D01*
X129418363Y-26433787D01*
X129418360Y-26433788D01*
X129257002Y-26516006D01*
X129110505Y-26622441D01*
X129110500Y-26622445D01*
X128982445Y-26750500D01*
X128982441Y-26750505D01*
X128876006Y-26897002D01*
X128793788Y-27058360D01*
X128793787Y-27058363D01*
X128737829Y-27230589D01*
X128712473Y-27390678D01*
X128682544Y-27453813D01*
X128623232Y-27490744D01*
X128553369Y-27489746D01*
X128495137Y-27451136D01*
X128467527Y-27390678D01*
X128442189Y-27230706D01*
X128442171Y-27230591D01*
X128386273Y-27058552D01*
X128386212Y-27058363D01*
X128386211Y-27058360D01*
X128356474Y-27000000D01*
X128303996Y-26897006D01*
X128290396Y-26878287D01*
X128197558Y-26750505D01*
X128197554Y-26750500D01*
X128069499Y-26622445D01*
X128069494Y-26622441D01*
X127922997Y-26516006D01*
X127922996Y-26516005D01*
X127922994Y-26516004D01*
X127871300Y-26489664D01*
X127761639Y-26433788D01*
X127761636Y-26433787D01*
X127589410Y-26377829D01*
X127410551Y-26349500D01*
X127410546Y-26349500D01*
X127229454Y-26349500D01*
X127229449Y-26349500D01*
X127050589Y-26377829D01*
X126878363Y-26433787D01*
X126878360Y-26433788D01*
X126717002Y-26516006D01*
X126570505Y-26622441D01*
X126570500Y-26622445D01*
X126442445Y-26750500D01*
X126442441Y-26750505D01*
X126336006Y-26897002D01*
X126253788Y-27058360D01*
X126253787Y-27058363D01*
X126197829Y-27230589D01*
X126172473Y-27390678D01*
X126142544Y-27453813D01*
X126083232Y-27490744D01*
X126013369Y-27489746D01*
X125955137Y-27451136D01*
X125927527Y-27390678D01*
X125902189Y-27230706D01*
X125902171Y-27230591D01*
X125846273Y-27058552D01*
X125846212Y-27058363D01*
X125846211Y-27058360D01*
X125816474Y-27000000D01*
X125763996Y-26897006D01*
X125750396Y-26878287D01*
X125657558Y-26750505D01*
X125657554Y-26750500D01*
X125529499Y-26622445D01*
X125529494Y-26622441D01*
X125382997Y-26516006D01*
X125382996Y-26516005D01*
X125382994Y-26516004D01*
X125331300Y-26489664D01*
X125221639Y-26433788D01*
X125221636Y-26433787D01*
X125049410Y-26377829D01*
X124870551Y-26349500D01*
X124870546Y-26349500D01*
X124689454Y-26349500D01*
X124689449Y-26349500D01*
X124510589Y-26377829D01*
X124338363Y-26433787D01*
X124338360Y-26433788D01*
X124177002Y-26516006D01*
X124030505Y-26622441D01*
X124030500Y-26622445D01*
X123902445Y-26750500D01*
X123902441Y-26750505D01*
X123796006Y-26897002D01*
X123713788Y-27058360D01*
X123713787Y-27058363D01*
X123657829Y-27230589D01*
X123632473Y-27390678D01*
X123602544Y-27453813D01*
X123543232Y-27490744D01*
X123473369Y-27489746D01*
X123415137Y-27451136D01*
X123387527Y-27390678D01*
X123362189Y-27230706D01*
X123362171Y-27230591D01*
X123306273Y-27058552D01*
X123306212Y-27058363D01*
X123306211Y-27058360D01*
X123276474Y-27000000D01*
X123223996Y-26897006D01*
X123210396Y-26878287D01*
X123117558Y-26750505D01*
X123117554Y-26750500D01*
X122989499Y-26622445D01*
X122989494Y-26622441D01*
X122842997Y-26516006D01*
X122842996Y-26516005D01*
X122842994Y-26516004D01*
X122791300Y-26489664D01*
X122681639Y-26433788D01*
X122681636Y-26433787D01*
X122509410Y-26377829D01*
X122330551Y-26349500D01*
X122330546Y-26349500D01*
X122149454Y-26349500D01*
X122149449Y-26349500D01*
X121970589Y-26377829D01*
X121798363Y-26433787D01*
X121798360Y-26433788D01*
X121637002Y-26516006D01*
X121490505Y-26622441D01*
X121490500Y-26622445D01*
X121362445Y-26750500D01*
X121362441Y-26750505D01*
X121256006Y-26897002D01*
X121173788Y-27058360D01*
X121173787Y-27058363D01*
X121117829Y-27230589D01*
X121092473Y-27390678D01*
X121062544Y-27453813D01*
X121003232Y-27490744D01*
X120933369Y-27489746D01*
X120875137Y-27451136D01*
X120847527Y-27390678D01*
X120822189Y-27230706D01*
X120822171Y-27230591D01*
X120766273Y-27058552D01*
X120766212Y-27058363D01*
X120766211Y-27058360D01*
X120736474Y-27000000D01*
X120683996Y-26897006D01*
X120670396Y-26878287D01*
X120577558Y-26750505D01*
X120577554Y-26750500D01*
X120449499Y-26622445D01*
X120449494Y-26622441D01*
X120302997Y-26516006D01*
X120302996Y-26516005D01*
X120302994Y-26516004D01*
X120251300Y-26489664D01*
X120141639Y-26433788D01*
X120141636Y-26433787D01*
X119969410Y-26377829D01*
X119790551Y-26349500D01*
X119790546Y-26349500D01*
X119609454Y-26349500D01*
X119609449Y-26349500D01*
X119430589Y-26377829D01*
X119258363Y-26433787D01*
X119258360Y-26433788D01*
X119097002Y-26516006D01*
X118950505Y-26622441D01*
X118950500Y-26622445D01*
X118822445Y-26750500D01*
X118822441Y-26750505D01*
X118716006Y-26897002D01*
X118633788Y-27058360D01*
X118633787Y-27058363D01*
X118577829Y-27230589D01*
X118552473Y-27390678D01*
X118522544Y-27453813D01*
X118463232Y-27490744D01*
X118393369Y-27489746D01*
X118335137Y-27451136D01*
X118307527Y-27390678D01*
X118282189Y-27230706D01*
X118282171Y-27230591D01*
X118226273Y-27058552D01*
X118226212Y-27058363D01*
X118226211Y-27058360D01*
X118196474Y-27000000D01*
X118143996Y-26897006D01*
X118130396Y-26878287D01*
X118037558Y-26750505D01*
X118037554Y-26750500D01*
X117909499Y-26622445D01*
X117909494Y-26622441D01*
X117762997Y-26516006D01*
X117762996Y-26516005D01*
X117762994Y-26516004D01*
X117711300Y-26489664D01*
X117601639Y-26433788D01*
X117601636Y-26433787D01*
X117429410Y-26377829D01*
X117250551Y-26349500D01*
X117250546Y-26349500D01*
X117069454Y-26349500D01*
X117069449Y-26349500D01*
X116890589Y-26377829D01*
X116718363Y-26433787D01*
X116718360Y-26433788D01*
X116557002Y-26516006D01*
X116410505Y-26622441D01*
X116410500Y-26622445D01*
X116282445Y-26750500D01*
X116282441Y-26750505D01*
X116176006Y-26897002D01*
X116093788Y-27058360D01*
X116093787Y-27058363D01*
X116037829Y-27230589D01*
X116012473Y-27390678D01*
X115982544Y-27453813D01*
X115923232Y-27490744D01*
X115853369Y-27489746D01*
X115795137Y-27451136D01*
X115767527Y-27390678D01*
X115742189Y-27230706D01*
X115742171Y-27230591D01*
X115686273Y-27058552D01*
X115686212Y-27058363D01*
X115686211Y-27058360D01*
X115656474Y-27000000D01*
X115603996Y-26897006D01*
X115590396Y-26878287D01*
X115497558Y-26750505D01*
X115497554Y-26750500D01*
X115369499Y-26622445D01*
X115369494Y-26622441D01*
X115222997Y-26516006D01*
X115222996Y-26516005D01*
X115222994Y-26516004D01*
X115171300Y-26489664D01*
X115061639Y-26433788D01*
X115061636Y-26433787D01*
X114889410Y-26377829D01*
X114710551Y-26349500D01*
X114710546Y-26349500D01*
X114529454Y-26349500D01*
X114529449Y-26349500D01*
X114350589Y-26377829D01*
X114178363Y-26433787D01*
X114178360Y-26433788D01*
X114017002Y-26516006D01*
X113870505Y-26622441D01*
X113870500Y-26622445D01*
X113742445Y-26750500D01*
X113742441Y-26750505D01*
X113636006Y-26897002D01*
X113553788Y-27058360D01*
X113553787Y-27058363D01*
X113497829Y-27230589D01*
X113472473Y-27390678D01*
X113442544Y-27453813D01*
X113383232Y-27490744D01*
X113313369Y-27489746D01*
X113255137Y-27451136D01*
X113227527Y-27390678D01*
X113202189Y-27230706D01*
X113202171Y-27230591D01*
X113146273Y-27058552D01*
X113146212Y-27058363D01*
X113146211Y-27058360D01*
X113116474Y-27000000D01*
X113063996Y-26897006D01*
X113050396Y-26878287D01*
X112957558Y-26750505D01*
X112957554Y-26750500D01*
X112829499Y-26622445D01*
X112829494Y-26622441D01*
X112682997Y-26516006D01*
X112682996Y-26516005D01*
X112682994Y-26516004D01*
X112631300Y-26489664D01*
X112521639Y-26433788D01*
X112521636Y-26433787D01*
X112349410Y-26377829D01*
X112170551Y-26349500D01*
X112170546Y-26349500D01*
X111989454Y-26349500D01*
X111989449Y-26349500D01*
X111810589Y-26377829D01*
X111638363Y-26433787D01*
X111638360Y-26433788D01*
X111477002Y-26516006D01*
X111330505Y-26622441D01*
X111330500Y-26622445D01*
X111202445Y-26750500D01*
X111202441Y-26750505D01*
X111096006Y-26897002D01*
X111013788Y-27058360D01*
X111013787Y-27058363D01*
X110957829Y-27230589D01*
X110932473Y-27390678D01*
X110902544Y-27453813D01*
X110843232Y-27490744D01*
X110773369Y-27489746D01*
X110715137Y-27451136D01*
X110687527Y-27390678D01*
X110662189Y-27230706D01*
X110662171Y-27230591D01*
X110606273Y-27058552D01*
X110606212Y-27058363D01*
X110606211Y-27058360D01*
X110576474Y-27000000D01*
X110523996Y-26897006D01*
X110510396Y-26878287D01*
X110417558Y-26750505D01*
X110417554Y-26750500D01*
X110289499Y-26622445D01*
X110289494Y-26622441D01*
X110142997Y-26516006D01*
X110142996Y-26516005D01*
X110142994Y-26516004D01*
X110091300Y-26489664D01*
X109981639Y-26433788D01*
X109981636Y-26433787D01*
X109809410Y-26377829D01*
X109630551Y-26349500D01*
X109630546Y-26349500D01*
X109449454Y-26349500D01*
X109449449Y-26349500D01*
X109270589Y-26377829D01*
X109098363Y-26433787D01*
X109098360Y-26433788D01*
X108937002Y-26516006D01*
X108790505Y-26622441D01*
X108790500Y-26622445D01*
X108662445Y-26750500D01*
X108662441Y-26750505D01*
X108556006Y-26897002D01*
X108473788Y-27058360D01*
X108473787Y-27058363D01*
X108417829Y-27230589D01*
X108392473Y-27390678D01*
X108362544Y-27453813D01*
X108303232Y-27490744D01*
X108233369Y-27489746D01*
X108175137Y-27451136D01*
X108147527Y-27390678D01*
X108122189Y-27230706D01*
X108122171Y-27230591D01*
X108066273Y-27058552D01*
X108066212Y-27058363D01*
X108066211Y-27058360D01*
X108036474Y-27000000D01*
X107983996Y-26897006D01*
X107970396Y-26878287D01*
X107877558Y-26750505D01*
X107877554Y-26750500D01*
X107749499Y-26622445D01*
X107749494Y-26622441D01*
X107602997Y-26516006D01*
X107602996Y-26516005D01*
X107602994Y-26516004D01*
X107551300Y-26489664D01*
X107441639Y-26433788D01*
X107441636Y-26433787D01*
X107269410Y-26377829D01*
X107090551Y-26349500D01*
X107090546Y-26349500D01*
X106909454Y-26349500D01*
X106909449Y-26349500D01*
X106730589Y-26377829D01*
X106558363Y-26433787D01*
X106558360Y-26433788D01*
X106397002Y-26516006D01*
X106250505Y-26622441D01*
X106250500Y-26622445D01*
X106122445Y-26750500D01*
X106122441Y-26750505D01*
X106016006Y-26897002D01*
X105933788Y-27058360D01*
X105933787Y-27058363D01*
X105877829Y-27230589D01*
X105852473Y-27390678D01*
X105822544Y-27453813D01*
X105763232Y-27490744D01*
X105693369Y-27489746D01*
X105635137Y-27451136D01*
X105607527Y-27390678D01*
X105582189Y-27230706D01*
X105582171Y-27230591D01*
X105526273Y-27058552D01*
X105526212Y-27058363D01*
X105526211Y-27058360D01*
X105496474Y-27000000D01*
X105443996Y-26897006D01*
X105430396Y-26878287D01*
X105337558Y-26750505D01*
X105337554Y-26750500D01*
X105209499Y-26622445D01*
X105209494Y-26622441D01*
X105062997Y-26516006D01*
X105062996Y-26516005D01*
X105062994Y-26516004D01*
X105011300Y-26489664D01*
X104901639Y-26433788D01*
X104901636Y-26433787D01*
X104729410Y-26377829D01*
X104550551Y-26349500D01*
X104550546Y-26349500D01*
X104369454Y-26349500D01*
X104369449Y-26349500D01*
X104190589Y-26377829D01*
X104018363Y-26433787D01*
X104018360Y-26433788D01*
X103857002Y-26516006D01*
X103710505Y-26622441D01*
X103710500Y-26622445D01*
X103582445Y-26750500D01*
X103582441Y-26750505D01*
X103476006Y-26897002D01*
X103393788Y-27058360D01*
X103393787Y-27058363D01*
X103337829Y-27230589D01*
X103312473Y-27390678D01*
X103282544Y-27453813D01*
X103223232Y-27490744D01*
X103153369Y-27489746D01*
X103095137Y-27451136D01*
X103067527Y-27390678D01*
X103042189Y-27230706D01*
X103042171Y-27230591D01*
X102986273Y-27058552D01*
X102986212Y-27058363D01*
X102986211Y-27058360D01*
X102956474Y-27000000D01*
X102903996Y-26897006D01*
X102890396Y-26878287D01*
X102797558Y-26750505D01*
X102797554Y-26750500D01*
X102669499Y-26622445D01*
X102669494Y-26622441D01*
X102522997Y-26516006D01*
X102522996Y-26516005D01*
X102522994Y-26516004D01*
X102471300Y-26489664D01*
X102361639Y-26433788D01*
X102361636Y-26433787D01*
X102189410Y-26377829D01*
X102010551Y-26349500D01*
X102010546Y-26349500D01*
X101829454Y-26349500D01*
X101829449Y-26349500D01*
X101650589Y-26377829D01*
X101478363Y-26433787D01*
X101478360Y-26433788D01*
X101317002Y-26516006D01*
X101170505Y-26622441D01*
X101170500Y-26622445D01*
X101042445Y-26750500D01*
X101042441Y-26750505D01*
X100936006Y-26897002D01*
X100853788Y-27058360D01*
X100853787Y-27058363D01*
X100797829Y-27230589D01*
X100772219Y-27392280D01*
X100742289Y-27455414D01*
X100682978Y-27492345D01*
X100613115Y-27491347D01*
X100554883Y-27452737D01*
X100527273Y-27392279D01*
X100501682Y-27230706D01*
X100445748Y-27058555D01*
X100445747Y-27058552D01*
X100363571Y-26897275D01*
X100363566Y-26897267D01*
X100352085Y-26881466D01*
X99862962Y-27370589D01*
X99845925Y-27307007D01*
X99780099Y-27192993D01*
X99687007Y-27099901D01*
X99572993Y-27034075D01*
X99509409Y-27017037D01*
X99998533Y-26527913D01*
X99982730Y-26516431D01*
X99821447Y-26434252D01*
X99821444Y-26434251D01*
X99649293Y-26378317D01*
X99470506Y-26350000D01*
X99289494Y-26350000D01*
X99110706Y-26378317D01*
X98938555Y-26434251D01*
X98938547Y-26434254D01*
X98777269Y-26516432D01*
X98761466Y-26527912D01*
X98761466Y-26527913D01*
X99250591Y-27017037D01*
X99187007Y-27034075D01*
X99072993Y-27099901D01*
X98979901Y-27192993D01*
X98914075Y-27307007D01*
X98897037Y-27370590D01*
X98407912Y-26881466D01*
X98396432Y-26897269D01*
X98314254Y-27058547D01*
X98314251Y-27058555D01*
X98258317Y-27230706D01*
X98236472Y-27368628D01*
X98206543Y-27431763D01*
X98147231Y-27468694D01*
X98077368Y-27467696D01*
X98019136Y-27429086D01*
X97991022Y-27365122D01*
X97989999Y-27349230D01*
X97989999Y-26605214D01*
X97989998Y-26605206D01*
X97988172Y-26589456D01*
X97988172Y-26589453D01*
X97987091Y-26580130D01*
X97987090Y-26580126D01*
X97941788Y-26477525D01*
X97941785Y-26477520D01*
X97862479Y-26398214D01*
X97862474Y-26398211D01*
X97759876Y-26352910D01*
X97734794Y-26350000D01*
X97090000Y-26350000D01*
X97090000Y-27066988D01*
X97032993Y-27034075D01*
X96905826Y-27000000D01*
X96774174Y-27000000D01*
X96647007Y-27034075D01*
X96590000Y-27066988D01*
X96590000Y-26350000D01*
X95945214Y-26350000D01*
X95945191Y-26350002D01*
X95920130Y-26352908D01*
X95920126Y-26352909D01*
X95817525Y-26398211D01*
X95817520Y-26398214D01*
X95738214Y-26477520D01*
X95738211Y-26477525D01*
X95692910Y-26580122D01*
X95692910Y-26580124D01*
X95690000Y-26605205D01*
X95690000Y-27250000D01*
X96406988Y-27250000D01*
X96374075Y-27307007D01*
X96340000Y-27434174D01*
X96340000Y-27565826D01*
X96374075Y-27692993D01*
X96406988Y-27750000D01*
X95690001Y-27750000D01*
X95690001Y-28394785D01*
X95690002Y-28394808D01*
X95692908Y-28419869D01*
X95692909Y-28419873D01*
X95738211Y-28522474D01*
X95738214Y-28522479D01*
X95817520Y-28601785D01*
X95817525Y-28601788D01*
X95920123Y-28647089D01*
X95945206Y-28649999D01*
X96589999Y-28649999D01*
X96590000Y-28649998D01*
X96590000Y-27933012D01*
X96647007Y-27965925D01*
X96774174Y-28000000D01*
X96905826Y-28000000D01*
X97032993Y-27965925D01*
X97090000Y-27933012D01*
X97090000Y-28649999D01*
X97734786Y-28649999D01*
X97734808Y-28649997D01*
X97759869Y-28647091D01*
X97759873Y-28647090D01*
X97862474Y-28601788D01*
X97862479Y-28601785D01*
X97941785Y-28522479D01*
X97941788Y-28522474D01*
X97987089Y-28419877D01*
X97987091Y-28419869D01*
X97988175Y-28410532D01*
X97989999Y-28394802D01*
X97989999Y-27650770D01*
X98009683Y-27583731D01*
X98062487Y-27537976D01*
X98131646Y-27528032D01*
X98195202Y-27557057D01*
X98232976Y-27615835D01*
X98236472Y-27631372D01*
X98258317Y-27769293D01*
X98314251Y-27941444D01*
X98314252Y-27941447D01*
X98396431Y-28102730D01*
X98407913Y-28118532D01*
X98407913Y-28118533D01*
X98897037Y-27629408D01*
X98914075Y-27692993D01*
X98979901Y-27807007D01*
X99072993Y-27900099D01*
X99187007Y-27965925D01*
X99250590Y-27982962D01*
X98761466Y-28472085D01*
X98761466Y-28472086D01*
X98777267Y-28483566D01*
X98777275Y-28483571D01*
X98938552Y-28565747D01*
X98938555Y-28565748D01*
X99110706Y-28621682D01*
X99289494Y-28650000D01*
X99470506Y-28650000D01*
X99649293Y-28621682D01*
X99821444Y-28565748D01*
X99821452Y-28565745D01*
X99982730Y-28483568D01*
X99998532Y-28472085D01*
X99998533Y-28472085D01*
X99509410Y-27982962D01*
X99572993Y-27965925D01*
X99687007Y-27900099D01*
X99780099Y-27807007D01*
X99845925Y-27692993D01*
X99862962Y-27629410D01*
X100352085Y-28118533D01*
X100352085Y-28118532D01*
X100363568Y-28102730D01*
X100445745Y-27941452D01*
X100445748Y-27941444D01*
X100501683Y-27769292D01*
X100527273Y-27607721D01*
X100557202Y-27544586D01*
X100616513Y-27507654D01*
X100686376Y-27508652D01*
X100744609Y-27547261D01*
X100772219Y-27607720D01*
X100797828Y-27769410D01*
X100853787Y-27941636D01*
X100853788Y-27941639D01*
X100903540Y-28039280D01*
X100935869Y-28102730D01*
X100936006Y-28102997D01*
X101042441Y-28249494D01*
X101042445Y-28249499D01*
X101170500Y-28377554D01*
X101170505Y-28377558D01*
X101256292Y-28439885D01*
X101317006Y-28483996D01*
X101422484Y-28537740D01*
X101478360Y-28566211D01*
X101478363Y-28566212D01*
X101529879Y-28582950D01*
X101650591Y-28622171D01*
X101733429Y-28635291D01*
X101829449Y-28650500D01*
X101829454Y-28650500D01*
X102010551Y-28650500D01*
X102097259Y-28636765D01*
X102189409Y-28622171D01*
X102361639Y-28566211D01*
X102522994Y-28483996D01*
X102669501Y-28377553D01*
X102797553Y-28249501D01*
X102903996Y-28102994D01*
X102986211Y-27941639D01*
X103042171Y-27769409D01*
X103056422Y-27679425D01*
X103067527Y-27609321D01*
X103097456Y-27546186D01*
X103156768Y-27509255D01*
X103226630Y-27510253D01*
X103284863Y-27548863D01*
X103312473Y-27609321D01*
X103337829Y-27769410D01*
X103393787Y-27941636D01*
X103393788Y-27941639D01*
X103443540Y-28039280D01*
X103475869Y-28102730D01*
X103476006Y-28102997D01*
X103582441Y-28249494D01*
X103582445Y-28249499D01*
X103710500Y-28377554D01*
X103710505Y-28377558D01*
X103796292Y-28439885D01*
X103857006Y-28483996D01*
X103962484Y-28537740D01*
X104018360Y-28566211D01*
X104018363Y-28566212D01*
X104069879Y-28582950D01*
X104190591Y-28622171D01*
X104273429Y-28635291D01*
X104369449Y-28650500D01*
X104369454Y-28650500D01*
X104550551Y-28650500D01*
X104637259Y-28636765D01*
X104729409Y-28622171D01*
X104901639Y-28566211D01*
X105062994Y-28483996D01*
X105209501Y-28377553D01*
X105337553Y-28249501D01*
X105443996Y-28102994D01*
X105526211Y-27941639D01*
X105582171Y-27769409D01*
X105596422Y-27679425D01*
X105607527Y-27609321D01*
X105637456Y-27546186D01*
X105696768Y-27509255D01*
X105766630Y-27510253D01*
X105824863Y-27548863D01*
X105852473Y-27609321D01*
X105877829Y-27769410D01*
X105933787Y-27941636D01*
X105933788Y-27941639D01*
X105983540Y-28039280D01*
X106015869Y-28102730D01*
X106016006Y-28102997D01*
X106122441Y-28249494D01*
X106122445Y-28249499D01*
X106250500Y-28377554D01*
X106250505Y-28377558D01*
X106336292Y-28439885D01*
X106397006Y-28483996D01*
X106502484Y-28537740D01*
X106558360Y-28566211D01*
X106558363Y-28566212D01*
X106609879Y-28582950D01*
X106730591Y-28622171D01*
X106813429Y-28635291D01*
X106909449Y-28650500D01*
X106909454Y-28650500D01*
X107090551Y-28650500D01*
X107269409Y-28622171D01*
X107270914Y-28621682D01*
X107413284Y-28575423D01*
X107483123Y-28573429D01*
X107539281Y-28605674D01*
X108446441Y-29512834D01*
X108721927Y-29788319D01*
X108755412Y-29849642D01*
X108750428Y-29919334D01*
X108708556Y-29975267D01*
X108643092Y-29999684D01*
X108634246Y-30000000D01*
X75000000Y-30000000D01*
X75000000Y-39871000D01*
X74980315Y-39938039D01*
X74927511Y-39983794D01*
X74876000Y-39995000D01*
X67624500Y-39995000D01*
X67557461Y-39975315D01*
X67511706Y-39922511D01*
X67500500Y-39871000D01*
X67500500Y-37207105D01*
X70000000Y-37207105D01*
X70000000Y-38792893D01*
X70702339Y-38090554D01*
X70730743Y-38233351D01*
X70791049Y-38378942D01*
X70878599Y-38509970D01*
X70990030Y-38621401D01*
X71121058Y-38708951D01*
X71266649Y-38769257D01*
X71409445Y-38797660D01*
X70707105Y-39499998D01*
X70707106Y-39499999D01*
X72292893Y-39499999D01*
X72292893Y-39499998D01*
X71590554Y-38797660D01*
X71733351Y-38769257D01*
X71878942Y-38708951D01*
X72009970Y-38621401D01*
X72121401Y-38509970D01*
X72208951Y-38378942D01*
X72269257Y-38233351D01*
X72297660Y-38090554D01*
X72999998Y-38792893D01*
X72999999Y-38792892D01*
X72999999Y-37207106D01*
X72999998Y-37207105D01*
X72297660Y-37909444D01*
X72269257Y-37766649D01*
X72208951Y-37621058D01*
X72121401Y-37490030D01*
X72009970Y-37378599D01*
X71878942Y-37291049D01*
X71733351Y-37230743D01*
X71590555Y-37202339D01*
X72292893Y-36500000D01*
X70707105Y-36500000D01*
X71409445Y-37202339D01*
X71266649Y-37230743D01*
X71121058Y-37291049D01*
X70990030Y-37378599D01*
X70878599Y-37490030D01*
X70791049Y-37621058D01*
X70730743Y-37766649D01*
X70702339Y-37909444D01*
X70000000Y-37207105D01*
X67500500Y-37207105D01*
X67500500Y-25624500D01*
X67520185Y-25557461D01*
X67572989Y-25511706D01*
X67624500Y-25500500D01*
X159876000Y-25500500D01*
X159943039Y-25520185D01*
G37*
%TD.AperFunction*%
%TD*%
M02*
