%TF.GenerationSoftware,KiCad,Pcbnew,9.0.5*%
%TF.CreationDate,2025-11-19T18:22:51+02:00*%
%TF.ProjectId,backplane,6261636b-706c-4616-9e65-2e6b69636164,rev?*%
%TF.SameCoordinates,Original*%
%TF.FileFunction,Soldermask,Bot*%
%TF.FilePolarity,Negative*%
%FSLAX46Y46*%
G04 Gerber Fmt 4.6, Leading zero omitted, Abs format (unit mm)*
G04 Created by KiCad (PCBNEW 9.0.5) date 2025-11-19 18:22:51*
%MOMM*%
%LPD*%
G01*
G04 APERTURE LIST*
%ADD10C,1.800000*%
%ADD11C,2.400000*%
%ADD12R,1.288000X1.288000*%
%ADD13C,1.288000*%
%ADD14R,2.400000X2.400000*%
%ADD15R,1.700000X1.700000*%
%ADD16C,1.700000*%
%ADD17C,1.500000*%
G04 APERTURE END LIST*
D10*
%TO.C,MOD2*%
X91650000Y-46630000D03*
D11*
X164800000Y-46630000D03*
D12*
X80000000Y-45380000D03*
D13*
X81000000Y-43380000D03*
X82000000Y-45380000D03*
X83000000Y-43380000D03*
X84000000Y-45380000D03*
X85000000Y-43380000D03*
X86000000Y-45380000D03*
X87000000Y-43380000D03*
X88000000Y-45380000D03*
X89000000Y-43380000D03*
X90000000Y-45380000D03*
X93000000Y-43380000D03*
X94000000Y-45380000D03*
X95000000Y-43380000D03*
X96000000Y-45380000D03*
X97000000Y-43380000D03*
X98000000Y-45380000D03*
X99000000Y-43380000D03*
X100000000Y-45380000D03*
X101000000Y-43380000D03*
X102000000Y-45380000D03*
X103000000Y-43380000D03*
X104000000Y-45380000D03*
X105000000Y-43380000D03*
X106000000Y-45380000D03*
X107000000Y-43380000D03*
X108000000Y-45380000D03*
X109000000Y-43380000D03*
X110000000Y-45380000D03*
X111000000Y-43380000D03*
X112000000Y-45380000D03*
X113000000Y-43380000D03*
X114000000Y-45380000D03*
X115000000Y-43380000D03*
X116000000Y-45380000D03*
X117000000Y-43380000D03*
X118000000Y-45380000D03*
X119000000Y-43380000D03*
X120000000Y-45380000D03*
X121000000Y-43380000D03*
X122000000Y-45380000D03*
X123000000Y-43380000D03*
X124000000Y-45380000D03*
X125000000Y-43380000D03*
X126000000Y-45380000D03*
X127000000Y-43380000D03*
X128000000Y-45380000D03*
X129000000Y-43380000D03*
X130000000Y-45380000D03*
X131000000Y-43380000D03*
X132000000Y-45380000D03*
X133000000Y-43380000D03*
X134000000Y-45380000D03*
X135000000Y-43380000D03*
X136000000Y-45380000D03*
X137000000Y-43380000D03*
X138000000Y-45380000D03*
X139000000Y-43380000D03*
X140000000Y-45380000D03*
X141000000Y-43380000D03*
X142000000Y-45380000D03*
X143000000Y-43380000D03*
X144000000Y-45380000D03*
X145000000Y-43380000D03*
X146000000Y-45380000D03*
X147000000Y-43380000D03*
X148000000Y-45380000D03*
X149000000Y-43380000D03*
X150000000Y-45380000D03*
X151000000Y-43380000D03*
X152000000Y-45380000D03*
X153000000Y-43380000D03*
X154000000Y-45380000D03*
X155000000Y-43380000D03*
X156000000Y-45380000D03*
X157000000Y-43380000D03*
X158000000Y-45380000D03*
X159000000Y-43380000D03*
X160000000Y-45380000D03*
X161000000Y-43380000D03*
X162000000Y-45380000D03*
X163000000Y-43380000D03*
X80000000Y-47880000D03*
X81000000Y-49880000D03*
X82000000Y-47880000D03*
X83000000Y-49880000D03*
X84000000Y-47880000D03*
X85000000Y-49880000D03*
X86000000Y-47880000D03*
X87000000Y-49880000D03*
X88000000Y-47880000D03*
X89000000Y-49880000D03*
X90000000Y-47880000D03*
X93000000Y-49880000D03*
X94000000Y-47880000D03*
X95000000Y-49880000D03*
X96000000Y-47880000D03*
X97000000Y-49880000D03*
X98000000Y-47880000D03*
X99000000Y-49880000D03*
X100000000Y-47880000D03*
X101000000Y-49880000D03*
X102000000Y-47880000D03*
X103000000Y-49880000D03*
X104000000Y-47880000D03*
X105000000Y-49880000D03*
X106000000Y-47880000D03*
X107000000Y-49880000D03*
X108000000Y-47880000D03*
X109000000Y-49880000D03*
X110000000Y-47880000D03*
X111000000Y-49880000D03*
X112000000Y-47880000D03*
X113000000Y-49880000D03*
X114000000Y-47880000D03*
X115000000Y-49880000D03*
X116000000Y-47880000D03*
X117000000Y-49880000D03*
X118000000Y-47880000D03*
X119000000Y-49880000D03*
X120000000Y-47880000D03*
X121000000Y-49880000D03*
X122000000Y-47880000D03*
X123000000Y-49880000D03*
X124000000Y-47880000D03*
X125000000Y-49880000D03*
X126000000Y-47880000D03*
X127000000Y-49880000D03*
X128000000Y-47880000D03*
X129000000Y-49880000D03*
X130000000Y-47880000D03*
X131000000Y-49880000D03*
X132000000Y-47880000D03*
X133000000Y-49880000D03*
X134000000Y-47880000D03*
X135000000Y-49880000D03*
X136000000Y-47880000D03*
X137000000Y-49880000D03*
X138000000Y-47880000D03*
X139000000Y-49880000D03*
X140000000Y-47880000D03*
X141000000Y-49880000D03*
X142000000Y-47880000D03*
X143000000Y-49880000D03*
X144000000Y-47880000D03*
X145000000Y-49880000D03*
X146000000Y-47880000D03*
X147000000Y-49880000D03*
X148000000Y-47880000D03*
X149000000Y-49880000D03*
X150000000Y-47880000D03*
X151000000Y-49880000D03*
X152000000Y-47880000D03*
X153000000Y-49880000D03*
X154000000Y-47880000D03*
X155000000Y-49880000D03*
X156000000Y-47880000D03*
X157000000Y-49880000D03*
X158000000Y-47880000D03*
X159000000Y-49880000D03*
X160000000Y-47880000D03*
X161000000Y-49880000D03*
X162000000Y-47880000D03*
X163000000Y-49880000D03*
%TD*%
D14*
%TO.C,J1*%
X71500000Y-38000000D03*
D11*
X71500000Y-43000000D03*
%TD*%
D10*
%TO.C,MOD6*%
X91650000Y-94790000D03*
D11*
X164800000Y-94790000D03*
D12*
X80000000Y-93540000D03*
D13*
X81000000Y-91540000D03*
X82000000Y-93540000D03*
X83000000Y-91540000D03*
X84000000Y-93540000D03*
X85000000Y-91540000D03*
X86000000Y-93540000D03*
X87000000Y-91540000D03*
X88000000Y-93540000D03*
X89000000Y-91540000D03*
X90000000Y-93540000D03*
X93000000Y-91540000D03*
X94000000Y-93540000D03*
X95000000Y-91540000D03*
X96000000Y-93540000D03*
X97000000Y-91540000D03*
X98000000Y-93540000D03*
X99000000Y-91540000D03*
X100000000Y-93540000D03*
X101000000Y-91540000D03*
X102000000Y-93540000D03*
X103000000Y-91540000D03*
X104000000Y-93540000D03*
X105000000Y-91540000D03*
X106000000Y-93540000D03*
X107000000Y-91540000D03*
X108000000Y-93540000D03*
X109000000Y-91540000D03*
X110000000Y-93540000D03*
X111000000Y-91540000D03*
X112000000Y-93540000D03*
X113000000Y-91540000D03*
X114000000Y-93540000D03*
X115000000Y-91540000D03*
X116000000Y-93540000D03*
X117000000Y-91540000D03*
X118000000Y-93540000D03*
X119000000Y-91540000D03*
X120000000Y-93540000D03*
X121000000Y-91540000D03*
X122000000Y-93540000D03*
X123000000Y-91540000D03*
X124000000Y-93540000D03*
X125000000Y-91540000D03*
X126000000Y-93540000D03*
X127000000Y-91540000D03*
X128000000Y-93540000D03*
X129000000Y-91540000D03*
X130000000Y-93540000D03*
X131000000Y-91540000D03*
X132000000Y-93540000D03*
X133000000Y-91540000D03*
X134000000Y-93540000D03*
X135000000Y-91540000D03*
X136000000Y-93540000D03*
X137000000Y-91540000D03*
X138000000Y-93540000D03*
X139000000Y-91540000D03*
X140000000Y-93540000D03*
X141000000Y-91540000D03*
X142000000Y-93540000D03*
X143000000Y-91540000D03*
X144000000Y-93540000D03*
X145000000Y-91540000D03*
X146000000Y-93540000D03*
X147000000Y-91540000D03*
X148000000Y-93540000D03*
X149000000Y-91540000D03*
X150000000Y-93540000D03*
X151000000Y-91540000D03*
X152000000Y-93540000D03*
X153000000Y-91540000D03*
X154000000Y-93540000D03*
X155000000Y-91540000D03*
X156000000Y-93540000D03*
X157000000Y-91540000D03*
X158000000Y-93540000D03*
X159000000Y-91540000D03*
X160000000Y-93540000D03*
X161000000Y-91540000D03*
X162000000Y-93540000D03*
X163000000Y-91540000D03*
X80000000Y-96040000D03*
X81000000Y-98040000D03*
X82000000Y-96040000D03*
X83000000Y-98040000D03*
X84000000Y-96040000D03*
X85000000Y-98040000D03*
X86000000Y-96040000D03*
X87000000Y-98040000D03*
X88000000Y-96040000D03*
X89000000Y-98040000D03*
X90000000Y-96040000D03*
X93000000Y-98040000D03*
X94000000Y-96040000D03*
X95000000Y-98040000D03*
X96000000Y-96040000D03*
X97000000Y-98040000D03*
X98000000Y-96040000D03*
X99000000Y-98040000D03*
X100000000Y-96040000D03*
X101000000Y-98040000D03*
X102000000Y-96040000D03*
X103000000Y-98040000D03*
X104000000Y-96040000D03*
X105000000Y-98040000D03*
X106000000Y-96040000D03*
X107000000Y-98040000D03*
X108000000Y-96040000D03*
X109000000Y-98040000D03*
X110000000Y-96040000D03*
X111000000Y-98040000D03*
X112000000Y-96040000D03*
X113000000Y-98040000D03*
X114000000Y-96040000D03*
X115000000Y-98040000D03*
X116000000Y-96040000D03*
X117000000Y-98040000D03*
X118000000Y-96040000D03*
X119000000Y-98040000D03*
X120000000Y-96040000D03*
X121000000Y-98040000D03*
X122000000Y-96040000D03*
X123000000Y-98040000D03*
X124000000Y-96040000D03*
X125000000Y-98040000D03*
X126000000Y-96040000D03*
X127000000Y-98040000D03*
X128000000Y-96040000D03*
X129000000Y-98040000D03*
X130000000Y-96040000D03*
X131000000Y-98040000D03*
X132000000Y-96040000D03*
X133000000Y-98040000D03*
X134000000Y-96040000D03*
X135000000Y-98040000D03*
X136000000Y-96040000D03*
X137000000Y-98040000D03*
X138000000Y-96040000D03*
X139000000Y-98040000D03*
X140000000Y-96040000D03*
X141000000Y-98040000D03*
X142000000Y-96040000D03*
X143000000Y-98040000D03*
X144000000Y-96040000D03*
X145000000Y-98040000D03*
X146000000Y-96040000D03*
X147000000Y-98040000D03*
X148000000Y-96040000D03*
X149000000Y-98040000D03*
X150000000Y-96040000D03*
X151000000Y-98040000D03*
X152000000Y-96040000D03*
X153000000Y-98040000D03*
X154000000Y-96040000D03*
X155000000Y-98040000D03*
X156000000Y-96040000D03*
X157000000Y-98040000D03*
X158000000Y-96040000D03*
X159000000Y-98040000D03*
X160000000Y-96040000D03*
X161000000Y-98040000D03*
X162000000Y-96040000D03*
X163000000Y-98040000D03*
%TD*%
D10*
%TO.C,MOD7*%
X91650000Y-106830000D03*
D11*
X164800000Y-106830000D03*
D12*
X80000000Y-105580000D03*
D13*
X81000000Y-103580000D03*
X82000000Y-105580000D03*
X83000000Y-103580000D03*
X84000000Y-105580000D03*
X85000000Y-103580000D03*
X86000000Y-105580000D03*
X87000000Y-103580000D03*
X88000000Y-105580000D03*
X89000000Y-103580000D03*
X90000000Y-105580000D03*
X93000000Y-103580000D03*
X94000000Y-105580000D03*
X95000000Y-103580000D03*
X96000000Y-105580000D03*
X97000000Y-103580000D03*
X98000000Y-105580000D03*
X99000000Y-103580000D03*
X100000000Y-105580000D03*
X101000000Y-103580000D03*
X102000000Y-105580000D03*
X103000000Y-103580000D03*
X104000000Y-105580000D03*
X105000000Y-103580000D03*
X106000000Y-105580000D03*
X107000000Y-103580000D03*
X108000000Y-105580000D03*
X109000000Y-103580000D03*
X110000000Y-105580000D03*
X111000000Y-103580000D03*
X112000000Y-105580000D03*
X113000000Y-103580000D03*
X114000000Y-105580000D03*
X115000000Y-103580000D03*
X116000000Y-105580000D03*
X117000000Y-103580000D03*
X118000000Y-105580000D03*
X119000000Y-103580000D03*
X120000000Y-105580000D03*
X121000000Y-103580000D03*
X122000000Y-105580000D03*
X123000000Y-103580000D03*
X124000000Y-105580000D03*
X125000000Y-103580000D03*
X126000000Y-105580000D03*
X127000000Y-103580000D03*
X128000000Y-105580000D03*
X129000000Y-103580000D03*
X130000000Y-105580000D03*
X131000000Y-103580000D03*
X132000000Y-105580000D03*
X133000000Y-103580000D03*
X134000000Y-105580000D03*
X135000000Y-103580000D03*
X136000000Y-105580000D03*
X137000000Y-103580000D03*
X138000000Y-105580000D03*
X139000000Y-103580000D03*
X140000000Y-105580000D03*
X141000000Y-103580000D03*
X142000000Y-105580000D03*
X143000000Y-103580000D03*
X144000000Y-105580000D03*
X145000000Y-103580000D03*
X146000000Y-105580000D03*
X147000000Y-103580000D03*
X148000000Y-105580000D03*
X149000000Y-103580000D03*
X150000000Y-105580000D03*
X151000000Y-103580000D03*
X152000000Y-105580000D03*
X153000000Y-103580000D03*
X154000000Y-105580000D03*
X155000000Y-103580000D03*
X156000000Y-105580000D03*
X157000000Y-103580000D03*
X158000000Y-105580000D03*
X159000000Y-103580000D03*
X160000000Y-105580000D03*
X161000000Y-103580000D03*
X162000000Y-105580000D03*
X163000000Y-103580000D03*
X80000000Y-108080000D03*
X81000000Y-110080000D03*
X82000000Y-108080000D03*
X83000000Y-110080000D03*
X84000000Y-108080000D03*
X85000000Y-110080000D03*
X86000000Y-108080000D03*
X87000000Y-110080000D03*
X88000000Y-108080000D03*
X89000000Y-110080000D03*
X90000000Y-108080000D03*
X93000000Y-110080000D03*
X94000000Y-108080000D03*
X95000000Y-110080000D03*
X96000000Y-108080000D03*
X97000000Y-110080000D03*
X98000000Y-108080000D03*
X99000000Y-110080000D03*
X100000000Y-108080000D03*
X101000000Y-110080000D03*
X102000000Y-108080000D03*
X103000000Y-110080000D03*
X104000000Y-108080000D03*
X105000000Y-110080000D03*
X106000000Y-108080000D03*
X107000000Y-110080000D03*
X108000000Y-108080000D03*
X109000000Y-110080000D03*
X110000000Y-108080000D03*
X111000000Y-110080000D03*
X112000000Y-108080000D03*
X113000000Y-110080000D03*
X114000000Y-108080000D03*
X115000000Y-110080000D03*
X116000000Y-108080000D03*
X117000000Y-110080000D03*
X118000000Y-108080000D03*
X119000000Y-110080000D03*
X120000000Y-108080000D03*
X121000000Y-110080000D03*
X122000000Y-108080000D03*
X123000000Y-110080000D03*
X124000000Y-108080000D03*
X125000000Y-110080000D03*
X126000000Y-108080000D03*
X127000000Y-110080000D03*
X128000000Y-108080000D03*
X129000000Y-110080000D03*
X130000000Y-108080000D03*
X131000000Y-110080000D03*
X132000000Y-108080000D03*
X133000000Y-110080000D03*
X134000000Y-108080000D03*
X135000000Y-110080000D03*
X136000000Y-108080000D03*
X137000000Y-110080000D03*
X138000000Y-108080000D03*
X139000000Y-110080000D03*
X140000000Y-108080000D03*
X141000000Y-110080000D03*
X142000000Y-108080000D03*
X143000000Y-110080000D03*
X144000000Y-108080000D03*
X145000000Y-110080000D03*
X146000000Y-108080000D03*
X147000000Y-110080000D03*
X148000000Y-108080000D03*
X149000000Y-110080000D03*
X150000000Y-108080000D03*
X151000000Y-110080000D03*
X152000000Y-108080000D03*
X153000000Y-110080000D03*
X154000000Y-108080000D03*
X155000000Y-110080000D03*
X156000000Y-108080000D03*
X157000000Y-110080000D03*
X158000000Y-108080000D03*
X159000000Y-110080000D03*
X160000000Y-108080000D03*
X161000000Y-110080000D03*
X162000000Y-108080000D03*
X163000000Y-110080000D03*
%TD*%
D10*
%TO.C,MOD5*%
X91650000Y-82750000D03*
D11*
X164800000Y-82750000D03*
D12*
X80000000Y-81500000D03*
D13*
X81000000Y-79500000D03*
X82000000Y-81500000D03*
X83000000Y-79500000D03*
X84000000Y-81500000D03*
X85000000Y-79500000D03*
X86000000Y-81500000D03*
X87000000Y-79500000D03*
X88000000Y-81500000D03*
X89000000Y-79500000D03*
X90000000Y-81500000D03*
X93000000Y-79500000D03*
X94000000Y-81500000D03*
X95000000Y-79500000D03*
X96000000Y-81500000D03*
X97000000Y-79500000D03*
X98000000Y-81500000D03*
X99000000Y-79500000D03*
X100000000Y-81500000D03*
X101000000Y-79500000D03*
X102000000Y-81500000D03*
X103000000Y-79500000D03*
X104000000Y-81500000D03*
X105000000Y-79500000D03*
X106000000Y-81500000D03*
X107000000Y-79500000D03*
X108000000Y-81500000D03*
X109000000Y-79500000D03*
X110000000Y-81500000D03*
X111000000Y-79500000D03*
X112000000Y-81500000D03*
X113000000Y-79500000D03*
X114000000Y-81500000D03*
X115000000Y-79500000D03*
X116000000Y-81500000D03*
X117000000Y-79500000D03*
X118000000Y-81500000D03*
X119000000Y-79500000D03*
X120000000Y-81500000D03*
X121000000Y-79500000D03*
X122000000Y-81500000D03*
X123000000Y-79500000D03*
X124000000Y-81500000D03*
X125000000Y-79500000D03*
X126000000Y-81500000D03*
X127000000Y-79500000D03*
X128000000Y-81500000D03*
X129000000Y-79500000D03*
X130000000Y-81500000D03*
X131000000Y-79500000D03*
X132000000Y-81500000D03*
X133000000Y-79500000D03*
X134000000Y-81500000D03*
X135000000Y-79500000D03*
X136000000Y-81500000D03*
X137000000Y-79500000D03*
X138000000Y-81500000D03*
X139000000Y-79500000D03*
X140000000Y-81500000D03*
X141000000Y-79500000D03*
X142000000Y-81500000D03*
X143000000Y-79500000D03*
X144000000Y-81500000D03*
X145000000Y-79500000D03*
X146000000Y-81500000D03*
X147000000Y-79500000D03*
X148000000Y-81500000D03*
X149000000Y-79500000D03*
X150000000Y-81500000D03*
X151000000Y-79500000D03*
X152000000Y-81500000D03*
X153000000Y-79500000D03*
X154000000Y-81500000D03*
X155000000Y-79500000D03*
X156000000Y-81500000D03*
X157000000Y-79500000D03*
X158000000Y-81500000D03*
X159000000Y-79500000D03*
X160000000Y-81500000D03*
X161000000Y-79500000D03*
X162000000Y-81500000D03*
X163000000Y-79500000D03*
X80000000Y-84000000D03*
X81000000Y-86000000D03*
X82000000Y-84000000D03*
X83000000Y-86000000D03*
X84000000Y-84000000D03*
X85000000Y-86000000D03*
X86000000Y-84000000D03*
X87000000Y-86000000D03*
X88000000Y-84000000D03*
X89000000Y-86000000D03*
X90000000Y-84000000D03*
X93000000Y-86000000D03*
X94000000Y-84000000D03*
X95000000Y-86000000D03*
X96000000Y-84000000D03*
X97000000Y-86000000D03*
X98000000Y-84000000D03*
X99000000Y-86000000D03*
X100000000Y-84000000D03*
X101000000Y-86000000D03*
X102000000Y-84000000D03*
X103000000Y-86000000D03*
X104000000Y-84000000D03*
X105000000Y-86000000D03*
X106000000Y-84000000D03*
X107000000Y-86000000D03*
X108000000Y-84000000D03*
X109000000Y-86000000D03*
X110000000Y-84000000D03*
X111000000Y-86000000D03*
X112000000Y-84000000D03*
X113000000Y-86000000D03*
X114000000Y-84000000D03*
X115000000Y-86000000D03*
X116000000Y-84000000D03*
X117000000Y-86000000D03*
X118000000Y-84000000D03*
X119000000Y-86000000D03*
X120000000Y-84000000D03*
X121000000Y-86000000D03*
X122000000Y-84000000D03*
X123000000Y-86000000D03*
X124000000Y-84000000D03*
X125000000Y-86000000D03*
X126000000Y-84000000D03*
X127000000Y-86000000D03*
X128000000Y-84000000D03*
X129000000Y-86000000D03*
X130000000Y-84000000D03*
X131000000Y-86000000D03*
X132000000Y-84000000D03*
X133000000Y-86000000D03*
X134000000Y-84000000D03*
X135000000Y-86000000D03*
X136000000Y-84000000D03*
X137000000Y-86000000D03*
X138000000Y-84000000D03*
X139000000Y-86000000D03*
X140000000Y-84000000D03*
X141000000Y-86000000D03*
X142000000Y-84000000D03*
X143000000Y-86000000D03*
X144000000Y-84000000D03*
X145000000Y-86000000D03*
X146000000Y-84000000D03*
X147000000Y-86000000D03*
X148000000Y-84000000D03*
X149000000Y-86000000D03*
X150000000Y-84000000D03*
X151000000Y-86000000D03*
X152000000Y-84000000D03*
X153000000Y-86000000D03*
X154000000Y-84000000D03*
X155000000Y-86000000D03*
X156000000Y-84000000D03*
X157000000Y-86000000D03*
X158000000Y-84000000D03*
X159000000Y-86000000D03*
X160000000Y-84000000D03*
X161000000Y-86000000D03*
X162000000Y-84000000D03*
X163000000Y-86000000D03*
%TD*%
D10*
%TO.C,MOD4*%
X91650000Y-70710000D03*
D11*
X164800000Y-70710000D03*
D12*
X80000000Y-69460000D03*
D13*
X81000000Y-67460000D03*
X82000000Y-69460000D03*
X83000000Y-67460000D03*
X84000000Y-69460000D03*
X85000000Y-67460000D03*
X86000000Y-69460000D03*
X87000000Y-67460000D03*
X88000000Y-69460000D03*
X89000000Y-67460000D03*
X90000000Y-69460000D03*
X93000000Y-67460000D03*
X94000000Y-69460000D03*
X95000000Y-67460000D03*
X96000000Y-69460000D03*
X97000000Y-67460000D03*
X98000000Y-69460000D03*
X99000000Y-67460000D03*
X100000000Y-69460000D03*
X101000000Y-67460000D03*
X102000000Y-69460000D03*
X103000000Y-67460000D03*
X104000000Y-69460000D03*
X105000000Y-67460000D03*
X106000000Y-69460000D03*
X107000000Y-67460000D03*
X108000000Y-69460000D03*
X109000000Y-67460000D03*
X110000000Y-69460000D03*
X111000000Y-67460000D03*
X112000000Y-69460000D03*
X113000000Y-67460000D03*
X114000000Y-69460000D03*
X115000000Y-67460000D03*
X116000000Y-69460000D03*
X117000000Y-67460000D03*
X118000000Y-69460000D03*
X119000000Y-67460000D03*
X120000000Y-69460000D03*
X121000000Y-67460000D03*
X122000000Y-69460000D03*
X123000000Y-67460000D03*
X124000000Y-69460000D03*
X125000000Y-67460000D03*
X126000000Y-69460000D03*
X127000000Y-67460000D03*
X128000000Y-69460000D03*
X129000000Y-67460000D03*
X130000000Y-69460000D03*
X131000000Y-67460000D03*
X132000000Y-69460000D03*
X133000000Y-67460000D03*
X134000000Y-69460000D03*
X135000000Y-67460000D03*
X136000000Y-69460000D03*
X137000000Y-67460000D03*
X138000000Y-69460000D03*
X139000000Y-67460000D03*
X140000000Y-69460000D03*
X141000000Y-67460000D03*
X142000000Y-69460000D03*
X143000000Y-67460000D03*
X144000000Y-69460000D03*
X145000000Y-67460000D03*
X146000000Y-69460000D03*
X147000000Y-67460000D03*
X148000000Y-69460000D03*
X149000000Y-67460000D03*
X150000000Y-69460000D03*
X151000000Y-67460000D03*
X152000000Y-69460000D03*
X153000000Y-67460000D03*
X154000000Y-69460000D03*
X155000000Y-67460000D03*
X156000000Y-69460000D03*
X157000000Y-67460000D03*
X158000000Y-69460000D03*
X159000000Y-67460000D03*
X160000000Y-69460000D03*
X161000000Y-67460000D03*
X162000000Y-69460000D03*
X163000000Y-67460000D03*
X80000000Y-71960000D03*
X81000000Y-73960000D03*
X82000000Y-71960000D03*
X83000000Y-73960000D03*
X84000000Y-71960000D03*
X85000000Y-73960000D03*
X86000000Y-71960000D03*
X87000000Y-73960000D03*
X88000000Y-71960000D03*
X89000000Y-73960000D03*
X90000000Y-71960000D03*
X93000000Y-73960000D03*
X94000000Y-71960000D03*
X95000000Y-73960000D03*
X96000000Y-71960000D03*
X97000000Y-73960000D03*
X98000000Y-71960000D03*
X99000000Y-73960000D03*
X100000000Y-71960000D03*
X101000000Y-73960000D03*
X102000000Y-71960000D03*
X103000000Y-73960000D03*
X104000000Y-71960000D03*
X105000000Y-73960000D03*
X106000000Y-71960000D03*
X107000000Y-73960000D03*
X108000000Y-71960000D03*
X109000000Y-73960000D03*
X110000000Y-71960000D03*
X111000000Y-73960000D03*
X112000000Y-71960000D03*
X113000000Y-73960000D03*
X114000000Y-71960000D03*
X115000000Y-73960000D03*
X116000000Y-71960000D03*
X117000000Y-73960000D03*
X118000000Y-71960000D03*
X119000000Y-73960000D03*
X120000000Y-71960000D03*
X121000000Y-73960000D03*
X122000000Y-71960000D03*
X123000000Y-73960000D03*
X124000000Y-71960000D03*
X125000000Y-73960000D03*
X126000000Y-71960000D03*
X127000000Y-73960000D03*
X128000000Y-71960000D03*
X129000000Y-73960000D03*
X130000000Y-71960000D03*
X131000000Y-73960000D03*
X132000000Y-71960000D03*
X133000000Y-73960000D03*
X134000000Y-71960000D03*
X135000000Y-73960000D03*
X136000000Y-71960000D03*
X137000000Y-73960000D03*
X138000000Y-71960000D03*
X139000000Y-73960000D03*
X140000000Y-71960000D03*
X141000000Y-73960000D03*
X142000000Y-71960000D03*
X143000000Y-73960000D03*
X144000000Y-71960000D03*
X145000000Y-73960000D03*
X146000000Y-71960000D03*
X147000000Y-73960000D03*
X148000000Y-71960000D03*
X149000000Y-73960000D03*
X150000000Y-71960000D03*
X151000000Y-73960000D03*
X152000000Y-71960000D03*
X153000000Y-73960000D03*
X154000000Y-71960000D03*
X155000000Y-73960000D03*
X156000000Y-71960000D03*
X157000000Y-73960000D03*
X158000000Y-71960000D03*
X159000000Y-73960000D03*
X160000000Y-71960000D03*
X161000000Y-73960000D03*
X162000000Y-71960000D03*
X163000000Y-73960000D03*
%TD*%
D10*
%TO.C,MOD8*%
X91650000Y-118870000D03*
D11*
X164800000Y-118870000D03*
D12*
X80000000Y-117620000D03*
D13*
X81000000Y-115620000D03*
X82000000Y-117620000D03*
X83000000Y-115620000D03*
X84000000Y-117620000D03*
X85000000Y-115620000D03*
X86000000Y-117620000D03*
X87000000Y-115620000D03*
X88000000Y-117620000D03*
X89000000Y-115620000D03*
X90000000Y-117620000D03*
X93000000Y-115620000D03*
X94000000Y-117620000D03*
X95000000Y-115620000D03*
X96000000Y-117620000D03*
X97000000Y-115620000D03*
X98000000Y-117620000D03*
X99000000Y-115620000D03*
X100000000Y-117620000D03*
X101000000Y-115620000D03*
X102000000Y-117620000D03*
X103000000Y-115620000D03*
X104000000Y-117620000D03*
X105000000Y-115620000D03*
X106000000Y-117620000D03*
X107000000Y-115620000D03*
X108000000Y-117620000D03*
X109000000Y-115620000D03*
X110000000Y-117620000D03*
X111000000Y-115620000D03*
X112000000Y-117620000D03*
X113000000Y-115620000D03*
X114000000Y-117620000D03*
X115000000Y-115620000D03*
X116000000Y-117620000D03*
X117000000Y-115620000D03*
X118000000Y-117620000D03*
X119000000Y-115620000D03*
X120000000Y-117620000D03*
X121000000Y-115620000D03*
X122000000Y-117620000D03*
X123000000Y-115620000D03*
X124000000Y-117620000D03*
X125000000Y-115620000D03*
X126000000Y-117620000D03*
X127000000Y-115620000D03*
X128000000Y-117620000D03*
X129000000Y-115620000D03*
X130000000Y-117620000D03*
X131000000Y-115620000D03*
X132000000Y-117620000D03*
X133000000Y-115620000D03*
X134000000Y-117620000D03*
X135000000Y-115620000D03*
X136000000Y-117620000D03*
X137000000Y-115620000D03*
X138000000Y-117620000D03*
X139000000Y-115620000D03*
X140000000Y-117620000D03*
X141000000Y-115620000D03*
X142000000Y-117620000D03*
X143000000Y-115620000D03*
X144000000Y-117620000D03*
X145000000Y-115620000D03*
X146000000Y-117620000D03*
X147000000Y-115620000D03*
X148000000Y-117620000D03*
X149000000Y-115620000D03*
X150000000Y-117620000D03*
X151000000Y-115620000D03*
X152000000Y-117620000D03*
X153000000Y-115620000D03*
X154000000Y-117620000D03*
X155000000Y-115620000D03*
X156000000Y-117620000D03*
X157000000Y-115620000D03*
X158000000Y-117620000D03*
X159000000Y-115620000D03*
X160000000Y-117620000D03*
X161000000Y-115620000D03*
X162000000Y-117620000D03*
X163000000Y-115620000D03*
X80000000Y-120120000D03*
X81000000Y-122120000D03*
X82000000Y-120120000D03*
X83000000Y-122120000D03*
X84000000Y-120120000D03*
X85000000Y-122120000D03*
X86000000Y-120120000D03*
X87000000Y-122120000D03*
X88000000Y-120120000D03*
X89000000Y-122120000D03*
X90000000Y-120120000D03*
X93000000Y-122120000D03*
X94000000Y-120120000D03*
X95000000Y-122120000D03*
X96000000Y-120120000D03*
X97000000Y-122120000D03*
X98000000Y-120120000D03*
X99000000Y-122120000D03*
X100000000Y-120120000D03*
X101000000Y-122120000D03*
X102000000Y-120120000D03*
X103000000Y-122120000D03*
X104000000Y-120120000D03*
X105000000Y-122120000D03*
X106000000Y-120120000D03*
X107000000Y-122120000D03*
X108000000Y-120120000D03*
X109000000Y-122120000D03*
X110000000Y-120120000D03*
X111000000Y-122120000D03*
X112000000Y-120120000D03*
X113000000Y-122120000D03*
X114000000Y-120120000D03*
X115000000Y-122120000D03*
X116000000Y-120120000D03*
X117000000Y-122120000D03*
X118000000Y-120120000D03*
X119000000Y-122120000D03*
X120000000Y-120120000D03*
X121000000Y-122120000D03*
X122000000Y-120120000D03*
X123000000Y-122120000D03*
X124000000Y-120120000D03*
X125000000Y-122120000D03*
X126000000Y-120120000D03*
X127000000Y-122120000D03*
X128000000Y-120120000D03*
X129000000Y-122120000D03*
X130000000Y-120120000D03*
X131000000Y-122120000D03*
X132000000Y-120120000D03*
X133000000Y-122120000D03*
X134000000Y-120120000D03*
X135000000Y-122120000D03*
X136000000Y-120120000D03*
X137000000Y-122120000D03*
X138000000Y-120120000D03*
X139000000Y-122120000D03*
X140000000Y-120120000D03*
X141000000Y-122120000D03*
X142000000Y-120120000D03*
X143000000Y-122120000D03*
X144000000Y-120120000D03*
X145000000Y-122120000D03*
X146000000Y-120120000D03*
X147000000Y-122120000D03*
X148000000Y-120120000D03*
X149000000Y-122120000D03*
X150000000Y-120120000D03*
X151000000Y-122120000D03*
X152000000Y-120120000D03*
X153000000Y-122120000D03*
X154000000Y-120120000D03*
X155000000Y-122120000D03*
X156000000Y-120120000D03*
X157000000Y-122120000D03*
X158000000Y-120120000D03*
X159000000Y-122120000D03*
X160000000Y-120120000D03*
X161000000Y-122120000D03*
X162000000Y-120120000D03*
X163000000Y-122120000D03*
%TD*%
D10*
%TO.C,MOD3*%
X91650000Y-58670000D03*
D11*
X164800000Y-58670000D03*
D12*
X80000000Y-57420000D03*
D13*
X81000000Y-55420000D03*
X82000000Y-57420000D03*
X83000000Y-55420000D03*
X84000000Y-57420000D03*
X85000000Y-55420000D03*
X86000000Y-57420000D03*
X87000000Y-55420000D03*
X88000000Y-57420000D03*
X89000000Y-55420000D03*
X90000000Y-57420000D03*
X93000000Y-55420000D03*
X94000000Y-57420000D03*
X95000000Y-55420000D03*
X96000000Y-57420000D03*
X97000000Y-55420000D03*
X98000000Y-57420000D03*
X99000000Y-55420000D03*
X100000000Y-57420000D03*
X101000000Y-55420000D03*
X102000000Y-57420000D03*
X103000000Y-55420000D03*
X104000000Y-57420000D03*
X105000000Y-55420000D03*
X106000000Y-57420000D03*
X107000000Y-55420000D03*
X108000000Y-57420000D03*
X109000000Y-55420000D03*
X110000000Y-57420000D03*
X111000000Y-55420000D03*
X112000000Y-57420000D03*
X113000000Y-55420000D03*
X114000000Y-57420000D03*
X115000000Y-55420000D03*
X116000000Y-57420000D03*
X117000000Y-55420000D03*
X118000000Y-57420000D03*
X119000000Y-55420000D03*
X120000000Y-57420000D03*
X121000000Y-55420000D03*
X122000000Y-57420000D03*
X123000000Y-55420000D03*
X124000000Y-57420000D03*
X125000000Y-55420000D03*
X126000000Y-57420000D03*
X127000000Y-55420000D03*
X128000000Y-57420000D03*
X129000000Y-55420000D03*
X130000000Y-57420000D03*
X131000000Y-55420000D03*
X132000000Y-57420000D03*
X133000000Y-55420000D03*
X134000000Y-57420000D03*
X135000000Y-55420000D03*
X136000000Y-57420000D03*
X137000000Y-55420000D03*
X138000000Y-57420000D03*
X139000000Y-55420000D03*
X140000000Y-57420000D03*
X141000000Y-55420000D03*
X142000000Y-57420000D03*
X143000000Y-55420000D03*
X144000000Y-57420000D03*
X145000000Y-55420000D03*
X146000000Y-57420000D03*
X147000000Y-55420000D03*
X148000000Y-57420000D03*
X149000000Y-55420000D03*
X150000000Y-57420000D03*
X151000000Y-55420000D03*
X152000000Y-57420000D03*
X153000000Y-55420000D03*
X154000000Y-57420000D03*
X155000000Y-55420000D03*
X156000000Y-57420000D03*
X157000000Y-55420000D03*
X158000000Y-57420000D03*
X159000000Y-55420000D03*
X160000000Y-57420000D03*
X161000000Y-55420000D03*
X162000000Y-57420000D03*
X163000000Y-55420000D03*
X80000000Y-59920000D03*
X81000000Y-61920000D03*
X82000000Y-59920000D03*
X83000000Y-61920000D03*
X84000000Y-59920000D03*
X85000000Y-61920000D03*
X86000000Y-59920000D03*
X87000000Y-61920000D03*
X88000000Y-59920000D03*
X89000000Y-61920000D03*
X90000000Y-59920000D03*
X93000000Y-61920000D03*
X94000000Y-59920000D03*
X95000000Y-61920000D03*
X96000000Y-59920000D03*
X97000000Y-61920000D03*
X98000000Y-59920000D03*
X99000000Y-61920000D03*
X100000000Y-59920000D03*
X101000000Y-61920000D03*
X102000000Y-59920000D03*
X103000000Y-61920000D03*
X104000000Y-59920000D03*
X105000000Y-61920000D03*
X106000000Y-59920000D03*
X107000000Y-61920000D03*
X108000000Y-59920000D03*
X109000000Y-61920000D03*
X110000000Y-59920000D03*
X111000000Y-61920000D03*
X112000000Y-59920000D03*
X113000000Y-61920000D03*
X114000000Y-59920000D03*
X115000000Y-61920000D03*
X116000000Y-59920000D03*
X117000000Y-61920000D03*
X118000000Y-59920000D03*
X119000000Y-61920000D03*
X120000000Y-59920000D03*
X121000000Y-61920000D03*
X122000000Y-59920000D03*
X123000000Y-61920000D03*
X124000000Y-59920000D03*
X125000000Y-61920000D03*
X126000000Y-59920000D03*
X127000000Y-61920000D03*
X128000000Y-59920000D03*
X129000000Y-61920000D03*
X130000000Y-59920000D03*
X131000000Y-61920000D03*
X132000000Y-59920000D03*
X133000000Y-61920000D03*
X134000000Y-59920000D03*
X135000000Y-61920000D03*
X136000000Y-59920000D03*
X137000000Y-61920000D03*
X138000000Y-59920000D03*
X139000000Y-61920000D03*
X140000000Y-59920000D03*
X141000000Y-61920000D03*
X142000000Y-59920000D03*
X143000000Y-61920000D03*
X144000000Y-59920000D03*
X145000000Y-61920000D03*
X146000000Y-59920000D03*
X147000000Y-61920000D03*
X148000000Y-59920000D03*
X149000000Y-61920000D03*
X150000000Y-59920000D03*
X151000000Y-61920000D03*
X152000000Y-59920000D03*
X153000000Y-61920000D03*
X154000000Y-59920000D03*
X155000000Y-61920000D03*
X156000000Y-59920000D03*
X157000000Y-61920000D03*
X158000000Y-59920000D03*
X159000000Y-61920000D03*
X160000000Y-59920000D03*
X161000000Y-61920000D03*
X162000000Y-59920000D03*
X163000000Y-61920000D03*
%TD*%
D15*
%TO.C,J2*%
X96840000Y-27500000D03*
D16*
X99380000Y-27500000D03*
X101920000Y-27500000D03*
X104460000Y-27500000D03*
X107000000Y-27500000D03*
X109540000Y-27500000D03*
X112080000Y-27500000D03*
X114620000Y-27500000D03*
X117160000Y-27500000D03*
X119700000Y-27500000D03*
X122240000Y-27500000D03*
X124780000Y-27500000D03*
X127320000Y-27500000D03*
X129860000Y-27500000D03*
X132400000Y-27500000D03*
X134940000Y-27500000D03*
X137480000Y-27500000D03*
X140020000Y-27500000D03*
X142560000Y-27500000D03*
X145100000Y-27500000D03*
%TD*%
D10*
%TO.C,MOD1*%
X91650000Y-34590000D03*
D11*
X164800000Y-34590000D03*
D12*
X80000000Y-33340000D03*
D13*
X81000000Y-31340000D03*
X82000000Y-33340000D03*
X83000000Y-31340000D03*
X84000000Y-33340000D03*
X85000000Y-31340000D03*
X86000000Y-33340000D03*
X87000000Y-31340000D03*
X88000000Y-33340000D03*
X89000000Y-31340000D03*
X90000000Y-33340000D03*
X93000000Y-31340000D03*
X94000000Y-33340000D03*
X95000000Y-31340000D03*
X96000000Y-33340000D03*
X97000000Y-31340000D03*
X98000000Y-33340000D03*
X99000000Y-31340000D03*
X100000000Y-33340000D03*
X101000000Y-31340000D03*
X102000000Y-33340000D03*
X103000000Y-31340000D03*
X104000000Y-33340000D03*
X105000000Y-31340000D03*
X106000000Y-33340000D03*
X107000000Y-31340000D03*
X108000000Y-33340000D03*
X109000000Y-31340000D03*
X110000000Y-33340000D03*
X111000000Y-31340000D03*
X112000000Y-33340000D03*
X113000000Y-31340000D03*
X114000000Y-33340000D03*
X115000000Y-31340000D03*
X116000000Y-33340000D03*
X117000000Y-31340000D03*
X118000000Y-33340000D03*
X119000000Y-31340000D03*
X120000000Y-33340000D03*
X121000000Y-31340000D03*
X122000000Y-33340000D03*
X123000000Y-31340000D03*
X124000000Y-33340000D03*
X125000000Y-31340000D03*
X126000000Y-33340000D03*
X127000000Y-31340000D03*
X128000000Y-33340000D03*
X129000000Y-31340000D03*
X130000000Y-33340000D03*
X131000000Y-31340000D03*
X132000000Y-33340000D03*
X133000000Y-31340000D03*
X134000000Y-33340000D03*
X135000000Y-31340000D03*
X136000000Y-33340000D03*
X137000000Y-31340000D03*
X138000000Y-33340000D03*
X139000000Y-31340000D03*
X140000000Y-33340000D03*
X141000000Y-31340000D03*
X142000000Y-33340000D03*
X143000000Y-31340000D03*
X144000000Y-33340000D03*
X145000000Y-31340000D03*
X146000000Y-33340000D03*
X147000000Y-31340000D03*
X148000000Y-33340000D03*
X149000000Y-31340000D03*
X150000000Y-33340000D03*
X151000000Y-31340000D03*
X152000000Y-33340000D03*
X153000000Y-31340000D03*
X154000000Y-33340000D03*
X155000000Y-31340000D03*
X156000000Y-33340000D03*
X157000000Y-31340000D03*
X158000000Y-33340000D03*
X159000000Y-31340000D03*
X160000000Y-33340000D03*
X161000000Y-31340000D03*
X162000000Y-33340000D03*
X163000000Y-31340000D03*
X80000000Y-35840000D03*
X81000000Y-37840000D03*
X82000000Y-35840000D03*
X83000000Y-37840000D03*
X84000000Y-35840000D03*
X85000000Y-37840000D03*
X86000000Y-35840000D03*
X87000000Y-37840000D03*
X88000000Y-35840000D03*
X89000000Y-37840000D03*
X90000000Y-35840000D03*
X93000000Y-37840000D03*
X94000000Y-35840000D03*
X95000000Y-37840000D03*
X96000000Y-35840000D03*
X97000000Y-37840000D03*
X98000000Y-35840000D03*
X99000000Y-37840000D03*
X100000000Y-35840000D03*
X101000000Y-37840000D03*
X102000000Y-35840000D03*
X103000000Y-37840000D03*
X104000000Y-35840000D03*
X105000000Y-37840000D03*
X106000000Y-35840000D03*
X107000000Y-37840000D03*
X108000000Y-35840000D03*
X109000000Y-37840000D03*
X110000000Y-35840000D03*
X111000000Y-37840000D03*
X112000000Y-35840000D03*
X113000000Y-37840000D03*
X114000000Y-35840000D03*
X115000000Y-37840000D03*
X116000000Y-35840000D03*
X117000000Y-37840000D03*
X118000000Y-35840000D03*
X119000000Y-37840000D03*
X120000000Y-35840000D03*
X121000000Y-37840000D03*
X122000000Y-35840000D03*
X123000000Y-37840000D03*
X124000000Y-35840000D03*
X125000000Y-37840000D03*
X126000000Y-35840000D03*
X127000000Y-37840000D03*
X128000000Y-35840000D03*
X129000000Y-37840000D03*
X130000000Y-35840000D03*
X131000000Y-37840000D03*
X132000000Y-35840000D03*
X133000000Y-37840000D03*
X134000000Y-35840000D03*
X135000000Y-37840000D03*
X136000000Y-35840000D03*
X137000000Y-37840000D03*
X138000000Y-35840000D03*
X139000000Y-37840000D03*
X140000000Y-35840000D03*
X141000000Y-37840000D03*
X142000000Y-35840000D03*
X143000000Y-37840000D03*
X144000000Y-35840000D03*
X145000000Y-37840000D03*
X146000000Y-35840000D03*
X147000000Y-37840000D03*
X148000000Y-35840000D03*
X149000000Y-37840000D03*
X150000000Y-35840000D03*
X151000000Y-37840000D03*
X152000000Y-35840000D03*
X153000000Y-37840000D03*
X154000000Y-35840000D03*
X155000000Y-37840000D03*
X156000000Y-35840000D03*
X157000000Y-37840000D03*
X158000000Y-35840000D03*
X159000000Y-37840000D03*
X160000000Y-35840000D03*
X161000000Y-37840000D03*
X162000000Y-35840000D03*
X163000000Y-37840000D03*
%TD*%
D17*
%TO.C,TP1*%
X71500000Y-32500000D03*
%TD*%
M02*
