M48
; DRILL file {KiCad 9.0.5} date 2025-11-19T18:18:24+0200
; FORMAT={-:-/ absolute / metric / decimal}
; #@! TF.CreationDate,2025-11-19T18:18:24+02:00
; #@! TF.GenerationSoftware,Kicad,Pcbnew,9.0.5
; #@! TF.FileFunction,Plated,1,2,PTH
FMAT,2
METRIC
; #@! TA.AperFunction,Plated,PTH,ViaDrill
T1C0.300
; #@! TA.AperFunction,Plated,PTH,ViaDrill
T2C0.400
; #@! TA.AperFunction,Plated,PTH,ComponentDrill
T3C0.800
%
G90
G05
T1
X71.426Y-135.5
X72.275Y-135.5
X73.275Y-132.25
X73.275Y-134.0
X73.275Y-135.5
X74.25Y-82.75
X74.25Y-99.0
X74.275Y-135.5
X75.275Y-135.5
X76.6Y-59.6
X77.5Y-58.75
X78.25Y-82.25
X78.25Y-99.0
X82.0Y-63.25
X82.0Y-65.0
X82.6Y-98.8
X84.2Y-72.75
X84.2Y-84.5
X84.5Y-61.0
X85.6Y-72.75
X85.6Y-84.0
X85.625Y-59.625
X87.2Y-68.4
X87.2Y-72.75
X87.2Y-83.5
X87.65Y-64.15
X88.3Y-62.3
X88.5Y-70.0
X88.5Y-81.5
X89.25Y-107.5
X89.8Y-79.8
X90.4Y-64.4
X90.6Y-105.4
X90.8Y-50.85
X91.0Y-81.5
X91.0Y-96.75
X91.2Y-117.8
X91.25Y-58.25
X92.0Y-61.8
X92.0Y-76.2
X92.0Y-90.0
X92.6Y-101.4
X92.7Y-112.9
X93.5Y-66.5
X93.525Y-128.125
X94.0Y-88.56
X94.2Y-78.4
X94.275Y-132.6
X94.3Y-64.1
X94.4Y-127.8
X95.4Y-127.6
X95.6Y-130.2
X95.6Y-131.5
X96.57Y-127.5
X96.6Y-130.0
X97.0Y-64.0
X97.6Y-129.8
X98.6Y-129.6
X100.0Y-131.5
X101.44Y-59.44
X101.825Y-61.575
X110.979Y-61.571
X113.129Y-63.721
X115.379Y-60.8
X115.379Y-63.75
X119.05Y-131.0
X120.025Y-130.975
X121.075Y-130.975
X121.95Y-130.95
X123.025Y-130.925
X123.2Y-111.875
X124.45Y-130.9
X124.775Y-111.05
X125.875Y-130.825
X127.275Y-130.775
X128.862Y-112.412
X129.7Y-129.45
X132.125Y-78.0
X132.275Y-92.125
X132.875Y-106.3
X155.1Y-56.85
X160.0Y-61.75
T2
X84.825Y-134.3
X95.325Y-133.8
X104.275Y-133.9
X116.025Y-133.5
X119.25Y-118.0
X144.325Y-133.6
X147.625Y-133.85
T3
X73.275Y-128.146
X73.275Y-130.646
X78.05Y-46.94
X78.05Y-51.94
X81.8Y-46.94
X81.8Y-54.56
X84.34Y-46.94
X84.34Y-54.56
X86.88Y-46.94
X86.88Y-54.56
X89.42Y-46.94
X89.42Y-54.56
X91.96Y-46.94
X91.96Y-54.56
X93.0Y-69.44
X93.0Y-74.44
X93.0Y-80.94
X93.0Y-85.94
X93.0Y-92.44
X93.0Y-97.44
X93.0Y-103.94
X93.0Y-108.94
X93.0Y-115.44
X93.0Y-120.44
X94.5Y-46.94
X94.5Y-54.56
X96.57Y-69.44
X96.57Y-77.06
X96.57Y-80.94
X96.57Y-88.56
X96.57Y-92.44
X96.57Y-100.06
X96.57Y-103.94
X96.57Y-111.56
X96.57Y-115.44
X96.57Y-123.06
X97.04Y-46.94
X97.04Y-54.56
X99.11Y-69.44
X99.11Y-77.06
X99.11Y-80.94
X99.11Y-88.56
X99.11Y-92.44
X99.11Y-100.06
X99.11Y-103.94
X99.11Y-111.56
X99.11Y-115.44
X99.11Y-123.06
X101.65Y-69.44
X101.65Y-77.06
X101.65Y-80.94
X101.65Y-88.56
X101.65Y-92.44
X101.65Y-100.06
X101.65Y-103.94
X101.65Y-111.56
X101.65Y-115.44
X101.65Y-123.06
X102.2Y-46.94
X102.2Y-51.94
X104.19Y-69.44
X104.19Y-77.06
X104.19Y-80.94
X104.19Y-88.56
X104.19Y-92.44
X104.19Y-100.06
X104.19Y-103.94
X104.19Y-111.56
X104.19Y-115.44
X104.19Y-123.06
X106.32Y-46.94
X106.32Y-54.56
X106.73Y-69.44
X106.73Y-77.06
X106.73Y-80.94
X106.73Y-88.56
X106.73Y-92.44
X106.73Y-100.06
X106.73Y-103.94
X106.73Y-111.56
X106.73Y-115.44
X106.73Y-123.06
X108.86Y-46.94
X108.86Y-54.56
X109.27Y-69.44
X109.27Y-77.06
X109.27Y-80.94
X109.27Y-88.56
X109.27Y-92.44
X109.27Y-100.06
X109.27Y-103.94
X109.27Y-111.56
X109.27Y-115.44
X109.27Y-123.06
X111.4Y-46.94
X111.4Y-54.56
X111.81Y-69.44
X111.81Y-77.06
X111.81Y-80.94
X111.81Y-88.56
X111.81Y-92.44
X111.81Y-100.06
X111.81Y-103.94
X111.81Y-111.56
X111.81Y-115.44
X111.81Y-123.06
X113.94Y-46.94
X113.94Y-54.56
X114.35Y-69.44
X114.35Y-77.06
X114.35Y-80.94
X114.35Y-88.56
X114.35Y-92.44
X114.35Y-100.06
X114.35Y-103.94
X114.35Y-111.56
X114.35Y-115.44
X114.35Y-123.06
X116.48Y-46.94
X116.48Y-54.56
X116.89Y-69.44
X116.89Y-77.06
X116.89Y-80.94
X116.89Y-88.56
X116.89Y-92.44
X116.89Y-100.06
X116.89Y-103.94
X116.89Y-111.56
X116.89Y-115.44
X116.89Y-123.06
X119.02Y-46.94
X119.02Y-54.56
X119.43Y-69.44
X119.43Y-77.06
X119.43Y-80.94
X119.43Y-88.56
X119.43Y-92.44
X119.43Y-100.06
X119.43Y-103.94
X119.43Y-111.56
X119.43Y-115.44
X119.43Y-123.06
X121.275Y-58.565
X121.275Y-66.185
X121.56Y-46.94
X121.56Y-54.56
X126.6Y-46.94
X126.6Y-51.94
X126.6Y-118.88
X126.6Y-123.88
X126.63Y-60.69
X126.63Y-65.69
X126.63Y-74.812
X126.63Y-79.812
X126.63Y-88.928
X126.63Y-93.928
X126.63Y-103.045
X126.63Y-108.045
X130.75Y-118.88
X130.75Y-126.5
X130.84Y-46.94
X130.84Y-54.56
X132.495Y-61.16
X132.495Y-68.78
X132.495Y-75.282
X132.495Y-82.902
X132.495Y-89.398
X132.495Y-97.018
X132.495Y-103.515
X132.495Y-111.135
X133.29Y-118.88
X133.29Y-126.5
X133.38Y-46.94
X133.38Y-54.56
X135.035Y-61.16
X135.035Y-68.78
X135.035Y-75.282
X135.035Y-82.902
X135.035Y-89.398
X135.035Y-97.018
X135.035Y-103.515
X135.035Y-111.135
X135.83Y-118.88
X135.83Y-126.5
X135.92Y-46.94
X135.92Y-54.56
X137.575Y-61.16
X137.575Y-68.78
X137.575Y-75.282
X137.575Y-82.902
X137.575Y-89.398
X137.575Y-97.018
X137.575Y-103.515
X137.575Y-111.135
X138.37Y-118.88
X138.37Y-126.5
X138.46Y-46.94
X138.46Y-54.56
X140.115Y-61.16
X140.115Y-68.78
X140.115Y-75.282
X140.115Y-82.902
X140.115Y-89.398
X140.115Y-97.018
X140.115Y-103.515
X140.115Y-111.135
X140.91Y-118.88
X140.91Y-126.5
X141.0Y-46.94
X141.0Y-54.56
X142.655Y-61.16
X142.655Y-68.78
X142.655Y-75.282
X142.655Y-82.902
X142.655Y-89.398
X142.655Y-97.018
X142.655Y-103.515
X142.655Y-111.135
X143.45Y-118.88
X143.45Y-126.5
X143.54Y-46.94
X143.54Y-54.56
X145.195Y-61.16
X145.195Y-68.78
X145.195Y-75.282
X145.195Y-82.902
X145.195Y-89.398
X145.195Y-97.018
X145.195Y-103.515
X145.195Y-111.135
X145.99Y-118.88
X145.99Y-126.5
X146.08Y-46.94
X146.08Y-54.56
X147.735Y-61.16
X147.735Y-68.78
X147.735Y-75.282
X147.735Y-82.902
X147.735Y-89.398
X147.735Y-97.018
X147.735Y-103.515
X147.735Y-111.135
X148.53Y-118.88
X148.53Y-126.5
X150.275Y-61.16
X150.275Y-68.78
X150.275Y-75.282
X150.275Y-82.902
X150.275Y-89.398
X150.275Y-97.018
X150.275Y-103.515
X150.275Y-111.135
X150.38Y-47.0
X152.25Y-118.88
X152.25Y-126.5
X152.815Y-61.16
X152.815Y-68.78
X152.815Y-75.282
X152.815Y-82.902
X152.815Y-89.398
X152.815Y-97.018
X152.815Y-103.515
X152.815Y-111.135
X155.355Y-61.16
X155.355Y-68.78
X155.355Y-75.282
X155.355Y-82.902
X155.355Y-89.398
X155.355Y-97.018
X155.355Y-103.515
X155.355Y-111.135
X158.0Y-47.0
M30
