%TF.GenerationSoftware,KiCad,Pcbnew,9.0.5*%
%TF.CreationDate,2025-11-19T18:18:20+02:00*%
%TF.ProjectId,register_file_accum,72656769-7374-4657-925f-66696c655f61,rev?*%
%TF.SameCoordinates,Original*%
%TF.FileFunction,Legend,Top*%
%TF.FilePolarity,Positive*%
%FSLAX46Y46*%
G04 Gerber Fmt 4.6, Leading zero omitted, Abs format (unit mm)*
G04 Created by KiCad (PCBNEW 9.0.5) date 2025-11-19 18:18:20*
%MOMM*%
%LPD*%
G01*
G04 APERTURE LIST*
%ADD10C,0.000000*%
%ADD11C,0.052916*%
%ADD12C,0.150000*%
%ADD13C,0.120000*%
G04 APERTURE END LIST*
D10*
G36*
X77944705Y-68137627D02*
G01*
X74214080Y-68666793D01*
X74214080Y-68508043D01*
X77838871Y-67899502D01*
X78429487Y-67310738D01*
X78830736Y-66902279D01*
X78959548Y-66765050D01*
X78993714Y-66725126D01*
X79001700Y-66713829D01*
X79003038Y-66708877D01*
X78249298Y-66957825D01*
X76613255Y-67522536D01*
X74240538Y-68349293D01*
X74240538Y-68111168D01*
X79823246Y-66153252D01*
X77944705Y-68137627D01*
G37*
D11*
X77896816Y-75908439D02*
X78530228Y-75911879D01*
X78526788Y-76180960D01*
X77574288Y-76180960D01*
X77574288Y-74778669D01*
X77891788Y-74778669D01*
X77896816Y-75908439D01*
X72934556Y-74790046D02*
X72950509Y-74790969D01*
X72966118Y-74793280D01*
X72981370Y-74796885D01*
X72996256Y-74801692D01*
X73010765Y-74807608D01*
X73024886Y-74814541D01*
X73038609Y-74822396D01*
X73051923Y-74831081D01*
X73064818Y-74840503D01*
X73077283Y-74850570D01*
X73089307Y-74861187D01*
X73100880Y-74872264D01*
X73111992Y-74883706D01*
X73122631Y-74895420D01*
X73142452Y-74919295D01*
X73160257Y-74943144D01*
X73175962Y-74966226D01*
X73189482Y-74987796D01*
X73200734Y-75007112D01*
X73216094Y-75036004D01*
X73221364Y-75046956D01*
X73235122Y-75202002D01*
X72917622Y-75202002D01*
X72917584Y-75203742D01*
X72917522Y-75202233D01*
X72917622Y-75149085D01*
X72917493Y-75142595D01*
X72917071Y-75136464D01*
X72916375Y-75130683D01*
X72915424Y-75125240D01*
X72914238Y-75120126D01*
X72912837Y-75115331D01*
X72911239Y-75110844D01*
X72909465Y-75106656D01*
X72907534Y-75102758D01*
X72905466Y-75099137D01*
X72903280Y-75095786D01*
X72900995Y-75092693D01*
X72898631Y-75089849D01*
X72896208Y-75087243D01*
X72893746Y-75084866D01*
X72891263Y-75082708D01*
X72888779Y-75080758D01*
X72886314Y-75079006D01*
X72883887Y-75077443D01*
X72881518Y-75076058D01*
X72877031Y-75073784D01*
X72873010Y-75072104D01*
X72869611Y-75070936D01*
X72866990Y-75070202D01*
X72864705Y-75069710D01*
X72467830Y-75069710D01*
X72461952Y-75069885D01*
X72456510Y-75070348D01*
X72451488Y-75071079D01*
X72446869Y-75072060D01*
X72442638Y-75073271D01*
X72438777Y-75074692D01*
X72435271Y-75076305D01*
X72432103Y-75078090D01*
X72429257Y-75080028D01*
X72426716Y-75082101D01*
X72424463Y-75084287D01*
X72422484Y-75086570D01*
X72420761Y-75088928D01*
X72419277Y-75091343D01*
X72418017Y-75093796D01*
X72416964Y-75096268D01*
X72416101Y-75098738D01*
X72415413Y-75101189D01*
X72414883Y-75103601D01*
X72414495Y-75105954D01*
X72414077Y-75110407D01*
X72414029Y-75114396D01*
X72414219Y-75117766D01*
X72414517Y-75120364D01*
X72414913Y-75122627D01*
X72414913Y-75837001D01*
X72415118Y-75841925D01*
X72415761Y-75846534D01*
X72416814Y-75850838D01*
X72418248Y-75854848D01*
X72420033Y-75858574D01*
X72422140Y-75862026D01*
X72424540Y-75865215D01*
X72427204Y-75868152D01*
X72430102Y-75870846D01*
X72433206Y-75873309D01*
X72436485Y-75875550D01*
X72439912Y-75877580D01*
X72443456Y-75879410D01*
X72447088Y-75881050D01*
X72450780Y-75882509D01*
X72454502Y-75883800D01*
X72461918Y-75885914D01*
X72469104Y-75887476D01*
X72475825Y-75888570D01*
X72481849Y-75889277D01*
X72490867Y-75889869D01*
X72494288Y-75889918D01*
X72864705Y-75889918D01*
X72870025Y-75889720D01*
X72874979Y-75889237D01*
X72879581Y-75888488D01*
X72883843Y-75887492D01*
X72887778Y-75886269D01*
X72891400Y-75884838D01*
X72894721Y-75883217D01*
X72897753Y-75881427D01*
X72900511Y-75879484D01*
X72903006Y-75877410D01*
X72905251Y-75875223D01*
X72907261Y-75872942D01*
X72909046Y-75870587D01*
X72910621Y-75868175D01*
X72911998Y-75865727D01*
X72913190Y-75863261D01*
X72914210Y-75860797D01*
X72915071Y-75858354D01*
X72915785Y-75855950D01*
X72916366Y-75853605D01*
X72917179Y-75849168D01*
X72917613Y-75845195D01*
X72917772Y-75841839D01*
X72917757Y-75839253D01*
X72917622Y-75837001D01*
X72917622Y-75627452D01*
X72653038Y-75625335D01*
X72653038Y-75387210D01*
X73216865Y-75386943D01*
X73223546Y-75585447D01*
X73226911Y-75759535D01*
X73227146Y-75843692D01*
X73225861Y-75917698D01*
X73224669Y-75934697D01*
X73222239Y-75951025D01*
X73218656Y-75966690D01*
X73214003Y-75981700D01*
X73208364Y-75996064D01*
X73201822Y-76009791D01*
X73194461Y-76022889D01*
X73186364Y-76035367D01*
X73177615Y-76047235D01*
X73168298Y-76058499D01*
X73158496Y-76069170D01*
X73148294Y-76079256D01*
X73137774Y-76088765D01*
X73127020Y-76097706D01*
X73116116Y-76106088D01*
X73105145Y-76113920D01*
X73083339Y-76127966D01*
X73062269Y-76139915D01*
X73042606Y-76149835D01*
X73025018Y-76157795D01*
X72998742Y-76168117D01*
X72988795Y-76171434D01*
X72806927Y-76174080D01*
X72608949Y-76174113D01*
X72365701Y-76170376D01*
X72343446Y-76169135D01*
X72322444Y-76166565D01*
X72302660Y-76162753D01*
X72284058Y-76157791D01*
X72266603Y-76151768D01*
X72250258Y-76144775D01*
X72234987Y-76136900D01*
X72220755Y-76128233D01*
X72207526Y-76118866D01*
X72195263Y-76108886D01*
X72183931Y-76098385D01*
X72173494Y-76087451D01*
X72163917Y-76076176D01*
X72155162Y-76064648D01*
X72147195Y-76052957D01*
X72139979Y-76041194D01*
X72133478Y-76029448D01*
X72127657Y-76017808D01*
X72117910Y-75995209D01*
X72110451Y-75974116D01*
X72104992Y-75955246D01*
X72101245Y-75939318D01*
X72098925Y-75927052D01*
X72097414Y-75916377D01*
X72097414Y-75069710D01*
X72098800Y-75045307D01*
X72101987Y-75022372D01*
X72106853Y-75000858D01*
X72113276Y-74980722D01*
X72121137Y-74961917D01*
X72130314Y-74944398D01*
X72140686Y-74928119D01*
X72152133Y-74913035D01*
X72164533Y-74899101D01*
X72177766Y-74886271D01*
X72191710Y-74874499D01*
X72206244Y-74863741D01*
X72221249Y-74853950D01*
X72236602Y-74845082D01*
X72252184Y-74837091D01*
X72267872Y-74829931D01*
X72299085Y-74817924D01*
X72329276Y-74808697D01*
X72357476Y-74801887D01*
X72382717Y-74797131D01*
X72404034Y-74794064D01*
X72420458Y-74792324D01*
X72434758Y-74791368D01*
X72621752Y-74789813D01*
X72785694Y-74789247D01*
X72934556Y-74790046D01*
D10*
G36*
X73818528Y-68209592D02*
G01*
X73819321Y-68818399D01*
X73756615Y-69016308D01*
X73755822Y-69014984D01*
X73678564Y-68825542D01*
X73684913Y-68217001D01*
X73749472Y-68004805D01*
X73818528Y-68209592D01*
G37*
G36*
X71020824Y-69825933D02*
G01*
X70192414Y-69672210D01*
X72653038Y-68878460D01*
X71020824Y-69825933D01*
G37*
G36*
X72864705Y-68746168D02*
G01*
X72645485Y-68785264D01*
X72376991Y-68841674D01*
X72204635Y-68881293D01*
X72007488Y-68929359D01*
X71786011Y-68986501D01*
X71540665Y-69053346D01*
X71271909Y-69130523D01*
X70980206Y-69218660D01*
X70666016Y-69318386D01*
X70329800Y-69430328D01*
X69972019Y-69555116D01*
X69593132Y-69693376D01*
X71039080Y-70042627D01*
X73261580Y-68799085D01*
X73288038Y-68957835D01*
X71118455Y-70280751D01*
X68843039Y-69725127D01*
X71912205Y-68640335D01*
X72864705Y-68746168D01*
G37*
G36*
X74081788Y-67978877D02*
G01*
X74071999Y-68950691D01*
X73737830Y-69539918D01*
X73409217Y-68945400D01*
X73420330Y-67978877D01*
X73751853Y-67387269D01*
X74081788Y-67978877D01*
G37*
G36*
X74690330Y-66999918D02*
G01*
X74108247Y-67582002D01*
X74161163Y-67899502D01*
X73764288Y-66999918D01*
X73340955Y-67899502D01*
X73393872Y-67582002D01*
X72811788Y-66999918D01*
X72758872Y-66259085D01*
X72995144Y-66865510D01*
X73048640Y-66937849D01*
X73103919Y-67010813D01*
X73167917Y-67092787D01*
X73232908Y-67172132D01*
X73263360Y-67207181D01*
X73291164Y-67237208D01*
X73315352Y-67260758D01*
X73334958Y-67276376D01*
X73342742Y-67280756D01*
X73349018Y-67282607D01*
X73353666Y-67281747D01*
X73356565Y-67277996D01*
X73364150Y-67262226D01*
X73378360Y-67236821D01*
X73423026Y-67162910D01*
X73483293Y-67067878D01*
X73551894Y-66963340D01*
X73621562Y-66860910D01*
X73685029Y-66772203D01*
X73712166Y-66736626D01*
X73735027Y-66708834D01*
X73752704Y-66690281D01*
X73759315Y-66684923D01*
X73764288Y-66682418D01*
X73769291Y-66683210D01*
X73775983Y-66687465D01*
X73793952Y-66705452D01*
X73817224Y-66734549D01*
X73844829Y-66772926D01*
X73909163Y-66870198D01*
X73979196Y-66982621D01*
X74105328Y-67194350D01*
X74161163Y-67290960D01*
X74505122Y-66894085D01*
X74743247Y-66259085D01*
X74690330Y-66999918D01*
G37*
G36*
X74055330Y-69328251D02*
G01*
X73750000Y-74000000D01*
X73473247Y-69301793D01*
X73446788Y-69169502D01*
X73684913Y-69645752D01*
X73763230Y-72508279D01*
X73817205Y-69645752D01*
X74081788Y-69169502D01*
X74055330Y-69328251D01*
G37*
D11*
X68766574Y-74783960D02*
X68808581Y-74795060D01*
X68828949Y-74801652D01*
X68851699Y-74810503D01*
X68876048Y-74821979D01*
X68888578Y-74828816D01*
X68901214Y-74836447D01*
X68913858Y-74844917D01*
X68926414Y-74854273D01*
X68938782Y-74864560D01*
X68950865Y-74875823D01*
X68962566Y-74888109D01*
X68973786Y-74901464D01*
X68984427Y-74915932D01*
X68994393Y-74931561D01*
X69003584Y-74948395D01*
X69011904Y-74966481D01*
X69019254Y-74985865D01*
X69025537Y-75006591D01*
X69030654Y-75028706D01*
X69034508Y-75052256D01*
X69037002Y-75077286D01*
X69038037Y-75103843D01*
X69046768Y-75872986D01*
X69047151Y-75886122D01*
X69046791Y-75901204D01*
X69045317Y-75920772D01*
X69042170Y-75943936D01*
X69036792Y-75969803D01*
X69033091Y-75983472D01*
X69028622Y-75997482D01*
X69023315Y-76011722D01*
X69017102Y-76026081D01*
X69009910Y-76040446D01*
X69001671Y-76054707D01*
X68992315Y-76068752D01*
X68981772Y-76082469D01*
X68969972Y-76095748D01*
X68956844Y-76108476D01*
X68942320Y-76120542D01*
X68926329Y-76131835D01*
X68908801Y-76142243D01*
X68889667Y-76151655D01*
X68868855Y-76159959D01*
X68846298Y-76167044D01*
X68821924Y-76172798D01*
X68795664Y-76177110D01*
X68767448Y-76179868D01*
X68737205Y-76180961D01*
X68201986Y-76181854D01*
X67916997Y-76180961D01*
X67916997Y-75889918D01*
X67916997Y-75069710D01*
X68208039Y-75069710D01*
X68208039Y-75889918D01*
X68416067Y-75890910D01*
X68568575Y-75891034D01*
X68657830Y-75889918D01*
X68662015Y-75889458D01*
X68666134Y-75888591D01*
X68670182Y-75887345D01*
X68674155Y-75885748D01*
X68678048Y-75883827D01*
X68681858Y-75881611D01*
X68685579Y-75879126D01*
X68689208Y-75876400D01*
X68692740Y-75873461D01*
X68696171Y-75870336D01*
X68699496Y-75867054D01*
X68702711Y-75863641D01*
X68708794Y-75856535D01*
X68714385Y-75849239D01*
X68719449Y-75841974D01*
X68723950Y-75834961D01*
X68727855Y-75828420D01*
X68731128Y-75822574D01*
X68735639Y-75813846D01*
X68737205Y-75810543D01*
X68738495Y-75484940D01*
X68738656Y-75250763D01*
X68737205Y-75122627D01*
X68736675Y-75118169D01*
X68735747Y-75113966D01*
X68734449Y-75110012D01*
X68732807Y-75106300D01*
X68730849Y-75102820D01*
X68728603Y-75099567D01*
X68726095Y-75096533D01*
X68723352Y-75093709D01*
X68720402Y-75091088D01*
X68717271Y-75088664D01*
X68713988Y-75086428D01*
X68710579Y-75084373D01*
X68707071Y-75082492D01*
X68703492Y-75080776D01*
X68696228Y-75077813D01*
X68689004Y-75075423D01*
X68682038Y-75073547D01*
X68675547Y-75072124D01*
X68669749Y-75071095D01*
X68661100Y-75069976D01*
X68657830Y-75069710D01*
X68208039Y-75069710D01*
X67916997Y-75069710D01*
X67916997Y-74778669D01*
X68766574Y-74783960D01*
X77362621Y-74778669D02*
X77362621Y-75069710D01*
X76701164Y-75069710D01*
X76701164Y-75360752D01*
X77256788Y-75360752D01*
X77256788Y-75625335D01*
X76701164Y-75625335D01*
X76701164Y-76180960D01*
X76383663Y-76180960D01*
X76391865Y-74775229D01*
X77362621Y-74778669D01*
D10*
G36*
X77309705Y-69672210D02*
G01*
X76481294Y-69825933D01*
X74849080Y-68878460D01*
X77309705Y-69672210D01*
G37*
D11*
X74358747Y-74779704D02*
X74372958Y-74781562D01*
X74391400Y-74784816D01*
X74413234Y-74789842D01*
X74437622Y-74797016D01*
X74463724Y-74806715D01*
X74477156Y-74812629D01*
X74490702Y-74819315D01*
X74504257Y-74826821D01*
X74517717Y-74835192D01*
X74530976Y-74844478D01*
X74543931Y-74854723D01*
X74556475Y-74865977D01*
X74568504Y-74878284D01*
X74579914Y-74891694D01*
X74590599Y-74906251D01*
X74600454Y-74922005D01*
X74609375Y-74939001D01*
X74617258Y-74957287D01*
X74623996Y-74976910D01*
X74629485Y-74997917D01*
X74633621Y-75020354D01*
X74636299Y-75044270D01*
X74637413Y-75069710D01*
X74644293Y-75914260D01*
X74642702Y-75925423D01*
X74640208Y-75938236D01*
X74636132Y-75954853D01*
X74630136Y-75974513D01*
X74621885Y-75996455D01*
X74611039Y-76019917D01*
X74604539Y-76031980D01*
X74597263Y-76044137D01*
X74589170Y-76056294D01*
X74580219Y-76068354D01*
X74570366Y-76080224D01*
X74559569Y-76091807D01*
X74547787Y-76103008D01*
X74534977Y-76113733D01*
X74521098Y-76123886D01*
X74506106Y-76133372D01*
X74489960Y-76142095D01*
X74472618Y-76149961D01*
X74454037Y-76156874D01*
X74434176Y-76162739D01*
X74412991Y-76167461D01*
X74390442Y-76170944D01*
X74366486Y-76173094D01*
X74341081Y-76173816D01*
X73810855Y-76174345D01*
X73798009Y-76172768D01*
X73783252Y-76170306D01*
X73764094Y-76166292D01*
X73741404Y-76160399D01*
X73716047Y-76152300D01*
X73688891Y-76141668D01*
X73674910Y-76135300D01*
X73660803Y-76128176D01*
X73646681Y-76120255D01*
X73632650Y-76111496D01*
X73618820Y-76101858D01*
X73605299Y-76091301D01*
X73592195Y-76079784D01*
X73579617Y-76067265D01*
X73567673Y-76053705D01*
X73556471Y-76039061D01*
X73546119Y-76023293D01*
X73536727Y-76006360D01*
X73528403Y-75988222D01*
X73521254Y-75968836D01*
X73515389Y-75948164D01*
X73510917Y-75926163D01*
X73507946Y-75902792D01*
X73506585Y-75878012D01*
X73501715Y-75566647D01*
X73499771Y-75309356D01*
X73499705Y-75069710D01*
X73501527Y-75058181D01*
X73504376Y-75044892D01*
X73509023Y-75027584D01*
X73515851Y-75007004D01*
X73525238Y-74983902D01*
X73531011Y-74971638D01*
X73537567Y-74959024D01*
X73544953Y-74946153D01*
X73553217Y-74933119D01*
X73562407Y-74920015D01*
X73572569Y-74906935D01*
X73583753Y-74893973D01*
X73596004Y-74881221D01*
X73609372Y-74868773D01*
X73623902Y-74856723D01*
X73639644Y-74845164D01*
X73656644Y-74834190D01*
X73674951Y-74823894D01*
X73694611Y-74814370D01*
X73715672Y-74805711D01*
X73738183Y-74798011D01*
X73762189Y-74791363D01*
X73787740Y-74785861D01*
X73814882Y-74781599D01*
X73843663Y-74778669D01*
X74346372Y-74778669D01*
X74358747Y-74779704D01*
X74295885Y-75069748D02*
X74298376Y-75069923D01*
X74301616Y-75070314D01*
X74305460Y-75071005D01*
X74309765Y-75072082D01*
X74312046Y-75072791D01*
X74314388Y-75073629D01*
X74316774Y-75074604D01*
X74319186Y-75075729D01*
X74321605Y-75077014D01*
X74324014Y-75078469D01*
X74326395Y-75080105D01*
X74328730Y-75081932D01*
X74331001Y-75083961D01*
X74333191Y-75086202D01*
X74335280Y-75088667D01*
X74337252Y-75091365D01*
X74339088Y-75094307D01*
X74340770Y-75097504D01*
X74342281Y-75100966D01*
X74343603Y-75104704D01*
X74344717Y-75108729D01*
X74345606Y-75113051D01*
X74346252Y-75117680D01*
X74346636Y-75122627D01*
X74347558Y-75253219D01*
X74347265Y-75487123D01*
X74346108Y-75810543D01*
X74346569Y-75813922D01*
X74346938Y-75817801D01*
X74347215Y-75822834D01*
X74347264Y-75828793D01*
X74346945Y-75835449D01*
X74346120Y-75842572D01*
X74345475Y-75846237D01*
X74344652Y-75849933D01*
X74343634Y-75853631D01*
X74342403Y-75857304D01*
X74340942Y-75860921D01*
X74339234Y-75864454D01*
X74337262Y-75867876D01*
X74335009Y-75871157D01*
X74332456Y-75874268D01*
X74329588Y-75877181D01*
X74326386Y-75879867D01*
X74322833Y-75882298D01*
X74318913Y-75884445D01*
X74314608Y-75886280D01*
X74309900Y-75887773D01*
X74304773Y-75888896D01*
X74299209Y-75889621D01*
X74293191Y-75889918D01*
X73896316Y-75889918D01*
X73892938Y-75890097D01*
X73884025Y-75890059D01*
X73878066Y-75889689D01*
X73871410Y-75888942D01*
X73864287Y-75887709D01*
X73856926Y-75885883D01*
X73853228Y-75884715D01*
X73849555Y-75883357D01*
X73845938Y-75881797D01*
X73842404Y-75880022D01*
X73838983Y-75878018D01*
X73835702Y-75875771D01*
X73832591Y-75873268D01*
X73829678Y-75870496D01*
X73826992Y-75867441D01*
X73824561Y-75864089D01*
X73822414Y-75860428D01*
X73820580Y-75856443D01*
X73819087Y-75852122D01*
X73817963Y-75847450D01*
X73817239Y-75842414D01*
X73816941Y-75837001D01*
X73817470Y-75149085D01*
X73817052Y-75145761D01*
X73816730Y-75141941D01*
X73816511Y-75136980D01*
X73816527Y-75131102D01*
X73816912Y-75124528D01*
X73817799Y-75117484D01*
X73818473Y-75113855D01*
X73819322Y-75110191D01*
X73820363Y-75106522D01*
X73821614Y-75102874D01*
X73823090Y-75099276D01*
X73824808Y-75095755D01*
X73826785Y-75092340D01*
X73829038Y-75089058D01*
X73831582Y-75085937D01*
X73834436Y-75083006D01*
X73837616Y-75080291D01*
X73841137Y-75077821D01*
X73845018Y-75075625D01*
X73849274Y-75073729D01*
X73853922Y-75072161D01*
X73858979Y-75070950D01*
X73864462Y-75070124D01*
X73870387Y-75069710D01*
X74293720Y-75069710D01*
X74295885Y-75069748D01*
X71488872Y-75651793D02*
X71118455Y-75651793D01*
X71303663Y-75096168D01*
X71488872Y-75651793D01*
D10*
G36*
X77706580Y-67740752D02*
G01*
X75034288Y-68243460D01*
X78420955Y-67052835D01*
X77706580Y-67740752D01*
G37*
D11*
X70098907Y-75068820D02*
X70103393Y-75069222D01*
X70105762Y-75069602D01*
X70108189Y-75070125D01*
X70110654Y-75070806D01*
X70113138Y-75071662D01*
X70115621Y-75072709D01*
X70118083Y-75073964D01*
X70120506Y-75075444D01*
X70122870Y-75077165D01*
X70125155Y-75079143D01*
X70127341Y-75081395D01*
X70129409Y-75083938D01*
X70131340Y-75086788D01*
X70133114Y-75089962D01*
X70134712Y-75093476D01*
X70136113Y-75097346D01*
X70137299Y-75101590D01*
X70138250Y-75106223D01*
X70138946Y-75111263D01*
X70139368Y-75116725D01*
X70139497Y-75122627D01*
X70139497Y-75360752D01*
X70139133Y-75362982D01*
X70138604Y-75365544D01*
X70137777Y-75368871D01*
X70136603Y-75372812D01*
X70135032Y-75377216D01*
X70133015Y-75381933D01*
X70131823Y-75384362D01*
X70130501Y-75386813D01*
X70129043Y-75389267D01*
X70127442Y-75391706D01*
X70125692Y-75394110D01*
X70123787Y-75396460D01*
X70121721Y-75398739D01*
X70119488Y-75400926D01*
X70117081Y-75403004D01*
X70114494Y-75404954D01*
X70111721Y-75406756D01*
X70108756Y-75408392D01*
X70105592Y-75409843D01*
X70102224Y-75411091D01*
X70098645Y-75412116D01*
X70094848Y-75412900D01*
X70090829Y-75413424D01*
X70086580Y-75413668D01*
X69610330Y-75413668D01*
X69610330Y-75069710D01*
X70086580Y-75069710D01*
X70088865Y-75069304D01*
X70091486Y-75068993D01*
X70094886Y-75068788D01*
X70098907Y-75068820D01*
X76118286Y-76178578D02*
X75818514Y-76163497D01*
X75213941Y-75301748D01*
X75207061Y-76177784D01*
X74901997Y-76180960D01*
X74901997Y-74778669D01*
X75208120Y-74779726D01*
X75801580Y-75651793D01*
X75801580Y-74778669D01*
X76119080Y-74778669D01*
X76118286Y-76178578D01*
D10*
G36*
X73261580Y-68111168D02*
G01*
X73261580Y-68349293D01*
X70888863Y-67522536D01*
X69252820Y-66957825D01*
X68499080Y-66708877D01*
X68500418Y-66713829D01*
X68508405Y-66725126D01*
X68542570Y-66765050D01*
X68671382Y-66902279D01*
X69072631Y-67310738D01*
X69663247Y-67899502D01*
X73288038Y-68508043D01*
X73288038Y-68666793D01*
X69557414Y-68137627D01*
X67678872Y-66153252D01*
X73261580Y-68111168D01*
G37*
G36*
X78659080Y-69725127D02*
G01*
X76383663Y-70280751D01*
X74214080Y-68957835D01*
X74240538Y-68799085D01*
X76463038Y-70042627D01*
X77908986Y-69693376D01*
X77530100Y-69555116D01*
X77172318Y-69430328D01*
X76836102Y-69318386D01*
X76521912Y-69218660D01*
X76230209Y-69130523D01*
X75961454Y-69053346D01*
X75716107Y-68986501D01*
X75494630Y-68929359D01*
X75297483Y-68881293D01*
X75125127Y-68841674D01*
X74856633Y-68785264D01*
X74637413Y-68746168D01*
X75589913Y-68640335D01*
X78659080Y-69725127D01*
G37*
D11*
X70203804Y-74779346D02*
X70216876Y-74780814D01*
X70233829Y-74783588D01*
X70253886Y-74788083D01*
X70276269Y-74794714D01*
X70288090Y-74798960D01*
X70300201Y-74803895D01*
X70312504Y-74809571D01*
X70324904Y-74816041D01*
X70337301Y-74823355D01*
X70349600Y-74831566D01*
X70361704Y-74840726D01*
X70373514Y-74850886D01*
X70384933Y-74862098D01*
X70395866Y-74874415D01*
X70406213Y-74887887D01*
X70415879Y-74902568D01*
X70424766Y-74918508D01*
X70432776Y-74935759D01*
X70439813Y-74954373D01*
X70445780Y-74974403D01*
X70450579Y-74995900D01*
X70454113Y-75018915D01*
X70456284Y-75043502D01*
X70456997Y-75069710D01*
X70456997Y-75413668D01*
X70455091Y-75422237D01*
X70452351Y-75432236D01*
X70448100Y-75445410D01*
X70442101Y-75461285D01*
X70434115Y-75479385D01*
X70423902Y-75499236D01*
X70417886Y-75509669D01*
X70411224Y-75520361D01*
X70403886Y-75531254D01*
X70395842Y-75542287D01*
X70387063Y-75553401D01*
X70377519Y-75564537D01*
X70367179Y-75575636D01*
X70356013Y-75586638D01*
X70343993Y-75597483D01*
X70331088Y-75608112D01*
X70317269Y-75618466D01*
X70302505Y-75628486D01*
X70286766Y-75638111D01*
X70270023Y-75647284D01*
X70252247Y-75655943D01*
X70233406Y-75664031D01*
X70213472Y-75671486D01*
X70192414Y-75678251D01*
X70203643Y-75699178D01*
X70235719Y-75753691D01*
X70334859Y-75918625D01*
X70480280Y-76158206D01*
X70155901Y-76164821D01*
X69874914Y-75678251D01*
X69610331Y-75678251D01*
X69610331Y-76180960D01*
X69292831Y-76180960D01*
X69292831Y-74778669D01*
X69319289Y-74778669D01*
X70192414Y-74778669D01*
X70203804Y-74779346D01*
X78976579Y-75334293D02*
X79267622Y-74778669D01*
X79638038Y-74778669D01*
X79108872Y-75678251D01*
X79108872Y-76180960D01*
X78817830Y-76180960D01*
X78814125Y-75682749D01*
X78288663Y-74778669D01*
X78659080Y-74778669D01*
X78976579Y-75334293D01*
D10*
G36*
X72467830Y-68243460D02*
G01*
X69795539Y-67740752D01*
X69081164Y-67052835D01*
X72467830Y-68243460D01*
G37*
D11*
X71991580Y-76180960D02*
X71647622Y-76180960D01*
X71568247Y-75916377D01*
X71039080Y-75916377D01*
X70959705Y-76180960D01*
X70622361Y-76178050D01*
X71118455Y-74778669D01*
X71488872Y-74778669D01*
X71991580Y-76180960D01*
D12*
X73112317Y-125509580D02*
X73064698Y-125557200D01*
X73064698Y-125557200D02*
X72921841Y-125604819D01*
X72921841Y-125604819D02*
X72826603Y-125604819D01*
X72826603Y-125604819D02*
X72683746Y-125557200D01*
X72683746Y-125557200D02*
X72588508Y-125461961D01*
X72588508Y-125461961D02*
X72540889Y-125366723D01*
X72540889Y-125366723D02*
X72493270Y-125176247D01*
X72493270Y-125176247D02*
X72493270Y-125033390D01*
X72493270Y-125033390D02*
X72540889Y-124842914D01*
X72540889Y-124842914D02*
X72588508Y-124747676D01*
X72588508Y-124747676D02*
X72683746Y-124652438D01*
X72683746Y-124652438D02*
X72826603Y-124604819D01*
X72826603Y-124604819D02*
X72921841Y-124604819D01*
X72921841Y-124604819D02*
X73064698Y-124652438D01*
X73064698Y-124652438D02*
X73112317Y-124700057D01*
X73445651Y-124604819D02*
X74112317Y-124604819D01*
X74112317Y-124604819D02*
X73683746Y-125604819D01*
X94726190Y-58956819D02*
X94250000Y-58956819D01*
X94250000Y-58956819D02*
X94250000Y-57956819D01*
X95202381Y-58956819D02*
X95107143Y-58909200D01*
X95107143Y-58909200D02*
X95059524Y-58861580D01*
X95059524Y-58861580D02*
X95011905Y-58766342D01*
X95011905Y-58766342D02*
X95011905Y-58480628D01*
X95011905Y-58480628D02*
X95059524Y-58385390D01*
X95059524Y-58385390D02*
X95107143Y-58337771D01*
X95107143Y-58337771D02*
X95202381Y-58290152D01*
X95202381Y-58290152D02*
X95345238Y-58290152D01*
X95345238Y-58290152D02*
X95440476Y-58337771D01*
X95440476Y-58337771D02*
X95488095Y-58385390D01*
X95488095Y-58385390D02*
X95535714Y-58480628D01*
X95535714Y-58480628D02*
X95535714Y-58766342D01*
X95535714Y-58766342D02*
X95488095Y-58861580D01*
X95488095Y-58861580D02*
X95440476Y-58909200D01*
X95440476Y-58909200D02*
X95345238Y-58956819D01*
X95345238Y-58956819D02*
X95202381Y-58956819D01*
X96392857Y-58956819D02*
X96392857Y-58433009D01*
X96392857Y-58433009D02*
X96345238Y-58337771D01*
X96345238Y-58337771D02*
X96250000Y-58290152D01*
X96250000Y-58290152D02*
X96059524Y-58290152D01*
X96059524Y-58290152D02*
X95964286Y-58337771D01*
X96392857Y-58909200D02*
X96297619Y-58956819D01*
X96297619Y-58956819D02*
X96059524Y-58956819D01*
X96059524Y-58956819D02*
X95964286Y-58909200D01*
X95964286Y-58909200D02*
X95916667Y-58813961D01*
X95916667Y-58813961D02*
X95916667Y-58718723D01*
X95916667Y-58718723D02*
X95964286Y-58623485D01*
X95964286Y-58623485D02*
X96059524Y-58575866D01*
X96059524Y-58575866D02*
X96297619Y-58575866D01*
X96297619Y-58575866D02*
X96392857Y-58528247D01*
X97297619Y-58956819D02*
X97297619Y-57956819D01*
X97297619Y-58909200D02*
X97202381Y-58956819D01*
X97202381Y-58956819D02*
X97011905Y-58956819D01*
X97011905Y-58956819D02*
X96916667Y-58909200D01*
X96916667Y-58909200D02*
X96869048Y-58861580D01*
X96869048Y-58861580D02*
X96821429Y-58766342D01*
X96821429Y-58766342D02*
X96821429Y-58480628D01*
X96821429Y-58480628D02*
X96869048Y-58385390D01*
X96869048Y-58385390D02*
X96916667Y-58337771D01*
X96916667Y-58337771D02*
X97011905Y-58290152D01*
X97011905Y-58290152D02*
X97202381Y-58290152D01*
X97202381Y-58290152D02*
X97297619Y-58337771D01*
X97678572Y-57956819D02*
X98345238Y-58956819D01*
X98345238Y-57956819D02*
X97678572Y-58956819D01*
X98726191Y-58956819D02*
X98726191Y-57956819D01*
X98726191Y-58433009D02*
X99297619Y-58433009D01*
X99297619Y-58956819D02*
X99297619Y-57956819D01*
X94111905Y-57679200D02*
X99435715Y-57679200D01*
X100297619Y-58956819D02*
X99726191Y-58956819D01*
X100011905Y-58956819D02*
X100011905Y-57956819D01*
X100011905Y-57956819D02*
X99916667Y-58099676D01*
X99916667Y-58099676D02*
X99821429Y-58194914D01*
X99821429Y-58194914D02*
X99726191Y-58242533D01*
X121454819Y-74583332D02*
X122454819Y-73916666D01*
X121454819Y-73916666D02*
X122454819Y-74583332D01*
X122454819Y-73535713D02*
X121454819Y-73535713D01*
X121931009Y-73535713D02*
X121931009Y-72964285D01*
X122454819Y-72964285D02*
X121454819Y-72964285D01*
X122454819Y-71964285D02*
X122454819Y-72535713D01*
X122454819Y-72249999D02*
X121454819Y-72249999D01*
X121454819Y-72249999D02*
X121597676Y-72345237D01*
X121597676Y-72345237D02*
X121692914Y-72440475D01*
X121692914Y-72440475D02*
X121740533Y-72535713D01*
X77407142Y-54359580D02*
X77359523Y-54407200D01*
X77359523Y-54407200D02*
X77216666Y-54454819D01*
X77216666Y-54454819D02*
X77121428Y-54454819D01*
X77121428Y-54454819D02*
X76978571Y-54407200D01*
X76978571Y-54407200D02*
X76883333Y-54311961D01*
X76883333Y-54311961D02*
X76835714Y-54216723D01*
X76835714Y-54216723D02*
X76788095Y-54026247D01*
X76788095Y-54026247D02*
X76788095Y-53883390D01*
X76788095Y-53883390D02*
X76835714Y-53692914D01*
X76835714Y-53692914D02*
X76883333Y-53597676D01*
X76883333Y-53597676D02*
X76978571Y-53502438D01*
X76978571Y-53502438D02*
X77121428Y-53454819D01*
X77121428Y-53454819D02*
X77216666Y-53454819D01*
X77216666Y-53454819D02*
X77359523Y-53502438D01*
X77359523Y-53502438D02*
X77407142Y-53550057D01*
X78359523Y-54454819D02*
X77788095Y-54454819D01*
X78073809Y-54454819D02*
X78073809Y-53454819D01*
X78073809Y-53454819D02*
X77978571Y-53597676D01*
X77978571Y-53597676D02*
X77883333Y-53692914D01*
X77883333Y-53692914D02*
X77788095Y-53740533D01*
X78978571Y-53454819D02*
X79073809Y-53454819D01*
X79073809Y-53454819D02*
X79169047Y-53502438D01*
X79169047Y-53502438D02*
X79216666Y-53550057D01*
X79216666Y-53550057D02*
X79264285Y-53645295D01*
X79264285Y-53645295D02*
X79311904Y-53835771D01*
X79311904Y-53835771D02*
X79311904Y-54073866D01*
X79311904Y-54073866D02*
X79264285Y-54264342D01*
X79264285Y-54264342D02*
X79216666Y-54359580D01*
X79216666Y-54359580D02*
X79169047Y-54407200D01*
X79169047Y-54407200D02*
X79073809Y-54454819D01*
X79073809Y-54454819D02*
X78978571Y-54454819D01*
X78978571Y-54454819D02*
X78883333Y-54407200D01*
X78883333Y-54407200D02*
X78835714Y-54359580D01*
X78835714Y-54359580D02*
X78788095Y-54264342D01*
X78788095Y-54264342D02*
X78740476Y-54073866D01*
X78740476Y-54073866D02*
X78740476Y-53835771D01*
X78740476Y-53835771D02*
X78788095Y-53645295D01*
X78788095Y-53645295D02*
X78835714Y-53550057D01*
X78835714Y-53550057D02*
X78883333Y-53502438D01*
X78883333Y-53502438D02*
X78978571Y-53454819D01*
X102083333Y-54359580D02*
X102035714Y-54407200D01*
X102035714Y-54407200D02*
X101892857Y-54454819D01*
X101892857Y-54454819D02*
X101797619Y-54454819D01*
X101797619Y-54454819D02*
X101654762Y-54407200D01*
X101654762Y-54407200D02*
X101559524Y-54311961D01*
X101559524Y-54311961D02*
X101511905Y-54216723D01*
X101511905Y-54216723D02*
X101464286Y-54026247D01*
X101464286Y-54026247D02*
X101464286Y-53883390D01*
X101464286Y-53883390D02*
X101511905Y-53692914D01*
X101511905Y-53692914D02*
X101559524Y-53597676D01*
X101559524Y-53597676D02*
X101654762Y-53502438D01*
X101654762Y-53502438D02*
X101797619Y-53454819D01*
X101797619Y-53454819D02*
X101892857Y-53454819D01*
X101892857Y-53454819D02*
X102035714Y-53502438D01*
X102035714Y-53502438D02*
X102083333Y-53550057D01*
X102940476Y-53454819D02*
X102750000Y-53454819D01*
X102750000Y-53454819D02*
X102654762Y-53502438D01*
X102654762Y-53502438D02*
X102607143Y-53550057D01*
X102607143Y-53550057D02*
X102511905Y-53692914D01*
X102511905Y-53692914D02*
X102464286Y-53883390D01*
X102464286Y-53883390D02*
X102464286Y-54264342D01*
X102464286Y-54264342D02*
X102511905Y-54359580D01*
X102511905Y-54359580D02*
X102559524Y-54407200D01*
X102559524Y-54407200D02*
X102654762Y-54454819D01*
X102654762Y-54454819D02*
X102845238Y-54454819D01*
X102845238Y-54454819D02*
X102940476Y-54407200D01*
X102940476Y-54407200D02*
X102988095Y-54359580D01*
X102988095Y-54359580D02*
X103035714Y-54264342D01*
X103035714Y-54264342D02*
X103035714Y-54026247D01*
X103035714Y-54026247D02*
X102988095Y-53931009D01*
X102988095Y-53931009D02*
X102940476Y-53883390D01*
X102940476Y-53883390D02*
X102845238Y-53835771D01*
X102845238Y-53835771D02*
X102654762Y-53835771D01*
X102654762Y-53835771D02*
X102559524Y-53883390D01*
X102559524Y-53883390D02*
X102511905Y-53931009D01*
X102511905Y-53931009D02*
X102464286Y-54026247D01*
X154023333Y-45084819D02*
X153690000Y-44608628D01*
X153451905Y-45084819D02*
X153451905Y-44084819D01*
X153451905Y-44084819D02*
X153832857Y-44084819D01*
X153832857Y-44084819D02*
X153928095Y-44132438D01*
X153928095Y-44132438D02*
X153975714Y-44180057D01*
X153975714Y-44180057D02*
X154023333Y-44275295D01*
X154023333Y-44275295D02*
X154023333Y-44418152D01*
X154023333Y-44418152D02*
X153975714Y-44513390D01*
X153975714Y-44513390D02*
X153928095Y-44561009D01*
X153928095Y-44561009D02*
X153832857Y-44608628D01*
X153832857Y-44608628D02*
X153451905Y-44608628D01*
X154880476Y-44084819D02*
X154690000Y-44084819D01*
X154690000Y-44084819D02*
X154594762Y-44132438D01*
X154594762Y-44132438D02*
X154547143Y-44180057D01*
X154547143Y-44180057D02*
X154451905Y-44322914D01*
X154451905Y-44322914D02*
X154404286Y-44513390D01*
X154404286Y-44513390D02*
X154404286Y-44894342D01*
X154404286Y-44894342D02*
X154451905Y-44989580D01*
X154451905Y-44989580D02*
X154499524Y-45037200D01*
X154499524Y-45037200D02*
X154594762Y-45084819D01*
X154594762Y-45084819D02*
X154785238Y-45084819D01*
X154785238Y-45084819D02*
X154880476Y-45037200D01*
X154880476Y-45037200D02*
X154928095Y-44989580D01*
X154928095Y-44989580D02*
X154975714Y-44894342D01*
X154975714Y-44894342D02*
X154975714Y-44656247D01*
X154975714Y-44656247D02*
X154928095Y-44561009D01*
X154928095Y-44561009D02*
X154880476Y-44513390D01*
X154880476Y-44513390D02*
X154785238Y-44465771D01*
X154785238Y-44465771D02*
X154594762Y-44465771D01*
X154594762Y-44465771D02*
X154499524Y-44513390D01*
X154499524Y-44513390D02*
X154451905Y-44561009D01*
X154451905Y-44561009D02*
X154404286Y-44656247D01*
X121978628Y-97249999D02*
X122454819Y-97249999D01*
X121454819Y-97583332D02*
X121978628Y-97249999D01*
X121978628Y-97249999D02*
X121454819Y-96916666D01*
X122454819Y-96583332D02*
X121454819Y-96583332D01*
X121931009Y-96583332D02*
X121931009Y-96011904D01*
X122454819Y-96011904D02*
X121454819Y-96011904D01*
X122454819Y-95011904D02*
X122454819Y-95583332D01*
X122454819Y-95297618D02*
X121454819Y-95297618D01*
X121454819Y-95297618D02*
X121597676Y-95392856D01*
X121597676Y-95392856D02*
X121692914Y-95488094D01*
X121692914Y-95488094D02*
X121740533Y-95583332D01*
X81845237Y-97204819D02*
X81369047Y-97204819D01*
X81369047Y-97204819D02*
X81369047Y-96204819D01*
X82321428Y-97204819D02*
X82226190Y-97157200D01*
X82226190Y-97157200D02*
X82178571Y-97109580D01*
X82178571Y-97109580D02*
X82130952Y-97014342D01*
X82130952Y-97014342D02*
X82130952Y-96728628D01*
X82130952Y-96728628D02*
X82178571Y-96633390D01*
X82178571Y-96633390D02*
X82226190Y-96585771D01*
X82226190Y-96585771D02*
X82321428Y-96538152D01*
X82321428Y-96538152D02*
X82464285Y-96538152D01*
X82464285Y-96538152D02*
X82559523Y-96585771D01*
X82559523Y-96585771D02*
X82607142Y-96633390D01*
X82607142Y-96633390D02*
X82654761Y-96728628D01*
X82654761Y-96728628D02*
X82654761Y-97014342D01*
X82654761Y-97014342D02*
X82607142Y-97109580D01*
X82607142Y-97109580D02*
X82559523Y-97157200D01*
X82559523Y-97157200D02*
X82464285Y-97204819D01*
X82464285Y-97204819D02*
X82321428Y-97204819D01*
X83511904Y-97204819D02*
X83511904Y-96681009D01*
X83511904Y-96681009D02*
X83464285Y-96585771D01*
X83464285Y-96585771D02*
X83369047Y-96538152D01*
X83369047Y-96538152D02*
X83178571Y-96538152D01*
X83178571Y-96538152D02*
X83083333Y-96585771D01*
X83511904Y-97157200D02*
X83416666Y-97204819D01*
X83416666Y-97204819D02*
X83178571Y-97204819D01*
X83178571Y-97204819D02*
X83083333Y-97157200D01*
X83083333Y-97157200D02*
X83035714Y-97061961D01*
X83035714Y-97061961D02*
X83035714Y-96966723D01*
X83035714Y-96966723D02*
X83083333Y-96871485D01*
X83083333Y-96871485D02*
X83178571Y-96823866D01*
X83178571Y-96823866D02*
X83416666Y-96823866D01*
X83416666Y-96823866D02*
X83511904Y-96776247D01*
X84416666Y-97204819D02*
X84416666Y-96204819D01*
X84416666Y-97157200D02*
X84321428Y-97204819D01*
X84321428Y-97204819D02*
X84130952Y-97204819D01*
X84130952Y-97204819D02*
X84035714Y-97157200D01*
X84035714Y-97157200D02*
X83988095Y-97109580D01*
X83988095Y-97109580D02*
X83940476Y-97014342D01*
X83940476Y-97014342D02*
X83940476Y-96728628D01*
X83940476Y-96728628D02*
X83988095Y-96633390D01*
X83988095Y-96633390D02*
X84035714Y-96585771D01*
X84035714Y-96585771D02*
X84130952Y-96538152D01*
X84130952Y-96538152D02*
X84321428Y-96538152D01*
X84321428Y-96538152D02*
X84416666Y-96585771D01*
X84797619Y-96204819D02*
X85464285Y-96204819D01*
X85464285Y-96204819D02*
X84797619Y-97204819D01*
X84797619Y-97204819D02*
X85464285Y-97204819D01*
X86321428Y-97204819D02*
X85845238Y-97204819D01*
X85845238Y-97204819D02*
X85845238Y-96204819D01*
X81230952Y-95927200D02*
X86316667Y-95927200D01*
X87178571Y-97204819D02*
X86607143Y-97204819D01*
X86892857Y-97204819D02*
X86892857Y-96204819D01*
X86892857Y-96204819D02*
X86797619Y-96347676D01*
X86797619Y-96347676D02*
X86702381Y-96442914D01*
X86702381Y-96442914D02*
X86607143Y-96490533D01*
X78345238Y-134931009D02*
X78488095Y-134978628D01*
X78488095Y-134978628D02*
X78535714Y-135026247D01*
X78535714Y-135026247D02*
X78583333Y-135121485D01*
X78583333Y-135121485D02*
X78583333Y-135264342D01*
X78583333Y-135264342D02*
X78535714Y-135359580D01*
X78535714Y-135359580D02*
X78488095Y-135407200D01*
X78488095Y-135407200D02*
X78392857Y-135454819D01*
X78392857Y-135454819D02*
X78011905Y-135454819D01*
X78011905Y-135454819D02*
X78011905Y-134454819D01*
X78011905Y-134454819D02*
X78345238Y-134454819D01*
X78345238Y-134454819D02*
X78440476Y-134502438D01*
X78440476Y-134502438D02*
X78488095Y-134550057D01*
X78488095Y-134550057D02*
X78535714Y-134645295D01*
X78535714Y-134645295D02*
X78535714Y-134740533D01*
X78535714Y-134740533D02*
X78488095Y-134835771D01*
X78488095Y-134835771D02*
X78440476Y-134883390D01*
X78440476Y-134883390D02*
X78345238Y-134931009D01*
X78345238Y-134931009D02*
X78011905Y-134931009D01*
X79583333Y-135359580D02*
X79535714Y-135407200D01*
X79535714Y-135407200D02*
X79392857Y-135454819D01*
X79392857Y-135454819D02*
X79297619Y-135454819D01*
X79297619Y-135454819D02*
X79154762Y-135407200D01*
X79154762Y-135407200D02*
X79059524Y-135311961D01*
X79059524Y-135311961D02*
X79011905Y-135216723D01*
X79011905Y-135216723D02*
X78964286Y-135026247D01*
X78964286Y-135026247D02*
X78964286Y-134883390D01*
X78964286Y-134883390D02*
X79011905Y-134692914D01*
X79011905Y-134692914D02*
X79059524Y-134597676D01*
X79059524Y-134597676D02*
X79154762Y-134502438D01*
X79154762Y-134502438D02*
X79297619Y-134454819D01*
X79297619Y-134454819D02*
X79392857Y-134454819D01*
X79392857Y-134454819D02*
X79535714Y-134502438D01*
X79535714Y-134502438D02*
X79583333Y-134550057D01*
X80535714Y-135454819D02*
X79964286Y-135454819D01*
X80250000Y-135454819D02*
X80250000Y-134454819D01*
X80250000Y-134454819D02*
X80154762Y-134597676D01*
X80154762Y-134597676D02*
X80059524Y-134692914D01*
X80059524Y-134692914D02*
X79964286Y-134740533D01*
X84869047Y-112204819D02*
X84535714Y-111728628D01*
X84297619Y-112204819D02*
X84297619Y-111204819D01*
X84297619Y-111204819D02*
X84678571Y-111204819D01*
X84678571Y-111204819D02*
X84773809Y-111252438D01*
X84773809Y-111252438D02*
X84821428Y-111300057D01*
X84821428Y-111300057D02*
X84869047Y-111395295D01*
X84869047Y-111395295D02*
X84869047Y-111538152D01*
X84869047Y-111538152D02*
X84821428Y-111633390D01*
X84821428Y-111633390D02*
X84773809Y-111681009D01*
X84773809Y-111681009D02*
X84678571Y-111728628D01*
X84678571Y-111728628D02*
X84297619Y-111728628D01*
X85678571Y-112157200D02*
X85583333Y-112204819D01*
X85583333Y-112204819D02*
X85392857Y-112204819D01*
X85392857Y-112204819D02*
X85297619Y-112157200D01*
X85297619Y-112157200D02*
X85250000Y-112061961D01*
X85250000Y-112061961D02*
X85250000Y-111681009D01*
X85250000Y-111681009D02*
X85297619Y-111585771D01*
X85297619Y-111585771D02*
X85392857Y-111538152D01*
X85392857Y-111538152D02*
X85583333Y-111538152D01*
X85583333Y-111538152D02*
X85678571Y-111585771D01*
X85678571Y-111585771D02*
X85726190Y-111681009D01*
X85726190Y-111681009D02*
X85726190Y-111776247D01*
X85726190Y-111776247D02*
X85250000Y-111871485D01*
X86583333Y-112204819D02*
X86583333Y-111681009D01*
X86583333Y-111681009D02*
X86535714Y-111585771D01*
X86535714Y-111585771D02*
X86440476Y-111538152D01*
X86440476Y-111538152D02*
X86250000Y-111538152D01*
X86250000Y-111538152D02*
X86154762Y-111585771D01*
X86583333Y-112157200D02*
X86488095Y-112204819D01*
X86488095Y-112204819D02*
X86250000Y-112204819D01*
X86250000Y-112204819D02*
X86154762Y-112157200D01*
X86154762Y-112157200D02*
X86107143Y-112061961D01*
X86107143Y-112061961D02*
X86107143Y-111966723D01*
X86107143Y-111966723D02*
X86154762Y-111871485D01*
X86154762Y-111871485D02*
X86250000Y-111823866D01*
X86250000Y-111823866D02*
X86488095Y-111823866D01*
X86488095Y-111823866D02*
X86583333Y-111776247D01*
X87488095Y-112204819D02*
X87488095Y-111204819D01*
X87488095Y-112157200D02*
X87392857Y-112204819D01*
X87392857Y-112204819D02*
X87202381Y-112204819D01*
X87202381Y-112204819D02*
X87107143Y-112157200D01*
X87107143Y-112157200D02*
X87059524Y-112109580D01*
X87059524Y-112109580D02*
X87011905Y-112014342D01*
X87011905Y-112014342D02*
X87011905Y-111728628D01*
X87011905Y-111728628D02*
X87059524Y-111633390D01*
X87059524Y-111633390D02*
X87107143Y-111585771D01*
X87107143Y-111585771D02*
X87202381Y-111538152D01*
X87202381Y-111538152D02*
X87392857Y-111538152D01*
X87392857Y-111538152D02*
X87488095Y-111585771D01*
X87869048Y-111204819D02*
X88535714Y-111204819D01*
X88535714Y-111204819D02*
X87869048Y-112204819D01*
X87869048Y-112204819D02*
X88535714Y-112204819D01*
X89392857Y-112204819D02*
X88916667Y-112204819D01*
X88916667Y-112204819D02*
X88916667Y-111204819D01*
X84159524Y-110927200D02*
X89388096Y-110927200D01*
X90250000Y-112204819D02*
X89678572Y-112204819D01*
X89964286Y-112204819D02*
X89964286Y-111204819D01*
X89964286Y-111204819D02*
X89869048Y-111347676D01*
X89869048Y-111347676D02*
X89773810Y-111442914D01*
X89773810Y-111442914D02*
X89678572Y-111490533D01*
X124369047Y-85704819D02*
X124369047Y-84704819D01*
X124369047Y-84704819D02*
X124749999Y-84704819D01*
X124749999Y-84704819D02*
X124845237Y-84752438D01*
X124845237Y-84752438D02*
X124892856Y-84800057D01*
X124892856Y-84800057D02*
X124940475Y-84895295D01*
X124940475Y-84895295D02*
X124940475Y-85038152D01*
X124940475Y-85038152D02*
X124892856Y-85133390D01*
X124892856Y-85133390D02*
X124845237Y-85181009D01*
X124845237Y-85181009D02*
X124749999Y-85228628D01*
X124749999Y-85228628D02*
X124369047Y-85228628D01*
X125797618Y-85704819D02*
X125797618Y-85181009D01*
X125797618Y-85181009D02*
X125749999Y-85085771D01*
X125749999Y-85085771D02*
X125654761Y-85038152D01*
X125654761Y-85038152D02*
X125464285Y-85038152D01*
X125464285Y-85038152D02*
X125369047Y-85085771D01*
X125797618Y-85657200D02*
X125702380Y-85704819D01*
X125702380Y-85704819D02*
X125464285Y-85704819D01*
X125464285Y-85704819D02*
X125369047Y-85657200D01*
X125369047Y-85657200D02*
X125321428Y-85561961D01*
X125321428Y-85561961D02*
X125321428Y-85466723D01*
X125321428Y-85466723D02*
X125369047Y-85371485D01*
X125369047Y-85371485D02*
X125464285Y-85323866D01*
X125464285Y-85323866D02*
X125702380Y-85323866D01*
X125702380Y-85323866D02*
X125797618Y-85276247D01*
X126226190Y-85657200D02*
X126321428Y-85704819D01*
X126321428Y-85704819D02*
X126511904Y-85704819D01*
X126511904Y-85704819D02*
X126607142Y-85657200D01*
X126607142Y-85657200D02*
X126654761Y-85561961D01*
X126654761Y-85561961D02*
X126654761Y-85514342D01*
X126654761Y-85514342D02*
X126607142Y-85419104D01*
X126607142Y-85419104D02*
X126511904Y-85371485D01*
X126511904Y-85371485D02*
X126369047Y-85371485D01*
X126369047Y-85371485D02*
X126273809Y-85323866D01*
X126273809Y-85323866D02*
X126226190Y-85228628D01*
X126226190Y-85228628D02*
X126226190Y-85181009D01*
X126226190Y-85181009D02*
X126273809Y-85085771D01*
X126273809Y-85085771D02*
X126369047Y-85038152D01*
X126369047Y-85038152D02*
X126511904Y-85038152D01*
X126511904Y-85038152D02*
X126607142Y-85085771D01*
X127035714Y-85657200D02*
X127130952Y-85704819D01*
X127130952Y-85704819D02*
X127321428Y-85704819D01*
X127321428Y-85704819D02*
X127416666Y-85657200D01*
X127416666Y-85657200D02*
X127464285Y-85561961D01*
X127464285Y-85561961D02*
X127464285Y-85514342D01*
X127464285Y-85514342D02*
X127416666Y-85419104D01*
X127416666Y-85419104D02*
X127321428Y-85371485D01*
X127321428Y-85371485D02*
X127178571Y-85371485D01*
X127178571Y-85371485D02*
X127083333Y-85323866D01*
X127083333Y-85323866D02*
X127035714Y-85228628D01*
X127035714Y-85228628D02*
X127035714Y-85181009D01*
X127035714Y-85181009D02*
X127083333Y-85085771D01*
X127083333Y-85085771D02*
X127178571Y-85038152D01*
X127178571Y-85038152D02*
X127321428Y-85038152D01*
X127321428Y-85038152D02*
X127416666Y-85085771D01*
X127797619Y-84704819D02*
X128464285Y-85704819D01*
X128464285Y-84704819D02*
X127797619Y-85704819D01*
X129321428Y-85704819D02*
X128845238Y-85704819D01*
X128845238Y-85704819D02*
X128845238Y-84704819D01*
X124230952Y-84427200D02*
X129316667Y-84427200D01*
X130178571Y-85704819D02*
X129607143Y-85704819D01*
X129892857Y-85704819D02*
X129892857Y-84704819D01*
X129892857Y-84704819D02*
X129797619Y-84847676D01*
X129797619Y-84847676D02*
X129702381Y-84942914D01*
X129702381Y-84942914D02*
X129607143Y-84990533D01*
X93999999Y-128454819D02*
X93666666Y-127978628D01*
X93428571Y-128454819D02*
X93428571Y-127454819D01*
X93428571Y-127454819D02*
X93809523Y-127454819D01*
X93809523Y-127454819D02*
X93904761Y-127502438D01*
X93904761Y-127502438D02*
X93952380Y-127550057D01*
X93952380Y-127550057D02*
X93999999Y-127645295D01*
X93999999Y-127645295D02*
X93999999Y-127788152D01*
X93999999Y-127788152D02*
X93952380Y-127883390D01*
X93952380Y-127883390D02*
X93904761Y-127931009D01*
X93904761Y-127931009D02*
X93809523Y-127978628D01*
X93809523Y-127978628D02*
X93428571Y-127978628D01*
X94809523Y-128407200D02*
X94714285Y-128454819D01*
X94714285Y-128454819D02*
X94523809Y-128454819D01*
X94523809Y-128454819D02*
X94428571Y-128407200D01*
X94428571Y-128407200D02*
X94380952Y-128311961D01*
X94380952Y-128311961D02*
X94380952Y-127931009D01*
X94380952Y-127931009D02*
X94428571Y-127835771D01*
X94428571Y-127835771D02*
X94523809Y-127788152D01*
X94523809Y-127788152D02*
X94714285Y-127788152D01*
X94714285Y-127788152D02*
X94809523Y-127835771D01*
X94809523Y-127835771D02*
X94857142Y-127931009D01*
X94857142Y-127931009D02*
X94857142Y-128026247D01*
X94857142Y-128026247D02*
X94380952Y-128121485D01*
X95714285Y-128454819D02*
X95714285Y-127931009D01*
X95714285Y-127931009D02*
X95666666Y-127835771D01*
X95666666Y-127835771D02*
X95571428Y-127788152D01*
X95571428Y-127788152D02*
X95380952Y-127788152D01*
X95380952Y-127788152D02*
X95285714Y-127835771D01*
X95714285Y-128407200D02*
X95619047Y-128454819D01*
X95619047Y-128454819D02*
X95380952Y-128454819D01*
X95380952Y-128454819D02*
X95285714Y-128407200D01*
X95285714Y-128407200D02*
X95238095Y-128311961D01*
X95238095Y-128311961D02*
X95238095Y-128216723D01*
X95238095Y-128216723D02*
X95285714Y-128121485D01*
X95285714Y-128121485D02*
X95380952Y-128073866D01*
X95380952Y-128073866D02*
X95619047Y-128073866D01*
X95619047Y-128073866D02*
X95714285Y-128026247D01*
X96619047Y-128454819D02*
X96619047Y-127454819D01*
X96619047Y-128407200D02*
X96523809Y-128454819D01*
X96523809Y-128454819D02*
X96333333Y-128454819D01*
X96333333Y-128454819D02*
X96238095Y-128407200D01*
X96238095Y-128407200D02*
X96190476Y-128359580D01*
X96190476Y-128359580D02*
X96142857Y-128264342D01*
X96142857Y-128264342D02*
X96142857Y-127978628D01*
X96142857Y-127978628D02*
X96190476Y-127883390D01*
X96190476Y-127883390D02*
X96238095Y-127835771D01*
X96238095Y-127835771D02*
X96333333Y-127788152D01*
X96333333Y-127788152D02*
X96523809Y-127788152D01*
X96523809Y-127788152D02*
X96619047Y-127835771D01*
X97000000Y-127454819D02*
X97666666Y-127454819D01*
X97666666Y-127454819D02*
X97000000Y-128454819D01*
X97000000Y-128454819D02*
X97666666Y-128454819D01*
X98047619Y-128454819D02*
X98047619Y-127454819D01*
X98047619Y-127931009D02*
X98619047Y-127931009D01*
X98619047Y-128454819D02*
X98619047Y-127454819D01*
X93290476Y-127177200D02*
X98757143Y-127177200D01*
X99619047Y-128454819D02*
X99047619Y-128454819D01*
X99333333Y-128454819D02*
X99333333Y-127454819D01*
X99333333Y-127454819D02*
X99238095Y-127597676D01*
X99238095Y-127597676D02*
X99142857Y-127692914D01*
X99142857Y-127692914D02*
X99047619Y-127740533D01*
X126202380Y-113454819D02*
X125726190Y-113454819D01*
X125726190Y-113454819D02*
X125726190Y-112454819D01*
X126916666Y-113407200D02*
X126821428Y-113454819D01*
X126821428Y-113454819D02*
X126630952Y-113454819D01*
X126630952Y-113454819D02*
X126535714Y-113407200D01*
X126535714Y-113407200D02*
X126488095Y-113311961D01*
X126488095Y-113311961D02*
X126488095Y-112931009D01*
X126488095Y-112931009D02*
X126535714Y-112835771D01*
X126535714Y-112835771D02*
X126630952Y-112788152D01*
X126630952Y-112788152D02*
X126821428Y-112788152D01*
X126821428Y-112788152D02*
X126916666Y-112835771D01*
X126916666Y-112835771D02*
X126964285Y-112931009D01*
X126964285Y-112931009D02*
X126964285Y-113026247D01*
X126964285Y-113026247D02*
X126488095Y-113121485D01*
X127250000Y-112788152D02*
X127630952Y-112788152D01*
X127392857Y-113454819D02*
X127392857Y-112597676D01*
X127392857Y-112597676D02*
X127440476Y-112502438D01*
X127440476Y-112502438D02*
X127535714Y-112454819D01*
X127535714Y-112454819D02*
X127630952Y-112454819D01*
X127821429Y-112788152D02*
X128202381Y-112788152D01*
X127964286Y-112454819D02*
X127964286Y-113311961D01*
X127964286Y-113311961D02*
X128011905Y-113407200D01*
X128011905Y-113407200D02*
X128107143Y-113454819D01*
X128107143Y-113454819D02*
X128202381Y-113454819D01*
X128440477Y-112454819D02*
X129107143Y-113454819D01*
X129107143Y-112454819D02*
X128440477Y-113454819D01*
X129964286Y-113454819D02*
X129488096Y-113454819D01*
X129488096Y-113454819D02*
X129488096Y-112454819D01*
X125588095Y-112177200D02*
X129959525Y-112177200D01*
X130821429Y-113454819D02*
X130250001Y-113454819D01*
X130535715Y-113454819D02*
X130535715Y-112454819D01*
X130535715Y-112454819D02*
X130440477Y-112597676D01*
X130440477Y-112597676D02*
X130345239Y-112692914D01*
X130345239Y-112692914D02*
X130250001Y-112740533D01*
X124609580Y-51642857D02*
X124657200Y-51690476D01*
X124657200Y-51690476D02*
X124704819Y-51833333D01*
X124704819Y-51833333D02*
X124704819Y-51928571D01*
X124704819Y-51928571D02*
X124657200Y-52071428D01*
X124657200Y-52071428D02*
X124561961Y-52166666D01*
X124561961Y-52166666D02*
X124466723Y-52214285D01*
X124466723Y-52214285D02*
X124276247Y-52261904D01*
X124276247Y-52261904D02*
X124133390Y-52261904D01*
X124133390Y-52261904D02*
X123942914Y-52214285D01*
X123942914Y-52214285D02*
X123847676Y-52166666D01*
X123847676Y-52166666D02*
X123752438Y-52071428D01*
X123752438Y-52071428D02*
X123704819Y-51928571D01*
X123704819Y-51928571D02*
X123704819Y-51833333D01*
X123704819Y-51833333D02*
X123752438Y-51690476D01*
X123752438Y-51690476D02*
X123800057Y-51642857D01*
X124704819Y-50690476D02*
X124704819Y-51261904D01*
X124704819Y-50976190D02*
X123704819Y-50976190D01*
X123704819Y-50976190D02*
X123847676Y-51071428D01*
X123847676Y-51071428D02*
X123942914Y-51166666D01*
X123942914Y-51166666D02*
X123990533Y-51261904D01*
X124704819Y-49738095D02*
X124704819Y-50309523D01*
X124704819Y-50023809D02*
X123704819Y-50023809D01*
X123704819Y-50023809D02*
X123847676Y-50119047D01*
X123847676Y-50119047D02*
X123942914Y-50214285D01*
X123942914Y-50214285D02*
X123990533Y-50309523D01*
X124334580Y-106167857D02*
X124382200Y-106215476D01*
X124382200Y-106215476D02*
X124429819Y-106358333D01*
X124429819Y-106358333D02*
X124429819Y-106453571D01*
X124429819Y-106453571D02*
X124382200Y-106596428D01*
X124382200Y-106596428D02*
X124286961Y-106691666D01*
X124286961Y-106691666D02*
X124191723Y-106739285D01*
X124191723Y-106739285D02*
X124001247Y-106786904D01*
X124001247Y-106786904D02*
X123858390Y-106786904D01*
X123858390Y-106786904D02*
X123667914Y-106739285D01*
X123667914Y-106739285D02*
X123572676Y-106691666D01*
X123572676Y-106691666D02*
X123477438Y-106596428D01*
X123477438Y-106596428D02*
X123429819Y-106453571D01*
X123429819Y-106453571D02*
X123429819Y-106358333D01*
X123429819Y-106358333D02*
X123477438Y-106215476D01*
X123477438Y-106215476D02*
X123525057Y-106167857D01*
X124429819Y-105215476D02*
X124429819Y-105786904D01*
X124429819Y-105501190D02*
X123429819Y-105501190D01*
X123429819Y-105501190D02*
X123572676Y-105596428D01*
X123572676Y-105596428D02*
X123667914Y-105691666D01*
X123667914Y-105691666D02*
X123715533Y-105786904D01*
X123763152Y-104358333D02*
X124429819Y-104358333D01*
X123382200Y-104596428D02*
X124096485Y-104834523D01*
X124096485Y-104834523D02*
X124096485Y-104215476D01*
X119359819Y-62541666D02*
X118883628Y-62874999D01*
X119359819Y-63113094D02*
X118359819Y-63113094D01*
X118359819Y-63113094D02*
X118359819Y-62732142D01*
X118359819Y-62732142D02*
X118407438Y-62636904D01*
X118407438Y-62636904D02*
X118455057Y-62589285D01*
X118455057Y-62589285D02*
X118550295Y-62541666D01*
X118550295Y-62541666D02*
X118693152Y-62541666D01*
X118693152Y-62541666D02*
X118788390Y-62589285D01*
X118788390Y-62589285D02*
X118836009Y-62636904D01*
X118836009Y-62636904D02*
X118883628Y-62732142D01*
X118883628Y-62732142D02*
X118883628Y-63113094D01*
X118359819Y-61636904D02*
X118359819Y-62113094D01*
X118359819Y-62113094D02*
X118836009Y-62160713D01*
X118836009Y-62160713D02*
X118788390Y-62113094D01*
X118788390Y-62113094D02*
X118740771Y-62017856D01*
X118740771Y-62017856D02*
X118740771Y-61779761D01*
X118740771Y-61779761D02*
X118788390Y-61684523D01*
X118788390Y-61684523D02*
X118836009Y-61636904D01*
X118836009Y-61636904D02*
X118931247Y-61589285D01*
X118931247Y-61589285D02*
X119169342Y-61589285D01*
X119169342Y-61589285D02*
X119264580Y-61636904D01*
X119264580Y-61636904D02*
X119312200Y-61684523D01*
X119312200Y-61684523D02*
X119359819Y-61779761D01*
X119359819Y-61779761D02*
X119359819Y-62017856D01*
X119359819Y-62017856D02*
X119312200Y-62113094D01*
X119312200Y-62113094D02*
X119264580Y-62160713D01*
X90859580Y-85666666D02*
X90907200Y-85714285D01*
X90907200Y-85714285D02*
X90954819Y-85857142D01*
X90954819Y-85857142D02*
X90954819Y-85952380D01*
X90954819Y-85952380D02*
X90907200Y-86095237D01*
X90907200Y-86095237D02*
X90811961Y-86190475D01*
X90811961Y-86190475D02*
X90716723Y-86238094D01*
X90716723Y-86238094D02*
X90526247Y-86285713D01*
X90526247Y-86285713D02*
X90383390Y-86285713D01*
X90383390Y-86285713D02*
X90192914Y-86238094D01*
X90192914Y-86238094D02*
X90097676Y-86190475D01*
X90097676Y-86190475D02*
X90002438Y-86095237D01*
X90002438Y-86095237D02*
X89954819Y-85952380D01*
X89954819Y-85952380D02*
X89954819Y-85857142D01*
X89954819Y-85857142D02*
X90002438Y-85714285D01*
X90002438Y-85714285D02*
X90050057Y-85666666D01*
X90050057Y-85285713D02*
X90002438Y-85238094D01*
X90002438Y-85238094D02*
X89954819Y-85142856D01*
X89954819Y-85142856D02*
X89954819Y-84904761D01*
X89954819Y-84904761D02*
X90002438Y-84809523D01*
X90002438Y-84809523D02*
X90050057Y-84761904D01*
X90050057Y-84761904D02*
X90145295Y-84714285D01*
X90145295Y-84714285D02*
X90240533Y-84714285D01*
X90240533Y-84714285D02*
X90383390Y-84761904D01*
X90383390Y-84761904D02*
X90954819Y-85333332D01*
X90954819Y-85333332D02*
X90954819Y-84714285D01*
X89359580Y-118166666D02*
X89407200Y-118214285D01*
X89407200Y-118214285D02*
X89454819Y-118357142D01*
X89454819Y-118357142D02*
X89454819Y-118452380D01*
X89454819Y-118452380D02*
X89407200Y-118595237D01*
X89407200Y-118595237D02*
X89311961Y-118690475D01*
X89311961Y-118690475D02*
X89216723Y-118738094D01*
X89216723Y-118738094D02*
X89026247Y-118785713D01*
X89026247Y-118785713D02*
X88883390Y-118785713D01*
X88883390Y-118785713D02*
X88692914Y-118738094D01*
X88692914Y-118738094D02*
X88597676Y-118690475D01*
X88597676Y-118690475D02*
X88502438Y-118595237D01*
X88502438Y-118595237D02*
X88454819Y-118452380D01*
X88454819Y-118452380D02*
X88454819Y-118357142D01*
X88454819Y-118357142D02*
X88502438Y-118214285D01*
X88502438Y-118214285D02*
X88550057Y-118166666D01*
X88454819Y-117261904D02*
X88454819Y-117738094D01*
X88454819Y-117738094D02*
X88931009Y-117785713D01*
X88931009Y-117785713D02*
X88883390Y-117738094D01*
X88883390Y-117738094D02*
X88835771Y-117642856D01*
X88835771Y-117642856D02*
X88835771Y-117404761D01*
X88835771Y-117404761D02*
X88883390Y-117309523D01*
X88883390Y-117309523D02*
X88931009Y-117261904D01*
X88931009Y-117261904D02*
X89026247Y-117214285D01*
X89026247Y-117214285D02*
X89264342Y-117214285D01*
X89264342Y-117214285D02*
X89359580Y-117261904D01*
X89359580Y-117261904D02*
X89407200Y-117309523D01*
X89407200Y-117309523D02*
X89454819Y-117404761D01*
X89454819Y-117404761D02*
X89454819Y-117642856D01*
X89454819Y-117642856D02*
X89407200Y-117738094D01*
X89407200Y-117738094D02*
X89359580Y-117785713D01*
X92833333Y-68109580D02*
X92785714Y-68157200D01*
X92785714Y-68157200D02*
X92642857Y-68204819D01*
X92642857Y-68204819D02*
X92547619Y-68204819D01*
X92547619Y-68204819D02*
X92404762Y-68157200D01*
X92404762Y-68157200D02*
X92309524Y-68061961D01*
X92309524Y-68061961D02*
X92261905Y-67966723D01*
X92261905Y-67966723D02*
X92214286Y-67776247D01*
X92214286Y-67776247D02*
X92214286Y-67633390D01*
X92214286Y-67633390D02*
X92261905Y-67442914D01*
X92261905Y-67442914D02*
X92309524Y-67347676D01*
X92309524Y-67347676D02*
X92404762Y-67252438D01*
X92404762Y-67252438D02*
X92547619Y-67204819D01*
X92547619Y-67204819D02*
X92642857Y-67204819D01*
X92642857Y-67204819D02*
X92785714Y-67252438D01*
X92785714Y-67252438D02*
X92833333Y-67300057D01*
X93690476Y-67538152D02*
X93690476Y-68204819D01*
X93452381Y-67157200D02*
X93214286Y-67871485D01*
X93214286Y-67871485D02*
X93833333Y-67871485D01*
X155785713Y-126661580D02*
X155738094Y-126709200D01*
X155738094Y-126709200D02*
X155595237Y-126756819D01*
X155595237Y-126756819D02*
X155499999Y-126756819D01*
X155499999Y-126756819D02*
X155357142Y-126709200D01*
X155357142Y-126709200D02*
X155261904Y-126613961D01*
X155261904Y-126613961D02*
X155214285Y-126518723D01*
X155214285Y-126518723D02*
X155166666Y-126328247D01*
X155166666Y-126328247D02*
X155166666Y-126185390D01*
X155166666Y-126185390D02*
X155214285Y-125994914D01*
X155214285Y-125994914D02*
X155261904Y-125899676D01*
X155261904Y-125899676D02*
X155357142Y-125804438D01*
X155357142Y-125804438D02*
X155499999Y-125756819D01*
X155499999Y-125756819D02*
X155595237Y-125756819D01*
X155595237Y-125756819D02*
X155738094Y-125804438D01*
X155738094Y-125804438D02*
X155785713Y-125852057D01*
X156357142Y-126756819D02*
X156261904Y-126709200D01*
X156261904Y-126709200D02*
X156214285Y-126613961D01*
X156214285Y-126613961D02*
X156214285Y-125756819D01*
X156880952Y-126756819D02*
X156785714Y-126709200D01*
X156785714Y-126709200D02*
X156738095Y-126661580D01*
X156738095Y-126661580D02*
X156690476Y-126566342D01*
X156690476Y-126566342D02*
X156690476Y-126280628D01*
X156690476Y-126280628D02*
X156738095Y-126185390D01*
X156738095Y-126185390D02*
X156785714Y-126137771D01*
X156785714Y-126137771D02*
X156880952Y-126090152D01*
X156880952Y-126090152D02*
X157023809Y-126090152D01*
X157023809Y-126090152D02*
X157119047Y-126137771D01*
X157119047Y-126137771D02*
X157166666Y-126185390D01*
X157166666Y-126185390D02*
X157214285Y-126280628D01*
X157214285Y-126280628D02*
X157214285Y-126566342D01*
X157214285Y-126566342D02*
X157166666Y-126661580D01*
X157166666Y-126661580D02*
X157119047Y-126709200D01*
X157119047Y-126709200D02*
X157023809Y-126756819D01*
X157023809Y-126756819D02*
X156880952Y-126756819D01*
X158071428Y-126709200D02*
X157976190Y-126756819D01*
X157976190Y-126756819D02*
X157785714Y-126756819D01*
X157785714Y-126756819D02*
X157690476Y-126709200D01*
X157690476Y-126709200D02*
X157642857Y-126661580D01*
X157642857Y-126661580D02*
X157595238Y-126566342D01*
X157595238Y-126566342D02*
X157595238Y-126280628D01*
X157595238Y-126280628D02*
X157642857Y-126185390D01*
X157642857Y-126185390D02*
X157690476Y-126137771D01*
X157690476Y-126137771D02*
X157785714Y-126090152D01*
X157785714Y-126090152D02*
X157976190Y-126090152D01*
X157976190Y-126090152D02*
X158071428Y-126137771D01*
X158500000Y-126756819D02*
X158500000Y-125756819D01*
X158595238Y-126375866D02*
X158880952Y-126756819D01*
X158880952Y-126090152D02*
X158500000Y-126471104D01*
X155076190Y-125479200D02*
X158971429Y-125479200D01*
X159833333Y-126756819D02*
X159261905Y-126756819D01*
X159547619Y-126756819D02*
X159547619Y-125756819D01*
X159547619Y-125756819D02*
X159452381Y-125899676D01*
X159452381Y-125899676D02*
X159357143Y-125994914D01*
X159357143Y-125994914D02*
X159261905Y-126042533D01*
X81226190Y-109204819D02*
X80750000Y-109204819D01*
X80750000Y-109204819D02*
X80750000Y-108204819D01*
X81702381Y-109204819D02*
X81607143Y-109157200D01*
X81607143Y-109157200D02*
X81559524Y-109109580D01*
X81559524Y-109109580D02*
X81511905Y-109014342D01*
X81511905Y-109014342D02*
X81511905Y-108728628D01*
X81511905Y-108728628D02*
X81559524Y-108633390D01*
X81559524Y-108633390D02*
X81607143Y-108585771D01*
X81607143Y-108585771D02*
X81702381Y-108538152D01*
X81702381Y-108538152D02*
X81845238Y-108538152D01*
X81845238Y-108538152D02*
X81940476Y-108585771D01*
X81940476Y-108585771D02*
X81988095Y-108633390D01*
X81988095Y-108633390D02*
X82035714Y-108728628D01*
X82035714Y-108728628D02*
X82035714Y-109014342D01*
X82035714Y-109014342D02*
X81988095Y-109109580D01*
X81988095Y-109109580D02*
X81940476Y-109157200D01*
X81940476Y-109157200D02*
X81845238Y-109204819D01*
X81845238Y-109204819D02*
X81702381Y-109204819D01*
X82892857Y-109204819D02*
X82892857Y-108681009D01*
X82892857Y-108681009D02*
X82845238Y-108585771D01*
X82845238Y-108585771D02*
X82750000Y-108538152D01*
X82750000Y-108538152D02*
X82559524Y-108538152D01*
X82559524Y-108538152D02*
X82464286Y-108585771D01*
X82892857Y-109157200D02*
X82797619Y-109204819D01*
X82797619Y-109204819D02*
X82559524Y-109204819D01*
X82559524Y-109204819D02*
X82464286Y-109157200D01*
X82464286Y-109157200D02*
X82416667Y-109061961D01*
X82416667Y-109061961D02*
X82416667Y-108966723D01*
X82416667Y-108966723D02*
X82464286Y-108871485D01*
X82464286Y-108871485D02*
X82559524Y-108823866D01*
X82559524Y-108823866D02*
X82797619Y-108823866D01*
X82797619Y-108823866D02*
X82892857Y-108776247D01*
X83797619Y-109204819D02*
X83797619Y-108204819D01*
X83797619Y-109157200D02*
X83702381Y-109204819D01*
X83702381Y-109204819D02*
X83511905Y-109204819D01*
X83511905Y-109204819D02*
X83416667Y-109157200D01*
X83416667Y-109157200D02*
X83369048Y-109109580D01*
X83369048Y-109109580D02*
X83321429Y-109014342D01*
X83321429Y-109014342D02*
X83321429Y-108728628D01*
X83321429Y-108728628D02*
X83369048Y-108633390D01*
X83369048Y-108633390D02*
X83416667Y-108585771D01*
X83416667Y-108585771D02*
X83511905Y-108538152D01*
X83511905Y-108538152D02*
X83702381Y-108538152D01*
X83702381Y-108538152D02*
X83797619Y-108585771D01*
X84178572Y-108204819D02*
X84845238Y-108204819D01*
X84845238Y-108204819D02*
X84178572Y-109204819D01*
X84178572Y-109204819D02*
X84845238Y-109204819D01*
X85226191Y-109204819D02*
X85226191Y-108204819D01*
X85226191Y-108681009D02*
X85797619Y-108681009D01*
X85797619Y-109204819D02*
X85797619Y-108204819D01*
X80611905Y-107927200D02*
X85935715Y-107927200D01*
X86797619Y-109204819D02*
X86226191Y-109204819D01*
X86511905Y-109204819D02*
X86511905Y-108204819D01*
X86511905Y-108204819D02*
X86416667Y-108347676D01*
X86416667Y-108347676D02*
X86321429Y-108442914D01*
X86321429Y-108442914D02*
X86226191Y-108490533D01*
X155074819Y-122856666D02*
X154598628Y-123189999D01*
X155074819Y-123428094D02*
X154074819Y-123428094D01*
X154074819Y-123428094D02*
X154074819Y-123047142D01*
X154074819Y-123047142D02*
X154122438Y-122951904D01*
X154122438Y-122951904D02*
X154170057Y-122904285D01*
X154170057Y-122904285D02*
X154265295Y-122856666D01*
X154265295Y-122856666D02*
X154408152Y-122856666D01*
X154408152Y-122856666D02*
X154503390Y-122904285D01*
X154503390Y-122904285D02*
X154551009Y-122951904D01*
X154551009Y-122951904D02*
X154598628Y-123047142D01*
X154598628Y-123047142D02*
X154598628Y-123428094D01*
X154074819Y-122523332D02*
X154074819Y-121856666D01*
X154074819Y-121856666D02*
X155074819Y-122285237D01*
X89109580Y-95166666D02*
X89157200Y-95214285D01*
X89157200Y-95214285D02*
X89204819Y-95357142D01*
X89204819Y-95357142D02*
X89204819Y-95452380D01*
X89204819Y-95452380D02*
X89157200Y-95595237D01*
X89157200Y-95595237D02*
X89061961Y-95690475D01*
X89061961Y-95690475D02*
X88966723Y-95738094D01*
X88966723Y-95738094D02*
X88776247Y-95785713D01*
X88776247Y-95785713D02*
X88633390Y-95785713D01*
X88633390Y-95785713D02*
X88442914Y-95738094D01*
X88442914Y-95738094D02*
X88347676Y-95690475D01*
X88347676Y-95690475D02*
X88252438Y-95595237D01*
X88252438Y-95595237D02*
X88204819Y-95452380D01*
X88204819Y-95452380D02*
X88204819Y-95357142D01*
X88204819Y-95357142D02*
X88252438Y-95214285D01*
X88252438Y-95214285D02*
X88300057Y-95166666D01*
X88204819Y-94833332D02*
X88204819Y-94214285D01*
X88204819Y-94214285D02*
X88585771Y-94547618D01*
X88585771Y-94547618D02*
X88585771Y-94404761D01*
X88585771Y-94404761D02*
X88633390Y-94309523D01*
X88633390Y-94309523D02*
X88681009Y-94261904D01*
X88681009Y-94261904D02*
X88776247Y-94214285D01*
X88776247Y-94214285D02*
X89014342Y-94214285D01*
X89014342Y-94214285D02*
X89109580Y-94261904D01*
X89109580Y-94261904D02*
X89157200Y-94309523D01*
X89157200Y-94309523D02*
X89204819Y-94404761D01*
X89204819Y-94404761D02*
X89204819Y-94690475D01*
X89204819Y-94690475D02*
X89157200Y-94785713D01*
X89157200Y-94785713D02*
X89109580Y-94833332D01*
X124809580Y-63341666D02*
X124857200Y-63389285D01*
X124857200Y-63389285D02*
X124904819Y-63532142D01*
X124904819Y-63532142D02*
X124904819Y-63627380D01*
X124904819Y-63627380D02*
X124857200Y-63770237D01*
X124857200Y-63770237D02*
X124761961Y-63865475D01*
X124761961Y-63865475D02*
X124666723Y-63913094D01*
X124666723Y-63913094D02*
X124476247Y-63960713D01*
X124476247Y-63960713D02*
X124333390Y-63960713D01*
X124333390Y-63960713D02*
X124142914Y-63913094D01*
X124142914Y-63913094D02*
X124047676Y-63865475D01*
X124047676Y-63865475D02*
X123952438Y-63770237D01*
X123952438Y-63770237D02*
X123904819Y-63627380D01*
X123904819Y-63627380D02*
X123904819Y-63532142D01*
X123904819Y-63532142D02*
X123952438Y-63389285D01*
X123952438Y-63389285D02*
X124000057Y-63341666D01*
X124904819Y-62865475D02*
X124904819Y-62674999D01*
X124904819Y-62674999D02*
X124857200Y-62579761D01*
X124857200Y-62579761D02*
X124809580Y-62532142D01*
X124809580Y-62532142D02*
X124666723Y-62436904D01*
X124666723Y-62436904D02*
X124476247Y-62389285D01*
X124476247Y-62389285D02*
X124095295Y-62389285D01*
X124095295Y-62389285D02*
X124000057Y-62436904D01*
X124000057Y-62436904D02*
X123952438Y-62484523D01*
X123952438Y-62484523D02*
X123904819Y-62579761D01*
X123904819Y-62579761D02*
X123904819Y-62770237D01*
X123904819Y-62770237D02*
X123952438Y-62865475D01*
X123952438Y-62865475D02*
X124000057Y-62913094D01*
X124000057Y-62913094D02*
X124095295Y-62960713D01*
X124095295Y-62960713D02*
X124333390Y-62960713D01*
X124333390Y-62960713D02*
X124428628Y-62913094D01*
X124428628Y-62913094D02*
X124476247Y-62865475D01*
X124476247Y-62865475D02*
X124523866Y-62770237D01*
X124523866Y-62770237D02*
X124523866Y-62579761D01*
X124523866Y-62579761D02*
X124476247Y-62484523D01*
X124476247Y-62484523D02*
X124428628Y-62436904D01*
X124428628Y-62436904D02*
X124333390Y-62389285D01*
X89109580Y-106666666D02*
X89157200Y-106714285D01*
X89157200Y-106714285D02*
X89204819Y-106857142D01*
X89204819Y-106857142D02*
X89204819Y-106952380D01*
X89204819Y-106952380D02*
X89157200Y-107095237D01*
X89157200Y-107095237D02*
X89061961Y-107190475D01*
X89061961Y-107190475D02*
X88966723Y-107238094D01*
X88966723Y-107238094D02*
X88776247Y-107285713D01*
X88776247Y-107285713D02*
X88633390Y-107285713D01*
X88633390Y-107285713D02*
X88442914Y-107238094D01*
X88442914Y-107238094D02*
X88347676Y-107190475D01*
X88347676Y-107190475D02*
X88252438Y-107095237D01*
X88252438Y-107095237D02*
X88204819Y-106952380D01*
X88204819Y-106952380D02*
X88204819Y-106857142D01*
X88204819Y-106857142D02*
X88252438Y-106714285D01*
X88252438Y-106714285D02*
X88300057Y-106666666D01*
X89204819Y-105714285D02*
X89204819Y-106285713D01*
X89204819Y-105999999D02*
X88204819Y-105999999D01*
X88204819Y-105999999D02*
X88347676Y-106095237D01*
X88347676Y-106095237D02*
X88442914Y-106190475D01*
X88442914Y-106190475D02*
X88490533Y-106285713D01*
X113178095Y-56954819D02*
X113178095Y-57764342D01*
X113178095Y-57764342D02*
X113225714Y-57859580D01*
X113225714Y-57859580D02*
X113273333Y-57907200D01*
X113273333Y-57907200D02*
X113368571Y-57954819D01*
X113368571Y-57954819D02*
X113559047Y-57954819D01*
X113559047Y-57954819D02*
X113654285Y-57907200D01*
X113654285Y-57907200D02*
X113701904Y-57859580D01*
X113701904Y-57859580D02*
X113749523Y-57764342D01*
X113749523Y-57764342D02*
X113749523Y-56954819D01*
X114178095Y-57050057D02*
X114225714Y-57002438D01*
X114225714Y-57002438D02*
X114320952Y-56954819D01*
X114320952Y-56954819D02*
X114559047Y-56954819D01*
X114559047Y-56954819D02*
X114654285Y-57002438D01*
X114654285Y-57002438D02*
X114701904Y-57050057D01*
X114701904Y-57050057D02*
X114749523Y-57145295D01*
X114749523Y-57145295D02*
X114749523Y-57240533D01*
X114749523Y-57240533D02*
X114701904Y-57383390D01*
X114701904Y-57383390D02*
X114130476Y-57954819D01*
X114130476Y-57954819D02*
X114749523Y-57954819D01*
X83797618Y-100454819D02*
X83464285Y-99978628D01*
X83226190Y-100454819D02*
X83226190Y-99454819D01*
X83226190Y-99454819D02*
X83607142Y-99454819D01*
X83607142Y-99454819D02*
X83702380Y-99502438D01*
X83702380Y-99502438D02*
X83749999Y-99550057D01*
X83749999Y-99550057D02*
X83797618Y-99645295D01*
X83797618Y-99645295D02*
X83797618Y-99788152D01*
X83797618Y-99788152D02*
X83749999Y-99883390D01*
X83749999Y-99883390D02*
X83702380Y-99931009D01*
X83702380Y-99931009D02*
X83607142Y-99978628D01*
X83607142Y-99978628D02*
X83226190Y-99978628D01*
X84607142Y-100407200D02*
X84511904Y-100454819D01*
X84511904Y-100454819D02*
X84321428Y-100454819D01*
X84321428Y-100454819D02*
X84226190Y-100407200D01*
X84226190Y-100407200D02*
X84178571Y-100311961D01*
X84178571Y-100311961D02*
X84178571Y-99931009D01*
X84178571Y-99931009D02*
X84226190Y-99835771D01*
X84226190Y-99835771D02*
X84321428Y-99788152D01*
X84321428Y-99788152D02*
X84511904Y-99788152D01*
X84511904Y-99788152D02*
X84607142Y-99835771D01*
X84607142Y-99835771D02*
X84654761Y-99931009D01*
X84654761Y-99931009D02*
X84654761Y-100026247D01*
X84654761Y-100026247D02*
X84178571Y-100121485D01*
X85511904Y-100454819D02*
X85511904Y-99931009D01*
X85511904Y-99931009D02*
X85464285Y-99835771D01*
X85464285Y-99835771D02*
X85369047Y-99788152D01*
X85369047Y-99788152D02*
X85178571Y-99788152D01*
X85178571Y-99788152D02*
X85083333Y-99835771D01*
X85511904Y-100407200D02*
X85416666Y-100454819D01*
X85416666Y-100454819D02*
X85178571Y-100454819D01*
X85178571Y-100454819D02*
X85083333Y-100407200D01*
X85083333Y-100407200D02*
X85035714Y-100311961D01*
X85035714Y-100311961D02*
X85035714Y-100216723D01*
X85035714Y-100216723D02*
X85083333Y-100121485D01*
X85083333Y-100121485D02*
X85178571Y-100073866D01*
X85178571Y-100073866D02*
X85416666Y-100073866D01*
X85416666Y-100073866D02*
X85511904Y-100026247D01*
X86416666Y-100454819D02*
X86416666Y-99454819D01*
X86416666Y-100407200D02*
X86321428Y-100454819D01*
X86321428Y-100454819D02*
X86130952Y-100454819D01*
X86130952Y-100454819D02*
X86035714Y-100407200D01*
X86035714Y-100407200D02*
X85988095Y-100359580D01*
X85988095Y-100359580D02*
X85940476Y-100264342D01*
X85940476Y-100264342D02*
X85940476Y-99978628D01*
X85940476Y-99978628D02*
X85988095Y-99883390D01*
X85988095Y-99883390D02*
X86035714Y-99835771D01*
X86035714Y-99835771D02*
X86130952Y-99788152D01*
X86130952Y-99788152D02*
X86321428Y-99788152D01*
X86321428Y-99788152D02*
X86416666Y-99835771D01*
X87083333Y-99978628D02*
X87083333Y-100454819D01*
X86750000Y-99454819D02*
X87083333Y-99978628D01*
X87083333Y-99978628D02*
X87416666Y-99454819D01*
X87750000Y-100454819D02*
X87750000Y-99454819D01*
X87750000Y-99931009D02*
X88321428Y-99931009D01*
X88321428Y-100454819D02*
X88321428Y-99454819D01*
X83088095Y-99177200D02*
X88459524Y-99177200D01*
X89321428Y-100454819D02*
X88750000Y-100454819D01*
X89035714Y-100454819D02*
X89035714Y-99454819D01*
X89035714Y-99454819D02*
X88940476Y-99597676D01*
X88940476Y-99597676D02*
X88845238Y-99692914D01*
X88845238Y-99692914D02*
X88750000Y-99740533D01*
X124784580Y-77867857D02*
X124832200Y-77915476D01*
X124832200Y-77915476D02*
X124879819Y-78058333D01*
X124879819Y-78058333D02*
X124879819Y-78153571D01*
X124879819Y-78153571D02*
X124832200Y-78296428D01*
X124832200Y-78296428D02*
X124736961Y-78391666D01*
X124736961Y-78391666D02*
X124641723Y-78439285D01*
X124641723Y-78439285D02*
X124451247Y-78486904D01*
X124451247Y-78486904D02*
X124308390Y-78486904D01*
X124308390Y-78486904D02*
X124117914Y-78439285D01*
X124117914Y-78439285D02*
X124022676Y-78391666D01*
X124022676Y-78391666D02*
X123927438Y-78296428D01*
X123927438Y-78296428D02*
X123879819Y-78153571D01*
X123879819Y-78153571D02*
X123879819Y-78058333D01*
X123879819Y-78058333D02*
X123927438Y-77915476D01*
X123927438Y-77915476D02*
X123975057Y-77867857D01*
X124879819Y-76915476D02*
X124879819Y-77486904D01*
X124879819Y-77201190D02*
X123879819Y-77201190D01*
X123879819Y-77201190D02*
X124022676Y-77296428D01*
X124022676Y-77296428D02*
X124117914Y-77391666D01*
X124117914Y-77391666D02*
X124165533Y-77486904D01*
X123879819Y-76582142D02*
X123879819Y-75963095D01*
X123879819Y-75963095D02*
X124260771Y-76296428D01*
X124260771Y-76296428D02*
X124260771Y-76153571D01*
X124260771Y-76153571D02*
X124308390Y-76058333D01*
X124308390Y-76058333D02*
X124356009Y-76010714D01*
X124356009Y-76010714D02*
X124451247Y-75963095D01*
X124451247Y-75963095D02*
X124689342Y-75963095D01*
X124689342Y-75963095D02*
X124784580Y-76010714D01*
X124784580Y-76010714D02*
X124832200Y-76058333D01*
X124832200Y-76058333D02*
X124879819Y-76153571D01*
X124879819Y-76153571D02*
X124879819Y-76439285D01*
X124879819Y-76439285D02*
X124832200Y-76534523D01*
X124832200Y-76534523D02*
X124784580Y-76582142D01*
X124095237Y-57704819D02*
X123619047Y-57704819D01*
X123619047Y-57704819D02*
X123619047Y-56704819D01*
X124571428Y-57704819D02*
X124476190Y-57657200D01*
X124476190Y-57657200D02*
X124428571Y-57609580D01*
X124428571Y-57609580D02*
X124380952Y-57514342D01*
X124380952Y-57514342D02*
X124380952Y-57228628D01*
X124380952Y-57228628D02*
X124428571Y-57133390D01*
X124428571Y-57133390D02*
X124476190Y-57085771D01*
X124476190Y-57085771D02*
X124571428Y-57038152D01*
X124571428Y-57038152D02*
X124714285Y-57038152D01*
X124714285Y-57038152D02*
X124809523Y-57085771D01*
X124809523Y-57085771D02*
X124857142Y-57133390D01*
X124857142Y-57133390D02*
X124904761Y-57228628D01*
X124904761Y-57228628D02*
X124904761Y-57514342D01*
X124904761Y-57514342D02*
X124857142Y-57609580D01*
X124857142Y-57609580D02*
X124809523Y-57657200D01*
X124809523Y-57657200D02*
X124714285Y-57704819D01*
X124714285Y-57704819D02*
X124571428Y-57704819D01*
X125761904Y-57704819D02*
X125761904Y-57181009D01*
X125761904Y-57181009D02*
X125714285Y-57085771D01*
X125714285Y-57085771D02*
X125619047Y-57038152D01*
X125619047Y-57038152D02*
X125428571Y-57038152D01*
X125428571Y-57038152D02*
X125333333Y-57085771D01*
X125761904Y-57657200D02*
X125666666Y-57704819D01*
X125666666Y-57704819D02*
X125428571Y-57704819D01*
X125428571Y-57704819D02*
X125333333Y-57657200D01*
X125333333Y-57657200D02*
X125285714Y-57561961D01*
X125285714Y-57561961D02*
X125285714Y-57466723D01*
X125285714Y-57466723D02*
X125333333Y-57371485D01*
X125333333Y-57371485D02*
X125428571Y-57323866D01*
X125428571Y-57323866D02*
X125666666Y-57323866D01*
X125666666Y-57323866D02*
X125761904Y-57276247D01*
X126666666Y-57704819D02*
X126666666Y-56704819D01*
X126666666Y-57657200D02*
X126571428Y-57704819D01*
X126571428Y-57704819D02*
X126380952Y-57704819D01*
X126380952Y-57704819D02*
X126285714Y-57657200D01*
X126285714Y-57657200D02*
X126238095Y-57609580D01*
X126238095Y-57609580D02*
X126190476Y-57514342D01*
X126190476Y-57514342D02*
X126190476Y-57228628D01*
X126190476Y-57228628D02*
X126238095Y-57133390D01*
X126238095Y-57133390D02*
X126285714Y-57085771D01*
X126285714Y-57085771D02*
X126380952Y-57038152D01*
X126380952Y-57038152D02*
X126571428Y-57038152D01*
X126571428Y-57038152D02*
X126666666Y-57085771D01*
X127047619Y-56704819D02*
X127714285Y-57704819D01*
X127714285Y-56704819D02*
X127047619Y-57704819D01*
X128571428Y-57704819D02*
X128095238Y-57704819D01*
X128095238Y-57704819D02*
X128095238Y-56704819D01*
X123480952Y-56427200D02*
X128566667Y-56427200D01*
X129428571Y-57704819D02*
X128857143Y-57704819D01*
X129142857Y-57704819D02*
X129142857Y-56704819D01*
X129142857Y-56704819D02*
X129047619Y-56847676D01*
X129047619Y-56847676D02*
X128952381Y-56942914D01*
X128952381Y-56942914D02*
X128857143Y-56990533D01*
X125957142Y-126239580D02*
X125909523Y-126287200D01*
X125909523Y-126287200D02*
X125766666Y-126334819D01*
X125766666Y-126334819D02*
X125671428Y-126334819D01*
X125671428Y-126334819D02*
X125528571Y-126287200D01*
X125528571Y-126287200D02*
X125433333Y-126191961D01*
X125433333Y-126191961D02*
X125385714Y-126096723D01*
X125385714Y-126096723D02*
X125338095Y-125906247D01*
X125338095Y-125906247D02*
X125338095Y-125763390D01*
X125338095Y-125763390D02*
X125385714Y-125572914D01*
X125385714Y-125572914D02*
X125433333Y-125477676D01*
X125433333Y-125477676D02*
X125528571Y-125382438D01*
X125528571Y-125382438D02*
X125671428Y-125334819D01*
X125671428Y-125334819D02*
X125766666Y-125334819D01*
X125766666Y-125334819D02*
X125909523Y-125382438D01*
X125909523Y-125382438D02*
X125957142Y-125430057D01*
X126909523Y-126334819D02*
X126338095Y-126334819D01*
X126623809Y-126334819D02*
X126623809Y-125334819D01*
X126623809Y-125334819D02*
X126528571Y-125477676D01*
X126528571Y-125477676D02*
X126433333Y-125572914D01*
X126433333Y-125572914D02*
X126338095Y-125620533D01*
X127290476Y-125430057D02*
X127338095Y-125382438D01*
X127338095Y-125382438D02*
X127433333Y-125334819D01*
X127433333Y-125334819D02*
X127671428Y-125334819D01*
X127671428Y-125334819D02*
X127766666Y-125382438D01*
X127766666Y-125382438D02*
X127814285Y-125430057D01*
X127814285Y-125430057D02*
X127861904Y-125525295D01*
X127861904Y-125525295D02*
X127861904Y-125620533D01*
X127861904Y-125620533D02*
X127814285Y-125763390D01*
X127814285Y-125763390D02*
X127242857Y-126334819D01*
X127242857Y-126334819D02*
X127861904Y-126334819D01*
X129619819Y-66184285D02*
X130619819Y-65517619D01*
X129619819Y-65517619D02*
X130619819Y-66184285D01*
X130619819Y-64660476D02*
X130619819Y-65136666D01*
X130619819Y-65136666D02*
X129619819Y-65136666D01*
X130619819Y-63803333D02*
X130619819Y-64374761D01*
X130619819Y-64089047D02*
X129619819Y-64089047D01*
X129619819Y-64089047D02*
X129762676Y-64184285D01*
X129762676Y-64184285D02*
X129857914Y-64279523D01*
X129857914Y-64279523D02*
X129905533Y-64374761D01*
X129619819Y-93970237D02*
X130429342Y-93970237D01*
X130429342Y-93970237D02*
X130524580Y-93922618D01*
X130524580Y-93922618D02*
X130572200Y-93874999D01*
X130572200Y-93874999D02*
X130619819Y-93779761D01*
X130619819Y-93779761D02*
X130619819Y-93589285D01*
X130619819Y-93589285D02*
X130572200Y-93494047D01*
X130572200Y-93494047D02*
X130524580Y-93446428D01*
X130524580Y-93446428D02*
X130429342Y-93398809D01*
X130429342Y-93398809D02*
X129619819Y-93398809D01*
X130048390Y-92779761D02*
X130000771Y-92874999D01*
X130000771Y-92874999D02*
X129953152Y-92922618D01*
X129953152Y-92922618D02*
X129857914Y-92970237D01*
X129857914Y-92970237D02*
X129810295Y-92970237D01*
X129810295Y-92970237D02*
X129715057Y-92922618D01*
X129715057Y-92922618D02*
X129667438Y-92874999D01*
X129667438Y-92874999D02*
X129619819Y-92779761D01*
X129619819Y-92779761D02*
X129619819Y-92589285D01*
X129619819Y-92589285D02*
X129667438Y-92494047D01*
X129667438Y-92494047D02*
X129715057Y-92446428D01*
X129715057Y-92446428D02*
X129810295Y-92398809D01*
X129810295Y-92398809D02*
X129857914Y-92398809D01*
X129857914Y-92398809D02*
X129953152Y-92446428D01*
X129953152Y-92446428D02*
X130000771Y-92494047D01*
X130000771Y-92494047D02*
X130048390Y-92589285D01*
X130048390Y-92589285D02*
X130048390Y-92779761D01*
X130048390Y-92779761D02*
X130096009Y-92874999D01*
X130096009Y-92874999D02*
X130143628Y-92922618D01*
X130143628Y-92922618D02*
X130238866Y-92970237D01*
X130238866Y-92970237D02*
X130429342Y-92970237D01*
X130429342Y-92970237D02*
X130524580Y-92922618D01*
X130524580Y-92922618D02*
X130572200Y-92874999D01*
X130572200Y-92874999D02*
X130619819Y-92779761D01*
X130619819Y-92779761D02*
X130619819Y-92589285D01*
X130619819Y-92589285D02*
X130572200Y-92494047D01*
X130572200Y-92494047D02*
X130524580Y-92446428D01*
X130524580Y-92446428D02*
X130429342Y-92398809D01*
X130429342Y-92398809D02*
X130238866Y-92398809D01*
X130238866Y-92398809D02*
X130143628Y-92446428D01*
X130143628Y-92446428D02*
X130096009Y-92494047D01*
X130096009Y-92494047D02*
X130048390Y-92589285D01*
X138838095Y-128654819D02*
X138838095Y-129464342D01*
X138838095Y-129464342D02*
X138885714Y-129559580D01*
X138885714Y-129559580D02*
X138933333Y-129607200D01*
X138933333Y-129607200D02*
X139028571Y-129654819D01*
X139028571Y-129654819D02*
X139219047Y-129654819D01*
X139219047Y-129654819D02*
X139314285Y-129607200D01*
X139314285Y-129607200D02*
X139361904Y-129559580D01*
X139361904Y-129559580D02*
X139409523Y-129464342D01*
X139409523Y-129464342D02*
X139409523Y-128654819D01*
X140314285Y-128988152D02*
X140314285Y-129654819D01*
X140076190Y-128607200D02*
X139838095Y-129321485D01*
X139838095Y-129321485D02*
X140457142Y-129321485D01*
X124909580Y-92092857D02*
X124957200Y-92140476D01*
X124957200Y-92140476D02*
X125004819Y-92283333D01*
X125004819Y-92283333D02*
X125004819Y-92378571D01*
X125004819Y-92378571D02*
X124957200Y-92521428D01*
X124957200Y-92521428D02*
X124861961Y-92616666D01*
X124861961Y-92616666D02*
X124766723Y-92664285D01*
X124766723Y-92664285D02*
X124576247Y-92711904D01*
X124576247Y-92711904D02*
X124433390Y-92711904D01*
X124433390Y-92711904D02*
X124242914Y-92664285D01*
X124242914Y-92664285D02*
X124147676Y-92616666D01*
X124147676Y-92616666D02*
X124052438Y-92521428D01*
X124052438Y-92521428D02*
X124004819Y-92378571D01*
X124004819Y-92378571D02*
X124004819Y-92283333D01*
X124004819Y-92283333D02*
X124052438Y-92140476D01*
X124052438Y-92140476D02*
X124100057Y-92092857D01*
X125004819Y-91140476D02*
X125004819Y-91711904D01*
X125004819Y-91426190D02*
X124004819Y-91426190D01*
X124004819Y-91426190D02*
X124147676Y-91521428D01*
X124147676Y-91521428D02*
X124242914Y-91616666D01*
X124242914Y-91616666D02*
X124290533Y-91711904D01*
X124004819Y-90235714D02*
X124004819Y-90711904D01*
X124004819Y-90711904D02*
X124481009Y-90759523D01*
X124481009Y-90759523D02*
X124433390Y-90711904D01*
X124433390Y-90711904D02*
X124385771Y-90616666D01*
X124385771Y-90616666D02*
X124385771Y-90378571D01*
X124385771Y-90378571D02*
X124433390Y-90283333D01*
X124433390Y-90283333D02*
X124481009Y-90235714D01*
X124481009Y-90235714D02*
X124576247Y-90188095D01*
X124576247Y-90188095D02*
X124814342Y-90188095D01*
X124814342Y-90188095D02*
X124909580Y-90235714D01*
X124909580Y-90235714D02*
X124957200Y-90283333D01*
X124957200Y-90283333D02*
X125004819Y-90378571D01*
X125004819Y-90378571D02*
X125004819Y-90616666D01*
X125004819Y-90616666D02*
X124957200Y-90711904D01*
X124957200Y-90711904D02*
X124909580Y-90759523D01*
X88658095Y-56954819D02*
X88658095Y-57764342D01*
X88658095Y-57764342D02*
X88705714Y-57859580D01*
X88705714Y-57859580D02*
X88753333Y-57907200D01*
X88753333Y-57907200D02*
X88848571Y-57954819D01*
X88848571Y-57954819D02*
X89039047Y-57954819D01*
X89039047Y-57954819D02*
X89134285Y-57907200D01*
X89134285Y-57907200D02*
X89181904Y-57859580D01*
X89181904Y-57859580D02*
X89229523Y-57764342D01*
X89229523Y-57764342D02*
X89229523Y-56954819D01*
X90229523Y-57954819D02*
X89658095Y-57954819D01*
X89943809Y-57954819D02*
X89943809Y-56954819D01*
X89943809Y-56954819D02*
X89848571Y-57097676D01*
X89848571Y-57097676D02*
X89753333Y-57192914D01*
X89753333Y-57192914D02*
X89658095Y-57240533D01*
X121978628Y-85630952D02*
X122454819Y-85630952D01*
X121454819Y-85964285D02*
X121978628Y-85630952D01*
X121978628Y-85630952D02*
X121454819Y-85297619D01*
X122454819Y-84488095D02*
X122454819Y-84964285D01*
X122454819Y-84964285D02*
X121454819Y-84964285D01*
X122454819Y-83630952D02*
X122454819Y-84202380D01*
X122454819Y-83916666D02*
X121454819Y-83916666D01*
X121454819Y-83916666D02*
X121597676Y-84011904D01*
X121597676Y-84011904D02*
X121692914Y-84107142D01*
X121692914Y-84107142D02*
X121740533Y-84202380D01*
X85273809Y-44704819D02*
X84797619Y-44704819D01*
X84797619Y-44704819D02*
X84797619Y-43704819D01*
X85750000Y-44704819D02*
X85654762Y-44657200D01*
X85654762Y-44657200D02*
X85607143Y-44609580D01*
X85607143Y-44609580D02*
X85559524Y-44514342D01*
X85559524Y-44514342D02*
X85559524Y-44228628D01*
X85559524Y-44228628D02*
X85607143Y-44133390D01*
X85607143Y-44133390D02*
X85654762Y-44085771D01*
X85654762Y-44085771D02*
X85750000Y-44038152D01*
X85750000Y-44038152D02*
X85892857Y-44038152D01*
X85892857Y-44038152D02*
X85988095Y-44085771D01*
X85988095Y-44085771D02*
X86035714Y-44133390D01*
X86035714Y-44133390D02*
X86083333Y-44228628D01*
X86083333Y-44228628D02*
X86083333Y-44514342D01*
X86083333Y-44514342D02*
X86035714Y-44609580D01*
X86035714Y-44609580D02*
X85988095Y-44657200D01*
X85988095Y-44657200D02*
X85892857Y-44704819D01*
X85892857Y-44704819D02*
X85750000Y-44704819D01*
X86940476Y-44704819D02*
X86940476Y-44181009D01*
X86940476Y-44181009D02*
X86892857Y-44085771D01*
X86892857Y-44085771D02*
X86797619Y-44038152D01*
X86797619Y-44038152D02*
X86607143Y-44038152D01*
X86607143Y-44038152D02*
X86511905Y-44085771D01*
X86940476Y-44657200D02*
X86845238Y-44704819D01*
X86845238Y-44704819D02*
X86607143Y-44704819D01*
X86607143Y-44704819D02*
X86511905Y-44657200D01*
X86511905Y-44657200D02*
X86464286Y-44561961D01*
X86464286Y-44561961D02*
X86464286Y-44466723D01*
X86464286Y-44466723D02*
X86511905Y-44371485D01*
X86511905Y-44371485D02*
X86607143Y-44323866D01*
X86607143Y-44323866D02*
X86845238Y-44323866D01*
X86845238Y-44323866D02*
X86940476Y-44276247D01*
X87845238Y-44704819D02*
X87845238Y-43704819D01*
X87845238Y-44657200D02*
X87750000Y-44704819D01*
X87750000Y-44704819D02*
X87559524Y-44704819D01*
X87559524Y-44704819D02*
X87464286Y-44657200D01*
X87464286Y-44657200D02*
X87416667Y-44609580D01*
X87416667Y-44609580D02*
X87369048Y-44514342D01*
X87369048Y-44514342D02*
X87369048Y-44228628D01*
X87369048Y-44228628D02*
X87416667Y-44133390D01*
X87416667Y-44133390D02*
X87464286Y-44085771D01*
X87464286Y-44085771D02*
X87559524Y-44038152D01*
X87559524Y-44038152D02*
X87750000Y-44038152D01*
X87750000Y-44038152D02*
X87845238Y-44085771D01*
X88511905Y-44228628D02*
X88511905Y-44704819D01*
X88178572Y-43704819D02*
X88511905Y-44228628D01*
X88511905Y-44228628D02*
X88845238Y-43704819D01*
X89178572Y-44704819D02*
X89178572Y-43704819D01*
X89178572Y-44181009D02*
X89750000Y-44181009D01*
X89750000Y-44704819D02*
X89750000Y-43704819D01*
X84659524Y-43427200D02*
X89888096Y-43427200D01*
X90750000Y-44704819D02*
X90178572Y-44704819D01*
X90464286Y-44704819D02*
X90464286Y-43704819D01*
X90464286Y-43704819D02*
X90369048Y-43847676D01*
X90369048Y-43847676D02*
X90273810Y-43942914D01*
X90273810Y-43942914D02*
X90178572Y-43990533D01*
X83166666Y-92204819D02*
X82833333Y-91728628D01*
X82595238Y-92204819D02*
X82595238Y-91204819D01*
X82595238Y-91204819D02*
X82976190Y-91204819D01*
X82976190Y-91204819D02*
X83071428Y-91252438D01*
X83071428Y-91252438D02*
X83119047Y-91300057D01*
X83119047Y-91300057D02*
X83166666Y-91395295D01*
X83166666Y-91395295D02*
X83166666Y-91538152D01*
X83166666Y-91538152D02*
X83119047Y-91633390D01*
X83119047Y-91633390D02*
X83071428Y-91681009D01*
X83071428Y-91681009D02*
X82976190Y-91728628D01*
X82976190Y-91728628D02*
X82595238Y-91728628D01*
X83976190Y-92157200D02*
X83880952Y-92204819D01*
X83880952Y-92204819D02*
X83690476Y-92204819D01*
X83690476Y-92204819D02*
X83595238Y-92157200D01*
X83595238Y-92157200D02*
X83547619Y-92061961D01*
X83547619Y-92061961D02*
X83547619Y-91681009D01*
X83547619Y-91681009D02*
X83595238Y-91585771D01*
X83595238Y-91585771D02*
X83690476Y-91538152D01*
X83690476Y-91538152D02*
X83880952Y-91538152D01*
X83880952Y-91538152D02*
X83976190Y-91585771D01*
X83976190Y-91585771D02*
X84023809Y-91681009D01*
X84023809Y-91681009D02*
X84023809Y-91776247D01*
X84023809Y-91776247D02*
X83547619Y-91871485D01*
X84880952Y-92204819D02*
X84880952Y-91681009D01*
X84880952Y-91681009D02*
X84833333Y-91585771D01*
X84833333Y-91585771D02*
X84738095Y-91538152D01*
X84738095Y-91538152D02*
X84547619Y-91538152D01*
X84547619Y-91538152D02*
X84452381Y-91585771D01*
X84880952Y-92157200D02*
X84785714Y-92204819D01*
X84785714Y-92204819D02*
X84547619Y-92204819D01*
X84547619Y-92204819D02*
X84452381Y-92157200D01*
X84452381Y-92157200D02*
X84404762Y-92061961D01*
X84404762Y-92061961D02*
X84404762Y-91966723D01*
X84404762Y-91966723D02*
X84452381Y-91871485D01*
X84452381Y-91871485D02*
X84547619Y-91823866D01*
X84547619Y-91823866D02*
X84785714Y-91823866D01*
X84785714Y-91823866D02*
X84880952Y-91776247D01*
X85785714Y-92204819D02*
X85785714Y-91204819D01*
X85785714Y-92157200D02*
X85690476Y-92204819D01*
X85690476Y-92204819D02*
X85500000Y-92204819D01*
X85500000Y-92204819D02*
X85404762Y-92157200D01*
X85404762Y-92157200D02*
X85357143Y-92109580D01*
X85357143Y-92109580D02*
X85309524Y-92014342D01*
X85309524Y-92014342D02*
X85309524Y-91728628D01*
X85309524Y-91728628D02*
X85357143Y-91633390D01*
X85357143Y-91633390D02*
X85404762Y-91585771D01*
X85404762Y-91585771D02*
X85500000Y-91538152D01*
X85500000Y-91538152D02*
X85690476Y-91538152D01*
X85690476Y-91538152D02*
X85785714Y-91585771D01*
X86452381Y-91728628D02*
X86452381Y-92204819D01*
X86119048Y-91204819D02*
X86452381Y-91728628D01*
X86452381Y-91728628D02*
X86785714Y-91204819D01*
X87595238Y-92204819D02*
X87119048Y-92204819D01*
X87119048Y-92204819D02*
X87119048Y-91204819D01*
X82457143Y-90927200D02*
X87590477Y-90927200D01*
X88452381Y-92204819D02*
X87880953Y-92204819D01*
X88166667Y-92204819D02*
X88166667Y-91204819D01*
X88166667Y-91204819D02*
X88071429Y-91347676D01*
X88071429Y-91347676D02*
X87976191Y-91442914D01*
X87976191Y-91442914D02*
X87880953Y-91490533D01*
X82749999Y-83454819D02*
X82416666Y-82978628D01*
X82178571Y-83454819D02*
X82178571Y-82454819D01*
X82178571Y-82454819D02*
X82559523Y-82454819D01*
X82559523Y-82454819D02*
X82654761Y-82502438D01*
X82654761Y-82502438D02*
X82702380Y-82550057D01*
X82702380Y-82550057D02*
X82749999Y-82645295D01*
X82749999Y-82645295D02*
X82749999Y-82788152D01*
X82749999Y-82788152D02*
X82702380Y-82883390D01*
X82702380Y-82883390D02*
X82654761Y-82931009D01*
X82654761Y-82931009D02*
X82559523Y-82978628D01*
X82559523Y-82978628D02*
X82178571Y-82978628D01*
X83559523Y-83407200D02*
X83464285Y-83454819D01*
X83464285Y-83454819D02*
X83273809Y-83454819D01*
X83273809Y-83454819D02*
X83178571Y-83407200D01*
X83178571Y-83407200D02*
X83130952Y-83311961D01*
X83130952Y-83311961D02*
X83130952Y-82931009D01*
X83130952Y-82931009D02*
X83178571Y-82835771D01*
X83178571Y-82835771D02*
X83273809Y-82788152D01*
X83273809Y-82788152D02*
X83464285Y-82788152D01*
X83464285Y-82788152D02*
X83559523Y-82835771D01*
X83559523Y-82835771D02*
X83607142Y-82931009D01*
X83607142Y-82931009D02*
X83607142Y-83026247D01*
X83607142Y-83026247D02*
X83130952Y-83121485D01*
X84464285Y-83454819D02*
X84464285Y-82931009D01*
X84464285Y-82931009D02*
X84416666Y-82835771D01*
X84416666Y-82835771D02*
X84321428Y-82788152D01*
X84321428Y-82788152D02*
X84130952Y-82788152D01*
X84130952Y-82788152D02*
X84035714Y-82835771D01*
X84464285Y-83407200D02*
X84369047Y-83454819D01*
X84369047Y-83454819D02*
X84130952Y-83454819D01*
X84130952Y-83454819D02*
X84035714Y-83407200D01*
X84035714Y-83407200D02*
X83988095Y-83311961D01*
X83988095Y-83311961D02*
X83988095Y-83216723D01*
X83988095Y-83216723D02*
X84035714Y-83121485D01*
X84035714Y-83121485D02*
X84130952Y-83073866D01*
X84130952Y-83073866D02*
X84369047Y-83073866D01*
X84369047Y-83073866D02*
X84464285Y-83026247D01*
X85369047Y-83454819D02*
X85369047Y-82454819D01*
X85369047Y-83407200D02*
X85273809Y-83454819D01*
X85273809Y-83454819D02*
X85083333Y-83454819D01*
X85083333Y-83454819D02*
X84988095Y-83407200D01*
X84988095Y-83407200D02*
X84940476Y-83359580D01*
X84940476Y-83359580D02*
X84892857Y-83264342D01*
X84892857Y-83264342D02*
X84892857Y-82978628D01*
X84892857Y-82978628D02*
X84940476Y-82883390D01*
X84940476Y-82883390D02*
X84988095Y-82835771D01*
X84988095Y-82835771D02*
X85083333Y-82788152D01*
X85083333Y-82788152D02*
X85273809Y-82788152D01*
X85273809Y-82788152D02*
X85369047Y-82835771D01*
X85750000Y-82454819D02*
X86416666Y-83454819D01*
X86416666Y-82454819D02*
X85750000Y-83454819D01*
X86797619Y-83454819D02*
X86797619Y-82454819D01*
X86797619Y-82931009D02*
X87369047Y-82931009D01*
X87369047Y-83454819D02*
X87369047Y-82454819D01*
X82040476Y-82177200D02*
X87507143Y-82177200D01*
X88369047Y-83454819D02*
X87797619Y-83454819D01*
X88083333Y-83454819D02*
X88083333Y-82454819D01*
X88083333Y-82454819D02*
X87988095Y-82597676D01*
X87988095Y-82597676D02*
X87892857Y-82692914D01*
X87892857Y-82692914D02*
X87797619Y-82740533D01*
X124773809Y-100204819D02*
X124440476Y-99728628D01*
X124202381Y-100204819D02*
X124202381Y-99204819D01*
X124202381Y-99204819D02*
X124583333Y-99204819D01*
X124583333Y-99204819D02*
X124678571Y-99252438D01*
X124678571Y-99252438D02*
X124726190Y-99300057D01*
X124726190Y-99300057D02*
X124773809Y-99395295D01*
X124773809Y-99395295D02*
X124773809Y-99538152D01*
X124773809Y-99538152D02*
X124726190Y-99633390D01*
X124726190Y-99633390D02*
X124678571Y-99681009D01*
X124678571Y-99681009D02*
X124583333Y-99728628D01*
X124583333Y-99728628D02*
X124202381Y-99728628D01*
X125202381Y-100204819D02*
X125202381Y-99538152D01*
X125202381Y-99204819D02*
X125154762Y-99252438D01*
X125154762Y-99252438D02*
X125202381Y-99300057D01*
X125202381Y-99300057D02*
X125250000Y-99252438D01*
X125250000Y-99252438D02*
X125202381Y-99204819D01*
X125202381Y-99204819D02*
X125202381Y-99300057D01*
X126107142Y-99538152D02*
X126107142Y-100347676D01*
X126107142Y-100347676D02*
X126059523Y-100442914D01*
X126059523Y-100442914D02*
X126011904Y-100490533D01*
X126011904Y-100490533D02*
X125916666Y-100538152D01*
X125916666Y-100538152D02*
X125773809Y-100538152D01*
X125773809Y-100538152D02*
X125678571Y-100490533D01*
X126107142Y-100157200D02*
X126011904Y-100204819D01*
X126011904Y-100204819D02*
X125821428Y-100204819D01*
X125821428Y-100204819D02*
X125726190Y-100157200D01*
X125726190Y-100157200D02*
X125678571Y-100109580D01*
X125678571Y-100109580D02*
X125630952Y-100014342D01*
X125630952Y-100014342D02*
X125630952Y-99728628D01*
X125630952Y-99728628D02*
X125678571Y-99633390D01*
X125678571Y-99633390D02*
X125726190Y-99585771D01*
X125726190Y-99585771D02*
X125821428Y-99538152D01*
X125821428Y-99538152D02*
X126011904Y-99538152D01*
X126011904Y-99538152D02*
X126107142Y-99585771D01*
X126583333Y-100204819D02*
X126583333Y-99204819D01*
X127011904Y-100204819D02*
X127011904Y-99681009D01*
X127011904Y-99681009D02*
X126964285Y-99585771D01*
X126964285Y-99585771D02*
X126869047Y-99538152D01*
X126869047Y-99538152D02*
X126726190Y-99538152D01*
X126726190Y-99538152D02*
X126630952Y-99585771D01*
X126630952Y-99585771D02*
X126583333Y-99633390D01*
X127345238Y-99538152D02*
X127726190Y-99538152D01*
X127488095Y-99204819D02*
X127488095Y-100061961D01*
X127488095Y-100061961D02*
X127535714Y-100157200D01*
X127535714Y-100157200D02*
X127630952Y-100204819D01*
X127630952Y-100204819D02*
X127726190Y-100204819D01*
X127964286Y-99204819D02*
X128630952Y-100204819D01*
X128630952Y-99204819D02*
X127964286Y-100204819D01*
X129488095Y-100204819D02*
X129011905Y-100204819D01*
X129011905Y-100204819D02*
X129011905Y-99204819D01*
X124064286Y-98927200D02*
X129483334Y-98927200D01*
X130345238Y-100204819D02*
X129773810Y-100204819D01*
X130059524Y-100204819D02*
X130059524Y-99204819D01*
X130059524Y-99204819D02*
X129964286Y-99347676D01*
X129964286Y-99347676D02*
X129869048Y-99442914D01*
X129869048Y-99442914D02*
X129773810Y-99490533D01*
X137693095Y-56954819D02*
X137693095Y-57764342D01*
X137693095Y-57764342D02*
X137740714Y-57859580D01*
X137740714Y-57859580D02*
X137788333Y-57907200D01*
X137788333Y-57907200D02*
X137883571Y-57954819D01*
X137883571Y-57954819D02*
X138074047Y-57954819D01*
X138074047Y-57954819D02*
X138169285Y-57907200D01*
X138169285Y-57907200D02*
X138216904Y-57859580D01*
X138216904Y-57859580D02*
X138264523Y-57764342D01*
X138264523Y-57764342D02*
X138264523Y-56954819D01*
X138645476Y-56954819D02*
X139264523Y-56954819D01*
X139264523Y-56954819D02*
X138931190Y-57335771D01*
X138931190Y-57335771D02*
X139074047Y-57335771D01*
X139074047Y-57335771D02*
X139169285Y-57383390D01*
X139169285Y-57383390D02*
X139216904Y-57431009D01*
X139216904Y-57431009D02*
X139264523Y-57526247D01*
X139264523Y-57526247D02*
X139264523Y-57764342D01*
X139264523Y-57764342D02*
X139216904Y-57859580D01*
X139216904Y-57859580D02*
X139169285Y-57907200D01*
X139169285Y-57907200D02*
X139074047Y-57954819D01*
X139074047Y-57954819D02*
X138788333Y-57954819D01*
X138788333Y-57954819D02*
X138693095Y-57907200D01*
X138693095Y-57907200D02*
X138645476Y-57859580D01*
X78547619Y-125756819D02*
X78547619Y-124756819D01*
X78547619Y-124756819D02*
X78928571Y-124756819D01*
X78928571Y-124756819D02*
X79023809Y-124804438D01*
X79023809Y-124804438D02*
X79071428Y-124852057D01*
X79071428Y-124852057D02*
X79119047Y-124947295D01*
X79119047Y-124947295D02*
X79119047Y-125090152D01*
X79119047Y-125090152D02*
X79071428Y-125185390D01*
X79071428Y-125185390D02*
X79023809Y-125233009D01*
X79023809Y-125233009D02*
X78928571Y-125280628D01*
X78928571Y-125280628D02*
X78547619Y-125280628D01*
X79690476Y-125756819D02*
X79595238Y-125709200D01*
X79595238Y-125709200D02*
X79547619Y-125661580D01*
X79547619Y-125661580D02*
X79500000Y-125566342D01*
X79500000Y-125566342D02*
X79500000Y-125280628D01*
X79500000Y-125280628D02*
X79547619Y-125185390D01*
X79547619Y-125185390D02*
X79595238Y-125137771D01*
X79595238Y-125137771D02*
X79690476Y-125090152D01*
X79690476Y-125090152D02*
X79833333Y-125090152D01*
X79833333Y-125090152D02*
X79928571Y-125137771D01*
X79928571Y-125137771D02*
X79976190Y-125185390D01*
X79976190Y-125185390D02*
X80023809Y-125280628D01*
X80023809Y-125280628D02*
X80023809Y-125566342D01*
X80023809Y-125566342D02*
X79976190Y-125661580D01*
X79976190Y-125661580D02*
X79928571Y-125709200D01*
X79928571Y-125709200D02*
X79833333Y-125756819D01*
X79833333Y-125756819D02*
X79690476Y-125756819D01*
X80357143Y-125090152D02*
X80547619Y-125756819D01*
X80547619Y-125756819D02*
X80738095Y-125280628D01*
X80738095Y-125280628D02*
X80928571Y-125756819D01*
X80928571Y-125756819D02*
X81119047Y-125090152D01*
X81880952Y-125709200D02*
X81785714Y-125756819D01*
X81785714Y-125756819D02*
X81595238Y-125756819D01*
X81595238Y-125756819D02*
X81500000Y-125709200D01*
X81500000Y-125709200D02*
X81452381Y-125613961D01*
X81452381Y-125613961D02*
X81452381Y-125233009D01*
X81452381Y-125233009D02*
X81500000Y-125137771D01*
X81500000Y-125137771D02*
X81595238Y-125090152D01*
X81595238Y-125090152D02*
X81785714Y-125090152D01*
X81785714Y-125090152D02*
X81880952Y-125137771D01*
X81880952Y-125137771D02*
X81928571Y-125233009D01*
X81928571Y-125233009D02*
X81928571Y-125328247D01*
X81928571Y-125328247D02*
X81452381Y-125423485D01*
X82357143Y-125756819D02*
X82357143Y-125090152D01*
X82357143Y-125280628D02*
X82404762Y-125185390D01*
X82404762Y-125185390D02*
X82452381Y-125137771D01*
X82452381Y-125137771D02*
X82547619Y-125090152D01*
X82547619Y-125090152D02*
X82642857Y-125090152D01*
X83500000Y-125756819D02*
X82928572Y-125756819D01*
X83214286Y-125756819D02*
X83214286Y-124756819D01*
X83214286Y-124756819D02*
X83119048Y-124899676D01*
X83119048Y-124899676D02*
X83023810Y-124994914D01*
X83023810Y-124994914D02*
X82928572Y-125042533D01*
X85892856Y-78206819D02*
X85416666Y-78206819D01*
X85416666Y-78206819D02*
X85416666Y-77206819D01*
X86369047Y-78206819D02*
X86273809Y-78159200D01*
X86273809Y-78159200D02*
X86226190Y-78111580D01*
X86226190Y-78111580D02*
X86178571Y-78016342D01*
X86178571Y-78016342D02*
X86178571Y-77730628D01*
X86178571Y-77730628D02*
X86226190Y-77635390D01*
X86226190Y-77635390D02*
X86273809Y-77587771D01*
X86273809Y-77587771D02*
X86369047Y-77540152D01*
X86369047Y-77540152D02*
X86511904Y-77540152D01*
X86511904Y-77540152D02*
X86607142Y-77587771D01*
X86607142Y-77587771D02*
X86654761Y-77635390D01*
X86654761Y-77635390D02*
X86702380Y-77730628D01*
X86702380Y-77730628D02*
X86702380Y-78016342D01*
X86702380Y-78016342D02*
X86654761Y-78111580D01*
X86654761Y-78111580D02*
X86607142Y-78159200D01*
X86607142Y-78159200D02*
X86511904Y-78206819D01*
X86511904Y-78206819D02*
X86369047Y-78206819D01*
X87559523Y-78206819D02*
X87559523Y-77683009D01*
X87559523Y-77683009D02*
X87511904Y-77587771D01*
X87511904Y-77587771D02*
X87416666Y-77540152D01*
X87416666Y-77540152D02*
X87226190Y-77540152D01*
X87226190Y-77540152D02*
X87130952Y-77587771D01*
X87559523Y-78159200D02*
X87464285Y-78206819D01*
X87464285Y-78206819D02*
X87226190Y-78206819D01*
X87226190Y-78206819D02*
X87130952Y-78159200D01*
X87130952Y-78159200D02*
X87083333Y-78063961D01*
X87083333Y-78063961D02*
X87083333Y-77968723D01*
X87083333Y-77968723D02*
X87130952Y-77873485D01*
X87130952Y-77873485D02*
X87226190Y-77825866D01*
X87226190Y-77825866D02*
X87464285Y-77825866D01*
X87464285Y-77825866D02*
X87559523Y-77778247D01*
X88464285Y-78206819D02*
X88464285Y-77206819D01*
X88464285Y-78159200D02*
X88369047Y-78206819D01*
X88369047Y-78206819D02*
X88178571Y-78206819D01*
X88178571Y-78206819D02*
X88083333Y-78159200D01*
X88083333Y-78159200D02*
X88035714Y-78111580D01*
X88035714Y-78111580D02*
X87988095Y-78016342D01*
X87988095Y-78016342D02*
X87988095Y-77730628D01*
X87988095Y-77730628D02*
X88035714Y-77635390D01*
X88035714Y-77635390D02*
X88083333Y-77587771D01*
X88083333Y-77587771D02*
X88178571Y-77540152D01*
X88178571Y-77540152D02*
X88369047Y-77540152D01*
X88369047Y-77540152D02*
X88464285Y-77587771D01*
X89130952Y-77730628D02*
X89130952Y-78206819D01*
X88797619Y-77206819D02*
X89130952Y-77730628D01*
X89130952Y-77730628D02*
X89464285Y-77206819D01*
X90273809Y-78206819D02*
X89797619Y-78206819D01*
X89797619Y-78206819D02*
X89797619Y-77206819D01*
X85278571Y-76929200D02*
X90269048Y-76929200D01*
X91130952Y-78206819D02*
X90559524Y-78206819D01*
X90845238Y-78206819D02*
X90845238Y-77206819D01*
X90845238Y-77206819D02*
X90750000Y-77349676D01*
X90750000Y-77349676D02*
X90654762Y-77444914D01*
X90654762Y-77444914D02*
X90559524Y-77492533D01*
X129619819Y-79853571D02*
X130429342Y-79853571D01*
X130429342Y-79853571D02*
X130524580Y-79805952D01*
X130524580Y-79805952D02*
X130572200Y-79758333D01*
X130572200Y-79758333D02*
X130619819Y-79663095D01*
X130619819Y-79663095D02*
X130619819Y-79472619D01*
X130619819Y-79472619D02*
X130572200Y-79377381D01*
X130572200Y-79377381D02*
X130524580Y-79329762D01*
X130524580Y-79329762D02*
X130429342Y-79282143D01*
X130429342Y-79282143D02*
X129619819Y-79282143D01*
X129619819Y-78377381D02*
X129619819Y-78567857D01*
X129619819Y-78567857D02*
X129667438Y-78663095D01*
X129667438Y-78663095D02*
X129715057Y-78710714D01*
X129715057Y-78710714D02*
X129857914Y-78805952D01*
X129857914Y-78805952D02*
X130048390Y-78853571D01*
X130048390Y-78853571D02*
X130429342Y-78853571D01*
X130429342Y-78853571D02*
X130524580Y-78805952D01*
X130524580Y-78805952D02*
X130572200Y-78758333D01*
X130572200Y-78758333D02*
X130619819Y-78663095D01*
X130619819Y-78663095D02*
X130619819Y-78472619D01*
X130619819Y-78472619D02*
X130572200Y-78377381D01*
X130572200Y-78377381D02*
X130524580Y-78329762D01*
X130524580Y-78329762D02*
X130429342Y-78282143D01*
X130429342Y-78282143D02*
X130191247Y-78282143D01*
X130191247Y-78282143D02*
X130096009Y-78329762D01*
X130096009Y-78329762D02*
X130048390Y-78377381D01*
X130048390Y-78377381D02*
X130000771Y-78472619D01*
X130000771Y-78472619D02*
X130000771Y-78663095D01*
X130000771Y-78663095D02*
X130048390Y-78758333D01*
X130048390Y-78758333D02*
X130096009Y-78805952D01*
X130096009Y-78805952D02*
X130191247Y-78853571D01*
X129619819Y-108086904D02*
X130429342Y-108086904D01*
X130429342Y-108086904D02*
X130524580Y-108039285D01*
X130524580Y-108039285D02*
X130572200Y-107991666D01*
X130572200Y-107991666D02*
X130619819Y-107896428D01*
X130619819Y-107896428D02*
X130619819Y-107705952D01*
X130619819Y-107705952D02*
X130572200Y-107610714D01*
X130572200Y-107610714D02*
X130524580Y-107563095D01*
X130524580Y-107563095D02*
X130429342Y-107515476D01*
X130429342Y-107515476D02*
X129619819Y-107515476D01*
X129619819Y-107134523D02*
X129619819Y-106467857D01*
X129619819Y-106467857D02*
X130619819Y-106896428D01*
D13*
%TO.C,C7*%
X76545000Y-129396036D02*
G75*
G02*
X70005000Y-129396036I-3270000J0D01*
G01*
X70005000Y-129396036D02*
G75*
G02*
X76545000Y-129396036I3270000J0D01*
G01*
%TO.C,~{LoadXH}1*%
X93450000Y-58250000D02*
G75*
G02*
X92050000Y-58250000I-700000J0D01*
G01*
X92050000Y-58250000D02*
G75*
G02*
X93450000Y-58250000I700000J0D01*
G01*
%TO.C,XH1*%
X95240000Y-71000000D02*
X95240000Y-72250000D01*
X95240000Y-74250000D02*
X95240000Y-75500000D01*
X95240000Y-75500000D02*
X120760000Y-75500000D01*
X120760000Y-71000000D02*
X95240000Y-71000000D01*
X120760000Y-75500000D02*
X120760000Y-71000000D01*
X95180000Y-78500000D02*
X120820000Y-78500000D01*
X120820000Y-68000000D01*
X95180000Y-68000000D01*
X95180000Y-78500000D01*
X95240000Y-72250000D02*
G75*
G02*
X95240000Y-74250000I0J-1000000D01*
G01*
%TO.C,C10*%
X76680000Y-46820000D02*
X77017000Y-46820000D01*
X76680000Y-52060000D02*
X76680000Y-46820000D01*
X77017000Y-52060000D02*
X76680000Y-52060000D01*
X79083000Y-46820000D02*
X79420000Y-46820000D01*
X79420000Y-46820000D02*
X79420000Y-52060000D01*
X79420000Y-52060000D02*
X79083000Y-52060000D01*
D10*
%TO.C,kibuzzard-691DE19C*%
G36*
X68000000Y-117893571D02*
G01*
X67580000Y-117893571D01*
X67580000Y-117559286D01*
X67692857Y-117559286D01*
X67692857Y-117777857D01*
X67885714Y-117777857D01*
X67885714Y-117559286D01*
X67692857Y-117559286D01*
X67580000Y-117559286D01*
X67580000Y-117445000D01*
X68000000Y-117445000D01*
X68000000Y-117777857D01*
X68000000Y-117893571D01*
G37*
G36*
X67105714Y-121253571D02*
G01*
X66291429Y-121253571D01*
X66291429Y-120555000D01*
X66404286Y-120555000D01*
X66404286Y-121142143D01*
X66998571Y-121142143D01*
X66998571Y-120583571D01*
X66884286Y-120467857D01*
X66491429Y-120467857D01*
X66404286Y-120555000D01*
X66291429Y-120555000D01*
X66291429Y-120497857D01*
X66434286Y-120353571D01*
X66935714Y-120353571D01*
X67105714Y-120525000D01*
X67105714Y-121142143D01*
X67105714Y-121253571D01*
G37*
G36*
X67105714Y-123050714D02*
G01*
X66291429Y-123050714D01*
X66291429Y-122352143D01*
X66404286Y-122352143D01*
X66404286Y-122939286D01*
X66998571Y-122939286D01*
X66998571Y-122380714D01*
X66884286Y-122265000D01*
X66491429Y-122265000D01*
X66404286Y-122352143D01*
X66291429Y-122352143D01*
X66291429Y-122295000D01*
X66434286Y-122150714D01*
X66935714Y-122150714D01*
X67105714Y-122322143D01*
X67105714Y-122939286D01*
X67105714Y-123050714D01*
G37*
G36*
X67120000Y-124900714D02*
G01*
X66431429Y-124900714D01*
X66287143Y-124756429D01*
X66287143Y-124176429D01*
X66404286Y-124176429D01*
X66404286Y-124707857D01*
X66491429Y-124795000D01*
X67008571Y-124795000D01*
X67008571Y-124089286D01*
X66491429Y-124089286D01*
X66404286Y-124176429D01*
X66287143Y-124176429D01*
X66287143Y-124123571D01*
X66431429Y-123979286D01*
X67120000Y-123979286D01*
X67120000Y-124795000D01*
X67120000Y-124900714D01*
G37*
G36*
X68000000Y-121546429D02*
G01*
X66000000Y-121546429D01*
X66000000Y-120409286D01*
X66107143Y-120409286D01*
X66107143Y-121437857D01*
X67902857Y-121437857D01*
X67902857Y-121253571D01*
X67288571Y-121253571D01*
X67288571Y-120435000D01*
X67022857Y-120170714D01*
X66345714Y-120170714D01*
X66107143Y-120409286D01*
X66000000Y-120409286D01*
X66000000Y-120359286D01*
X66294286Y-120065000D01*
X67081429Y-120065000D01*
X67402857Y-120386429D01*
X67402857Y-121142143D01*
X68000000Y-121142143D01*
X68000000Y-121437857D01*
X68000000Y-121546429D01*
G37*
G36*
X68000000Y-123343571D02*
G01*
X66000000Y-123343571D01*
X66000000Y-122206429D01*
X66107143Y-122206429D01*
X66107143Y-123235000D01*
X67902857Y-123235000D01*
X67902857Y-123050714D01*
X67288571Y-123050714D01*
X67288571Y-122232143D01*
X67022857Y-121967857D01*
X66345714Y-121967857D01*
X66107143Y-122206429D01*
X66000000Y-122206429D01*
X66000000Y-122156429D01*
X66294286Y-121862143D01*
X67081429Y-121862143D01*
X67402857Y-122183571D01*
X67402857Y-122939286D01*
X68000000Y-122939286D01*
X68000000Y-123235000D01*
X68000000Y-123343571D01*
G37*
G36*
X68000000Y-125197857D02*
G01*
X66294286Y-125197857D01*
X66000000Y-124903571D01*
X66000000Y-124035000D01*
X66104286Y-124035000D01*
X66104286Y-124845000D01*
X66342857Y-125083571D01*
X67881429Y-125083571D01*
X67881429Y-124900714D01*
X67304286Y-124900714D01*
X67304286Y-123979286D01*
X67881429Y-123979286D01*
X67881429Y-123795000D01*
X66342857Y-123795000D01*
X66104286Y-124035000D01*
X66000000Y-124035000D01*
X66000000Y-123980714D01*
X66294286Y-123686429D01*
X68000000Y-123686429D01*
X68000000Y-124089286D01*
X67411429Y-124089286D01*
X67411429Y-124795000D01*
X68000000Y-124795000D01*
X68000000Y-125083571D01*
X68000000Y-125197857D01*
G37*
G36*
X68000000Y-127586429D02*
G01*
X67705714Y-127880714D01*
X66000000Y-127880714D01*
X66000000Y-127476429D01*
X67508571Y-127476429D01*
X67595714Y-127389286D01*
X67595714Y-126803571D01*
X67508571Y-126716429D01*
X66000000Y-126716429D01*
X66000000Y-126422143D01*
X66107143Y-126422143D01*
X66107143Y-126605000D01*
X67564286Y-126605000D01*
X67705714Y-126750714D01*
X67705714Y-127440714D01*
X67564286Y-127586429D01*
X66107143Y-127586429D01*
X66107143Y-127770714D01*
X67652857Y-127770714D01*
X67890000Y-127530714D01*
X67890000Y-126660714D01*
X67652857Y-126422143D01*
X66107143Y-126422143D01*
X66000000Y-126422143D01*
X66000000Y-126312143D01*
X67705714Y-126312143D01*
X68000000Y-126606429D01*
X68000000Y-127530714D01*
X68000000Y-127586429D01*
G37*
G36*
X68000000Y-131260714D02*
G01*
X67705714Y-131555000D01*
X66000000Y-131555000D01*
X66000000Y-131150714D01*
X67508571Y-131150714D01*
X67595714Y-131063571D01*
X67595714Y-130477857D01*
X67508571Y-130390714D01*
X66000000Y-130390714D01*
X66000000Y-130096429D01*
X66107143Y-130096429D01*
X66107143Y-130279286D01*
X67564286Y-130279286D01*
X67705714Y-130425000D01*
X67705714Y-131115000D01*
X67564286Y-131260714D01*
X66107143Y-131260714D01*
X66107143Y-131445000D01*
X67652857Y-131445000D01*
X67890000Y-131205000D01*
X67890000Y-130335000D01*
X67652857Y-130096429D01*
X66107143Y-130096429D01*
X66000000Y-130096429D01*
X66000000Y-129986429D01*
X67705714Y-129986429D01*
X68000000Y-130280714D01*
X68000000Y-131205000D01*
X68000000Y-131260714D01*
G37*
G36*
X68000000Y-129377857D02*
G01*
X67705714Y-129672143D01*
X66294286Y-129672143D01*
X66000000Y-129377857D01*
X66000000Y-128543571D01*
X66107143Y-128543571D01*
X66107143Y-129323571D01*
X66345714Y-129562143D01*
X67650000Y-129562143D01*
X67888571Y-129323571D01*
X67888571Y-128543571D01*
X67650000Y-128305000D01*
X67344286Y-128305000D01*
X67344286Y-128487857D01*
X67561429Y-128487857D01*
X67705714Y-128633571D01*
X67705714Y-129233571D01*
X67561429Y-129379286D01*
X66434286Y-129379286D01*
X66291429Y-129233571D01*
X66291429Y-128633571D01*
X66434286Y-128487857D01*
X66651429Y-128487857D01*
X66651429Y-128305000D01*
X66345714Y-128305000D01*
X66107143Y-128543571D01*
X66000000Y-128543571D01*
X66000000Y-128490714D01*
X66294286Y-128195000D01*
X66754286Y-128195000D01*
X66754286Y-128599286D01*
X66491429Y-128599286D01*
X66404286Y-128686429D01*
X66404286Y-129180714D01*
X66491429Y-129267857D01*
X67508571Y-129267857D01*
X67595714Y-129180714D01*
X67595714Y-128686429D01*
X67508571Y-128599286D01*
X67245714Y-128599286D01*
X67245714Y-128195000D01*
X67705714Y-128195000D01*
X68000000Y-128490714D01*
X68000000Y-129323571D01*
X68000000Y-129377857D01*
G37*
G36*
X68000000Y-119469286D02*
G01*
X67705714Y-119763571D01*
X67345714Y-119763571D01*
X67345714Y-119359286D01*
X67508571Y-119359286D01*
X67595714Y-119272143D01*
X67595714Y-118723571D01*
X67508571Y-118636429D01*
X67288571Y-118636429D01*
X67201429Y-118723571D01*
X67201429Y-119460714D01*
X66907143Y-119755000D01*
X66294286Y-119755000D01*
X66000000Y-119460714D01*
X66000000Y-118602143D01*
X66110000Y-118602143D01*
X66110000Y-119406429D01*
X66348571Y-119645000D01*
X66848571Y-119645000D01*
X67091429Y-119403571D01*
X67091429Y-118660714D01*
X67217143Y-118530714D01*
X67562857Y-118530714D01*
X67707143Y-118675000D01*
X67707143Y-119327857D01*
X67570000Y-119465000D01*
X67447143Y-119465000D01*
X67447143Y-119649286D01*
X67658571Y-119649286D01*
X67890000Y-119417857D01*
X67890000Y-118585000D01*
X67651429Y-118346429D01*
X67131429Y-118346429D01*
X66905714Y-118570714D01*
X66905714Y-119315000D01*
X66761429Y-119460714D01*
X66437143Y-119460714D01*
X66294286Y-119316429D01*
X66294286Y-118692143D01*
X66430000Y-118553571D01*
X66552857Y-118553571D01*
X66552857Y-118370714D01*
X66341429Y-118370714D01*
X66110000Y-118602143D01*
X66000000Y-118602143D01*
X66000000Y-118553571D01*
X66294286Y-118259286D01*
X66654286Y-118259286D01*
X66654286Y-118663571D01*
X66491429Y-118663571D01*
X66404286Y-118750714D01*
X66404286Y-119263571D01*
X66491429Y-119352143D01*
X66710000Y-119352143D01*
X66797143Y-119263571D01*
X66797143Y-118526429D01*
X67091429Y-118232143D01*
X67705714Y-118232143D01*
X68000000Y-118526429D01*
X68000000Y-119417857D01*
X68000000Y-119469286D01*
G37*
D13*
%TO.C,C6*%
X100830000Y-46820000D02*
X101167000Y-46820000D01*
X100830000Y-52060000D02*
X100830000Y-46820000D01*
X101167000Y-52060000D02*
X100830000Y-52060000D01*
X103233000Y-46820000D02*
X103570000Y-46820000D01*
X103570000Y-46820000D02*
X103570000Y-52060000D01*
X103570000Y-52060000D02*
X103233000Y-52060000D01*
%TO.C,R6*%
X150920000Y-45630000D02*
X157460000Y-45630000D01*
X150920000Y-45960000D02*
X150920000Y-45630000D01*
X150920000Y-48040000D02*
X150920000Y-48370000D01*
X150920000Y-48370000D02*
X157460000Y-48370000D01*
X157460000Y-45630000D02*
X157460000Y-45960000D01*
X157460000Y-48370000D02*
X157460000Y-48040000D01*
%TO.C,YH1*%
X95240000Y-94000000D02*
X95240000Y-95250000D01*
X95240000Y-97250000D02*
X95240000Y-98500000D01*
X95240000Y-98500000D02*
X120760000Y-98500000D01*
X120760000Y-94000000D02*
X95240000Y-94000000D01*
X120760000Y-98500000D02*
X120760000Y-94000000D01*
X95180000Y-101500000D02*
X120820000Y-101500000D01*
X120820000Y-91000000D01*
X95180000Y-91000000D01*
X95180000Y-101500000D01*
X95240000Y-95250000D02*
G75*
G02*
X95240000Y-97250000I0J-1000000D01*
G01*
%TO.C,~{LoadZL}1*%
X89450000Y-96750000D02*
G75*
G02*
X88050000Y-96750000I-700000J0D01*
G01*
X88050000Y-96750000D02*
G75*
G02*
X89450000Y-96750000I700000J0D01*
G01*
%TO.C,~{ReadZL}1*%
X92450000Y-111750000D02*
G75*
G02*
X91050000Y-111750000I-700000J0D01*
G01*
X91050000Y-111750000D02*
G75*
G02*
X92450000Y-111750000I700000J0D01*
G01*
%TO.C,~{PassXL}1*%
X127950000Y-83000000D02*
G75*
G02*
X126550000Y-83000000I-700000J0D01*
G01*
X126550000Y-83000000D02*
G75*
G02*
X127950000Y-83000000I700000J0D01*
G01*
%TO.C,~{ReadZH}1*%
X97200000Y-126000000D02*
G75*
G02*
X95800000Y-126000000I-700000J0D01*
G01*
X95800000Y-126000000D02*
G75*
G02*
X97200000Y-126000000I700000J0D01*
G01*
%TO.C,~{LeftXL}1*%
X128950000Y-110750000D02*
G75*
G02*
X127550000Y-110750000I-700000J0D01*
G01*
X127550000Y-110750000D02*
G75*
G02*
X128950000Y-110750000I700000J0D01*
G01*
%TO.C,C11*%
X125230000Y-46820000D02*
X125567000Y-46820000D01*
X125230000Y-52060000D02*
X125230000Y-46820000D01*
X125567000Y-52060000D02*
X125230000Y-52060000D01*
X127633000Y-46820000D02*
X127970000Y-46820000D01*
X127970000Y-46820000D02*
X127970000Y-52060000D01*
X127970000Y-52060000D02*
X127633000Y-52060000D01*
%TO.C,C14*%
X125260000Y-102925000D02*
X125597000Y-102925000D01*
X125260000Y-108165000D02*
X125260000Y-102925000D01*
X125597000Y-108165000D02*
X125260000Y-108165000D01*
X127663000Y-102925000D02*
X128000000Y-102925000D01*
X128000000Y-102925000D02*
X128000000Y-108165000D01*
X128000000Y-108165000D02*
X127663000Y-108165000D01*
%TO.C,ZL1*%
X95240000Y-105500000D02*
X95240000Y-106750000D01*
X95240000Y-108750000D02*
X95240000Y-110000000D01*
X95240000Y-110000000D02*
X120760000Y-110000000D01*
X120760000Y-105500000D02*
X95240000Y-105500000D01*
X120760000Y-110000000D02*
X120760000Y-105500000D01*
X95180000Y-113000000D02*
X120820000Y-113000000D01*
X120820000Y-102500000D01*
X95180000Y-102500000D01*
X95180000Y-113000000D01*
X95240000Y-106750000D02*
G75*
G02*
X95240000Y-108750000I0J-1000000D01*
G01*
%TO.C,R5*%
X119905000Y-59105000D02*
X120235000Y-59105000D01*
X119905000Y-65645000D02*
X119905000Y-59105000D01*
X120235000Y-65645000D02*
X119905000Y-65645000D01*
X122315000Y-65645000D02*
X122645000Y-65645000D01*
X122645000Y-59105000D02*
X122315000Y-59105000D01*
X122645000Y-65645000D02*
X122645000Y-59105000D01*
%TO.C,ZH1*%
X95240000Y-117000000D02*
X95240000Y-118250000D01*
X95240000Y-120250000D02*
X95240000Y-121500000D01*
X95240000Y-121500000D02*
X120760000Y-121500000D01*
X120760000Y-117000000D02*
X95240000Y-117000000D01*
X120760000Y-121500000D02*
X120760000Y-117000000D01*
X95180000Y-124500000D02*
X120820000Y-124500000D01*
X120820000Y-114000000D01*
X95180000Y-114000000D01*
X95180000Y-124500000D01*
X95240000Y-118250000D02*
G75*
G02*
X95240000Y-120250000I0J-1000000D01*
G01*
%TO.C,C2*%
X91630000Y-80820000D02*
X91967000Y-80820000D01*
X91630000Y-86060000D02*
X91630000Y-80820000D01*
X91967000Y-86060000D02*
X91630000Y-86060000D01*
X94033000Y-80820000D02*
X94370000Y-80820000D01*
X94370000Y-80820000D02*
X94370000Y-86060000D01*
X94370000Y-86060000D02*
X94033000Y-86060000D01*
%TO.C,C5*%
X91630000Y-115320000D02*
X91967000Y-115320000D01*
X91630000Y-120560000D02*
X91630000Y-115320000D01*
X91967000Y-120560000D02*
X91630000Y-120560000D01*
X94033000Y-115320000D02*
X94370000Y-115320000D01*
X94370000Y-115320000D02*
X94370000Y-120560000D01*
X94370000Y-120560000D02*
X94033000Y-120560000D01*
D10*
%TO.C,kibuzzard-6911B41A*%
G36*
X64735000Y-78185714D02*
G01*
X64735000Y-78560000D01*
X64559286Y-78714286D01*
X63909286Y-78714286D01*
X63799286Y-78714286D01*
X63799286Y-78610000D01*
X63909286Y-78610000D01*
X64540714Y-78610000D01*
X64627857Y-78521429D01*
X64627857Y-78241429D01*
X64540714Y-78154286D01*
X63909286Y-78154286D01*
X63909286Y-78610000D01*
X63799286Y-78610000D01*
X63799286Y-78041429D01*
X64590714Y-78041429D01*
X64735000Y-78185714D01*
G37*
G36*
X76669286Y-78185714D02*
G01*
X76669286Y-78560000D01*
X76493571Y-78714286D01*
X75843571Y-78714286D01*
X75733571Y-78714286D01*
X75733571Y-78610000D01*
X75843571Y-78610000D01*
X76475000Y-78610000D01*
X76562143Y-78521429D01*
X76562143Y-78241429D01*
X76475000Y-78154286D01*
X75843571Y-78154286D01*
X75843571Y-78610000D01*
X75733571Y-78610000D01*
X75733571Y-78041429D01*
X76525000Y-78041429D01*
X76669286Y-78185714D01*
G37*
G36*
X81555000Y-79345714D02*
G01*
X82423571Y-79345714D01*
X82423571Y-79750000D01*
X81262143Y-79750000D01*
X81150714Y-79750000D01*
X81150714Y-79641429D01*
X81262143Y-79641429D01*
X82315000Y-79641429D01*
X82315000Y-79457143D01*
X81445000Y-79457143D01*
X81445000Y-77857143D01*
X81262143Y-77857143D01*
X81262143Y-79641429D01*
X81150714Y-79641429D01*
X81150714Y-77750000D01*
X81555000Y-77750000D01*
X81555000Y-79345714D01*
G37*
G36*
X73525000Y-78154286D02*
G01*
X73029286Y-78154286D01*
X73029286Y-79750000D01*
X72736429Y-79750000D01*
X72626429Y-79750000D01*
X72626429Y-78154286D01*
X72130714Y-78154286D01*
X72130714Y-78041429D01*
X72236429Y-78041429D01*
X72736429Y-78041429D01*
X72736429Y-79642857D01*
X72919286Y-79642857D01*
X72919286Y-78041429D01*
X73419286Y-78041429D01*
X73419286Y-77857143D01*
X72236429Y-77857143D01*
X72236429Y-78041429D01*
X72130714Y-78041429D01*
X72130714Y-77750000D01*
X73525000Y-77750000D01*
X73525000Y-78154286D01*
G37*
G36*
X79352143Y-78154286D02*
G01*
X78485000Y-78154286D01*
X78485000Y-78538571D01*
X79297857Y-78538571D01*
X79297857Y-78942857D01*
X78485000Y-78942857D01*
X78485000Y-79750000D01*
X78190714Y-79750000D01*
X78080714Y-79750000D01*
X78080714Y-79642857D01*
X78190714Y-79642857D01*
X78375000Y-79642857D01*
X78375000Y-78830000D01*
X79187857Y-78830000D01*
X79187857Y-78645714D01*
X78375000Y-78645714D01*
X78375000Y-78041429D01*
X79245000Y-78041429D01*
X79245000Y-77857143D01*
X78190714Y-77857143D01*
X78190714Y-79642857D01*
X78080714Y-79642857D01*
X78080714Y-77750000D01*
X79352143Y-77750000D01*
X79352143Y-78154286D01*
G37*
G36*
X66660714Y-78154286D02*
G01*
X65765000Y-78154286D01*
X65765000Y-78538571D01*
X66562143Y-78538571D01*
X66562143Y-78942857D01*
X65765000Y-78942857D01*
X65765000Y-79345714D01*
X66660714Y-79345714D01*
X66660714Y-79750000D01*
X65473571Y-79750000D01*
X65360714Y-79750000D01*
X65360714Y-79635714D01*
X65473571Y-79635714D01*
X66563571Y-79635714D01*
X66563571Y-79452857D01*
X65657857Y-79452857D01*
X65657857Y-78831429D01*
X66463571Y-78831429D01*
X66463571Y-78648571D01*
X65657857Y-78648571D01*
X65657857Y-78041429D01*
X66563571Y-78041429D01*
X66563571Y-77857143D01*
X65473571Y-77857143D01*
X65473571Y-79635714D01*
X65360714Y-79635714D01*
X65360714Y-77750000D01*
X66660714Y-77750000D01*
X66660714Y-78154286D01*
G37*
G36*
X69999286Y-78154286D02*
G01*
X69609286Y-78154286D01*
X69609286Y-79345714D01*
X69999286Y-79345714D01*
X69999286Y-79750000D01*
X68925000Y-79750000D01*
X68815000Y-79750000D01*
X68815000Y-79345714D01*
X69206429Y-79345714D01*
X69206429Y-78154286D01*
X68815000Y-78154286D01*
X68815000Y-78041429D01*
X68925000Y-78041429D01*
X69309286Y-78041429D01*
X69309286Y-79457143D01*
X68925000Y-79457143D01*
X68925000Y-79640000D01*
X69890714Y-79640000D01*
X69890714Y-79457143D01*
X69492143Y-79457143D01*
X69492143Y-78041429D01*
X69890714Y-78041429D01*
X69890714Y-77857143D01*
X68925000Y-77857143D01*
X68925000Y-78041429D01*
X68815000Y-78041429D01*
X68815000Y-77750000D01*
X69999286Y-77750000D01*
X69999286Y-78154286D01*
G37*
G36*
X75096429Y-78154286D02*
G01*
X74200714Y-78154286D01*
X74200714Y-78538571D01*
X74997857Y-78538571D01*
X74997857Y-78942857D01*
X74200714Y-78942857D01*
X74200714Y-79345714D01*
X75096429Y-79345714D01*
X75096429Y-79750000D01*
X73909286Y-79750000D01*
X73796429Y-79750000D01*
X73796429Y-79635714D01*
X73909286Y-79635714D01*
X74999286Y-79635714D01*
X74999286Y-79452857D01*
X74093571Y-79452857D01*
X74093571Y-78831429D01*
X74899286Y-78831429D01*
X74899286Y-78648571D01*
X74093571Y-78648571D01*
X74093571Y-78041429D01*
X74999286Y-78041429D01*
X74999286Y-77857143D01*
X73909286Y-77857143D01*
X73909286Y-79635714D01*
X73796429Y-79635714D01*
X73796429Y-77750000D01*
X75096429Y-77750000D01*
X75096429Y-78154286D01*
G37*
G36*
X80807857Y-78154286D02*
G01*
X80417857Y-78154286D01*
X80417857Y-79345714D01*
X80807857Y-79345714D01*
X80807857Y-79750000D01*
X79733571Y-79750000D01*
X79623571Y-79750000D01*
X79623571Y-79345714D01*
X80015000Y-79345714D01*
X80015000Y-78154286D01*
X79623571Y-78154286D01*
X79623571Y-78041429D01*
X79733571Y-78041429D01*
X80117857Y-78041429D01*
X80117857Y-79457143D01*
X79733571Y-79457143D01*
X79733571Y-79640000D01*
X80699286Y-79640000D01*
X80699286Y-79457143D01*
X80300714Y-79457143D01*
X80300714Y-78041429D01*
X80699286Y-78041429D01*
X80699286Y-77857143D01*
X79733571Y-77857143D01*
X79733571Y-78041429D01*
X79623571Y-78041429D01*
X79623571Y-77750000D01*
X80807857Y-77750000D01*
X80807857Y-78154286D01*
G37*
G36*
X83995000Y-78154286D02*
G01*
X83099286Y-78154286D01*
X83099286Y-78538571D01*
X83896429Y-78538571D01*
X83896429Y-78942857D01*
X83099286Y-78942857D01*
X83099286Y-79345714D01*
X83995000Y-79345714D01*
X83995000Y-79750000D01*
X82807857Y-79750000D01*
X82695000Y-79750000D01*
X82695000Y-79635714D01*
X82807857Y-79635714D01*
X83897857Y-79635714D01*
X83897857Y-79452857D01*
X82992143Y-79452857D01*
X82992143Y-78831429D01*
X83797857Y-78831429D01*
X83797857Y-78648571D01*
X82992143Y-78648571D01*
X82992143Y-78041429D01*
X83897857Y-78041429D01*
X83897857Y-77857143D01*
X82807857Y-77857143D01*
X82807857Y-79635714D01*
X82695000Y-79635714D01*
X82695000Y-77750000D01*
X83995000Y-77750000D01*
X83995000Y-78154286D01*
G37*
G36*
X65032143Y-78044286D02*
G01*
X65032143Y-78664286D01*
X64857857Y-78824286D01*
X65032143Y-79014286D01*
X65032143Y-79750000D01*
X64627857Y-79750000D01*
X64627857Y-79157143D01*
X64485000Y-79014286D01*
X63909286Y-79014286D01*
X63909286Y-79750000D01*
X63616429Y-79750000D01*
X63505000Y-79750000D01*
X63505000Y-79641429D01*
X63616429Y-79641429D01*
X63799286Y-79641429D01*
X63799286Y-78898571D01*
X64532143Y-78898571D01*
X64740714Y-79117143D01*
X64740714Y-79641429D01*
X64925000Y-79641429D01*
X64925000Y-79057143D01*
X64700714Y-78812857D01*
X64919286Y-78621429D01*
X64919286Y-78097143D01*
X64680714Y-77858571D01*
X63616429Y-77858571D01*
X63616429Y-79641429D01*
X63505000Y-79641429D01*
X63505000Y-77750000D01*
X64737857Y-77750000D01*
X65032143Y-78044286D01*
G37*
G36*
X76966429Y-78044286D02*
G01*
X76966429Y-78664286D01*
X76792143Y-78824286D01*
X76966429Y-79014286D01*
X76966429Y-79750000D01*
X76562143Y-79750000D01*
X76562143Y-79157143D01*
X76419286Y-79014286D01*
X75843571Y-79014286D01*
X75843571Y-79750000D01*
X75550714Y-79750000D01*
X75439286Y-79750000D01*
X75439286Y-79641429D01*
X75550714Y-79641429D01*
X75733571Y-79641429D01*
X75733571Y-78898571D01*
X76466429Y-78898571D01*
X76675000Y-79117143D01*
X76675000Y-79641429D01*
X76859286Y-79641429D01*
X76859286Y-79057143D01*
X76635000Y-78812857D01*
X76853571Y-78621429D01*
X76853571Y-78097143D01*
X76615000Y-77858571D01*
X75550714Y-77858571D01*
X75550714Y-79641429D01*
X75439286Y-79641429D01*
X75439286Y-77750000D01*
X76672143Y-77750000D01*
X76966429Y-78044286D01*
G37*
G36*
X68486429Y-78044286D02*
G01*
X68486429Y-78404286D01*
X68083571Y-78404286D01*
X68083571Y-78241429D01*
X67996429Y-78154286D01*
X67477857Y-78154286D01*
X67392143Y-78244286D01*
X67392143Y-79260000D01*
X67477857Y-79345714D01*
X67996429Y-79345714D01*
X68083571Y-79258571D01*
X68083571Y-79061429D01*
X67687857Y-79061429D01*
X67687857Y-78658571D01*
X68486429Y-78658571D01*
X68486429Y-79455714D01*
X68192143Y-79750000D01*
X67339286Y-79750000D01*
X67283571Y-79750000D01*
X66989286Y-79455714D01*
X66989286Y-78095714D01*
X67100714Y-78095714D01*
X67100714Y-79397143D01*
X67339286Y-79635714D01*
X68137857Y-79635714D01*
X68377857Y-79397143D01*
X68377857Y-78770000D01*
X67799286Y-78770000D01*
X67799286Y-78954286D01*
X68193571Y-78954286D01*
X68193571Y-79308571D01*
X68049286Y-79452857D01*
X67429286Y-79452857D01*
X67283571Y-79311429D01*
X67283571Y-78184286D01*
X67429286Y-78041429D01*
X68049286Y-78041429D01*
X68193571Y-78184286D01*
X68193571Y-78298571D01*
X68377857Y-78298571D01*
X68377857Y-78095714D01*
X68137857Y-77857143D01*
X67339286Y-77857143D01*
X67100714Y-78095714D01*
X66989286Y-78095714D01*
X66989286Y-78044286D01*
X67283571Y-77750000D01*
X68192143Y-77750000D01*
X68486429Y-78044286D01*
G37*
G36*
X71832143Y-78044286D02*
G01*
X71832143Y-78404286D01*
X71427857Y-78404286D01*
X71427857Y-78241429D01*
X71340714Y-78154286D01*
X70827857Y-78154286D01*
X70739286Y-78241429D01*
X70739286Y-78460000D01*
X70827857Y-78547143D01*
X71565000Y-78547143D01*
X71859286Y-78841429D01*
X71859286Y-79455714D01*
X71565000Y-79750000D01*
X70673571Y-79750000D01*
X70622143Y-79750000D01*
X70327857Y-79455714D01*
X70327857Y-79197143D01*
X70442143Y-79197143D01*
X70442143Y-79408571D01*
X70673571Y-79640000D01*
X71506429Y-79640000D01*
X71745000Y-79401429D01*
X71745000Y-78881429D01*
X71520714Y-78655714D01*
X70776429Y-78655714D01*
X70630714Y-78511429D01*
X70630714Y-78187143D01*
X70775000Y-78044286D01*
X71399286Y-78044286D01*
X71537857Y-78180000D01*
X71537857Y-78302857D01*
X71720714Y-78302857D01*
X71720714Y-78091429D01*
X71489286Y-77860000D01*
X70685000Y-77860000D01*
X70446429Y-78098571D01*
X70446429Y-78598571D01*
X70687857Y-78841429D01*
X71430714Y-78841429D01*
X71560714Y-78967143D01*
X71560714Y-79312857D01*
X71416429Y-79457143D01*
X70763571Y-79457143D01*
X70626429Y-79320000D01*
X70626429Y-79197143D01*
X70442143Y-79197143D01*
X70327857Y-79197143D01*
X70327857Y-79095714D01*
X70732143Y-79095714D01*
X70732143Y-79258571D01*
X70819286Y-79345714D01*
X71367857Y-79345714D01*
X71455000Y-79258571D01*
X71455000Y-79038571D01*
X71367857Y-78951429D01*
X70630714Y-78951429D01*
X70336429Y-78657143D01*
X70336429Y-78044286D01*
X70630714Y-77750000D01*
X71537857Y-77750000D01*
X71832143Y-78044286D01*
G37*
D13*
%TO.C,C4*%
X91630000Y-69320000D02*
X91967000Y-69320000D01*
X91630000Y-74560000D02*
X91630000Y-69320000D01*
X91967000Y-74560000D02*
X91630000Y-74560000D01*
X94033000Y-69320000D02*
X94370000Y-69320000D01*
X94370000Y-69320000D02*
X94370000Y-74560000D01*
X94370000Y-74560000D02*
X94033000Y-74560000D01*
%TO.C,~{Clock}1*%
X158200000Y-127750000D02*
G75*
G02*
X156800000Y-127750000I-700000J0D01*
G01*
X156800000Y-127750000D02*
G75*
G02*
X158200000Y-127750000I700000J0D01*
G01*
%TO.C,~{LoadZH}1*%
X88700000Y-108750000D02*
G75*
G02*
X87300000Y-108750000I-700000J0D01*
G01*
X87300000Y-108750000D02*
G75*
G02*
X88700000Y-108750000I700000J0D01*
G01*
%TO.C,R7*%
X150880000Y-119420000D02*
X150880000Y-125960000D01*
X150880000Y-125960000D02*
X151210000Y-125960000D01*
X151210000Y-119420000D02*
X150880000Y-119420000D01*
X153290000Y-119420000D02*
X153620000Y-119420000D01*
X153620000Y-119420000D02*
X153620000Y-125960000D01*
X153620000Y-125960000D02*
X153290000Y-125960000D01*
%TO.C,C3*%
X91630000Y-92320000D02*
X91967000Y-92320000D01*
X91630000Y-97560000D02*
X91630000Y-92320000D01*
X91967000Y-97560000D02*
X91630000Y-97560000D01*
X94033000Y-92320000D02*
X94370000Y-92320000D01*
X94370000Y-92320000D02*
X94370000Y-97560000D01*
X94370000Y-97560000D02*
X94033000Y-97560000D01*
%TO.C,C9*%
X125260000Y-60570000D02*
X125597000Y-60570000D01*
X125260000Y-65810000D02*
X125260000Y-60570000D01*
X125597000Y-65810000D02*
X125260000Y-65810000D01*
X127663000Y-60570000D02*
X128000000Y-60570000D01*
X128000000Y-60570000D02*
X128000000Y-65810000D01*
X128000000Y-65810000D02*
X127663000Y-65810000D01*
%TO.C,C1*%
X91630000Y-103820000D02*
X91967000Y-103820000D01*
X91630000Y-109060000D02*
X91630000Y-103820000D01*
X91967000Y-109060000D02*
X91630000Y-109060000D01*
X94033000Y-103820000D02*
X94370000Y-103820000D01*
X94370000Y-103820000D02*
X94370000Y-109060000D01*
X94370000Y-109060000D02*
X94033000Y-109060000D01*
%TO.C,U2*%
X104990000Y-48500000D02*
X104990000Y-49750000D01*
X104990000Y-51750000D02*
X104990000Y-53000000D01*
X104990000Y-53000000D02*
X122890000Y-53000000D01*
X122890000Y-48500000D02*
X104990000Y-48500000D01*
X122890000Y-53000000D02*
X122890000Y-48500000D01*
X104930000Y-56000000D02*
X122950000Y-56000000D01*
X122950000Y-45500000D01*
X104930000Y-45500000D01*
X104930000Y-56000000D01*
X104990000Y-49750000D02*
G75*
G02*
X104990000Y-51750000I0J-1000000D01*
G01*
%TO.C,~{ReadYH}1*%
X91950000Y-100000000D02*
G75*
G02*
X90550000Y-100000000I-700000J0D01*
G01*
X90550000Y-100000000D02*
G75*
G02*
X91950000Y-100000000I700000J0D01*
G01*
%TO.C,C13*%
X125260000Y-74691667D02*
X125597000Y-74691667D01*
X125260000Y-79931667D02*
X125260000Y-74691667D01*
X125597000Y-79931667D02*
X125260000Y-79931667D01*
X127663000Y-74691667D02*
X128000000Y-74691667D01*
X128000000Y-74691667D02*
X128000000Y-79931667D01*
X128000000Y-79931667D02*
X127663000Y-79931667D01*
%TO.C,~{LoadXL}1*%
X127450000Y-55000000D02*
G75*
G02*
X126050000Y-55000000I-700000J0D01*
G01*
X126050000Y-55000000D02*
G75*
G02*
X127450000Y-55000000I700000J0D01*
G01*
%TO.C,C12*%
X125230000Y-118760000D02*
X125567000Y-118760000D01*
X125230000Y-124000000D02*
X125230000Y-118760000D01*
X125567000Y-124000000D02*
X125230000Y-124000000D01*
X127633000Y-118760000D02*
X127970000Y-118760000D01*
X127970000Y-118760000D02*
X127970000Y-124000000D01*
X127970000Y-124000000D02*
X127633000Y-124000000D01*
%TO.C,XL1*%
X131165000Y-62720000D02*
X131165000Y-63970000D01*
X131165000Y-65970000D02*
X131165000Y-67220000D01*
X131165000Y-67220000D02*
X156685000Y-67220000D01*
X156685000Y-62720000D02*
X131165000Y-62720000D01*
X156685000Y-67220000D02*
X156685000Y-62720000D01*
X131105000Y-70220000D02*
X156745000Y-70220000D01*
X156745000Y-59720000D01*
X131105000Y-59720000D01*
X131105000Y-70220000D01*
X131165000Y-63970000D02*
G75*
G02*
X131165000Y-65970000I0J-1000000D01*
G01*
%TO.C,U8*%
X131165000Y-90958333D02*
X131165000Y-92208333D01*
X131165000Y-94208333D02*
X131165000Y-95458333D01*
X131165000Y-95458333D02*
X156685000Y-95458333D01*
X156685000Y-90958333D02*
X131165000Y-90958333D01*
X156685000Y-95458333D02*
X156685000Y-90958333D01*
X131105000Y-98458333D02*
X156745000Y-98458333D01*
X156745000Y-87958333D01*
X131105000Y-87958333D01*
X131105000Y-98458333D01*
X131165000Y-92208333D02*
G75*
G02*
X131165000Y-94208333I0J-1000000D01*
G01*
%TO.C,U4*%
X129420000Y-120440000D02*
X129420000Y-121690000D01*
X129420000Y-123690000D02*
X129420000Y-124940000D01*
X129420000Y-124940000D02*
X149860000Y-124940000D01*
X149860000Y-120440000D02*
X129420000Y-120440000D01*
X149860000Y-124940000D02*
X149860000Y-120440000D01*
X129360000Y-127940000D02*
X149920000Y-127940000D01*
X149920000Y-117440000D01*
X129360000Y-117440000D01*
X129360000Y-127940000D01*
X129420000Y-121690000D02*
G75*
G02*
X129420000Y-123690000I0J-1000000D01*
G01*
%TO.C,C15*%
X125260000Y-88808333D02*
X125597000Y-88808333D01*
X125260000Y-94048333D02*
X125260000Y-88808333D01*
X125597000Y-94048333D02*
X125260000Y-94048333D01*
X127663000Y-88808333D02*
X128000000Y-88808333D01*
X128000000Y-88808333D02*
X128000000Y-94048333D01*
X128000000Y-94048333D02*
X127663000Y-94048333D01*
%TO.C,U1*%
X80470000Y-48500000D02*
X80470000Y-49750000D01*
X80470000Y-51750000D02*
X80470000Y-53000000D01*
X80470000Y-53000000D02*
X98370000Y-53000000D01*
X98370000Y-48500000D02*
X80470000Y-48500000D01*
X98370000Y-53000000D02*
X98370000Y-48500000D01*
X80410000Y-56000000D02*
X98430000Y-56000000D01*
X98430000Y-45500000D01*
X80410000Y-45500000D01*
X80410000Y-56000000D01*
X80470000Y-49750000D02*
G75*
G02*
X80470000Y-51750000I0J-1000000D01*
G01*
D10*
%TO.C,kibuzzard-691DE1A7*%
G36*
X156402857Y-118222857D02*
G01*
X155908571Y-118222857D01*
X155381578Y-117472857D01*
X155525714Y-117472857D01*
X155982857Y-118135714D01*
X156332857Y-118135714D01*
X156782857Y-117472857D01*
X156557143Y-117472857D01*
X156225714Y-117984286D01*
X156088571Y-117984286D01*
X155751429Y-117472857D01*
X155525714Y-117472857D01*
X155381578Y-117472857D01*
X155304286Y-117362857D01*
X155817143Y-117362857D01*
X156155714Y-117880000D01*
X156487143Y-117362857D01*
X157001429Y-117362857D01*
X156924867Y-117472857D01*
X156402857Y-118222857D01*
G37*
G36*
X156998571Y-116801429D02*
G01*
X156704286Y-117095714D01*
X156317143Y-117095714D01*
X156317143Y-116692857D01*
X156507143Y-116692857D01*
X156594286Y-116605714D01*
X156594286Y-116267143D01*
X156507143Y-116180000D01*
X156288571Y-116180000D01*
X156201429Y-116267143D01*
X156201429Y-116575714D01*
X155798571Y-116575714D01*
X155798571Y-116268571D01*
X155702857Y-116180000D01*
X155490000Y-116180000D01*
X155402857Y-116267143D01*
X155402857Y-116605714D01*
X155490000Y-116692857D01*
X155680000Y-116692857D01*
X155680000Y-117095714D01*
X155292857Y-117095714D01*
X154998571Y-116801429D01*
X154998571Y-116124286D01*
X155105714Y-116124286D01*
X155105714Y-116747143D01*
X155344286Y-116987143D01*
X155582857Y-116987143D01*
X155582857Y-116802857D01*
X155432857Y-116802857D01*
X155290000Y-116658571D01*
X155290000Y-116214286D01*
X155432857Y-116068571D01*
X155757143Y-116068571D01*
X155907143Y-116217143D01*
X155907143Y-116482857D01*
X156090000Y-116482857D01*
X156090000Y-116217143D01*
X156237143Y-116068571D01*
X156557143Y-116068571D01*
X156701429Y-116214286D01*
X156701429Y-116658571D01*
X156557143Y-116802857D01*
X156412857Y-116802857D01*
X156412857Y-116987143D01*
X156645714Y-116987143D01*
X156884286Y-116747143D01*
X156884286Y-116124286D01*
X156645714Y-115885714D01*
X156148571Y-115885714D01*
X156000000Y-116035714D01*
X155848571Y-115885714D01*
X155344286Y-115885714D01*
X155105714Y-116124286D01*
X154998571Y-116124286D01*
X154998571Y-116071429D01*
X155292857Y-115777143D01*
X155908571Y-115777143D01*
X155998571Y-115867143D01*
X156091429Y-115777143D01*
X156704286Y-115777143D01*
X156998571Y-116071429D01*
X156998571Y-116747143D01*
X156998571Y-116801429D01*
G37*
D13*
%TO.C,YL1*%
X95240000Y-82500000D02*
X95240000Y-83750000D01*
X95240000Y-85750000D02*
X95240000Y-87000000D01*
X95240000Y-87000000D02*
X120760000Y-87000000D01*
X120760000Y-82500000D02*
X95240000Y-82500000D01*
X120760000Y-87000000D02*
X120760000Y-82500000D01*
X95180000Y-90000000D02*
X120820000Y-90000000D01*
X120820000Y-79500000D01*
X95180000Y-79500000D01*
X95180000Y-90000000D01*
X95240000Y-83750000D02*
G75*
G02*
X95240000Y-85750000I0J-1000000D01*
G01*
%TO.C,~{LoadYH}1*%
X92700000Y-44000000D02*
G75*
G02*
X91300000Y-44000000I-700000J0D01*
G01*
X91300000Y-44000000D02*
G75*
G02*
X92700000Y-44000000I700000J0D01*
G01*
%TO.C,~{ReadYL}1*%
X90700000Y-91750000D02*
G75*
G02*
X89300000Y-91750000I-700000J0D01*
G01*
X89300000Y-91750000D02*
G75*
G02*
X90700000Y-91750000I700000J0D01*
G01*
%TO.C,~{ReadXH}1*%
X90700000Y-83000000D02*
G75*
G02*
X89300000Y-83000000I-700000J0D01*
G01*
X89300000Y-83000000D02*
G75*
G02*
X90700000Y-83000000I700000J0D01*
G01*
D10*
%TO.C,kibuzzard-691DE1B7*%
G36*
X65528571Y-45660000D02*
G01*
X64738571Y-45660000D01*
X64625714Y-45660000D01*
X64625714Y-45561429D01*
X64738571Y-45561429D01*
X65424286Y-45561429D01*
X65424286Y-45398571D01*
X64738571Y-45398571D01*
X64738571Y-45561429D01*
X64625714Y-45561429D01*
X64625714Y-45294286D01*
X65528571Y-45294286D01*
X65528571Y-45660000D01*
G37*
G36*
X67180000Y-46705714D02*
G01*
X65932857Y-46705714D01*
X65820000Y-46705714D01*
X65820000Y-46601429D01*
X65932857Y-46601429D01*
X67075714Y-46601429D01*
X67075714Y-46438571D01*
X65932857Y-46438571D01*
X65932857Y-46601429D01*
X65820000Y-46601429D01*
X65820000Y-46340000D01*
X67180000Y-46340000D01*
X67180000Y-46705714D01*
G37*
G36*
X68374286Y-45660000D02*
G01*
X67584286Y-45660000D01*
X67471429Y-45660000D01*
X67471429Y-45561429D01*
X67584286Y-45561429D01*
X68270000Y-45561429D01*
X68270000Y-45398571D01*
X67584286Y-45398571D01*
X67584286Y-45561429D01*
X67471429Y-45561429D01*
X67471429Y-45294286D01*
X68374286Y-45294286D01*
X68374286Y-45660000D01*
G37*
D13*
%TO.C,~{RightXL}1*%
X127700000Y-97500000D02*
G75*
G02*
X126300000Y-97500000I-700000J0D01*
G01*
X126300000Y-97500000D02*
G75*
G02*
X127700000Y-97500000I700000J0D01*
G01*
%TO.C,U3*%
X129510000Y-48500000D02*
X129510000Y-49750000D01*
X129510000Y-51750000D02*
X129510000Y-53000000D01*
X129510000Y-53000000D02*
X147410000Y-53000000D01*
X147410000Y-48500000D02*
X129510000Y-48500000D01*
X147410000Y-53000000D02*
X147410000Y-48500000D01*
X129450000Y-56000000D02*
X147470000Y-56000000D01*
X147470000Y-45500000D01*
X129450000Y-45500000D01*
X129450000Y-56000000D01*
X129510000Y-49750000D02*
G75*
G02*
X129510000Y-51750000I0J-1000000D01*
G01*
%TO.C,Power1*%
X81700000Y-126750000D02*
G75*
G02*
X80300000Y-126750000I-700000J0D01*
G01*
X80300000Y-126750000D02*
G75*
G02*
X81700000Y-126750000I700000J0D01*
G01*
%TO.C,~{LoadYL}1*%
X93200000Y-77750000D02*
G75*
G02*
X91800000Y-77750000I-700000J0D01*
G01*
X91800000Y-77750000D02*
G75*
G02*
X93200000Y-77750000I700000J0D01*
G01*
%TO.C,U6*%
X131165000Y-76841667D02*
X131165000Y-78091667D01*
X131165000Y-80091667D02*
X131165000Y-81341667D01*
X131165000Y-81341667D02*
X156685000Y-81341667D01*
X156685000Y-76841667D02*
X131165000Y-76841667D01*
X156685000Y-81341667D02*
X156685000Y-76841667D01*
X131105000Y-84341667D02*
X156745000Y-84341667D01*
X156745000Y-73841667D01*
X131105000Y-73841667D01*
X131105000Y-84341667D01*
X131165000Y-78091667D02*
G75*
G02*
X131165000Y-80091667I0J-1000000D01*
G01*
%TO.C,U7*%
X131165000Y-105075000D02*
X131165000Y-106325000D01*
X131165000Y-108325000D02*
X131165000Y-109575000D01*
X131165000Y-109575000D02*
X156685000Y-109575000D01*
X156685000Y-105075000D02*
X131165000Y-105075000D01*
X156685000Y-109575000D02*
X156685000Y-105075000D01*
X131105000Y-112575000D02*
X156745000Y-112575000D01*
X156745000Y-102075000D01*
X131105000Y-102075000D01*
X131105000Y-112575000D01*
X131165000Y-106325000D02*
G75*
G02*
X131165000Y-108325000I0J-1000000D01*
G01*
%TD*%
M02*
