%TF.GenerationSoftware,KiCad,Pcbnew,9.0.5*%
%TF.CreationDate,2025-11-19T18:18:20+02:00*%
%TF.ProjectId,register_file_accum,72656769-7374-4657-925f-66696c655f61,rev?*%
%TF.SameCoordinates,Original*%
%TF.FileFunction,Soldermask,Top*%
%TF.FilePolarity,Negative*%
%FSLAX46Y46*%
G04 Gerber Fmt 4.6, Leading zero omitted, Abs format (unit mm)*
G04 Created by KiCad (PCBNEW 9.0.5) date 2025-11-19 18:18:20*
%MOMM*%
%LPD*%
G01*
G04 APERTURE LIST*
G04 Aperture macros list*
%AMRoundRect*
0 Rectangle with rounded corners*
0 $1 Rounding radius*
0 $2 $3 $4 $5 $6 $7 $8 $9 X,Y pos of 4 corners*
0 Add a 4 corners polygon primitive as box body*
4,1,4,$2,$3,$4,$5,$6,$7,$8,$9,$2,$3,0*
0 Add four circle primitives for the rounded corners*
1,1,$1+$1,$2,$3*
1,1,$1+$1,$4,$5*
1,1,$1+$1,$6,$7*
1,1,$1+$1,$8,$9*
0 Add four rect primitives between the rounded corners*
20,1,$1+$1,$2,$3,$4,$5,0*
20,1,$1+$1,$4,$5,$6,$7,0*
20,1,$1+$1,$6,$7,$8,$9,0*
20,1,$1+$1,$8,$9,$2,$3,0*%
G04 Aperture macros list end*
%ADD10C,1.600000*%
%ADD11C,1.000000*%
%ADD12RoundRect,0.250000X0.550000X-0.950000X0.550000X0.950000X-0.550000X0.950000X-0.550000X-0.950000X0*%
%ADD13O,1.600000X2.400000*%
%ADD14R,0.700000X4.300000*%
%ADD15R,0.700000X3.200000*%
G04 APERTURE END LIST*
D10*
%TO.C,C7*%
X73275000Y-130646036D03*
X73275000Y-128146036D03*
%TD*%
D11*
%TO.C,~{LoadXH}1*%
X92750000Y-58250000D03*
%TD*%
D12*
%TO.C,XH1*%
X96570000Y-77060000D03*
D13*
X99110000Y-77060000D03*
X101650000Y-77060000D03*
X104190000Y-77060000D03*
X106730000Y-77060000D03*
X109270000Y-77060000D03*
X111810000Y-77060000D03*
X114350000Y-77060000D03*
X116890000Y-77060000D03*
X119430000Y-77060000D03*
X119430000Y-69440000D03*
X116890000Y-69440000D03*
X114350000Y-69440000D03*
X111810000Y-69440000D03*
X109270000Y-69440000D03*
X106730000Y-69440000D03*
X104190000Y-69440000D03*
X101650000Y-69440000D03*
X99110000Y-69440000D03*
X96570000Y-69440000D03*
%TD*%
D10*
%TO.C,C10*%
X78050000Y-46940000D03*
X78050000Y-51940000D03*
%TD*%
%TO.C,C6*%
X102200000Y-46940000D03*
X102200000Y-51940000D03*
%TD*%
%TO.C,R6*%
X150380000Y-47000000D03*
X158000000Y-47000000D03*
%TD*%
D12*
%TO.C,YH1*%
X96570000Y-100060000D03*
D13*
X99110000Y-100060000D03*
X101650000Y-100060000D03*
X104190000Y-100060000D03*
X106730000Y-100060000D03*
X109270000Y-100060000D03*
X111810000Y-100060000D03*
X114350000Y-100060000D03*
X116890000Y-100060000D03*
X119430000Y-100060000D03*
X119430000Y-92440000D03*
X116890000Y-92440000D03*
X114350000Y-92440000D03*
X111810000Y-92440000D03*
X109270000Y-92440000D03*
X106730000Y-92440000D03*
X104190000Y-92440000D03*
X101650000Y-92440000D03*
X99110000Y-92440000D03*
X96570000Y-92440000D03*
%TD*%
D11*
%TO.C,~{LoadZL}1*%
X88750000Y-96750000D03*
%TD*%
D14*
%TO.C,BC1*%
X71275000Y-138500000D03*
X72275000Y-138500000D03*
X73275000Y-138500000D03*
X74275000Y-138500000D03*
X75275000Y-138500000D03*
X76275000Y-138500000D03*
X77275000Y-138500000D03*
X78275000Y-138500000D03*
X79275000Y-138500000D03*
X80275000Y-138500000D03*
X81275000Y-138500000D03*
X84275000Y-138500000D03*
X85275000Y-138500000D03*
X86275000Y-138500000D03*
X87275000Y-138500000D03*
X88275000Y-138500000D03*
X89275000Y-138500000D03*
X90275000Y-138500000D03*
X91275000Y-138500000D03*
X92275000Y-138500000D03*
X93275000Y-138500000D03*
X94275000Y-138500000D03*
X95275000Y-138500000D03*
X96275000Y-138500000D03*
X97275000Y-138500000D03*
X98275000Y-138500000D03*
X99275000Y-138500000D03*
X100275000Y-138500000D03*
X101275000Y-138500000D03*
X102275000Y-138500000D03*
X103275000Y-138500000D03*
X104275000Y-138500000D03*
X105275000Y-138500000D03*
X106275000Y-138500000D03*
X107275000Y-138500000D03*
X108275000Y-138500000D03*
X109275000Y-138500000D03*
X110275000Y-138500000D03*
X111275000Y-138500000D03*
X112275000Y-138500000D03*
X113275000Y-138500000D03*
X114275000Y-138500000D03*
X115275000Y-138500000D03*
X116275000Y-138500000D03*
X117275000Y-138500000D03*
X118275000Y-138500000D03*
X119275000Y-138500000D03*
X120275000Y-138500000D03*
X121275000Y-138500000D03*
X122275000Y-138500000D03*
X123275000Y-138500000D03*
X124275000Y-138500000D03*
X125275000Y-138500000D03*
X126275000Y-138500000D03*
X127275000Y-138500000D03*
X128275000Y-138500000D03*
X129275000Y-138500000D03*
X130275000Y-138500000D03*
X131275000Y-138500000D03*
X132275000Y-138500000D03*
X133275000Y-138500000D03*
X134275000Y-138500000D03*
X135275000Y-138500000D03*
X136275000Y-138500000D03*
X137275000Y-138500000D03*
X138275000Y-138500000D03*
X139275000Y-138500000D03*
X140275000Y-138500000D03*
X141275000Y-138500000D03*
X142275000Y-138500000D03*
X143275000Y-138500000D03*
X144275000Y-138500000D03*
X145275000Y-138500000D03*
X146275000Y-138500000D03*
X147275000Y-138500000D03*
X148275000Y-138500000D03*
X149275000Y-138500000D03*
X150275000Y-138500000D03*
X151275000Y-138500000D03*
X152275000Y-138500000D03*
D15*
X153275000Y-137950000D03*
D14*
X154275000Y-138500000D03*
%TD*%
D11*
%TO.C,~{ReadZL}1*%
X91750000Y-111750000D03*
%TD*%
%TO.C,~{PassXL}1*%
X127250000Y-83000000D03*
%TD*%
%TO.C,~{ReadZH}1*%
X96500000Y-126000000D03*
%TD*%
%TO.C,~{LeftXL}1*%
X128250000Y-110750000D03*
%TD*%
D10*
%TO.C,C11*%
X126600000Y-46940000D03*
X126600000Y-51940000D03*
%TD*%
%TO.C,C14*%
X126630000Y-103045000D03*
X126630000Y-108045000D03*
%TD*%
D12*
%TO.C,ZL1*%
X96570000Y-111560000D03*
D13*
X99110000Y-111560000D03*
X101650000Y-111560000D03*
X104190000Y-111560000D03*
X106730000Y-111560000D03*
X109270000Y-111560000D03*
X111810000Y-111560000D03*
X114350000Y-111560000D03*
X116890000Y-111560000D03*
X119430000Y-111560000D03*
X119430000Y-103940000D03*
X116890000Y-103940000D03*
X114350000Y-103940000D03*
X111810000Y-103940000D03*
X109270000Y-103940000D03*
X106730000Y-103940000D03*
X104190000Y-103940000D03*
X101650000Y-103940000D03*
X99110000Y-103940000D03*
X96570000Y-103940000D03*
%TD*%
D10*
%TO.C,R5*%
X121275000Y-66185000D03*
X121275000Y-58565000D03*
%TD*%
D12*
%TO.C,ZH1*%
X96570000Y-123060000D03*
D13*
X99110000Y-123060000D03*
X101650000Y-123060000D03*
X104190000Y-123060000D03*
X106730000Y-123060000D03*
X109270000Y-123060000D03*
X111810000Y-123060000D03*
X114350000Y-123060000D03*
X116890000Y-123060000D03*
X119430000Y-123060000D03*
X119430000Y-115440000D03*
X116890000Y-115440000D03*
X114350000Y-115440000D03*
X111810000Y-115440000D03*
X109270000Y-115440000D03*
X106730000Y-115440000D03*
X104190000Y-115440000D03*
X101650000Y-115440000D03*
X99110000Y-115440000D03*
X96570000Y-115440000D03*
%TD*%
D10*
%TO.C,C2*%
X93000000Y-85940000D03*
X93000000Y-80940000D03*
%TD*%
%TO.C,C5*%
X93000000Y-120440000D03*
X93000000Y-115440000D03*
%TD*%
%TO.C,C4*%
X93000000Y-74440000D03*
X93000000Y-69440000D03*
%TD*%
D11*
%TO.C,~{Clock}1*%
X157500000Y-127750000D03*
%TD*%
%TO.C,~{LoadZH}1*%
X88000000Y-108750000D03*
%TD*%
D10*
%TO.C,R7*%
X152250000Y-118880000D03*
X152250000Y-126500000D03*
%TD*%
%TO.C,C3*%
X93000000Y-97440000D03*
X93000000Y-92440000D03*
%TD*%
%TO.C,C9*%
X126630000Y-60690000D03*
X126630000Y-65690000D03*
%TD*%
%TO.C,C1*%
X93000000Y-108940000D03*
X93000000Y-103940000D03*
%TD*%
D12*
%TO.C,U2*%
X106320000Y-54560000D03*
D13*
X108860000Y-54560000D03*
X111400000Y-54560000D03*
X113940000Y-54560000D03*
X116480000Y-54560000D03*
X119020000Y-54560000D03*
X121560000Y-54560000D03*
X121560000Y-46940000D03*
X119020000Y-46940000D03*
X116480000Y-46940000D03*
X113940000Y-46940000D03*
X111400000Y-46940000D03*
X108860000Y-46940000D03*
X106320000Y-46940000D03*
%TD*%
D11*
%TO.C,~{ReadYH}1*%
X91250000Y-100000000D03*
%TD*%
D10*
%TO.C,C13*%
X126630000Y-74811667D03*
X126630000Y-79811667D03*
%TD*%
D11*
%TO.C,~{LoadXL}1*%
X126750000Y-55000000D03*
%TD*%
D10*
%TO.C,C12*%
X126600000Y-118880000D03*
X126600000Y-123880000D03*
%TD*%
D12*
%TO.C,XL1*%
X132495000Y-68780000D03*
D13*
X135035000Y-68780000D03*
X137575000Y-68780000D03*
X140115000Y-68780000D03*
X142655000Y-68780000D03*
X145195000Y-68780000D03*
X147735000Y-68780000D03*
X150275000Y-68780000D03*
X152815000Y-68780000D03*
X155355000Y-68780000D03*
X155355000Y-61160000D03*
X152815000Y-61160000D03*
X150275000Y-61160000D03*
X147735000Y-61160000D03*
X145195000Y-61160000D03*
X142655000Y-61160000D03*
X140115000Y-61160000D03*
X137575000Y-61160000D03*
X135035000Y-61160000D03*
X132495000Y-61160000D03*
%TD*%
D12*
%TO.C,U8*%
X132495000Y-97018333D03*
D13*
X135035000Y-97018333D03*
X137575000Y-97018333D03*
X140115000Y-97018333D03*
X142655000Y-97018333D03*
X145195000Y-97018333D03*
X147735000Y-97018333D03*
X150275000Y-97018333D03*
X152815000Y-97018333D03*
X155355000Y-97018333D03*
X155355000Y-89398333D03*
X152815000Y-89398333D03*
X150275000Y-89398333D03*
X147735000Y-89398333D03*
X145195000Y-89398333D03*
X142655000Y-89398333D03*
X140115000Y-89398333D03*
X137575000Y-89398333D03*
X135035000Y-89398333D03*
X132495000Y-89398333D03*
%TD*%
D12*
%TO.C,U4*%
X130750000Y-126500000D03*
D13*
X133290000Y-126500000D03*
X135830000Y-126500000D03*
X138370000Y-126500000D03*
X140910000Y-126500000D03*
X143450000Y-126500000D03*
X145990000Y-126500000D03*
X148530000Y-126500000D03*
X148530000Y-118880000D03*
X145990000Y-118880000D03*
X143450000Y-118880000D03*
X140910000Y-118880000D03*
X138370000Y-118880000D03*
X135830000Y-118880000D03*
X133290000Y-118880000D03*
X130750000Y-118880000D03*
%TD*%
D10*
%TO.C,C15*%
X126630000Y-88928333D03*
X126630000Y-93928333D03*
%TD*%
D12*
%TO.C,U1*%
X81800000Y-54560000D03*
D13*
X84340000Y-54560000D03*
X86880000Y-54560000D03*
X89420000Y-54560000D03*
X91960000Y-54560000D03*
X94500000Y-54560000D03*
X97040000Y-54560000D03*
X97040000Y-46940000D03*
X94500000Y-46940000D03*
X91960000Y-46940000D03*
X89420000Y-46940000D03*
X86880000Y-46940000D03*
X84340000Y-46940000D03*
X81800000Y-46940000D03*
%TD*%
D12*
%TO.C,YL1*%
X96570000Y-88560000D03*
D13*
X99110000Y-88560000D03*
X101650000Y-88560000D03*
X104190000Y-88560000D03*
X106730000Y-88560000D03*
X109270000Y-88560000D03*
X111810000Y-88560000D03*
X114350000Y-88560000D03*
X116890000Y-88560000D03*
X119430000Y-88560000D03*
X119430000Y-80940000D03*
X116890000Y-80940000D03*
X114350000Y-80940000D03*
X111810000Y-80940000D03*
X109270000Y-80940000D03*
X106730000Y-80940000D03*
X104190000Y-80940000D03*
X101650000Y-80940000D03*
X99110000Y-80940000D03*
X96570000Y-80940000D03*
%TD*%
D11*
%TO.C,~{LoadYH}1*%
X92000000Y-44000000D03*
%TD*%
%TO.C,~{ReadYL}1*%
X90000000Y-91750000D03*
%TD*%
%TO.C,~{ReadXH}1*%
X90000000Y-83000000D03*
%TD*%
%TO.C,~{RightXL}1*%
X127000000Y-97500000D03*
%TD*%
D12*
%TO.C,U3*%
X130840000Y-54560000D03*
D13*
X133380000Y-54560000D03*
X135920000Y-54560000D03*
X138460000Y-54560000D03*
X141000000Y-54560000D03*
X143540000Y-54560000D03*
X146080000Y-54560000D03*
X146080000Y-46940000D03*
X143540000Y-46940000D03*
X141000000Y-46940000D03*
X138460000Y-46940000D03*
X135920000Y-46940000D03*
X133380000Y-46940000D03*
X130840000Y-46940000D03*
%TD*%
D11*
%TO.C,Power1*%
X81000000Y-126750000D03*
%TD*%
%TO.C,~{LoadYL}1*%
X92500000Y-77750000D03*
%TD*%
D12*
%TO.C,U6*%
X132495000Y-82901667D03*
D13*
X135035000Y-82901667D03*
X137575000Y-82901667D03*
X140115000Y-82901667D03*
X142655000Y-82901667D03*
X145195000Y-82901667D03*
X147735000Y-82901667D03*
X150275000Y-82901667D03*
X152815000Y-82901667D03*
X155355000Y-82901667D03*
X155355000Y-75281667D03*
X152815000Y-75281667D03*
X150275000Y-75281667D03*
X147735000Y-75281667D03*
X145195000Y-75281667D03*
X142655000Y-75281667D03*
X140115000Y-75281667D03*
X137575000Y-75281667D03*
X135035000Y-75281667D03*
X132495000Y-75281667D03*
%TD*%
D12*
%TO.C,U7*%
X132495000Y-111135000D03*
D13*
X135035000Y-111135000D03*
X137575000Y-111135000D03*
X140115000Y-111135000D03*
X142655000Y-111135000D03*
X145195000Y-111135000D03*
X147735000Y-111135000D03*
X150275000Y-111135000D03*
X152815000Y-111135000D03*
X155355000Y-111135000D03*
X155355000Y-103515000D03*
X152815000Y-103515000D03*
X150275000Y-103515000D03*
X147735000Y-103515000D03*
X145195000Y-103515000D03*
X142655000Y-103515000D03*
X140115000Y-103515000D03*
X137575000Y-103515000D03*
X135035000Y-103515000D03*
X132495000Y-103515000D03*
%TD*%
M02*
