%TF.GenerationSoftware,KiCad,Pcbnew,9.0.5*%
%TF.CreationDate,2025-11-19T18:12:50+02:00*%
%TF.ProjectId,core_2,636f7265-5f32-42e6-9b69-6361645f7063,rev?*%
%TF.SameCoordinates,Original*%
%TF.FileFunction,Soldermask,Top*%
%TF.FilePolarity,Negative*%
%FSLAX46Y46*%
G04 Gerber Fmt 4.6, Leading zero omitted, Abs format (unit mm)*
G04 Created by KiCad (PCBNEW 9.0.5) date 2025-11-19 18:12:50*
%MOMM*%
%LPD*%
G01*
G04 APERTURE LIST*
G04 Aperture macros list*
%AMRoundRect*
0 Rectangle with rounded corners*
0 $1 Rounding radius*
0 $2 $3 $4 $5 $6 $7 $8 $9 X,Y pos of 4 corners*
0 Add a 4 corners polygon primitive as box body*
4,1,4,$2,$3,$4,$5,$6,$7,$8,$9,$2,$3,0*
0 Add four circle primitives for the rounded corners*
1,1,$1+$1,$2,$3*
1,1,$1+$1,$4,$5*
1,1,$1+$1,$6,$7*
1,1,$1+$1,$8,$9*
0 Add four rect primitives between the rounded corners*
20,1,$1+$1,$2,$3,$4,$5,0*
20,1,$1+$1,$4,$5,$6,$7,0*
20,1,$1+$1,$6,$7,$8,$9,0*
20,1,$1+$1,$8,$9,$2,$3,0*%
G04 Aperture macros list end*
%ADD10C,1.000000*%
%ADD11RoundRect,0.250000X-0.550000X0.950000X-0.550000X-0.950000X0.550000X-0.950000X0.550000X0.950000X0*%
%ADD12O,1.600000X2.400000*%
%ADD13C,1.600000*%
%ADD14RoundRect,0.250000X0.550000X-0.950000X0.550000X0.950000X-0.550000X0.950000X-0.550000X-0.950000X0*%
%ADD15RoundRect,0.250000X-0.950000X-0.550000X0.950000X-0.550000X0.950000X0.550000X-0.950000X0.550000X0*%
%ADD16O,2.400000X1.600000*%
%ADD17R,0.700000X4.300000*%
%ADD18R,0.700000X3.200000*%
G04 APERTURE END LIST*
D10*
%TO.C,SignO1*%
X248070000Y-38380000D03*
%TD*%
D11*
%TO.C,TABLE7*%
X225000000Y-51000000D03*
D12*
X222460000Y-51000000D03*
X219920000Y-51000000D03*
X217380000Y-51000000D03*
X214840000Y-51000000D03*
X212300000Y-51000000D03*
X209760000Y-51000000D03*
X207220000Y-51000000D03*
X204680000Y-51000000D03*
X202140000Y-51000000D03*
X199600000Y-51000000D03*
X197060000Y-51000000D03*
X194520000Y-51000000D03*
X191980000Y-51000000D03*
X191980000Y-66240000D03*
X194520000Y-66240000D03*
X197060000Y-66240000D03*
X199600000Y-66240000D03*
X202140000Y-66240000D03*
X204680000Y-66240000D03*
X207220000Y-66240000D03*
X209760000Y-66240000D03*
X212300000Y-66240000D03*
X214840000Y-66240000D03*
X217380000Y-66240000D03*
X219920000Y-66240000D03*
X222460000Y-66240000D03*
X225000000Y-66240000D03*
%TD*%
D13*
%TO.C,C4*%
X196850000Y-100300000D03*
X196850000Y-97800000D03*
%TD*%
D14*
%TO.C,U2*%
X236570000Y-49810000D03*
D12*
X239110000Y-49810000D03*
X241650000Y-49810000D03*
X244190000Y-49810000D03*
X246730000Y-49810000D03*
X249270000Y-49810000D03*
X251810000Y-49810000D03*
X254350000Y-49810000D03*
X256890000Y-49810000D03*
X259430000Y-49810000D03*
X259430000Y-42190000D03*
X256890000Y-42190000D03*
X254350000Y-42190000D03*
X251810000Y-42190000D03*
X249270000Y-42190000D03*
X246730000Y-42190000D03*
X244190000Y-42190000D03*
X241650000Y-42190000D03*
X239110000Y-42190000D03*
X236570000Y-42190000D03*
%TD*%
D10*
%TO.C,~{CLK}1*%
X281000000Y-98500000D03*
%TD*%
%TO.C,~{OUT_FR}1*%
X190150000Y-73675000D03*
%TD*%
D13*
%TO.C,C8*%
X232600000Y-49000000D03*
X232600000Y-54000000D03*
%TD*%
%TO.C,C17*%
X250500000Y-21000000D03*
X255500000Y-21000000D03*
%TD*%
D14*
%TO.C,STEP1*%
X248700000Y-31720000D03*
D12*
X251240000Y-31720000D03*
X253780000Y-31720000D03*
X256320000Y-31720000D03*
X258860000Y-31720000D03*
X261400000Y-31720000D03*
X263940000Y-31720000D03*
X266480000Y-31720000D03*
X266480000Y-24100000D03*
X263940000Y-24100000D03*
X261400000Y-24100000D03*
X258860000Y-24100000D03*
X256320000Y-24100000D03*
X253780000Y-24100000D03*
X251240000Y-24100000D03*
X248700000Y-24100000D03*
%TD*%
D10*
%TO.C,~{CarrIn}1*%
X263400000Y-93200000D03*
%TD*%
D13*
%TO.C,C11*%
X247750000Y-14250000D03*
X252750000Y-14250000D03*
%TD*%
D10*
%TO.C,~{ENBL}1*%
X275600000Y-40600000D03*
%TD*%
D13*
%TO.C,C9*%
X233000000Y-63300000D03*
X233000000Y-68300000D03*
%TD*%
D10*
%TO.C,ZerroIn1*%
X265200000Y-94400000D03*
%TD*%
D15*
%TO.C,U5*%
X272880000Y-80160000D03*
D16*
X272880000Y-82700000D03*
X272880000Y-85240000D03*
X272880000Y-87780000D03*
X272880000Y-90320000D03*
X272880000Y-92860000D03*
X272880000Y-95400000D03*
X280500000Y-95400000D03*
X280500000Y-92860000D03*
X280500000Y-90320000D03*
X280500000Y-87780000D03*
X280500000Y-85240000D03*
X280500000Y-82700000D03*
X280500000Y-80160000D03*
%TD*%
D13*
%TO.C,C12*%
X279800000Y-16400000D03*
X274800000Y-16400000D03*
%TD*%
%TO.C,C7*%
X232600000Y-44100000D03*
X232600000Y-39100000D03*
%TD*%
D11*
%TO.C,TABLE8*%
X225000000Y-31000000D03*
D12*
X222460000Y-31000000D03*
X219920000Y-31000000D03*
X217380000Y-31000000D03*
X214840000Y-31000000D03*
X212300000Y-31000000D03*
X209760000Y-31000000D03*
X207220000Y-31000000D03*
X204680000Y-31000000D03*
X202140000Y-31000000D03*
X199600000Y-31000000D03*
X197060000Y-31000000D03*
X194520000Y-31000000D03*
X191980000Y-31000000D03*
X191980000Y-46240000D03*
X194520000Y-46240000D03*
X197060000Y-46240000D03*
X199600000Y-46240000D03*
X202140000Y-46240000D03*
X204680000Y-46240000D03*
X207220000Y-46240000D03*
X209760000Y-46240000D03*
X212300000Y-46240000D03*
X214840000Y-46240000D03*
X217380000Y-46240000D03*
X219920000Y-46240000D03*
X222460000Y-46240000D03*
X225000000Y-46240000D03*
%TD*%
D13*
%TO.C,C2*%
X228750000Y-46250000D03*
X228750000Y-51250000D03*
%TD*%
D14*
%TO.C,B_IN1*%
X236570000Y-73810000D03*
D12*
X239110000Y-73810000D03*
X241650000Y-73810000D03*
X244190000Y-73810000D03*
X246730000Y-73810000D03*
X249270000Y-73810000D03*
X251810000Y-73810000D03*
X254350000Y-73810000D03*
X256890000Y-73810000D03*
X259430000Y-73810000D03*
X259430000Y-66190000D03*
X256890000Y-66190000D03*
X254350000Y-66190000D03*
X251810000Y-66190000D03*
X249270000Y-66190000D03*
X246730000Y-66190000D03*
X244190000Y-66190000D03*
X241650000Y-66190000D03*
X239110000Y-66190000D03*
X236570000Y-66190000D03*
%TD*%
D15*
%TO.C,U1*%
X236700000Y-16720000D03*
D16*
X236700000Y-19260000D03*
X236700000Y-21800000D03*
X236700000Y-24340000D03*
X236700000Y-26880000D03*
X236700000Y-29420000D03*
X236700000Y-31960000D03*
X244320000Y-31960000D03*
X244320000Y-29420000D03*
X244320000Y-26880000D03*
X244320000Y-24340000D03*
X244320000Y-21800000D03*
X244320000Y-19260000D03*
X244320000Y-16720000D03*
%TD*%
D13*
%TO.C,C3*%
X280500000Y-76000000D03*
X280500000Y-71000000D03*
%TD*%
D14*
%TO.C,B_OUT0*%
X236570000Y-61810000D03*
D12*
X239110000Y-61810000D03*
X241650000Y-61810000D03*
X244190000Y-61810000D03*
X246730000Y-61810000D03*
X249270000Y-61810000D03*
X251810000Y-61810000D03*
X254350000Y-61810000D03*
X256890000Y-61810000D03*
X259430000Y-61810000D03*
X259430000Y-54190000D03*
X256890000Y-54190000D03*
X254350000Y-54190000D03*
X251810000Y-54190000D03*
X249270000Y-54190000D03*
X246730000Y-54190000D03*
X244190000Y-54190000D03*
X241650000Y-54190000D03*
X239110000Y-54190000D03*
X236570000Y-54190000D03*
%TD*%
D13*
%TO.C,C6*%
X235900000Y-77800000D03*
X240900000Y-77800000D03*
%TD*%
%TO.C,R2*%
X282100000Y-20990000D03*
X282100000Y-28610000D03*
%TD*%
D10*
%TO.C,PWR1*%
X190500000Y-99450000D03*
%TD*%
D14*
%TO.C,B_IN0*%
X242720000Y-88720000D03*
D12*
X245260000Y-88720000D03*
X247800000Y-88720000D03*
X250340000Y-88720000D03*
X252880000Y-88720000D03*
X255420000Y-88720000D03*
X257960000Y-88720000D03*
X260500000Y-88720000D03*
X263040000Y-88720000D03*
X265580000Y-88720000D03*
X265580000Y-81100000D03*
X263040000Y-81100000D03*
X260500000Y-81100000D03*
X257960000Y-81100000D03*
X255420000Y-81100000D03*
X252880000Y-81100000D03*
X250340000Y-81100000D03*
X247800000Y-81100000D03*
X245260000Y-81100000D03*
X242720000Y-81100000D03*
%TD*%
D10*
%TO.C,~{L_FR}1*%
X199500000Y-74000000D03*
%TD*%
%TO.C,~{SignIn}1*%
X261700000Y-91875000D03*
%TD*%
D15*
%TO.C,U3*%
X270700000Y-19720000D03*
D16*
X270700000Y-22260000D03*
X270700000Y-24800000D03*
X270700000Y-27340000D03*
X270700000Y-29880000D03*
X270700000Y-32420000D03*
X270700000Y-34960000D03*
X278320000Y-34960000D03*
X278320000Y-32420000D03*
X278320000Y-29880000D03*
X278320000Y-27340000D03*
X278320000Y-24800000D03*
X278320000Y-22260000D03*
X278320000Y-19720000D03*
%TD*%
D17*
%TO.C,BC1*%
X192950000Y-108100000D03*
X193950000Y-108100000D03*
X194950000Y-108100000D03*
X195950000Y-108100000D03*
X196950000Y-108100000D03*
X197950000Y-108100000D03*
X198950000Y-108100000D03*
X199950000Y-108100000D03*
X200950000Y-108100000D03*
X201950000Y-108100000D03*
X202950000Y-108100000D03*
X205950000Y-108100000D03*
X206950000Y-108100000D03*
X207950000Y-108100000D03*
X208950000Y-108100000D03*
X209950000Y-108100000D03*
X210950000Y-108100000D03*
X211950000Y-108100000D03*
X212950000Y-108100000D03*
X213950000Y-108100000D03*
X214950000Y-108100000D03*
X215950000Y-108100000D03*
X216950000Y-108100000D03*
X217950000Y-108100000D03*
X218950000Y-108100000D03*
X219950000Y-108100000D03*
X220950000Y-108100000D03*
X221950000Y-108100000D03*
X222950000Y-108100000D03*
X223950000Y-108100000D03*
X224950000Y-108100000D03*
X225950000Y-108100000D03*
X226950000Y-108100000D03*
X227950000Y-108100000D03*
X228950000Y-108100000D03*
X229950000Y-108100000D03*
X230950000Y-108100000D03*
X231950000Y-108100000D03*
X232950000Y-108100000D03*
X233950000Y-108100000D03*
X234950000Y-108100000D03*
X235950000Y-108100000D03*
X236950000Y-108100000D03*
X237950000Y-108100000D03*
X238950000Y-108100000D03*
X239950000Y-108100000D03*
X240950000Y-108100000D03*
X241950000Y-108100000D03*
X242950000Y-108100000D03*
X243950000Y-108100000D03*
X244950000Y-108100000D03*
X245950000Y-108100000D03*
X246950000Y-108100000D03*
X247950000Y-108100000D03*
X248950000Y-108100000D03*
X249950000Y-108100000D03*
X250950000Y-108100000D03*
X251950000Y-108100000D03*
X252950000Y-108100000D03*
X253950000Y-108100000D03*
X254950000Y-108100000D03*
X255950000Y-108100000D03*
X256950000Y-108100000D03*
X257950000Y-108100000D03*
X258950000Y-108100000D03*
X259950000Y-108100000D03*
X260950000Y-108100000D03*
X261950000Y-108100000D03*
X262950000Y-108100000D03*
X263950000Y-108100000D03*
X264950000Y-108100000D03*
X265950000Y-108100000D03*
X266950000Y-108100000D03*
X267950000Y-108100000D03*
X268950000Y-108100000D03*
X269950000Y-108100000D03*
X270950000Y-108100000D03*
X271950000Y-108100000D03*
X272950000Y-108100000D03*
X273950000Y-108100000D03*
D18*
X274950000Y-107550000D03*
D17*
X275950000Y-108100000D03*
%TD*%
D10*
%TO.C,ZerroO1*%
X253675000Y-38850000D03*
%TD*%
%TO.C,~{UPD_FR}1*%
X238500000Y-84000000D03*
%TD*%
D13*
%TO.C,C1*%
X227900000Y-71200000D03*
X222900000Y-71200000D03*
%TD*%
D10*
%TO.C,CarryO1*%
X251100000Y-38900000D03*
%TD*%
M02*
