M48
; DRILL file {KiCad 9.0.5} date 2025-11-19T18:12:53+0200
; FORMAT={-:-/ absolute / metric / decimal}
; #@! TF.CreationDate,2025-11-19T18:12:53+02:00
; #@! TF.GenerationSoftware,Kicad,Pcbnew,9.0.5
; #@! TF.FileFunction,Plated,1,2,PTH
FMAT,2
METRIC
; #@! TA.AperFunction,Plated,PTH,ViaDrill
T1C0.300
; #@! TA.AperFunction,Plated,PTH,ViaDrill
T2C0.400
; #@! TA.AperFunction,Plated,PTH,ComponentDrill
T3C0.800
%
G90
G05
T1
X190.2Y-64.6
X191.6Y-75.4
X193.4Y-105.0
X193.419Y-37.85
X193.419Y-43.7
X193.419Y-52.9
X194.1Y-104.95
X194.2Y-60.9
X194.65Y-102.8
X194.65Y-103.85
X194.95Y-104.95
X195.125Y-72.625
X195.3Y-60.9
X195.65Y-42.2
X195.65Y-48.6
X196.525Y-105.175
X198.2Y-72.65
X199.0Y-72.05
X199.925Y-71.4
X201.014Y-75.364
X201.4Y-62.9
X201.875Y-74.925
X202.0Y-26.05
X202.1Y-55.2
X202.45Y-48.55
X202.725Y-74.275
X202.75Y-43.3
X202.8Y-53.8
X203.55Y-73.75
X203.579Y-62.55
X203.579Y-69.3
X204.227Y-26.05
X206.4Y-61.5
X206.6Y-104.0
X207.4Y-54.5
X207.487Y-55.779
X207.574Y-56.574
X207.75Y-91.5
X207.8Y-62.3
X208.5Y-28.4
X208.921Y-42.2
X208.921Y-53.4
X209.0Y-55.8
X210.1Y-54.7
X210.3Y-61.3
X210.8Y-42.1
X210.9Y-34.9
X211.125Y-88.625
X212.55Y-86.9
X213.3Y-86.2
X213.6Y-28.8
X214.075Y-85.625
X214.1Y-35.4
X214.1Y-40.8
X214.1Y-62.2
X214.3Y-60.3
X214.35Y-63.45
X214.4Y-58.2
X214.4Y-59.2
X214.7Y-57.1
X214.875Y-85.075
X215.45Y-89.75
X215.512Y-84.591
X215.9Y-35.5
X215.9Y-40.1
X215.9Y-76.3
X216.15Y-84.05
X216.2Y-75.0
X216.3Y-89.2
X216.302Y-58.779
X216.7Y-60.4
X216.8Y-83.5
X217.1Y-88.65
X217.475Y-82.875
X217.85Y-88.05
X218.1Y-82.2
X218.2Y-79.9
X218.441Y-87.511
X218.7Y-78.9
X218.9Y-77.7
X219.125Y-87.025
X219.5Y-36.1
X219.6Y-26.95
X219.7Y-86.45
X220.2Y-43.5
X220.4Y-85.8
X221.075Y-85.175
X221.9Y-62.2
X221.95Y-101.3
X221.95Y-103.7
X222.0Y-74.9
X222.1Y-60.7
X225.2Y-59.3
X225.35Y-63.3
X225.5Y-61.5
X225.6Y-103.5
X226.101Y-44.1
X226.101Y-48.55
X226.5Y-20.6
X226.5Y-23.2
X227.3Y-32.5
X227.3Y-36.75
X227.4Y-43.3
X227.751Y-38.9
X228.076Y-40.476
X228.2Y-20.6
X228.2Y-41.6
X228.3Y-23.2
X228.3Y-25.8
X228.475Y-64.475
X228.575Y-65.975
X229.15Y-37.75
X229.4Y-44.2
X229.75Y-40.05
X229.85Y-38.8
X230.25Y-59.1
X231.3Y-19.86
X231.544Y-59.206
X233.55Y-26.95
X233.55Y-33.45
X233.6Y-56.8
X233.794Y-61.456
X234.45Y-55.85
X234.85Y-39.0
X234.95Y-104.6
X235.65Y-98.55
X235.9Y-97.6
X236.6Y-96.8
X237.3Y-96.1
X238.009Y-79.6
X238.009Y-81.85
X238.1Y-95.3
X238.7Y-57.6
X238.8Y-94.5
X239.25Y-38.1
X239.5Y-93.8
X240.1Y-93.0
X241.65Y-94.8
X241.7Y-26.7
X241.951Y-100.6
X242.0Y-22.1
X243.4Y-90.6
X243.5Y-86.1
X243.97Y-104.741
X244.25Y-100.8
X244.619Y-101.669
X244.759Y-92.125
X244.8Y-86.6
X244.949Y-97.6
X245.225Y-96.025
X245.7Y-94.2
X246.361Y-95.039
X246.4Y-29.8
X246.961Y-90.668
X247.2Y-95.1
X247.7Y-93.6
X248.3Y-90.9
X248.3Y-93.0
X248.3Y-95.1
X249.2Y-95.3
X249.7Y-79.05
X249.951Y-103.5
X250.0Y-76.15
X250.2Y-95.4
X250.35Y-105.024
X250.4Y-27.0
X251.55Y-98.2
X251.55Y-105.107
X251.6Y-95.6
X252.1Y-79.15
X252.2Y-82.7
X252.6Y-85.0
X252.75Y-76.3
X252.8Y-104.3
X253.434Y-103.15
X253.748Y-103.886
X253.78Y-26.2
X253.9Y-98.0
X254.677Y-96.5
X254.7Y-76.7
X254.7Y-78.9
X254.7Y-83.15
X254.7Y-84.75
X255.0Y-104.0
X255.3Y-101.1
X255.35Y-102.3
X255.35Y-103.281
X255.95Y-98.8
X255.95Y-100.4
X256.6Y-101.9
X257.3Y-76.76
X257.3Y-78.8
X257.3Y-83.45
X257.3Y-85.5
X257.4Y-98.1
X258.05Y-105.2
X258.7Y-100.9
X259.0Y-93.6
X259.75Y-76.85
X259.9Y-78.35
X260.05Y-16.2
X260.959Y-92.759
X261.9Y-41.5
X261.95Y-102.3
X262.4Y-96.15
X262.429Y-93.829
X262.6Y-39.0
X262.75Y-100.65
X262.759Y-90.959
X263.2Y-103.3
X263.3Y-36.9
X263.9Y-28.6
X264.05Y-95.55
X264.7Y-93.2
X264.8Y-100.0
X264.85Y-105.1
X264.9Y-40.0
X265.2Y-103.4
X265.5Y-28.8
X266.4Y-93.2
X268.2Y-58.8
X268.2Y-63.3
X268.2Y-67.7
X268.2Y-75.2
X268.2Y-96.8
X268.55Y-47.05
X269.3Y-100.7
X269.65Y-46.45
X269.724Y-104.024
X270.1Y-50.2
X270.4Y-87.9
X270.4Y-90.3
X270.7Y-45.8
X271.8Y-16.4
X274.35Y-41.85
X275.0Y-102.2
X277.3Y-38.9
X278.929Y-98.929
T2
X216.7Y-103.7
X257.4Y-103.9
T3
X191.98Y-31.0
X191.98Y-46.24
X191.98Y-51.0
X191.98Y-66.24
X194.52Y-31.0
X194.52Y-46.24
X194.52Y-51.0
X194.52Y-66.24
X196.85Y-97.8
X196.85Y-100.3
X197.06Y-31.0
X197.06Y-46.24
X197.06Y-51.0
X197.06Y-66.24
X199.6Y-31.0
X199.6Y-46.24
X199.6Y-51.0
X199.6Y-66.24
X202.14Y-31.0
X202.14Y-46.24
X202.14Y-51.0
X202.14Y-66.24
X204.68Y-31.0
X204.68Y-46.24
X204.68Y-51.0
X204.68Y-66.24
X207.22Y-31.0
X207.22Y-46.24
X207.22Y-51.0
X207.22Y-66.24
X209.76Y-31.0
X209.76Y-46.24
X209.76Y-51.0
X209.76Y-66.24
X212.3Y-31.0
X212.3Y-46.24
X212.3Y-51.0
X212.3Y-66.24
X214.84Y-31.0
X214.84Y-46.24
X214.84Y-51.0
X214.84Y-66.24
X217.38Y-31.0
X217.38Y-46.24
X217.38Y-51.0
X217.38Y-66.24
X219.92Y-31.0
X219.92Y-46.24
X219.92Y-51.0
X219.92Y-66.24
X222.46Y-31.0
X222.46Y-46.24
X222.46Y-51.0
X222.46Y-66.24
X222.9Y-71.2
X225.0Y-31.0
X225.0Y-46.24
X225.0Y-51.0
X225.0Y-66.24
X227.9Y-71.2
X228.75Y-46.25
X228.75Y-51.25
X232.6Y-39.1
X232.6Y-44.1
X232.6Y-49.0
X232.6Y-54.0
X233.0Y-63.3
X233.0Y-68.3
X235.9Y-77.8
X236.57Y-42.19
X236.57Y-49.81
X236.57Y-54.19
X236.57Y-61.81
X236.57Y-66.19
X236.57Y-73.81
X236.7Y-16.72
X236.7Y-19.26
X236.7Y-21.8
X236.7Y-24.34
X236.7Y-26.88
X236.7Y-29.42
X236.7Y-31.96
X239.11Y-42.19
X239.11Y-49.81
X239.11Y-54.19
X239.11Y-61.81
X239.11Y-66.19
X239.11Y-73.81
X240.9Y-77.8
X241.65Y-42.19
X241.65Y-49.81
X241.65Y-54.19
X241.65Y-61.81
X241.65Y-66.19
X241.65Y-73.81
X242.72Y-81.1
X242.72Y-88.72
X244.19Y-42.19
X244.19Y-49.81
X244.19Y-54.19
X244.19Y-61.81
X244.19Y-66.19
X244.19Y-73.81
X244.32Y-16.72
X244.32Y-19.26
X244.32Y-21.8
X244.32Y-24.34
X244.32Y-26.88
X244.32Y-29.42
X244.32Y-31.96
X245.26Y-81.1
X245.26Y-88.72
X246.73Y-42.19
X246.73Y-49.81
X246.73Y-54.19
X246.73Y-61.81
X246.73Y-66.19
X246.73Y-73.81
X247.75Y-14.25
X247.8Y-81.1
X247.8Y-88.72
X248.7Y-24.1
X248.7Y-31.72
X249.27Y-42.19
X249.27Y-49.81
X249.27Y-54.19
X249.27Y-61.81
X249.27Y-66.19
X249.27Y-73.81
X250.34Y-81.1
X250.34Y-88.72
X250.5Y-21.0
X251.24Y-24.1
X251.24Y-31.72
X251.81Y-42.19
X251.81Y-49.81
X251.81Y-54.19
X251.81Y-61.81
X251.81Y-66.19
X251.81Y-73.81
X252.75Y-14.25
X252.88Y-81.1
X252.88Y-88.72
X253.78Y-24.1
X253.78Y-31.72
X254.35Y-42.19
X254.35Y-49.81
X254.35Y-54.19
X254.35Y-61.81
X254.35Y-66.19
X254.35Y-73.81
X255.42Y-81.1
X255.42Y-88.72
X255.5Y-21.0
X256.32Y-24.1
X256.32Y-31.72
X256.89Y-42.19
X256.89Y-49.81
X256.89Y-54.19
X256.89Y-61.81
X256.89Y-66.19
X256.89Y-73.81
X257.96Y-81.1
X257.96Y-88.72
X258.86Y-24.1
X258.86Y-31.72
X259.43Y-42.19
X259.43Y-49.81
X259.43Y-54.19
X259.43Y-61.81
X259.43Y-66.19
X259.43Y-73.81
X260.5Y-81.1
X260.5Y-88.72
X261.4Y-24.1
X261.4Y-31.72
X263.04Y-81.1
X263.04Y-88.72
X263.94Y-24.1
X263.94Y-31.72
X265.58Y-81.1
X265.58Y-88.72
X266.48Y-24.1
X266.48Y-31.72
X270.7Y-19.72
X270.7Y-22.26
X270.7Y-24.8
X270.7Y-27.34
X270.7Y-29.88
X270.7Y-32.42
X270.7Y-34.96
X272.88Y-80.16
X272.88Y-82.7
X272.88Y-85.24
X272.88Y-87.78
X272.88Y-90.32
X272.88Y-92.86
X272.88Y-95.4
X274.8Y-16.4
X278.32Y-19.72
X278.32Y-22.26
X278.32Y-24.8
X278.32Y-27.34
X278.32Y-29.88
X278.32Y-32.42
X278.32Y-34.96
X279.8Y-16.4
X280.5Y-71.0
X280.5Y-76.0
X280.5Y-80.16
X280.5Y-82.7
X280.5Y-85.24
X280.5Y-87.78
X280.5Y-90.32
X280.5Y-92.86
X280.5Y-95.4
X282.1Y-20.99
X282.1Y-28.61
M30
