%TF.GenerationSoftware,KiCad,Pcbnew,9.0.5*%
%TF.CreationDate,2025-11-19T18:12:50+02:00*%
%TF.ProjectId,core_2,636f7265-5f32-42e6-9b69-6361645f7063,rev?*%
%TF.SameCoordinates,Original*%
%TF.FileFunction,Legend,Top*%
%TF.FilePolarity,Positive*%
%FSLAX46Y46*%
G04 Gerber Fmt 4.6, Leading zero omitted, Abs format (unit mm)*
G04 Created by KiCad (PCBNEW 9.0.5) date 2025-11-19 18:12:50*
%MOMM*%
%LPD*%
G01*
G04 APERTURE LIST*
%ADD10C,0.052916*%
%ADD11C,0.000000*%
%ADD12C,0.150000*%
%ADD13C,0.120000*%
G04 APERTURE END LIST*
D10*
X188549104Y-22634875D02*
X188591111Y-22645975D01*
X188611479Y-22652567D01*
X188634229Y-22661418D01*
X188658578Y-22672894D01*
X188671108Y-22679731D01*
X188683744Y-22687362D01*
X188696388Y-22695832D01*
X188708944Y-22705188D01*
X188721312Y-22715475D01*
X188733395Y-22726738D01*
X188745096Y-22739024D01*
X188756316Y-22752379D01*
X188766957Y-22766847D01*
X188776923Y-22782476D01*
X188786114Y-22799310D01*
X188794434Y-22817396D01*
X188801784Y-22836780D01*
X188808067Y-22857506D01*
X188813184Y-22879621D01*
X188817038Y-22903171D01*
X188819532Y-22928201D01*
X188820567Y-22954758D01*
X188829298Y-23723901D01*
X188829681Y-23737037D01*
X188829321Y-23752119D01*
X188827847Y-23771687D01*
X188824700Y-23794851D01*
X188819322Y-23820718D01*
X188815621Y-23834387D01*
X188811152Y-23848397D01*
X188805845Y-23862637D01*
X188799632Y-23876996D01*
X188792440Y-23891361D01*
X188784201Y-23905622D01*
X188774845Y-23919667D01*
X188764302Y-23933384D01*
X188752502Y-23946663D01*
X188739374Y-23959391D01*
X188724850Y-23971457D01*
X188708859Y-23982750D01*
X188691331Y-23993158D01*
X188672197Y-24002570D01*
X188651385Y-24010874D01*
X188628828Y-24017959D01*
X188604454Y-24023713D01*
X188578194Y-24028025D01*
X188549978Y-24030783D01*
X188519735Y-24031876D01*
X187984516Y-24032769D01*
X187699527Y-24031876D01*
X187699527Y-23740833D01*
X187699527Y-22920625D01*
X187990569Y-22920625D01*
X187990569Y-23740833D01*
X188198597Y-23741825D01*
X188351105Y-23741949D01*
X188440360Y-23740833D01*
X188444545Y-23740373D01*
X188448664Y-23739506D01*
X188452712Y-23738260D01*
X188456685Y-23736663D01*
X188460578Y-23734742D01*
X188464388Y-23732526D01*
X188468109Y-23730041D01*
X188471738Y-23727315D01*
X188475270Y-23724376D01*
X188478701Y-23721251D01*
X188482026Y-23717969D01*
X188485241Y-23714556D01*
X188491324Y-23707450D01*
X188496915Y-23700154D01*
X188501979Y-23692889D01*
X188506480Y-23685876D01*
X188510385Y-23679335D01*
X188513658Y-23673489D01*
X188518169Y-23664761D01*
X188519735Y-23661458D01*
X188521025Y-23335855D01*
X188521186Y-23101678D01*
X188519735Y-22973542D01*
X188519205Y-22969084D01*
X188518277Y-22964881D01*
X188516979Y-22960927D01*
X188515337Y-22957215D01*
X188513379Y-22953735D01*
X188511133Y-22950482D01*
X188508625Y-22947448D01*
X188505882Y-22944624D01*
X188502932Y-22942003D01*
X188499801Y-22939579D01*
X188496518Y-22937343D01*
X188493109Y-22935288D01*
X188489601Y-22933407D01*
X188486022Y-22931691D01*
X188478758Y-22928728D01*
X188471534Y-22926338D01*
X188464568Y-22924462D01*
X188458077Y-22923039D01*
X188452279Y-22922010D01*
X188443630Y-22920891D01*
X188440360Y-22920625D01*
X187990569Y-22920625D01*
X187699527Y-22920625D01*
X187699527Y-22629584D01*
X188549104Y-22634875D01*
X194141277Y-22630619D02*
X194155488Y-22632477D01*
X194173930Y-22635731D01*
X194195764Y-22640757D01*
X194220152Y-22647931D01*
X194246254Y-22657630D01*
X194259686Y-22663544D01*
X194273232Y-22670230D01*
X194286787Y-22677736D01*
X194300247Y-22686107D01*
X194313506Y-22695393D01*
X194326461Y-22705638D01*
X194339005Y-22716892D01*
X194351034Y-22729199D01*
X194362444Y-22742609D01*
X194373129Y-22757166D01*
X194382984Y-22772920D01*
X194391905Y-22789916D01*
X194399788Y-22808202D01*
X194406526Y-22827825D01*
X194412015Y-22848832D01*
X194416151Y-22871269D01*
X194418829Y-22895185D01*
X194419943Y-22920625D01*
X194426823Y-23765175D01*
X194425232Y-23776338D01*
X194422738Y-23789151D01*
X194418662Y-23805768D01*
X194412666Y-23825428D01*
X194404415Y-23847370D01*
X194393569Y-23870832D01*
X194387069Y-23882895D01*
X194379793Y-23895052D01*
X194371700Y-23907209D01*
X194362749Y-23919269D01*
X194352896Y-23931139D01*
X194342099Y-23942722D01*
X194330317Y-23953923D01*
X194317507Y-23964648D01*
X194303628Y-23974801D01*
X194288636Y-23984287D01*
X194272490Y-23993010D01*
X194255148Y-24000876D01*
X194236567Y-24007789D01*
X194216706Y-24013654D01*
X194195521Y-24018376D01*
X194172972Y-24021859D01*
X194149016Y-24024009D01*
X194123611Y-24024731D01*
X193593385Y-24025260D01*
X193580539Y-24023683D01*
X193565782Y-24021221D01*
X193546624Y-24017207D01*
X193523934Y-24011314D01*
X193498577Y-24003215D01*
X193471421Y-23992583D01*
X193457440Y-23986215D01*
X193443333Y-23979091D01*
X193429211Y-23971170D01*
X193415180Y-23962411D01*
X193401350Y-23952773D01*
X193387829Y-23942216D01*
X193374725Y-23930699D01*
X193362147Y-23918180D01*
X193350203Y-23904620D01*
X193339001Y-23889976D01*
X193328649Y-23874208D01*
X193319257Y-23857275D01*
X193310933Y-23839137D01*
X193303784Y-23819751D01*
X193297919Y-23799079D01*
X193293447Y-23777078D01*
X193290476Y-23753707D01*
X193289115Y-23728927D01*
X193284245Y-23417562D01*
X193282301Y-23160271D01*
X193282235Y-22920625D01*
X193284057Y-22909096D01*
X193286906Y-22895807D01*
X193291553Y-22878499D01*
X193298381Y-22857919D01*
X193307768Y-22834817D01*
X193313541Y-22822553D01*
X193320097Y-22809939D01*
X193327483Y-22797068D01*
X193335747Y-22784034D01*
X193344937Y-22770930D01*
X193355099Y-22757850D01*
X193366283Y-22744888D01*
X193378534Y-22732136D01*
X193391902Y-22719688D01*
X193406432Y-22707638D01*
X193422174Y-22696079D01*
X193439174Y-22685105D01*
X193457481Y-22674809D01*
X193477141Y-22665285D01*
X193498202Y-22656626D01*
X193520713Y-22648926D01*
X193544719Y-22642278D01*
X193570270Y-22636776D01*
X193597412Y-22632514D01*
X193626193Y-22629584D01*
X194128902Y-22629584D01*
X194141277Y-22630619D01*
D11*
G36*
X197727235Y-15988542D02*
G01*
X193996610Y-16517708D01*
X193996610Y-16358958D01*
X197621401Y-15750417D01*
X198212017Y-15161653D01*
X198613266Y-14753194D01*
X198742078Y-14615965D01*
X198776244Y-14576041D01*
X198784230Y-14564744D01*
X198785568Y-14559792D01*
X198031828Y-14808740D01*
X196395785Y-15373451D01*
X194023068Y-16200208D01*
X194023068Y-15962083D01*
X199605776Y-14004167D01*
X197727235Y-15988542D01*
G37*
D10*
X197145151Y-22629584D02*
X197145151Y-22920625D01*
X196483694Y-22920625D01*
X196483694Y-23211667D01*
X197039318Y-23211667D01*
X197039318Y-23476250D01*
X196483694Y-23476250D01*
X196483694Y-24031875D01*
X196166193Y-24031875D01*
X196174395Y-22626144D01*
X197145151Y-22629584D01*
X194078415Y-22920663D02*
X194080906Y-22920838D01*
X194084146Y-22921229D01*
X194087990Y-22921920D01*
X194092295Y-22922997D01*
X194094576Y-22923706D01*
X194096918Y-22924544D01*
X194099304Y-22925519D01*
X194101716Y-22926644D01*
X194104135Y-22927929D01*
X194106544Y-22929384D01*
X194108925Y-22931020D01*
X194111260Y-22932847D01*
X194113531Y-22934876D01*
X194115721Y-22937117D01*
X194117810Y-22939582D01*
X194119782Y-22942280D01*
X194121618Y-22945222D01*
X194123300Y-22948419D01*
X194124811Y-22951881D01*
X194126133Y-22955619D01*
X194127247Y-22959644D01*
X194128136Y-22963966D01*
X194128782Y-22968595D01*
X194129166Y-22973542D01*
X194130088Y-23104134D01*
X194129795Y-23338038D01*
X194128638Y-23661458D01*
X194129099Y-23664837D01*
X194129468Y-23668716D01*
X194129745Y-23673749D01*
X194129794Y-23679708D01*
X194129475Y-23686364D01*
X194128650Y-23693487D01*
X194128005Y-23697152D01*
X194127182Y-23700848D01*
X194126164Y-23704546D01*
X194124933Y-23708219D01*
X194123472Y-23711836D01*
X194121764Y-23715369D01*
X194119792Y-23718791D01*
X194117539Y-23722072D01*
X194114986Y-23725183D01*
X194112118Y-23728096D01*
X194108916Y-23730782D01*
X194105363Y-23733213D01*
X194101443Y-23735360D01*
X194097138Y-23737195D01*
X194092430Y-23738688D01*
X194087303Y-23739811D01*
X194081739Y-23740536D01*
X194075721Y-23740833D01*
X193678846Y-23740833D01*
X193675468Y-23741012D01*
X193666555Y-23740974D01*
X193660596Y-23740604D01*
X193653940Y-23739857D01*
X193646817Y-23738624D01*
X193639456Y-23736798D01*
X193635758Y-23735630D01*
X193632085Y-23734272D01*
X193628468Y-23732712D01*
X193624934Y-23730937D01*
X193621513Y-23728933D01*
X193618232Y-23726686D01*
X193615121Y-23724183D01*
X193612208Y-23721411D01*
X193609522Y-23718356D01*
X193607091Y-23715004D01*
X193604944Y-23711343D01*
X193603110Y-23707358D01*
X193601617Y-23703037D01*
X193600493Y-23698365D01*
X193599769Y-23693329D01*
X193599471Y-23687916D01*
X193600000Y-23000000D01*
X193599582Y-22996676D01*
X193599260Y-22992856D01*
X193599041Y-22987895D01*
X193599057Y-22982017D01*
X193599442Y-22975443D01*
X193600329Y-22968399D01*
X193601003Y-22964770D01*
X193601852Y-22961106D01*
X193602893Y-22957437D01*
X193604144Y-22953789D01*
X193605620Y-22950191D01*
X193607338Y-22946670D01*
X193609315Y-22943255D01*
X193611568Y-22939973D01*
X193614112Y-22936852D01*
X193616966Y-22933921D01*
X193620146Y-22931206D01*
X193623667Y-22928736D01*
X193627548Y-22926540D01*
X193631804Y-22924644D01*
X193636452Y-22923076D01*
X193641509Y-22921865D01*
X193646992Y-22921039D01*
X193652917Y-22920625D01*
X194076250Y-22920625D01*
X194078415Y-22920663D01*
D11*
G36*
X193864318Y-15829792D02*
G01*
X193854529Y-16801606D01*
X193520360Y-17390833D01*
X193191747Y-16796315D01*
X193202860Y-15829792D01*
X193534383Y-15238184D01*
X193864318Y-15829792D01*
G37*
G36*
X193601058Y-16060507D02*
G01*
X193601851Y-16669314D01*
X193539145Y-16867223D01*
X193538352Y-16865899D01*
X193461094Y-16676457D01*
X193467443Y-16067916D01*
X193532002Y-15855720D01*
X193601058Y-16060507D01*
G37*
G36*
X197489110Y-15591667D02*
G01*
X194816818Y-16094375D01*
X198203485Y-14903750D01*
X197489110Y-15591667D01*
G37*
G36*
X192250360Y-16094375D02*
G01*
X189578069Y-15591667D01*
X188863694Y-14903750D01*
X192250360Y-16094375D01*
G37*
D10*
X189986334Y-22630261D02*
X189999406Y-22631729D01*
X190016359Y-22634503D01*
X190036416Y-22638998D01*
X190058799Y-22645629D01*
X190070620Y-22649875D01*
X190082731Y-22654810D01*
X190095034Y-22660486D01*
X190107434Y-22666956D01*
X190119831Y-22674270D01*
X190132130Y-22682481D01*
X190144234Y-22691641D01*
X190156044Y-22701801D01*
X190167463Y-22713013D01*
X190178396Y-22725330D01*
X190188743Y-22738802D01*
X190198409Y-22753483D01*
X190207296Y-22769423D01*
X190215306Y-22786674D01*
X190222343Y-22805288D01*
X190228310Y-22825318D01*
X190233109Y-22846815D01*
X190236643Y-22869830D01*
X190238814Y-22894417D01*
X190239527Y-22920625D01*
X190239527Y-23264583D01*
X190237621Y-23273152D01*
X190234881Y-23283151D01*
X190230630Y-23296325D01*
X190224631Y-23312200D01*
X190216645Y-23330300D01*
X190206432Y-23350151D01*
X190200416Y-23360584D01*
X190193754Y-23371276D01*
X190186416Y-23382169D01*
X190178372Y-23393202D01*
X190169593Y-23404316D01*
X190160049Y-23415452D01*
X190149709Y-23426551D01*
X190138543Y-23437553D01*
X190126523Y-23448398D01*
X190113618Y-23459027D01*
X190099799Y-23469381D01*
X190085035Y-23479401D01*
X190069296Y-23489026D01*
X190052553Y-23498199D01*
X190034777Y-23506858D01*
X190015936Y-23514946D01*
X189996002Y-23522401D01*
X189974944Y-23529166D01*
X189986173Y-23550093D01*
X190018249Y-23604606D01*
X190117389Y-23769540D01*
X190262810Y-24009121D01*
X189938431Y-24015736D01*
X189657444Y-23529166D01*
X189392861Y-23529166D01*
X189392861Y-24031875D01*
X189075361Y-24031875D01*
X189075361Y-22629584D01*
X189101819Y-22629584D01*
X189974944Y-22629584D01*
X189986334Y-22630261D01*
X195900816Y-24029493D02*
X195601044Y-24014412D01*
X194996471Y-23152663D01*
X194989591Y-24028699D01*
X194684527Y-24031875D01*
X194684527Y-22629584D01*
X194990650Y-22630641D01*
X195584110Y-23502708D01*
X195584110Y-22629584D01*
X195901610Y-22629584D01*
X195900816Y-24029493D01*
D11*
G36*
X193837860Y-17179166D02*
G01*
X193532530Y-21850915D01*
X193255777Y-17152708D01*
X193229318Y-17020417D01*
X193467443Y-17496667D01*
X193545760Y-20359194D01*
X193599735Y-17496667D01*
X193864318Y-17020417D01*
X193837860Y-17179166D01*
G37*
G36*
X193044110Y-15962083D02*
G01*
X193044110Y-16200208D01*
X190671393Y-15373451D01*
X189035350Y-14808740D01*
X188281610Y-14559792D01*
X188282948Y-14564744D01*
X188290935Y-14576041D01*
X188325100Y-14615965D01*
X188453912Y-14753194D01*
X188855161Y-15161653D01*
X189445777Y-15750417D01*
X193070568Y-16358958D01*
X193070568Y-16517708D01*
X189339944Y-15988542D01*
X187461402Y-14004167D01*
X193044110Y-15962083D01*
G37*
G36*
X192647235Y-16597083D02*
G01*
X192428015Y-16636179D01*
X192159521Y-16692589D01*
X191987165Y-16732208D01*
X191790018Y-16780274D01*
X191568541Y-16837416D01*
X191323195Y-16904261D01*
X191054439Y-16981438D01*
X190762736Y-17069575D01*
X190448546Y-17169301D01*
X190112330Y-17281243D01*
X189754549Y-17406031D01*
X189375662Y-17544291D01*
X190821610Y-17893542D01*
X193044110Y-16650000D01*
X193070568Y-16808750D01*
X190900985Y-18131666D01*
X188625569Y-17576042D01*
X191694735Y-16491250D01*
X192647235Y-16597083D01*
G37*
D10*
X191774110Y-24031875D02*
X191430152Y-24031875D01*
X191350777Y-23767292D01*
X190821610Y-23767292D01*
X190742235Y-24031875D01*
X190404891Y-24028965D01*
X190900985Y-22629584D01*
X191271402Y-22629584D01*
X191774110Y-24031875D01*
X191271402Y-23502708D02*
X190900985Y-23502708D01*
X191086193Y-22947083D01*
X191271402Y-23502708D01*
X197679346Y-23759354D02*
X198312758Y-23762794D01*
X198309318Y-24031875D01*
X197356818Y-24031875D01*
X197356818Y-22629584D01*
X197674318Y-22629584D01*
X197679346Y-23759354D01*
D11*
G36*
X190803354Y-17676848D02*
G01*
X189974944Y-17523125D01*
X192435568Y-16729375D01*
X190803354Y-17676848D01*
G37*
D10*
X192717086Y-22640961D02*
X192733039Y-22641884D01*
X192748648Y-22644195D01*
X192763900Y-22647800D01*
X192778786Y-22652607D01*
X192793295Y-22658523D01*
X192807416Y-22665456D01*
X192821139Y-22673311D01*
X192834453Y-22681996D01*
X192847348Y-22691418D01*
X192859813Y-22701485D01*
X192871837Y-22712102D01*
X192883410Y-22723179D01*
X192894522Y-22734621D01*
X192905161Y-22746335D01*
X192924982Y-22770210D01*
X192942787Y-22794059D01*
X192958492Y-22817141D01*
X192972012Y-22838711D01*
X192983264Y-22858027D01*
X192998624Y-22886919D01*
X193003894Y-22897871D01*
X193017652Y-23052917D01*
X192700152Y-23052917D01*
X192700114Y-23054657D01*
X192700052Y-23053148D01*
X192700152Y-23000000D01*
X192700023Y-22993510D01*
X192699601Y-22987379D01*
X192698905Y-22981598D01*
X192697954Y-22976155D01*
X192696768Y-22971041D01*
X192695367Y-22966246D01*
X192693769Y-22961759D01*
X192691995Y-22957571D01*
X192690064Y-22953673D01*
X192687996Y-22950052D01*
X192685810Y-22946701D01*
X192683525Y-22943608D01*
X192681161Y-22940764D01*
X192678738Y-22938158D01*
X192676276Y-22935781D01*
X192673793Y-22933623D01*
X192671309Y-22931673D01*
X192668844Y-22929921D01*
X192666417Y-22928358D01*
X192664048Y-22926973D01*
X192659561Y-22924699D01*
X192655540Y-22923019D01*
X192652141Y-22921851D01*
X192649520Y-22921117D01*
X192647235Y-22920625D01*
X192250360Y-22920625D01*
X192244482Y-22920800D01*
X192239040Y-22921263D01*
X192234018Y-22921994D01*
X192229399Y-22922975D01*
X192225168Y-22924186D01*
X192221307Y-22925607D01*
X192217801Y-22927220D01*
X192214633Y-22929005D01*
X192211787Y-22930943D01*
X192209246Y-22933016D01*
X192206993Y-22935202D01*
X192205014Y-22937485D01*
X192203291Y-22939843D01*
X192201807Y-22942258D01*
X192200547Y-22944711D01*
X192199494Y-22947183D01*
X192198631Y-22949653D01*
X192197943Y-22952104D01*
X192197413Y-22954516D01*
X192197025Y-22956869D01*
X192196607Y-22961322D01*
X192196559Y-22965311D01*
X192196749Y-22968681D01*
X192197047Y-22971279D01*
X192197443Y-22973542D01*
X192197443Y-23687916D01*
X192197648Y-23692840D01*
X192198291Y-23697449D01*
X192199344Y-23701753D01*
X192200778Y-23705763D01*
X192202563Y-23709489D01*
X192204670Y-23712941D01*
X192207070Y-23716130D01*
X192209734Y-23719067D01*
X192212632Y-23721761D01*
X192215736Y-23724224D01*
X192219015Y-23726465D01*
X192222442Y-23728495D01*
X192225986Y-23730325D01*
X192229618Y-23731965D01*
X192233310Y-23733424D01*
X192237032Y-23734715D01*
X192244448Y-23736829D01*
X192251634Y-23738391D01*
X192258355Y-23739485D01*
X192264379Y-23740192D01*
X192273397Y-23740784D01*
X192276818Y-23740833D01*
X192647235Y-23740833D01*
X192652555Y-23740635D01*
X192657509Y-23740152D01*
X192662111Y-23739403D01*
X192666373Y-23738407D01*
X192670308Y-23737184D01*
X192673930Y-23735753D01*
X192677251Y-23734132D01*
X192680283Y-23732342D01*
X192683041Y-23730399D01*
X192685536Y-23728325D01*
X192687781Y-23726138D01*
X192689791Y-23723857D01*
X192691576Y-23721502D01*
X192693151Y-23719090D01*
X192694528Y-23716642D01*
X192695720Y-23714176D01*
X192696740Y-23711712D01*
X192697601Y-23709269D01*
X192698315Y-23706865D01*
X192698896Y-23704520D01*
X192699709Y-23700083D01*
X192700143Y-23696110D01*
X192700302Y-23692754D01*
X192700287Y-23690168D01*
X192700152Y-23687916D01*
X192700152Y-23478367D01*
X192435568Y-23476250D01*
X192435568Y-23238125D01*
X192999395Y-23237858D01*
X193006076Y-23436362D01*
X193009441Y-23610450D01*
X193009676Y-23694607D01*
X193008391Y-23768613D01*
X193007199Y-23785612D01*
X193004769Y-23801940D01*
X193001186Y-23817605D01*
X192996533Y-23832615D01*
X192990894Y-23846979D01*
X192984352Y-23860706D01*
X192976991Y-23873804D01*
X192968894Y-23886282D01*
X192960145Y-23898150D01*
X192950828Y-23909414D01*
X192941026Y-23920085D01*
X192930824Y-23930171D01*
X192920304Y-23939680D01*
X192909550Y-23948621D01*
X192898646Y-23957003D01*
X192887675Y-23964835D01*
X192865869Y-23978881D01*
X192844799Y-23990830D01*
X192825136Y-24000750D01*
X192807548Y-24008710D01*
X192781272Y-24019032D01*
X192771325Y-24022349D01*
X192589457Y-24024995D01*
X192391479Y-24025028D01*
X192148231Y-24021291D01*
X192125976Y-24020050D01*
X192104974Y-24017480D01*
X192085190Y-24013668D01*
X192066588Y-24008706D01*
X192049133Y-24002683D01*
X192032788Y-23995690D01*
X192017517Y-23987815D01*
X192003285Y-23979148D01*
X191990056Y-23969781D01*
X191977793Y-23959801D01*
X191966461Y-23949300D01*
X191956024Y-23938366D01*
X191946447Y-23927091D01*
X191937692Y-23915563D01*
X191929725Y-23903872D01*
X191922509Y-23892109D01*
X191916008Y-23880363D01*
X191910187Y-23868723D01*
X191900440Y-23846124D01*
X191892981Y-23825031D01*
X191887522Y-23806161D01*
X191883775Y-23790233D01*
X191881455Y-23777967D01*
X191879944Y-23767292D01*
X191879944Y-22920625D01*
X191881330Y-22896222D01*
X191884517Y-22873287D01*
X191889383Y-22851773D01*
X191895806Y-22831637D01*
X191903667Y-22812832D01*
X191912844Y-22795313D01*
X191923216Y-22779034D01*
X191934663Y-22763950D01*
X191947063Y-22750016D01*
X191960296Y-22737186D01*
X191974240Y-22725414D01*
X191988774Y-22714656D01*
X192003779Y-22704865D01*
X192019132Y-22695997D01*
X192034714Y-22688006D01*
X192050402Y-22680846D01*
X192081615Y-22668839D01*
X192111806Y-22659612D01*
X192140006Y-22652802D01*
X192165247Y-22648046D01*
X192186564Y-22644979D01*
X192202988Y-22643239D01*
X192217288Y-22642283D01*
X192404282Y-22640728D01*
X192568224Y-22640162D01*
X192717086Y-22640961D01*
X189881437Y-22919735D02*
X189885923Y-22920137D01*
X189888292Y-22920517D01*
X189890719Y-22921040D01*
X189893184Y-22921721D01*
X189895668Y-22922577D01*
X189898151Y-22923624D01*
X189900613Y-22924879D01*
X189903036Y-22926359D01*
X189905400Y-22928080D01*
X189907685Y-22930058D01*
X189909871Y-22932310D01*
X189911939Y-22934853D01*
X189913870Y-22937703D01*
X189915644Y-22940877D01*
X189917242Y-22944391D01*
X189918643Y-22948261D01*
X189919829Y-22952505D01*
X189920780Y-22957138D01*
X189921476Y-22962178D01*
X189921898Y-22967640D01*
X189922027Y-22973542D01*
X189922027Y-23211667D01*
X189921663Y-23213897D01*
X189921134Y-23216459D01*
X189920307Y-23219786D01*
X189919133Y-23223727D01*
X189917562Y-23228131D01*
X189915545Y-23232848D01*
X189914353Y-23235277D01*
X189913031Y-23237728D01*
X189911573Y-23240182D01*
X189909972Y-23242621D01*
X189908222Y-23245025D01*
X189906317Y-23247375D01*
X189904251Y-23249654D01*
X189902018Y-23251841D01*
X189899611Y-23253919D01*
X189897024Y-23255869D01*
X189894251Y-23257671D01*
X189891286Y-23259307D01*
X189888122Y-23260758D01*
X189884754Y-23262006D01*
X189881175Y-23263031D01*
X189877378Y-23263815D01*
X189873359Y-23264339D01*
X189869110Y-23264583D01*
X189392860Y-23264583D01*
X189392860Y-22920625D01*
X189869110Y-22920625D01*
X189871395Y-22920219D01*
X189874016Y-22919908D01*
X189877416Y-22919703D01*
X189881437Y-22919735D01*
D11*
G36*
X194472860Y-14850833D02*
G01*
X193890777Y-15432917D01*
X193943693Y-15750417D01*
X193546818Y-14850833D01*
X193123485Y-15750417D01*
X193176402Y-15432917D01*
X192594318Y-14850833D01*
X192541402Y-14110000D01*
X192777674Y-14716425D01*
X192831170Y-14788764D01*
X192886449Y-14861728D01*
X192950447Y-14943702D01*
X193015438Y-15023047D01*
X193045890Y-15058096D01*
X193073694Y-15088123D01*
X193097882Y-15111673D01*
X193117488Y-15127291D01*
X193125272Y-15131671D01*
X193131548Y-15133522D01*
X193136196Y-15132662D01*
X193139095Y-15128911D01*
X193146680Y-15113141D01*
X193160890Y-15087736D01*
X193205556Y-15013825D01*
X193265823Y-14918793D01*
X193334424Y-14814255D01*
X193404092Y-14711825D01*
X193467559Y-14623118D01*
X193494696Y-14587541D01*
X193517557Y-14559749D01*
X193535234Y-14541196D01*
X193541845Y-14535838D01*
X193546818Y-14533333D01*
X193551821Y-14534125D01*
X193558513Y-14538380D01*
X193576482Y-14556367D01*
X193599754Y-14585464D01*
X193627359Y-14623841D01*
X193691693Y-14721113D01*
X193761726Y-14833536D01*
X193887858Y-15045265D01*
X193943693Y-15141875D01*
X194287652Y-14745000D01*
X194525777Y-14110000D01*
X194472860Y-14850833D01*
G37*
G36*
X197092235Y-17523125D02*
G01*
X196263824Y-17676848D01*
X194631610Y-16729375D01*
X197092235Y-17523125D01*
G37*
G36*
X198441610Y-17576042D02*
G01*
X196166193Y-18131666D01*
X193996610Y-16808750D01*
X194023068Y-16650000D01*
X196245568Y-17893542D01*
X197691516Y-17544291D01*
X197312630Y-17406031D01*
X196954848Y-17281243D01*
X196618632Y-17169301D01*
X196304442Y-17069575D01*
X196012739Y-16981438D01*
X195743984Y-16904261D01*
X195498637Y-16837416D01*
X195277160Y-16780274D01*
X195080013Y-16732208D01*
X194907657Y-16692589D01*
X194639163Y-16636179D01*
X194419943Y-16597083D01*
X195372443Y-16491250D01*
X198441610Y-17576042D01*
G37*
D10*
X198759109Y-23185208D02*
X199050152Y-22629584D01*
X199420568Y-22629584D01*
X198891402Y-23529166D01*
X198891402Y-24031875D01*
X198600360Y-24031875D01*
X198596655Y-23533664D01*
X198071193Y-22629584D01*
X198441610Y-22629584D01*
X198759109Y-23185208D01*
D12*
X241511429Y-38267200D02*
X241654286Y-38314819D01*
X241654286Y-38314819D02*
X241892381Y-38314819D01*
X241892381Y-38314819D02*
X241987619Y-38267200D01*
X241987619Y-38267200D02*
X242035238Y-38219580D01*
X242035238Y-38219580D02*
X242082857Y-38124342D01*
X242082857Y-38124342D02*
X242082857Y-38029104D01*
X242082857Y-38029104D02*
X242035238Y-37933866D01*
X242035238Y-37933866D02*
X241987619Y-37886247D01*
X241987619Y-37886247D02*
X241892381Y-37838628D01*
X241892381Y-37838628D02*
X241701905Y-37791009D01*
X241701905Y-37791009D02*
X241606667Y-37743390D01*
X241606667Y-37743390D02*
X241559048Y-37695771D01*
X241559048Y-37695771D02*
X241511429Y-37600533D01*
X241511429Y-37600533D02*
X241511429Y-37505295D01*
X241511429Y-37505295D02*
X241559048Y-37410057D01*
X241559048Y-37410057D02*
X241606667Y-37362438D01*
X241606667Y-37362438D02*
X241701905Y-37314819D01*
X241701905Y-37314819D02*
X241940000Y-37314819D01*
X241940000Y-37314819D02*
X242082857Y-37362438D01*
X242511429Y-38314819D02*
X242511429Y-37648152D01*
X242511429Y-37314819D02*
X242463810Y-37362438D01*
X242463810Y-37362438D02*
X242511429Y-37410057D01*
X242511429Y-37410057D02*
X242559048Y-37362438D01*
X242559048Y-37362438D02*
X242511429Y-37314819D01*
X242511429Y-37314819D02*
X242511429Y-37410057D01*
X243416190Y-37648152D02*
X243416190Y-38457676D01*
X243416190Y-38457676D02*
X243368571Y-38552914D01*
X243368571Y-38552914D02*
X243320952Y-38600533D01*
X243320952Y-38600533D02*
X243225714Y-38648152D01*
X243225714Y-38648152D02*
X243082857Y-38648152D01*
X243082857Y-38648152D02*
X242987619Y-38600533D01*
X243416190Y-38267200D02*
X243320952Y-38314819D01*
X243320952Y-38314819D02*
X243130476Y-38314819D01*
X243130476Y-38314819D02*
X243035238Y-38267200D01*
X243035238Y-38267200D02*
X242987619Y-38219580D01*
X242987619Y-38219580D02*
X242940000Y-38124342D01*
X242940000Y-38124342D02*
X242940000Y-37838628D01*
X242940000Y-37838628D02*
X242987619Y-37743390D01*
X242987619Y-37743390D02*
X243035238Y-37695771D01*
X243035238Y-37695771D02*
X243130476Y-37648152D01*
X243130476Y-37648152D02*
X243320952Y-37648152D01*
X243320952Y-37648152D02*
X243416190Y-37695771D01*
X243892381Y-37648152D02*
X243892381Y-38314819D01*
X243892381Y-37743390D02*
X243940000Y-37695771D01*
X243940000Y-37695771D02*
X244035238Y-37648152D01*
X244035238Y-37648152D02*
X244178095Y-37648152D01*
X244178095Y-37648152D02*
X244273333Y-37695771D01*
X244273333Y-37695771D02*
X244320952Y-37791009D01*
X244320952Y-37791009D02*
X244320952Y-38314819D01*
X244987619Y-37314819D02*
X245178095Y-37314819D01*
X245178095Y-37314819D02*
X245273333Y-37362438D01*
X245273333Y-37362438D02*
X245368571Y-37457676D01*
X245368571Y-37457676D02*
X245416190Y-37648152D01*
X245416190Y-37648152D02*
X245416190Y-37981485D01*
X245416190Y-37981485D02*
X245368571Y-38171961D01*
X245368571Y-38171961D02*
X245273333Y-38267200D01*
X245273333Y-38267200D02*
X245178095Y-38314819D01*
X245178095Y-38314819D02*
X244987619Y-38314819D01*
X244987619Y-38314819D02*
X244892381Y-38267200D01*
X244892381Y-38267200D02*
X244797143Y-38171961D01*
X244797143Y-38171961D02*
X244749524Y-37981485D01*
X244749524Y-37981485D02*
X244749524Y-37648152D01*
X244749524Y-37648152D02*
X244797143Y-37457676D01*
X244797143Y-37457676D02*
X244892381Y-37362438D01*
X244892381Y-37362438D02*
X244987619Y-37314819D01*
X246368571Y-38314819D02*
X245797143Y-38314819D01*
X246082857Y-38314819D02*
X246082857Y-37314819D01*
X246082857Y-37314819D02*
X245987619Y-37457676D01*
X245987619Y-37457676D02*
X245892381Y-37552914D01*
X245892381Y-37552914D02*
X245797143Y-37600533D01*
X188654819Y-61167618D02*
X188654819Y-60596190D01*
X189654819Y-60881904D02*
X188654819Y-60881904D01*
X189369104Y-60310475D02*
X189369104Y-59834285D01*
X189654819Y-60405713D02*
X188654819Y-60072380D01*
X188654819Y-60072380D02*
X189654819Y-59739047D01*
X189131009Y-59072380D02*
X189178628Y-58929523D01*
X189178628Y-58929523D02*
X189226247Y-58881904D01*
X189226247Y-58881904D02*
X189321485Y-58834285D01*
X189321485Y-58834285D02*
X189464342Y-58834285D01*
X189464342Y-58834285D02*
X189559580Y-58881904D01*
X189559580Y-58881904D02*
X189607200Y-58929523D01*
X189607200Y-58929523D02*
X189654819Y-59024761D01*
X189654819Y-59024761D02*
X189654819Y-59405713D01*
X189654819Y-59405713D02*
X188654819Y-59405713D01*
X188654819Y-59405713D02*
X188654819Y-59072380D01*
X188654819Y-59072380D02*
X188702438Y-58977142D01*
X188702438Y-58977142D02*
X188750057Y-58929523D01*
X188750057Y-58929523D02*
X188845295Y-58881904D01*
X188845295Y-58881904D02*
X188940533Y-58881904D01*
X188940533Y-58881904D02*
X189035771Y-58929523D01*
X189035771Y-58929523D02*
X189083390Y-58977142D01*
X189083390Y-58977142D02*
X189131009Y-59072380D01*
X189131009Y-59072380D02*
X189131009Y-59405713D01*
X189654819Y-57929523D02*
X189654819Y-58405713D01*
X189654819Y-58405713D02*
X188654819Y-58405713D01*
X189131009Y-57596189D02*
X189131009Y-57262856D01*
X189654819Y-57119999D02*
X189654819Y-57596189D01*
X189654819Y-57596189D02*
X188654819Y-57596189D01*
X188654819Y-57596189D02*
X188654819Y-57119999D01*
X188654819Y-56786665D02*
X188654819Y-56119999D01*
X188654819Y-56119999D02*
X189654819Y-56548570D01*
X196683333Y-95159580D02*
X196635714Y-95207200D01*
X196635714Y-95207200D02*
X196492857Y-95254819D01*
X196492857Y-95254819D02*
X196397619Y-95254819D01*
X196397619Y-95254819D02*
X196254762Y-95207200D01*
X196254762Y-95207200D02*
X196159524Y-95111961D01*
X196159524Y-95111961D02*
X196111905Y-95016723D01*
X196111905Y-95016723D02*
X196064286Y-94826247D01*
X196064286Y-94826247D02*
X196064286Y-94683390D01*
X196064286Y-94683390D02*
X196111905Y-94492914D01*
X196111905Y-94492914D02*
X196159524Y-94397676D01*
X196159524Y-94397676D02*
X196254762Y-94302438D01*
X196254762Y-94302438D02*
X196397619Y-94254819D01*
X196397619Y-94254819D02*
X196492857Y-94254819D01*
X196492857Y-94254819D02*
X196635714Y-94302438D01*
X196635714Y-94302438D02*
X196683333Y-94350057D01*
X197540476Y-94588152D02*
X197540476Y-95254819D01*
X197302381Y-94207200D02*
X197064286Y-94921485D01*
X197064286Y-94921485D02*
X197683333Y-94921485D01*
X262654819Y-46761904D02*
X263464342Y-46761904D01*
X263464342Y-46761904D02*
X263559580Y-46714285D01*
X263559580Y-46714285D02*
X263607200Y-46666666D01*
X263607200Y-46666666D02*
X263654819Y-46571428D01*
X263654819Y-46571428D02*
X263654819Y-46380952D01*
X263654819Y-46380952D02*
X263607200Y-46285714D01*
X263607200Y-46285714D02*
X263559580Y-46238095D01*
X263559580Y-46238095D02*
X263464342Y-46190476D01*
X263464342Y-46190476D02*
X262654819Y-46190476D01*
X262750057Y-45761904D02*
X262702438Y-45714285D01*
X262702438Y-45714285D02*
X262654819Y-45619047D01*
X262654819Y-45619047D02*
X262654819Y-45380952D01*
X262654819Y-45380952D02*
X262702438Y-45285714D01*
X262702438Y-45285714D02*
X262750057Y-45238095D01*
X262750057Y-45238095D02*
X262845295Y-45190476D01*
X262845295Y-45190476D02*
X262940533Y-45190476D01*
X262940533Y-45190476D02*
X263083390Y-45238095D01*
X263083390Y-45238095D02*
X263654819Y-45809523D01*
X263654819Y-45809523D02*
X263654819Y-45190476D01*
X281238571Y-100999580D02*
X281190952Y-101047200D01*
X281190952Y-101047200D02*
X281048095Y-101094819D01*
X281048095Y-101094819D02*
X280952857Y-101094819D01*
X280952857Y-101094819D02*
X280810000Y-101047200D01*
X280810000Y-101047200D02*
X280714762Y-100951961D01*
X280714762Y-100951961D02*
X280667143Y-100856723D01*
X280667143Y-100856723D02*
X280619524Y-100666247D01*
X280619524Y-100666247D02*
X280619524Y-100523390D01*
X280619524Y-100523390D02*
X280667143Y-100332914D01*
X280667143Y-100332914D02*
X280714762Y-100237676D01*
X280714762Y-100237676D02*
X280810000Y-100142438D01*
X280810000Y-100142438D02*
X280952857Y-100094819D01*
X280952857Y-100094819D02*
X281048095Y-100094819D01*
X281048095Y-100094819D02*
X281190952Y-100142438D01*
X281190952Y-100142438D02*
X281238571Y-100190057D01*
X282143333Y-101094819D02*
X281667143Y-101094819D01*
X281667143Y-101094819D02*
X281667143Y-100094819D01*
X282476667Y-101094819D02*
X282476667Y-100094819D01*
X283048095Y-101094819D02*
X282619524Y-100523390D01*
X283048095Y-100094819D02*
X282476667Y-100666247D01*
X280529048Y-99817200D02*
X283138572Y-99817200D01*
X284000476Y-101094819D02*
X283429048Y-101094819D01*
X283714762Y-101094819D02*
X283714762Y-100094819D01*
X283714762Y-100094819D02*
X283619524Y-100237676D01*
X283619524Y-100237676D02*
X283524286Y-100332914D01*
X283524286Y-100332914D02*
X283429048Y-100380533D01*
X187454819Y-75360714D02*
X187454819Y-75170238D01*
X187454819Y-75170238D02*
X187502438Y-75075000D01*
X187502438Y-75075000D02*
X187597676Y-74979762D01*
X187597676Y-74979762D02*
X187788152Y-74932143D01*
X187788152Y-74932143D02*
X188121485Y-74932143D01*
X188121485Y-74932143D02*
X188311961Y-74979762D01*
X188311961Y-74979762D02*
X188407200Y-75075000D01*
X188407200Y-75075000D02*
X188454819Y-75170238D01*
X188454819Y-75170238D02*
X188454819Y-75360714D01*
X188454819Y-75360714D02*
X188407200Y-75455952D01*
X188407200Y-75455952D02*
X188311961Y-75551190D01*
X188311961Y-75551190D02*
X188121485Y-75598809D01*
X188121485Y-75598809D02*
X187788152Y-75598809D01*
X187788152Y-75598809D02*
X187597676Y-75551190D01*
X187597676Y-75551190D02*
X187502438Y-75455952D01*
X187502438Y-75455952D02*
X187454819Y-75360714D01*
X187454819Y-74503571D02*
X188264342Y-74503571D01*
X188264342Y-74503571D02*
X188359580Y-74455952D01*
X188359580Y-74455952D02*
X188407200Y-74408333D01*
X188407200Y-74408333D02*
X188454819Y-74313095D01*
X188454819Y-74313095D02*
X188454819Y-74122619D01*
X188454819Y-74122619D02*
X188407200Y-74027381D01*
X188407200Y-74027381D02*
X188359580Y-73979762D01*
X188359580Y-73979762D02*
X188264342Y-73932143D01*
X188264342Y-73932143D02*
X187454819Y-73932143D01*
X187454819Y-73598809D02*
X187454819Y-73027381D01*
X188454819Y-73313095D02*
X187454819Y-73313095D01*
X188550057Y-72932143D02*
X188550057Y-72170238D01*
X187931009Y-71598809D02*
X187931009Y-71932142D01*
X188454819Y-71932142D02*
X187454819Y-71932142D01*
X187454819Y-71932142D02*
X187454819Y-71455952D01*
X188454819Y-70503571D02*
X187978628Y-70836904D01*
X188454819Y-71074999D02*
X187454819Y-71074999D01*
X187454819Y-71074999D02*
X187454819Y-70694047D01*
X187454819Y-70694047D02*
X187502438Y-70598809D01*
X187502438Y-70598809D02*
X187550057Y-70551190D01*
X187550057Y-70551190D02*
X187645295Y-70503571D01*
X187645295Y-70503571D02*
X187788152Y-70503571D01*
X187788152Y-70503571D02*
X187883390Y-70551190D01*
X187883390Y-70551190D02*
X187931009Y-70598809D01*
X187931009Y-70598809D02*
X187978628Y-70694047D01*
X187978628Y-70694047D02*
X187978628Y-71074999D01*
X187177200Y-75689286D02*
X187177200Y-70413095D01*
X188454819Y-69551190D02*
X188454819Y-70122618D01*
X188454819Y-69836904D02*
X187454819Y-69836904D01*
X187454819Y-69836904D02*
X187597676Y-69932142D01*
X187597676Y-69932142D02*
X187692914Y-70027380D01*
X187692914Y-70027380D02*
X187740533Y-70122618D01*
X229109580Y-53416666D02*
X229157200Y-53464285D01*
X229157200Y-53464285D02*
X229204819Y-53607142D01*
X229204819Y-53607142D02*
X229204819Y-53702380D01*
X229204819Y-53702380D02*
X229157200Y-53845237D01*
X229157200Y-53845237D02*
X229061961Y-53940475D01*
X229061961Y-53940475D02*
X228966723Y-53988094D01*
X228966723Y-53988094D02*
X228776247Y-54035713D01*
X228776247Y-54035713D02*
X228633390Y-54035713D01*
X228633390Y-54035713D02*
X228442914Y-53988094D01*
X228442914Y-53988094D02*
X228347676Y-53940475D01*
X228347676Y-53940475D02*
X228252438Y-53845237D01*
X228252438Y-53845237D02*
X228204819Y-53702380D01*
X228204819Y-53702380D02*
X228204819Y-53607142D01*
X228204819Y-53607142D02*
X228252438Y-53464285D01*
X228252438Y-53464285D02*
X228300057Y-53416666D01*
X228633390Y-52845237D02*
X228585771Y-52940475D01*
X228585771Y-52940475D02*
X228538152Y-52988094D01*
X228538152Y-52988094D02*
X228442914Y-53035713D01*
X228442914Y-53035713D02*
X228395295Y-53035713D01*
X228395295Y-53035713D02*
X228300057Y-52988094D01*
X228300057Y-52988094D02*
X228252438Y-52940475D01*
X228252438Y-52940475D02*
X228204819Y-52845237D01*
X228204819Y-52845237D02*
X228204819Y-52654761D01*
X228204819Y-52654761D02*
X228252438Y-52559523D01*
X228252438Y-52559523D02*
X228300057Y-52511904D01*
X228300057Y-52511904D02*
X228395295Y-52464285D01*
X228395295Y-52464285D02*
X228442914Y-52464285D01*
X228442914Y-52464285D02*
X228538152Y-52511904D01*
X228538152Y-52511904D02*
X228585771Y-52559523D01*
X228585771Y-52559523D02*
X228633390Y-52654761D01*
X228633390Y-52654761D02*
X228633390Y-52845237D01*
X228633390Y-52845237D02*
X228681009Y-52940475D01*
X228681009Y-52940475D02*
X228728628Y-52988094D01*
X228728628Y-52988094D02*
X228823866Y-53035713D01*
X228823866Y-53035713D02*
X229014342Y-53035713D01*
X229014342Y-53035713D02*
X229109580Y-52988094D01*
X229109580Y-52988094D02*
X229157200Y-52940475D01*
X229157200Y-52940475D02*
X229204819Y-52845237D01*
X229204819Y-52845237D02*
X229204819Y-52654761D01*
X229204819Y-52654761D02*
X229157200Y-52559523D01*
X229157200Y-52559523D02*
X229109580Y-52511904D01*
X229109580Y-52511904D02*
X229014342Y-52464285D01*
X229014342Y-52464285D02*
X228823866Y-52464285D01*
X228823866Y-52464285D02*
X228728628Y-52511904D01*
X228728628Y-52511904D02*
X228681009Y-52559523D01*
X228681009Y-52559523D02*
X228633390Y-52654761D01*
X252357142Y-17359580D02*
X252309523Y-17407200D01*
X252309523Y-17407200D02*
X252166666Y-17454819D01*
X252166666Y-17454819D02*
X252071428Y-17454819D01*
X252071428Y-17454819D02*
X251928571Y-17407200D01*
X251928571Y-17407200D02*
X251833333Y-17311961D01*
X251833333Y-17311961D02*
X251785714Y-17216723D01*
X251785714Y-17216723D02*
X251738095Y-17026247D01*
X251738095Y-17026247D02*
X251738095Y-16883390D01*
X251738095Y-16883390D02*
X251785714Y-16692914D01*
X251785714Y-16692914D02*
X251833333Y-16597676D01*
X251833333Y-16597676D02*
X251928571Y-16502438D01*
X251928571Y-16502438D02*
X252071428Y-16454819D01*
X252071428Y-16454819D02*
X252166666Y-16454819D01*
X252166666Y-16454819D02*
X252309523Y-16502438D01*
X252309523Y-16502438D02*
X252357142Y-16550057D01*
X253309523Y-17454819D02*
X252738095Y-17454819D01*
X253023809Y-17454819D02*
X253023809Y-16454819D01*
X253023809Y-16454819D02*
X252928571Y-16597676D01*
X252928571Y-16597676D02*
X252833333Y-16692914D01*
X252833333Y-16692914D02*
X252738095Y-16740533D01*
X253642857Y-16454819D02*
X254309523Y-16454819D01*
X254309523Y-16454819D02*
X253880952Y-17454819D01*
X250754762Y-35007200D02*
X250897619Y-35054819D01*
X250897619Y-35054819D02*
X251135714Y-35054819D01*
X251135714Y-35054819D02*
X251230952Y-35007200D01*
X251230952Y-35007200D02*
X251278571Y-34959580D01*
X251278571Y-34959580D02*
X251326190Y-34864342D01*
X251326190Y-34864342D02*
X251326190Y-34769104D01*
X251326190Y-34769104D02*
X251278571Y-34673866D01*
X251278571Y-34673866D02*
X251230952Y-34626247D01*
X251230952Y-34626247D02*
X251135714Y-34578628D01*
X251135714Y-34578628D02*
X250945238Y-34531009D01*
X250945238Y-34531009D02*
X250850000Y-34483390D01*
X250850000Y-34483390D02*
X250802381Y-34435771D01*
X250802381Y-34435771D02*
X250754762Y-34340533D01*
X250754762Y-34340533D02*
X250754762Y-34245295D01*
X250754762Y-34245295D02*
X250802381Y-34150057D01*
X250802381Y-34150057D02*
X250850000Y-34102438D01*
X250850000Y-34102438D02*
X250945238Y-34054819D01*
X250945238Y-34054819D02*
X251183333Y-34054819D01*
X251183333Y-34054819D02*
X251326190Y-34102438D01*
X251611905Y-34054819D02*
X252183333Y-34054819D01*
X251897619Y-35054819D02*
X251897619Y-34054819D01*
X252516667Y-34531009D02*
X252850000Y-34531009D01*
X252992857Y-35054819D02*
X252516667Y-35054819D01*
X252516667Y-35054819D02*
X252516667Y-34054819D01*
X252516667Y-34054819D02*
X252992857Y-34054819D01*
X253421429Y-35054819D02*
X253421429Y-34054819D01*
X253421429Y-34054819D02*
X253802381Y-34054819D01*
X253802381Y-34054819D02*
X253897619Y-34102438D01*
X253897619Y-34102438D02*
X253945238Y-34150057D01*
X253945238Y-34150057D02*
X253992857Y-34245295D01*
X253992857Y-34245295D02*
X253992857Y-34388152D01*
X253992857Y-34388152D02*
X253945238Y-34483390D01*
X253945238Y-34483390D02*
X253897619Y-34531009D01*
X253897619Y-34531009D02*
X253802381Y-34578628D01*
X253802381Y-34578628D02*
X253421429Y-34578628D01*
X254945238Y-35054819D02*
X254373810Y-35054819D01*
X254659524Y-35054819D02*
X254659524Y-34054819D01*
X254659524Y-34054819D02*
X254564286Y-34197676D01*
X254564286Y-34197676D02*
X254469048Y-34292914D01*
X254469048Y-34292914D02*
X254373810Y-34340533D01*
X264446428Y-92011580D02*
X264398809Y-92059200D01*
X264398809Y-92059200D02*
X264255952Y-92106819D01*
X264255952Y-92106819D02*
X264160714Y-92106819D01*
X264160714Y-92106819D02*
X264017857Y-92059200D01*
X264017857Y-92059200D02*
X263922619Y-91963961D01*
X263922619Y-91963961D02*
X263875000Y-91868723D01*
X263875000Y-91868723D02*
X263827381Y-91678247D01*
X263827381Y-91678247D02*
X263827381Y-91535390D01*
X263827381Y-91535390D02*
X263875000Y-91344914D01*
X263875000Y-91344914D02*
X263922619Y-91249676D01*
X263922619Y-91249676D02*
X264017857Y-91154438D01*
X264017857Y-91154438D02*
X264160714Y-91106819D01*
X264160714Y-91106819D02*
X264255952Y-91106819D01*
X264255952Y-91106819D02*
X264398809Y-91154438D01*
X264398809Y-91154438D02*
X264446428Y-91202057D01*
X265303571Y-92106819D02*
X265303571Y-91583009D01*
X265303571Y-91583009D02*
X265255952Y-91487771D01*
X265255952Y-91487771D02*
X265160714Y-91440152D01*
X265160714Y-91440152D02*
X264970238Y-91440152D01*
X264970238Y-91440152D02*
X264875000Y-91487771D01*
X265303571Y-92059200D02*
X265208333Y-92106819D01*
X265208333Y-92106819D02*
X264970238Y-92106819D01*
X264970238Y-92106819D02*
X264875000Y-92059200D01*
X264875000Y-92059200D02*
X264827381Y-91963961D01*
X264827381Y-91963961D02*
X264827381Y-91868723D01*
X264827381Y-91868723D02*
X264875000Y-91773485D01*
X264875000Y-91773485D02*
X264970238Y-91725866D01*
X264970238Y-91725866D02*
X265208333Y-91725866D01*
X265208333Y-91725866D02*
X265303571Y-91678247D01*
X265779762Y-92106819D02*
X265779762Y-91440152D01*
X265779762Y-91630628D02*
X265827381Y-91535390D01*
X265827381Y-91535390D02*
X265875000Y-91487771D01*
X265875000Y-91487771D02*
X265970238Y-91440152D01*
X265970238Y-91440152D02*
X266065476Y-91440152D01*
X266398810Y-92106819D02*
X266398810Y-91440152D01*
X266398810Y-91630628D02*
X266446429Y-91535390D01*
X266446429Y-91535390D02*
X266494048Y-91487771D01*
X266494048Y-91487771D02*
X266589286Y-91440152D01*
X266589286Y-91440152D02*
X266684524Y-91440152D01*
X267017858Y-92106819D02*
X267017858Y-91106819D01*
X267494048Y-91440152D02*
X267494048Y-92106819D01*
X267494048Y-91535390D02*
X267541667Y-91487771D01*
X267541667Y-91487771D02*
X267636905Y-91440152D01*
X267636905Y-91440152D02*
X267779762Y-91440152D01*
X267779762Y-91440152D02*
X267875000Y-91487771D01*
X267875000Y-91487771D02*
X267922619Y-91583009D01*
X267922619Y-91583009D02*
X267922619Y-92106819D01*
X263736905Y-90829200D02*
X268060715Y-90829200D01*
X268922619Y-92106819D02*
X268351191Y-92106819D01*
X268636905Y-92106819D02*
X268636905Y-91106819D01*
X268636905Y-91106819D02*
X268541667Y-91249676D01*
X268541667Y-91249676D02*
X268446429Y-91344914D01*
X268446429Y-91344914D02*
X268351191Y-91392533D01*
X254857142Y-14609580D02*
X254809523Y-14657200D01*
X254809523Y-14657200D02*
X254666666Y-14704819D01*
X254666666Y-14704819D02*
X254571428Y-14704819D01*
X254571428Y-14704819D02*
X254428571Y-14657200D01*
X254428571Y-14657200D02*
X254333333Y-14561961D01*
X254333333Y-14561961D02*
X254285714Y-14466723D01*
X254285714Y-14466723D02*
X254238095Y-14276247D01*
X254238095Y-14276247D02*
X254238095Y-14133390D01*
X254238095Y-14133390D02*
X254285714Y-13942914D01*
X254285714Y-13942914D02*
X254333333Y-13847676D01*
X254333333Y-13847676D02*
X254428571Y-13752438D01*
X254428571Y-13752438D02*
X254571428Y-13704819D01*
X254571428Y-13704819D02*
X254666666Y-13704819D01*
X254666666Y-13704819D02*
X254809523Y-13752438D01*
X254809523Y-13752438D02*
X254857142Y-13800057D01*
X255809523Y-14704819D02*
X255238095Y-14704819D01*
X255523809Y-14704819D02*
X255523809Y-13704819D01*
X255523809Y-13704819D02*
X255428571Y-13847676D01*
X255428571Y-13847676D02*
X255333333Y-13942914D01*
X255333333Y-13942914D02*
X255238095Y-13990533D01*
X256761904Y-14704819D02*
X256190476Y-14704819D01*
X256476190Y-14704819D02*
X256476190Y-13704819D01*
X256476190Y-13704819D02*
X256380952Y-13847676D01*
X256380952Y-13847676D02*
X256285714Y-13942914D01*
X256285714Y-13942914D02*
X256190476Y-13990533D01*
X273480952Y-43806009D02*
X273814285Y-43806009D01*
X273957142Y-44329819D02*
X273480952Y-44329819D01*
X273480952Y-44329819D02*
X273480952Y-43329819D01*
X273480952Y-43329819D02*
X273957142Y-43329819D01*
X274385714Y-44329819D02*
X274385714Y-43329819D01*
X274385714Y-43329819D02*
X274957142Y-44329819D01*
X274957142Y-44329819D02*
X274957142Y-43329819D01*
X275766666Y-43806009D02*
X275909523Y-43853628D01*
X275909523Y-43853628D02*
X275957142Y-43901247D01*
X275957142Y-43901247D02*
X276004761Y-43996485D01*
X276004761Y-43996485D02*
X276004761Y-44139342D01*
X276004761Y-44139342D02*
X275957142Y-44234580D01*
X275957142Y-44234580D02*
X275909523Y-44282200D01*
X275909523Y-44282200D02*
X275814285Y-44329819D01*
X275814285Y-44329819D02*
X275433333Y-44329819D01*
X275433333Y-44329819D02*
X275433333Y-43329819D01*
X275433333Y-43329819D02*
X275766666Y-43329819D01*
X275766666Y-43329819D02*
X275861904Y-43377438D01*
X275861904Y-43377438D02*
X275909523Y-43425057D01*
X275909523Y-43425057D02*
X275957142Y-43520295D01*
X275957142Y-43520295D02*
X275957142Y-43615533D01*
X275957142Y-43615533D02*
X275909523Y-43710771D01*
X275909523Y-43710771D02*
X275861904Y-43758390D01*
X275861904Y-43758390D02*
X275766666Y-43806009D01*
X275766666Y-43806009D02*
X275433333Y-43806009D01*
X276909523Y-44329819D02*
X276433333Y-44329819D01*
X276433333Y-44329819D02*
X276433333Y-43329819D01*
X273342857Y-43052200D02*
X276904762Y-43052200D01*
X277766666Y-44329819D02*
X277195238Y-44329819D01*
X277480952Y-44329819D02*
X277480952Y-43329819D01*
X277480952Y-43329819D02*
X277385714Y-43472676D01*
X277385714Y-43472676D02*
X277290476Y-43567914D01*
X277290476Y-43567914D02*
X277195238Y-43615533D01*
X232833333Y-70559580D02*
X232785714Y-70607200D01*
X232785714Y-70607200D02*
X232642857Y-70654819D01*
X232642857Y-70654819D02*
X232547619Y-70654819D01*
X232547619Y-70654819D02*
X232404762Y-70607200D01*
X232404762Y-70607200D02*
X232309524Y-70511961D01*
X232309524Y-70511961D02*
X232261905Y-70416723D01*
X232261905Y-70416723D02*
X232214286Y-70226247D01*
X232214286Y-70226247D02*
X232214286Y-70083390D01*
X232214286Y-70083390D02*
X232261905Y-69892914D01*
X232261905Y-69892914D02*
X232309524Y-69797676D01*
X232309524Y-69797676D02*
X232404762Y-69702438D01*
X232404762Y-69702438D02*
X232547619Y-69654819D01*
X232547619Y-69654819D02*
X232642857Y-69654819D01*
X232642857Y-69654819D02*
X232785714Y-69702438D01*
X232785714Y-69702438D02*
X232833333Y-69750057D01*
X233309524Y-70654819D02*
X233500000Y-70654819D01*
X233500000Y-70654819D02*
X233595238Y-70607200D01*
X233595238Y-70607200D02*
X233642857Y-70559580D01*
X233642857Y-70559580D02*
X233738095Y-70416723D01*
X233738095Y-70416723D02*
X233785714Y-70226247D01*
X233785714Y-70226247D02*
X233785714Y-69845295D01*
X233785714Y-69845295D02*
X233738095Y-69750057D01*
X233738095Y-69750057D02*
X233690476Y-69702438D01*
X233690476Y-69702438D02*
X233595238Y-69654819D01*
X233595238Y-69654819D02*
X233404762Y-69654819D01*
X233404762Y-69654819D02*
X233309524Y-69702438D01*
X233309524Y-69702438D02*
X233261905Y-69750057D01*
X233261905Y-69750057D02*
X233214286Y-69845295D01*
X233214286Y-69845295D02*
X233214286Y-70083390D01*
X233214286Y-70083390D02*
X233261905Y-70178628D01*
X233261905Y-70178628D02*
X233309524Y-70226247D01*
X233309524Y-70226247D02*
X233404762Y-70273866D01*
X233404762Y-70273866D02*
X233595238Y-70273866D01*
X233595238Y-70273866D02*
X233690476Y-70226247D01*
X233690476Y-70226247D02*
X233738095Y-70178628D01*
X233738095Y-70178628D02*
X233785714Y-70083390D01*
X261000000Y-97554819D02*
X261666666Y-97554819D01*
X261666666Y-97554819D02*
X261000000Y-98554819D01*
X261000000Y-98554819D02*
X261666666Y-98554819D01*
X262428571Y-98507200D02*
X262333333Y-98554819D01*
X262333333Y-98554819D02*
X262142857Y-98554819D01*
X262142857Y-98554819D02*
X262047619Y-98507200D01*
X262047619Y-98507200D02*
X262000000Y-98411961D01*
X262000000Y-98411961D02*
X262000000Y-98031009D01*
X262000000Y-98031009D02*
X262047619Y-97935771D01*
X262047619Y-97935771D02*
X262142857Y-97888152D01*
X262142857Y-97888152D02*
X262333333Y-97888152D01*
X262333333Y-97888152D02*
X262428571Y-97935771D01*
X262428571Y-97935771D02*
X262476190Y-98031009D01*
X262476190Y-98031009D02*
X262476190Y-98126247D01*
X262476190Y-98126247D02*
X262000000Y-98221485D01*
X262904762Y-98554819D02*
X262904762Y-97888152D01*
X262904762Y-98078628D02*
X262952381Y-97983390D01*
X262952381Y-97983390D02*
X263000000Y-97935771D01*
X263000000Y-97935771D02*
X263095238Y-97888152D01*
X263095238Y-97888152D02*
X263190476Y-97888152D01*
X263523810Y-98554819D02*
X263523810Y-97888152D01*
X263523810Y-98078628D02*
X263571429Y-97983390D01*
X263571429Y-97983390D02*
X263619048Y-97935771D01*
X263619048Y-97935771D02*
X263714286Y-97888152D01*
X263714286Y-97888152D02*
X263809524Y-97888152D01*
X264285715Y-98554819D02*
X264190477Y-98507200D01*
X264190477Y-98507200D02*
X264142858Y-98459580D01*
X264142858Y-98459580D02*
X264095239Y-98364342D01*
X264095239Y-98364342D02*
X264095239Y-98078628D01*
X264095239Y-98078628D02*
X264142858Y-97983390D01*
X264142858Y-97983390D02*
X264190477Y-97935771D01*
X264190477Y-97935771D02*
X264285715Y-97888152D01*
X264285715Y-97888152D02*
X264428572Y-97888152D01*
X264428572Y-97888152D02*
X264523810Y-97935771D01*
X264523810Y-97935771D02*
X264571429Y-97983390D01*
X264571429Y-97983390D02*
X264619048Y-98078628D01*
X264619048Y-98078628D02*
X264619048Y-98364342D01*
X264619048Y-98364342D02*
X264571429Y-98459580D01*
X264571429Y-98459580D02*
X264523810Y-98507200D01*
X264523810Y-98507200D02*
X264428572Y-98554819D01*
X264428572Y-98554819D02*
X264285715Y-98554819D01*
X265047620Y-98554819D02*
X265047620Y-97554819D01*
X265523810Y-97888152D02*
X265523810Y-98554819D01*
X265523810Y-97983390D02*
X265571429Y-97935771D01*
X265571429Y-97935771D02*
X265666667Y-97888152D01*
X265666667Y-97888152D02*
X265809524Y-97888152D01*
X265809524Y-97888152D02*
X265904762Y-97935771D01*
X265904762Y-97935771D02*
X265952381Y-98031009D01*
X265952381Y-98031009D02*
X265952381Y-98554819D01*
X266952381Y-98554819D02*
X266380953Y-98554819D01*
X266666667Y-98554819D02*
X266666667Y-97554819D01*
X266666667Y-97554819D02*
X266571429Y-97697676D01*
X266571429Y-97697676D02*
X266476191Y-97792914D01*
X266476191Y-97792914D02*
X266380953Y-97840533D01*
X275928095Y-77284819D02*
X275928095Y-78094342D01*
X275928095Y-78094342D02*
X275975714Y-78189580D01*
X275975714Y-78189580D02*
X276023333Y-78237200D01*
X276023333Y-78237200D02*
X276118571Y-78284819D01*
X276118571Y-78284819D02*
X276309047Y-78284819D01*
X276309047Y-78284819D02*
X276404285Y-78237200D01*
X276404285Y-78237200D02*
X276451904Y-78189580D01*
X276451904Y-78189580D02*
X276499523Y-78094342D01*
X276499523Y-78094342D02*
X276499523Y-77284819D01*
X277451904Y-77284819D02*
X276975714Y-77284819D01*
X276975714Y-77284819D02*
X276928095Y-77761009D01*
X276928095Y-77761009D02*
X276975714Y-77713390D01*
X276975714Y-77713390D02*
X277070952Y-77665771D01*
X277070952Y-77665771D02*
X277309047Y-77665771D01*
X277309047Y-77665771D02*
X277404285Y-77713390D01*
X277404285Y-77713390D02*
X277451904Y-77761009D01*
X277451904Y-77761009D02*
X277499523Y-77856247D01*
X277499523Y-77856247D02*
X277499523Y-78094342D01*
X277499523Y-78094342D02*
X277451904Y-78189580D01*
X277451904Y-78189580D02*
X277404285Y-78237200D01*
X277404285Y-78237200D02*
X277309047Y-78284819D01*
X277309047Y-78284819D02*
X277070952Y-78284819D01*
X277070952Y-78284819D02*
X276975714Y-78237200D01*
X276975714Y-78237200D02*
X276928095Y-78189580D01*
X276657142Y-14209580D02*
X276609523Y-14257200D01*
X276609523Y-14257200D02*
X276466666Y-14304819D01*
X276466666Y-14304819D02*
X276371428Y-14304819D01*
X276371428Y-14304819D02*
X276228571Y-14257200D01*
X276228571Y-14257200D02*
X276133333Y-14161961D01*
X276133333Y-14161961D02*
X276085714Y-14066723D01*
X276085714Y-14066723D02*
X276038095Y-13876247D01*
X276038095Y-13876247D02*
X276038095Y-13733390D01*
X276038095Y-13733390D02*
X276085714Y-13542914D01*
X276085714Y-13542914D02*
X276133333Y-13447676D01*
X276133333Y-13447676D02*
X276228571Y-13352438D01*
X276228571Y-13352438D02*
X276371428Y-13304819D01*
X276371428Y-13304819D02*
X276466666Y-13304819D01*
X276466666Y-13304819D02*
X276609523Y-13352438D01*
X276609523Y-13352438D02*
X276657142Y-13400057D01*
X277609523Y-14304819D02*
X277038095Y-14304819D01*
X277323809Y-14304819D02*
X277323809Y-13304819D01*
X277323809Y-13304819D02*
X277228571Y-13447676D01*
X277228571Y-13447676D02*
X277133333Y-13542914D01*
X277133333Y-13542914D02*
X277038095Y-13590533D01*
X277990476Y-13400057D02*
X278038095Y-13352438D01*
X278038095Y-13352438D02*
X278133333Y-13304819D01*
X278133333Y-13304819D02*
X278371428Y-13304819D01*
X278371428Y-13304819D02*
X278466666Y-13352438D01*
X278466666Y-13352438D02*
X278514285Y-13400057D01*
X278514285Y-13400057D02*
X278561904Y-13495295D01*
X278561904Y-13495295D02*
X278561904Y-13590533D01*
X278561904Y-13590533D02*
X278514285Y-13733390D01*
X278514285Y-13733390D02*
X277942857Y-14304819D01*
X277942857Y-14304819D02*
X278561904Y-14304819D01*
X230459580Y-41766666D02*
X230507200Y-41814285D01*
X230507200Y-41814285D02*
X230554819Y-41957142D01*
X230554819Y-41957142D02*
X230554819Y-42052380D01*
X230554819Y-42052380D02*
X230507200Y-42195237D01*
X230507200Y-42195237D02*
X230411961Y-42290475D01*
X230411961Y-42290475D02*
X230316723Y-42338094D01*
X230316723Y-42338094D02*
X230126247Y-42385713D01*
X230126247Y-42385713D02*
X229983390Y-42385713D01*
X229983390Y-42385713D02*
X229792914Y-42338094D01*
X229792914Y-42338094D02*
X229697676Y-42290475D01*
X229697676Y-42290475D02*
X229602438Y-42195237D01*
X229602438Y-42195237D02*
X229554819Y-42052380D01*
X229554819Y-42052380D02*
X229554819Y-41957142D01*
X229554819Y-41957142D02*
X229602438Y-41814285D01*
X229602438Y-41814285D02*
X229650057Y-41766666D01*
X229554819Y-41433332D02*
X229554819Y-40766666D01*
X229554819Y-40766666D02*
X230554819Y-41195237D01*
X189004819Y-41947618D02*
X189004819Y-41376190D01*
X190004819Y-41661904D02*
X189004819Y-41661904D01*
X189719104Y-41090475D02*
X189719104Y-40614285D01*
X190004819Y-41185713D02*
X189004819Y-40852380D01*
X189004819Y-40852380D02*
X190004819Y-40519047D01*
X189481009Y-39852380D02*
X189528628Y-39709523D01*
X189528628Y-39709523D02*
X189576247Y-39661904D01*
X189576247Y-39661904D02*
X189671485Y-39614285D01*
X189671485Y-39614285D02*
X189814342Y-39614285D01*
X189814342Y-39614285D02*
X189909580Y-39661904D01*
X189909580Y-39661904D02*
X189957200Y-39709523D01*
X189957200Y-39709523D02*
X190004819Y-39804761D01*
X190004819Y-39804761D02*
X190004819Y-40185713D01*
X190004819Y-40185713D02*
X189004819Y-40185713D01*
X189004819Y-40185713D02*
X189004819Y-39852380D01*
X189004819Y-39852380D02*
X189052438Y-39757142D01*
X189052438Y-39757142D02*
X189100057Y-39709523D01*
X189100057Y-39709523D02*
X189195295Y-39661904D01*
X189195295Y-39661904D02*
X189290533Y-39661904D01*
X189290533Y-39661904D02*
X189385771Y-39709523D01*
X189385771Y-39709523D02*
X189433390Y-39757142D01*
X189433390Y-39757142D02*
X189481009Y-39852380D01*
X189481009Y-39852380D02*
X189481009Y-40185713D01*
X190004819Y-38709523D02*
X190004819Y-39185713D01*
X190004819Y-39185713D02*
X189004819Y-39185713D01*
X189481009Y-38376189D02*
X189481009Y-38042856D01*
X190004819Y-37899999D02*
X190004819Y-38376189D01*
X190004819Y-38376189D02*
X189004819Y-38376189D01*
X189004819Y-38376189D02*
X189004819Y-37899999D01*
X189433390Y-37328570D02*
X189385771Y-37423808D01*
X189385771Y-37423808D02*
X189338152Y-37471427D01*
X189338152Y-37471427D02*
X189242914Y-37519046D01*
X189242914Y-37519046D02*
X189195295Y-37519046D01*
X189195295Y-37519046D02*
X189100057Y-37471427D01*
X189100057Y-37471427D02*
X189052438Y-37423808D01*
X189052438Y-37423808D02*
X189004819Y-37328570D01*
X189004819Y-37328570D02*
X189004819Y-37138094D01*
X189004819Y-37138094D02*
X189052438Y-37042856D01*
X189052438Y-37042856D02*
X189100057Y-36995237D01*
X189100057Y-36995237D02*
X189195295Y-36947618D01*
X189195295Y-36947618D02*
X189242914Y-36947618D01*
X189242914Y-36947618D02*
X189338152Y-36995237D01*
X189338152Y-36995237D02*
X189385771Y-37042856D01*
X189385771Y-37042856D02*
X189433390Y-37138094D01*
X189433390Y-37138094D02*
X189433390Y-37328570D01*
X189433390Y-37328570D02*
X189481009Y-37423808D01*
X189481009Y-37423808D02*
X189528628Y-37471427D01*
X189528628Y-37471427D02*
X189623866Y-37519046D01*
X189623866Y-37519046D02*
X189814342Y-37519046D01*
X189814342Y-37519046D02*
X189909580Y-37471427D01*
X189909580Y-37471427D02*
X189957200Y-37423808D01*
X189957200Y-37423808D02*
X190004819Y-37328570D01*
X190004819Y-37328570D02*
X190004819Y-37138094D01*
X190004819Y-37138094D02*
X189957200Y-37042856D01*
X189957200Y-37042856D02*
X189909580Y-36995237D01*
X189909580Y-36995237D02*
X189814342Y-36947618D01*
X189814342Y-36947618D02*
X189623866Y-36947618D01*
X189623866Y-36947618D02*
X189528628Y-36995237D01*
X189528628Y-36995237D02*
X189481009Y-37042856D01*
X189481009Y-37042856D02*
X189433390Y-37138094D01*
X232859580Y-56416666D02*
X232907200Y-56464285D01*
X232907200Y-56464285D02*
X232954819Y-56607142D01*
X232954819Y-56607142D02*
X232954819Y-56702380D01*
X232954819Y-56702380D02*
X232907200Y-56845237D01*
X232907200Y-56845237D02*
X232811961Y-56940475D01*
X232811961Y-56940475D02*
X232716723Y-56988094D01*
X232716723Y-56988094D02*
X232526247Y-57035713D01*
X232526247Y-57035713D02*
X232383390Y-57035713D01*
X232383390Y-57035713D02*
X232192914Y-56988094D01*
X232192914Y-56988094D02*
X232097676Y-56940475D01*
X232097676Y-56940475D02*
X232002438Y-56845237D01*
X232002438Y-56845237D02*
X231954819Y-56702380D01*
X231954819Y-56702380D02*
X231954819Y-56607142D01*
X231954819Y-56607142D02*
X232002438Y-56464285D01*
X232002438Y-56464285D02*
X232050057Y-56416666D01*
X232050057Y-56035713D02*
X232002438Y-55988094D01*
X232002438Y-55988094D02*
X231954819Y-55892856D01*
X231954819Y-55892856D02*
X231954819Y-55654761D01*
X231954819Y-55654761D02*
X232002438Y-55559523D01*
X232002438Y-55559523D02*
X232050057Y-55511904D01*
X232050057Y-55511904D02*
X232145295Y-55464285D01*
X232145295Y-55464285D02*
X232240533Y-55464285D01*
X232240533Y-55464285D02*
X232383390Y-55511904D01*
X232383390Y-55511904D02*
X232954819Y-56083332D01*
X232954819Y-56083332D02*
X232954819Y-55464285D01*
X263131009Y-71547618D02*
X263178628Y-71404761D01*
X263178628Y-71404761D02*
X263226247Y-71357142D01*
X263226247Y-71357142D02*
X263321485Y-71309523D01*
X263321485Y-71309523D02*
X263464342Y-71309523D01*
X263464342Y-71309523D02*
X263559580Y-71357142D01*
X263559580Y-71357142D02*
X263607200Y-71404761D01*
X263607200Y-71404761D02*
X263654819Y-71499999D01*
X263654819Y-71499999D02*
X263654819Y-71880951D01*
X263654819Y-71880951D02*
X262654819Y-71880951D01*
X262654819Y-71880951D02*
X262654819Y-71547618D01*
X262654819Y-71547618D02*
X262702438Y-71452380D01*
X262702438Y-71452380D02*
X262750057Y-71404761D01*
X262750057Y-71404761D02*
X262845295Y-71357142D01*
X262845295Y-71357142D02*
X262940533Y-71357142D01*
X262940533Y-71357142D02*
X263035771Y-71404761D01*
X263035771Y-71404761D02*
X263083390Y-71452380D01*
X263083390Y-71452380D02*
X263131009Y-71547618D01*
X263131009Y-71547618D02*
X263131009Y-71880951D01*
X263750057Y-71119047D02*
X263750057Y-70357142D01*
X263654819Y-70119046D02*
X262654819Y-70119046D01*
X263654819Y-69642856D02*
X262654819Y-69642856D01*
X262654819Y-69642856D02*
X263654819Y-69071428D01*
X263654819Y-69071428D02*
X262654819Y-69071428D01*
X263654819Y-68071428D02*
X263654819Y-68642856D01*
X263654819Y-68357142D02*
X262654819Y-68357142D01*
X262654819Y-68357142D02*
X262797676Y-68452380D01*
X262797676Y-68452380D02*
X262892914Y-68547618D01*
X262892914Y-68547618D02*
X262940533Y-68642856D01*
X239748095Y-13844819D02*
X239748095Y-14654342D01*
X239748095Y-14654342D02*
X239795714Y-14749580D01*
X239795714Y-14749580D02*
X239843333Y-14797200D01*
X239843333Y-14797200D02*
X239938571Y-14844819D01*
X239938571Y-14844819D02*
X240129047Y-14844819D01*
X240129047Y-14844819D02*
X240224285Y-14797200D01*
X240224285Y-14797200D02*
X240271904Y-14749580D01*
X240271904Y-14749580D02*
X240319523Y-14654342D01*
X240319523Y-14654342D02*
X240319523Y-13844819D01*
X241319523Y-14844819D02*
X240748095Y-14844819D01*
X241033809Y-14844819D02*
X241033809Y-13844819D01*
X241033809Y-13844819D02*
X240938571Y-13987676D01*
X240938571Y-13987676D02*
X240843333Y-14082914D01*
X240843333Y-14082914D02*
X240748095Y-14130533D01*
X283359580Y-73666666D02*
X283407200Y-73714285D01*
X283407200Y-73714285D02*
X283454819Y-73857142D01*
X283454819Y-73857142D02*
X283454819Y-73952380D01*
X283454819Y-73952380D02*
X283407200Y-74095237D01*
X283407200Y-74095237D02*
X283311961Y-74190475D01*
X283311961Y-74190475D02*
X283216723Y-74238094D01*
X283216723Y-74238094D02*
X283026247Y-74285713D01*
X283026247Y-74285713D02*
X282883390Y-74285713D01*
X282883390Y-74285713D02*
X282692914Y-74238094D01*
X282692914Y-74238094D02*
X282597676Y-74190475D01*
X282597676Y-74190475D02*
X282502438Y-74095237D01*
X282502438Y-74095237D02*
X282454819Y-73952380D01*
X282454819Y-73952380D02*
X282454819Y-73857142D01*
X282454819Y-73857142D02*
X282502438Y-73714285D01*
X282502438Y-73714285D02*
X282550057Y-73666666D01*
X282454819Y-73333332D02*
X282454819Y-72714285D01*
X282454819Y-72714285D02*
X282835771Y-73047618D01*
X282835771Y-73047618D02*
X282835771Y-72904761D01*
X282835771Y-72904761D02*
X282883390Y-72809523D01*
X282883390Y-72809523D02*
X282931009Y-72761904D01*
X282931009Y-72761904D02*
X283026247Y-72714285D01*
X283026247Y-72714285D02*
X283264342Y-72714285D01*
X283264342Y-72714285D02*
X283359580Y-72761904D01*
X283359580Y-72761904D02*
X283407200Y-72809523D01*
X283407200Y-72809523D02*
X283454819Y-72904761D01*
X283454819Y-72904761D02*
X283454819Y-73190475D01*
X283454819Y-73190475D02*
X283407200Y-73285713D01*
X283407200Y-73285713D02*
X283359580Y-73333332D01*
X263131009Y-60214285D02*
X263178628Y-60071428D01*
X263178628Y-60071428D02*
X263226247Y-60023809D01*
X263226247Y-60023809D02*
X263321485Y-59976190D01*
X263321485Y-59976190D02*
X263464342Y-59976190D01*
X263464342Y-59976190D02*
X263559580Y-60023809D01*
X263559580Y-60023809D02*
X263607200Y-60071428D01*
X263607200Y-60071428D02*
X263654819Y-60166666D01*
X263654819Y-60166666D02*
X263654819Y-60547618D01*
X263654819Y-60547618D02*
X262654819Y-60547618D01*
X262654819Y-60547618D02*
X262654819Y-60214285D01*
X262654819Y-60214285D02*
X262702438Y-60119047D01*
X262702438Y-60119047D02*
X262750057Y-60071428D01*
X262750057Y-60071428D02*
X262845295Y-60023809D01*
X262845295Y-60023809D02*
X262940533Y-60023809D01*
X262940533Y-60023809D02*
X263035771Y-60071428D01*
X263035771Y-60071428D02*
X263083390Y-60119047D01*
X263083390Y-60119047D02*
X263131009Y-60214285D01*
X263131009Y-60214285D02*
X263131009Y-60547618D01*
X263750057Y-59785714D02*
X263750057Y-59023809D01*
X262654819Y-58595237D02*
X262654819Y-58404761D01*
X262654819Y-58404761D02*
X262702438Y-58309523D01*
X262702438Y-58309523D02*
X262797676Y-58214285D01*
X262797676Y-58214285D02*
X262988152Y-58166666D01*
X262988152Y-58166666D02*
X263321485Y-58166666D01*
X263321485Y-58166666D02*
X263511961Y-58214285D01*
X263511961Y-58214285D02*
X263607200Y-58309523D01*
X263607200Y-58309523D02*
X263654819Y-58404761D01*
X263654819Y-58404761D02*
X263654819Y-58595237D01*
X263654819Y-58595237D02*
X263607200Y-58690475D01*
X263607200Y-58690475D02*
X263511961Y-58785713D01*
X263511961Y-58785713D02*
X263321485Y-58833332D01*
X263321485Y-58833332D02*
X262988152Y-58833332D01*
X262988152Y-58833332D02*
X262797676Y-58785713D01*
X262797676Y-58785713D02*
X262702438Y-58690475D01*
X262702438Y-58690475D02*
X262654819Y-58595237D01*
X262654819Y-57738094D02*
X263464342Y-57738094D01*
X263464342Y-57738094D02*
X263559580Y-57690475D01*
X263559580Y-57690475D02*
X263607200Y-57642856D01*
X263607200Y-57642856D02*
X263654819Y-57547618D01*
X263654819Y-57547618D02*
X263654819Y-57357142D01*
X263654819Y-57357142D02*
X263607200Y-57261904D01*
X263607200Y-57261904D02*
X263559580Y-57214285D01*
X263559580Y-57214285D02*
X263464342Y-57166666D01*
X263464342Y-57166666D02*
X262654819Y-57166666D01*
X262654819Y-56833332D02*
X262654819Y-56261904D01*
X263654819Y-56547618D02*
X262654819Y-56547618D01*
X262654819Y-55738094D02*
X262654819Y-55642856D01*
X262654819Y-55642856D02*
X262702438Y-55547618D01*
X262702438Y-55547618D02*
X262750057Y-55499999D01*
X262750057Y-55499999D02*
X262845295Y-55452380D01*
X262845295Y-55452380D02*
X263035771Y-55404761D01*
X263035771Y-55404761D02*
X263273866Y-55404761D01*
X263273866Y-55404761D02*
X263464342Y-55452380D01*
X263464342Y-55452380D02*
X263559580Y-55499999D01*
X263559580Y-55499999D02*
X263607200Y-55547618D01*
X263607200Y-55547618D02*
X263654819Y-55642856D01*
X263654819Y-55642856D02*
X263654819Y-55738094D01*
X263654819Y-55738094D02*
X263607200Y-55833332D01*
X263607200Y-55833332D02*
X263559580Y-55880951D01*
X263559580Y-55880951D02*
X263464342Y-55928570D01*
X263464342Y-55928570D02*
X263273866Y-55976189D01*
X263273866Y-55976189D02*
X263035771Y-55976189D01*
X263035771Y-55976189D02*
X262845295Y-55928570D01*
X262845295Y-55928570D02*
X262750057Y-55880951D01*
X262750057Y-55880951D02*
X262702438Y-55833332D01*
X262702438Y-55833332D02*
X262654819Y-55738094D01*
X233433333Y-78159580D02*
X233385714Y-78207200D01*
X233385714Y-78207200D02*
X233242857Y-78254819D01*
X233242857Y-78254819D02*
X233147619Y-78254819D01*
X233147619Y-78254819D02*
X233004762Y-78207200D01*
X233004762Y-78207200D02*
X232909524Y-78111961D01*
X232909524Y-78111961D02*
X232861905Y-78016723D01*
X232861905Y-78016723D02*
X232814286Y-77826247D01*
X232814286Y-77826247D02*
X232814286Y-77683390D01*
X232814286Y-77683390D02*
X232861905Y-77492914D01*
X232861905Y-77492914D02*
X232909524Y-77397676D01*
X232909524Y-77397676D02*
X233004762Y-77302438D01*
X233004762Y-77302438D02*
X233147619Y-77254819D01*
X233147619Y-77254819D02*
X233242857Y-77254819D01*
X233242857Y-77254819D02*
X233385714Y-77302438D01*
X233385714Y-77302438D02*
X233433333Y-77350057D01*
X234290476Y-77254819D02*
X234100000Y-77254819D01*
X234100000Y-77254819D02*
X234004762Y-77302438D01*
X234004762Y-77302438D02*
X233957143Y-77350057D01*
X233957143Y-77350057D02*
X233861905Y-77492914D01*
X233861905Y-77492914D02*
X233814286Y-77683390D01*
X233814286Y-77683390D02*
X233814286Y-78064342D01*
X233814286Y-78064342D02*
X233861905Y-78159580D01*
X233861905Y-78159580D02*
X233909524Y-78207200D01*
X233909524Y-78207200D02*
X234004762Y-78254819D01*
X234004762Y-78254819D02*
X234195238Y-78254819D01*
X234195238Y-78254819D02*
X234290476Y-78207200D01*
X234290476Y-78207200D02*
X234338095Y-78159580D01*
X234338095Y-78159580D02*
X234385714Y-78064342D01*
X234385714Y-78064342D02*
X234385714Y-77826247D01*
X234385714Y-77826247D02*
X234338095Y-77731009D01*
X234338095Y-77731009D02*
X234290476Y-77683390D01*
X234290476Y-77683390D02*
X234195238Y-77635771D01*
X234195238Y-77635771D02*
X234004762Y-77635771D01*
X234004762Y-77635771D02*
X233909524Y-77683390D01*
X233909524Y-77683390D02*
X233861905Y-77731009D01*
X233861905Y-77731009D02*
X233814286Y-77826247D01*
X281933333Y-19054819D02*
X281600000Y-18578628D01*
X281361905Y-19054819D02*
X281361905Y-18054819D01*
X281361905Y-18054819D02*
X281742857Y-18054819D01*
X281742857Y-18054819D02*
X281838095Y-18102438D01*
X281838095Y-18102438D02*
X281885714Y-18150057D01*
X281885714Y-18150057D02*
X281933333Y-18245295D01*
X281933333Y-18245295D02*
X281933333Y-18388152D01*
X281933333Y-18388152D02*
X281885714Y-18483390D01*
X281885714Y-18483390D02*
X281838095Y-18531009D01*
X281838095Y-18531009D02*
X281742857Y-18578628D01*
X281742857Y-18578628D02*
X281361905Y-18578628D01*
X282314286Y-18150057D02*
X282361905Y-18102438D01*
X282361905Y-18102438D02*
X282457143Y-18054819D01*
X282457143Y-18054819D02*
X282695238Y-18054819D01*
X282695238Y-18054819D02*
X282790476Y-18102438D01*
X282790476Y-18102438D02*
X282838095Y-18150057D01*
X282838095Y-18150057D02*
X282885714Y-18245295D01*
X282885714Y-18245295D02*
X282885714Y-18340533D01*
X282885714Y-18340533D02*
X282838095Y-18483390D01*
X282838095Y-18483390D02*
X282266667Y-19054819D01*
X282266667Y-19054819D02*
X282885714Y-19054819D01*
X188690476Y-98456819D02*
X188690476Y-97456819D01*
X188690476Y-97456819D02*
X189071428Y-97456819D01*
X189071428Y-97456819D02*
X189166666Y-97504438D01*
X189166666Y-97504438D02*
X189214285Y-97552057D01*
X189214285Y-97552057D02*
X189261904Y-97647295D01*
X189261904Y-97647295D02*
X189261904Y-97790152D01*
X189261904Y-97790152D02*
X189214285Y-97885390D01*
X189214285Y-97885390D02*
X189166666Y-97933009D01*
X189166666Y-97933009D02*
X189071428Y-97980628D01*
X189071428Y-97980628D02*
X188690476Y-97980628D01*
X189595238Y-97456819D02*
X189833333Y-98456819D01*
X189833333Y-98456819D02*
X190023809Y-97742533D01*
X190023809Y-97742533D02*
X190214285Y-98456819D01*
X190214285Y-98456819D02*
X190452381Y-97456819D01*
X191404761Y-98456819D02*
X191071428Y-97980628D01*
X190833333Y-98456819D02*
X190833333Y-97456819D01*
X190833333Y-97456819D02*
X191214285Y-97456819D01*
X191214285Y-97456819D02*
X191309523Y-97504438D01*
X191309523Y-97504438D02*
X191357142Y-97552057D01*
X191357142Y-97552057D02*
X191404761Y-97647295D01*
X191404761Y-97647295D02*
X191404761Y-97790152D01*
X191404761Y-97790152D02*
X191357142Y-97885390D01*
X191357142Y-97885390D02*
X191309523Y-97933009D01*
X191309523Y-97933009D02*
X191214285Y-97980628D01*
X191214285Y-97980628D02*
X190833333Y-97980628D01*
X192357142Y-98456819D02*
X191785714Y-98456819D01*
X192071428Y-98456819D02*
X192071428Y-97456819D01*
X192071428Y-97456819D02*
X191976190Y-97599676D01*
X191976190Y-97599676D02*
X191880952Y-97694914D01*
X191880952Y-97694914D02*
X191785714Y-97742533D01*
X267931009Y-86457618D02*
X267978628Y-86314761D01*
X267978628Y-86314761D02*
X268026247Y-86267142D01*
X268026247Y-86267142D02*
X268121485Y-86219523D01*
X268121485Y-86219523D02*
X268264342Y-86219523D01*
X268264342Y-86219523D02*
X268359580Y-86267142D01*
X268359580Y-86267142D02*
X268407200Y-86314761D01*
X268407200Y-86314761D02*
X268454819Y-86409999D01*
X268454819Y-86409999D02*
X268454819Y-86790951D01*
X268454819Y-86790951D02*
X267454819Y-86790951D01*
X267454819Y-86790951D02*
X267454819Y-86457618D01*
X267454819Y-86457618D02*
X267502438Y-86362380D01*
X267502438Y-86362380D02*
X267550057Y-86314761D01*
X267550057Y-86314761D02*
X267645295Y-86267142D01*
X267645295Y-86267142D02*
X267740533Y-86267142D01*
X267740533Y-86267142D02*
X267835771Y-86314761D01*
X267835771Y-86314761D02*
X267883390Y-86362380D01*
X267883390Y-86362380D02*
X267931009Y-86457618D01*
X267931009Y-86457618D02*
X267931009Y-86790951D01*
X268550057Y-86029047D02*
X268550057Y-85267142D01*
X268454819Y-85029046D02*
X267454819Y-85029046D01*
X268454819Y-84552856D02*
X267454819Y-84552856D01*
X267454819Y-84552856D02*
X268454819Y-83981428D01*
X268454819Y-83981428D02*
X267454819Y-83981428D01*
X267454819Y-83314761D02*
X267454819Y-83219523D01*
X267454819Y-83219523D02*
X267502438Y-83124285D01*
X267502438Y-83124285D02*
X267550057Y-83076666D01*
X267550057Y-83076666D02*
X267645295Y-83029047D01*
X267645295Y-83029047D02*
X267835771Y-82981428D01*
X267835771Y-82981428D02*
X268073866Y-82981428D01*
X268073866Y-82981428D02*
X268264342Y-83029047D01*
X268264342Y-83029047D02*
X268359580Y-83076666D01*
X268359580Y-83076666D02*
X268407200Y-83124285D01*
X268407200Y-83124285D02*
X268454819Y-83219523D01*
X268454819Y-83219523D02*
X268454819Y-83314761D01*
X268454819Y-83314761D02*
X268407200Y-83409999D01*
X268407200Y-83409999D02*
X268359580Y-83457618D01*
X268359580Y-83457618D02*
X268264342Y-83505237D01*
X268264342Y-83505237D02*
X268073866Y-83552856D01*
X268073866Y-83552856D02*
X267835771Y-83552856D01*
X267835771Y-83552856D02*
X267645295Y-83505237D01*
X267645295Y-83505237D02*
X267550057Y-83457618D01*
X267550057Y-83457618D02*
X267502438Y-83409999D01*
X267502438Y-83409999D02*
X267454819Y-83314761D01*
X195023809Y-74954819D02*
X194547619Y-74954819D01*
X194547619Y-74954819D02*
X194547619Y-73954819D01*
X195119048Y-75050057D02*
X195880952Y-75050057D01*
X196452381Y-74431009D02*
X196119048Y-74431009D01*
X196119048Y-74954819D02*
X196119048Y-73954819D01*
X196119048Y-73954819D02*
X196595238Y-73954819D01*
X197547619Y-74954819D02*
X197214286Y-74478628D01*
X196976191Y-74954819D02*
X196976191Y-73954819D01*
X196976191Y-73954819D02*
X197357143Y-73954819D01*
X197357143Y-73954819D02*
X197452381Y-74002438D01*
X197452381Y-74002438D02*
X197500000Y-74050057D01*
X197500000Y-74050057D02*
X197547619Y-74145295D01*
X197547619Y-74145295D02*
X197547619Y-74288152D01*
X197547619Y-74288152D02*
X197500000Y-74383390D01*
X197500000Y-74383390D02*
X197452381Y-74431009D01*
X197452381Y-74431009D02*
X197357143Y-74478628D01*
X197357143Y-74478628D02*
X196976191Y-74478628D01*
X194409524Y-73677200D02*
X197638096Y-73677200D01*
X198500000Y-74954819D02*
X197928572Y-74954819D01*
X198214286Y-74954819D02*
X198214286Y-73954819D01*
X198214286Y-73954819D02*
X198119048Y-74097676D01*
X198119048Y-74097676D02*
X198023810Y-74192914D01*
X198023810Y-74192914D02*
X197928572Y-74240533D01*
X273748095Y-36854819D02*
X273748095Y-37664342D01*
X273748095Y-37664342D02*
X273795714Y-37759580D01*
X273795714Y-37759580D02*
X273843333Y-37807200D01*
X273843333Y-37807200D02*
X273938571Y-37854819D01*
X273938571Y-37854819D02*
X274129047Y-37854819D01*
X274129047Y-37854819D02*
X274224285Y-37807200D01*
X274224285Y-37807200D02*
X274271904Y-37759580D01*
X274271904Y-37759580D02*
X274319523Y-37664342D01*
X274319523Y-37664342D02*
X274319523Y-36854819D01*
X274700476Y-36854819D02*
X275319523Y-36854819D01*
X275319523Y-36854819D02*
X274986190Y-37235771D01*
X274986190Y-37235771D02*
X275129047Y-37235771D01*
X275129047Y-37235771D02*
X275224285Y-37283390D01*
X275224285Y-37283390D02*
X275271904Y-37331009D01*
X275271904Y-37331009D02*
X275319523Y-37426247D01*
X275319523Y-37426247D02*
X275319523Y-37664342D01*
X275319523Y-37664342D02*
X275271904Y-37759580D01*
X275271904Y-37759580D02*
X275224285Y-37807200D01*
X275224285Y-37807200D02*
X275129047Y-37854819D01*
X275129047Y-37854819D02*
X274843333Y-37854819D01*
X274843333Y-37854819D02*
X274748095Y-37807200D01*
X274748095Y-37807200D02*
X274700476Y-37759580D01*
X199895238Y-104331009D02*
X200038095Y-104378628D01*
X200038095Y-104378628D02*
X200085714Y-104426247D01*
X200085714Y-104426247D02*
X200133333Y-104521485D01*
X200133333Y-104521485D02*
X200133333Y-104664342D01*
X200133333Y-104664342D02*
X200085714Y-104759580D01*
X200085714Y-104759580D02*
X200038095Y-104807200D01*
X200038095Y-104807200D02*
X199942857Y-104854819D01*
X199942857Y-104854819D02*
X199561905Y-104854819D01*
X199561905Y-104854819D02*
X199561905Y-103854819D01*
X199561905Y-103854819D02*
X199895238Y-103854819D01*
X199895238Y-103854819D02*
X199990476Y-103902438D01*
X199990476Y-103902438D02*
X200038095Y-103950057D01*
X200038095Y-103950057D02*
X200085714Y-104045295D01*
X200085714Y-104045295D02*
X200085714Y-104140533D01*
X200085714Y-104140533D02*
X200038095Y-104235771D01*
X200038095Y-104235771D02*
X199990476Y-104283390D01*
X199990476Y-104283390D02*
X199895238Y-104331009D01*
X199895238Y-104331009D02*
X199561905Y-104331009D01*
X201133333Y-104759580D02*
X201085714Y-104807200D01*
X201085714Y-104807200D02*
X200942857Y-104854819D01*
X200942857Y-104854819D02*
X200847619Y-104854819D01*
X200847619Y-104854819D02*
X200704762Y-104807200D01*
X200704762Y-104807200D02*
X200609524Y-104711961D01*
X200609524Y-104711961D02*
X200561905Y-104616723D01*
X200561905Y-104616723D02*
X200514286Y-104426247D01*
X200514286Y-104426247D02*
X200514286Y-104283390D01*
X200514286Y-104283390D02*
X200561905Y-104092914D01*
X200561905Y-104092914D02*
X200609524Y-103997676D01*
X200609524Y-103997676D02*
X200704762Y-103902438D01*
X200704762Y-103902438D02*
X200847619Y-103854819D01*
X200847619Y-103854819D02*
X200942857Y-103854819D01*
X200942857Y-103854819D02*
X201085714Y-103902438D01*
X201085714Y-103902438D02*
X201133333Y-103950057D01*
X202085714Y-104854819D02*
X201514286Y-104854819D01*
X201800000Y-104854819D02*
X201800000Y-103854819D01*
X201800000Y-103854819D02*
X201704762Y-103997676D01*
X201704762Y-103997676D02*
X201609524Y-104092914D01*
X201609524Y-104092914D02*
X201514286Y-104140533D01*
X252574999Y-36229819D02*
X253174999Y-36229819D01*
X253174999Y-36229819D02*
X252574999Y-37229819D01*
X252574999Y-37229819D02*
X253174999Y-37229819D01*
X253860713Y-37182200D02*
X253774999Y-37229819D01*
X253774999Y-37229819D02*
X253603571Y-37229819D01*
X253603571Y-37229819D02*
X253517856Y-37182200D01*
X253517856Y-37182200D02*
X253474999Y-37086961D01*
X253474999Y-37086961D02*
X253474999Y-36706009D01*
X253474999Y-36706009D02*
X253517856Y-36610771D01*
X253517856Y-36610771D02*
X253603571Y-36563152D01*
X253603571Y-36563152D02*
X253774999Y-36563152D01*
X253774999Y-36563152D02*
X253860713Y-36610771D01*
X253860713Y-36610771D02*
X253903571Y-36706009D01*
X253903571Y-36706009D02*
X253903571Y-36801247D01*
X253903571Y-36801247D02*
X253474999Y-36896485D01*
X254289285Y-37229819D02*
X254289285Y-36563152D01*
X254289285Y-36753628D02*
X254332142Y-36658390D01*
X254332142Y-36658390D02*
X254375000Y-36610771D01*
X254375000Y-36610771D02*
X254460714Y-36563152D01*
X254460714Y-36563152D02*
X254546428Y-36563152D01*
X254846428Y-37229819D02*
X254846428Y-36563152D01*
X254846428Y-36753628D02*
X254889285Y-36658390D01*
X254889285Y-36658390D02*
X254932143Y-36610771D01*
X254932143Y-36610771D02*
X255017857Y-36563152D01*
X255017857Y-36563152D02*
X255103571Y-36563152D01*
X255532143Y-37229819D02*
X255446428Y-37182200D01*
X255446428Y-37182200D02*
X255403571Y-37134580D01*
X255403571Y-37134580D02*
X255360714Y-37039342D01*
X255360714Y-37039342D02*
X255360714Y-36753628D01*
X255360714Y-36753628D02*
X255403571Y-36658390D01*
X255403571Y-36658390D02*
X255446428Y-36610771D01*
X255446428Y-36610771D02*
X255532143Y-36563152D01*
X255532143Y-36563152D02*
X255660714Y-36563152D01*
X255660714Y-36563152D02*
X255746428Y-36610771D01*
X255746428Y-36610771D02*
X255789286Y-36658390D01*
X255789286Y-36658390D02*
X255832143Y-36753628D01*
X255832143Y-36753628D02*
X255832143Y-37039342D01*
X255832143Y-37039342D02*
X255789286Y-37134580D01*
X255789286Y-37134580D02*
X255746428Y-37182200D01*
X255746428Y-37182200D02*
X255660714Y-37229819D01*
X255660714Y-37229819D02*
X255532143Y-37229819D01*
X256389286Y-36229819D02*
X256560714Y-36229819D01*
X256560714Y-36229819D02*
X256646429Y-36277438D01*
X256646429Y-36277438D02*
X256732143Y-36372676D01*
X256732143Y-36372676D02*
X256775000Y-36563152D01*
X256775000Y-36563152D02*
X256775000Y-36896485D01*
X256775000Y-36896485D02*
X256732143Y-37086961D01*
X256732143Y-37086961D02*
X256646429Y-37182200D01*
X256646429Y-37182200D02*
X256560714Y-37229819D01*
X256560714Y-37229819D02*
X256389286Y-37229819D01*
X256389286Y-37229819D02*
X256303572Y-37182200D01*
X256303572Y-37182200D02*
X256217857Y-37086961D01*
X256217857Y-37086961D02*
X256175000Y-36896485D01*
X256175000Y-36896485D02*
X256175000Y-36563152D01*
X256175000Y-36563152D02*
X256217857Y-36372676D01*
X256217857Y-36372676D02*
X256303572Y-36277438D01*
X256303572Y-36277438D02*
X256389286Y-36229819D01*
X257632143Y-37229819D02*
X257117857Y-37229819D01*
X257375000Y-37229819D02*
X257375000Y-36229819D01*
X257375000Y-36229819D02*
X257289286Y-36372676D01*
X257289286Y-36372676D02*
X257203571Y-36467914D01*
X257203571Y-36467914D02*
X257117857Y-36515533D01*
X235954819Y-84457142D02*
X236764342Y-84457142D01*
X236764342Y-84457142D02*
X236859580Y-84419047D01*
X236859580Y-84419047D02*
X236907200Y-84380952D01*
X236907200Y-84380952D02*
X236954819Y-84304761D01*
X236954819Y-84304761D02*
X236954819Y-84152380D01*
X236954819Y-84152380D02*
X236907200Y-84076190D01*
X236907200Y-84076190D02*
X236859580Y-84038095D01*
X236859580Y-84038095D02*
X236764342Y-83999999D01*
X236764342Y-83999999D02*
X235954819Y-83999999D01*
X236954819Y-83619047D02*
X235954819Y-83619047D01*
X235954819Y-83619047D02*
X235954819Y-83314285D01*
X235954819Y-83314285D02*
X236002438Y-83238095D01*
X236002438Y-83238095D02*
X236050057Y-83200000D01*
X236050057Y-83200000D02*
X236145295Y-83161904D01*
X236145295Y-83161904D02*
X236288152Y-83161904D01*
X236288152Y-83161904D02*
X236383390Y-83200000D01*
X236383390Y-83200000D02*
X236431009Y-83238095D01*
X236431009Y-83238095D02*
X236478628Y-83314285D01*
X236478628Y-83314285D02*
X236478628Y-83619047D01*
X236954819Y-82819047D02*
X235954819Y-82819047D01*
X235954819Y-82819047D02*
X235954819Y-82628571D01*
X235954819Y-82628571D02*
X236002438Y-82514285D01*
X236002438Y-82514285D02*
X236097676Y-82438095D01*
X236097676Y-82438095D02*
X236192914Y-82400000D01*
X236192914Y-82400000D02*
X236383390Y-82361904D01*
X236383390Y-82361904D02*
X236526247Y-82361904D01*
X236526247Y-82361904D02*
X236716723Y-82400000D01*
X236716723Y-82400000D02*
X236811961Y-82438095D01*
X236811961Y-82438095D02*
X236907200Y-82514285D01*
X236907200Y-82514285D02*
X236954819Y-82628571D01*
X236954819Y-82628571D02*
X236954819Y-82819047D01*
X237050057Y-82209524D02*
X237050057Y-81600000D01*
X236431009Y-81142857D02*
X236431009Y-81409523D01*
X236954819Y-81409523D02*
X235954819Y-81409523D01*
X235954819Y-81409523D02*
X235954819Y-81028571D01*
X236954819Y-80266666D02*
X236478628Y-80533333D01*
X236954819Y-80723809D02*
X235954819Y-80723809D01*
X235954819Y-80723809D02*
X235954819Y-80419047D01*
X235954819Y-80419047D02*
X236002438Y-80342857D01*
X236002438Y-80342857D02*
X236050057Y-80304762D01*
X236050057Y-80304762D02*
X236145295Y-80266666D01*
X236145295Y-80266666D02*
X236288152Y-80266666D01*
X236288152Y-80266666D02*
X236383390Y-80304762D01*
X236383390Y-80304762D02*
X236431009Y-80342857D01*
X236431009Y-80342857D02*
X236478628Y-80419047D01*
X236478628Y-80419047D02*
X236478628Y-80723809D01*
X235677200Y-84567619D02*
X235677200Y-80194286D01*
X236954819Y-79504762D02*
X236954819Y-79961905D01*
X236954819Y-79733333D02*
X235954819Y-79733333D01*
X235954819Y-79733333D02*
X236097676Y-79809524D01*
X236097676Y-79809524D02*
X236192914Y-79885714D01*
X236192914Y-79885714D02*
X236240533Y-79961905D01*
X225233333Y-74059580D02*
X225185714Y-74107200D01*
X225185714Y-74107200D02*
X225042857Y-74154819D01*
X225042857Y-74154819D02*
X224947619Y-74154819D01*
X224947619Y-74154819D02*
X224804762Y-74107200D01*
X224804762Y-74107200D02*
X224709524Y-74011961D01*
X224709524Y-74011961D02*
X224661905Y-73916723D01*
X224661905Y-73916723D02*
X224614286Y-73726247D01*
X224614286Y-73726247D02*
X224614286Y-73583390D01*
X224614286Y-73583390D02*
X224661905Y-73392914D01*
X224661905Y-73392914D02*
X224709524Y-73297676D01*
X224709524Y-73297676D02*
X224804762Y-73202438D01*
X224804762Y-73202438D02*
X224947619Y-73154819D01*
X224947619Y-73154819D02*
X225042857Y-73154819D01*
X225042857Y-73154819D02*
X225185714Y-73202438D01*
X225185714Y-73202438D02*
X225233333Y-73250057D01*
X226185714Y-74154819D02*
X225614286Y-74154819D01*
X225900000Y-74154819D02*
X225900000Y-73154819D01*
X225900000Y-73154819D02*
X225804762Y-73297676D01*
X225804762Y-73297676D02*
X225709524Y-73392914D01*
X225709524Y-73392914D02*
X225614286Y-73440533D01*
X245557142Y-34861580D02*
X245509523Y-34909200D01*
X245509523Y-34909200D02*
X245366666Y-34956819D01*
X245366666Y-34956819D02*
X245271428Y-34956819D01*
X245271428Y-34956819D02*
X245128571Y-34909200D01*
X245128571Y-34909200D02*
X245033333Y-34813961D01*
X245033333Y-34813961D02*
X244985714Y-34718723D01*
X244985714Y-34718723D02*
X244938095Y-34528247D01*
X244938095Y-34528247D02*
X244938095Y-34385390D01*
X244938095Y-34385390D02*
X244985714Y-34194914D01*
X244985714Y-34194914D02*
X245033333Y-34099676D01*
X245033333Y-34099676D02*
X245128571Y-34004438D01*
X245128571Y-34004438D02*
X245271428Y-33956819D01*
X245271428Y-33956819D02*
X245366666Y-33956819D01*
X245366666Y-33956819D02*
X245509523Y-34004438D01*
X245509523Y-34004438D02*
X245557142Y-34052057D01*
X246414285Y-34956819D02*
X246414285Y-34433009D01*
X246414285Y-34433009D02*
X246366666Y-34337771D01*
X246366666Y-34337771D02*
X246271428Y-34290152D01*
X246271428Y-34290152D02*
X246080952Y-34290152D01*
X246080952Y-34290152D02*
X245985714Y-34337771D01*
X246414285Y-34909200D02*
X246319047Y-34956819D01*
X246319047Y-34956819D02*
X246080952Y-34956819D01*
X246080952Y-34956819D02*
X245985714Y-34909200D01*
X245985714Y-34909200D02*
X245938095Y-34813961D01*
X245938095Y-34813961D02*
X245938095Y-34718723D01*
X245938095Y-34718723D02*
X245985714Y-34623485D01*
X245985714Y-34623485D02*
X246080952Y-34575866D01*
X246080952Y-34575866D02*
X246319047Y-34575866D01*
X246319047Y-34575866D02*
X246414285Y-34528247D01*
X246890476Y-34956819D02*
X246890476Y-34290152D01*
X246890476Y-34480628D02*
X246938095Y-34385390D01*
X246938095Y-34385390D02*
X246985714Y-34337771D01*
X246985714Y-34337771D02*
X247080952Y-34290152D01*
X247080952Y-34290152D02*
X247176190Y-34290152D01*
X247509524Y-34956819D02*
X247509524Y-34290152D01*
X247509524Y-34480628D02*
X247557143Y-34385390D01*
X247557143Y-34385390D02*
X247604762Y-34337771D01*
X247604762Y-34337771D02*
X247700000Y-34290152D01*
X247700000Y-34290152D02*
X247795238Y-34290152D01*
X248033334Y-34290152D02*
X248271429Y-34956819D01*
X248509524Y-34290152D02*
X248271429Y-34956819D01*
X248271429Y-34956819D02*
X248176191Y-35194914D01*
X248176191Y-35194914D02*
X248128572Y-35242533D01*
X248128572Y-35242533D02*
X248033334Y-35290152D01*
X249080953Y-33956819D02*
X249271429Y-33956819D01*
X249271429Y-33956819D02*
X249366667Y-34004438D01*
X249366667Y-34004438D02*
X249461905Y-34099676D01*
X249461905Y-34099676D02*
X249509524Y-34290152D01*
X249509524Y-34290152D02*
X249509524Y-34623485D01*
X249509524Y-34623485D02*
X249461905Y-34813961D01*
X249461905Y-34813961D02*
X249366667Y-34909200D01*
X249366667Y-34909200D02*
X249271429Y-34956819D01*
X249271429Y-34956819D02*
X249080953Y-34956819D01*
X249080953Y-34956819D02*
X248985715Y-34909200D01*
X248985715Y-34909200D02*
X248890477Y-34813961D01*
X248890477Y-34813961D02*
X248842858Y-34623485D01*
X248842858Y-34623485D02*
X248842858Y-34290152D01*
X248842858Y-34290152D02*
X248890477Y-34099676D01*
X248890477Y-34099676D02*
X248985715Y-34004438D01*
X248985715Y-34004438D02*
X249080953Y-33956819D01*
X250461905Y-34956819D02*
X249890477Y-34956819D01*
X250176191Y-34956819D02*
X250176191Y-33956819D01*
X250176191Y-33956819D02*
X250080953Y-34099676D01*
X250080953Y-34099676D02*
X249985715Y-34194914D01*
X249985715Y-34194914D02*
X249890477Y-34242533D01*
D13*
%TO.C,SignO1*%
X248770000Y-38380000D02*
G75*
G02*
X247370000Y-38380000I-700000J0D01*
G01*
X247370000Y-38380000D02*
G75*
G02*
X248770000Y-38380000I700000J0D01*
G01*
%TO.C,TABLE7*%
X190650000Y-52560000D02*
X190650000Y-64680000D01*
X190650000Y-64680000D02*
X226330000Y-64680000D01*
X226330000Y-52560000D02*
X190650000Y-52560000D01*
X226330000Y-57620000D02*
X226330000Y-52560000D01*
X226330000Y-64680000D02*
X226330000Y-59620000D01*
X226390000Y-49560000D02*
X190590000Y-49560000D01*
X190590000Y-67680000D01*
X226390000Y-67680000D01*
X226390000Y-49560000D01*
X226330000Y-59620000D02*
G75*
G02*
X226330000Y-57620000I0J1000000D01*
G01*
%TO.C,C4*%
X200120000Y-99050000D02*
G75*
G02*
X193580000Y-99050000I-3270000J0D01*
G01*
X193580000Y-99050000D02*
G75*
G02*
X200120000Y-99050000I3270000J0D01*
G01*
%TO.C,U2*%
X235240000Y-43750000D02*
X235240000Y-45000000D01*
X235240000Y-47000000D02*
X235240000Y-48250000D01*
X235240000Y-48250000D02*
X260760000Y-48250000D01*
X260760000Y-43750000D02*
X235240000Y-43750000D01*
X260760000Y-48250000D02*
X260760000Y-43750000D01*
X235180000Y-51250000D02*
X260820000Y-51250000D01*
X260820000Y-40750000D01*
X235180000Y-40750000D01*
X235180000Y-51250000D01*
X235240000Y-45000000D02*
G75*
G02*
X235240000Y-47000000I0J-1000000D01*
G01*
%TO.C,~{CLK}1*%
X281700000Y-98500000D02*
G75*
G02*
X280300000Y-98500000I-700000J0D01*
G01*
X280300000Y-98500000D02*
G75*
G02*
X281700000Y-98500000I700000J0D01*
G01*
%TO.C,~{OUT_FR}1*%
X190850000Y-73675000D02*
G75*
G02*
X189450000Y-73675000I-700000J0D01*
G01*
X189450000Y-73675000D02*
G75*
G02*
X190850000Y-73675000I700000J0D01*
G01*
%TO.C,C8*%
X231230000Y-48880000D02*
X231567000Y-48880000D01*
X231230000Y-54120000D02*
X231230000Y-48880000D01*
X231567000Y-54120000D02*
X231230000Y-54120000D01*
X233633000Y-48880000D02*
X233970000Y-48880000D01*
X233970000Y-48880000D02*
X233970000Y-54120000D01*
X233970000Y-54120000D02*
X233633000Y-54120000D01*
%TO.C,C17*%
X250380000Y-19630000D02*
X255620000Y-19630000D01*
X250380000Y-19967000D02*
X250380000Y-19630000D01*
X250380000Y-22370000D02*
X250380000Y-22033000D01*
X255620000Y-19630000D02*
X255620000Y-19967000D01*
X255620000Y-22033000D02*
X255620000Y-22370000D01*
X255620000Y-22370000D02*
X250380000Y-22370000D01*
%TO.C,STEP1*%
X247370000Y-25660000D02*
X247370000Y-26910000D01*
X247370000Y-28910000D02*
X247370000Y-30160000D01*
X247370000Y-30160000D02*
X267810000Y-30160000D01*
X267810000Y-25660000D02*
X247370000Y-25660000D01*
X267810000Y-30160000D02*
X267810000Y-25660000D01*
X247310000Y-33160000D02*
X267870000Y-33160000D01*
X267870000Y-22660000D01*
X247310000Y-22660000D01*
X247310000Y-33160000D01*
X247370000Y-26910000D02*
G75*
G02*
X247370000Y-28910000I0J-1000000D01*
G01*
%TO.C,~{CarrIn}1*%
X264100000Y-93200000D02*
G75*
G02*
X262700000Y-93200000I-700000J0D01*
G01*
X262700000Y-93200000D02*
G75*
G02*
X264100000Y-93200000I700000J0D01*
G01*
D11*
%TO.C,kibuzzard-691DE0EC*%
G36*
X271509286Y-66162143D02*
G01*
X271321429Y-66162143D01*
X271321429Y-65994286D01*
X271366429Y-65994286D01*
X271366429Y-66100000D01*
X271458571Y-66100000D01*
X271458571Y-65994286D01*
X271366429Y-65994286D01*
X271321429Y-65994286D01*
X271321429Y-65932143D01*
X271509286Y-65932143D01*
X271509286Y-66100000D01*
X271509286Y-66162143D01*
G37*
G36*
X271509286Y-73820714D02*
G01*
X271321429Y-73820714D01*
X271321429Y-73652857D01*
X271366429Y-73652857D01*
X271366429Y-73758571D01*
X271458571Y-73758571D01*
X271458571Y-73652857D01*
X271366429Y-73652857D01*
X271321429Y-73652857D01*
X271321429Y-73590714D01*
X271509286Y-73590714D01*
X271509286Y-73758571D01*
X271509286Y-73820714D01*
G37*
G36*
X271978571Y-67469286D02*
G01*
X271844286Y-67469286D01*
X271767857Y-67392857D01*
X271767857Y-67120000D01*
X271823571Y-67120000D01*
X271823571Y-67366429D01*
X271867143Y-67410000D01*
X271924286Y-67410000D01*
X271924286Y-67105714D01*
X271894286Y-67075714D01*
X271867143Y-67075714D01*
X271823571Y-67120000D01*
X271767857Y-67120000D01*
X271767857Y-67095000D01*
X271840714Y-67021429D01*
X271916429Y-67021429D01*
X271978571Y-67083571D01*
X271978571Y-67410000D01*
X271978571Y-67469286D01*
G37*
G36*
X272246429Y-70660000D02*
G01*
X272170000Y-70737143D01*
X271840714Y-70737143D01*
X271767857Y-70662857D01*
X271767857Y-70390000D01*
X271823571Y-70390000D01*
X271823571Y-70639286D01*
X271867143Y-70682857D01*
X272147143Y-70682857D01*
X272190714Y-70639286D01*
X272190714Y-70390000D01*
X272147143Y-70346429D01*
X271867143Y-70346429D01*
X271823571Y-70390000D01*
X271767857Y-70390000D01*
X271767857Y-70364286D01*
X271840000Y-70291429D01*
X272173571Y-70291429D01*
X272246429Y-70364286D01*
X272246429Y-70639286D01*
X272246429Y-70660000D01*
G37*
G36*
X272247857Y-69762143D02*
G01*
X272171429Y-69838571D01*
X271834286Y-69838571D01*
X271765714Y-69769286D01*
X271765714Y-69549286D01*
X271822857Y-69549286D01*
X271822857Y-69741429D01*
X271867143Y-69785000D01*
X272147143Y-69785000D01*
X272190714Y-69741429D01*
X272190714Y-69535714D01*
X272147143Y-69492143D01*
X271880714Y-69492143D01*
X271822857Y-69549286D01*
X271765714Y-69549286D01*
X271765714Y-69532857D01*
X271861429Y-69436429D01*
X272171429Y-69436429D01*
X272247857Y-69512857D01*
X272247857Y-69535714D01*
X272247857Y-69762143D01*
G37*
G36*
X272392857Y-70737857D02*
G01*
X272245714Y-70885000D01*
X271768571Y-70885000D01*
X271621429Y-70737857D01*
X271621429Y-70319286D01*
X271675714Y-70319286D01*
X271675714Y-70707857D01*
X271796429Y-70828571D01*
X272214286Y-70828571D01*
X272337857Y-70705000D01*
X272337857Y-70319286D01*
X272217857Y-70199286D01*
X271795714Y-70199286D01*
X271675714Y-70319286D01*
X271621429Y-70319286D01*
X271621429Y-70291429D01*
X271768571Y-70144286D01*
X272245714Y-70144286D01*
X272392857Y-70291429D01*
X272392857Y-70705000D01*
X272392857Y-70737857D01*
G37*
G36*
X272392857Y-66324286D02*
G01*
X272190714Y-66324286D01*
X272190714Y-66133571D01*
X271823571Y-66133571D01*
X271823571Y-66324286D01*
X271621429Y-66324286D01*
X271621429Y-65990714D01*
X271675000Y-65990714D01*
X271675000Y-66269286D01*
X271767143Y-66269286D01*
X271767143Y-66082143D01*
X272246429Y-66082143D01*
X272246429Y-66269286D01*
X272337857Y-66269286D01*
X272337857Y-65795714D01*
X272246429Y-65795714D01*
X272246429Y-65990714D01*
X271675000Y-65990714D01*
X271621429Y-65990714D01*
X271621429Y-65932143D01*
X272190714Y-65932143D01*
X272190714Y-65741429D01*
X272392857Y-65741429D01*
X272392857Y-66269286D01*
X272392857Y-66324286D01*
G37*
G36*
X272392857Y-68310000D02*
G01*
X272190714Y-68310000D01*
X272190714Y-68117143D01*
X271523571Y-68117143D01*
X271523571Y-68310000D01*
X271321429Y-68310000D01*
X271321429Y-67972143D01*
X271375000Y-67972143D01*
X271375000Y-68255000D01*
X271467143Y-68255000D01*
X271467143Y-68063571D01*
X272246429Y-68063571D01*
X272246429Y-68255000D01*
X272337857Y-68255000D01*
X272337857Y-67777143D01*
X272246429Y-67777143D01*
X272246429Y-67972143D01*
X271375000Y-67972143D01*
X271321429Y-67972143D01*
X271321429Y-67915714D01*
X272190714Y-67915714D01*
X272190714Y-67722857D01*
X272392857Y-67722857D01*
X272392857Y-68255000D01*
X272392857Y-68310000D01*
G37*
G36*
X272392857Y-69839286D02*
G01*
X272245714Y-69987143D01*
X271768571Y-69987143D01*
X271621429Y-69839286D01*
X271621429Y-69506429D01*
X271635000Y-69492143D01*
X271321429Y-69492143D01*
X271321429Y-69344286D01*
X271375000Y-69344286D01*
X271375000Y-69436429D01*
X271752857Y-69436429D01*
X271673571Y-69515714D01*
X271673571Y-69813571D01*
X271790000Y-69930714D01*
X272215714Y-69930714D01*
X272339286Y-69806429D01*
X272339286Y-69468571D01*
X272215714Y-69344286D01*
X271375000Y-69344286D01*
X271321429Y-69344286D01*
X271321429Y-69290000D01*
X272245714Y-69290000D01*
X272392857Y-69437857D01*
X272392857Y-69468571D01*
X272392857Y-69839286D01*
G37*
G36*
X272392857Y-73982857D02*
G01*
X272190714Y-73982857D01*
X272190714Y-73792143D01*
X271823571Y-73792143D01*
X271823571Y-73982857D01*
X271621429Y-73982857D01*
X271621429Y-73649286D01*
X271675000Y-73649286D01*
X271675000Y-73927857D01*
X271767143Y-73927857D01*
X271767143Y-73740714D01*
X272246429Y-73740714D01*
X272246429Y-73927857D01*
X272337857Y-73927857D01*
X272337857Y-73454286D01*
X272246429Y-73454286D01*
X272246429Y-73649286D01*
X271675000Y-73649286D01*
X271621429Y-73649286D01*
X271621429Y-73590714D01*
X272190714Y-73590714D01*
X272190714Y-73400000D01*
X272392857Y-73400000D01*
X272392857Y-73927857D01*
X272392857Y-73982857D01*
G37*
G36*
X272392857Y-61975000D02*
G01*
X271768571Y-61975000D01*
X271621429Y-61827857D01*
X271621429Y-61464286D01*
X271675714Y-61464286D01*
X271675714Y-61798571D01*
X271796429Y-61919286D01*
X272337857Y-61919286D01*
X272337857Y-61827857D01*
X271840714Y-61827857D01*
X271767857Y-61753571D01*
X271767857Y-61508571D01*
X271840000Y-61435714D01*
X272337857Y-61435714D01*
X272337857Y-61344286D01*
X271795714Y-61344286D01*
X271675714Y-61464286D01*
X271621429Y-61464286D01*
X271621429Y-61436429D01*
X271768571Y-61289286D01*
X272392857Y-61289286D01*
X272392857Y-61490714D01*
X271867143Y-61490714D01*
X271823571Y-61534286D01*
X271823571Y-61730000D01*
X271867143Y-61773571D01*
X272392857Y-61773571D01*
X272392857Y-61919286D01*
X272392857Y-61975000D01*
G37*
G36*
X272392857Y-62817857D02*
G01*
X271768571Y-62817857D01*
X271621429Y-62670714D01*
X271621429Y-62307143D01*
X271675714Y-62307143D01*
X271675714Y-62641429D01*
X271796429Y-62762143D01*
X272337857Y-62762143D01*
X272337857Y-62670714D01*
X271840714Y-62670714D01*
X271767857Y-62596429D01*
X271767857Y-62351429D01*
X271840000Y-62278571D01*
X272337857Y-62278571D01*
X272337857Y-62187143D01*
X271795714Y-62187143D01*
X271675714Y-62307143D01*
X271621429Y-62307143D01*
X271621429Y-62279286D01*
X271768571Y-62132143D01*
X272392857Y-62132143D01*
X272392857Y-62333571D01*
X271867143Y-62333571D01*
X271823571Y-62377143D01*
X271823571Y-62572857D01*
X271867143Y-62616429D01*
X272392857Y-62616429D01*
X272392857Y-62762143D01*
X272392857Y-62817857D01*
G37*
G36*
X272392857Y-63529286D02*
G01*
X272245714Y-63676429D01*
X271621429Y-63676429D01*
X271621429Y-63474286D01*
X272147143Y-63474286D01*
X272190714Y-63430714D01*
X272190714Y-63220714D01*
X272147143Y-63177143D01*
X271621429Y-63177143D01*
X271621429Y-63029286D01*
X271675714Y-63029286D01*
X271675714Y-63121429D01*
X272169286Y-63121429D01*
X272245714Y-63194286D01*
X272245714Y-63452857D01*
X272169286Y-63530000D01*
X271675714Y-63530000D01*
X271675714Y-63621429D01*
X272213571Y-63621429D01*
X272337143Y-63497857D01*
X272337143Y-63149286D01*
X272213571Y-63029286D01*
X271675714Y-63029286D01*
X271621429Y-63029286D01*
X271621429Y-62975000D01*
X272245714Y-62975000D01*
X272392857Y-63122143D01*
X272392857Y-63497857D01*
X272392857Y-63529286D01*
G37*
G36*
X272392857Y-68975000D02*
G01*
X272245714Y-69122143D01*
X271621429Y-69122143D01*
X271621429Y-68920000D01*
X272147143Y-68920000D01*
X272190714Y-68876429D01*
X272190714Y-68666429D01*
X272147143Y-68622857D01*
X271621429Y-68622857D01*
X271621429Y-68475000D01*
X271675714Y-68475000D01*
X271675714Y-68567143D01*
X272169286Y-68567143D01*
X272245714Y-68640000D01*
X272245714Y-68898571D01*
X272169286Y-68975714D01*
X271675714Y-68975714D01*
X271675714Y-69067143D01*
X272213571Y-69067143D01*
X272337143Y-68943571D01*
X272337143Y-68595000D01*
X272213571Y-68475000D01*
X271675714Y-68475000D01*
X271621429Y-68475000D01*
X271621429Y-68420714D01*
X272245714Y-68420714D01*
X272392857Y-68567857D01*
X272392857Y-68943571D01*
X272392857Y-68975000D01*
G37*
G36*
X272392857Y-67465000D02*
G01*
X272245714Y-67612143D01*
X271768571Y-67612143D01*
X271621429Y-67465000D01*
X271621429Y-67050000D01*
X271676429Y-67050000D01*
X271676429Y-67437857D01*
X271800000Y-67561429D01*
X272217857Y-67561429D01*
X272338571Y-67440714D01*
X272338571Y-66942857D01*
X272247143Y-66942857D01*
X272247143Y-67395714D01*
X272173571Y-67469286D01*
X272066429Y-67469286D01*
X272066429Y-67046429D01*
X271950714Y-66930000D01*
X271796429Y-66930000D01*
X271676429Y-67050000D01*
X271621429Y-67050000D01*
X271621429Y-67021429D01*
X271768571Y-66874286D01*
X271972143Y-66874286D01*
X272119286Y-67021429D01*
X272119286Y-67410000D01*
X272147143Y-67410000D01*
X272190714Y-67366429D01*
X272190714Y-66884286D01*
X272392857Y-66884286D01*
X272392857Y-67440714D01*
X272392857Y-67465000D01*
G37*
G36*
X272392857Y-74836429D02*
G01*
X271322143Y-74836429D01*
X271322143Y-74688571D01*
X271375714Y-74688571D01*
X271375714Y-74780000D01*
X272337857Y-74780000D01*
X272337857Y-74688571D01*
X271859286Y-74688571D01*
X271767143Y-74595714D01*
X271767143Y-74355714D01*
X271835714Y-74286429D01*
X272337857Y-74286429D01*
X272337857Y-74194286D01*
X271791429Y-74194286D01*
X271675000Y-74310714D01*
X271675000Y-74612857D01*
X271750000Y-74688571D01*
X271375714Y-74688571D01*
X271322143Y-74688571D01*
X271322143Y-74634286D01*
X271635000Y-74634286D01*
X271621429Y-74620714D01*
X271621429Y-74287143D01*
X271768571Y-74140000D01*
X272392857Y-74140000D01*
X272392857Y-74342143D01*
X271867143Y-74342143D01*
X271822857Y-74385714D01*
X271822857Y-74577143D01*
X271880714Y-74634286D01*
X272392857Y-74634286D01*
X272392857Y-74780000D01*
X272392857Y-74836429D01*
G37*
G36*
X272392857Y-75383571D02*
G01*
X271822857Y-75383571D01*
X271822857Y-75561429D01*
X271621429Y-75561429D01*
X271621429Y-75383571D01*
X271425714Y-75383571D01*
X271425714Y-75236429D01*
X271480000Y-75236429D01*
X271480000Y-75327857D01*
X271675000Y-75327857D01*
X271675000Y-75507143D01*
X271766429Y-75507143D01*
X271766429Y-75327857D01*
X272337857Y-75327857D01*
X272337857Y-75063571D01*
X272246429Y-75063571D01*
X272246429Y-75236429D01*
X271766429Y-75236429D01*
X271766429Y-75057857D01*
X271675000Y-75057857D01*
X271675000Y-75236429D01*
X271480000Y-75236429D01*
X271425714Y-75236429D01*
X271425714Y-75181429D01*
X271621429Y-75181429D01*
X271621429Y-75004286D01*
X271822857Y-75004286D01*
X271822857Y-75181429D01*
X272190714Y-75181429D01*
X272190714Y-75009286D01*
X272392857Y-75009286D01*
X272392857Y-75327857D01*
X272392857Y-75383571D01*
G37*
G36*
X272392857Y-64259286D02*
G01*
X271822857Y-64259286D01*
X271822857Y-64403571D01*
X271621429Y-64403571D01*
X271621429Y-64259286D01*
X271468571Y-64259286D01*
X271321429Y-64112143D01*
X271321429Y-63885714D01*
X271372143Y-63885714D01*
X271372143Y-64085714D01*
X271490000Y-64204286D01*
X271675714Y-64204286D01*
X271675714Y-64347857D01*
X271767857Y-64347857D01*
X271767857Y-64204286D01*
X272339286Y-64204286D01*
X272339286Y-64112143D01*
X271767857Y-64112143D01*
X271767857Y-63885714D01*
X271675714Y-63885714D01*
X271675714Y-64112143D01*
X271522857Y-64112143D01*
X271457143Y-64046429D01*
X271457143Y-63885714D01*
X271372143Y-63885714D01*
X271321429Y-63885714D01*
X271321429Y-63833571D01*
X271509286Y-63833571D01*
X271509286Y-64025714D01*
X271541429Y-64057143D01*
X271621429Y-64057143D01*
X271621429Y-63833571D01*
X271822857Y-63833571D01*
X271822857Y-64057143D01*
X272392857Y-64057143D01*
X272392857Y-64204286D01*
X272392857Y-64259286D01*
G37*
G36*
X272678571Y-61096429D02*
G01*
X272477143Y-61096429D01*
X272477143Y-60697857D01*
X272419286Y-60640000D01*
X272378571Y-60640000D01*
X272392857Y-60654286D01*
X272392857Y-60985000D01*
X272245714Y-61132143D01*
X271621429Y-61132143D01*
X271621429Y-60930000D01*
X272147143Y-60930000D01*
X272190714Y-60886429D01*
X272190714Y-60711429D01*
X272119286Y-60640000D01*
X271621429Y-60640000D01*
X271621429Y-60492857D01*
X271675714Y-60492857D01*
X271675714Y-60584286D01*
X272136429Y-60584286D01*
X272245000Y-60694286D01*
X272245000Y-60912857D01*
X272172857Y-60985000D01*
X271675714Y-60985000D01*
X271675714Y-61077143D01*
X272217143Y-61077143D01*
X272337143Y-60957857D01*
X272337143Y-60670000D01*
X272251429Y-60584286D01*
X272445714Y-60584286D01*
X272532857Y-60670000D01*
X272532857Y-61034286D01*
X272625000Y-61034286D01*
X272625000Y-60618571D01*
X272496429Y-60492857D01*
X271675714Y-60492857D01*
X271621429Y-60492857D01*
X271621429Y-60438571D01*
X272531429Y-60438571D01*
X272678571Y-60585714D01*
X272678571Y-61034286D01*
X272678571Y-61096429D01*
G37*
G36*
X272392857Y-65623571D02*
G01*
X272190714Y-65623571D01*
X272190714Y-65173571D01*
X272148913Y-65131770D01*
X272107857Y-65172143D01*
X272107857Y-65483571D01*
X271960714Y-65630714D01*
X271768571Y-65630714D01*
X271621429Y-65483571D01*
X271621429Y-64996429D01*
X271675714Y-64996429D01*
X271675714Y-65457857D01*
X271792857Y-65575000D01*
X271937143Y-65575000D01*
X272050714Y-65461429D01*
X272050714Y-65145000D01*
X272117857Y-65076429D01*
X272175714Y-65076429D01*
X272244286Y-65145000D01*
X272244286Y-65569286D01*
X272336429Y-65569286D01*
X272336429Y-65100000D01*
X272219286Y-64983571D01*
X272075000Y-64983571D01*
X271959286Y-65100714D01*
X271959286Y-65417143D01*
X271894286Y-65482143D01*
X271836429Y-65482143D01*
X271767857Y-65413571D01*
X271767857Y-64996429D01*
X271675714Y-64996429D01*
X271621429Y-64996429D01*
X271621429Y-64942857D01*
X271823571Y-64942857D01*
X271823571Y-65385714D01*
X271865000Y-65427143D01*
X271906429Y-65385714D01*
X271906429Y-65075714D01*
X272053571Y-64928571D01*
X272245714Y-64928571D01*
X272392857Y-65075714D01*
X272392857Y-65569286D01*
X272392857Y-65623571D01*
G37*
G36*
X272392857Y-73282143D02*
G01*
X272190714Y-73282143D01*
X272190714Y-72832143D01*
X272148913Y-72790341D01*
X272107857Y-72830714D01*
X272107857Y-73142143D01*
X271960714Y-73289286D01*
X271768571Y-73289286D01*
X271621429Y-73142143D01*
X271621429Y-72655000D01*
X271675714Y-72655000D01*
X271675714Y-73116429D01*
X271792857Y-73233571D01*
X271937143Y-73233571D01*
X272050714Y-73120000D01*
X272050714Y-72803571D01*
X272117857Y-72735000D01*
X272175714Y-72735000D01*
X272244286Y-72803571D01*
X272244286Y-73227857D01*
X272336429Y-73227857D01*
X272336429Y-72758571D01*
X272219286Y-72642143D01*
X272075000Y-72642143D01*
X271959286Y-72759286D01*
X271959286Y-73075714D01*
X271894286Y-73140714D01*
X271836429Y-73140714D01*
X271767857Y-73072143D01*
X271767857Y-72655000D01*
X271675714Y-72655000D01*
X271621429Y-72655000D01*
X271621429Y-72601429D01*
X271823571Y-72601429D01*
X271823571Y-73044286D01*
X271865000Y-73085714D01*
X271906429Y-73044286D01*
X271906429Y-72734286D01*
X272053571Y-72587143D01*
X272245714Y-72587143D01*
X272392857Y-72734286D01*
X272392857Y-73227857D01*
X272392857Y-73282143D01*
G37*
G36*
X272392857Y-72037143D02*
G01*
X271768571Y-72037143D01*
X271621429Y-71890000D01*
X271621429Y-71613571D01*
X271694286Y-71539286D01*
X271621429Y-71465714D01*
X271621429Y-71217857D01*
X271674286Y-71217857D01*
X271674286Y-71447143D01*
X271766429Y-71539286D01*
X271674286Y-71631429D01*
X271674286Y-71860714D01*
X271795000Y-71981429D01*
X272337857Y-71981429D01*
X272337857Y-71890000D01*
X271839286Y-71890000D01*
X271766429Y-71815714D01*
X271766429Y-71662857D01*
X271842857Y-71585000D01*
X272298571Y-71585000D01*
X272298571Y-71493571D01*
X271842857Y-71493571D01*
X271766429Y-71415714D01*
X271766429Y-71262857D01*
X271839286Y-71188571D01*
X272337857Y-71188571D01*
X272337857Y-71097143D01*
X271795000Y-71097143D01*
X271674286Y-71217857D01*
X271621429Y-71217857D01*
X271621429Y-71189286D01*
X271768571Y-71042143D01*
X272392857Y-71042143D01*
X272392857Y-71244286D01*
X271867143Y-71244286D01*
X271823571Y-71287857D01*
X271823571Y-71395000D01*
X271867143Y-71438571D01*
X272350000Y-71438571D01*
X272350000Y-71640714D01*
X271867143Y-71640714D01*
X271823571Y-71684286D01*
X271823571Y-71791429D01*
X271867143Y-71835000D01*
X272392857Y-71835000D01*
X272392857Y-71981429D01*
X272392857Y-72037143D01*
G37*
D13*
%TO.C,C11*%
X247630000Y-12880000D02*
X252870000Y-12880000D01*
X247630000Y-13217000D02*
X247630000Y-12880000D01*
X247630000Y-15620000D02*
X247630000Y-15283000D01*
X252870000Y-12880000D02*
X252870000Y-13217000D01*
X252870000Y-15283000D02*
X252870000Y-15620000D01*
X252870000Y-15620000D02*
X247630000Y-15620000D01*
%TO.C,~{ENBL}1*%
X276300000Y-40600000D02*
G75*
G02*
X274900000Y-40600000I-700000J0D01*
G01*
X274900000Y-40600000D02*
G75*
G02*
X276300000Y-40600000I700000J0D01*
G01*
%TO.C,C9*%
X231630000Y-63180000D02*
X231967000Y-63180000D01*
X231630000Y-68420000D02*
X231630000Y-63180000D01*
X231967000Y-68420000D02*
X231630000Y-68420000D01*
X234033000Y-63180000D02*
X234370000Y-63180000D01*
X234370000Y-63180000D02*
X234370000Y-68420000D01*
X234370000Y-68420000D02*
X234033000Y-68420000D01*
%TO.C,ZerroIn1*%
X265900000Y-94400000D02*
G75*
G02*
X264500000Y-94400000I-700000J0D01*
G01*
X264500000Y-94400000D02*
G75*
G02*
X265900000Y-94400000I700000J0D01*
G01*
%TO.C,U5*%
X274440000Y-78830000D02*
X274440000Y-96730000D01*
X274440000Y-96730000D02*
X278940000Y-96730000D01*
X275690000Y-78830000D02*
X274440000Y-78830000D01*
X278940000Y-78830000D02*
X277690000Y-78830000D01*
X278940000Y-96730000D02*
X278940000Y-78830000D01*
X271440000Y-78770000D02*
X281940000Y-78770000D01*
X281940000Y-96790000D01*
X271440000Y-96790000D01*
X271440000Y-78770000D01*
X277690000Y-78830000D02*
G75*
G02*
X275690000Y-78830000I-1000000J0D01*
G01*
%TO.C,C12*%
X274680000Y-15030000D02*
X279920000Y-15030000D01*
X274680000Y-15367000D02*
X274680000Y-15030000D01*
X274680000Y-17770000D02*
X274680000Y-17433000D01*
X279920000Y-15030000D02*
X279920000Y-15367000D01*
X279920000Y-17433000D02*
X279920000Y-17770000D01*
X279920000Y-17770000D02*
X274680000Y-17770000D01*
%TO.C,C7*%
X231230000Y-38980000D02*
X231567000Y-38980000D01*
X231230000Y-44220000D02*
X231230000Y-38980000D01*
X231567000Y-44220000D02*
X231230000Y-44220000D01*
X233633000Y-38980000D02*
X233970000Y-38980000D01*
X233970000Y-38980000D02*
X233970000Y-44220000D01*
X233970000Y-44220000D02*
X233633000Y-44220000D01*
%TO.C,TABLE8*%
X190650000Y-32560000D02*
X190650000Y-44680000D01*
X190650000Y-44680000D02*
X226330000Y-44680000D01*
X226330000Y-32560000D02*
X190650000Y-32560000D01*
X226330000Y-37620000D02*
X226330000Y-32560000D01*
X226330000Y-44680000D02*
X226330000Y-39620000D01*
X226390000Y-29560000D02*
X190590000Y-29560000D01*
X190590000Y-47680000D01*
X226390000Y-47680000D01*
X226390000Y-29560000D01*
X226330000Y-39620000D02*
G75*
G02*
X226330000Y-37620000I0J1000000D01*
G01*
%TO.C,C2*%
X227380000Y-46130000D02*
X227717000Y-46130000D01*
X227380000Y-51370000D02*
X227380000Y-46130000D01*
X227717000Y-51370000D02*
X227380000Y-51370000D01*
X229783000Y-46130000D02*
X230120000Y-46130000D01*
X230120000Y-46130000D02*
X230120000Y-51370000D01*
X230120000Y-51370000D02*
X229783000Y-51370000D01*
%TO.C,B_IN1*%
X235240000Y-67750000D02*
X235240000Y-69000000D01*
X235240000Y-71000000D02*
X235240000Y-72250000D01*
X235240000Y-72250000D02*
X260760000Y-72250000D01*
X260760000Y-67750000D02*
X235240000Y-67750000D01*
X260760000Y-72250000D02*
X260760000Y-67750000D01*
X235180000Y-75250000D02*
X260820000Y-75250000D01*
X260820000Y-64750000D01*
X235180000Y-64750000D01*
X235180000Y-75250000D01*
X235240000Y-69000000D02*
G75*
G02*
X235240000Y-71000000I0J-1000000D01*
G01*
%TO.C,U1*%
X238260000Y-15390000D02*
X238260000Y-33290000D01*
X238260000Y-33290000D02*
X242760000Y-33290000D01*
X239510000Y-15390000D02*
X238260000Y-15390000D01*
X242760000Y-15390000D02*
X241510000Y-15390000D01*
X242760000Y-33290000D02*
X242760000Y-15390000D01*
X235260000Y-15330000D02*
X245760000Y-15330000D01*
X245760000Y-33350000D01*
X235260000Y-33350000D01*
X235260000Y-15330000D01*
X241510000Y-15390000D02*
G75*
G02*
X239510000Y-15390000I-1000000J0D01*
G01*
D11*
%TO.C,kibuzzard-691DDE8A*%
G36*
X229930000Y-15100000D02*
G01*
X229597143Y-15100000D01*
X229481429Y-15100000D01*
X229481429Y-14985714D01*
X229597143Y-14985714D01*
X229815714Y-14985714D01*
X229815714Y-14792857D01*
X229597143Y-14792857D01*
X229597143Y-14985714D01*
X229481429Y-14985714D01*
X229481429Y-14680000D01*
X229930000Y-14680000D01*
X229930000Y-15100000D01*
G37*
G36*
X223395714Y-13531429D02*
G01*
X223395714Y-14220000D01*
X222580000Y-14220000D01*
X222474286Y-14220000D01*
X222474286Y-13591429D01*
X222580000Y-13591429D01*
X222580000Y-14108571D01*
X223285714Y-14108571D01*
X223285714Y-13591429D01*
X223198571Y-13504286D01*
X222667143Y-13504286D01*
X222580000Y-13591429D01*
X222474286Y-13591429D01*
X222474286Y-13531429D01*
X222618571Y-13387143D01*
X223251429Y-13387143D01*
X223395714Y-13531429D01*
G37*
G36*
X225224286Y-13534286D02*
G01*
X225224286Y-14035714D01*
X225052857Y-14205714D01*
X224435714Y-14205714D01*
X224324286Y-14205714D01*
X224324286Y-14098571D01*
X224435714Y-14098571D01*
X224994286Y-14098571D01*
X225110000Y-13984286D01*
X225110000Y-13591429D01*
X225022857Y-13504286D01*
X224435714Y-13504286D01*
X224435714Y-14098571D01*
X224324286Y-14098571D01*
X224324286Y-13391429D01*
X225080000Y-13391429D01*
X225224286Y-13534286D01*
G37*
G36*
X227021429Y-13534286D02*
G01*
X227021429Y-14035714D01*
X226850000Y-14205714D01*
X226232857Y-14205714D01*
X226121429Y-14205714D01*
X226121429Y-14098571D01*
X226232857Y-14098571D01*
X226791429Y-14098571D01*
X226907143Y-13984286D01*
X226907143Y-13591429D01*
X226820000Y-13504286D01*
X226232857Y-13504286D01*
X226232857Y-14098571D01*
X226121429Y-14098571D01*
X226121429Y-13391429D01*
X226877143Y-13391429D01*
X227021429Y-13534286D01*
G37*
G36*
X225512857Y-13394286D02*
G01*
X225512857Y-14181429D01*
X225191429Y-14502857D01*
X224435714Y-14502857D01*
X224435714Y-15100000D01*
X224140000Y-15100000D01*
X224031429Y-15100000D01*
X224031429Y-15002857D01*
X224140000Y-15002857D01*
X224324286Y-15002857D01*
X224324286Y-14388571D01*
X225142857Y-14388571D01*
X225407143Y-14122857D01*
X225407143Y-13445714D01*
X225168571Y-13207143D01*
X224140000Y-13207143D01*
X224140000Y-15002857D01*
X224031429Y-15002857D01*
X224031429Y-13100000D01*
X225218571Y-13100000D01*
X225512857Y-13394286D01*
G37*
G36*
X227310000Y-13394286D02*
G01*
X227310000Y-14181429D01*
X226988571Y-14502857D01*
X226232857Y-14502857D01*
X226232857Y-15100000D01*
X225937143Y-15100000D01*
X225828571Y-15100000D01*
X225828571Y-15002857D01*
X225937143Y-15002857D01*
X226121429Y-15002857D01*
X226121429Y-14388571D01*
X226940000Y-14388571D01*
X227204286Y-14122857D01*
X227204286Y-13445714D01*
X226965714Y-13207143D01*
X225937143Y-13207143D01*
X225937143Y-15002857D01*
X225828571Y-15002857D01*
X225828571Y-13100000D01*
X227015714Y-13100000D01*
X227310000Y-13394286D01*
G37*
G36*
X223688571Y-13394286D02*
G01*
X223688571Y-15100000D01*
X223285714Y-15100000D01*
X223285714Y-14511429D01*
X222580000Y-14511429D01*
X222580000Y-15100000D01*
X222291429Y-15100000D01*
X222177143Y-15100000D01*
X222177143Y-13442857D01*
X222291429Y-13442857D01*
X222291429Y-14981429D01*
X222474286Y-14981429D01*
X222474286Y-14404286D01*
X223395714Y-14404286D01*
X223395714Y-14981429D01*
X223580000Y-14981429D01*
X223580000Y-13442857D01*
X223340000Y-13204286D01*
X222530000Y-13204286D01*
X222291429Y-13442857D01*
X222177143Y-13442857D01*
X222177143Y-13394286D01*
X222471429Y-13100000D01*
X223394286Y-13100000D01*
X223688571Y-13394286D01*
G37*
G36*
X216224286Y-14608571D02*
G01*
X216311429Y-14695714D01*
X216897143Y-14695714D01*
X216984286Y-14608571D01*
X216984286Y-13100000D01*
X217388571Y-13100000D01*
X217388571Y-14805714D01*
X217094286Y-15100000D01*
X216170000Y-15100000D01*
X216114286Y-15100000D01*
X215820000Y-14805714D01*
X215820000Y-14752857D01*
X215930000Y-14752857D01*
X216170000Y-14990000D01*
X217040000Y-14990000D01*
X217278571Y-14752857D01*
X217278571Y-13207143D01*
X217095714Y-13207143D01*
X217095714Y-14664286D01*
X216950000Y-14805714D01*
X216260000Y-14805714D01*
X216114286Y-14664286D01*
X216114286Y-13207143D01*
X215930000Y-13207143D01*
X215930000Y-14752857D01*
X215820000Y-14752857D01*
X215820000Y-13100000D01*
X216224286Y-13100000D01*
X216224286Y-14608571D01*
G37*
G36*
X219898571Y-14608571D02*
G01*
X219985714Y-14695714D01*
X220571429Y-14695714D01*
X220658571Y-14608571D01*
X220658571Y-13100000D01*
X221062857Y-13100000D01*
X221062857Y-14805714D01*
X220768571Y-15100000D01*
X219844286Y-15100000D01*
X219788571Y-15100000D01*
X219494286Y-14805714D01*
X219494286Y-14752857D01*
X219604286Y-14752857D01*
X219844286Y-14990000D01*
X220714286Y-14990000D01*
X220952857Y-14752857D01*
X220952857Y-13207143D01*
X220770000Y-13207143D01*
X220770000Y-14664286D01*
X220624286Y-14805714D01*
X219934286Y-14805714D01*
X219788571Y-14664286D01*
X219788571Y-13207143D01*
X219604286Y-13207143D01*
X219604286Y-14752857D01*
X219494286Y-14752857D01*
X219494286Y-13100000D01*
X219898571Y-13100000D01*
X219898571Y-14608571D01*
G37*
G36*
X219180000Y-13394286D02*
G01*
X219180000Y-13854286D01*
X218775714Y-13854286D01*
X218775714Y-13591429D01*
X218688571Y-13504286D01*
X218194286Y-13504286D01*
X218107143Y-13591429D01*
X218107143Y-14608571D01*
X218194286Y-14695714D01*
X218688571Y-14695714D01*
X218775714Y-14608571D01*
X218775714Y-14345714D01*
X219180000Y-14345714D01*
X219180000Y-14805714D01*
X218884286Y-15100000D01*
X218051429Y-15100000D01*
X217997143Y-15100000D01*
X217702857Y-14805714D01*
X217702857Y-13445714D01*
X217812857Y-13445714D01*
X217812857Y-14750000D01*
X218051429Y-14988571D01*
X218831429Y-14988571D01*
X219070000Y-14750000D01*
X219070000Y-14444286D01*
X218887143Y-14444286D01*
X218887143Y-14661429D01*
X218741429Y-14805714D01*
X218141429Y-14805714D01*
X217995714Y-14661429D01*
X217995714Y-13534286D01*
X218141429Y-13391429D01*
X218741429Y-13391429D01*
X218887143Y-13534286D01*
X218887143Y-13751429D01*
X219070000Y-13751429D01*
X219070000Y-13445714D01*
X218831429Y-13207143D01*
X218051429Y-13207143D01*
X217812857Y-13445714D01*
X217702857Y-13445714D01*
X217702857Y-13394286D01*
X217997143Y-13100000D01*
X218884286Y-13100000D01*
X219180000Y-13394286D01*
G37*
G36*
X229115714Y-13394286D02*
G01*
X229115714Y-13754286D01*
X228711429Y-13754286D01*
X228711429Y-13591429D01*
X228624286Y-13504286D01*
X228111429Y-13504286D01*
X228022857Y-13591429D01*
X228022857Y-13810000D01*
X228111429Y-13897143D01*
X228848571Y-13897143D01*
X229142857Y-14191429D01*
X229142857Y-14805714D01*
X228848571Y-15100000D01*
X227957143Y-15100000D01*
X227905714Y-15100000D01*
X227611429Y-14805714D01*
X227611429Y-14547143D01*
X227725714Y-14547143D01*
X227725714Y-14758571D01*
X227957143Y-14990000D01*
X228790000Y-14990000D01*
X229028571Y-14751429D01*
X229028571Y-14231429D01*
X228804286Y-14005714D01*
X228060000Y-14005714D01*
X227914286Y-13861429D01*
X227914286Y-13537143D01*
X228058571Y-13394286D01*
X228682857Y-13394286D01*
X228821429Y-13530000D01*
X228821429Y-13652857D01*
X229004286Y-13652857D01*
X229004286Y-13441429D01*
X228772857Y-13210000D01*
X227968571Y-13210000D01*
X227730000Y-13448571D01*
X227730000Y-13948571D01*
X227971429Y-14191429D01*
X228714286Y-14191429D01*
X228844286Y-14317143D01*
X228844286Y-14662857D01*
X228700000Y-14807143D01*
X228047143Y-14807143D01*
X227910000Y-14670000D01*
X227910000Y-14547143D01*
X227725714Y-14547143D01*
X227611429Y-14547143D01*
X227611429Y-14445714D01*
X228015714Y-14445714D01*
X228015714Y-14608571D01*
X228102857Y-14695714D01*
X228651429Y-14695714D01*
X228738571Y-14608571D01*
X228738571Y-14388571D01*
X228651429Y-14301429D01*
X227914286Y-14301429D01*
X227620000Y-14007143D01*
X227620000Y-13394286D01*
X227914286Y-13100000D01*
X228821429Y-13100000D01*
X229115714Y-13394286D01*
G37*
D13*
%TO.C,C3*%
X279130000Y-70880000D02*
X279467000Y-70880000D01*
X279130000Y-76120000D02*
X279130000Y-70880000D01*
X279467000Y-76120000D02*
X279130000Y-76120000D01*
X281533000Y-70880000D02*
X281870000Y-70880000D01*
X281870000Y-70880000D02*
X281870000Y-76120000D01*
X281870000Y-76120000D02*
X281533000Y-76120000D01*
%TO.C,B_OUT0*%
X235240000Y-55750000D02*
X235240000Y-57000000D01*
X235240000Y-59000000D02*
X235240000Y-60250000D01*
X235240000Y-60250000D02*
X260760000Y-60250000D01*
X260760000Y-55750000D02*
X235240000Y-55750000D01*
X260760000Y-60250000D02*
X260760000Y-55750000D01*
X235180000Y-63250000D02*
X260820000Y-63250000D01*
X260820000Y-52750000D01*
X235180000Y-52750000D01*
X235180000Y-63250000D01*
X235240000Y-57000000D02*
G75*
G02*
X235240000Y-59000000I0J-1000000D01*
G01*
%TO.C,C6*%
X235780000Y-76430000D02*
X241020000Y-76430000D01*
X235780000Y-76767000D02*
X235780000Y-76430000D01*
X235780000Y-79170000D02*
X235780000Y-78833000D01*
X241020000Y-76430000D02*
X241020000Y-76767000D01*
X241020000Y-78833000D02*
X241020000Y-79170000D01*
X241020000Y-79170000D02*
X235780000Y-79170000D01*
%TO.C,R2*%
X280730000Y-21530000D02*
X280730000Y-28070000D01*
X280730000Y-28070000D02*
X281060000Y-28070000D01*
X281060000Y-21530000D02*
X280730000Y-21530000D01*
X283140000Y-21530000D02*
X283470000Y-21530000D01*
X283470000Y-21530000D02*
X283470000Y-28070000D01*
X283470000Y-28070000D02*
X283140000Y-28070000D01*
D11*
%TO.C,kibuzzard-6911C9E9*%
G36*
X193828589Y-25932381D02*
G01*
X193828589Y-26306667D01*
X193652875Y-26460953D01*
X193002875Y-26460953D01*
X192892875Y-26460953D01*
X192892875Y-26356667D01*
X193002875Y-26356667D01*
X193634303Y-26356667D01*
X193721446Y-26268096D01*
X193721446Y-25988096D01*
X193634303Y-25900953D01*
X193002875Y-25900953D01*
X193002875Y-26356667D01*
X192892875Y-26356667D01*
X192892875Y-25788096D01*
X193684303Y-25788096D01*
X193828589Y-25932381D01*
G37*
G36*
X192255732Y-25790953D02*
G01*
X192255732Y-27202381D01*
X191961446Y-27496667D01*
X191070018Y-27496667D01*
X191012875Y-27496667D01*
X190718589Y-27202381D01*
X190718589Y-25842381D01*
X190831446Y-25842381D01*
X190831446Y-27143810D01*
X191070018Y-27382381D01*
X191905732Y-27382381D01*
X192145732Y-27143810D01*
X192145732Y-25842381D01*
X191905732Y-25603810D01*
X191070018Y-25603810D01*
X190831446Y-25842381D01*
X190718589Y-25842381D01*
X190718589Y-25790953D01*
X191012875Y-25496667D01*
X191961446Y-25496667D01*
X192255732Y-25790953D01*
G37*
G36*
X191961446Y-25930953D02*
G01*
X191961446Y-27055238D01*
X191817160Y-27199524D01*
X191210018Y-27199524D01*
X191160018Y-27199524D01*
X191014303Y-27055238D01*
X191014303Y-25988096D01*
X191122875Y-25988096D01*
X191122875Y-27005238D01*
X191210018Y-27092381D01*
X191764303Y-27092381D01*
X191851446Y-27005238D01*
X191851446Y-25988096D01*
X191764303Y-25900953D01*
X191210018Y-25900953D01*
X191122875Y-25988096D01*
X191014303Y-25988096D01*
X191014303Y-25930953D01*
X191160018Y-25788096D01*
X191817160Y-25788096D01*
X191961446Y-25930953D01*
G37*
G36*
X195754303Y-25900953D02*
G01*
X194858589Y-25900953D01*
X194858589Y-26285238D01*
X195655732Y-26285238D01*
X195655732Y-26689524D01*
X194858589Y-26689524D01*
X194858589Y-27092381D01*
X195754303Y-27092381D01*
X195754303Y-27496667D01*
X194567160Y-27496667D01*
X194454303Y-27496667D01*
X194454303Y-27382381D01*
X194567160Y-27382381D01*
X195657160Y-27382381D01*
X195657160Y-27199524D01*
X194751446Y-27199524D01*
X194751446Y-26578096D01*
X195557160Y-26578096D01*
X195557160Y-26395238D01*
X194751446Y-26395238D01*
X194751446Y-25788096D01*
X195657160Y-25788096D01*
X195657160Y-25603810D01*
X194567160Y-25603810D01*
X194567160Y-27382381D01*
X194454303Y-27382381D01*
X194454303Y-25496667D01*
X195754303Y-25496667D01*
X195754303Y-25900953D01*
G37*
G36*
X194125732Y-25790953D02*
G01*
X194125732Y-26410953D01*
X193951446Y-26570953D01*
X194125732Y-26760953D01*
X194125732Y-27496667D01*
X193721446Y-27496667D01*
X193721446Y-26903810D01*
X193578589Y-26760953D01*
X193002875Y-26760953D01*
X193002875Y-27496667D01*
X192710018Y-27496667D01*
X192598589Y-27496667D01*
X192598589Y-27388096D01*
X192710018Y-27388096D01*
X192892875Y-27388096D01*
X192892875Y-26645238D01*
X193625732Y-26645238D01*
X193834303Y-26863810D01*
X193834303Y-27388096D01*
X194018589Y-27388096D01*
X194018589Y-26803810D01*
X193794303Y-26559524D01*
X194012875Y-26368096D01*
X194012875Y-25843810D01*
X193774303Y-25605238D01*
X192710018Y-25605238D01*
X192710018Y-27388096D01*
X192598589Y-27388096D01*
X192598589Y-25496667D01*
X193831446Y-25496667D01*
X194125732Y-25790953D01*
G37*
G36*
X190404303Y-25790953D02*
G01*
X190404303Y-26250953D01*
X190000018Y-26250953D01*
X190000018Y-25988096D01*
X189912875Y-25900953D01*
X189418589Y-25900953D01*
X189331446Y-25988096D01*
X189331446Y-27005238D01*
X189418589Y-27092381D01*
X189912875Y-27092381D01*
X190000018Y-27005238D01*
X190000018Y-26742381D01*
X190404303Y-26742381D01*
X190404303Y-27202381D01*
X190108589Y-27496667D01*
X189275732Y-27496667D01*
X189221446Y-27496667D01*
X188927160Y-27202381D01*
X188927160Y-25842381D01*
X189037160Y-25842381D01*
X189037160Y-27146667D01*
X189275732Y-27385238D01*
X190055732Y-27385238D01*
X190294303Y-27146667D01*
X190294303Y-26840953D01*
X190111446Y-26840953D01*
X190111446Y-27058096D01*
X189965732Y-27202381D01*
X189365732Y-27202381D01*
X189220018Y-27058096D01*
X189220018Y-25930953D01*
X189365732Y-25788096D01*
X189965732Y-25788096D01*
X190111446Y-25930953D01*
X190111446Y-26148096D01*
X190294303Y-26148096D01*
X190294303Y-25842381D01*
X190055732Y-25603810D01*
X189275732Y-25603810D01*
X189037160Y-25842381D01*
X188927160Y-25842381D01*
X188927160Y-25790953D01*
X189221446Y-25496667D01*
X190108589Y-25496667D01*
X190404303Y-25790953D01*
G37*
G36*
X198140018Y-25790953D02*
G01*
X198140018Y-26488096D01*
X197845732Y-26782381D01*
X197301446Y-26782381D01*
X197214303Y-26869524D01*
X197214303Y-27092381D01*
X198140018Y-27092381D01*
X198140018Y-27496667D01*
X196925732Y-27496667D01*
X196811446Y-27496667D01*
X196811446Y-26672381D01*
X197105732Y-26378096D01*
X197650018Y-26378096D01*
X197737160Y-26290953D01*
X197737160Y-25988096D01*
X197650018Y-25900953D01*
X197301446Y-25900953D01*
X197214303Y-25988096D01*
X197214303Y-26192381D01*
X196811446Y-26192381D01*
X196811446Y-25839524D01*
X196925732Y-25839524D01*
X196925732Y-26083810D01*
X197110018Y-26083810D01*
X197110018Y-25928096D01*
X197254303Y-25783810D01*
X197702875Y-25783810D01*
X197848589Y-25928096D01*
X197848589Y-26336667D01*
X197700018Y-26483810D01*
X197165732Y-26483810D01*
X196925732Y-26722381D01*
X196925732Y-27386667D01*
X198020018Y-27386667D01*
X198020018Y-27203810D01*
X197110018Y-27203810D01*
X197110018Y-26810953D01*
X197254303Y-26666667D01*
X197790018Y-26666667D01*
X198031446Y-26425238D01*
X198031446Y-25839524D01*
X197792875Y-25600953D01*
X197165732Y-25600953D01*
X196925732Y-25839524D01*
X196811446Y-25839524D01*
X196811446Y-25790953D01*
X197105732Y-25496667D01*
X197845732Y-25496667D01*
X198140018Y-25790953D01*
G37*
D13*
%TO.C,PWR1*%
X191200000Y-99450000D02*
G75*
G02*
X189800000Y-99450000I-700000J0D01*
G01*
X189800000Y-99450000D02*
G75*
G02*
X191200000Y-99450000I700000J0D01*
G01*
%TO.C,B_IN0*%
X241390000Y-82660000D02*
X241390000Y-83910000D01*
X241390000Y-85910000D02*
X241390000Y-87160000D01*
X241390000Y-87160000D02*
X266910000Y-87160000D01*
X266910000Y-82660000D02*
X241390000Y-82660000D01*
X266910000Y-87160000D02*
X266910000Y-82660000D01*
X241330000Y-90160000D02*
X266970000Y-90160000D01*
X266970000Y-79660000D01*
X241330000Y-79660000D01*
X241330000Y-90160000D01*
X241390000Y-83910000D02*
G75*
G02*
X241390000Y-85910000I0J-1000000D01*
G01*
%TO.C,~{L_FR}1*%
X200200000Y-74000000D02*
G75*
G02*
X198800000Y-74000000I-700000J0D01*
G01*
X198800000Y-74000000D02*
G75*
G02*
X200200000Y-74000000I700000J0D01*
G01*
%TO.C,~{SignIn}1*%
X262400000Y-91875000D02*
G75*
G02*
X261000000Y-91875000I-700000J0D01*
G01*
X261000000Y-91875000D02*
G75*
G02*
X262400000Y-91875000I700000J0D01*
G01*
%TO.C,U3*%
X272260000Y-18390000D02*
X272260000Y-36290000D01*
X272260000Y-36290000D02*
X276760000Y-36290000D01*
X273510000Y-18390000D02*
X272260000Y-18390000D01*
X276760000Y-18390000D02*
X275510000Y-18390000D01*
X276760000Y-36290000D02*
X276760000Y-18390000D01*
X269260000Y-18330000D02*
X279760000Y-18330000D01*
X279760000Y-36350000D01*
X269260000Y-36350000D01*
X269260000Y-18330000D01*
X275510000Y-18390000D02*
G75*
G02*
X273510000Y-18390000I-1000000J0D01*
G01*
%TO.C,ZerroO1*%
X254375000Y-38850000D02*
G75*
G02*
X252975000Y-38850000I-700000J0D01*
G01*
X252975000Y-38850000D02*
G75*
G02*
X254375000Y-38850000I700000J0D01*
G01*
%TO.C,~{UPD_FR}1*%
X239200000Y-84000000D02*
G75*
G02*
X237800000Y-84000000I-700000J0D01*
G01*
X237800000Y-84000000D02*
G75*
G02*
X239200000Y-84000000I700000J0D01*
G01*
%TO.C,C1*%
X222780000Y-69830000D02*
X228020000Y-69830000D01*
X222780000Y-70167000D02*
X222780000Y-69830000D01*
X222780000Y-72570000D02*
X222780000Y-72233000D01*
X228020000Y-69830000D02*
X228020000Y-70167000D01*
X228020000Y-72233000D02*
X228020000Y-72570000D01*
X228020000Y-72570000D02*
X222780000Y-72570000D01*
%TO.C,CarryO1*%
X251800000Y-38900000D02*
G75*
G02*
X250400000Y-38900000I-700000J0D01*
G01*
X250400000Y-38900000D02*
G75*
G02*
X251800000Y-38900000I700000J0D01*
G01*
%TD*%
M02*
