<svg version="1.2" xmlns="http://www.w3.org/2000/svg" viewBox="68 227 459 379.04154255851915" width="459" height="380">
	<style>
		.s0 { fill: none;stroke: #000000;stroke-linecap: round;stroke-linejoin: round;stroke-width: 2 } 
		.s1 { fill: #ffffff;stroke: #000000;stroke-linecap: round;stroke-linejoin: round } 
		.s2 { fill: #000000;stroke: #000000;stroke-linecap: round;stroke-linejoin: round } 
	</style>
	<g id="Layer 1">
		<path id="Форма 20" fill-rule="evenodd" class="s0" d="m489 606h11v-19l20-34h-14l-11 21-12-21h-14l19.86 34.17z"/>
		<path id="Форма 19" fill-rule="evenodd" class="s0" d="m442 553v53h36l0.13-10.17-23.94-0.13-0.19-42.7z"/>
		<path id="Форма 18" fill-rule="evenodd" class="s0" d="m397.31 552.87l36.69 0.13v11h-25v11h21v10h-21v21h-12z"/>
		<path id="Форма 16" fill-rule="evenodd" class="s0" d="m301 553h19c0 0 10.88 0.43 11 11 0.12 10.57 0.26 31.92 0.26 31.92 0 0-0.92 9.82-11.46 9.81-11.18-0.01-20.04 0.02-20.04 0.02 0 0-11.29-0.92-11.5-11.2-0.34-16.58-0.26-30.55-0.26-30.55 0 0 1.06-10.1 13-11z"/>
		<path id="Форма 15" fill-rule="evenodd" class="s0" d="m302.01 564h16c0 0 1.9-0.06 2 2 0.09 2.07-0.02 26-0.02 26 0 0 0.52 2.97-2 3-2.51 0.03-15 0-15 0 0 0-2.97 0.26-3-2-0.03-2.27 0.02-26 0.02-26 0 0-0.48-2.92 2-3z"/>
		<path id="Форма 17" fill-rule="evenodd" class="s0" d="m341 606v-53l11.57 0.04 22.43 32.96v-33h12l-0.03 52.91-11.33-0.57-22.85-32.57-0.26 33.11z"/>
		<path id="Форма 13" fill-rule="evenodd" class="s0" d="m192 606l3-10h20l3 10h13l-19-53h-14l-18.75 52.89z"/>
		<path id="Форма 12" fill-rule="evenodd" class="s0" d="m205 565l7 21h-14z"/>
		<path id="Форма 14" fill-rule="evenodd" class="s0" d="m256 576v9l10 0.08v7.92c0 0 0.22 1.98-2 2-2.22 0.02-14 0-14 0 0 0-3.01 0.05-3-2 0.01-2.05 0-27 0-27 0 0-0.46-1.99 2-2 2.46-0.01 15 0 15 0 0 0 2.01 0.31 2 3-0.01 2.69 0 2 0 2h12l-0.52-5.86c0 0-4.34-9.63-10.84-9.71-6.34-0.09-18.89 0.05-18.89 0.05 0 0-12.57 0.38-12.75 10.52-0.04 2.18 0 32 0 32 0 0 0.91 9.38 10.14 9.6 13.07 0.32 23.55 0.04 23.55 0.04 0 0 8.74-2.6 8.96-9.59 0.22-6.74-0.34-20.06-0.34-20.06z"/>
		<path id="Форма 11" fill-rule="evenodd" class="s0" d="m130 553h33c0 0 10.02 0.1 10 11-0.02 10.9 0 13 0 13 0 0-1.28 7.42-10 10-0.15 0.04 10.88 18.14 10.88 18.14l-12.26 0.25-10.62-18.39h-10v19h-12v-53z"/>
		<path id="Форма 10" fill-rule="evenodd" class="s0" d="m141 564h18c0 0 2.01-0.47 2 2-0.01 2.47 0 9 0 9 0 0-0.24 1.96-2 2-1.76 0.04-18 0-18 0z"/>
		<path id="Форма 9" fill-rule="evenodd" class="s0" d="m77 553l32.11 0.2c0 0.19 10.15 1.07 10.26 12.09 0.11 11.02 0.33 29.07 0.33 29.07 0 0 0.91 11.55-11.7 11.64-12.61 0.09-31 0-31 0zm11 11h17c0 0 2.87 0.15 3 2 0.13 1.85 0 26 0 26 0 0-1.3 2.9-3 3-1.7 0.1-17 0-17 0z"/>
		<path id="Форма 6" fill-rule="evenodd" class="s1" d="m279 301v9c0 0-179.14-62.66-180-62-0.86 0.66 44 45 44 45l137 23v6l-141-20-71-75z"/>
		<path id="Форма 7" fill-rule="evenodd" class="s1" d="m282 293l16-34 15 34-2-12 22-22 2-28-9 24-13 15c0 0-13.34-23.41-15-23-1.66 0.41-14.61 20.4-15.41 22.51-0.8 2.12-13.66-15.59-13.66-15.59l-8.93-22.92 2 28 22 22z"/>
		<path id="Форма 6 copy" fill-rule="evenodd" class="s1" d="m316 301v9c0 0 179.14-62.66 180-62 0.86 0.66-44 45-44 45l-137 23v6l141-20 71-75z"/>
		<path id="Форма 5" fill-rule="evenodd" class="s1" d="m121 261l27 26 101 19z"/>
		<path id="Форма 5 copy" fill-rule="evenodd" class="s1" d="m474 261l-27 26-101 19z"/>
		<path id="Форма 3" fill-rule="evenodd" class="s1" d="m297.53 273.64l12.47 22.36-0.37 36.73-12.63 22.27-12.42-22.47 0.42-36.53z"/>
		<path id="Форма 2" fill-rule="evenodd" class="s2" d="m297.71 335.21l2.37-7.48-0.03-23.01-2.61-7.74-2.44 8.02-0.24 23 2.92 7.16"/>
		<path id="Форма 4" fill-rule="evenodd" class="s1" d="m286 341l1 5 10.46 177.57c0.25 0 11.21-176.57 11.54-176.57l1-6-10 18-2.04 108.19-2.96-108.19z"/>
		<g id="Папка 1">
			<path id="Форма 1" fill-rule="evenodd" class="s1" d="m279 327l1 6-82 50-86-21 116-41 36 4c0 0-45.18 6.53-123.65 35.8-0.22 0.08 54.65 13.2 54.65 13.2z"/>
			<path id="Форма 1 copy" fill-rule="evenodd" class="s1" d="m316 327l-1 6 82 50 86-21-116-41-36 4c0 0 45.18 6.53 123.65 35.8 0.22 0.08-54.65 13.2-54.65 13.2z"/>
		</g>
		<path id="Форма 3 copy" fill-rule="evenodd" class="s1" d="m163 360l93-30-61.69 35.81z"/>
		<path id="Форма 3 copy 2" fill-rule="evenodd" class="s1" d="m432 360l-93-30 61.69 35.81z"/>
	</g>
</svg>