%TF.GenerationSoftware,KiCad,Pcbnew,9.0.5*%
%TF.CreationDate,2025-11-19T18:14:37+02:00*%
%TF.ProjectId,core_3,636f7265-5f33-42e6-9b69-6361645f7063,rev?*%
%TF.SameCoordinates,Original*%
%TF.FileFunction,Soldermask,Top*%
%TF.FilePolarity,Negative*%
%FSLAX46Y46*%
G04 Gerber Fmt 4.6, Leading zero omitted, Abs format (unit mm)*
G04 Created by KiCad (PCBNEW 9.0.5) date 2025-11-19 18:14:37*
%MOMM*%
%LPD*%
G01*
G04 APERTURE LIST*
G04 Aperture macros list*
%AMRoundRect*
0 Rectangle with rounded corners*
0 $1 Rounding radius*
0 $2 $3 $4 $5 $6 $7 $8 $9 X,Y pos of 4 corners*
0 Add a 4 corners polygon primitive as box body*
4,1,4,$2,$3,$4,$5,$6,$7,$8,$9,$2,$3,0*
0 Add four circle primitives for the rounded corners*
1,1,$1+$1,$2,$3*
1,1,$1+$1,$4,$5*
1,1,$1+$1,$6,$7*
1,1,$1+$1,$8,$9*
0 Add four rect primitives between the rounded corners*
20,1,$1+$1,$2,$3,$4,$5,0*
20,1,$1+$1,$4,$5,$6,$7,0*
20,1,$1+$1,$6,$7,$8,$9,0*
20,1,$1+$1,$8,$9,$2,$3,0*%
G04 Aperture macros list end*
%ADD10RoundRect,0.250000X-0.950000X-0.550000X0.950000X-0.550000X0.950000X0.550000X-0.950000X0.550000X0*%
%ADD11O,2.400000X1.600000*%
%ADD12C,1.600000*%
%ADD13R,0.700000X4.300000*%
%ADD14R,0.700000X3.200000*%
G04 APERTURE END LIST*
D10*
%TO.C,TABLE4*%
X96620000Y-95920000D03*
D11*
X96620000Y-98460000D03*
X96620000Y-101000000D03*
X96620000Y-103540000D03*
X96620000Y-106080000D03*
X96620000Y-108620000D03*
X96620000Y-111160000D03*
X96620000Y-113700000D03*
X96620000Y-116240000D03*
X96620000Y-118780000D03*
X96620000Y-121320000D03*
X96620000Y-123860000D03*
X96620000Y-126400000D03*
X96620000Y-128940000D03*
X111860000Y-128940000D03*
X111860000Y-126400000D03*
X111860000Y-123860000D03*
X111860000Y-121320000D03*
X111860000Y-118780000D03*
X111860000Y-116240000D03*
X111860000Y-113700000D03*
X111860000Y-111160000D03*
X111860000Y-108620000D03*
X111860000Y-106080000D03*
X111860000Y-103540000D03*
X111860000Y-101000000D03*
X111860000Y-98460000D03*
X111860000Y-95920000D03*
%TD*%
D10*
%TO.C,TABLE5*%
X130932207Y-55920000D03*
D11*
X130932207Y-58460000D03*
X130932207Y-61000000D03*
X130932207Y-63540000D03*
X130932207Y-66080000D03*
X130932207Y-68620000D03*
X130932207Y-71160000D03*
X130932207Y-73700000D03*
X130932207Y-76240000D03*
X130932207Y-78780000D03*
X130932207Y-81320000D03*
X130932207Y-83860000D03*
X130932207Y-86400000D03*
X130932207Y-88940000D03*
X146172207Y-88940000D03*
X146172207Y-86400000D03*
X146172207Y-83860000D03*
X146172207Y-81320000D03*
X146172207Y-78780000D03*
X146172207Y-76240000D03*
X146172207Y-73700000D03*
X146172207Y-71160000D03*
X146172207Y-68620000D03*
X146172207Y-66080000D03*
X146172207Y-63540000D03*
X146172207Y-61000000D03*
X146172207Y-58460000D03*
X146172207Y-55920000D03*
%TD*%
D12*
%TO.C,C4*%
X116480000Y-95500000D03*
X116480000Y-98000000D03*
%TD*%
D10*
%TO.C,TABLE6*%
X130932207Y-95920000D03*
D11*
X130932207Y-98460000D03*
X130932207Y-101000000D03*
X130932207Y-103540000D03*
X130932207Y-106080000D03*
X130932207Y-108620000D03*
X130932207Y-111160000D03*
X130932207Y-113700000D03*
X130932207Y-116240000D03*
X130932207Y-118780000D03*
X130932207Y-121320000D03*
X130932207Y-123860000D03*
X130932207Y-126400000D03*
X130932207Y-128940000D03*
X146172207Y-128940000D03*
X146172207Y-126400000D03*
X146172207Y-123860000D03*
X146172207Y-121320000D03*
X146172207Y-118780000D03*
X146172207Y-116240000D03*
X146172207Y-113700000D03*
X146172207Y-111160000D03*
X146172207Y-108620000D03*
X146172207Y-106080000D03*
X146172207Y-103540000D03*
X146172207Y-101000000D03*
X146172207Y-98460000D03*
X146172207Y-95920000D03*
%TD*%
D12*
%TO.C,C5*%
X150412207Y-55500000D03*
X150412207Y-58000000D03*
%TD*%
D10*
%TO.C,TABLE1*%
X55913487Y-55920000D03*
D11*
X55913487Y-58460000D03*
X55913487Y-61000000D03*
X55913487Y-63540000D03*
X55913487Y-66080000D03*
X55913487Y-68620000D03*
X55913487Y-71160000D03*
X55913487Y-73700000D03*
X55913487Y-76240000D03*
X55913487Y-78780000D03*
X55913487Y-81320000D03*
X55913487Y-83860000D03*
X55913487Y-86400000D03*
X55913487Y-88940000D03*
X71153487Y-88940000D03*
X71153487Y-86400000D03*
X71153487Y-83860000D03*
X71153487Y-81320000D03*
X71153487Y-78780000D03*
X71153487Y-76240000D03*
X71153487Y-73700000D03*
X71153487Y-71160000D03*
X71153487Y-68620000D03*
X71153487Y-66080000D03*
X71153487Y-63540000D03*
X71153487Y-61000000D03*
X71153487Y-58460000D03*
X71153487Y-55920000D03*
%TD*%
D10*
%TO.C,TABLE3*%
X96620000Y-55920000D03*
D11*
X96620000Y-58460000D03*
X96620000Y-61000000D03*
X96620000Y-63540000D03*
X96620000Y-66080000D03*
X96620000Y-68620000D03*
X96620000Y-71160000D03*
X96620000Y-73700000D03*
X96620000Y-76240000D03*
X96620000Y-78780000D03*
X96620000Y-81320000D03*
X96620000Y-83860000D03*
X96620000Y-86400000D03*
X96620000Y-88940000D03*
X111860000Y-88940000D03*
X111860000Y-86400000D03*
X111860000Y-83860000D03*
X111860000Y-81320000D03*
X111860000Y-78780000D03*
X111860000Y-76240000D03*
X111860000Y-73700000D03*
X111860000Y-71160000D03*
X111860000Y-68620000D03*
X111860000Y-66080000D03*
X111860000Y-63540000D03*
X111860000Y-61000000D03*
X111860000Y-58460000D03*
X111860000Y-55920000D03*
%TD*%
D12*
%TO.C,C6*%
X150412207Y-95500000D03*
X150412207Y-98000000D03*
%TD*%
%TO.C,C7*%
X63000000Y-141000000D03*
X63000000Y-138500000D03*
%TD*%
D10*
%TO.C,TABLE2*%
X55913487Y-95920000D03*
D11*
X55913487Y-98460000D03*
X55913487Y-101000000D03*
X55913487Y-103540000D03*
X55913487Y-106080000D03*
X55913487Y-108620000D03*
X55913487Y-111160000D03*
X55913487Y-113700000D03*
X55913487Y-116240000D03*
X55913487Y-118780000D03*
X55913487Y-121320000D03*
X55913487Y-123860000D03*
X55913487Y-126400000D03*
X55913487Y-128940000D03*
X71153487Y-128940000D03*
X71153487Y-126400000D03*
X71153487Y-123860000D03*
X71153487Y-121320000D03*
X71153487Y-118780000D03*
X71153487Y-116240000D03*
X71153487Y-113700000D03*
X71153487Y-111160000D03*
X71153487Y-108620000D03*
X71153487Y-106080000D03*
X71153487Y-103540000D03*
X71153487Y-101000000D03*
X71153487Y-98460000D03*
X71153487Y-95920000D03*
%TD*%
D12*
%TO.C,C1*%
X75393487Y-55500000D03*
X75393487Y-58000000D03*
%TD*%
D13*
%TO.C,BC2*%
X61000000Y-149000000D03*
X62000000Y-149000000D03*
X63000000Y-149000000D03*
X64000000Y-149000000D03*
X65000000Y-149000000D03*
X66000000Y-149000000D03*
X67000000Y-149000000D03*
X68000000Y-149000000D03*
X69000000Y-149000000D03*
X70000000Y-149000000D03*
X71000000Y-149000000D03*
X74000000Y-149000000D03*
X75000000Y-149000000D03*
X76000000Y-149000000D03*
X77000000Y-149000000D03*
X78000000Y-149000000D03*
X79000000Y-149000000D03*
X80000000Y-149000000D03*
X81000000Y-149000000D03*
X82000000Y-149000000D03*
X83000000Y-149000000D03*
X84000000Y-149000000D03*
X85000000Y-149000000D03*
X86000000Y-149000000D03*
X87000000Y-149000000D03*
X88000000Y-149000000D03*
X89000000Y-149000000D03*
X90000000Y-149000000D03*
X91000000Y-149000000D03*
X92000000Y-149000000D03*
X93000000Y-149000000D03*
X94000000Y-149000000D03*
X95000000Y-149000000D03*
X96000000Y-149000000D03*
X97000000Y-149000000D03*
X98000000Y-149000000D03*
X99000000Y-149000000D03*
X100000000Y-149000000D03*
X101000000Y-149000000D03*
X102000000Y-149000000D03*
X103000000Y-149000000D03*
X104000000Y-149000000D03*
X105000000Y-149000000D03*
X106000000Y-149000000D03*
X107000000Y-149000000D03*
X108000000Y-149000000D03*
X109000000Y-149000000D03*
X110000000Y-149000000D03*
X111000000Y-149000000D03*
X112000000Y-149000000D03*
X113000000Y-149000000D03*
X114000000Y-149000000D03*
X115000000Y-149000000D03*
X116000000Y-149000000D03*
X117000000Y-149000000D03*
X118000000Y-149000000D03*
X119000000Y-149000000D03*
X120000000Y-149000000D03*
X121000000Y-149000000D03*
X122000000Y-149000000D03*
X123000000Y-149000000D03*
X124000000Y-149000000D03*
X125000000Y-149000000D03*
X126000000Y-149000000D03*
X127000000Y-149000000D03*
X128000000Y-149000000D03*
X129000000Y-149000000D03*
X130000000Y-149000000D03*
X131000000Y-149000000D03*
X132000000Y-149000000D03*
X133000000Y-149000000D03*
X134000000Y-149000000D03*
X135000000Y-149000000D03*
X136000000Y-149000000D03*
X137000000Y-149000000D03*
X138000000Y-149000000D03*
X139000000Y-149000000D03*
X140000000Y-149000000D03*
X141000000Y-149000000D03*
X142000000Y-149000000D03*
D14*
X143000000Y-148450000D03*
D13*
X144000000Y-149000000D03*
%TD*%
D12*
%TO.C,C2*%
X75393487Y-95500000D03*
X75393487Y-98000000D03*
%TD*%
%TO.C,C3*%
X116480000Y-55500000D03*
X116480000Y-58000000D03*
%TD*%
M02*
