M48
; DRILL file {KiCad 9.0.5} date 2025-11-19T18:15:05+0200
; FORMAT={-:-/ absolute / metric / decimal}
; #@! TF.CreationDate,2025-11-19T18:15:05+02:00
; #@! TF.GenerationSoftware,Kicad,Pcbnew,9.0.5
; #@! TF.FileFunction,Plated,1,2,PTH
FMAT,2
METRIC
; #@! TA.AperFunction,Plated,PTH,ViaDrill
T1C0.300
; #@! TA.AperFunction,Plated,PTH,ViaDrill
T2C0.400
; #@! TA.AperFunction,Plated,PTH,ViaDrill
T3C0.500
; #@! TA.AperFunction,Plated,PTH,ComponentDrill
T4C0.800
%
G90
G05
T1
X59.0Y-126.4
X59.6Y-123.8
X60.2Y-121.2
X61.0Y-118.8
X61.8Y-121.4
X62.102Y-134.498
X62.6Y-123.8
X62.651Y-133.349
X63.026Y-134.573
X63.4Y-126.4
X63.6Y-132.6
X63.73Y-133.579
X64.2Y-129.0
X64.901Y-131.499
X64.919Y-132.385
X65.716Y-131.484
X76.707Y-144.917
X77.269Y-142.931
X77.38Y-143.892
X77.676Y-144.924
X78.017Y-141.983
X78.093Y-142.907
X78.25Y-75.0
X78.25Y-115.0
X78.666Y-140.934
X78.85Y-72.5
X78.85Y-112.5
X78.85Y-117.4
X79.45Y-70.0
X79.45Y-110.0
X79.45Y-118.4
X79.542Y-142.658
X80.05Y-67.25
X80.05Y-107.25
X80.05Y-119.2
X80.65Y-65.0
X80.65Y-104.75
X80.65Y-119.8
X81.25Y-62.5
X81.25Y-102.25
X81.251Y-119.272
X81.844Y-59.477
X81.85Y-99.8
X81.85Y-119.871
X82.45Y-99.115
X82.45Y-120.4
X82.5Y-58.25
X82.8Y-133.8
X83.05Y-63.5
X83.05Y-103.5
X83.058Y-119.88
X83.65Y-66.0
X83.65Y-106.0
X83.659Y-120.408
X84.25Y-73.5
X84.25Y-113.75
X84.258Y-119.877
X84.7Y-134.4
X84.85Y-68.5
X84.85Y-108.62
X84.858Y-120.8
X85.0Y-146.2
X85.45Y-96.75
X85.458Y-120.258
X85.5Y-58.6
X86.05Y-101.0
X86.1Y-61.0
X86.3Y-135.0
X86.4Y-121.2
X86.65Y-94.25
X86.75Y-58.0
X86.96Y-119.97
X87.35Y-71.25
X87.6Y-120.45
X88.0Y-135.6
X88.2Y-111.0
X88.2Y-119.8
X89.576Y-136.224
X91.049Y-136.8
X92.476Y-137.4
X93.75Y-146.2
X94.049Y-138.0
X95.975Y-138.625
X97.551Y-139.2
X99.276Y-139.924
X99.6Y-126.4
X100.4Y-123.8
X100.6Y-140.4
X101.2Y-121.4
X102.0Y-118.6
X102.049Y-141.0
X102.8Y-121.4
X103.6Y-123.8
X103.751Y-141.649
X104.4Y-126.4
X105.151Y-142.2
X105.2Y-128.8
X106.7Y-142.9
X107.0Y-132.8
X107.6Y-132.2
X107.853Y-131.441
X108.106Y-130.682
X114.0Y-139.4
X116.0Y-138.25
X117.0Y-138.25
X118.0Y-138.25
X118.7Y-74.2
X118.735Y-114.865
X118.8Y-138.25
X119.3Y-71.7
X119.301Y-114.3
X119.9Y-71.05
X119.901Y-112.8
X120.5Y-69.729
X120.502Y-112.0
X121.1Y-64.2
X121.1Y-68.6
X121.102Y-108.6
X121.7Y-61.7
X121.7Y-66.0
X121.7Y-106.0
X122.3Y-64.14
X122.3Y-103.4
X122.9Y-61.8
X122.9Y-100.8
X123.5Y-62.7
X123.5Y-99.2
X123.5Y-101.671
X124.1Y-65.2
X124.1Y-102.2
X124.7Y-72.7
X124.7Y-113.6
X125.3Y-67.7
X125.3Y-104.6
X125.9Y-95.95
X125.95Y-59.6
X126.5Y-100.2
X126.55Y-60.2
X126.55Y-95.2
X127.1Y-93.45
X127.2Y-57.2
X127.8Y-70.45
X128.4Y-110.2
X133.5Y-126.5
X134.25Y-123.75
X135.0Y-121.25
X135.75Y-118.75
X136.5Y-121.25
X137.25Y-124.0
X138.0Y-126.5
X138.75Y-129.0
T2
X63.0Y-143.75
X69.3Y-93.3
X74.5Y-144.0
X75.4Y-116.4
X77.4Y-76.4
X112.0Y-145.25
T3
X77.0Y-129.0
X120.7Y-143.9
X130.75Y-143.75
X133.2Y-137.4
X134.0Y-142.5
X138.0Y-145.5
T4
X55.913Y-55.92
X55.913Y-58.46
X55.913Y-61.0
X55.913Y-63.54
X55.913Y-66.08
X55.913Y-68.62
X55.913Y-71.16
X55.913Y-73.7
X55.913Y-76.24
X55.913Y-78.78
X55.913Y-81.32
X55.913Y-83.86
X55.913Y-86.4
X55.913Y-88.94
X55.913Y-95.92
X55.913Y-98.46
X55.913Y-101.0
X55.913Y-103.54
X55.913Y-106.08
X55.913Y-108.62
X55.913Y-111.16
X55.913Y-113.7
X55.913Y-116.24
X55.913Y-118.78
X55.913Y-121.32
X55.913Y-123.86
X55.913Y-126.4
X55.913Y-128.94
X63.0Y-138.5
X63.0Y-141.0
X71.153Y-55.92
X71.153Y-58.46
X71.153Y-61.0
X71.153Y-63.54
X71.153Y-66.08
X71.153Y-68.62
X71.153Y-71.16
X71.153Y-73.7
X71.153Y-76.24
X71.153Y-78.78
X71.153Y-81.32
X71.153Y-83.86
X71.153Y-86.4
X71.153Y-88.94
X71.153Y-95.92
X71.153Y-98.46
X71.153Y-101.0
X71.153Y-103.54
X71.153Y-106.08
X71.153Y-108.62
X71.153Y-111.16
X71.153Y-113.7
X71.153Y-116.24
X71.153Y-118.78
X71.153Y-121.32
X71.153Y-123.86
X71.153Y-126.4
X71.153Y-128.94
X75.393Y-55.5
X75.393Y-58.0
X75.393Y-95.5
X75.393Y-98.0
X96.62Y-55.92
X96.62Y-58.46
X96.62Y-61.0
X96.62Y-63.54
X96.62Y-66.08
X96.62Y-68.62
X96.62Y-71.16
X96.62Y-73.7
X96.62Y-76.24
X96.62Y-78.78
X96.62Y-81.32
X96.62Y-83.86
X96.62Y-86.4
X96.62Y-88.94
X96.62Y-95.92
X96.62Y-98.46
X96.62Y-101.0
X96.62Y-103.54
X96.62Y-106.08
X96.62Y-108.62
X96.62Y-111.16
X96.62Y-113.7
X96.62Y-116.24
X96.62Y-118.78
X96.62Y-121.32
X96.62Y-123.86
X96.62Y-126.4
X96.62Y-128.94
X111.86Y-55.92
X111.86Y-58.46
X111.86Y-61.0
X111.86Y-63.54
X111.86Y-66.08
X111.86Y-68.62
X111.86Y-71.16
X111.86Y-73.7
X111.86Y-76.24
X111.86Y-78.78
X111.86Y-81.32
X111.86Y-83.86
X111.86Y-86.4
X111.86Y-88.94
X111.86Y-95.92
X111.86Y-98.46
X111.86Y-101.0
X111.86Y-103.54
X111.86Y-106.08
X111.86Y-108.62
X111.86Y-111.16
X111.86Y-113.7
X111.86Y-116.24
X111.86Y-118.78
X111.86Y-121.32
X111.86Y-123.86
X111.86Y-126.4
X111.86Y-128.94
X116.48Y-55.5
X116.48Y-58.0
X116.48Y-95.5
X116.48Y-98.0
X130.932Y-55.92
X130.932Y-58.46
X130.932Y-61.0
X130.932Y-63.54
X130.932Y-66.08
X130.932Y-68.62
X130.932Y-71.16
X130.932Y-73.7
X130.932Y-76.24
X130.932Y-78.78
X130.932Y-81.32
X130.932Y-83.86
X130.932Y-86.4
X130.932Y-88.94
X130.932Y-95.92
X130.932Y-98.46
X130.932Y-101.0
X130.932Y-103.54
X130.932Y-106.08
X130.932Y-108.62
X130.932Y-111.16
X130.932Y-113.7
X130.932Y-116.24
X130.932Y-118.78
X130.932Y-121.32
X130.932Y-123.86
X130.932Y-126.4
X130.932Y-128.94
X146.172Y-55.92
X146.172Y-58.46
X146.172Y-61.0
X146.172Y-63.54
X146.172Y-66.08
X146.172Y-68.62
X146.172Y-71.16
X146.172Y-73.7
X146.172Y-76.24
X146.172Y-78.78
X146.172Y-81.32
X146.172Y-83.86
X146.172Y-86.4
X146.172Y-88.94
X146.172Y-95.92
X146.172Y-98.46
X146.172Y-101.0
X146.172Y-103.54
X146.172Y-106.08
X146.172Y-108.62
X146.172Y-111.16
X146.172Y-113.7
X146.172Y-116.24
X146.172Y-118.78
X146.172Y-121.32
X146.172Y-123.86
X146.172Y-126.4
X146.172Y-128.94
X150.412Y-55.5
X150.412Y-58.0
X150.412Y-95.5
X150.412Y-98.0
M30
