M48
; DRILL file {KiCad 9.0.5} date 2025-11-19T18:54:25+0200
; FORMAT={-:-/ absolute / metric / decimal}
; #@! TF.CreationDate,2025-11-19T18:54:25+02:00
; #@! TF.GenerationSoftware,Kicad,Pcbnew,9.0.5
; #@! TF.FileFunction,Plated,1,2,PTH
FMAT,2
METRIC
; #@! TA.AperFunction,Plated,PTH,ViaDrill
T1C0.300
; #@! TA.AperFunction,Plated,PTH,ViaDrill
T2C0.400
; #@! TA.AperFunction,Plated,PTH,ComponentDrill
T3C0.800
%
G90
G05
T1
X114.75Y-126.25
X115.5Y-126.25
X116.5Y-123.5
X116.5Y-125.0
X116.5Y-126.25
X117.5Y-126.25
X118.5Y-126.25
X124.25Y-118.0
X127.9Y-83.95
X129.5Y-123.25
X132.875Y-125.125
X133.5Y-109.5
X139.475Y-99.65
X144.95Y-121.0
X144.95Y-121.825
X144.975Y-120.1
X145.0Y-117.45
X145.0Y-119.275
X145.025Y-115.8
X145.025Y-118.35
X145.05Y-116.65
X147.0Y-85.0
X150.65Y-67.6
X150.65Y-68.7
X151.96Y-113.475
X153.225Y-115.125
X154.6Y-115.825
X154.6Y-116.65
X154.6Y-117.45
X154.6Y-118.35
X154.6Y-119.25
X154.6Y-120.075
X154.6Y-120.975
X154.6Y-121.8
X154.9Y-114.45
X162.532Y-122.157
X164.7Y-67.6
X164.7Y-68.7
X165.072Y-122.0
X167.625Y-121.325
X170.152Y-120.625
X172.3Y-85.05
X172.692Y-119.8
X173.725Y-72.4
X174.45Y-83.925
X175.0Y-76.75
X175.232Y-118.925
X175.35Y-87.775
X175.7Y-100.575
X175.8Y-70.4
X175.825Y-85.425
X176.525Y-71.825
X176.75Y-76.75
X177.625Y-84.775
X177.772Y-118.05
X178.25Y-77.75
X180.25Y-79.0
X180.312Y-117.25
X181.0Y-118.0
X181.625Y-118.875
X182.75Y-78.5
X183.75Y-116.75
X184.5Y-124.25
X186.25Y-79.75
X186.65Y-121.775
X187.625Y-119.5
X187.95Y-91.05
X188.95Y-94.6
X190.5Y-84.0
X192.0Y-117.5
X192.5Y-84.4
X192.5Y-90.3
X195.375Y-117.8
X196.25Y-89.75
T2
X128.45Y-126.05
X138.5Y-126.35
X147.5Y-126.3
X156.5Y-126.3
X163.975Y-125.525
X179.5Y-123.4
X182.7Y-122.8
X193.65Y-125.15
T3
X111.0Y-104.476
X115.75Y-87.0
X115.76Y-73.38
X116.0Y-104.476
X116.5Y-119.489
X116.5Y-121.989
X120.18Y-104.496
X120.18Y-112.116
X120.75Y-87.0
X120.76Y-73.38
X122.72Y-104.496
X122.72Y-112.116
X125.22Y-73.38
X125.22Y-81.0
X125.26Y-87.0
X125.26Y-94.62
X125.26Y-104.496
X125.26Y-112.116
X127.76Y-73.38
X127.76Y-81.0
X127.8Y-87.0
X127.8Y-94.62
X127.8Y-104.496
X127.8Y-112.116
X130.3Y-73.38
X130.3Y-81.0
X130.34Y-87.0
X130.34Y-94.62
X130.34Y-104.496
X130.34Y-112.116
X132.84Y-73.38
X132.84Y-81.0
X132.88Y-87.0
X132.88Y-94.62
X132.88Y-104.496
X132.88Y-112.116
X135.38Y-73.38
X135.38Y-81.0
X135.42Y-87.0
X135.42Y-94.62
X135.42Y-104.496
X135.42Y-112.116
X137.92Y-73.38
X137.92Y-81.0
X137.96Y-87.0
X137.96Y-94.62
X137.96Y-104.496
X137.96Y-112.116
X140.46Y-73.38
X140.46Y-81.0
X140.5Y-87.0
X140.5Y-94.62
X140.5Y-104.496
X140.5Y-112.116
X143.0Y-73.38
X143.0Y-81.0
X143.04Y-87.0
X143.04Y-94.62
X143.04Y-104.496
X143.04Y-112.116
X150.85Y-104.496
X155.71Y-90.38
X155.76Y-74.38
X155.85Y-104.496
X159.992Y-104.516
X159.992Y-112.136
X160.71Y-90.38
X160.76Y-74.38
X162.532Y-104.516
X162.532Y-112.136
X165.072Y-104.516
X165.072Y-112.136
X165.22Y-74.38
X165.22Y-82.0
X165.22Y-90.38
X165.22Y-98.0
X167.612Y-104.516
X167.612Y-112.136
X167.76Y-74.38
X167.76Y-82.0
X167.76Y-90.38
X167.76Y-98.0
X170.152Y-104.516
X170.152Y-112.136
X170.3Y-74.38
X170.3Y-82.0
X170.3Y-90.38
X170.3Y-98.0
X172.692Y-104.516
X172.692Y-112.136
X172.84Y-74.38
X172.84Y-82.0
X172.84Y-90.38
X172.84Y-98.0
X175.232Y-104.516
X175.232Y-112.136
X175.38Y-74.38
X175.38Y-82.0
X175.38Y-90.38
X175.38Y-98.0
X177.772Y-104.516
X177.772Y-112.136
X177.92Y-74.38
X177.92Y-82.0
X177.92Y-90.38
X177.92Y-98.0
X180.312Y-104.516
X180.312Y-112.136
X180.46Y-74.38
X180.46Y-82.0
X180.46Y-90.38
X180.46Y-98.0
X182.852Y-104.516
X182.852Y-112.136
X183.0Y-74.38
X183.0Y-82.0
X183.0Y-90.38
X183.0Y-98.0
X187.5Y-115.05
X192.5Y-93.26
X192.5Y-95.8
X192.5Y-98.34
X192.5Y-100.88
X192.5Y-103.42
X192.5Y-105.96
X192.5Y-108.5
X192.5Y-115.05
X200.12Y-93.26
X200.12Y-95.8
X200.12Y-98.34
X200.12Y-100.88
X200.12Y-103.42
X200.12Y-105.96
X200.12Y-108.5
M30
