%TF.GenerationSoftware,KiCad,Pcbnew,9.0.5*%
%TF.CreationDate,2025-11-19T18:54:23+02:00*%
%TF.ProjectId,step_counter,73746570-5f63-46f7-956e-7465722e6b69,rev?*%
%TF.SameCoordinates,Original*%
%TF.FileFunction,Legend,Top*%
%TF.FilePolarity,Positive*%
%FSLAX46Y46*%
G04 Gerber Fmt 4.6, Leading zero omitted, Abs format (unit mm)*
G04 Created by KiCad (PCBNEW 9.0.5) date 2025-11-19 18:54:23*
%MOMM*%
%LPD*%
G01*
G04 APERTURE LIST*
%ADD10C,0.000000*%
%ADD11C,0.052916*%
%ADD12C,0.150000*%
%ADD13C,0.120000*%
G04 APERTURE END LIST*
D10*
G36*
X195116249Y-41544167D02*
G01*
X192840832Y-42099791D01*
X190671249Y-40776875D01*
X190697707Y-40618125D01*
X192920207Y-41861667D01*
X194366155Y-41512416D01*
X193987269Y-41374156D01*
X193629487Y-41249368D01*
X193293271Y-41137426D01*
X192979081Y-41037700D01*
X192687378Y-40949563D01*
X192418623Y-40872386D01*
X192173276Y-40805541D01*
X191951799Y-40748399D01*
X191754652Y-40700333D01*
X191582296Y-40660714D01*
X191313802Y-40604304D01*
X191094582Y-40565208D01*
X192047082Y-40459375D01*
X195116249Y-41544167D01*
G37*
D11*
X188448749Y-48000000D02*
X188104791Y-48000000D01*
X188025416Y-47735417D01*
X187496249Y-47735417D01*
X187416874Y-48000000D01*
X187079530Y-47997090D01*
X187575624Y-46597709D01*
X187946041Y-46597709D01*
X188448749Y-48000000D01*
X187946041Y-47470833D02*
X187575624Y-47470833D01*
X187760832Y-46915208D01*
X187946041Y-47470833D01*
X194353985Y-47727479D02*
X194987397Y-47730919D01*
X194983957Y-48000000D01*
X194031457Y-48000000D01*
X194031457Y-46597709D01*
X194348957Y-46597709D01*
X194353985Y-47727479D01*
X193819790Y-46597709D02*
X193819790Y-46888750D01*
X193158333Y-46888750D01*
X193158333Y-47179792D01*
X193713957Y-47179792D01*
X193713957Y-47444375D01*
X193158333Y-47444375D01*
X193158333Y-48000000D01*
X192840832Y-48000000D01*
X192849034Y-46594269D01*
X193819790Y-46597709D01*
D10*
G36*
X190512499Y-41147291D02*
G01*
X190207169Y-45819040D01*
X189930416Y-41120833D01*
X189903957Y-40988542D01*
X190142082Y-41464792D01*
X190220399Y-44327319D01*
X190274374Y-41464792D01*
X190538957Y-40988542D01*
X190512499Y-41147291D01*
G37*
G36*
X194163749Y-39559792D02*
G01*
X191491457Y-40062500D01*
X194878124Y-38871875D01*
X194163749Y-39559792D01*
G37*
D11*
X186556076Y-46887860D02*
X186560562Y-46888262D01*
X186562931Y-46888642D01*
X186565358Y-46889165D01*
X186567823Y-46889846D01*
X186570307Y-46890702D01*
X186572790Y-46891749D01*
X186575252Y-46893004D01*
X186577675Y-46894484D01*
X186580039Y-46896205D01*
X186582324Y-46898183D01*
X186584510Y-46900435D01*
X186586578Y-46902978D01*
X186588509Y-46905828D01*
X186590283Y-46909002D01*
X186591881Y-46912516D01*
X186593282Y-46916386D01*
X186594468Y-46920630D01*
X186595419Y-46925263D01*
X186596115Y-46930303D01*
X186596537Y-46935765D01*
X186596666Y-46941667D01*
X186596666Y-47179792D01*
X186596302Y-47182022D01*
X186595773Y-47184584D01*
X186594946Y-47187911D01*
X186593772Y-47191852D01*
X186592201Y-47196256D01*
X186590184Y-47200973D01*
X186588992Y-47203402D01*
X186587670Y-47205853D01*
X186586212Y-47208307D01*
X186584611Y-47210746D01*
X186582861Y-47213150D01*
X186580956Y-47215500D01*
X186578890Y-47217779D01*
X186576657Y-47219966D01*
X186574250Y-47222044D01*
X186571663Y-47223994D01*
X186568890Y-47225796D01*
X186565925Y-47227432D01*
X186562761Y-47228883D01*
X186559393Y-47230131D01*
X186555814Y-47231156D01*
X186552017Y-47231940D01*
X186547998Y-47232464D01*
X186543749Y-47232708D01*
X186067499Y-47232708D01*
X186067499Y-46888750D01*
X186543749Y-46888750D01*
X186546034Y-46888344D01*
X186548655Y-46888033D01*
X186552055Y-46887828D01*
X186556076Y-46887860D01*
X195433748Y-47153333D02*
X195724791Y-46597709D01*
X196095207Y-46597709D01*
X195566041Y-47497291D01*
X195566041Y-48000000D01*
X195274999Y-48000000D01*
X195271294Y-47501789D01*
X194745832Y-46597709D01*
X195116249Y-46597709D01*
X195433748Y-47153333D01*
X190815916Y-46598744D02*
X190830127Y-46600602D01*
X190848569Y-46603856D01*
X190870403Y-46608882D01*
X190894791Y-46616056D01*
X190920893Y-46625755D01*
X190934325Y-46631669D01*
X190947871Y-46638355D01*
X190961426Y-46645861D01*
X190974886Y-46654232D01*
X190988145Y-46663518D01*
X191001100Y-46673763D01*
X191013644Y-46685017D01*
X191025673Y-46697324D01*
X191037083Y-46710734D01*
X191047768Y-46725291D01*
X191057623Y-46741045D01*
X191066544Y-46758041D01*
X191074427Y-46776327D01*
X191081165Y-46795950D01*
X191086654Y-46816957D01*
X191090790Y-46839394D01*
X191093468Y-46863310D01*
X191094582Y-46888750D01*
X191101462Y-47733300D01*
X191099871Y-47744463D01*
X191097377Y-47757276D01*
X191093301Y-47773893D01*
X191087305Y-47793553D01*
X191079054Y-47815495D01*
X191068208Y-47838957D01*
X191061708Y-47851020D01*
X191054432Y-47863177D01*
X191046339Y-47875334D01*
X191037388Y-47887394D01*
X191027535Y-47899264D01*
X191016738Y-47910847D01*
X191004956Y-47922048D01*
X190992146Y-47932773D01*
X190978267Y-47942926D01*
X190963275Y-47952412D01*
X190947129Y-47961135D01*
X190929787Y-47969001D01*
X190911206Y-47975914D01*
X190891345Y-47981779D01*
X190870160Y-47986501D01*
X190847611Y-47989984D01*
X190823655Y-47992134D01*
X190798250Y-47992856D01*
X190268024Y-47993385D01*
X190255178Y-47991808D01*
X190240421Y-47989346D01*
X190221263Y-47985332D01*
X190198573Y-47979439D01*
X190173216Y-47971340D01*
X190146060Y-47960708D01*
X190132079Y-47954340D01*
X190117972Y-47947216D01*
X190103850Y-47939295D01*
X190089819Y-47930536D01*
X190075989Y-47920898D01*
X190062468Y-47910341D01*
X190049364Y-47898824D01*
X190036786Y-47886305D01*
X190024842Y-47872745D01*
X190013640Y-47858101D01*
X190003288Y-47842333D01*
X189993896Y-47825400D01*
X189985572Y-47807262D01*
X189978423Y-47787876D01*
X189972558Y-47767204D01*
X189968086Y-47745203D01*
X189965115Y-47721832D01*
X189963754Y-47697052D01*
X189958884Y-47385687D01*
X189956940Y-47128396D01*
X189956874Y-46888750D01*
X189958696Y-46877221D01*
X189961545Y-46863932D01*
X189966192Y-46846624D01*
X189973020Y-46826044D01*
X189982407Y-46802942D01*
X189988180Y-46790678D01*
X189994736Y-46778064D01*
X190002122Y-46765193D01*
X190010386Y-46752159D01*
X190019576Y-46739055D01*
X190029738Y-46725975D01*
X190040922Y-46713013D01*
X190053173Y-46700261D01*
X190066541Y-46687813D01*
X190081071Y-46675763D01*
X190096813Y-46664204D01*
X190113813Y-46653230D01*
X190132120Y-46642934D01*
X190151780Y-46633410D01*
X190172841Y-46624751D01*
X190195352Y-46617051D01*
X190219358Y-46610403D01*
X190244909Y-46604901D01*
X190272051Y-46600639D01*
X190300832Y-46597709D01*
X190803541Y-46597709D01*
X190815916Y-46598744D01*
X185223743Y-46603000D02*
X185265750Y-46614100D01*
X185286118Y-46620692D01*
X185308868Y-46629543D01*
X185333217Y-46641019D01*
X185345747Y-46647856D01*
X185358383Y-46655487D01*
X185371027Y-46663957D01*
X185383583Y-46673313D01*
X185395951Y-46683600D01*
X185408034Y-46694863D01*
X185419735Y-46707149D01*
X185430955Y-46720504D01*
X185441596Y-46734972D01*
X185451562Y-46750601D01*
X185460753Y-46767435D01*
X185469073Y-46785521D01*
X185476423Y-46804905D01*
X185482706Y-46825631D01*
X185487823Y-46847746D01*
X185491677Y-46871296D01*
X185494171Y-46896326D01*
X185495206Y-46922883D01*
X185503937Y-47692026D01*
X185504320Y-47705162D01*
X185503960Y-47720244D01*
X185502486Y-47739812D01*
X185499339Y-47762976D01*
X185493961Y-47788843D01*
X185490260Y-47802512D01*
X185485791Y-47816522D01*
X185480484Y-47830762D01*
X185474271Y-47845121D01*
X185467079Y-47859486D01*
X185458840Y-47873747D01*
X185449484Y-47887792D01*
X185438941Y-47901509D01*
X185427141Y-47914788D01*
X185414013Y-47927516D01*
X185399489Y-47939582D01*
X185383498Y-47950875D01*
X185365970Y-47961283D01*
X185346836Y-47970695D01*
X185326024Y-47978999D01*
X185303467Y-47986084D01*
X185279093Y-47991838D01*
X185252833Y-47996150D01*
X185224617Y-47998908D01*
X185194374Y-48000001D01*
X184659155Y-48000894D01*
X184374166Y-48000001D01*
X184374166Y-47708958D01*
X184374166Y-46888750D01*
X184665208Y-46888750D01*
X184665208Y-47708958D01*
X184873236Y-47709950D01*
X185025744Y-47710074D01*
X185114999Y-47708958D01*
X185119184Y-47708498D01*
X185123303Y-47707631D01*
X185127351Y-47706385D01*
X185131324Y-47704788D01*
X185135217Y-47702867D01*
X185139027Y-47700651D01*
X185142748Y-47698166D01*
X185146377Y-47695440D01*
X185149909Y-47692501D01*
X185153340Y-47689376D01*
X185156665Y-47686094D01*
X185159880Y-47682681D01*
X185165963Y-47675575D01*
X185171554Y-47668279D01*
X185176618Y-47661014D01*
X185181119Y-47654001D01*
X185185024Y-47647460D01*
X185188297Y-47641614D01*
X185192808Y-47632886D01*
X185194374Y-47629583D01*
X185195664Y-47303980D01*
X185195825Y-47069803D01*
X185194374Y-46941667D01*
X185193844Y-46937209D01*
X185192916Y-46933006D01*
X185191618Y-46929052D01*
X185189976Y-46925340D01*
X185188018Y-46921860D01*
X185185772Y-46918607D01*
X185183264Y-46915573D01*
X185180521Y-46912749D01*
X185177571Y-46910128D01*
X185174440Y-46907704D01*
X185171157Y-46905468D01*
X185167748Y-46903413D01*
X185164240Y-46901532D01*
X185160661Y-46899816D01*
X185153397Y-46896853D01*
X185146173Y-46894463D01*
X185139207Y-46892587D01*
X185132716Y-46891164D01*
X185126918Y-46890135D01*
X185118269Y-46889016D01*
X185114999Y-46888750D01*
X184665208Y-46888750D01*
X184374166Y-46888750D01*
X184374166Y-46597709D01*
X185223743Y-46603000D01*
D10*
G36*
X187477993Y-41644973D02*
G01*
X186649583Y-41491250D01*
X189110207Y-40697500D01*
X187477993Y-41644973D01*
G37*
D11*
X192575455Y-47997618D02*
X192275683Y-47982537D01*
X191671110Y-47120788D01*
X191664230Y-47996824D01*
X191359166Y-48000000D01*
X191359166Y-46597709D01*
X191665289Y-46598766D01*
X192258749Y-47470833D01*
X192258749Y-46597709D01*
X192576249Y-46597709D01*
X192575455Y-47997618D01*
D10*
G36*
X189321874Y-40565208D02*
G01*
X189102654Y-40604304D01*
X188834160Y-40660714D01*
X188661804Y-40700333D01*
X188464657Y-40748399D01*
X188243180Y-40805541D01*
X187997834Y-40872386D01*
X187729078Y-40949563D01*
X187437375Y-41037700D01*
X187123185Y-41137426D01*
X186786969Y-41249368D01*
X186429188Y-41374156D01*
X186050301Y-41512416D01*
X187496249Y-41861667D01*
X189718749Y-40618125D01*
X189745207Y-40776875D01*
X187575624Y-42099791D01*
X185300208Y-41544167D01*
X188369374Y-40459375D01*
X189321874Y-40565208D01*
G37*
D11*
X189391725Y-46609086D02*
X189407678Y-46610009D01*
X189423287Y-46612320D01*
X189438539Y-46615925D01*
X189453425Y-46620732D01*
X189467934Y-46626648D01*
X189482055Y-46633581D01*
X189495778Y-46641436D01*
X189509092Y-46650121D01*
X189521987Y-46659543D01*
X189534452Y-46669610D01*
X189546476Y-46680227D01*
X189558049Y-46691304D01*
X189569161Y-46702746D01*
X189579800Y-46714460D01*
X189599621Y-46738335D01*
X189617426Y-46762184D01*
X189633131Y-46785266D01*
X189646651Y-46806836D01*
X189657903Y-46826152D01*
X189673263Y-46855044D01*
X189678533Y-46865996D01*
X189692291Y-47021042D01*
X189374791Y-47021042D01*
X189374753Y-47022782D01*
X189374691Y-47021273D01*
X189374791Y-46968125D01*
X189374662Y-46961635D01*
X189374240Y-46955504D01*
X189373544Y-46949723D01*
X189372593Y-46944280D01*
X189371407Y-46939166D01*
X189370006Y-46934371D01*
X189368408Y-46929884D01*
X189366634Y-46925696D01*
X189364703Y-46921798D01*
X189362635Y-46918177D01*
X189360449Y-46914826D01*
X189358164Y-46911733D01*
X189355800Y-46908889D01*
X189353377Y-46906283D01*
X189350915Y-46903906D01*
X189348432Y-46901748D01*
X189345948Y-46899798D01*
X189343483Y-46898046D01*
X189341056Y-46896483D01*
X189338687Y-46895098D01*
X189334200Y-46892824D01*
X189330179Y-46891144D01*
X189326780Y-46889976D01*
X189324159Y-46889242D01*
X189321874Y-46888750D01*
X188924999Y-46888750D01*
X188919121Y-46888925D01*
X188913679Y-46889388D01*
X188908657Y-46890119D01*
X188904038Y-46891100D01*
X188899807Y-46892311D01*
X188895946Y-46893732D01*
X188892440Y-46895345D01*
X188889272Y-46897130D01*
X188886426Y-46899068D01*
X188883885Y-46901141D01*
X188881632Y-46903327D01*
X188879653Y-46905610D01*
X188877930Y-46907968D01*
X188876446Y-46910383D01*
X188875186Y-46912836D01*
X188874133Y-46915308D01*
X188873270Y-46917778D01*
X188872582Y-46920229D01*
X188872052Y-46922641D01*
X188871664Y-46924994D01*
X188871246Y-46929447D01*
X188871198Y-46933436D01*
X188871388Y-46936806D01*
X188871686Y-46939404D01*
X188872082Y-46941667D01*
X188872082Y-47656041D01*
X188872287Y-47660965D01*
X188872930Y-47665574D01*
X188873983Y-47669878D01*
X188875417Y-47673888D01*
X188877202Y-47677614D01*
X188879309Y-47681066D01*
X188881709Y-47684255D01*
X188884373Y-47687192D01*
X188887271Y-47689886D01*
X188890375Y-47692349D01*
X188893654Y-47694590D01*
X188897081Y-47696620D01*
X188900625Y-47698450D01*
X188904257Y-47700090D01*
X188907949Y-47701549D01*
X188911671Y-47702840D01*
X188919087Y-47704954D01*
X188926273Y-47706516D01*
X188932994Y-47707610D01*
X188939018Y-47708317D01*
X188948036Y-47708909D01*
X188951457Y-47708958D01*
X189321874Y-47708958D01*
X189327194Y-47708760D01*
X189332148Y-47708277D01*
X189336750Y-47707528D01*
X189341012Y-47706532D01*
X189344947Y-47705309D01*
X189348569Y-47703878D01*
X189351890Y-47702257D01*
X189354922Y-47700467D01*
X189357680Y-47698524D01*
X189360175Y-47696450D01*
X189362420Y-47694263D01*
X189364430Y-47691982D01*
X189366215Y-47689627D01*
X189367790Y-47687215D01*
X189369167Y-47684767D01*
X189370359Y-47682301D01*
X189371379Y-47679837D01*
X189372240Y-47677394D01*
X189372954Y-47674990D01*
X189373535Y-47672645D01*
X189374348Y-47668208D01*
X189374782Y-47664235D01*
X189374941Y-47660879D01*
X189374926Y-47658293D01*
X189374791Y-47656041D01*
X189374791Y-47446492D01*
X189110207Y-47444375D01*
X189110207Y-47206250D01*
X189674034Y-47205983D01*
X189680715Y-47404487D01*
X189684080Y-47578575D01*
X189684315Y-47662732D01*
X189683030Y-47736738D01*
X189681838Y-47753737D01*
X189679408Y-47770065D01*
X189675825Y-47785730D01*
X189671172Y-47800740D01*
X189665533Y-47815104D01*
X189658991Y-47828831D01*
X189651630Y-47841929D01*
X189643533Y-47854407D01*
X189634784Y-47866275D01*
X189625467Y-47877539D01*
X189615665Y-47888210D01*
X189605463Y-47898296D01*
X189594943Y-47907805D01*
X189584189Y-47916746D01*
X189573285Y-47925128D01*
X189562314Y-47932960D01*
X189540508Y-47947006D01*
X189519438Y-47958955D01*
X189499775Y-47968875D01*
X189482187Y-47976835D01*
X189455911Y-47987157D01*
X189445964Y-47990474D01*
X189264096Y-47993120D01*
X189066118Y-47993153D01*
X188822870Y-47989416D01*
X188800615Y-47988175D01*
X188779613Y-47985605D01*
X188759829Y-47981793D01*
X188741227Y-47976831D01*
X188723772Y-47970808D01*
X188707427Y-47963815D01*
X188692156Y-47955940D01*
X188677924Y-47947273D01*
X188664695Y-47937906D01*
X188652432Y-47927926D01*
X188641100Y-47917425D01*
X188630663Y-47906491D01*
X188621086Y-47895216D01*
X188612331Y-47883688D01*
X188604364Y-47871997D01*
X188597148Y-47860234D01*
X188590647Y-47848488D01*
X188584826Y-47836848D01*
X188575079Y-47814249D01*
X188567620Y-47793156D01*
X188562161Y-47774286D01*
X188558414Y-47758358D01*
X188556094Y-47746092D01*
X188554583Y-47735417D01*
X188554583Y-46888750D01*
X188555969Y-46864347D01*
X188559156Y-46841412D01*
X188564022Y-46819898D01*
X188570445Y-46799762D01*
X188578306Y-46780957D01*
X188587483Y-46763438D01*
X188597855Y-46747159D01*
X188609302Y-46732075D01*
X188621702Y-46718141D01*
X188634935Y-46705311D01*
X188648879Y-46693539D01*
X188663413Y-46682781D01*
X188678418Y-46672990D01*
X188693771Y-46664122D01*
X188709353Y-46656131D01*
X188725041Y-46648971D01*
X188756254Y-46636964D01*
X188786445Y-46627737D01*
X188814645Y-46620927D01*
X188839886Y-46616171D01*
X188861203Y-46613104D01*
X188877627Y-46611364D01*
X188891927Y-46610408D01*
X189078921Y-46608853D01*
X189242863Y-46608287D01*
X189391725Y-46609086D01*
X186660973Y-46598386D02*
X186674045Y-46599854D01*
X186690998Y-46602628D01*
X186711055Y-46607123D01*
X186733438Y-46613754D01*
X186745259Y-46618000D01*
X186757370Y-46622935D01*
X186769673Y-46628611D01*
X186782073Y-46635081D01*
X186794470Y-46642395D01*
X186806769Y-46650606D01*
X186818873Y-46659766D01*
X186830683Y-46669926D01*
X186842102Y-46681138D01*
X186853035Y-46693455D01*
X186863382Y-46706927D01*
X186873048Y-46721608D01*
X186881935Y-46737548D01*
X186889945Y-46754799D01*
X186896982Y-46773413D01*
X186902949Y-46793443D01*
X186907748Y-46814940D01*
X186911282Y-46837955D01*
X186913453Y-46862542D01*
X186914166Y-46888750D01*
X186914166Y-47232708D01*
X186912260Y-47241277D01*
X186909520Y-47251276D01*
X186905269Y-47264450D01*
X186899270Y-47280325D01*
X186891284Y-47298425D01*
X186881071Y-47318276D01*
X186875055Y-47328709D01*
X186868393Y-47339401D01*
X186861055Y-47350294D01*
X186853011Y-47361327D01*
X186844232Y-47372441D01*
X186834688Y-47383577D01*
X186824348Y-47394676D01*
X186813182Y-47405678D01*
X186801162Y-47416523D01*
X186788257Y-47427152D01*
X186774438Y-47437506D01*
X186759674Y-47447526D01*
X186743935Y-47457151D01*
X186727192Y-47466324D01*
X186709416Y-47474983D01*
X186690575Y-47483071D01*
X186670641Y-47490526D01*
X186649583Y-47497291D01*
X186660812Y-47518218D01*
X186692888Y-47572731D01*
X186792028Y-47737665D01*
X186937449Y-47977246D01*
X186613070Y-47983861D01*
X186332083Y-47497291D01*
X186067500Y-47497291D01*
X186067500Y-48000000D01*
X185750000Y-48000000D01*
X185750000Y-46597709D01*
X185776458Y-46597709D01*
X186649583Y-46597709D01*
X186660973Y-46598386D01*
D10*
G36*
X191147499Y-38818958D02*
G01*
X190565416Y-39401042D01*
X190618332Y-39718542D01*
X190221457Y-38818958D01*
X189798124Y-39718542D01*
X189851041Y-39401042D01*
X189268957Y-38818958D01*
X189216041Y-38078125D01*
X189452313Y-38684550D01*
X189505809Y-38756889D01*
X189561088Y-38829853D01*
X189625086Y-38911827D01*
X189690077Y-38991172D01*
X189720529Y-39026221D01*
X189748333Y-39056248D01*
X189772521Y-39079798D01*
X189792127Y-39095416D01*
X189799911Y-39099796D01*
X189806187Y-39101647D01*
X189810835Y-39100787D01*
X189813734Y-39097036D01*
X189821319Y-39081266D01*
X189835529Y-39055861D01*
X189880195Y-38981950D01*
X189940462Y-38886918D01*
X190009063Y-38782380D01*
X190078731Y-38679950D01*
X190142198Y-38591243D01*
X190169335Y-38555666D01*
X190192196Y-38527874D01*
X190209873Y-38509321D01*
X190216484Y-38503963D01*
X190221457Y-38501458D01*
X190226460Y-38502250D01*
X190233152Y-38506505D01*
X190251121Y-38524492D01*
X190274393Y-38553589D01*
X190301998Y-38591966D01*
X190366332Y-38689238D01*
X190436365Y-38801661D01*
X190562497Y-39013390D01*
X190618332Y-39110000D01*
X190962291Y-38713125D01*
X191200416Y-38078125D01*
X191147499Y-38818958D01*
G37*
G36*
X193766874Y-41491250D02*
G01*
X192938463Y-41644973D01*
X191306249Y-40697500D01*
X193766874Y-41491250D01*
G37*
G36*
X190275697Y-40028632D02*
G01*
X190276490Y-40637439D01*
X190213784Y-40835348D01*
X190212991Y-40834024D01*
X190135733Y-40644582D01*
X190142082Y-40036041D01*
X190206641Y-39823845D01*
X190275697Y-40028632D01*
G37*
G36*
X188924999Y-40062500D02*
G01*
X186252708Y-39559792D01*
X185538333Y-38871875D01*
X188924999Y-40062500D01*
G37*
G36*
X194401874Y-39956667D02*
G01*
X190671249Y-40485833D01*
X190671249Y-40327083D01*
X194296040Y-39718542D01*
X194886656Y-39129778D01*
X195287905Y-38721319D01*
X195416717Y-38584090D01*
X195450883Y-38544166D01*
X195458869Y-38532869D01*
X195460207Y-38527917D01*
X194706467Y-38776865D01*
X193070424Y-39341576D01*
X190697707Y-40168333D01*
X190697707Y-39930208D01*
X196280415Y-37972292D01*
X194401874Y-39956667D01*
G37*
D11*
X190753054Y-46888788D02*
X190755545Y-46888963D01*
X190758785Y-46889354D01*
X190762629Y-46890045D01*
X190766934Y-46891122D01*
X190769215Y-46891831D01*
X190771557Y-46892669D01*
X190773943Y-46893644D01*
X190776355Y-46894769D01*
X190778774Y-46896054D01*
X190781183Y-46897509D01*
X190783564Y-46899145D01*
X190785899Y-46900972D01*
X190788170Y-46903001D01*
X190790360Y-46905242D01*
X190792449Y-46907707D01*
X190794421Y-46910405D01*
X190796257Y-46913347D01*
X190797939Y-46916544D01*
X190799450Y-46920006D01*
X190800772Y-46923744D01*
X190801886Y-46927769D01*
X190802775Y-46932091D01*
X190803421Y-46936720D01*
X190803805Y-46941667D01*
X190804727Y-47072259D01*
X190804434Y-47306163D01*
X190803277Y-47629583D01*
X190803738Y-47632962D01*
X190804107Y-47636841D01*
X190804384Y-47641874D01*
X190804433Y-47647833D01*
X190804114Y-47654489D01*
X190803289Y-47661612D01*
X190802644Y-47665277D01*
X190801821Y-47668973D01*
X190800803Y-47672671D01*
X190799572Y-47676344D01*
X190798111Y-47679961D01*
X190796403Y-47683494D01*
X190794431Y-47686916D01*
X190792178Y-47690197D01*
X190789625Y-47693308D01*
X190786757Y-47696221D01*
X190783555Y-47698907D01*
X190780002Y-47701338D01*
X190776082Y-47703485D01*
X190771777Y-47705320D01*
X190767069Y-47706813D01*
X190761942Y-47707936D01*
X190756378Y-47708661D01*
X190750360Y-47708958D01*
X190353485Y-47708958D01*
X190350107Y-47709137D01*
X190341194Y-47709099D01*
X190335235Y-47708729D01*
X190328579Y-47707982D01*
X190321456Y-47706749D01*
X190314095Y-47704923D01*
X190310397Y-47703755D01*
X190306724Y-47702397D01*
X190303107Y-47700837D01*
X190299573Y-47699062D01*
X190296152Y-47697058D01*
X190292871Y-47694811D01*
X190289760Y-47692308D01*
X190286847Y-47689536D01*
X190284161Y-47686481D01*
X190281730Y-47683129D01*
X190279583Y-47679468D01*
X190277749Y-47675483D01*
X190276256Y-47671162D01*
X190275132Y-47666490D01*
X190274408Y-47661454D01*
X190274110Y-47656041D01*
X190274639Y-46968125D01*
X190274221Y-46964801D01*
X190273899Y-46960981D01*
X190273680Y-46956020D01*
X190273696Y-46950142D01*
X190274081Y-46943568D01*
X190274968Y-46936524D01*
X190275642Y-46932895D01*
X190276491Y-46929231D01*
X190277532Y-46925562D01*
X190278783Y-46921914D01*
X190280259Y-46918316D01*
X190281977Y-46914795D01*
X190283954Y-46911380D01*
X190286207Y-46908098D01*
X190288751Y-46904977D01*
X190291605Y-46902046D01*
X190294785Y-46899331D01*
X190298306Y-46896861D01*
X190302187Y-46894665D01*
X190306443Y-46892769D01*
X190311091Y-46891201D01*
X190316148Y-46889990D01*
X190321631Y-46889164D01*
X190327556Y-46888750D01*
X190750889Y-46888750D01*
X190753054Y-46888788D01*
D10*
G36*
X189718749Y-39930208D02*
G01*
X189718749Y-40168333D01*
X187346032Y-39341576D01*
X185709989Y-38776865D01*
X184956249Y-38527917D01*
X184957587Y-38532869D01*
X184965574Y-38544166D01*
X184999739Y-38584090D01*
X185128551Y-38721319D01*
X185529800Y-39129778D01*
X186120416Y-39718542D01*
X189745207Y-40327083D01*
X189745207Y-40485833D01*
X186014583Y-39956667D01*
X184136041Y-37972292D01*
X189718749Y-39930208D01*
G37*
G36*
X190538957Y-39797917D02*
G01*
X190529168Y-40769731D01*
X190194999Y-41358958D01*
X189866386Y-40764440D01*
X189877499Y-39797917D01*
X190209022Y-39206309D01*
X190538957Y-39797917D01*
G37*
D12*
X113333333Y-102335315D02*
X113285714Y-102382935D01*
X113285714Y-102382935D02*
X113142857Y-102430554D01*
X113142857Y-102430554D02*
X113047619Y-102430554D01*
X113047619Y-102430554D02*
X112904762Y-102382935D01*
X112904762Y-102382935D02*
X112809524Y-102287696D01*
X112809524Y-102287696D02*
X112761905Y-102192458D01*
X112761905Y-102192458D02*
X112714286Y-102001982D01*
X112714286Y-102001982D02*
X112714286Y-101859125D01*
X112714286Y-101859125D02*
X112761905Y-101668649D01*
X112761905Y-101668649D02*
X112809524Y-101573411D01*
X112809524Y-101573411D02*
X112904762Y-101478173D01*
X112904762Y-101478173D02*
X113047619Y-101430554D01*
X113047619Y-101430554D02*
X113142857Y-101430554D01*
X113142857Y-101430554D02*
X113285714Y-101478173D01*
X113285714Y-101478173D02*
X113333333Y-101525792D01*
X113666667Y-101430554D02*
X114285714Y-101430554D01*
X114285714Y-101430554D02*
X113952381Y-101811506D01*
X113952381Y-101811506D02*
X114095238Y-101811506D01*
X114095238Y-101811506D02*
X114190476Y-101859125D01*
X114190476Y-101859125D02*
X114238095Y-101906744D01*
X114238095Y-101906744D02*
X114285714Y-102001982D01*
X114285714Y-102001982D02*
X114285714Y-102240077D01*
X114285714Y-102240077D02*
X114238095Y-102335315D01*
X114238095Y-102335315D02*
X114190476Y-102382935D01*
X114190476Y-102382935D02*
X114095238Y-102430554D01*
X114095238Y-102430554D02*
X113809524Y-102430554D01*
X113809524Y-102430554D02*
X113714286Y-102382935D01*
X113714286Y-102382935D02*
X113666667Y-102335315D01*
X153183333Y-102359580D02*
X153135714Y-102407200D01*
X153135714Y-102407200D02*
X152992857Y-102454819D01*
X152992857Y-102454819D02*
X152897619Y-102454819D01*
X152897619Y-102454819D02*
X152754762Y-102407200D01*
X152754762Y-102407200D02*
X152659524Y-102311961D01*
X152659524Y-102311961D02*
X152611905Y-102216723D01*
X152611905Y-102216723D02*
X152564286Y-102026247D01*
X152564286Y-102026247D02*
X152564286Y-101883390D01*
X152564286Y-101883390D02*
X152611905Y-101692914D01*
X152611905Y-101692914D02*
X152659524Y-101597676D01*
X152659524Y-101597676D02*
X152754762Y-101502438D01*
X152754762Y-101502438D02*
X152897619Y-101454819D01*
X152897619Y-101454819D02*
X152992857Y-101454819D01*
X152992857Y-101454819D02*
X153135714Y-101502438D01*
X153135714Y-101502438D02*
X153183333Y-101550057D01*
X153564286Y-101550057D02*
X153611905Y-101502438D01*
X153611905Y-101502438D02*
X153707143Y-101454819D01*
X153707143Y-101454819D02*
X153945238Y-101454819D01*
X153945238Y-101454819D02*
X154040476Y-101502438D01*
X154040476Y-101502438D02*
X154088095Y-101550057D01*
X154088095Y-101550057D02*
X154135714Y-101645295D01*
X154135714Y-101645295D02*
X154135714Y-101740533D01*
X154135714Y-101740533D02*
X154088095Y-101883390D01*
X154088095Y-101883390D02*
X153516667Y-102454819D01*
X153516667Y-102454819D02*
X154135714Y-102454819D01*
X185142857Y-85204819D02*
X185142857Y-84204819D01*
X185619047Y-84538152D02*
X185619047Y-85204819D01*
X185619047Y-84633390D02*
X185666666Y-84585771D01*
X185666666Y-84585771D02*
X185761904Y-84538152D01*
X185761904Y-84538152D02*
X185904761Y-84538152D01*
X185904761Y-84538152D02*
X185999999Y-84585771D01*
X185999999Y-84585771D02*
X186047618Y-84681009D01*
X186047618Y-84681009D02*
X186047618Y-85204819D01*
X186952380Y-85157200D02*
X186857142Y-85204819D01*
X186857142Y-85204819D02*
X186666666Y-85204819D01*
X186666666Y-85204819D02*
X186571428Y-85157200D01*
X186571428Y-85157200D02*
X186523809Y-85109580D01*
X186523809Y-85109580D02*
X186476190Y-85014342D01*
X186476190Y-85014342D02*
X186476190Y-84728628D01*
X186476190Y-84728628D02*
X186523809Y-84633390D01*
X186523809Y-84633390D02*
X186571428Y-84585771D01*
X186571428Y-84585771D02*
X186666666Y-84538152D01*
X186666666Y-84538152D02*
X186857142Y-84538152D01*
X186857142Y-84538152D02*
X186952380Y-84585771D01*
X187904761Y-85204819D02*
X187333333Y-85204819D01*
X187619047Y-85204819D02*
X187619047Y-84204819D01*
X187619047Y-84204819D02*
X187523809Y-84347676D01*
X187523809Y-84347676D02*
X187428571Y-84442914D01*
X187428571Y-84442914D02*
X187333333Y-84490533D01*
X189833333Y-113209580D02*
X189785714Y-113257200D01*
X189785714Y-113257200D02*
X189642857Y-113304819D01*
X189642857Y-113304819D02*
X189547619Y-113304819D01*
X189547619Y-113304819D02*
X189404762Y-113257200D01*
X189404762Y-113257200D02*
X189309524Y-113161961D01*
X189309524Y-113161961D02*
X189261905Y-113066723D01*
X189261905Y-113066723D02*
X189214286Y-112876247D01*
X189214286Y-112876247D02*
X189214286Y-112733390D01*
X189214286Y-112733390D02*
X189261905Y-112542914D01*
X189261905Y-112542914D02*
X189309524Y-112447676D01*
X189309524Y-112447676D02*
X189404762Y-112352438D01*
X189404762Y-112352438D02*
X189547619Y-112304819D01*
X189547619Y-112304819D02*
X189642857Y-112304819D01*
X189642857Y-112304819D02*
X189785714Y-112352438D01*
X189785714Y-112352438D02*
X189833333Y-112400057D01*
X190404762Y-112733390D02*
X190309524Y-112685771D01*
X190309524Y-112685771D02*
X190261905Y-112638152D01*
X190261905Y-112638152D02*
X190214286Y-112542914D01*
X190214286Y-112542914D02*
X190214286Y-112495295D01*
X190214286Y-112495295D02*
X190261905Y-112400057D01*
X190261905Y-112400057D02*
X190309524Y-112352438D01*
X190309524Y-112352438D02*
X190404762Y-112304819D01*
X190404762Y-112304819D02*
X190595238Y-112304819D01*
X190595238Y-112304819D02*
X190690476Y-112352438D01*
X190690476Y-112352438D02*
X190738095Y-112400057D01*
X190738095Y-112400057D02*
X190785714Y-112495295D01*
X190785714Y-112495295D02*
X190785714Y-112542914D01*
X190785714Y-112542914D02*
X190738095Y-112638152D01*
X190738095Y-112638152D02*
X190690476Y-112685771D01*
X190690476Y-112685771D02*
X190595238Y-112733390D01*
X190595238Y-112733390D02*
X190404762Y-112733390D01*
X190404762Y-112733390D02*
X190309524Y-112781009D01*
X190309524Y-112781009D02*
X190261905Y-112828628D01*
X190261905Y-112828628D02*
X190214286Y-112923866D01*
X190214286Y-112923866D02*
X190214286Y-113114342D01*
X190214286Y-113114342D02*
X190261905Y-113209580D01*
X190261905Y-113209580D02*
X190309524Y-113257200D01*
X190309524Y-113257200D02*
X190404762Y-113304819D01*
X190404762Y-113304819D02*
X190595238Y-113304819D01*
X190595238Y-113304819D02*
X190690476Y-113257200D01*
X190690476Y-113257200D02*
X190738095Y-113209580D01*
X190738095Y-113209580D02*
X190785714Y-113114342D01*
X190785714Y-113114342D02*
X190785714Y-112923866D01*
X190785714Y-112923866D02*
X190738095Y-112828628D01*
X190738095Y-112828628D02*
X190690476Y-112781009D01*
X190690476Y-112781009D02*
X190595238Y-112733390D01*
X154678571Y-110204819D02*
X154345238Y-109728628D01*
X154107143Y-110204819D02*
X154107143Y-109204819D01*
X154107143Y-109204819D02*
X154488095Y-109204819D01*
X154488095Y-109204819D02*
X154583333Y-109252438D01*
X154583333Y-109252438D02*
X154630952Y-109300057D01*
X154630952Y-109300057D02*
X154678571Y-109395295D01*
X154678571Y-109395295D02*
X154678571Y-109538152D01*
X154678571Y-109538152D02*
X154630952Y-109633390D01*
X154630952Y-109633390D02*
X154583333Y-109681009D01*
X154583333Y-109681009D02*
X154488095Y-109728628D01*
X154488095Y-109728628D02*
X154107143Y-109728628D01*
X155583333Y-110204819D02*
X155107143Y-110204819D01*
X155107143Y-110204819D02*
X155107143Y-109204819D01*
X153969048Y-108927200D02*
X155578572Y-108927200D01*
X156440476Y-110204819D02*
X155869048Y-110204819D01*
X156154762Y-110204819D02*
X156154762Y-109204819D01*
X156154762Y-109204819D02*
X156059524Y-109347676D01*
X156059524Y-109347676D02*
X155964286Y-109442914D01*
X155964286Y-109442914D02*
X155869048Y-109490533D01*
X190416666Y-119609580D02*
X190369047Y-119657200D01*
X190369047Y-119657200D02*
X190226190Y-119704819D01*
X190226190Y-119704819D02*
X190130952Y-119704819D01*
X190130952Y-119704819D02*
X189988095Y-119657200D01*
X189988095Y-119657200D02*
X189892857Y-119561961D01*
X189892857Y-119561961D02*
X189845238Y-119466723D01*
X189845238Y-119466723D02*
X189797619Y-119276247D01*
X189797619Y-119276247D02*
X189797619Y-119133390D01*
X189797619Y-119133390D02*
X189845238Y-118942914D01*
X189845238Y-118942914D02*
X189892857Y-118847676D01*
X189892857Y-118847676D02*
X189988095Y-118752438D01*
X189988095Y-118752438D02*
X190130952Y-118704819D01*
X190130952Y-118704819D02*
X190226190Y-118704819D01*
X190226190Y-118704819D02*
X190369047Y-118752438D01*
X190369047Y-118752438D02*
X190416666Y-118800057D01*
X190988095Y-119704819D02*
X190892857Y-119657200D01*
X190892857Y-119657200D02*
X190845238Y-119561961D01*
X190845238Y-119561961D02*
X190845238Y-118704819D01*
X191369048Y-119704819D02*
X191369048Y-118704819D01*
X191464286Y-119323866D02*
X191750000Y-119704819D01*
X191750000Y-119038152D02*
X191369048Y-119419104D01*
X189707143Y-118427200D02*
X191840477Y-118427200D01*
X192702381Y-119704819D02*
X192130953Y-119704819D01*
X192416667Y-119704819D02*
X192416667Y-118704819D01*
X192416667Y-118704819D02*
X192321429Y-118847676D01*
X192321429Y-118847676D02*
X192226191Y-118942914D01*
X192226191Y-118942914D02*
X192130953Y-118990533D01*
X202845238Y-113954819D02*
X202845238Y-112954819D01*
X202845238Y-112954819D02*
X203226190Y-112954819D01*
X203226190Y-112954819D02*
X203321428Y-113002438D01*
X203321428Y-113002438D02*
X203369047Y-113050057D01*
X203369047Y-113050057D02*
X203416666Y-113145295D01*
X203416666Y-113145295D02*
X203416666Y-113288152D01*
X203416666Y-113288152D02*
X203369047Y-113383390D01*
X203369047Y-113383390D02*
X203321428Y-113431009D01*
X203321428Y-113431009D02*
X203226190Y-113478628D01*
X203226190Y-113478628D02*
X202845238Y-113478628D01*
X203988095Y-113954819D02*
X203892857Y-113907200D01*
X203892857Y-113907200D02*
X203845238Y-113811961D01*
X203845238Y-113811961D02*
X203845238Y-112954819D01*
X204321429Y-113907200D02*
X204416667Y-113954819D01*
X204416667Y-113954819D02*
X204607143Y-113954819D01*
X204607143Y-113954819D02*
X204702381Y-113907200D01*
X204702381Y-113907200D02*
X204750000Y-113811961D01*
X204750000Y-113811961D02*
X204750000Y-113764342D01*
X204750000Y-113764342D02*
X204702381Y-113669104D01*
X204702381Y-113669104D02*
X204607143Y-113621485D01*
X204607143Y-113621485D02*
X204464286Y-113621485D01*
X204464286Y-113621485D02*
X204369048Y-113573866D01*
X204369048Y-113573866D02*
X204321429Y-113478628D01*
X204321429Y-113478628D02*
X204321429Y-113431009D01*
X204321429Y-113431009D02*
X204369048Y-113335771D01*
X204369048Y-113335771D02*
X204464286Y-113288152D01*
X204464286Y-113288152D02*
X204607143Y-113288152D01*
X204607143Y-113288152D02*
X204702381Y-113335771D01*
X205702381Y-113954819D02*
X205130953Y-113954819D01*
X205416667Y-113954819D02*
X205416667Y-112954819D01*
X205416667Y-112954819D02*
X205321429Y-113097676D01*
X205321429Y-113097676D02*
X205226191Y-113192914D01*
X205226191Y-113192914D02*
X205130953Y-113240533D01*
X187273809Y-80204819D02*
X187273809Y-79204819D01*
X187273809Y-79204819D02*
X187511904Y-79204819D01*
X187511904Y-79204819D02*
X187654761Y-79252438D01*
X187654761Y-79252438D02*
X187749999Y-79347676D01*
X187749999Y-79347676D02*
X187797618Y-79442914D01*
X187797618Y-79442914D02*
X187845237Y-79633390D01*
X187845237Y-79633390D02*
X187845237Y-79776247D01*
X187845237Y-79776247D02*
X187797618Y-79966723D01*
X187797618Y-79966723D02*
X187749999Y-80061961D01*
X187749999Y-80061961D02*
X187654761Y-80157200D01*
X187654761Y-80157200D02*
X187511904Y-80204819D01*
X187511904Y-80204819D02*
X187273809Y-80204819D01*
X188702380Y-80157200D02*
X188607142Y-80204819D01*
X188607142Y-80204819D02*
X188416666Y-80204819D01*
X188416666Y-80204819D02*
X188321428Y-80157200D01*
X188321428Y-80157200D02*
X188273809Y-80109580D01*
X188273809Y-80109580D02*
X188226190Y-80014342D01*
X188226190Y-80014342D02*
X188226190Y-79728628D01*
X188226190Y-79728628D02*
X188273809Y-79633390D01*
X188273809Y-79633390D02*
X188321428Y-79585771D01*
X188321428Y-79585771D02*
X188416666Y-79538152D01*
X188416666Y-79538152D02*
X188607142Y-79538152D01*
X188607142Y-79538152D02*
X188702380Y-79585771D01*
X189130952Y-80204819D02*
X189130952Y-79538152D01*
X189130952Y-79728628D02*
X189178571Y-79633390D01*
X189178571Y-79633390D02*
X189226190Y-79585771D01*
X189226190Y-79585771D02*
X189321428Y-79538152D01*
X189321428Y-79538152D02*
X189416666Y-79538152D01*
X190273809Y-80204819D02*
X189702381Y-80204819D01*
X189988095Y-80204819D02*
X189988095Y-79204819D01*
X189988095Y-79204819D02*
X189892857Y-79347676D01*
X189892857Y-79347676D02*
X189797619Y-79442914D01*
X189797619Y-79442914D02*
X189702381Y-79490533D01*
X158043333Y-88239580D02*
X157995714Y-88287200D01*
X157995714Y-88287200D02*
X157852857Y-88334819D01*
X157852857Y-88334819D02*
X157757619Y-88334819D01*
X157757619Y-88334819D02*
X157614762Y-88287200D01*
X157614762Y-88287200D02*
X157519524Y-88191961D01*
X157519524Y-88191961D02*
X157471905Y-88096723D01*
X157471905Y-88096723D02*
X157424286Y-87906247D01*
X157424286Y-87906247D02*
X157424286Y-87763390D01*
X157424286Y-87763390D02*
X157471905Y-87572914D01*
X157471905Y-87572914D02*
X157519524Y-87477676D01*
X157519524Y-87477676D02*
X157614762Y-87382438D01*
X157614762Y-87382438D02*
X157757619Y-87334819D01*
X157757619Y-87334819D02*
X157852857Y-87334819D01*
X157852857Y-87334819D02*
X157995714Y-87382438D01*
X157995714Y-87382438D02*
X158043333Y-87430057D01*
X158900476Y-87668152D02*
X158900476Y-88334819D01*
X158662381Y-87287200D02*
X158424286Y-88001485D01*
X158424286Y-88001485D02*
X159043333Y-88001485D01*
X121495238Y-126331009D02*
X121638095Y-126378628D01*
X121638095Y-126378628D02*
X121685714Y-126426247D01*
X121685714Y-126426247D02*
X121733333Y-126521485D01*
X121733333Y-126521485D02*
X121733333Y-126664342D01*
X121733333Y-126664342D02*
X121685714Y-126759580D01*
X121685714Y-126759580D02*
X121638095Y-126807200D01*
X121638095Y-126807200D02*
X121542857Y-126854819D01*
X121542857Y-126854819D02*
X121161905Y-126854819D01*
X121161905Y-126854819D02*
X121161905Y-125854819D01*
X121161905Y-125854819D02*
X121495238Y-125854819D01*
X121495238Y-125854819D02*
X121590476Y-125902438D01*
X121590476Y-125902438D02*
X121638095Y-125950057D01*
X121638095Y-125950057D02*
X121685714Y-126045295D01*
X121685714Y-126045295D02*
X121685714Y-126140533D01*
X121685714Y-126140533D02*
X121638095Y-126235771D01*
X121638095Y-126235771D02*
X121590476Y-126283390D01*
X121590476Y-126283390D02*
X121495238Y-126331009D01*
X121495238Y-126331009D02*
X121161905Y-126331009D01*
X122733333Y-126759580D02*
X122685714Y-126807200D01*
X122685714Y-126807200D02*
X122542857Y-126854819D01*
X122542857Y-126854819D02*
X122447619Y-126854819D01*
X122447619Y-126854819D02*
X122304762Y-126807200D01*
X122304762Y-126807200D02*
X122209524Y-126711961D01*
X122209524Y-126711961D02*
X122161905Y-126616723D01*
X122161905Y-126616723D02*
X122114286Y-126426247D01*
X122114286Y-126426247D02*
X122114286Y-126283390D01*
X122114286Y-126283390D02*
X122161905Y-126092914D01*
X122161905Y-126092914D02*
X122209524Y-125997676D01*
X122209524Y-125997676D02*
X122304762Y-125902438D01*
X122304762Y-125902438D02*
X122447619Y-125854819D01*
X122447619Y-125854819D02*
X122542857Y-125854819D01*
X122542857Y-125854819D02*
X122685714Y-125902438D01*
X122685714Y-125902438D02*
X122733333Y-125950057D01*
X123685714Y-126854819D02*
X123114286Y-126854819D01*
X123400000Y-126854819D02*
X123400000Y-125854819D01*
X123400000Y-125854819D02*
X123304762Y-125997676D01*
X123304762Y-125997676D02*
X123209524Y-126092914D01*
X123209524Y-126092914D02*
X123114286Y-126140533D01*
X120059523Y-117204819D02*
X119726190Y-116728628D01*
X119488095Y-117204819D02*
X119488095Y-116204819D01*
X119488095Y-116204819D02*
X119869047Y-116204819D01*
X119869047Y-116204819D02*
X119964285Y-116252438D01*
X119964285Y-116252438D02*
X120011904Y-116300057D01*
X120011904Y-116300057D02*
X120059523Y-116395295D01*
X120059523Y-116395295D02*
X120059523Y-116538152D01*
X120059523Y-116538152D02*
X120011904Y-116633390D01*
X120011904Y-116633390D02*
X119964285Y-116681009D01*
X119964285Y-116681009D02*
X119869047Y-116728628D01*
X119869047Y-116728628D02*
X119488095Y-116728628D01*
X120488095Y-117204819D02*
X120488095Y-116204819D01*
X120488095Y-116681009D02*
X121059523Y-116681009D01*
X121059523Y-117204819D02*
X121059523Y-116204819D01*
X119350000Y-115927200D02*
X121197619Y-115927200D01*
X122059523Y-117204819D02*
X121488095Y-117204819D01*
X121773809Y-117204819D02*
X121773809Y-116204819D01*
X121773809Y-116204819D02*
X121678571Y-116347676D01*
X121678571Y-116347676D02*
X121583333Y-116442914D01*
X121583333Y-116442914D02*
X121488095Y-116490533D01*
X161454819Y-96261904D02*
X162264342Y-96261904D01*
X162264342Y-96261904D02*
X162359580Y-96214285D01*
X162359580Y-96214285D02*
X162407200Y-96166666D01*
X162407200Y-96166666D02*
X162454819Y-96071428D01*
X162454819Y-96071428D02*
X162454819Y-95880952D01*
X162454819Y-95880952D02*
X162407200Y-95785714D01*
X162407200Y-95785714D02*
X162359580Y-95738095D01*
X162359580Y-95738095D02*
X162264342Y-95690476D01*
X162264342Y-95690476D02*
X161454819Y-95690476D01*
X161454819Y-94738095D02*
X161454819Y-95214285D01*
X161454819Y-95214285D02*
X161931009Y-95261904D01*
X161931009Y-95261904D02*
X161883390Y-95214285D01*
X161883390Y-95214285D02*
X161835771Y-95119047D01*
X161835771Y-95119047D02*
X161835771Y-94880952D01*
X161835771Y-94880952D02*
X161883390Y-94785714D01*
X161883390Y-94785714D02*
X161931009Y-94738095D01*
X161931009Y-94738095D02*
X162026247Y-94690476D01*
X162026247Y-94690476D02*
X162264342Y-94690476D01*
X162264342Y-94690476D02*
X162359580Y-94738095D01*
X162359580Y-94738095D02*
X162407200Y-94785714D01*
X162407200Y-94785714D02*
X162454819Y-94880952D01*
X162454819Y-94880952D02*
X162454819Y-95119047D01*
X162454819Y-95119047D02*
X162407200Y-95214285D01*
X162407200Y-95214285D02*
X162359580Y-95261904D01*
X195488095Y-110454819D02*
X195488095Y-111264342D01*
X195488095Y-111264342D02*
X195535714Y-111359580D01*
X195535714Y-111359580D02*
X195583333Y-111407200D01*
X195583333Y-111407200D02*
X195678571Y-111454819D01*
X195678571Y-111454819D02*
X195869047Y-111454819D01*
X195869047Y-111454819D02*
X195964285Y-111407200D01*
X195964285Y-111407200D02*
X196011904Y-111359580D01*
X196011904Y-111359580D02*
X196059523Y-111264342D01*
X196059523Y-111264342D02*
X196059523Y-110454819D01*
X197059523Y-111454819D02*
X196488095Y-111454819D01*
X196773809Y-111454819D02*
X196773809Y-110454819D01*
X196773809Y-110454819D02*
X196678571Y-110597676D01*
X196678571Y-110597676D02*
X196583333Y-110692914D01*
X196583333Y-110692914D02*
X196488095Y-110740533D01*
X158083333Y-77109580D02*
X158035714Y-77157200D01*
X158035714Y-77157200D02*
X157892857Y-77204819D01*
X157892857Y-77204819D02*
X157797619Y-77204819D01*
X157797619Y-77204819D02*
X157654762Y-77157200D01*
X157654762Y-77157200D02*
X157559524Y-77061961D01*
X157559524Y-77061961D02*
X157511905Y-76966723D01*
X157511905Y-76966723D02*
X157464286Y-76776247D01*
X157464286Y-76776247D02*
X157464286Y-76633390D01*
X157464286Y-76633390D02*
X157511905Y-76442914D01*
X157511905Y-76442914D02*
X157559524Y-76347676D01*
X157559524Y-76347676D02*
X157654762Y-76252438D01*
X157654762Y-76252438D02*
X157797619Y-76204819D01*
X157797619Y-76204819D02*
X157892857Y-76204819D01*
X157892857Y-76204819D02*
X158035714Y-76252438D01*
X158035714Y-76252438D02*
X158083333Y-76300057D01*
X158940476Y-76204819D02*
X158750000Y-76204819D01*
X158750000Y-76204819D02*
X158654762Y-76252438D01*
X158654762Y-76252438D02*
X158607143Y-76300057D01*
X158607143Y-76300057D02*
X158511905Y-76442914D01*
X158511905Y-76442914D02*
X158464286Y-76633390D01*
X158464286Y-76633390D02*
X158464286Y-77014342D01*
X158464286Y-77014342D02*
X158511905Y-77109580D01*
X158511905Y-77109580D02*
X158559524Y-77157200D01*
X158559524Y-77157200D02*
X158654762Y-77204819D01*
X158654762Y-77204819D02*
X158845238Y-77204819D01*
X158845238Y-77204819D02*
X158940476Y-77157200D01*
X158940476Y-77157200D02*
X158988095Y-77109580D01*
X158988095Y-77109580D02*
X159035714Y-77014342D01*
X159035714Y-77014342D02*
X159035714Y-76776247D01*
X159035714Y-76776247D02*
X158988095Y-76681009D01*
X158988095Y-76681009D02*
X158940476Y-76633390D01*
X158940476Y-76633390D02*
X158845238Y-76585771D01*
X158845238Y-76585771D02*
X158654762Y-76585771D01*
X158654762Y-76585771D02*
X158559524Y-76633390D01*
X158559524Y-76633390D02*
X158511905Y-76681009D01*
X158511905Y-76681009D02*
X158464286Y-76776247D01*
X158142856Y-66606819D02*
X157809523Y-66130628D01*
X157571428Y-66606819D02*
X157571428Y-65606819D01*
X157571428Y-65606819D02*
X157952380Y-65606819D01*
X157952380Y-65606819D02*
X158047618Y-65654438D01*
X158047618Y-65654438D02*
X158095237Y-65702057D01*
X158095237Y-65702057D02*
X158142856Y-65797295D01*
X158142856Y-65797295D02*
X158142856Y-65940152D01*
X158142856Y-65940152D02*
X158095237Y-66035390D01*
X158095237Y-66035390D02*
X158047618Y-66083009D01*
X158047618Y-66083009D02*
X157952380Y-66130628D01*
X157952380Y-66130628D02*
X157571428Y-66130628D01*
X158523809Y-66559200D02*
X158619047Y-66606819D01*
X158619047Y-66606819D02*
X158809523Y-66606819D01*
X158809523Y-66606819D02*
X158904761Y-66559200D01*
X158904761Y-66559200D02*
X158952380Y-66463961D01*
X158952380Y-66463961D02*
X158952380Y-66416342D01*
X158952380Y-66416342D02*
X158904761Y-66321104D01*
X158904761Y-66321104D02*
X158809523Y-66273485D01*
X158809523Y-66273485D02*
X158666666Y-66273485D01*
X158666666Y-66273485D02*
X158571428Y-66225866D01*
X158571428Y-66225866D02*
X158523809Y-66130628D01*
X158523809Y-66130628D02*
X158523809Y-66083009D01*
X158523809Y-66083009D02*
X158571428Y-65987771D01*
X158571428Y-65987771D02*
X158666666Y-65940152D01*
X158666666Y-65940152D02*
X158809523Y-65940152D01*
X158809523Y-65940152D02*
X158904761Y-65987771D01*
X159238095Y-65940152D02*
X159619047Y-65940152D01*
X159380952Y-65606819D02*
X159380952Y-66463961D01*
X159380952Y-66463961D02*
X159428571Y-66559200D01*
X159428571Y-66559200D02*
X159523809Y-66606819D01*
X159523809Y-66606819D02*
X159619047Y-66606819D01*
X160476190Y-66606819D02*
X159904762Y-66606819D01*
X160190476Y-66606819D02*
X160190476Y-65606819D01*
X160190476Y-65606819D02*
X160095238Y-65749676D01*
X160095238Y-65749676D02*
X160000000Y-65844914D01*
X160000000Y-65844914D02*
X159904762Y-65892533D01*
X118083333Y-84859580D02*
X118035714Y-84907200D01*
X118035714Y-84907200D02*
X117892857Y-84954819D01*
X117892857Y-84954819D02*
X117797619Y-84954819D01*
X117797619Y-84954819D02*
X117654762Y-84907200D01*
X117654762Y-84907200D02*
X117559524Y-84811961D01*
X117559524Y-84811961D02*
X117511905Y-84716723D01*
X117511905Y-84716723D02*
X117464286Y-84526247D01*
X117464286Y-84526247D02*
X117464286Y-84383390D01*
X117464286Y-84383390D02*
X117511905Y-84192914D01*
X117511905Y-84192914D02*
X117559524Y-84097676D01*
X117559524Y-84097676D02*
X117654762Y-84002438D01*
X117654762Y-84002438D02*
X117797619Y-83954819D01*
X117797619Y-83954819D02*
X117892857Y-83954819D01*
X117892857Y-83954819D02*
X118035714Y-84002438D01*
X118035714Y-84002438D02*
X118083333Y-84050057D01*
X118988095Y-83954819D02*
X118511905Y-83954819D01*
X118511905Y-83954819D02*
X118464286Y-84431009D01*
X118464286Y-84431009D02*
X118511905Y-84383390D01*
X118511905Y-84383390D02*
X118607143Y-84335771D01*
X118607143Y-84335771D02*
X118845238Y-84335771D01*
X118845238Y-84335771D02*
X118940476Y-84383390D01*
X118940476Y-84383390D02*
X118988095Y-84431009D01*
X118988095Y-84431009D02*
X119035714Y-84526247D01*
X119035714Y-84526247D02*
X119035714Y-84764342D01*
X119035714Y-84764342D02*
X118988095Y-84859580D01*
X118988095Y-84859580D02*
X118940476Y-84907200D01*
X118940476Y-84907200D02*
X118845238Y-84954819D01*
X118845238Y-84954819D02*
X118607143Y-84954819D01*
X118607143Y-84954819D02*
X118511905Y-84907200D01*
X118511905Y-84907200D02*
X118464286Y-84859580D01*
X116842565Y-111222862D02*
X117652088Y-111222862D01*
X117652088Y-111222862D02*
X117747326Y-111175243D01*
X117747326Y-111175243D02*
X117794946Y-111127624D01*
X117794946Y-111127624D02*
X117842565Y-111032386D01*
X117842565Y-111032386D02*
X117842565Y-110841910D01*
X117842565Y-110841910D02*
X117794946Y-110746672D01*
X117794946Y-110746672D02*
X117747326Y-110699053D01*
X117747326Y-110699053D02*
X117652088Y-110651434D01*
X117652088Y-110651434D02*
X116842565Y-110651434D01*
X116842565Y-110270481D02*
X116842565Y-109603815D01*
X116842565Y-109603815D02*
X117842565Y-110032386D01*
X185928571Y-93454819D02*
X185452381Y-93454819D01*
X185452381Y-93454819D02*
X185452381Y-92454819D01*
X186738095Y-93454819D02*
X186261905Y-93454819D01*
X186261905Y-93454819D02*
X186261905Y-92454819D01*
X187595238Y-93454819D02*
X187023810Y-93454819D01*
X187309524Y-93454819D02*
X187309524Y-92454819D01*
X187309524Y-92454819D02*
X187214286Y-92597676D01*
X187214286Y-92597676D02*
X187119048Y-92692914D01*
X187119048Y-92692914D02*
X187023810Y-92740533D01*
X156454819Y-108511904D02*
X157264342Y-108511904D01*
X157264342Y-108511904D02*
X157359580Y-108464285D01*
X157359580Y-108464285D02*
X157407200Y-108416666D01*
X157407200Y-108416666D02*
X157454819Y-108321428D01*
X157454819Y-108321428D02*
X157454819Y-108130952D01*
X157454819Y-108130952D02*
X157407200Y-108035714D01*
X157407200Y-108035714D02*
X157359580Y-107988095D01*
X157359580Y-107988095D02*
X157264342Y-107940476D01*
X157264342Y-107940476D02*
X156454819Y-107940476D01*
X156454819Y-107035714D02*
X156454819Y-107226190D01*
X156454819Y-107226190D02*
X156502438Y-107321428D01*
X156502438Y-107321428D02*
X156550057Y-107369047D01*
X156550057Y-107369047D02*
X156692914Y-107464285D01*
X156692914Y-107464285D02*
X156883390Y-107511904D01*
X156883390Y-107511904D02*
X157264342Y-107511904D01*
X157264342Y-107511904D02*
X157359580Y-107464285D01*
X157359580Y-107464285D02*
X157407200Y-107416666D01*
X157407200Y-107416666D02*
X157454819Y-107321428D01*
X157454819Y-107321428D02*
X157454819Y-107130952D01*
X157454819Y-107130952D02*
X157407200Y-107035714D01*
X157407200Y-107035714D02*
X157359580Y-106988095D01*
X157359580Y-106988095D02*
X157264342Y-106940476D01*
X157264342Y-106940476D02*
X157026247Y-106940476D01*
X157026247Y-106940476D02*
X156931009Y-106988095D01*
X156931009Y-106988095D02*
X156883390Y-107035714D01*
X156883390Y-107035714D02*
X156835771Y-107130952D01*
X156835771Y-107130952D02*
X156835771Y-107321428D01*
X156835771Y-107321428D02*
X156883390Y-107416666D01*
X156883390Y-107416666D02*
X156931009Y-107464285D01*
X156931009Y-107464285D02*
X157026247Y-107511904D01*
X118093333Y-71439580D02*
X118045714Y-71487200D01*
X118045714Y-71487200D02*
X117902857Y-71534819D01*
X117902857Y-71534819D02*
X117807619Y-71534819D01*
X117807619Y-71534819D02*
X117664762Y-71487200D01*
X117664762Y-71487200D02*
X117569524Y-71391961D01*
X117569524Y-71391961D02*
X117521905Y-71296723D01*
X117521905Y-71296723D02*
X117474286Y-71106247D01*
X117474286Y-71106247D02*
X117474286Y-70963390D01*
X117474286Y-70963390D02*
X117521905Y-70772914D01*
X117521905Y-70772914D02*
X117569524Y-70677676D01*
X117569524Y-70677676D02*
X117664762Y-70582438D01*
X117664762Y-70582438D02*
X117807619Y-70534819D01*
X117807619Y-70534819D02*
X117902857Y-70534819D01*
X117902857Y-70534819D02*
X118045714Y-70582438D01*
X118045714Y-70582438D02*
X118093333Y-70630057D01*
X118426667Y-70534819D02*
X119093333Y-70534819D01*
X119093333Y-70534819D02*
X118664762Y-71534819D01*
X121704819Y-78011904D02*
X122514342Y-78011904D01*
X122514342Y-78011904D02*
X122609580Y-77964285D01*
X122609580Y-77964285D02*
X122657200Y-77916666D01*
X122657200Y-77916666D02*
X122704819Y-77821428D01*
X122704819Y-77821428D02*
X122704819Y-77630952D01*
X122704819Y-77630952D02*
X122657200Y-77535714D01*
X122657200Y-77535714D02*
X122609580Y-77488095D01*
X122609580Y-77488095D02*
X122514342Y-77440476D01*
X122514342Y-77440476D02*
X121704819Y-77440476D01*
X121800057Y-77011904D02*
X121752438Y-76964285D01*
X121752438Y-76964285D02*
X121704819Y-76869047D01*
X121704819Y-76869047D02*
X121704819Y-76630952D01*
X121704819Y-76630952D02*
X121752438Y-76535714D01*
X121752438Y-76535714D02*
X121800057Y-76488095D01*
X121800057Y-76488095D02*
X121895295Y-76440476D01*
X121895295Y-76440476D02*
X121990533Y-76440476D01*
X121990533Y-76440476D02*
X122133390Y-76488095D01*
X122133390Y-76488095D02*
X122704819Y-77059523D01*
X122704819Y-77059523D02*
X122704819Y-76440476D01*
X120954819Y-91261904D02*
X121764342Y-91261904D01*
X121764342Y-91261904D02*
X121859580Y-91214285D01*
X121859580Y-91214285D02*
X121907200Y-91166666D01*
X121907200Y-91166666D02*
X121954819Y-91071428D01*
X121954819Y-91071428D02*
X121954819Y-90880952D01*
X121954819Y-90880952D02*
X121907200Y-90785714D01*
X121907200Y-90785714D02*
X121859580Y-90738095D01*
X121859580Y-90738095D02*
X121764342Y-90690476D01*
X121764342Y-90690476D02*
X120954819Y-90690476D01*
X120954819Y-90309523D02*
X120954819Y-89690476D01*
X120954819Y-89690476D02*
X121335771Y-90023809D01*
X121335771Y-90023809D02*
X121335771Y-89880952D01*
X121335771Y-89880952D02*
X121383390Y-89785714D01*
X121383390Y-89785714D02*
X121431009Y-89738095D01*
X121431009Y-89738095D02*
X121526247Y-89690476D01*
X121526247Y-89690476D02*
X121764342Y-89690476D01*
X121764342Y-89690476D02*
X121859580Y-89738095D01*
X121859580Y-89738095D02*
X121907200Y-89785714D01*
X121907200Y-89785714D02*
X121954819Y-89880952D01*
X121954819Y-89880952D02*
X121954819Y-90166666D01*
X121954819Y-90166666D02*
X121907200Y-90261904D01*
X121907200Y-90261904D02*
X121859580Y-90309523D01*
X142880952Y-69006819D02*
X142404762Y-69006819D01*
X142404762Y-69006819D02*
X142404762Y-68006819D01*
X143214286Y-69006819D02*
X143214286Y-68006819D01*
X143642857Y-69006819D02*
X143642857Y-68483009D01*
X143642857Y-68483009D02*
X143595238Y-68387771D01*
X143595238Y-68387771D02*
X143500000Y-68340152D01*
X143500000Y-68340152D02*
X143357143Y-68340152D01*
X143357143Y-68340152D02*
X143261905Y-68387771D01*
X143261905Y-68387771D02*
X143214286Y-68435390D01*
X144642857Y-69006819D02*
X144071429Y-69006819D01*
X144357143Y-69006819D02*
X144357143Y-68006819D01*
X144357143Y-68006819D02*
X144261905Y-68149676D01*
X144261905Y-68149676D02*
X144166667Y-68244914D01*
X144166667Y-68244914D02*
X144071429Y-68292533D01*
X161204819Y-79011904D02*
X162014342Y-79011904D01*
X162014342Y-79011904D02*
X162109580Y-78964285D01*
X162109580Y-78964285D02*
X162157200Y-78916666D01*
X162157200Y-78916666D02*
X162204819Y-78821428D01*
X162204819Y-78821428D02*
X162204819Y-78630952D01*
X162204819Y-78630952D02*
X162157200Y-78535714D01*
X162157200Y-78535714D02*
X162109580Y-78488095D01*
X162109580Y-78488095D02*
X162014342Y-78440476D01*
X162014342Y-78440476D02*
X161204819Y-78440476D01*
X161538152Y-77535714D02*
X162204819Y-77535714D01*
X161157200Y-77773809D02*
X161871485Y-78011904D01*
X161871485Y-78011904D02*
X161871485Y-77392857D01*
X108928571Y-112756819D02*
X108928571Y-111756819D01*
X108928571Y-111756819D02*
X109309523Y-111756819D01*
X109309523Y-111756819D02*
X109404761Y-111804438D01*
X109404761Y-111804438D02*
X109452380Y-111852057D01*
X109452380Y-111852057D02*
X109499999Y-111947295D01*
X109499999Y-111947295D02*
X109499999Y-112090152D01*
X109499999Y-112090152D02*
X109452380Y-112185390D01*
X109452380Y-112185390D02*
X109404761Y-112233009D01*
X109404761Y-112233009D02*
X109309523Y-112280628D01*
X109309523Y-112280628D02*
X108928571Y-112280628D01*
X109833333Y-112090152D02*
X110023809Y-112756819D01*
X110023809Y-112756819D02*
X110214285Y-112280628D01*
X110214285Y-112280628D02*
X110404761Y-112756819D01*
X110404761Y-112756819D02*
X110595237Y-112090152D01*
X110976190Y-112756819D02*
X110976190Y-112090152D01*
X110976190Y-112280628D02*
X111023809Y-112185390D01*
X111023809Y-112185390D02*
X111071428Y-112137771D01*
X111071428Y-112137771D02*
X111166666Y-112090152D01*
X111166666Y-112090152D02*
X111261904Y-112090152D01*
X112119047Y-112756819D02*
X111547619Y-112756819D01*
X111833333Y-112756819D02*
X111833333Y-111756819D01*
X111833333Y-111756819D02*
X111738095Y-111899676D01*
X111738095Y-111899676D02*
X111642857Y-111994914D01*
X111642857Y-111994914D02*
X111547619Y-112042533D01*
X120833333Y-121098590D02*
X120785714Y-121146210D01*
X120785714Y-121146210D02*
X120642857Y-121193829D01*
X120642857Y-121193829D02*
X120547619Y-121193829D01*
X120547619Y-121193829D02*
X120404762Y-121146210D01*
X120404762Y-121146210D02*
X120309524Y-121050971D01*
X120309524Y-121050971D02*
X120261905Y-120955733D01*
X120261905Y-120955733D02*
X120214286Y-120765257D01*
X120214286Y-120765257D02*
X120214286Y-120622400D01*
X120214286Y-120622400D02*
X120261905Y-120431924D01*
X120261905Y-120431924D02*
X120309524Y-120336686D01*
X120309524Y-120336686D02*
X120404762Y-120241448D01*
X120404762Y-120241448D02*
X120547619Y-120193829D01*
X120547619Y-120193829D02*
X120642857Y-120193829D01*
X120642857Y-120193829D02*
X120785714Y-120241448D01*
X120785714Y-120241448D02*
X120833333Y-120289067D01*
X121785714Y-121193829D02*
X121214286Y-121193829D01*
X121500000Y-121193829D02*
X121500000Y-120193829D01*
X121500000Y-120193829D02*
X121404762Y-120336686D01*
X121404762Y-120336686D02*
X121309524Y-120431924D01*
X121309524Y-120431924D02*
X121214286Y-120479543D01*
D13*
%TO.C,C3*%
X110880000Y-103105735D02*
X116120000Y-103105735D01*
X110880000Y-103442735D02*
X110880000Y-103105735D01*
X110880000Y-105845735D02*
X110880000Y-105508735D01*
X116120000Y-103105735D02*
X116120000Y-103442735D01*
X116120000Y-105508735D02*
X116120000Y-105845735D01*
X116120000Y-105845735D02*
X110880000Y-105845735D01*
D10*
%TO.C,kibuzzard-691DD7C3*%
G36*
X122055000Y-38400000D02*
G01*
X121722143Y-38400000D01*
X121606429Y-38400000D01*
X121606429Y-38285714D01*
X121722143Y-38285714D01*
X121940714Y-38285714D01*
X121940714Y-38092857D01*
X121722143Y-38092857D01*
X121722143Y-38285714D01*
X121606429Y-38285714D01*
X121606429Y-37980000D01*
X122055000Y-37980000D01*
X122055000Y-38400000D01*
G37*
G36*
X115520714Y-36831429D02*
G01*
X115520714Y-37520000D01*
X114705000Y-37520000D01*
X114599286Y-37520000D01*
X114599286Y-36891429D01*
X114705000Y-36891429D01*
X114705000Y-37408571D01*
X115410714Y-37408571D01*
X115410714Y-36891429D01*
X115323571Y-36804286D01*
X114792143Y-36804286D01*
X114705000Y-36891429D01*
X114599286Y-36891429D01*
X114599286Y-36831429D01*
X114743571Y-36687143D01*
X115376429Y-36687143D01*
X115520714Y-36831429D01*
G37*
G36*
X117349286Y-36834286D02*
G01*
X117349286Y-37335714D01*
X117177857Y-37505714D01*
X116560714Y-37505714D01*
X116449286Y-37505714D01*
X116449286Y-37398571D01*
X116560714Y-37398571D01*
X117119286Y-37398571D01*
X117235000Y-37284286D01*
X117235000Y-36891429D01*
X117147857Y-36804286D01*
X116560714Y-36804286D01*
X116560714Y-37398571D01*
X116449286Y-37398571D01*
X116449286Y-36691429D01*
X117205000Y-36691429D01*
X117349286Y-36834286D01*
G37*
G36*
X119146429Y-36834286D02*
G01*
X119146429Y-37335714D01*
X118975000Y-37505714D01*
X118357857Y-37505714D01*
X118246429Y-37505714D01*
X118246429Y-37398571D01*
X118357857Y-37398571D01*
X118916429Y-37398571D01*
X119032143Y-37284286D01*
X119032143Y-36891429D01*
X118945000Y-36804286D01*
X118357857Y-36804286D01*
X118357857Y-37398571D01*
X118246429Y-37398571D01*
X118246429Y-36691429D01*
X119002143Y-36691429D01*
X119146429Y-36834286D01*
G37*
G36*
X117637857Y-36694286D02*
G01*
X117637857Y-37481429D01*
X117316429Y-37802857D01*
X116560714Y-37802857D01*
X116560714Y-38400000D01*
X116265000Y-38400000D01*
X116156429Y-38400000D01*
X116156429Y-38302857D01*
X116265000Y-38302857D01*
X116449286Y-38302857D01*
X116449286Y-37688571D01*
X117267857Y-37688571D01*
X117532143Y-37422857D01*
X117532143Y-36745714D01*
X117293571Y-36507143D01*
X116265000Y-36507143D01*
X116265000Y-38302857D01*
X116156429Y-38302857D01*
X116156429Y-36400000D01*
X117343571Y-36400000D01*
X117637857Y-36694286D01*
G37*
G36*
X119435000Y-36694286D02*
G01*
X119435000Y-37481429D01*
X119113571Y-37802857D01*
X118357857Y-37802857D01*
X118357857Y-38400000D01*
X118062143Y-38400000D01*
X117953571Y-38400000D01*
X117953571Y-38302857D01*
X118062143Y-38302857D01*
X118246429Y-38302857D01*
X118246429Y-37688571D01*
X119065000Y-37688571D01*
X119329286Y-37422857D01*
X119329286Y-36745714D01*
X119090714Y-36507143D01*
X118062143Y-36507143D01*
X118062143Y-38302857D01*
X117953571Y-38302857D01*
X117953571Y-36400000D01*
X119140714Y-36400000D01*
X119435000Y-36694286D01*
G37*
G36*
X115813571Y-36694286D02*
G01*
X115813571Y-38400000D01*
X115410714Y-38400000D01*
X115410714Y-37811429D01*
X114705000Y-37811429D01*
X114705000Y-38400000D01*
X114416429Y-38400000D01*
X114302143Y-38400000D01*
X114302143Y-36742857D01*
X114416429Y-36742857D01*
X114416429Y-38281429D01*
X114599286Y-38281429D01*
X114599286Y-37704286D01*
X115520714Y-37704286D01*
X115520714Y-38281429D01*
X115705000Y-38281429D01*
X115705000Y-36742857D01*
X115465000Y-36504286D01*
X114655000Y-36504286D01*
X114416429Y-36742857D01*
X114302143Y-36742857D01*
X114302143Y-36694286D01*
X114596429Y-36400000D01*
X115519286Y-36400000D01*
X115813571Y-36694286D01*
G37*
G36*
X108349286Y-37908571D02*
G01*
X108436429Y-37995714D01*
X109022143Y-37995714D01*
X109109286Y-37908571D01*
X109109286Y-36400000D01*
X109513571Y-36400000D01*
X109513571Y-38105714D01*
X109219286Y-38400000D01*
X108295000Y-38400000D01*
X108239286Y-38400000D01*
X107945000Y-38105714D01*
X107945000Y-38052857D01*
X108055000Y-38052857D01*
X108295000Y-38290000D01*
X109165000Y-38290000D01*
X109403571Y-38052857D01*
X109403571Y-36507143D01*
X109220714Y-36507143D01*
X109220714Y-37964286D01*
X109075000Y-38105714D01*
X108385000Y-38105714D01*
X108239286Y-37964286D01*
X108239286Y-36507143D01*
X108055000Y-36507143D01*
X108055000Y-38052857D01*
X107945000Y-38052857D01*
X107945000Y-36400000D01*
X108349286Y-36400000D01*
X108349286Y-37908571D01*
G37*
G36*
X112023571Y-37908571D02*
G01*
X112110714Y-37995714D01*
X112696429Y-37995714D01*
X112783571Y-37908571D01*
X112783571Y-36400000D01*
X113187857Y-36400000D01*
X113187857Y-38105714D01*
X112893571Y-38400000D01*
X111969286Y-38400000D01*
X111913571Y-38400000D01*
X111619286Y-38105714D01*
X111619286Y-38052857D01*
X111729286Y-38052857D01*
X111969286Y-38290000D01*
X112839286Y-38290000D01*
X113077857Y-38052857D01*
X113077857Y-36507143D01*
X112895000Y-36507143D01*
X112895000Y-37964286D01*
X112749286Y-38105714D01*
X112059286Y-38105714D01*
X111913571Y-37964286D01*
X111913571Y-36507143D01*
X111729286Y-36507143D01*
X111729286Y-38052857D01*
X111619286Y-38052857D01*
X111619286Y-36400000D01*
X112023571Y-36400000D01*
X112023571Y-37908571D01*
G37*
G36*
X111305000Y-36694286D02*
G01*
X111305000Y-37154286D01*
X110900714Y-37154286D01*
X110900714Y-36891429D01*
X110813571Y-36804286D01*
X110319286Y-36804286D01*
X110232143Y-36891429D01*
X110232143Y-37908571D01*
X110319286Y-37995714D01*
X110813571Y-37995714D01*
X110900714Y-37908571D01*
X110900714Y-37645714D01*
X111305000Y-37645714D01*
X111305000Y-38105714D01*
X111009286Y-38400000D01*
X110176429Y-38400000D01*
X110122143Y-38400000D01*
X109827857Y-38105714D01*
X109827857Y-36745714D01*
X109937857Y-36745714D01*
X109937857Y-38050000D01*
X110176429Y-38288571D01*
X110956429Y-38288571D01*
X111195000Y-38050000D01*
X111195000Y-37744286D01*
X111012143Y-37744286D01*
X111012143Y-37961429D01*
X110866429Y-38105714D01*
X110266429Y-38105714D01*
X110120714Y-37961429D01*
X110120714Y-36834286D01*
X110266429Y-36691429D01*
X110866429Y-36691429D01*
X111012143Y-36834286D01*
X111012143Y-37051429D01*
X111195000Y-37051429D01*
X111195000Y-36745714D01*
X110956429Y-36507143D01*
X110176429Y-36507143D01*
X109937857Y-36745714D01*
X109827857Y-36745714D01*
X109827857Y-36694286D01*
X110122143Y-36400000D01*
X111009286Y-36400000D01*
X111305000Y-36694286D01*
G37*
G36*
X121240714Y-36694286D02*
G01*
X121240714Y-37054286D01*
X120836429Y-37054286D01*
X120836429Y-36891429D01*
X120749286Y-36804286D01*
X120236429Y-36804286D01*
X120147857Y-36891429D01*
X120147857Y-37110000D01*
X120236429Y-37197143D01*
X120973571Y-37197143D01*
X121267857Y-37491429D01*
X121267857Y-38105714D01*
X120973571Y-38400000D01*
X120082143Y-38400000D01*
X120030714Y-38400000D01*
X119736429Y-38105714D01*
X119736429Y-37847143D01*
X119850714Y-37847143D01*
X119850714Y-38058571D01*
X120082143Y-38290000D01*
X120915000Y-38290000D01*
X121153571Y-38051429D01*
X121153571Y-37531429D01*
X120929286Y-37305714D01*
X120185000Y-37305714D01*
X120039286Y-37161429D01*
X120039286Y-36837143D01*
X120183571Y-36694286D01*
X120807857Y-36694286D01*
X120946429Y-36830000D01*
X120946429Y-36952857D01*
X121129286Y-36952857D01*
X121129286Y-36741429D01*
X120897857Y-36510000D01*
X120093571Y-36510000D01*
X119855000Y-36748571D01*
X119855000Y-37248571D01*
X120096429Y-37491429D01*
X120839286Y-37491429D01*
X120969286Y-37617143D01*
X120969286Y-37962857D01*
X120825000Y-38107143D01*
X120172143Y-38107143D01*
X120035000Y-37970000D01*
X120035000Y-37847143D01*
X119850714Y-37847143D01*
X119736429Y-37847143D01*
X119736429Y-37745714D01*
X120140714Y-37745714D01*
X120140714Y-37908571D01*
X120227857Y-37995714D01*
X120776429Y-37995714D01*
X120863571Y-37908571D01*
X120863571Y-37688571D01*
X120776429Y-37601429D01*
X120039286Y-37601429D01*
X119745000Y-37307143D01*
X119745000Y-36694286D01*
X120039286Y-36400000D01*
X120946429Y-36400000D01*
X121240714Y-36694286D01*
G37*
D13*
%TO.C,C2*%
X150730000Y-103125735D02*
X155970000Y-103125735D01*
X150730000Y-103462735D02*
X150730000Y-103125735D01*
X150730000Y-105865735D02*
X150730000Y-105528735D01*
X155970000Y-103125735D02*
X155970000Y-103462735D01*
X155970000Y-105528735D02*
X155970000Y-105865735D01*
X155970000Y-105865735D02*
X150730000Y-105865735D01*
%TO.C,Inc1*%
X186700000Y-86500000D02*
G75*
G02*
X185300000Y-86500000I-700000J0D01*
G01*
X185300000Y-86500000D02*
G75*
G02*
X186700000Y-86500000I700000J0D01*
G01*
%TO.C,C8*%
X187380000Y-113680000D02*
X192620000Y-113680000D01*
X187380000Y-114017000D02*
X187380000Y-113680000D01*
X187380000Y-116420000D02*
X187380000Y-116083000D01*
X192620000Y-113680000D02*
X192620000Y-114017000D01*
X192620000Y-116083000D02*
X192620000Y-116420000D01*
X192620000Y-116420000D02*
X187380000Y-116420000D01*
D10*
%TO.C,kibuzzard-691DF60A*%
G36*
X184100714Y-49456429D02*
G01*
X184100714Y-50145000D01*
X183285000Y-50145000D01*
X183179286Y-50145000D01*
X183179286Y-49516429D01*
X183285000Y-49516429D01*
X183285000Y-50033571D01*
X183990714Y-50033571D01*
X183990714Y-49516429D01*
X183903571Y-49429286D01*
X183372143Y-49429286D01*
X183285000Y-49516429D01*
X183179286Y-49516429D01*
X183179286Y-49456429D01*
X183323571Y-49312143D01*
X183956429Y-49312143D01*
X184100714Y-49456429D01*
G37*
G36*
X190346429Y-49459286D02*
G01*
X190346429Y-49960714D01*
X190175000Y-50130714D01*
X189557857Y-50130714D01*
X189446429Y-50130714D01*
X189446429Y-50023571D01*
X189557857Y-50023571D01*
X190116429Y-50023571D01*
X190232143Y-49909286D01*
X190232143Y-49516429D01*
X190145000Y-49429286D01*
X189557857Y-49429286D01*
X189557857Y-50023571D01*
X189446429Y-50023571D01*
X189446429Y-49316429D01*
X190202143Y-49316429D01*
X190346429Y-49459286D01*
G37*
G36*
X200889286Y-49460714D02*
G01*
X200889286Y-49835000D01*
X200713571Y-49989286D01*
X200063571Y-49989286D01*
X199953571Y-49989286D01*
X199953571Y-49885000D01*
X200063571Y-49885000D01*
X200695000Y-49885000D01*
X200782143Y-49796429D01*
X200782143Y-49516429D01*
X200695000Y-49429286D01*
X200063571Y-49429286D01*
X200063571Y-49885000D01*
X199953571Y-49885000D01*
X199953571Y-49316429D01*
X200745000Y-49316429D01*
X200889286Y-49460714D01*
G37*
G36*
X182610714Y-49429286D02*
G01*
X182115000Y-49429286D01*
X182115000Y-51025000D01*
X181822143Y-51025000D01*
X181712143Y-51025000D01*
X181712143Y-49429286D01*
X181216429Y-49429286D01*
X181216429Y-49316429D01*
X181322143Y-49316429D01*
X181822143Y-49316429D01*
X181822143Y-50917857D01*
X182005000Y-50917857D01*
X182005000Y-49316429D01*
X182505000Y-49316429D01*
X182505000Y-49132143D01*
X181322143Y-49132143D01*
X181322143Y-49316429D01*
X181216429Y-49316429D01*
X181216429Y-49025000D01*
X182610714Y-49025000D01*
X182610714Y-49429286D01*
G37*
G36*
X190635000Y-49319286D02*
G01*
X190635000Y-50106429D01*
X190313571Y-50427857D01*
X189557857Y-50427857D01*
X189557857Y-51025000D01*
X189262143Y-51025000D01*
X189153571Y-51025000D01*
X189153571Y-50927857D01*
X189262143Y-50927857D01*
X189446429Y-50927857D01*
X189446429Y-50313571D01*
X190265000Y-50313571D01*
X190529286Y-50047857D01*
X190529286Y-49370714D01*
X190290714Y-49132143D01*
X189262143Y-49132143D01*
X189262143Y-50927857D01*
X189153571Y-50927857D01*
X189153571Y-49025000D01*
X190340714Y-49025000D01*
X190635000Y-49319286D01*
G37*
G36*
X192473571Y-49319286D02*
G01*
X192473571Y-50730714D01*
X192179286Y-51025000D01*
X191287857Y-51025000D01*
X191230714Y-51025000D01*
X190936429Y-50730714D01*
X190936429Y-49370714D01*
X191049286Y-49370714D01*
X191049286Y-50672143D01*
X191287857Y-50910714D01*
X192123571Y-50910714D01*
X192363571Y-50672143D01*
X192363571Y-49370714D01*
X192123571Y-49132143D01*
X191287857Y-49132143D01*
X191049286Y-49370714D01*
X190936429Y-49370714D01*
X190936429Y-49319286D01*
X191230714Y-49025000D01*
X192179286Y-49025000D01*
X192473571Y-49319286D01*
G37*
G36*
X192179286Y-49459286D02*
G01*
X192179286Y-50583571D01*
X192035000Y-50727857D01*
X191427857Y-50727857D01*
X191377857Y-50727857D01*
X191232143Y-50583571D01*
X191232143Y-49516429D01*
X191340714Y-49516429D01*
X191340714Y-50533571D01*
X191427857Y-50620714D01*
X191982143Y-50620714D01*
X192069286Y-50533571D01*
X192069286Y-49516429D01*
X191982143Y-49429286D01*
X191427857Y-49429286D01*
X191340714Y-49516429D01*
X191232143Y-49516429D01*
X191232143Y-49459286D01*
X191377857Y-49316429D01*
X192035000Y-49316429D01*
X192179286Y-49459286D01*
G37*
G36*
X197745000Y-49429286D02*
G01*
X197249286Y-49429286D01*
X197249286Y-51025000D01*
X196956429Y-51025000D01*
X196846429Y-51025000D01*
X196846429Y-49429286D01*
X196350714Y-49429286D01*
X196350714Y-49316429D01*
X196456429Y-49316429D01*
X196956429Y-49316429D01*
X196956429Y-50917857D01*
X197139286Y-50917857D01*
X197139286Y-49316429D01*
X197639286Y-49316429D01*
X197639286Y-49132143D01*
X196456429Y-49132143D01*
X196456429Y-49316429D01*
X196350714Y-49316429D01*
X196350714Y-49025000D01*
X197745000Y-49025000D01*
X197745000Y-49429286D01*
G37*
G36*
X184393571Y-49319286D02*
G01*
X184393571Y-51025000D01*
X183990714Y-51025000D01*
X183990714Y-50436429D01*
X183285000Y-50436429D01*
X183285000Y-51025000D01*
X182996429Y-51025000D01*
X182882143Y-51025000D01*
X182882143Y-49367857D01*
X182996429Y-49367857D01*
X182996429Y-50906429D01*
X183179286Y-50906429D01*
X183179286Y-50329286D01*
X184100714Y-50329286D01*
X184100714Y-50906429D01*
X184285000Y-50906429D01*
X184285000Y-49367857D01*
X184045000Y-49129286D01*
X183235000Y-49129286D01*
X182996429Y-49367857D01*
X182882143Y-49367857D01*
X182882143Y-49319286D01*
X183176429Y-49025000D01*
X184099286Y-49025000D01*
X184393571Y-49319286D01*
G37*
G36*
X193986429Y-49429286D02*
G01*
X193596429Y-49429286D01*
X193596429Y-50620714D01*
X193986429Y-50620714D01*
X193986429Y-51025000D01*
X192912143Y-51025000D01*
X192802143Y-51025000D01*
X192802143Y-50620714D01*
X193193571Y-50620714D01*
X193193571Y-49429286D01*
X192802143Y-49429286D01*
X192802143Y-49316429D01*
X192912143Y-49316429D01*
X193296429Y-49316429D01*
X193296429Y-50732143D01*
X192912143Y-50732143D01*
X192912143Y-50915000D01*
X193877857Y-50915000D01*
X193877857Y-50732143D01*
X193479286Y-50732143D01*
X193479286Y-49316429D01*
X193877857Y-49316429D01*
X193877857Y-49132143D01*
X192912143Y-49132143D01*
X192912143Y-49316429D01*
X192802143Y-49316429D01*
X192802143Y-49025000D01*
X193986429Y-49025000D01*
X193986429Y-49429286D01*
G37*
G36*
X195599286Y-50615000D02*
G01*
X195660714Y-50615000D01*
X195660714Y-49025000D01*
X196065000Y-49025000D01*
X196065000Y-51025000D01*
X195289286Y-51025000D01*
X194792143Y-49430714D01*
X194733571Y-49430714D01*
X194733571Y-51025000D01*
X194439286Y-51025000D01*
X194329286Y-51025000D01*
X194329286Y-49136429D01*
X194439286Y-49136429D01*
X194439286Y-50917857D01*
X194622143Y-50917857D01*
X194622143Y-49322143D01*
X194870714Y-49322143D01*
X195383571Y-50915000D01*
X195956429Y-50915000D01*
X195956429Y-49132143D01*
X195773571Y-49132143D01*
X195773571Y-50727857D01*
X195523571Y-50727857D01*
X195013571Y-49136429D01*
X194439286Y-49136429D01*
X194329286Y-49136429D01*
X194329286Y-49025000D01*
X195105000Y-49025000D01*
X195599286Y-50615000D01*
G37*
G36*
X199316429Y-49429286D02*
G01*
X198420714Y-49429286D01*
X198420714Y-49813571D01*
X199217857Y-49813571D01*
X199217857Y-50217857D01*
X198420714Y-50217857D01*
X198420714Y-50620714D01*
X199316429Y-50620714D01*
X199316429Y-51025000D01*
X198129286Y-51025000D01*
X198016429Y-51025000D01*
X198016429Y-50910714D01*
X198129286Y-50910714D01*
X199219286Y-50910714D01*
X199219286Y-50727857D01*
X198313571Y-50727857D01*
X198313571Y-50106429D01*
X199119286Y-50106429D01*
X199119286Y-49923571D01*
X198313571Y-49923571D01*
X198313571Y-49316429D01*
X199219286Y-49316429D01*
X199219286Y-49132143D01*
X198129286Y-49132143D01*
X198129286Y-50910714D01*
X198016429Y-50910714D01*
X198016429Y-49025000D01*
X199316429Y-49025000D01*
X199316429Y-49429286D01*
G37*
G36*
X201186429Y-49319286D02*
G01*
X201186429Y-49939286D01*
X201012143Y-50099286D01*
X201186429Y-50289286D01*
X201186429Y-51025000D01*
X200782143Y-51025000D01*
X200782143Y-50432143D01*
X200639286Y-50289286D01*
X200063571Y-50289286D01*
X200063571Y-51025000D01*
X199770714Y-51025000D01*
X199659286Y-51025000D01*
X199659286Y-50916429D01*
X199770714Y-50916429D01*
X199953571Y-50916429D01*
X199953571Y-50173571D01*
X200686429Y-50173571D01*
X200895000Y-50392143D01*
X200895000Y-50916429D01*
X201079286Y-50916429D01*
X201079286Y-50332143D01*
X200855000Y-50087857D01*
X201073571Y-49896429D01*
X201073571Y-49372143D01*
X200835000Y-49133571D01*
X199770714Y-49133571D01*
X199770714Y-50916429D01*
X199659286Y-50916429D01*
X199659286Y-49025000D01*
X200892143Y-49025000D01*
X201186429Y-49319286D01*
G37*
G36*
X186917857Y-49813571D02*
G01*
X187416429Y-49813571D01*
X187586429Y-49643571D01*
X187586429Y-49025000D01*
X187990714Y-49025000D01*
X187990714Y-49813571D01*
X187789286Y-50013571D01*
X187990714Y-50217857D01*
X187990714Y-51025000D01*
X187586429Y-51025000D01*
X187586429Y-50386429D01*
X187416429Y-50217857D01*
X186917857Y-50217857D01*
X186917857Y-51025000D01*
X186623571Y-51025000D01*
X186513571Y-51025000D01*
X186513571Y-50913571D01*
X186623571Y-50913571D01*
X186807857Y-50913571D01*
X186807857Y-50099286D01*
X187472143Y-50099286D01*
X187697857Y-50327857D01*
X187697857Y-50913571D01*
X187880714Y-50913571D01*
X187880714Y-50253571D01*
X187642143Y-50007857D01*
X187880714Y-49769286D01*
X187880714Y-49132143D01*
X187697857Y-49132143D01*
X187697857Y-49695000D01*
X187475000Y-49915000D01*
X186807857Y-49915000D01*
X186807857Y-49132143D01*
X186623571Y-49132143D01*
X186623571Y-50913571D01*
X186513571Y-50913571D01*
X186513571Y-49025000D01*
X186917857Y-49025000D01*
X186917857Y-49813571D01*
G37*
G36*
X186185000Y-49319286D02*
G01*
X186185000Y-49779286D01*
X185780714Y-49779286D01*
X185780714Y-49516429D01*
X185693571Y-49429286D01*
X185199286Y-49429286D01*
X185112143Y-49516429D01*
X185112143Y-50533571D01*
X185199286Y-50620714D01*
X185693571Y-50620714D01*
X185780714Y-50533571D01*
X185780714Y-50270714D01*
X186185000Y-50270714D01*
X186185000Y-50730714D01*
X185889286Y-51025000D01*
X185056429Y-51025000D01*
X185002143Y-51025000D01*
X184707857Y-50730714D01*
X184707857Y-49370714D01*
X184817857Y-49370714D01*
X184817857Y-50675000D01*
X185056429Y-50913571D01*
X185836429Y-50913571D01*
X186075000Y-50675000D01*
X186075000Y-50369286D01*
X185892143Y-50369286D01*
X185892143Y-50586429D01*
X185746429Y-50730714D01*
X185146429Y-50730714D01*
X185000714Y-50586429D01*
X185000714Y-49459286D01*
X185146429Y-49316429D01*
X185746429Y-49316429D01*
X185892143Y-49459286D01*
X185892143Y-49676429D01*
X186075000Y-49676429D01*
X186075000Y-49370714D01*
X185836429Y-49132143D01*
X185056429Y-49132143D01*
X184817857Y-49370714D01*
X184707857Y-49370714D01*
X184707857Y-49319286D01*
X185002143Y-49025000D01*
X185889286Y-49025000D01*
X186185000Y-49319286D01*
G37*
G36*
X180917857Y-49319286D02*
G01*
X180917857Y-49679286D01*
X180513571Y-49679286D01*
X180513571Y-49516429D01*
X180426429Y-49429286D01*
X179913571Y-49429286D01*
X179825000Y-49516429D01*
X179825000Y-49735000D01*
X179913571Y-49822143D01*
X180650714Y-49822143D01*
X180945000Y-50116429D01*
X180945000Y-50730714D01*
X180650714Y-51025000D01*
X179759286Y-51025000D01*
X179707857Y-51025000D01*
X179413571Y-50730714D01*
X179413571Y-50472143D01*
X179527857Y-50472143D01*
X179527857Y-50683571D01*
X179759286Y-50915000D01*
X180592143Y-50915000D01*
X180830714Y-50676429D01*
X180830714Y-50156429D01*
X180606429Y-49930714D01*
X179862143Y-49930714D01*
X179716429Y-49786429D01*
X179716429Y-49462143D01*
X179860714Y-49319286D01*
X180485000Y-49319286D01*
X180623571Y-49455000D01*
X180623571Y-49577857D01*
X180806429Y-49577857D01*
X180806429Y-49366429D01*
X180575000Y-49135000D01*
X179770714Y-49135000D01*
X179532143Y-49373571D01*
X179532143Y-49873571D01*
X179773571Y-50116429D01*
X180516429Y-50116429D01*
X180646429Y-50242143D01*
X180646429Y-50587857D01*
X180502143Y-50732143D01*
X179849286Y-50732143D01*
X179712143Y-50595000D01*
X179712143Y-50472143D01*
X179527857Y-50472143D01*
X179413571Y-50472143D01*
X179413571Y-50370714D01*
X179817857Y-50370714D01*
X179817857Y-50533571D01*
X179905000Y-50620714D01*
X180453571Y-50620714D01*
X180540714Y-50533571D01*
X180540714Y-50313571D01*
X180453571Y-50226429D01*
X179716429Y-50226429D01*
X179422143Y-49932143D01*
X179422143Y-49319286D01*
X179716429Y-49025000D01*
X180623571Y-49025000D01*
X180917857Y-49319286D01*
G37*
D13*
%TO.C,~{RL}1*%
X156450000Y-111250000D02*
G75*
G02*
X155050000Y-111250000I-700000J0D01*
G01*
X155050000Y-111250000D02*
G75*
G02*
X156450000Y-111250000I700000J0D01*
G01*
%TO.C,~{Clk}1*%
X193200000Y-120750000D02*
G75*
G02*
X191800000Y-120750000I-700000J0D01*
G01*
X191800000Y-120750000D02*
G75*
G02*
X193200000Y-120750000I700000J0D01*
G01*
%TO.C,Pls1*%
X202321000Y-113500000D02*
G75*
G02*
X200921000Y-113500000I-700000J0D01*
G01*
X200921000Y-113500000D02*
G75*
G02*
X202321000Y-113500000I700000J0D01*
G01*
%TO.C,Dcr1*%
X188700000Y-81500000D02*
G75*
G02*
X187300000Y-81500000I-700000J0D01*
G01*
X187300000Y-81500000D02*
G75*
G02*
X188700000Y-81500000I700000J0D01*
G01*
%TO.C,C4*%
X155590000Y-89010000D02*
X160830000Y-89010000D01*
X155590000Y-89347000D02*
X155590000Y-89010000D01*
X155590000Y-91750000D02*
X155590000Y-91413000D01*
X160830000Y-89010000D02*
X160830000Y-89347000D01*
X160830000Y-91413000D02*
X160830000Y-91750000D01*
X160830000Y-91750000D02*
X155590000Y-91750000D01*
D10*
%TO.C,kibuzzard-691DE1DA*%
G36*
X199242857Y-80577857D02*
G01*
X198974286Y-80577857D01*
X198821429Y-80425000D01*
X198821429Y-79879286D01*
X198932857Y-79879286D01*
X198932857Y-80372143D01*
X199020000Y-80459286D01*
X199134286Y-80459286D01*
X199134286Y-79850714D01*
X199074286Y-79790714D01*
X199020000Y-79790714D01*
X198932857Y-79879286D01*
X198821429Y-79879286D01*
X198821429Y-79829286D01*
X198967143Y-79682143D01*
X199118571Y-79682143D01*
X199242857Y-79806429D01*
X199242857Y-80459286D01*
X199242857Y-80577857D01*
G37*
G36*
X199242857Y-84097857D02*
G01*
X198974286Y-84097857D01*
X198821429Y-83945000D01*
X198821429Y-83399286D01*
X198932857Y-83399286D01*
X198932857Y-83892143D01*
X199020000Y-83979286D01*
X199134286Y-83979286D01*
X199134286Y-83370714D01*
X199074286Y-83310714D01*
X199020000Y-83310714D01*
X198932857Y-83399286D01*
X198821429Y-83399286D01*
X198821429Y-83349286D01*
X198967143Y-83202143D01*
X199118571Y-83202143D01*
X199242857Y-83326429D01*
X199242857Y-83979286D01*
X199242857Y-84097857D01*
G37*
G36*
X199242857Y-87617857D02*
G01*
X198974286Y-87617857D01*
X198821429Y-87465000D01*
X198821429Y-86919286D01*
X198932857Y-86919286D01*
X198932857Y-87412143D01*
X199020000Y-87499286D01*
X199134286Y-87499286D01*
X199134286Y-86890714D01*
X199074286Y-86830714D01*
X199020000Y-86830714D01*
X198932857Y-86919286D01*
X198821429Y-86919286D01*
X198821429Y-86869286D01*
X198967143Y-86722143D01*
X199118571Y-86722143D01*
X199242857Y-86846429D01*
X199242857Y-87499286D01*
X199242857Y-87617857D01*
G37*
G36*
X199781429Y-82125000D02*
G01*
X199628571Y-82279286D01*
X199008571Y-82279286D01*
X198817143Y-82086429D01*
X198817143Y-81669286D01*
X198931429Y-81669286D01*
X198931429Y-82053571D01*
X199047143Y-82167857D01*
X199580000Y-82167857D01*
X199667143Y-82080714D01*
X199667143Y-81669286D01*
X199580000Y-81582143D01*
X199020000Y-81582143D01*
X198931429Y-81669286D01*
X198817143Y-81669286D01*
X198817143Y-81613571D01*
X198954286Y-81473571D01*
X199628571Y-81473571D01*
X199781429Y-81627857D01*
X199781429Y-82080714D01*
X199781429Y-82125000D01*
G37*
G36*
X199781429Y-85645000D02*
G01*
X199628571Y-85799286D01*
X199008571Y-85799286D01*
X198817143Y-85606429D01*
X198817143Y-85189286D01*
X198931429Y-85189286D01*
X198931429Y-85573571D01*
X199047143Y-85687857D01*
X199580000Y-85687857D01*
X199667143Y-85600714D01*
X199667143Y-85189286D01*
X199580000Y-85102143D01*
X199020000Y-85102143D01*
X198931429Y-85189286D01*
X198817143Y-85189286D01*
X198817143Y-85133571D01*
X198954286Y-84993571D01*
X199628571Y-84993571D01*
X199781429Y-85147857D01*
X199781429Y-85600714D01*
X199781429Y-85645000D01*
G37*
G36*
X199781429Y-89165000D02*
G01*
X199628571Y-89319286D01*
X199008571Y-89319286D01*
X198817143Y-89126429D01*
X198817143Y-88709286D01*
X198931429Y-88709286D01*
X198931429Y-89093571D01*
X199047143Y-89207857D01*
X199580000Y-89207857D01*
X199667143Y-89120714D01*
X199667143Y-88709286D01*
X199580000Y-88622143D01*
X199020000Y-88622143D01*
X198931429Y-88709286D01*
X198817143Y-88709286D01*
X198817143Y-88653571D01*
X198954286Y-88513571D01*
X199628571Y-88513571D01*
X199781429Y-88667857D01*
X199781429Y-89120714D01*
X199781429Y-89165000D01*
G37*
G36*
X200071429Y-82276429D02*
G01*
X199777143Y-82572143D01*
X197928571Y-82572143D01*
X197928571Y-82279286D01*
X198035714Y-82279286D01*
X198035714Y-82462143D01*
X199717143Y-82462143D01*
X199964286Y-82215000D01*
X199964286Y-81537857D01*
X199717143Y-81290714D01*
X198865714Y-81290714D01*
X198632857Y-81523571D01*
X198632857Y-82120714D01*
X198791429Y-82279286D01*
X198035714Y-82279286D01*
X197928571Y-82279286D01*
X197928571Y-82167857D01*
X198555714Y-82167857D01*
X198528571Y-82139286D01*
X198528571Y-81473571D01*
X198822857Y-81177857D01*
X199777143Y-81177857D01*
X200071429Y-81473571D01*
X200071429Y-82215000D01*
X200071429Y-82276429D01*
G37*
G36*
X200071429Y-85796429D02*
G01*
X199777143Y-86092143D01*
X197928571Y-86092143D01*
X197928571Y-85799286D01*
X198035714Y-85799286D01*
X198035714Y-85982143D01*
X199717143Y-85982143D01*
X199964286Y-85735000D01*
X199964286Y-85057857D01*
X199717143Y-84810714D01*
X198865714Y-84810714D01*
X198632857Y-85043571D01*
X198632857Y-85640714D01*
X198791429Y-85799286D01*
X198035714Y-85799286D01*
X197928571Y-85799286D01*
X197928571Y-85687857D01*
X198555714Y-85687857D01*
X198528571Y-85659286D01*
X198528571Y-84993571D01*
X198822857Y-84697857D01*
X199777143Y-84697857D01*
X200071429Y-84993571D01*
X200071429Y-85735000D01*
X200071429Y-85796429D01*
G37*
G36*
X200071429Y-89316429D02*
G01*
X199777143Y-89612143D01*
X197928571Y-89612143D01*
X197928571Y-89319286D01*
X198035714Y-89319286D01*
X198035714Y-89502143D01*
X199717143Y-89502143D01*
X199964286Y-89255000D01*
X199964286Y-88577857D01*
X199717143Y-88330714D01*
X198865714Y-88330714D01*
X198632857Y-88563571D01*
X198632857Y-89160714D01*
X198791429Y-89319286D01*
X198035714Y-89319286D01*
X197928571Y-89319286D01*
X197928571Y-89207857D01*
X198555714Y-89207857D01*
X198528571Y-89179286D01*
X198528571Y-88513571D01*
X198822857Y-88217857D01*
X199777143Y-88217857D01*
X200071429Y-88513571D01*
X200071429Y-89255000D01*
X200071429Y-89316429D01*
G37*
G36*
X200071429Y-80569286D02*
G01*
X199777143Y-80863571D01*
X198822857Y-80863571D01*
X198528571Y-80569286D01*
X198528571Y-79739286D01*
X198638571Y-79739286D01*
X198638571Y-80515000D01*
X198885714Y-80762143D01*
X199721429Y-80762143D01*
X199962857Y-80520714D01*
X199962857Y-79525000D01*
X199780000Y-79525000D01*
X199780000Y-80430714D01*
X199632857Y-80577857D01*
X199418571Y-80577857D01*
X199418571Y-79732143D01*
X199187143Y-79499286D01*
X198878571Y-79499286D01*
X198638571Y-79739286D01*
X198528571Y-79739286D01*
X198528571Y-79682143D01*
X198822857Y-79387857D01*
X199230000Y-79387857D01*
X199524286Y-79682143D01*
X199524286Y-80459286D01*
X199580000Y-80459286D01*
X199667143Y-80372143D01*
X199667143Y-79407857D01*
X200071429Y-79407857D01*
X200071429Y-80520714D01*
X200071429Y-80569286D01*
G37*
G36*
X200071429Y-84089286D02*
G01*
X199777143Y-84383571D01*
X198822857Y-84383571D01*
X198528571Y-84089286D01*
X198528571Y-83259286D01*
X198638571Y-83259286D01*
X198638571Y-84035000D01*
X198885714Y-84282143D01*
X199721429Y-84282143D01*
X199962857Y-84040714D01*
X199962857Y-83045000D01*
X199780000Y-83045000D01*
X199780000Y-83950714D01*
X199632857Y-84097857D01*
X199418571Y-84097857D01*
X199418571Y-83252143D01*
X199187143Y-83019286D01*
X198878571Y-83019286D01*
X198638571Y-83259286D01*
X198528571Y-83259286D01*
X198528571Y-83202143D01*
X198822857Y-82907857D01*
X199230000Y-82907857D01*
X199524286Y-83202143D01*
X199524286Y-83979286D01*
X199580000Y-83979286D01*
X199667143Y-83892143D01*
X199667143Y-82927857D01*
X200071429Y-82927857D01*
X200071429Y-84040714D01*
X200071429Y-84089286D01*
G37*
G36*
X200071429Y-87609286D02*
G01*
X199777143Y-87903571D01*
X198822857Y-87903571D01*
X198528571Y-87609286D01*
X198528571Y-86779286D01*
X198638571Y-86779286D01*
X198638571Y-87555000D01*
X198885714Y-87802143D01*
X199721429Y-87802143D01*
X199962857Y-87560714D01*
X199962857Y-86565000D01*
X199780000Y-86565000D01*
X199780000Y-87470714D01*
X199632857Y-87617857D01*
X199418571Y-87617857D01*
X199418571Y-86772143D01*
X199187143Y-86539286D01*
X198878571Y-86539286D01*
X198638571Y-86779286D01*
X198528571Y-86779286D01*
X198528571Y-86722143D01*
X198822857Y-86427857D01*
X199230000Y-86427857D01*
X199524286Y-86722143D01*
X199524286Y-87499286D01*
X199580000Y-87499286D01*
X199667143Y-87412143D01*
X199667143Y-86447857D01*
X200071429Y-86447857D01*
X200071429Y-87560714D01*
X200071429Y-87609286D01*
G37*
D13*
%TO.C,~{RH}1*%
X123700000Y-116750000D02*
G75*
G02*
X122300000Y-116750000I-700000J0D01*
G01*
X122300000Y-116750000D02*
G75*
G02*
X123700000Y-116750000I700000J0D01*
G01*
%TO.C,U5*%
X163890000Y-91940000D02*
X163890000Y-93190000D01*
X163890000Y-95190000D02*
X163890000Y-96440000D01*
X163890000Y-96440000D02*
X184330000Y-96440000D01*
X184330000Y-91940000D02*
X163890000Y-91940000D01*
X184330000Y-96440000D02*
X184330000Y-91940000D01*
X163830000Y-99440000D02*
X184390000Y-99440000D01*
X184390000Y-88940000D01*
X163830000Y-88940000D01*
X163830000Y-99440000D01*
X163890000Y-93190000D02*
G75*
G02*
X163890000Y-95190000I0J-1000000D01*
G01*
%TO.C,U1*%
X194060000Y-91930000D02*
X194060000Y-109830000D01*
X194060000Y-109830000D02*
X195310000Y-109830000D01*
X197310000Y-109830000D02*
X198560000Y-109830000D01*
X198560000Y-91930000D02*
X194060000Y-91930000D01*
X198560000Y-109830000D02*
X198560000Y-91930000D01*
X201560000Y-109890000D02*
X191060000Y-109890000D01*
X191060000Y-91870000D01*
X201560000Y-91870000D01*
X201560000Y-109890000D01*
X195310000Y-109830000D02*
G75*
G02*
X197310000Y-109830000I1000000J0D01*
G01*
%TO.C,C6*%
X155640000Y-73010000D02*
X160880000Y-73010000D01*
X155640000Y-73347000D02*
X155640000Y-73010000D01*
X155640000Y-75750000D02*
X155640000Y-75413000D01*
X160880000Y-73010000D02*
X160880000Y-73347000D01*
X160880000Y-75413000D02*
X160880000Y-75750000D01*
X160880000Y-75750000D02*
X155640000Y-75750000D01*
%TO.C,Rst1*%
X159700000Y-67600000D02*
G75*
G02*
X158300000Y-67600000I-700000J0D01*
G01*
X158300000Y-67600000D02*
G75*
G02*
X159700000Y-67600000I700000J0D01*
G01*
%TO.C,C5*%
X115630000Y-85630000D02*
X120870000Y-85630000D01*
X115630000Y-85967000D02*
X115630000Y-85630000D01*
X115630000Y-88370000D02*
X115630000Y-88033000D01*
X120870000Y-85630000D02*
X120870000Y-85967000D01*
X120870000Y-88033000D02*
X120870000Y-88370000D01*
X120870000Y-88370000D02*
X115630000Y-88370000D01*
%TO.C,U7*%
X118850000Y-106055735D02*
X118850000Y-107305735D01*
X118850000Y-109305735D02*
X118850000Y-110555735D01*
X118850000Y-110555735D02*
X144370000Y-110555735D01*
X144370000Y-106055735D02*
X118850000Y-106055735D01*
X144370000Y-110555735D02*
X144370000Y-106055735D01*
X118790000Y-113555735D02*
X144430000Y-113555735D01*
X144430000Y-103055735D01*
X118790000Y-103055735D01*
X118790000Y-113555735D01*
X118850000Y-107305735D02*
G75*
G02*
X118850000Y-109305735I0J-1000000D01*
G01*
%TO.C,LL1*%
X187200000Y-94600000D02*
G75*
G02*
X185800000Y-94600000I-700000J0D01*
G01*
X185800000Y-94600000D02*
G75*
G02*
X187200000Y-94600000I700000J0D01*
G01*
%TO.C,U6*%
X158662254Y-106075735D02*
X158662254Y-107325735D01*
X158662254Y-109325735D02*
X158662254Y-110575735D01*
X158662254Y-110575735D02*
X184182254Y-110575735D01*
X184182254Y-106075735D02*
X158662254Y-106075735D01*
X184182254Y-110575735D02*
X184182254Y-106075735D01*
X158602254Y-113575735D02*
X184242254Y-113575735D01*
X184242254Y-103075735D01*
X158602254Y-103075735D01*
X158602254Y-113575735D01*
X158662254Y-107325735D02*
G75*
G02*
X158662254Y-109325735I0J-1000000D01*
G01*
%TO.C,C7*%
X115640000Y-72010000D02*
X120880000Y-72010000D01*
X115640000Y-72347000D02*
X115640000Y-72010000D01*
X115640000Y-74750000D02*
X115640000Y-74413000D01*
X120880000Y-72010000D02*
X120880000Y-72347000D01*
X120880000Y-74413000D02*
X120880000Y-74750000D01*
X120880000Y-74750000D02*
X115640000Y-74750000D01*
%TO.C,U2*%
X123890000Y-74940000D02*
X123890000Y-76190000D01*
X123890000Y-78190000D02*
X123890000Y-79440000D01*
X123890000Y-79440000D02*
X144330000Y-79440000D01*
X144330000Y-74940000D02*
X123890000Y-74940000D01*
X144330000Y-79440000D02*
X144330000Y-74940000D01*
X123830000Y-82440000D02*
X144390000Y-82440000D01*
X144390000Y-71940000D01*
X123830000Y-71940000D01*
X123830000Y-82440000D01*
X123890000Y-76190000D02*
G75*
G02*
X123890000Y-78190000I0J-1000000D01*
G01*
%TO.C,U3*%
X123930000Y-88560000D02*
X123930000Y-89810000D01*
X123930000Y-91810000D02*
X123930000Y-93060000D01*
X123930000Y-93060000D02*
X144370000Y-93060000D01*
X144370000Y-88560000D02*
X123930000Y-88560000D01*
X144370000Y-93060000D02*
X144370000Y-88560000D01*
X123870000Y-96060000D02*
X144430000Y-96060000D01*
X144430000Y-85560000D01*
X123870000Y-85560000D01*
X123870000Y-96060000D01*
X123930000Y-89810000D02*
G75*
G02*
X123930000Y-91810000I0J-1000000D01*
G01*
%TO.C,Lh1*%
X144200000Y-70000000D02*
G75*
G02*
X142800000Y-70000000I-700000J0D01*
G01*
X142800000Y-70000000D02*
G75*
G02*
X144200000Y-70000000I700000J0D01*
G01*
%TO.C,U4*%
X163890000Y-75940000D02*
X163890000Y-77190000D01*
X163890000Y-79190000D02*
X163890000Y-80440000D01*
X163890000Y-80440000D02*
X184330000Y-80440000D01*
X184330000Y-75940000D02*
X163890000Y-75940000D01*
X184330000Y-80440000D02*
X184330000Y-75940000D01*
X163830000Y-83440000D02*
X184390000Y-83440000D01*
X184390000Y-72940000D01*
X163830000Y-72940000D01*
X163830000Y-83440000D01*
X163890000Y-77190000D02*
G75*
G02*
X163890000Y-79190000I0J-1000000D01*
G01*
%TO.C,Pwr1*%
X111200000Y-113750000D02*
G75*
G02*
X109800000Y-113750000I-700000J0D01*
G01*
X109800000Y-113750000D02*
G75*
G02*
X111200000Y-113750000I700000J0D01*
G01*
%TO.C,C1*%
X119770000Y-120739010D02*
G75*
G02*
X113230000Y-120739010I-3270000J0D01*
G01*
X113230000Y-120739010D02*
G75*
G02*
X119770000Y-120739010I3270000J0D01*
G01*
%TD*%
M02*
