%TF.GenerationSoftware,KiCad,Pcbnew,9.0.5*%
%TF.CreationDate,2025-11-19T18:07:15+02:00*%
%TF.ProjectId,alu_hub,616c755f-6875-4622-9e6b-696361645f70,rev?*%
%TF.SameCoordinates,Original*%
%TF.FileFunction,Soldermask,Top*%
%TF.FilePolarity,Negative*%
%FSLAX46Y46*%
G04 Gerber Fmt 4.6, Leading zero omitted, Abs format (unit mm)*
G04 Created by KiCad (PCBNEW 9.0.5) date 2025-11-19 18:07:15*
%MOMM*%
%LPD*%
G01*
G04 APERTURE LIST*
G04 Aperture macros list*
%AMRoundRect*
0 Rectangle with rounded corners*
0 $1 Rounding radius*
0 $2 $3 $4 $5 $6 $7 $8 $9 X,Y pos of 4 corners*
0 Add a 4 corners polygon primitive as box body*
4,1,4,$2,$3,$4,$5,$6,$7,$8,$9,$2,$3,0*
0 Add four circle primitives for the rounded corners*
1,1,$1+$1,$2,$3*
1,1,$1+$1,$4,$5*
1,1,$1+$1,$6,$7*
1,1,$1+$1,$8,$9*
0 Add four rect primitives between the rounded corners*
20,1,$1+$1,$2,$3,$4,$5,0*
20,1,$1+$1,$4,$5,$6,$7,0*
20,1,$1+$1,$6,$7,$8,$9,0*
20,1,$1+$1,$8,$9,$2,$3,0*%
G04 Aperture macros list end*
%ADD10C,1.000000*%
%ADD11C,1.600000*%
%ADD12RoundRect,0.250000X0.550000X-0.950000X0.550000X0.950000X-0.550000X0.950000X-0.550000X-0.950000X0*%
%ADD13O,1.600000X2.400000*%
%ADD14RoundRect,0.250000X-0.550000X0.950000X-0.550000X-0.950000X0.550000X-0.950000X0.550000X0.950000X0*%
%ADD15R,0.700000X4.300000*%
%ADD16R,0.700000X3.200000*%
%ADD17RoundRect,0.250000X-0.950000X-0.550000X0.950000X-0.550000X0.950000X0.550000X-0.950000X0.550000X0*%
%ADD18O,2.400000X1.600000*%
G04 APERTURE END LIST*
D10*
%TO.C,Mode1*%
X124305000Y-73500000D03*
%TD*%
D11*
%TO.C,R1*%
X196400000Y-120130000D03*
X196400000Y-127750000D03*
%TD*%
D10*
%TO.C,PWR1*%
X103000000Y-132000000D03*
%TD*%
%TO.C,~{RHIGH}1*%
X131300000Y-123800000D03*
%TD*%
%TO.C,~{CLK}1*%
X182000000Y-133400000D03*
%TD*%
D12*
%TO.C,U8*%
X151445000Y-65795000D03*
D13*
X153985000Y-65795000D03*
X156525000Y-65795000D03*
X159065000Y-65795000D03*
X161605000Y-65795000D03*
X164145000Y-65795000D03*
X166685000Y-65795000D03*
X169225000Y-65795000D03*
X171765000Y-65795000D03*
X174305000Y-65795000D03*
X174305000Y-58175000D03*
X171765000Y-58175000D03*
X169225000Y-58175000D03*
X166685000Y-58175000D03*
X164145000Y-58175000D03*
X161605000Y-58175000D03*
X159065000Y-58175000D03*
X156525000Y-58175000D03*
X153985000Y-58175000D03*
X151445000Y-58175000D03*
%TD*%
D10*
%TO.C,Zero1*%
X114900000Y-132000000D03*
%TD*%
D11*
%TO.C,C8*%
X121100000Y-125550000D03*
X126100000Y-125550000D03*
%TD*%
D10*
%TO.C,S3*%
X147500000Y-91200000D03*
%TD*%
%TO.C,S1*%
X105000000Y-126400000D03*
%TD*%
%TO.C,~{RALU}1*%
X141700000Y-99700000D03*
%TD*%
D11*
%TO.C,C5*%
X146940000Y-117630000D03*
X146940000Y-120130000D03*
%TD*%
D14*
%TO.C,U9*%
X125670000Y-113860000D03*
D13*
X123130000Y-113860000D03*
X120590000Y-113860000D03*
X118050000Y-113860000D03*
X115510000Y-113860000D03*
X112970000Y-113860000D03*
X110430000Y-113860000D03*
X110430000Y-121480000D03*
X112970000Y-121480000D03*
X115510000Y-121480000D03*
X118050000Y-121480000D03*
X120590000Y-121480000D03*
X123130000Y-121480000D03*
X125670000Y-121480000D03*
%TD*%
D12*
%TO.C,U7*%
X151445000Y-81371200D03*
D13*
X153985000Y-81371200D03*
X156525000Y-81371200D03*
X159065000Y-81371200D03*
X161605000Y-81371200D03*
X164145000Y-81371200D03*
X166685000Y-81371200D03*
X169225000Y-81371200D03*
X171765000Y-81371200D03*
X174305000Y-81371200D03*
X174305000Y-73751200D03*
X171765000Y-73751200D03*
X169225000Y-73751200D03*
X166685000Y-73751200D03*
X164145000Y-73751200D03*
X161605000Y-73751200D03*
X159065000Y-73751200D03*
X156525000Y-73751200D03*
X153985000Y-73751200D03*
X151445000Y-73751200D03*
%TD*%
D11*
%TO.C,C1*%
X153550000Y-53900000D03*
X148550000Y-53900000D03*
%TD*%
%TO.C,C11*%
X110700000Y-131550000D03*
X108200000Y-131550000D03*
%TD*%
%TO.C,C10*%
X135630000Y-69700000D03*
X140630000Y-69700000D03*
%TD*%
%TO.C,C3*%
X145625000Y-85125000D03*
X150625000Y-85125000D03*
%TD*%
D10*
%TO.C,Sign1*%
X109900000Y-125200000D03*
%TD*%
D12*
%TO.C,U1*%
X151445000Y-128100000D03*
D13*
X153985000Y-128100000D03*
X156525000Y-128100000D03*
X159065000Y-128100000D03*
X161605000Y-128100000D03*
X164145000Y-128100000D03*
X166685000Y-128100000D03*
X169225000Y-128100000D03*
X171765000Y-128100000D03*
X174305000Y-128100000D03*
X174305000Y-120480000D03*
X171765000Y-120480000D03*
X169225000Y-120480000D03*
X166685000Y-120480000D03*
X164145000Y-120480000D03*
X161605000Y-120480000D03*
X159065000Y-120480000D03*
X156525000Y-120480000D03*
X153985000Y-120480000D03*
X151445000Y-120480000D03*
%TD*%
D10*
%TO.C,~{Carry}1*%
X106600000Y-93400000D03*
%TD*%
D11*
%TO.C,C2*%
X146650000Y-80575000D03*
X146650000Y-75575000D03*
%TD*%
D14*
%TO.C,U4*%
X138280000Y-76985000D03*
D13*
X135740000Y-76985000D03*
X133200000Y-76985000D03*
X130660000Y-76985000D03*
X128120000Y-76985000D03*
X125580000Y-76985000D03*
X123040000Y-76985000D03*
X120500000Y-76985000D03*
X117960000Y-76985000D03*
X115420000Y-76985000D03*
X112880000Y-76985000D03*
X110340000Y-76985000D03*
X110340000Y-92225000D03*
X112880000Y-92225000D03*
X115420000Y-92225000D03*
X117960000Y-92225000D03*
X120500000Y-92225000D03*
X123040000Y-92225000D03*
X125580000Y-92225000D03*
X128120000Y-92225000D03*
X130660000Y-92225000D03*
X133200000Y-92225000D03*
X135740000Y-92225000D03*
X138280000Y-92225000D03*
%TD*%
D14*
%TO.C,U5*%
X138380000Y-50655000D03*
D13*
X135840000Y-50655000D03*
X133300000Y-50655000D03*
X130760000Y-50655000D03*
X128220000Y-50655000D03*
X125680000Y-50655000D03*
X123140000Y-50655000D03*
X120600000Y-50655000D03*
X118060000Y-50655000D03*
X115520000Y-50655000D03*
X112980000Y-50655000D03*
X110440000Y-50655000D03*
X110440000Y-65895000D03*
X112980000Y-65895000D03*
X115520000Y-65895000D03*
X118060000Y-65895000D03*
X120600000Y-65895000D03*
X123140000Y-65895000D03*
X125680000Y-65895000D03*
X128220000Y-65895000D03*
X130760000Y-65895000D03*
X133300000Y-65895000D03*
X135840000Y-65895000D03*
X138380000Y-65895000D03*
%TD*%
D15*
%TO.C,BC1*%
X108000000Y-140500000D03*
X109000000Y-140500000D03*
X110000000Y-140500000D03*
X111000000Y-140500000D03*
X112000000Y-140500000D03*
X113000000Y-140500000D03*
X114000000Y-140500000D03*
X115000000Y-140500000D03*
X116000000Y-140500000D03*
X117000000Y-140500000D03*
X118000000Y-140500000D03*
X121000000Y-140500000D03*
X122000000Y-140500000D03*
X123000000Y-140500000D03*
X124000000Y-140500000D03*
X125000000Y-140500000D03*
X126000000Y-140500000D03*
X127000000Y-140500000D03*
X128000000Y-140500000D03*
X129000000Y-140500000D03*
X130000000Y-140500000D03*
X131000000Y-140500000D03*
X132000000Y-140500000D03*
X133000000Y-140500000D03*
X134000000Y-140500000D03*
X135000000Y-140500000D03*
X136000000Y-140500000D03*
X137000000Y-140500000D03*
X138000000Y-140500000D03*
X139000000Y-140500000D03*
X140000000Y-140500000D03*
X141000000Y-140500000D03*
X142000000Y-140500000D03*
X143000000Y-140500000D03*
X144000000Y-140500000D03*
X145000000Y-140500000D03*
X146000000Y-140500000D03*
X147000000Y-140500000D03*
X148000000Y-140500000D03*
X149000000Y-140500000D03*
X150000000Y-140500000D03*
X151000000Y-140500000D03*
X152000000Y-140500000D03*
X153000000Y-140500000D03*
X154000000Y-140500000D03*
X155000000Y-140500000D03*
X156000000Y-140500000D03*
X157000000Y-140500000D03*
X158000000Y-140500000D03*
X159000000Y-140500000D03*
X160000000Y-140500000D03*
X161000000Y-140500000D03*
X162000000Y-140500000D03*
X163000000Y-140500000D03*
X164000000Y-140500000D03*
X165000000Y-140500000D03*
X166000000Y-140500000D03*
X167000000Y-140500000D03*
X168000000Y-140500000D03*
X169000000Y-140500000D03*
X170000000Y-140500000D03*
X171000000Y-140500000D03*
X172000000Y-140500000D03*
X173000000Y-140500000D03*
X174000000Y-140500000D03*
X175000000Y-140500000D03*
X176000000Y-140500000D03*
X177000000Y-140500000D03*
X178000000Y-140500000D03*
X179000000Y-140500000D03*
X180000000Y-140500000D03*
X181000000Y-140500000D03*
X182000000Y-140500000D03*
X183000000Y-140500000D03*
X184000000Y-140500000D03*
X185000000Y-140500000D03*
X186000000Y-140500000D03*
X187000000Y-140500000D03*
X188000000Y-140500000D03*
X189000000Y-140500000D03*
D16*
X190000000Y-139950000D03*
D15*
X191000000Y-140500000D03*
%TD*%
D11*
%TO.C,C7*%
X134925000Y-96075000D03*
X139925000Y-96075000D03*
%TD*%
D17*
%TO.C,U3*%
X184380000Y-113140000D03*
D18*
X184380000Y-115680000D03*
X184380000Y-118220000D03*
X184380000Y-120760000D03*
X184380000Y-123300000D03*
X184380000Y-125840000D03*
X184380000Y-128380000D03*
X192000000Y-128380000D03*
X192000000Y-125840000D03*
X192000000Y-123300000D03*
X192000000Y-120760000D03*
X192000000Y-118220000D03*
X192000000Y-115680000D03*
X192000000Y-113140000D03*
%TD*%
D11*
%TO.C,C9*%
X125450000Y-110575000D03*
X130450000Y-110575000D03*
%TD*%
D14*
%TO.C,U10*%
X125670000Y-99680000D03*
D13*
X123130000Y-99680000D03*
X120590000Y-99680000D03*
X118050000Y-99680000D03*
X115510000Y-99680000D03*
X112970000Y-99680000D03*
X110430000Y-99680000D03*
X110430000Y-107300000D03*
X112970000Y-107300000D03*
X115510000Y-107300000D03*
X118050000Y-107300000D03*
X120590000Y-107300000D03*
X123130000Y-107300000D03*
X125670000Y-107300000D03*
%TD*%
D11*
%TO.C,C4*%
X146025000Y-111075000D03*
X146025000Y-106075000D03*
%TD*%
%TO.C,C6*%
X192450000Y-103600000D03*
X192450000Y-108600000D03*
%TD*%
D10*
%TO.C,S0*%
X148200000Y-130900000D03*
%TD*%
%TO.C,~{CaIn}1*%
X121000000Y-95000000D03*
%TD*%
%TO.C,~{LHIGH}1*%
X179300000Y-117900000D03*
%TD*%
D12*
%TO.C,U2*%
X151445000Y-112523700D03*
D13*
X153985000Y-112523700D03*
X156525000Y-112523700D03*
X159065000Y-112523700D03*
X161605000Y-112523700D03*
X164145000Y-112523700D03*
X166685000Y-112523700D03*
X169225000Y-112523700D03*
X171765000Y-112523700D03*
X174305000Y-112523700D03*
X174305000Y-104903700D03*
X171765000Y-104903700D03*
X169225000Y-104903700D03*
X166685000Y-104903700D03*
X164145000Y-104903700D03*
X161605000Y-104903700D03*
X159065000Y-104903700D03*
X156525000Y-104903700D03*
X153985000Y-104903700D03*
X151445000Y-104903700D03*
%TD*%
D10*
%TO.C,~{RLOW}1*%
X133700000Y-127400000D03*
%TD*%
%TO.C,S2*%
X105600000Y-70900000D03*
%TD*%
%TO.C,~{LLOW}1*%
X184100000Y-99000000D03*
%TD*%
D12*
%TO.C,U6*%
X151445000Y-96947500D03*
D13*
X153985000Y-96947500D03*
X156525000Y-96947500D03*
X159065000Y-96947500D03*
X161605000Y-96947500D03*
X164145000Y-96947500D03*
X166685000Y-96947500D03*
X169225000Y-96947500D03*
X171765000Y-96947500D03*
X174305000Y-96947500D03*
X174305000Y-89327500D03*
X171765000Y-89327500D03*
X169225000Y-89327500D03*
X166685000Y-89327500D03*
X164145000Y-89327500D03*
X161605000Y-89327500D03*
X159065000Y-89327500D03*
X156525000Y-89327500D03*
X153985000Y-89327500D03*
X151445000Y-89327500D03*
%TD*%
M02*
