M48
; DRILL file {KiCad 9.0.5} date 2025-11-19T18:07:19+0200
; FORMAT={-:-/ absolute / metric / decimal}
; #@! TF.CreationDate,2025-11-19T18:07:19+02:00
; #@! TF.GenerationSoftware,Kicad,Pcbnew,9.0.5
; #@! TF.FileFunction,Plated,1,2,PTH
FMAT,2
METRIC
; #@! TA.AperFunction,Plated,PTH,ViaDrill
T1C0.300
; #@! TA.AperFunction,Plated,PTH,ViaDrill
T2C0.400
; #@! TA.AperFunction,Plated,PTH,ComponentDrill
T3C0.800
%
G90
G05
T1
X101.95Y-114.55
X102.075Y-81.45
X102.525Y-117.45
X102.75Y-127.3
X103.05Y-81.6
X103.1Y-115.8
X103.3Y-113.75
X103.625Y-104.375
X103.65Y-96.225
X104.5Y-103.85
X104.525Y-96.85
X104.975Y-120.275
X105.376Y-96.45
X105.425Y-111.675
X105.45Y-104.375
X106.825Y-72.675
X107.05Y-70.225
X107.45Y-119.38
X108.0Y-61.2
X108.3Y-136.8
X108.55Y-133.95
X109.05Y-136.8
X109.325Y-128.05
X109.7Y-87.825
X109.85Y-126.95
X109.999Y-135.4
X110.05Y-136.8
X110.2Y-70.95
X110.225Y-54.875
X110.4Y-56.775
X111.05Y-136.8
X111.15Y-60.475
X111.475Y-89.775
X111.8Y-134.7
X111.813Y-126.787
X112.05Y-136.8
X112.6Y-68.8
X112.775Y-133.575
X112.85Y-72.7
X112.925Y-54.175
X113.125Y-56.075
X113.15Y-59.225
X113.35Y-71.2
X113.725Y-130.475
X114.6Y-130.225
X121.0Y-73.0
X121.3Y-55.75
X121.7Y-136.55
X122.039Y-74.0
X123.45Y-71.75
X125.3Y-56.75
X126.275Y-137.275
X126.775Y-104.125
X126.775Y-136.225
X127.2Y-133.625
X128.3Y-130.2
X129.0Y-104.125
X129.221Y-95.021
X130.3Y-80.95
X130.637Y-103.862
X132.65Y-128.45
X133.275Y-69.8
X133.275Y-129.675
X133.625Y-121.525
X134.2Y-130.3
X135.3Y-117.775
X135.4Y-113.15
X135.5Y-126.475
X135.7Y-101.4
X136.225Y-110.3
X136.5Y-127.475
X136.725Y-111.875
X136.75Y-118.2
X137.0Y-58.1
X137.675Y-117.2
X138.125Y-128.175
X138.425Y-118.35
X138.725Y-104.525
X139.0Y-136.475
X139.35Y-115.925
X139.55Y-111.7
X139.675Y-130.65
X140.275Y-119.55
X140.35Y-124.05
X140.375Y-106.175
X140.95Y-52.0
X141.1Y-87.9
X141.125Y-129.225
X141.6Y-120.625
X141.6Y-124.075
X141.723Y-50.577
X141.749Y-64.5
X141.749Y-67.45
X142.2Y-107.625
X142.3Y-62.65
X142.55Y-80.2
X142.55Y-82.95
X142.55Y-97.475
X142.65Y-60.375
X142.983Y-119.3
X143.025Y-125.15
X143.2Y-55.425
X143.225Y-62.625
X143.475Y-85.425
X143.73Y-129.142
X143.75Y-100.95
X143.95Y-54.0
X144.023Y-52.877
X144.15Y-103.475
X144.275Y-120.6
X144.275Y-125.675
X144.425Y-136.85
X144.575Y-63.975
X144.7Y-78.125
X144.95Y-71.65
X145.425Y-115.1
X145.425Y-124.35
X145.475Y-123.35
X145.55Y-73.425
X145.55Y-136.45
X145.925Y-122.25
X146.0Y-127.5
X146.412Y-66.787
X146.475Y-100.95
X146.6Y-113.65
X146.875Y-104.65
X147.075Y-88.45
X147.325Y-69.4
X148.1Y-115.15
X148.2Y-72.1
X148.25Y-103.325
X148.812Y-76.412
X148.95Y-113.325
X148.975Y-92.675
X149.4Y-71.225
X149.4Y-72.8
X149.65Y-101.5
X149.725Y-114.425
X151.2Y-137.1
X151.35Y-70.5
X151.55Y-123.987
X153.525Y-131.5
X153.975Y-108.8
X154.3Y-115.875
X154.95Y-135.575
X155.75Y-94.35
X157.15Y-92.4
X157.625Y-135.875
X159.1Y-63.225
X161.2Y-99.375
X161.95Y-100.925
X163.275Y-102.725
X164.55Y-101.475
X166.95Y-92.15
X169.0Y-135.2
X169.3Y-136.925
X170.15Y-134.225
X171.625Y-136.425
X171.925Y-93.8
X172.4Y-137.35
X173.35Y-137.375
X174.375Y-137.375
X175.025Y-68.975
X175.125Y-133.175
X175.15Y-137.35
X178.45Y-95.475
X178.9Y-89.9
X179.35Y-101.75
X179.5Y-137.3
X180.0Y-91.1
X180.15Y-97.825
X180.55Y-137.3
X180.65Y-127.675
X180.9Y-87.9
X181.5Y-104.175
X181.525Y-109.05
X181.6Y-89.4
X181.7Y-68.95
X182.325Y-73.0
X182.325Y-80.95
X182.325Y-94.225
X182.325Y-98.4
X182.875Y-104.225
X182.875Y-109.1
X183.725Y-68.85
X185.2Y-88.0
X185.9Y-100.975
X187.625Y-79.4
X187.625Y-99.325
X189.675Y-73.3
X189.675Y-81.3
T2
X132.0Y-136.85
X141.0Y-136.85
X150.0Y-136.875
X159.0Y-136.975
X168.0Y-136.8
X173.95Y-135.825
X184.425Y-135.875
T3
X108.2Y-131.55
X110.34Y-76.985
X110.34Y-92.225
X110.43Y-99.68
X110.43Y-107.3
X110.43Y-113.86
X110.43Y-121.48
X110.44Y-50.655
X110.44Y-65.895
X110.7Y-131.55
X112.88Y-76.985
X112.88Y-92.225
X112.97Y-99.68
X112.97Y-107.3
X112.97Y-113.86
X112.97Y-121.48
X112.98Y-50.655
X112.98Y-65.895
X115.42Y-76.985
X115.42Y-92.225
X115.51Y-99.68
X115.51Y-107.3
X115.51Y-113.86
X115.51Y-121.48
X115.52Y-50.655
X115.52Y-65.895
X117.96Y-76.985
X117.96Y-92.225
X118.05Y-99.68
X118.05Y-107.3
X118.05Y-113.86
X118.05Y-121.48
X118.06Y-50.655
X118.06Y-65.895
X120.5Y-76.985
X120.5Y-92.225
X120.59Y-99.68
X120.59Y-107.3
X120.59Y-113.86
X120.59Y-121.48
X120.6Y-50.655
X120.6Y-65.895
X121.1Y-125.55
X123.04Y-76.985
X123.04Y-92.225
X123.13Y-99.68
X123.13Y-107.3
X123.13Y-113.86
X123.13Y-121.48
X123.14Y-50.655
X123.14Y-65.895
X125.45Y-110.575
X125.58Y-76.985
X125.58Y-92.225
X125.67Y-99.68
X125.67Y-107.3
X125.67Y-113.86
X125.67Y-121.48
X125.68Y-50.655
X125.68Y-65.895
X126.1Y-125.55
X128.12Y-76.985
X128.12Y-92.225
X128.22Y-50.655
X128.22Y-65.895
X130.45Y-110.575
X130.66Y-76.985
X130.66Y-92.225
X130.76Y-50.655
X130.76Y-65.895
X133.2Y-76.985
X133.2Y-92.225
X133.3Y-50.655
X133.3Y-65.895
X134.925Y-96.075
X135.63Y-69.7
X135.74Y-76.985
X135.74Y-92.225
X135.84Y-50.655
X135.84Y-65.895
X138.28Y-76.985
X138.28Y-92.225
X138.38Y-50.655
X138.38Y-65.895
X139.925Y-96.075
X140.63Y-69.7
X145.625Y-85.125
X146.025Y-106.075
X146.025Y-111.075
X146.65Y-75.575
X146.65Y-80.575
X146.94Y-117.63
X146.94Y-120.13
X148.55Y-53.9
X150.625Y-85.125
X151.445Y-58.175
X151.445Y-65.795
X151.445Y-73.751
X151.445Y-81.371
X151.445Y-89.328
X151.445Y-96.947
X151.445Y-104.904
X151.445Y-112.524
X151.445Y-120.48
X151.445Y-128.1
X153.55Y-53.9
X153.985Y-58.175
X153.985Y-65.795
X153.985Y-73.751
X153.985Y-81.371
X153.985Y-89.328
X153.985Y-96.947
X153.985Y-104.904
X153.985Y-112.524
X153.985Y-120.48
X153.985Y-128.1
X156.525Y-58.175
X156.525Y-65.795
X156.525Y-73.751
X156.525Y-81.371
X156.525Y-89.328
X156.525Y-96.947
X156.525Y-104.904
X156.525Y-112.524
X156.525Y-120.48
X156.525Y-128.1
X159.065Y-58.175
X159.065Y-65.795
X159.065Y-73.751
X159.065Y-81.371
X159.065Y-89.328
X159.065Y-96.947
X159.065Y-104.904
X159.065Y-112.524
X159.065Y-120.48
X159.065Y-128.1
X161.605Y-58.175
X161.605Y-65.795
X161.605Y-73.751
X161.605Y-81.371
X161.605Y-89.328
X161.605Y-96.947
X161.605Y-104.904
X161.605Y-112.524
X161.605Y-120.48
X161.605Y-128.1
X164.145Y-58.175
X164.145Y-65.795
X164.145Y-73.751
X164.145Y-81.371
X164.145Y-89.328
X164.145Y-96.947
X164.145Y-104.904
X164.145Y-112.524
X164.145Y-120.48
X164.145Y-128.1
X166.685Y-58.175
X166.685Y-65.795
X166.685Y-73.751
X166.685Y-81.371
X166.685Y-89.328
X166.685Y-96.947
X166.685Y-104.904
X166.685Y-112.524
X166.685Y-120.48
X166.685Y-128.1
X169.225Y-58.175
X169.225Y-65.795
X169.225Y-73.751
X169.225Y-81.371
X169.225Y-89.328
X169.225Y-96.947
X169.225Y-104.904
X169.225Y-112.524
X169.225Y-120.48
X169.225Y-128.1
X171.765Y-58.175
X171.765Y-65.795
X171.765Y-73.751
X171.765Y-81.371
X171.765Y-89.328
X171.765Y-96.947
X171.765Y-104.904
X171.765Y-112.524
X171.765Y-120.48
X171.765Y-128.1
X174.305Y-58.175
X174.305Y-65.795
X174.305Y-73.751
X174.305Y-81.371
X174.305Y-89.328
X174.305Y-96.947
X174.305Y-104.904
X174.305Y-112.524
X174.305Y-120.48
X174.305Y-128.1
X184.38Y-113.14
X184.38Y-115.68
X184.38Y-118.22
X184.38Y-120.76
X184.38Y-123.3
X184.38Y-125.84
X184.38Y-128.38
X192.0Y-113.14
X192.0Y-115.68
X192.0Y-118.22
X192.0Y-120.76
X192.0Y-123.3
X192.0Y-125.84
X192.0Y-128.38
X192.45Y-103.6
X192.45Y-108.6
X196.4Y-120.13
X196.4Y-127.75
M30
