%TF.GenerationSoftware,KiCad,Pcbnew,9.0.5*%
%TF.CreationDate,2025-11-19T18:07:15+02:00*%
%TF.ProjectId,alu_hub,616c755f-6875-4622-9e6b-696361645f70,rev?*%
%TF.SameCoordinates,Original*%
%TF.FileFunction,Legend,Top*%
%TF.FilePolarity,Positive*%
%FSLAX46Y46*%
G04 Gerber Fmt 4.6, Leading zero omitted, Abs format (unit mm)*
G04 Created by KiCad (PCBNEW 9.0.5) date 2025-11-19 18:07:15*
%MOMM*%
%LPD*%
G01*
G04 APERTURE LIST*
%ADD10C,0.000000*%
%ADD11C,0.052916*%
%ADD12C,0.150000*%
%ADD13C,0.120000*%
G04 APERTURE END LIST*
D10*
G36*
X194408021Y-50829375D02*
G01*
X192132604Y-51384999D01*
X189963021Y-50062083D01*
X189989479Y-49903333D01*
X192211979Y-51146875D01*
X193657927Y-50797624D01*
X193279041Y-50659364D01*
X192921259Y-50534576D01*
X192585043Y-50422634D01*
X192270853Y-50322908D01*
X191979150Y-50234771D01*
X191710395Y-50157594D01*
X191465048Y-50090749D01*
X191243571Y-50033607D01*
X191046424Y-49985541D01*
X190874068Y-49945922D01*
X190605574Y-49889512D01*
X190386354Y-49850416D01*
X191338854Y-49744583D01*
X194408021Y-50829375D01*
G37*
G36*
X189830729Y-49083125D02*
G01*
X189820940Y-50054939D01*
X189486771Y-50644166D01*
X189158158Y-50049648D01*
X189169271Y-49083125D01*
X189500794Y-48491517D01*
X189830729Y-49083125D01*
G37*
G36*
X193693646Y-49241875D02*
G01*
X189963021Y-49771041D01*
X189963021Y-49612291D01*
X193587812Y-49003750D01*
X194178428Y-48414986D01*
X194579677Y-48006527D01*
X194708489Y-47869298D01*
X194742655Y-47829374D01*
X194750641Y-47818077D01*
X194751979Y-47813125D01*
X193998239Y-48062073D01*
X192362196Y-48626784D01*
X189989479Y-49453541D01*
X189989479Y-49215416D01*
X195572187Y-47257500D01*
X193693646Y-49241875D01*
G37*
D11*
X193645757Y-57012687D02*
X194279169Y-57016127D01*
X194275729Y-57285208D01*
X193323229Y-57285208D01*
X193323229Y-55882917D01*
X193640729Y-55882917D01*
X193645757Y-57012687D01*
D10*
G36*
X193455521Y-48845000D02*
G01*
X190783229Y-49347708D01*
X194169896Y-48157083D01*
X193455521Y-48845000D01*
G37*
D11*
X190044826Y-56173996D02*
X190047317Y-56174171D01*
X190050557Y-56174562D01*
X190054401Y-56175253D01*
X190058706Y-56176330D01*
X190060987Y-56177039D01*
X190063329Y-56177877D01*
X190065715Y-56178852D01*
X190068127Y-56179977D01*
X190070546Y-56181262D01*
X190072955Y-56182717D01*
X190075336Y-56184353D01*
X190077671Y-56186180D01*
X190079942Y-56188209D01*
X190082132Y-56190450D01*
X190084221Y-56192915D01*
X190086193Y-56195613D01*
X190088029Y-56198555D01*
X190089711Y-56201752D01*
X190091222Y-56205214D01*
X190092544Y-56208952D01*
X190093658Y-56212977D01*
X190094547Y-56217299D01*
X190095193Y-56221928D01*
X190095577Y-56226875D01*
X190096499Y-56357467D01*
X190096206Y-56591371D01*
X190095049Y-56914791D01*
X190095510Y-56918170D01*
X190095879Y-56922049D01*
X190096156Y-56927082D01*
X190096205Y-56933041D01*
X190095886Y-56939697D01*
X190095061Y-56946820D01*
X190094416Y-56950485D01*
X190093593Y-56954181D01*
X190092575Y-56957879D01*
X190091344Y-56961552D01*
X190089883Y-56965169D01*
X190088175Y-56968702D01*
X190086203Y-56972124D01*
X190083950Y-56975405D01*
X190081397Y-56978516D01*
X190078529Y-56981429D01*
X190075327Y-56984115D01*
X190071774Y-56986546D01*
X190067854Y-56988693D01*
X190063549Y-56990528D01*
X190058841Y-56992021D01*
X190053714Y-56993144D01*
X190048150Y-56993869D01*
X190042132Y-56994166D01*
X189645257Y-56994166D01*
X189641879Y-56994345D01*
X189632966Y-56994307D01*
X189627007Y-56993937D01*
X189620351Y-56993190D01*
X189613228Y-56991957D01*
X189605867Y-56990131D01*
X189602169Y-56988963D01*
X189598496Y-56987605D01*
X189594879Y-56986045D01*
X189591345Y-56984270D01*
X189587924Y-56982266D01*
X189584643Y-56980019D01*
X189581532Y-56977516D01*
X189578619Y-56974744D01*
X189575933Y-56971689D01*
X189573502Y-56968337D01*
X189571355Y-56964676D01*
X189569521Y-56960691D01*
X189568028Y-56956370D01*
X189566904Y-56951698D01*
X189566180Y-56946662D01*
X189565882Y-56941249D01*
X189566411Y-56253333D01*
X189565993Y-56250009D01*
X189565671Y-56246189D01*
X189565452Y-56241228D01*
X189565468Y-56235350D01*
X189565853Y-56228776D01*
X189566740Y-56221732D01*
X189567414Y-56218103D01*
X189568263Y-56214439D01*
X189569304Y-56210770D01*
X189570555Y-56207122D01*
X189572031Y-56203524D01*
X189573749Y-56200003D01*
X189575726Y-56196588D01*
X189577979Y-56193306D01*
X189580523Y-56190185D01*
X189583377Y-56187254D01*
X189586557Y-56184539D01*
X189590078Y-56182069D01*
X189593959Y-56179873D01*
X189598215Y-56177977D01*
X189602863Y-56176409D01*
X189607920Y-56175198D01*
X189613403Y-56174372D01*
X189619328Y-56173958D01*
X190042661Y-56173958D01*
X190044826Y-56173996D01*
X185952745Y-55883594D02*
X185965817Y-55885062D01*
X185982770Y-55887836D01*
X186002827Y-55892331D01*
X186025210Y-55898962D01*
X186037031Y-55903208D01*
X186049142Y-55908143D01*
X186061445Y-55913819D01*
X186073845Y-55920289D01*
X186086242Y-55927603D01*
X186098541Y-55935814D01*
X186110645Y-55944974D01*
X186122455Y-55955134D01*
X186133874Y-55966346D01*
X186144807Y-55978663D01*
X186155154Y-55992135D01*
X186164820Y-56006816D01*
X186173707Y-56022756D01*
X186181717Y-56040007D01*
X186188754Y-56058621D01*
X186194721Y-56078651D01*
X186199520Y-56100148D01*
X186203054Y-56123163D01*
X186205225Y-56147750D01*
X186205938Y-56173958D01*
X186205938Y-56517916D01*
X186204032Y-56526485D01*
X186201292Y-56536484D01*
X186197041Y-56549658D01*
X186191042Y-56565533D01*
X186183056Y-56583633D01*
X186172843Y-56603484D01*
X186166827Y-56613917D01*
X186160165Y-56624609D01*
X186152827Y-56635502D01*
X186144783Y-56646535D01*
X186136004Y-56657649D01*
X186126460Y-56668785D01*
X186116120Y-56679884D01*
X186104954Y-56690886D01*
X186092934Y-56701731D01*
X186080029Y-56712360D01*
X186066210Y-56722714D01*
X186051446Y-56732734D01*
X186035707Y-56742359D01*
X186018964Y-56751532D01*
X186001188Y-56760191D01*
X185982347Y-56768279D01*
X185962413Y-56775734D01*
X185941355Y-56782499D01*
X185952584Y-56803426D01*
X185984660Y-56857939D01*
X186083800Y-57022873D01*
X186229221Y-57262454D01*
X185904842Y-57269069D01*
X185623855Y-56782499D01*
X185359272Y-56782499D01*
X185359272Y-57285208D01*
X185041772Y-57285208D01*
X185041772Y-55882917D01*
X185068230Y-55882917D01*
X185941355Y-55882917D01*
X185952745Y-55883594D01*
D10*
G36*
X190439271Y-48104166D02*
G01*
X189857188Y-48686250D01*
X189910104Y-49003750D01*
X189513229Y-48104166D01*
X189089896Y-49003750D01*
X189142813Y-48686250D01*
X188560729Y-48104166D01*
X188507813Y-47363333D01*
X188744085Y-47969758D01*
X188797581Y-48042097D01*
X188852860Y-48115061D01*
X188916858Y-48197035D01*
X188981849Y-48276380D01*
X189012301Y-48311429D01*
X189040105Y-48341456D01*
X189064293Y-48365006D01*
X189083899Y-48380624D01*
X189091683Y-48385004D01*
X189097959Y-48386855D01*
X189102607Y-48385995D01*
X189105506Y-48382244D01*
X189113091Y-48366474D01*
X189127301Y-48341069D01*
X189171967Y-48267158D01*
X189232234Y-48172126D01*
X189300835Y-48067588D01*
X189370503Y-47965158D01*
X189433970Y-47876451D01*
X189461107Y-47840874D01*
X189483968Y-47813082D01*
X189501645Y-47794529D01*
X189508256Y-47789171D01*
X189513229Y-47786666D01*
X189518232Y-47787458D01*
X189524924Y-47791713D01*
X189542893Y-47809700D01*
X189566165Y-47838797D01*
X189593770Y-47877174D01*
X189658104Y-47974446D01*
X189728137Y-48086869D01*
X189854269Y-48298598D01*
X189910104Y-48395208D01*
X190254063Y-47998333D01*
X190492188Y-47363333D01*
X190439271Y-48104166D01*
G37*
D11*
X191867227Y-57282826D02*
X191567455Y-57267745D01*
X190962882Y-56405996D01*
X190956002Y-57282032D01*
X190650938Y-57285208D01*
X190650938Y-55882917D01*
X190957061Y-55883974D01*
X191550521Y-56756041D01*
X191550521Y-55882917D01*
X191868021Y-55882917D01*
X191867227Y-57282826D01*
X194725520Y-56438541D02*
X195016563Y-55882917D01*
X195386979Y-55882917D01*
X194857813Y-56782499D01*
X194857813Y-57285208D01*
X194566771Y-57285208D01*
X194563066Y-56786997D01*
X194037604Y-55882917D01*
X194408021Y-55882917D01*
X194725520Y-56438541D01*
D10*
G36*
X188216771Y-49347708D02*
G01*
X185544480Y-48845000D01*
X184830105Y-48157083D01*
X188216771Y-49347708D01*
G37*
D11*
X190107688Y-55883952D02*
X190121899Y-55885810D01*
X190140341Y-55889064D01*
X190162175Y-55894090D01*
X190186563Y-55901264D01*
X190212665Y-55910963D01*
X190226097Y-55916877D01*
X190239643Y-55923563D01*
X190253198Y-55931069D01*
X190266658Y-55939440D01*
X190279917Y-55948726D01*
X190292872Y-55958971D01*
X190305416Y-55970225D01*
X190317445Y-55982532D01*
X190328855Y-55995942D01*
X190339540Y-56010499D01*
X190349395Y-56026253D01*
X190358316Y-56043249D01*
X190366199Y-56061535D01*
X190372937Y-56081158D01*
X190378426Y-56102165D01*
X190382562Y-56124602D01*
X190385240Y-56148518D01*
X190386354Y-56173958D01*
X190393234Y-57018508D01*
X190391643Y-57029671D01*
X190389149Y-57042484D01*
X190385073Y-57059101D01*
X190379077Y-57078761D01*
X190370826Y-57100703D01*
X190359980Y-57124165D01*
X190353480Y-57136228D01*
X190346204Y-57148385D01*
X190338111Y-57160542D01*
X190329160Y-57172602D01*
X190319307Y-57184472D01*
X190308510Y-57196055D01*
X190296728Y-57207256D01*
X190283918Y-57217981D01*
X190270039Y-57228134D01*
X190255047Y-57237620D01*
X190238901Y-57246343D01*
X190221559Y-57254209D01*
X190202978Y-57261122D01*
X190183117Y-57266987D01*
X190161932Y-57271709D01*
X190139383Y-57275192D01*
X190115427Y-57277342D01*
X190090022Y-57278064D01*
X189559796Y-57278593D01*
X189546950Y-57277016D01*
X189532193Y-57274554D01*
X189513035Y-57270540D01*
X189490345Y-57264647D01*
X189464988Y-57256548D01*
X189437832Y-57245916D01*
X189423851Y-57239548D01*
X189409744Y-57232424D01*
X189395622Y-57224503D01*
X189381591Y-57215744D01*
X189367761Y-57206106D01*
X189354240Y-57195549D01*
X189341136Y-57184032D01*
X189328558Y-57171513D01*
X189316614Y-57157953D01*
X189305412Y-57143309D01*
X189295060Y-57127541D01*
X189285668Y-57110608D01*
X189277344Y-57092470D01*
X189270195Y-57073084D01*
X189264330Y-57052412D01*
X189259858Y-57030411D01*
X189256887Y-57007040D01*
X189255526Y-56982260D01*
X189250656Y-56670895D01*
X189248712Y-56413604D01*
X189248646Y-56173958D01*
X189250468Y-56162429D01*
X189253317Y-56149140D01*
X189257964Y-56131832D01*
X189264792Y-56111252D01*
X189274179Y-56088150D01*
X189279952Y-56075886D01*
X189286508Y-56063272D01*
X189293894Y-56050401D01*
X189302158Y-56037367D01*
X189311348Y-56024263D01*
X189321510Y-56011183D01*
X189332694Y-55998221D01*
X189344945Y-55985469D01*
X189358313Y-55973021D01*
X189372843Y-55960971D01*
X189388585Y-55949412D01*
X189405585Y-55938438D01*
X189423892Y-55928142D01*
X189443552Y-55918618D01*
X189464613Y-55909959D01*
X189487124Y-55902259D01*
X189511130Y-55895611D01*
X189536681Y-55890109D01*
X189563823Y-55885847D01*
X189592604Y-55882917D01*
X190095313Y-55882917D01*
X190107688Y-55883952D01*
X187237813Y-56756041D02*
X186867396Y-56756041D01*
X187052604Y-56200416D01*
X187237813Y-56756041D01*
D10*
G36*
X186769765Y-50930181D02*
G01*
X185941355Y-50776458D01*
X188401979Y-49982708D01*
X186769765Y-50930181D01*
G37*
G36*
X193058646Y-50776458D02*
G01*
X192230235Y-50930181D01*
X190598021Y-49982708D01*
X193058646Y-50776458D01*
G37*
G36*
X189567469Y-49313840D02*
G01*
X189568262Y-49922647D01*
X189505556Y-50120556D01*
X189504763Y-50119232D01*
X189427505Y-49929790D01*
X189433854Y-49321249D01*
X189498413Y-49109053D01*
X189567469Y-49313840D01*
G37*
G36*
X189010521Y-49215416D02*
G01*
X189010521Y-49453541D01*
X186637804Y-48626784D01*
X185001761Y-48062073D01*
X184248021Y-47813125D01*
X184249359Y-47818077D01*
X184257346Y-47829374D01*
X184291511Y-47869298D01*
X184420323Y-48006527D01*
X184821572Y-48414986D01*
X185412188Y-49003750D01*
X189036979Y-49612291D01*
X189036979Y-49771041D01*
X185306355Y-49241875D01*
X183427813Y-47257500D01*
X189010521Y-49215416D01*
G37*
D11*
X185847848Y-56173068D02*
X185852334Y-56173470D01*
X185854703Y-56173850D01*
X185857130Y-56174373D01*
X185859595Y-56175054D01*
X185862079Y-56175910D01*
X185864562Y-56176957D01*
X185867024Y-56178212D01*
X185869447Y-56179692D01*
X185871811Y-56181413D01*
X185874096Y-56183391D01*
X185876282Y-56185643D01*
X185878350Y-56188186D01*
X185880281Y-56191036D01*
X185882055Y-56194210D01*
X185883653Y-56197724D01*
X185885054Y-56201594D01*
X185886240Y-56205838D01*
X185887191Y-56210471D01*
X185887887Y-56215511D01*
X185888309Y-56220973D01*
X185888438Y-56226875D01*
X185888438Y-56465000D01*
X185888074Y-56467230D01*
X185887545Y-56469792D01*
X185886718Y-56473119D01*
X185885544Y-56477060D01*
X185883973Y-56481464D01*
X185881956Y-56486181D01*
X185880764Y-56488610D01*
X185879442Y-56491061D01*
X185877984Y-56493515D01*
X185876383Y-56495954D01*
X185874633Y-56498358D01*
X185872728Y-56500708D01*
X185870662Y-56502987D01*
X185868429Y-56505174D01*
X185866022Y-56507252D01*
X185863435Y-56509202D01*
X185860662Y-56511004D01*
X185857697Y-56512640D01*
X185854533Y-56514091D01*
X185851165Y-56515339D01*
X185847586Y-56516364D01*
X185843789Y-56517148D01*
X185839770Y-56517672D01*
X185835521Y-56517916D01*
X185359271Y-56517916D01*
X185359271Y-56173958D01*
X185835521Y-56173958D01*
X185837806Y-56173552D01*
X185840427Y-56173241D01*
X185843827Y-56173036D01*
X185847848Y-56173068D01*
X188683497Y-55894294D02*
X188699450Y-55895217D01*
X188715059Y-55897528D01*
X188730311Y-55901133D01*
X188745197Y-55905940D01*
X188759706Y-55911856D01*
X188773827Y-55918789D01*
X188787550Y-55926644D01*
X188800864Y-55935329D01*
X188813759Y-55944751D01*
X188826224Y-55954818D01*
X188838248Y-55965435D01*
X188849821Y-55976512D01*
X188860933Y-55987954D01*
X188871572Y-55999668D01*
X188891393Y-56023543D01*
X188909198Y-56047392D01*
X188924903Y-56070474D01*
X188938423Y-56092044D01*
X188949675Y-56111360D01*
X188965035Y-56140252D01*
X188970305Y-56151204D01*
X188984063Y-56306250D01*
X188666563Y-56306250D01*
X188666525Y-56307990D01*
X188666463Y-56306481D01*
X188666563Y-56253333D01*
X188666434Y-56246843D01*
X188666012Y-56240712D01*
X188665316Y-56234931D01*
X188664365Y-56229488D01*
X188663179Y-56224374D01*
X188661778Y-56219579D01*
X188660180Y-56215092D01*
X188658406Y-56210904D01*
X188656475Y-56207006D01*
X188654407Y-56203385D01*
X188652221Y-56200034D01*
X188649936Y-56196941D01*
X188647572Y-56194097D01*
X188645149Y-56191491D01*
X188642687Y-56189114D01*
X188640204Y-56186956D01*
X188637720Y-56185006D01*
X188635255Y-56183254D01*
X188632828Y-56181691D01*
X188630459Y-56180306D01*
X188625972Y-56178032D01*
X188621951Y-56176352D01*
X188618552Y-56175184D01*
X188615931Y-56174450D01*
X188613646Y-56173958D01*
X188216771Y-56173958D01*
X188210893Y-56174133D01*
X188205451Y-56174596D01*
X188200429Y-56175327D01*
X188195810Y-56176308D01*
X188191579Y-56177519D01*
X188187718Y-56178940D01*
X188184212Y-56180553D01*
X188181044Y-56182338D01*
X188178198Y-56184276D01*
X188175657Y-56186349D01*
X188173404Y-56188535D01*
X188171425Y-56190818D01*
X188169702Y-56193176D01*
X188168218Y-56195591D01*
X188166958Y-56198044D01*
X188165905Y-56200516D01*
X188165042Y-56202986D01*
X188164354Y-56205437D01*
X188163824Y-56207849D01*
X188163436Y-56210202D01*
X188163018Y-56214655D01*
X188162970Y-56218644D01*
X188163160Y-56222014D01*
X188163458Y-56224612D01*
X188163854Y-56226875D01*
X188163854Y-56941249D01*
X188164059Y-56946173D01*
X188164702Y-56950782D01*
X188165755Y-56955086D01*
X188167189Y-56959096D01*
X188168974Y-56962822D01*
X188171081Y-56966274D01*
X188173481Y-56969463D01*
X188176145Y-56972400D01*
X188179043Y-56975094D01*
X188182147Y-56977557D01*
X188185426Y-56979798D01*
X188188853Y-56981828D01*
X188192397Y-56983658D01*
X188196029Y-56985298D01*
X188199721Y-56986757D01*
X188203443Y-56988048D01*
X188210859Y-56990162D01*
X188218045Y-56991724D01*
X188224766Y-56992818D01*
X188230790Y-56993525D01*
X188239808Y-56994117D01*
X188243229Y-56994166D01*
X188613646Y-56994166D01*
X188618966Y-56993968D01*
X188623920Y-56993485D01*
X188628522Y-56992736D01*
X188632784Y-56991740D01*
X188636719Y-56990517D01*
X188640341Y-56989086D01*
X188643662Y-56987465D01*
X188646694Y-56985675D01*
X188649452Y-56983732D01*
X188651947Y-56981658D01*
X188654192Y-56979471D01*
X188656202Y-56977190D01*
X188657987Y-56974835D01*
X188659562Y-56972423D01*
X188660939Y-56969975D01*
X188662131Y-56967509D01*
X188663151Y-56965045D01*
X188664012Y-56962602D01*
X188664726Y-56960198D01*
X188665307Y-56957853D01*
X188666120Y-56953416D01*
X188666554Y-56949443D01*
X188666713Y-56946087D01*
X188666698Y-56943501D01*
X188666563Y-56941249D01*
X188666563Y-56731700D01*
X188401979Y-56729583D01*
X188401979Y-56491458D01*
X188965806Y-56491191D01*
X188972487Y-56689695D01*
X188975852Y-56863783D01*
X188976087Y-56947940D01*
X188974802Y-57021946D01*
X188973610Y-57038945D01*
X188971180Y-57055273D01*
X188967597Y-57070938D01*
X188962944Y-57085948D01*
X188957305Y-57100312D01*
X188950763Y-57114039D01*
X188943402Y-57127137D01*
X188935305Y-57139615D01*
X188926556Y-57151483D01*
X188917239Y-57162747D01*
X188907437Y-57173418D01*
X188897235Y-57183504D01*
X188886715Y-57193013D01*
X188875961Y-57201954D01*
X188865057Y-57210336D01*
X188854086Y-57218168D01*
X188832280Y-57232214D01*
X188811210Y-57244163D01*
X188791547Y-57254083D01*
X188773959Y-57262043D01*
X188747683Y-57272365D01*
X188737736Y-57275682D01*
X188555868Y-57278328D01*
X188357890Y-57278361D01*
X188114642Y-57274624D01*
X188092387Y-57273383D01*
X188071385Y-57270813D01*
X188051601Y-57267001D01*
X188032999Y-57262039D01*
X188015544Y-57256016D01*
X187999199Y-57249023D01*
X187983928Y-57241148D01*
X187969696Y-57232481D01*
X187956467Y-57223114D01*
X187944204Y-57213134D01*
X187932872Y-57202633D01*
X187922435Y-57191699D01*
X187912858Y-57180424D01*
X187904103Y-57168896D01*
X187896136Y-57157205D01*
X187888920Y-57145442D01*
X187882419Y-57133696D01*
X187876598Y-57122056D01*
X187866851Y-57099457D01*
X187859392Y-57078364D01*
X187853933Y-57059494D01*
X187850186Y-57043566D01*
X187847866Y-57031300D01*
X187846355Y-57020625D01*
X187846355Y-56173958D01*
X187847741Y-56149555D01*
X187850928Y-56126620D01*
X187855794Y-56105106D01*
X187862217Y-56084970D01*
X187870078Y-56066165D01*
X187879255Y-56048646D01*
X187889627Y-56032367D01*
X187901074Y-56017283D01*
X187913474Y-56003349D01*
X187926707Y-55990519D01*
X187940651Y-55978747D01*
X187955185Y-55967989D01*
X187970190Y-55958198D01*
X187985543Y-55949330D01*
X188001125Y-55941339D01*
X188016813Y-55934179D01*
X188048026Y-55922172D01*
X188078217Y-55912945D01*
X188106417Y-55906135D01*
X188131658Y-55901379D01*
X188152975Y-55898312D01*
X188169399Y-55896572D01*
X188183699Y-55895616D01*
X188370693Y-55894061D01*
X188534635Y-55893495D01*
X188683497Y-55894294D01*
X187740521Y-57285208D02*
X187396563Y-57285208D01*
X187317188Y-57020625D01*
X186788021Y-57020625D01*
X186708646Y-57285208D01*
X186371302Y-57282298D01*
X186867396Y-55882917D01*
X187237813Y-55882917D01*
X187740521Y-57285208D01*
X184515515Y-55888208D02*
X184557522Y-55899308D01*
X184577890Y-55905900D01*
X184600640Y-55914751D01*
X184624989Y-55926227D01*
X184637519Y-55933064D01*
X184650155Y-55940695D01*
X184662799Y-55949165D01*
X184675355Y-55958521D01*
X184687723Y-55968808D01*
X184699806Y-55980071D01*
X184711507Y-55992357D01*
X184722727Y-56005712D01*
X184733368Y-56020180D01*
X184743334Y-56035809D01*
X184752525Y-56052643D01*
X184760845Y-56070729D01*
X184768195Y-56090113D01*
X184774478Y-56110839D01*
X184779595Y-56132954D01*
X184783449Y-56156504D01*
X184785943Y-56181534D01*
X184786978Y-56208091D01*
X184795709Y-56977234D01*
X184796092Y-56990370D01*
X184795732Y-57005452D01*
X184794258Y-57025020D01*
X184791111Y-57048184D01*
X184785733Y-57074051D01*
X184782032Y-57087720D01*
X184777563Y-57101730D01*
X184772256Y-57115970D01*
X184766043Y-57130329D01*
X184758851Y-57144694D01*
X184750612Y-57158955D01*
X184741256Y-57173000D01*
X184730713Y-57186717D01*
X184718913Y-57199996D01*
X184705785Y-57212724D01*
X184691261Y-57224790D01*
X184675270Y-57236083D01*
X184657742Y-57246491D01*
X184638608Y-57255903D01*
X184617796Y-57264207D01*
X184595239Y-57271292D01*
X184570865Y-57277046D01*
X184544605Y-57281358D01*
X184516389Y-57284116D01*
X184486146Y-57285209D01*
X183950927Y-57286102D01*
X183665938Y-57285209D01*
X183665938Y-56994166D01*
X183665938Y-56173958D01*
X183956980Y-56173958D01*
X183956980Y-56994166D01*
X184165008Y-56995158D01*
X184317516Y-56995282D01*
X184406771Y-56994166D01*
X184410956Y-56993706D01*
X184415075Y-56992839D01*
X184419123Y-56991593D01*
X184423096Y-56989996D01*
X184426989Y-56988075D01*
X184430799Y-56985859D01*
X184434520Y-56983374D01*
X184438149Y-56980648D01*
X184441681Y-56977709D01*
X184445112Y-56974584D01*
X184448437Y-56971302D01*
X184451652Y-56967889D01*
X184457735Y-56960783D01*
X184463326Y-56953487D01*
X184468390Y-56946222D01*
X184472891Y-56939209D01*
X184476796Y-56932668D01*
X184480069Y-56926822D01*
X184484580Y-56918094D01*
X184486146Y-56914791D01*
X184487436Y-56589188D01*
X184487597Y-56355011D01*
X184486146Y-56226875D01*
X184485616Y-56222417D01*
X184484688Y-56218214D01*
X184483390Y-56214260D01*
X184481748Y-56210548D01*
X184479790Y-56207068D01*
X184477544Y-56203815D01*
X184475036Y-56200781D01*
X184472293Y-56197957D01*
X184469343Y-56195336D01*
X184466212Y-56192912D01*
X184462929Y-56190676D01*
X184459520Y-56188621D01*
X184456012Y-56186740D01*
X184452433Y-56185024D01*
X184445169Y-56182061D01*
X184437945Y-56179671D01*
X184430979Y-56177795D01*
X184424488Y-56176372D01*
X184418690Y-56175343D01*
X184410041Y-56174224D01*
X184406771Y-56173958D01*
X183956980Y-56173958D01*
X183665938Y-56173958D01*
X183665938Y-55882917D01*
X184515515Y-55888208D01*
D10*
G36*
X189804271Y-50432499D02*
G01*
X189498941Y-55104248D01*
X189222188Y-50406041D01*
X189195729Y-50273750D01*
X189433854Y-50750000D01*
X189512171Y-53612527D01*
X189566146Y-50750000D01*
X189830729Y-50273750D01*
X189804271Y-50432499D01*
G37*
D11*
X193111562Y-55882917D02*
X193111562Y-56173958D01*
X192450105Y-56173958D01*
X192450105Y-56465000D01*
X193005729Y-56465000D01*
X193005729Y-56729583D01*
X192450105Y-56729583D01*
X192450105Y-57285208D01*
X192132604Y-57285208D01*
X192140806Y-55879477D01*
X193111562Y-55882917D01*
D10*
G36*
X188613646Y-49850416D02*
G01*
X188394426Y-49889512D01*
X188125932Y-49945922D01*
X187953576Y-49985541D01*
X187756429Y-50033607D01*
X187534952Y-50090749D01*
X187289606Y-50157594D01*
X187020850Y-50234771D01*
X186729147Y-50322908D01*
X186414957Y-50422634D01*
X186078741Y-50534576D01*
X185720960Y-50659364D01*
X185342073Y-50797624D01*
X186788021Y-51146875D01*
X189010521Y-49903333D01*
X189036979Y-50062083D01*
X186867396Y-51384999D01*
X184591980Y-50829375D01*
X187661146Y-49744583D01*
X188613646Y-49850416D01*
G37*
D12*
X122657143Y-75254819D02*
X122657143Y-74254819D01*
X122657143Y-74254819D02*
X122990476Y-74969104D01*
X122990476Y-74969104D02*
X123323809Y-74254819D01*
X123323809Y-74254819D02*
X123323809Y-75254819D01*
X123942857Y-75254819D02*
X123847619Y-75207200D01*
X123847619Y-75207200D02*
X123800000Y-75159580D01*
X123800000Y-75159580D02*
X123752381Y-75064342D01*
X123752381Y-75064342D02*
X123752381Y-74778628D01*
X123752381Y-74778628D02*
X123800000Y-74683390D01*
X123800000Y-74683390D02*
X123847619Y-74635771D01*
X123847619Y-74635771D02*
X123942857Y-74588152D01*
X123942857Y-74588152D02*
X124085714Y-74588152D01*
X124085714Y-74588152D02*
X124180952Y-74635771D01*
X124180952Y-74635771D02*
X124228571Y-74683390D01*
X124228571Y-74683390D02*
X124276190Y-74778628D01*
X124276190Y-74778628D02*
X124276190Y-75064342D01*
X124276190Y-75064342D02*
X124228571Y-75159580D01*
X124228571Y-75159580D02*
X124180952Y-75207200D01*
X124180952Y-75207200D02*
X124085714Y-75254819D01*
X124085714Y-75254819D02*
X123942857Y-75254819D01*
X125133333Y-75254819D02*
X125133333Y-74254819D01*
X125133333Y-75207200D02*
X125038095Y-75254819D01*
X125038095Y-75254819D02*
X124847619Y-75254819D01*
X124847619Y-75254819D02*
X124752381Y-75207200D01*
X124752381Y-75207200D02*
X124704762Y-75159580D01*
X124704762Y-75159580D02*
X124657143Y-75064342D01*
X124657143Y-75064342D02*
X124657143Y-74778628D01*
X124657143Y-74778628D02*
X124704762Y-74683390D01*
X124704762Y-74683390D02*
X124752381Y-74635771D01*
X124752381Y-74635771D02*
X124847619Y-74588152D01*
X124847619Y-74588152D02*
X125038095Y-74588152D01*
X125038095Y-74588152D02*
X125133333Y-74635771D01*
X125990476Y-75207200D02*
X125895238Y-75254819D01*
X125895238Y-75254819D02*
X125704762Y-75254819D01*
X125704762Y-75254819D02*
X125609524Y-75207200D01*
X125609524Y-75207200D02*
X125561905Y-75111961D01*
X125561905Y-75111961D02*
X125561905Y-74731009D01*
X125561905Y-74731009D02*
X125609524Y-74635771D01*
X125609524Y-74635771D02*
X125704762Y-74588152D01*
X125704762Y-74588152D02*
X125895238Y-74588152D01*
X125895238Y-74588152D02*
X125990476Y-74635771D01*
X125990476Y-74635771D02*
X126038095Y-74731009D01*
X126038095Y-74731009D02*
X126038095Y-74826247D01*
X126038095Y-74826247D02*
X125561905Y-74921485D01*
X126990476Y-75254819D02*
X126419048Y-75254819D01*
X126704762Y-75254819D02*
X126704762Y-74254819D01*
X126704762Y-74254819D02*
X126609524Y-74397676D01*
X126609524Y-74397676D02*
X126514286Y-74492914D01*
X126514286Y-74492914D02*
X126419048Y-74540533D01*
X196233333Y-130254819D02*
X195900000Y-129778628D01*
X195661905Y-130254819D02*
X195661905Y-129254819D01*
X195661905Y-129254819D02*
X196042857Y-129254819D01*
X196042857Y-129254819D02*
X196138095Y-129302438D01*
X196138095Y-129302438D02*
X196185714Y-129350057D01*
X196185714Y-129350057D02*
X196233333Y-129445295D01*
X196233333Y-129445295D02*
X196233333Y-129588152D01*
X196233333Y-129588152D02*
X196185714Y-129683390D01*
X196185714Y-129683390D02*
X196138095Y-129731009D01*
X196138095Y-129731009D02*
X196042857Y-129778628D01*
X196042857Y-129778628D02*
X195661905Y-129778628D01*
X197185714Y-130254819D02*
X196614286Y-130254819D01*
X196900000Y-130254819D02*
X196900000Y-129254819D01*
X196900000Y-129254819D02*
X196804762Y-129397676D01*
X196804762Y-129397676D02*
X196709524Y-129492914D01*
X196709524Y-129492914D02*
X196614286Y-129540533D01*
X101190476Y-131006819D02*
X101190476Y-130006819D01*
X101190476Y-130006819D02*
X101571428Y-130006819D01*
X101571428Y-130006819D02*
X101666666Y-130054438D01*
X101666666Y-130054438D02*
X101714285Y-130102057D01*
X101714285Y-130102057D02*
X101761904Y-130197295D01*
X101761904Y-130197295D02*
X101761904Y-130340152D01*
X101761904Y-130340152D02*
X101714285Y-130435390D01*
X101714285Y-130435390D02*
X101666666Y-130483009D01*
X101666666Y-130483009D02*
X101571428Y-130530628D01*
X101571428Y-130530628D02*
X101190476Y-130530628D01*
X102095238Y-130006819D02*
X102333333Y-131006819D01*
X102333333Y-131006819D02*
X102523809Y-130292533D01*
X102523809Y-130292533D02*
X102714285Y-131006819D01*
X102714285Y-131006819D02*
X102952381Y-130006819D01*
X103904761Y-131006819D02*
X103571428Y-130530628D01*
X103333333Y-131006819D02*
X103333333Y-130006819D01*
X103333333Y-130006819D02*
X103714285Y-130006819D01*
X103714285Y-130006819D02*
X103809523Y-130054438D01*
X103809523Y-130054438D02*
X103857142Y-130102057D01*
X103857142Y-130102057D02*
X103904761Y-130197295D01*
X103904761Y-130197295D02*
X103904761Y-130340152D01*
X103904761Y-130340152D02*
X103857142Y-130435390D01*
X103857142Y-130435390D02*
X103809523Y-130483009D01*
X103809523Y-130483009D02*
X103714285Y-130530628D01*
X103714285Y-130530628D02*
X103333333Y-130530628D01*
X104857142Y-131006819D02*
X104285714Y-131006819D01*
X104571428Y-131006819D02*
X104571428Y-130006819D01*
X104571428Y-130006819D02*
X104476190Y-130149676D01*
X104476190Y-130149676D02*
X104380952Y-130244914D01*
X104380952Y-130244914D02*
X104285714Y-130292533D01*
X128247619Y-122054819D02*
X127914286Y-121578628D01*
X127676191Y-122054819D02*
X127676191Y-121054819D01*
X127676191Y-121054819D02*
X128057143Y-121054819D01*
X128057143Y-121054819D02*
X128152381Y-121102438D01*
X128152381Y-121102438D02*
X128200000Y-121150057D01*
X128200000Y-121150057D02*
X128247619Y-121245295D01*
X128247619Y-121245295D02*
X128247619Y-121388152D01*
X128247619Y-121388152D02*
X128200000Y-121483390D01*
X128200000Y-121483390D02*
X128152381Y-121531009D01*
X128152381Y-121531009D02*
X128057143Y-121578628D01*
X128057143Y-121578628D02*
X127676191Y-121578628D01*
X128676191Y-122054819D02*
X128676191Y-121054819D01*
X128676191Y-121531009D02*
X129247619Y-121531009D01*
X129247619Y-122054819D02*
X129247619Y-121054819D01*
X129723810Y-122054819D02*
X129723810Y-121054819D01*
X130723809Y-121102438D02*
X130628571Y-121054819D01*
X130628571Y-121054819D02*
X130485714Y-121054819D01*
X130485714Y-121054819D02*
X130342857Y-121102438D01*
X130342857Y-121102438D02*
X130247619Y-121197676D01*
X130247619Y-121197676D02*
X130200000Y-121292914D01*
X130200000Y-121292914D02*
X130152381Y-121483390D01*
X130152381Y-121483390D02*
X130152381Y-121626247D01*
X130152381Y-121626247D02*
X130200000Y-121816723D01*
X130200000Y-121816723D02*
X130247619Y-121911961D01*
X130247619Y-121911961D02*
X130342857Y-122007200D01*
X130342857Y-122007200D02*
X130485714Y-122054819D01*
X130485714Y-122054819D02*
X130580952Y-122054819D01*
X130580952Y-122054819D02*
X130723809Y-122007200D01*
X130723809Y-122007200D02*
X130771428Y-121959580D01*
X130771428Y-121959580D02*
X130771428Y-121626247D01*
X130771428Y-121626247D02*
X130580952Y-121626247D01*
X131200000Y-122054819D02*
X131200000Y-121054819D01*
X131200000Y-121531009D02*
X131771428Y-121531009D01*
X131771428Y-122054819D02*
X131771428Y-121054819D01*
X127538096Y-120777200D02*
X131909524Y-120777200D01*
X132771428Y-122054819D02*
X132200000Y-122054819D01*
X132485714Y-122054819D02*
X132485714Y-121054819D01*
X132485714Y-121054819D02*
X132390476Y-121197676D01*
X132390476Y-121197676D02*
X132295238Y-121292914D01*
X132295238Y-121292914D02*
X132200000Y-121340533D01*
X183928571Y-133759580D02*
X183880952Y-133807200D01*
X183880952Y-133807200D02*
X183738095Y-133854819D01*
X183738095Y-133854819D02*
X183642857Y-133854819D01*
X183642857Y-133854819D02*
X183500000Y-133807200D01*
X183500000Y-133807200D02*
X183404762Y-133711961D01*
X183404762Y-133711961D02*
X183357143Y-133616723D01*
X183357143Y-133616723D02*
X183309524Y-133426247D01*
X183309524Y-133426247D02*
X183309524Y-133283390D01*
X183309524Y-133283390D02*
X183357143Y-133092914D01*
X183357143Y-133092914D02*
X183404762Y-132997676D01*
X183404762Y-132997676D02*
X183500000Y-132902438D01*
X183500000Y-132902438D02*
X183642857Y-132854819D01*
X183642857Y-132854819D02*
X183738095Y-132854819D01*
X183738095Y-132854819D02*
X183880952Y-132902438D01*
X183880952Y-132902438D02*
X183928571Y-132950057D01*
X184833333Y-133854819D02*
X184357143Y-133854819D01*
X184357143Y-133854819D02*
X184357143Y-132854819D01*
X185166667Y-133854819D02*
X185166667Y-132854819D01*
X185738095Y-133854819D02*
X185309524Y-133283390D01*
X185738095Y-132854819D02*
X185166667Y-133426247D01*
X183219048Y-132577200D02*
X185828572Y-132577200D01*
X186690476Y-133854819D02*
X186119048Y-133854819D01*
X186404762Y-133854819D02*
X186404762Y-132854819D01*
X186404762Y-132854819D02*
X186309524Y-132997676D01*
X186309524Y-132997676D02*
X186214286Y-133092914D01*
X186214286Y-133092914D02*
X186119048Y-133140533D01*
X148454819Y-61511904D02*
X149264342Y-61511904D01*
X149264342Y-61511904D02*
X149359580Y-61464285D01*
X149359580Y-61464285D02*
X149407200Y-61416666D01*
X149407200Y-61416666D02*
X149454819Y-61321428D01*
X149454819Y-61321428D02*
X149454819Y-61130952D01*
X149454819Y-61130952D02*
X149407200Y-61035714D01*
X149407200Y-61035714D02*
X149359580Y-60988095D01*
X149359580Y-60988095D02*
X149264342Y-60940476D01*
X149264342Y-60940476D02*
X148454819Y-60940476D01*
X148883390Y-60321428D02*
X148835771Y-60416666D01*
X148835771Y-60416666D02*
X148788152Y-60464285D01*
X148788152Y-60464285D02*
X148692914Y-60511904D01*
X148692914Y-60511904D02*
X148645295Y-60511904D01*
X148645295Y-60511904D02*
X148550057Y-60464285D01*
X148550057Y-60464285D02*
X148502438Y-60416666D01*
X148502438Y-60416666D02*
X148454819Y-60321428D01*
X148454819Y-60321428D02*
X148454819Y-60130952D01*
X148454819Y-60130952D02*
X148502438Y-60035714D01*
X148502438Y-60035714D02*
X148550057Y-59988095D01*
X148550057Y-59988095D02*
X148645295Y-59940476D01*
X148645295Y-59940476D02*
X148692914Y-59940476D01*
X148692914Y-59940476D02*
X148788152Y-59988095D01*
X148788152Y-59988095D02*
X148835771Y-60035714D01*
X148835771Y-60035714D02*
X148883390Y-60130952D01*
X148883390Y-60130952D02*
X148883390Y-60321428D01*
X148883390Y-60321428D02*
X148931009Y-60416666D01*
X148931009Y-60416666D02*
X148978628Y-60464285D01*
X148978628Y-60464285D02*
X149073866Y-60511904D01*
X149073866Y-60511904D02*
X149264342Y-60511904D01*
X149264342Y-60511904D02*
X149359580Y-60464285D01*
X149359580Y-60464285D02*
X149407200Y-60416666D01*
X149407200Y-60416666D02*
X149454819Y-60321428D01*
X149454819Y-60321428D02*
X149454819Y-60130952D01*
X149454819Y-60130952D02*
X149407200Y-60035714D01*
X149407200Y-60035714D02*
X149359580Y-59988095D01*
X149359580Y-59988095D02*
X149264342Y-59940476D01*
X149264342Y-59940476D02*
X149073866Y-59940476D01*
X149073866Y-59940476D02*
X148978628Y-59988095D01*
X148978628Y-59988095D02*
X148931009Y-60035714D01*
X148931009Y-60035714D02*
X148883390Y-60130952D01*
X116400000Y-130554819D02*
X117066666Y-130554819D01*
X117066666Y-130554819D02*
X116400000Y-131554819D01*
X116400000Y-131554819D02*
X117066666Y-131554819D01*
X117828571Y-131507200D02*
X117733333Y-131554819D01*
X117733333Y-131554819D02*
X117542857Y-131554819D01*
X117542857Y-131554819D02*
X117447619Y-131507200D01*
X117447619Y-131507200D02*
X117400000Y-131411961D01*
X117400000Y-131411961D02*
X117400000Y-131031009D01*
X117400000Y-131031009D02*
X117447619Y-130935771D01*
X117447619Y-130935771D02*
X117542857Y-130888152D01*
X117542857Y-130888152D02*
X117733333Y-130888152D01*
X117733333Y-130888152D02*
X117828571Y-130935771D01*
X117828571Y-130935771D02*
X117876190Y-131031009D01*
X117876190Y-131031009D02*
X117876190Y-131126247D01*
X117876190Y-131126247D02*
X117400000Y-131221485D01*
X118304762Y-131554819D02*
X118304762Y-130888152D01*
X118304762Y-131078628D02*
X118352381Y-130983390D01*
X118352381Y-130983390D02*
X118400000Y-130935771D01*
X118400000Y-130935771D02*
X118495238Y-130888152D01*
X118495238Y-130888152D02*
X118590476Y-130888152D01*
X119066667Y-131554819D02*
X118971429Y-131507200D01*
X118971429Y-131507200D02*
X118923810Y-131459580D01*
X118923810Y-131459580D02*
X118876191Y-131364342D01*
X118876191Y-131364342D02*
X118876191Y-131078628D01*
X118876191Y-131078628D02*
X118923810Y-130983390D01*
X118923810Y-130983390D02*
X118971429Y-130935771D01*
X118971429Y-130935771D02*
X119066667Y-130888152D01*
X119066667Y-130888152D02*
X119209524Y-130888152D01*
X119209524Y-130888152D02*
X119304762Y-130935771D01*
X119304762Y-130935771D02*
X119352381Y-130983390D01*
X119352381Y-130983390D02*
X119400000Y-131078628D01*
X119400000Y-131078628D02*
X119400000Y-131364342D01*
X119400000Y-131364342D02*
X119352381Y-131459580D01*
X119352381Y-131459580D02*
X119304762Y-131507200D01*
X119304762Y-131507200D02*
X119209524Y-131554819D01*
X119209524Y-131554819D02*
X119066667Y-131554819D01*
X120352381Y-131554819D02*
X119780953Y-131554819D01*
X120066667Y-131554819D02*
X120066667Y-130554819D01*
X120066667Y-130554819D02*
X119971429Y-130697676D01*
X119971429Y-130697676D02*
X119876191Y-130792914D01*
X119876191Y-130792914D02*
X119780953Y-130840533D01*
X123433333Y-128434580D02*
X123385714Y-128482200D01*
X123385714Y-128482200D02*
X123242857Y-128529819D01*
X123242857Y-128529819D02*
X123147619Y-128529819D01*
X123147619Y-128529819D02*
X123004762Y-128482200D01*
X123004762Y-128482200D02*
X122909524Y-128386961D01*
X122909524Y-128386961D02*
X122861905Y-128291723D01*
X122861905Y-128291723D02*
X122814286Y-128101247D01*
X122814286Y-128101247D02*
X122814286Y-127958390D01*
X122814286Y-127958390D02*
X122861905Y-127767914D01*
X122861905Y-127767914D02*
X122909524Y-127672676D01*
X122909524Y-127672676D02*
X123004762Y-127577438D01*
X123004762Y-127577438D02*
X123147619Y-127529819D01*
X123147619Y-127529819D02*
X123242857Y-127529819D01*
X123242857Y-127529819D02*
X123385714Y-127577438D01*
X123385714Y-127577438D02*
X123433333Y-127625057D01*
X124004762Y-127958390D02*
X123909524Y-127910771D01*
X123909524Y-127910771D02*
X123861905Y-127863152D01*
X123861905Y-127863152D02*
X123814286Y-127767914D01*
X123814286Y-127767914D02*
X123814286Y-127720295D01*
X123814286Y-127720295D02*
X123861905Y-127625057D01*
X123861905Y-127625057D02*
X123909524Y-127577438D01*
X123909524Y-127577438D02*
X124004762Y-127529819D01*
X124004762Y-127529819D02*
X124195238Y-127529819D01*
X124195238Y-127529819D02*
X124290476Y-127577438D01*
X124290476Y-127577438D02*
X124338095Y-127625057D01*
X124338095Y-127625057D02*
X124385714Y-127720295D01*
X124385714Y-127720295D02*
X124385714Y-127767914D01*
X124385714Y-127767914D02*
X124338095Y-127863152D01*
X124338095Y-127863152D02*
X124290476Y-127910771D01*
X124290476Y-127910771D02*
X124195238Y-127958390D01*
X124195238Y-127958390D02*
X124004762Y-127958390D01*
X124004762Y-127958390D02*
X123909524Y-128006009D01*
X123909524Y-128006009D02*
X123861905Y-128053628D01*
X123861905Y-128053628D02*
X123814286Y-128148866D01*
X123814286Y-128148866D02*
X123814286Y-128339342D01*
X123814286Y-128339342D02*
X123861905Y-128434580D01*
X123861905Y-128434580D02*
X123909524Y-128482200D01*
X123909524Y-128482200D02*
X124004762Y-128529819D01*
X124004762Y-128529819D02*
X124195238Y-128529819D01*
X124195238Y-128529819D02*
X124290476Y-128482200D01*
X124290476Y-128482200D02*
X124338095Y-128434580D01*
X124338095Y-128434580D02*
X124385714Y-128339342D01*
X124385714Y-128339342D02*
X124385714Y-128148866D01*
X124385714Y-128148866D02*
X124338095Y-128053628D01*
X124338095Y-128053628D02*
X124290476Y-128006009D01*
X124290476Y-128006009D02*
X124195238Y-127958390D01*
X144638095Y-91607200D02*
X144780952Y-91654819D01*
X144780952Y-91654819D02*
X145019047Y-91654819D01*
X145019047Y-91654819D02*
X145114285Y-91607200D01*
X145114285Y-91607200D02*
X145161904Y-91559580D01*
X145161904Y-91559580D02*
X145209523Y-91464342D01*
X145209523Y-91464342D02*
X145209523Y-91369104D01*
X145209523Y-91369104D02*
X145161904Y-91273866D01*
X145161904Y-91273866D02*
X145114285Y-91226247D01*
X145114285Y-91226247D02*
X145019047Y-91178628D01*
X145019047Y-91178628D02*
X144828571Y-91131009D01*
X144828571Y-91131009D02*
X144733333Y-91083390D01*
X144733333Y-91083390D02*
X144685714Y-91035771D01*
X144685714Y-91035771D02*
X144638095Y-90940533D01*
X144638095Y-90940533D02*
X144638095Y-90845295D01*
X144638095Y-90845295D02*
X144685714Y-90750057D01*
X144685714Y-90750057D02*
X144733333Y-90702438D01*
X144733333Y-90702438D02*
X144828571Y-90654819D01*
X144828571Y-90654819D02*
X145066666Y-90654819D01*
X145066666Y-90654819D02*
X145209523Y-90702438D01*
X145542857Y-90654819D02*
X146161904Y-90654819D01*
X146161904Y-90654819D02*
X145828571Y-91035771D01*
X145828571Y-91035771D02*
X145971428Y-91035771D01*
X145971428Y-91035771D02*
X146066666Y-91083390D01*
X146066666Y-91083390D02*
X146114285Y-91131009D01*
X146114285Y-91131009D02*
X146161904Y-91226247D01*
X146161904Y-91226247D02*
X146161904Y-91464342D01*
X146161904Y-91464342D02*
X146114285Y-91559580D01*
X146114285Y-91559580D02*
X146066666Y-91607200D01*
X146066666Y-91607200D02*
X145971428Y-91654819D01*
X145971428Y-91654819D02*
X145685714Y-91654819D01*
X145685714Y-91654819D02*
X145590476Y-91607200D01*
X145590476Y-91607200D02*
X145542857Y-91559580D01*
X102488095Y-126407200D02*
X102630952Y-126454819D01*
X102630952Y-126454819D02*
X102869047Y-126454819D01*
X102869047Y-126454819D02*
X102964285Y-126407200D01*
X102964285Y-126407200D02*
X103011904Y-126359580D01*
X103011904Y-126359580D02*
X103059523Y-126264342D01*
X103059523Y-126264342D02*
X103059523Y-126169104D01*
X103059523Y-126169104D02*
X103011904Y-126073866D01*
X103011904Y-126073866D02*
X102964285Y-126026247D01*
X102964285Y-126026247D02*
X102869047Y-125978628D01*
X102869047Y-125978628D02*
X102678571Y-125931009D01*
X102678571Y-125931009D02*
X102583333Y-125883390D01*
X102583333Y-125883390D02*
X102535714Y-125835771D01*
X102535714Y-125835771D02*
X102488095Y-125740533D01*
X102488095Y-125740533D02*
X102488095Y-125645295D01*
X102488095Y-125645295D02*
X102535714Y-125550057D01*
X102535714Y-125550057D02*
X102583333Y-125502438D01*
X102583333Y-125502438D02*
X102678571Y-125454819D01*
X102678571Y-125454819D02*
X102916666Y-125454819D01*
X102916666Y-125454819D02*
X103059523Y-125502438D01*
X104011904Y-126454819D02*
X103440476Y-126454819D01*
X103726190Y-126454819D02*
X103726190Y-125454819D01*
X103726190Y-125454819D02*
X103630952Y-125597676D01*
X103630952Y-125597676D02*
X103535714Y-125692914D01*
X103535714Y-125692914D02*
X103440476Y-125740533D01*
X145676190Y-97754819D02*
X145342857Y-97278628D01*
X145104762Y-97754819D02*
X145104762Y-96754819D01*
X145104762Y-96754819D02*
X145485714Y-96754819D01*
X145485714Y-96754819D02*
X145580952Y-96802438D01*
X145580952Y-96802438D02*
X145628571Y-96850057D01*
X145628571Y-96850057D02*
X145676190Y-96945295D01*
X145676190Y-96945295D02*
X145676190Y-97088152D01*
X145676190Y-97088152D02*
X145628571Y-97183390D01*
X145628571Y-97183390D02*
X145580952Y-97231009D01*
X145580952Y-97231009D02*
X145485714Y-97278628D01*
X145485714Y-97278628D02*
X145104762Y-97278628D01*
X146057143Y-97469104D02*
X146533333Y-97469104D01*
X145961905Y-97754819D02*
X146295238Y-96754819D01*
X146295238Y-96754819D02*
X146628571Y-97754819D01*
X147438095Y-97754819D02*
X146961905Y-97754819D01*
X146961905Y-97754819D02*
X146961905Y-96754819D01*
X147771429Y-96754819D02*
X147771429Y-97564342D01*
X147771429Y-97564342D02*
X147819048Y-97659580D01*
X147819048Y-97659580D02*
X147866667Y-97707200D01*
X147866667Y-97707200D02*
X147961905Y-97754819D01*
X147961905Y-97754819D02*
X148152381Y-97754819D01*
X148152381Y-97754819D02*
X148247619Y-97707200D01*
X148247619Y-97707200D02*
X148295238Y-97659580D01*
X148295238Y-97659580D02*
X148342857Y-97564342D01*
X148342857Y-97564342D02*
X148342857Y-96754819D01*
X144966667Y-96477200D02*
X148480953Y-96477200D01*
X149342857Y-97754819D02*
X148771429Y-97754819D01*
X149057143Y-97754819D02*
X149057143Y-96754819D01*
X149057143Y-96754819D02*
X148961905Y-96897676D01*
X148961905Y-96897676D02*
X148866667Y-96992914D01*
X148866667Y-96992914D02*
X148771429Y-97040533D01*
X149859580Y-118166666D02*
X149907200Y-118214285D01*
X149907200Y-118214285D02*
X149954819Y-118357142D01*
X149954819Y-118357142D02*
X149954819Y-118452380D01*
X149954819Y-118452380D02*
X149907200Y-118595237D01*
X149907200Y-118595237D02*
X149811961Y-118690475D01*
X149811961Y-118690475D02*
X149716723Y-118738094D01*
X149716723Y-118738094D02*
X149526247Y-118785713D01*
X149526247Y-118785713D02*
X149383390Y-118785713D01*
X149383390Y-118785713D02*
X149192914Y-118738094D01*
X149192914Y-118738094D02*
X149097676Y-118690475D01*
X149097676Y-118690475D02*
X149002438Y-118595237D01*
X149002438Y-118595237D02*
X148954819Y-118452380D01*
X148954819Y-118452380D02*
X148954819Y-118357142D01*
X148954819Y-118357142D02*
X149002438Y-118214285D01*
X149002438Y-118214285D02*
X149050057Y-118166666D01*
X148954819Y-117261904D02*
X148954819Y-117738094D01*
X148954819Y-117738094D02*
X149431009Y-117785713D01*
X149431009Y-117785713D02*
X149383390Y-117738094D01*
X149383390Y-117738094D02*
X149335771Y-117642856D01*
X149335771Y-117642856D02*
X149335771Y-117404761D01*
X149335771Y-117404761D02*
X149383390Y-117309523D01*
X149383390Y-117309523D02*
X149431009Y-117261904D01*
X149431009Y-117261904D02*
X149526247Y-117214285D01*
X149526247Y-117214285D02*
X149764342Y-117214285D01*
X149764342Y-117214285D02*
X149859580Y-117261904D01*
X149859580Y-117261904D02*
X149907200Y-117309523D01*
X149907200Y-117309523D02*
X149954819Y-117404761D01*
X149954819Y-117404761D02*
X149954819Y-117642856D01*
X149954819Y-117642856D02*
X149907200Y-117738094D01*
X149907200Y-117738094D02*
X149859580Y-117785713D01*
X127454819Y-118431904D02*
X128264342Y-118431904D01*
X128264342Y-118431904D02*
X128359580Y-118384285D01*
X128359580Y-118384285D02*
X128407200Y-118336666D01*
X128407200Y-118336666D02*
X128454819Y-118241428D01*
X128454819Y-118241428D02*
X128454819Y-118050952D01*
X128454819Y-118050952D02*
X128407200Y-117955714D01*
X128407200Y-117955714D02*
X128359580Y-117908095D01*
X128359580Y-117908095D02*
X128264342Y-117860476D01*
X128264342Y-117860476D02*
X127454819Y-117860476D01*
X128454819Y-117336666D02*
X128454819Y-117146190D01*
X128454819Y-117146190D02*
X128407200Y-117050952D01*
X128407200Y-117050952D02*
X128359580Y-117003333D01*
X128359580Y-117003333D02*
X128216723Y-116908095D01*
X128216723Y-116908095D02*
X128026247Y-116860476D01*
X128026247Y-116860476D02*
X127645295Y-116860476D01*
X127645295Y-116860476D02*
X127550057Y-116908095D01*
X127550057Y-116908095D02*
X127502438Y-116955714D01*
X127502438Y-116955714D02*
X127454819Y-117050952D01*
X127454819Y-117050952D02*
X127454819Y-117241428D01*
X127454819Y-117241428D02*
X127502438Y-117336666D01*
X127502438Y-117336666D02*
X127550057Y-117384285D01*
X127550057Y-117384285D02*
X127645295Y-117431904D01*
X127645295Y-117431904D02*
X127883390Y-117431904D01*
X127883390Y-117431904D02*
X127978628Y-117384285D01*
X127978628Y-117384285D02*
X128026247Y-117336666D01*
X128026247Y-117336666D02*
X128073866Y-117241428D01*
X128073866Y-117241428D02*
X128073866Y-117050952D01*
X128073866Y-117050952D02*
X128026247Y-116955714D01*
X128026247Y-116955714D02*
X127978628Y-116908095D01*
X127978628Y-116908095D02*
X127883390Y-116860476D01*
X148454819Y-79261904D02*
X149264342Y-79261904D01*
X149264342Y-79261904D02*
X149359580Y-79214285D01*
X149359580Y-79214285D02*
X149407200Y-79166666D01*
X149407200Y-79166666D02*
X149454819Y-79071428D01*
X149454819Y-79071428D02*
X149454819Y-78880952D01*
X149454819Y-78880952D02*
X149407200Y-78785714D01*
X149407200Y-78785714D02*
X149359580Y-78738095D01*
X149359580Y-78738095D02*
X149264342Y-78690476D01*
X149264342Y-78690476D02*
X148454819Y-78690476D01*
X148454819Y-78309523D02*
X148454819Y-77642857D01*
X148454819Y-77642857D02*
X149454819Y-78071428D01*
X147083333Y-52059580D02*
X147035714Y-52107200D01*
X147035714Y-52107200D02*
X146892857Y-52154819D01*
X146892857Y-52154819D02*
X146797619Y-52154819D01*
X146797619Y-52154819D02*
X146654762Y-52107200D01*
X146654762Y-52107200D02*
X146559524Y-52011961D01*
X146559524Y-52011961D02*
X146511905Y-51916723D01*
X146511905Y-51916723D02*
X146464286Y-51726247D01*
X146464286Y-51726247D02*
X146464286Y-51583390D01*
X146464286Y-51583390D02*
X146511905Y-51392914D01*
X146511905Y-51392914D02*
X146559524Y-51297676D01*
X146559524Y-51297676D02*
X146654762Y-51202438D01*
X146654762Y-51202438D02*
X146797619Y-51154819D01*
X146797619Y-51154819D02*
X146892857Y-51154819D01*
X146892857Y-51154819D02*
X147035714Y-51202438D01*
X147035714Y-51202438D02*
X147083333Y-51250057D01*
X148035714Y-52154819D02*
X147464286Y-52154819D01*
X147750000Y-52154819D02*
X147750000Y-51154819D01*
X147750000Y-51154819D02*
X147654762Y-51297676D01*
X147654762Y-51297676D02*
X147559524Y-51392914D01*
X147559524Y-51392914D02*
X147464286Y-51440533D01*
X104557142Y-129559580D02*
X104509523Y-129607200D01*
X104509523Y-129607200D02*
X104366666Y-129654819D01*
X104366666Y-129654819D02*
X104271428Y-129654819D01*
X104271428Y-129654819D02*
X104128571Y-129607200D01*
X104128571Y-129607200D02*
X104033333Y-129511961D01*
X104033333Y-129511961D02*
X103985714Y-129416723D01*
X103985714Y-129416723D02*
X103938095Y-129226247D01*
X103938095Y-129226247D02*
X103938095Y-129083390D01*
X103938095Y-129083390D02*
X103985714Y-128892914D01*
X103985714Y-128892914D02*
X104033333Y-128797676D01*
X104033333Y-128797676D02*
X104128571Y-128702438D01*
X104128571Y-128702438D02*
X104271428Y-128654819D01*
X104271428Y-128654819D02*
X104366666Y-128654819D01*
X104366666Y-128654819D02*
X104509523Y-128702438D01*
X104509523Y-128702438D02*
X104557142Y-128750057D01*
X105509523Y-129654819D02*
X104938095Y-129654819D01*
X105223809Y-129654819D02*
X105223809Y-128654819D01*
X105223809Y-128654819D02*
X105128571Y-128797676D01*
X105128571Y-128797676D02*
X105033333Y-128892914D01*
X105033333Y-128892914D02*
X104938095Y-128940533D01*
X106461904Y-129654819D02*
X105890476Y-129654819D01*
X106176190Y-129654819D02*
X106176190Y-128654819D01*
X106176190Y-128654819D02*
X106080952Y-128797676D01*
X106080952Y-128797676D02*
X105985714Y-128892914D01*
X105985714Y-128892914D02*
X105890476Y-128940533D01*
X140897142Y-66219580D02*
X140849523Y-66267200D01*
X140849523Y-66267200D02*
X140706666Y-66314819D01*
X140706666Y-66314819D02*
X140611428Y-66314819D01*
X140611428Y-66314819D02*
X140468571Y-66267200D01*
X140468571Y-66267200D02*
X140373333Y-66171961D01*
X140373333Y-66171961D02*
X140325714Y-66076723D01*
X140325714Y-66076723D02*
X140278095Y-65886247D01*
X140278095Y-65886247D02*
X140278095Y-65743390D01*
X140278095Y-65743390D02*
X140325714Y-65552914D01*
X140325714Y-65552914D02*
X140373333Y-65457676D01*
X140373333Y-65457676D02*
X140468571Y-65362438D01*
X140468571Y-65362438D02*
X140611428Y-65314819D01*
X140611428Y-65314819D02*
X140706666Y-65314819D01*
X140706666Y-65314819D02*
X140849523Y-65362438D01*
X140849523Y-65362438D02*
X140897142Y-65410057D01*
X141849523Y-66314819D02*
X141278095Y-66314819D01*
X141563809Y-66314819D02*
X141563809Y-65314819D01*
X141563809Y-65314819D02*
X141468571Y-65457676D01*
X141468571Y-65457676D02*
X141373333Y-65552914D01*
X141373333Y-65552914D02*
X141278095Y-65600533D01*
X142468571Y-65314819D02*
X142563809Y-65314819D01*
X142563809Y-65314819D02*
X142659047Y-65362438D01*
X142659047Y-65362438D02*
X142706666Y-65410057D01*
X142706666Y-65410057D02*
X142754285Y-65505295D01*
X142754285Y-65505295D02*
X142801904Y-65695771D01*
X142801904Y-65695771D02*
X142801904Y-65933866D01*
X142801904Y-65933866D02*
X142754285Y-66124342D01*
X142754285Y-66124342D02*
X142706666Y-66219580D01*
X142706666Y-66219580D02*
X142659047Y-66267200D01*
X142659047Y-66267200D02*
X142563809Y-66314819D01*
X142563809Y-66314819D02*
X142468571Y-66314819D01*
X142468571Y-66314819D02*
X142373333Y-66267200D01*
X142373333Y-66267200D02*
X142325714Y-66219580D01*
X142325714Y-66219580D02*
X142278095Y-66124342D01*
X142278095Y-66124342D02*
X142230476Y-65933866D01*
X142230476Y-65933866D02*
X142230476Y-65695771D01*
X142230476Y-65695771D02*
X142278095Y-65505295D01*
X142278095Y-65505295D02*
X142325714Y-65410057D01*
X142325714Y-65410057D02*
X142373333Y-65362438D01*
X142373333Y-65362438D02*
X142468571Y-65314819D01*
X147958333Y-87834580D02*
X147910714Y-87882200D01*
X147910714Y-87882200D02*
X147767857Y-87929819D01*
X147767857Y-87929819D02*
X147672619Y-87929819D01*
X147672619Y-87929819D02*
X147529762Y-87882200D01*
X147529762Y-87882200D02*
X147434524Y-87786961D01*
X147434524Y-87786961D02*
X147386905Y-87691723D01*
X147386905Y-87691723D02*
X147339286Y-87501247D01*
X147339286Y-87501247D02*
X147339286Y-87358390D01*
X147339286Y-87358390D02*
X147386905Y-87167914D01*
X147386905Y-87167914D02*
X147434524Y-87072676D01*
X147434524Y-87072676D02*
X147529762Y-86977438D01*
X147529762Y-86977438D02*
X147672619Y-86929819D01*
X147672619Y-86929819D02*
X147767857Y-86929819D01*
X147767857Y-86929819D02*
X147910714Y-86977438D01*
X147910714Y-86977438D02*
X147958333Y-87025057D01*
X148291667Y-86929819D02*
X148910714Y-86929819D01*
X148910714Y-86929819D02*
X148577381Y-87310771D01*
X148577381Y-87310771D02*
X148720238Y-87310771D01*
X148720238Y-87310771D02*
X148815476Y-87358390D01*
X148815476Y-87358390D02*
X148863095Y-87406009D01*
X148863095Y-87406009D02*
X148910714Y-87501247D01*
X148910714Y-87501247D02*
X148910714Y-87739342D01*
X148910714Y-87739342D02*
X148863095Y-87834580D01*
X148863095Y-87834580D02*
X148815476Y-87882200D01*
X148815476Y-87882200D02*
X148720238Y-87929819D01*
X148720238Y-87929819D02*
X148434524Y-87929819D01*
X148434524Y-87929819D02*
X148339286Y-87882200D01*
X148339286Y-87882200D02*
X148291667Y-87834580D01*
X110995238Y-124207200D02*
X111138095Y-124254819D01*
X111138095Y-124254819D02*
X111376190Y-124254819D01*
X111376190Y-124254819D02*
X111471428Y-124207200D01*
X111471428Y-124207200D02*
X111519047Y-124159580D01*
X111519047Y-124159580D02*
X111566666Y-124064342D01*
X111566666Y-124064342D02*
X111566666Y-123969104D01*
X111566666Y-123969104D02*
X111519047Y-123873866D01*
X111519047Y-123873866D02*
X111471428Y-123826247D01*
X111471428Y-123826247D02*
X111376190Y-123778628D01*
X111376190Y-123778628D02*
X111185714Y-123731009D01*
X111185714Y-123731009D02*
X111090476Y-123683390D01*
X111090476Y-123683390D02*
X111042857Y-123635771D01*
X111042857Y-123635771D02*
X110995238Y-123540533D01*
X110995238Y-123540533D02*
X110995238Y-123445295D01*
X110995238Y-123445295D02*
X111042857Y-123350057D01*
X111042857Y-123350057D02*
X111090476Y-123302438D01*
X111090476Y-123302438D02*
X111185714Y-123254819D01*
X111185714Y-123254819D02*
X111423809Y-123254819D01*
X111423809Y-123254819D02*
X111566666Y-123302438D01*
X111995238Y-124254819D02*
X111995238Y-123588152D01*
X111995238Y-123254819D02*
X111947619Y-123302438D01*
X111947619Y-123302438D02*
X111995238Y-123350057D01*
X111995238Y-123350057D02*
X112042857Y-123302438D01*
X112042857Y-123302438D02*
X111995238Y-123254819D01*
X111995238Y-123254819D02*
X111995238Y-123350057D01*
X112899999Y-123588152D02*
X112899999Y-124397676D01*
X112899999Y-124397676D02*
X112852380Y-124492914D01*
X112852380Y-124492914D02*
X112804761Y-124540533D01*
X112804761Y-124540533D02*
X112709523Y-124588152D01*
X112709523Y-124588152D02*
X112566666Y-124588152D01*
X112566666Y-124588152D02*
X112471428Y-124540533D01*
X112899999Y-124207200D02*
X112804761Y-124254819D01*
X112804761Y-124254819D02*
X112614285Y-124254819D01*
X112614285Y-124254819D02*
X112519047Y-124207200D01*
X112519047Y-124207200D02*
X112471428Y-124159580D01*
X112471428Y-124159580D02*
X112423809Y-124064342D01*
X112423809Y-124064342D02*
X112423809Y-123778628D01*
X112423809Y-123778628D02*
X112471428Y-123683390D01*
X112471428Y-123683390D02*
X112519047Y-123635771D01*
X112519047Y-123635771D02*
X112614285Y-123588152D01*
X112614285Y-123588152D02*
X112804761Y-123588152D01*
X112804761Y-123588152D02*
X112899999Y-123635771D01*
X113376190Y-123588152D02*
X113376190Y-124254819D01*
X113376190Y-123683390D02*
X113423809Y-123635771D01*
X113423809Y-123635771D02*
X113519047Y-123588152D01*
X113519047Y-123588152D02*
X113661904Y-123588152D01*
X113661904Y-123588152D02*
X113757142Y-123635771D01*
X113757142Y-123635771D02*
X113804761Y-123731009D01*
X113804761Y-123731009D02*
X113804761Y-124254819D01*
X114804761Y-124254819D02*
X114233333Y-124254819D01*
X114519047Y-124254819D02*
X114519047Y-123254819D01*
X114519047Y-123254819D02*
X114423809Y-123397676D01*
X114423809Y-123397676D02*
X114328571Y-123492914D01*
X114328571Y-123492914D02*
X114233333Y-123540533D01*
X148204819Y-128511904D02*
X149014342Y-128511904D01*
X149014342Y-128511904D02*
X149109580Y-128464285D01*
X149109580Y-128464285D02*
X149157200Y-128416666D01*
X149157200Y-128416666D02*
X149204819Y-128321428D01*
X149204819Y-128321428D02*
X149204819Y-128130952D01*
X149204819Y-128130952D02*
X149157200Y-128035714D01*
X149157200Y-128035714D02*
X149109580Y-127988095D01*
X149109580Y-127988095D02*
X149014342Y-127940476D01*
X149014342Y-127940476D02*
X148204819Y-127940476D01*
X149204819Y-126940476D02*
X149204819Y-127511904D01*
X149204819Y-127226190D02*
X148204819Y-127226190D01*
X148204819Y-127226190D02*
X148347676Y-127321428D01*
X148347676Y-127321428D02*
X148442914Y-127416666D01*
X148442914Y-127416666D02*
X148490533Y-127511904D01*
X104580951Y-92161580D02*
X104533332Y-92209200D01*
X104533332Y-92209200D02*
X104390475Y-92256819D01*
X104390475Y-92256819D02*
X104295237Y-92256819D01*
X104295237Y-92256819D02*
X104152380Y-92209200D01*
X104152380Y-92209200D02*
X104057142Y-92113961D01*
X104057142Y-92113961D02*
X104009523Y-92018723D01*
X104009523Y-92018723D02*
X103961904Y-91828247D01*
X103961904Y-91828247D02*
X103961904Y-91685390D01*
X103961904Y-91685390D02*
X104009523Y-91494914D01*
X104009523Y-91494914D02*
X104057142Y-91399676D01*
X104057142Y-91399676D02*
X104152380Y-91304438D01*
X104152380Y-91304438D02*
X104295237Y-91256819D01*
X104295237Y-91256819D02*
X104390475Y-91256819D01*
X104390475Y-91256819D02*
X104533332Y-91304438D01*
X104533332Y-91304438D02*
X104580951Y-91352057D01*
X105438094Y-92256819D02*
X105438094Y-91733009D01*
X105438094Y-91733009D02*
X105390475Y-91637771D01*
X105390475Y-91637771D02*
X105295237Y-91590152D01*
X105295237Y-91590152D02*
X105104761Y-91590152D01*
X105104761Y-91590152D02*
X105009523Y-91637771D01*
X105438094Y-92209200D02*
X105342856Y-92256819D01*
X105342856Y-92256819D02*
X105104761Y-92256819D01*
X105104761Y-92256819D02*
X105009523Y-92209200D01*
X105009523Y-92209200D02*
X104961904Y-92113961D01*
X104961904Y-92113961D02*
X104961904Y-92018723D01*
X104961904Y-92018723D02*
X105009523Y-91923485D01*
X105009523Y-91923485D02*
X105104761Y-91875866D01*
X105104761Y-91875866D02*
X105342856Y-91875866D01*
X105342856Y-91875866D02*
X105438094Y-91828247D01*
X105914285Y-92256819D02*
X105914285Y-91590152D01*
X105914285Y-91780628D02*
X105961904Y-91685390D01*
X105961904Y-91685390D02*
X106009523Y-91637771D01*
X106009523Y-91637771D02*
X106104761Y-91590152D01*
X106104761Y-91590152D02*
X106199999Y-91590152D01*
X106533333Y-92256819D02*
X106533333Y-91590152D01*
X106533333Y-91780628D02*
X106580952Y-91685390D01*
X106580952Y-91685390D02*
X106628571Y-91637771D01*
X106628571Y-91637771D02*
X106723809Y-91590152D01*
X106723809Y-91590152D02*
X106819047Y-91590152D01*
X107057143Y-91590152D02*
X107295238Y-92256819D01*
X107533333Y-91590152D02*
X107295238Y-92256819D01*
X107295238Y-92256819D02*
X107200000Y-92494914D01*
X107200000Y-92494914D02*
X107152381Y-92542533D01*
X107152381Y-92542533D02*
X107057143Y-92590152D01*
X103871428Y-90979200D02*
X107576191Y-90979200D01*
X108438095Y-92256819D02*
X107866667Y-92256819D01*
X108152381Y-92256819D02*
X108152381Y-91256819D01*
X108152381Y-91256819D02*
X108057143Y-91399676D01*
X108057143Y-91399676D02*
X107961905Y-91494914D01*
X107961905Y-91494914D02*
X107866667Y-91542533D01*
X146508333Y-83009580D02*
X146460714Y-83057200D01*
X146460714Y-83057200D02*
X146317857Y-83104819D01*
X146317857Y-83104819D02*
X146222619Y-83104819D01*
X146222619Y-83104819D02*
X146079762Y-83057200D01*
X146079762Y-83057200D02*
X145984524Y-82961961D01*
X145984524Y-82961961D02*
X145936905Y-82866723D01*
X145936905Y-82866723D02*
X145889286Y-82676247D01*
X145889286Y-82676247D02*
X145889286Y-82533390D01*
X145889286Y-82533390D02*
X145936905Y-82342914D01*
X145936905Y-82342914D02*
X145984524Y-82247676D01*
X145984524Y-82247676D02*
X146079762Y-82152438D01*
X146079762Y-82152438D02*
X146222619Y-82104819D01*
X146222619Y-82104819D02*
X146317857Y-82104819D01*
X146317857Y-82104819D02*
X146460714Y-82152438D01*
X146460714Y-82152438D02*
X146508333Y-82200057D01*
X146889286Y-82200057D02*
X146936905Y-82152438D01*
X146936905Y-82152438D02*
X147032143Y-82104819D01*
X147032143Y-82104819D02*
X147270238Y-82104819D01*
X147270238Y-82104819D02*
X147365476Y-82152438D01*
X147365476Y-82152438D02*
X147413095Y-82200057D01*
X147413095Y-82200057D02*
X147460714Y-82295295D01*
X147460714Y-82295295D02*
X147460714Y-82390533D01*
X147460714Y-82390533D02*
X147413095Y-82533390D01*
X147413095Y-82533390D02*
X146841667Y-83104819D01*
X146841667Y-83104819D02*
X147460714Y-83104819D01*
X140454819Y-82261904D02*
X141264342Y-82261904D01*
X141264342Y-82261904D02*
X141359580Y-82214285D01*
X141359580Y-82214285D02*
X141407200Y-82166666D01*
X141407200Y-82166666D02*
X141454819Y-82071428D01*
X141454819Y-82071428D02*
X141454819Y-81880952D01*
X141454819Y-81880952D02*
X141407200Y-81785714D01*
X141407200Y-81785714D02*
X141359580Y-81738095D01*
X141359580Y-81738095D02*
X141264342Y-81690476D01*
X141264342Y-81690476D02*
X140454819Y-81690476D01*
X140788152Y-80785714D02*
X141454819Y-80785714D01*
X140407200Y-81023809D02*
X141121485Y-81261904D01*
X141121485Y-81261904D02*
X141121485Y-80642857D01*
X140164819Y-59036904D02*
X140974342Y-59036904D01*
X140974342Y-59036904D02*
X141069580Y-58989285D01*
X141069580Y-58989285D02*
X141117200Y-58941666D01*
X141117200Y-58941666D02*
X141164819Y-58846428D01*
X141164819Y-58846428D02*
X141164819Y-58655952D01*
X141164819Y-58655952D02*
X141117200Y-58560714D01*
X141117200Y-58560714D02*
X141069580Y-58513095D01*
X141069580Y-58513095D02*
X140974342Y-58465476D01*
X140974342Y-58465476D02*
X140164819Y-58465476D01*
X140164819Y-57513095D02*
X140164819Y-57989285D01*
X140164819Y-57989285D02*
X140641009Y-58036904D01*
X140641009Y-58036904D02*
X140593390Y-57989285D01*
X140593390Y-57989285D02*
X140545771Y-57894047D01*
X140545771Y-57894047D02*
X140545771Y-57655952D01*
X140545771Y-57655952D02*
X140593390Y-57560714D01*
X140593390Y-57560714D02*
X140641009Y-57513095D01*
X140641009Y-57513095D02*
X140736247Y-57465476D01*
X140736247Y-57465476D02*
X140974342Y-57465476D01*
X140974342Y-57465476D02*
X141069580Y-57513095D01*
X141069580Y-57513095D02*
X141117200Y-57560714D01*
X141117200Y-57560714D02*
X141164819Y-57655952D01*
X141164819Y-57655952D02*
X141164819Y-57894047D01*
X141164819Y-57894047D02*
X141117200Y-57989285D01*
X141117200Y-57989285D02*
X141069580Y-58036904D01*
X114595238Y-136681009D02*
X114738095Y-136728628D01*
X114738095Y-136728628D02*
X114785714Y-136776247D01*
X114785714Y-136776247D02*
X114833333Y-136871485D01*
X114833333Y-136871485D02*
X114833333Y-137014342D01*
X114833333Y-137014342D02*
X114785714Y-137109580D01*
X114785714Y-137109580D02*
X114738095Y-137157200D01*
X114738095Y-137157200D02*
X114642857Y-137204819D01*
X114642857Y-137204819D02*
X114261905Y-137204819D01*
X114261905Y-137204819D02*
X114261905Y-136204819D01*
X114261905Y-136204819D02*
X114595238Y-136204819D01*
X114595238Y-136204819D02*
X114690476Y-136252438D01*
X114690476Y-136252438D02*
X114738095Y-136300057D01*
X114738095Y-136300057D02*
X114785714Y-136395295D01*
X114785714Y-136395295D02*
X114785714Y-136490533D01*
X114785714Y-136490533D02*
X114738095Y-136585771D01*
X114738095Y-136585771D02*
X114690476Y-136633390D01*
X114690476Y-136633390D02*
X114595238Y-136681009D01*
X114595238Y-136681009D02*
X114261905Y-136681009D01*
X115833333Y-137109580D02*
X115785714Y-137157200D01*
X115785714Y-137157200D02*
X115642857Y-137204819D01*
X115642857Y-137204819D02*
X115547619Y-137204819D01*
X115547619Y-137204819D02*
X115404762Y-137157200D01*
X115404762Y-137157200D02*
X115309524Y-137061961D01*
X115309524Y-137061961D02*
X115261905Y-136966723D01*
X115261905Y-136966723D02*
X115214286Y-136776247D01*
X115214286Y-136776247D02*
X115214286Y-136633390D01*
X115214286Y-136633390D02*
X115261905Y-136442914D01*
X115261905Y-136442914D02*
X115309524Y-136347676D01*
X115309524Y-136347676D02*
X115404762Y-136252438D01*
X115404762Y-136252438D02*
X115547619Y-136204819D01*
X115547619Y-136204819D02*
X115642857Y-136204819D01*
X115642857Y-136204819D02*
X115785714Y-136252438D01*
X115785714Y-136252438D02*
X115833333Y-136300057D01*
X116785714Y-137204819D02*
X116214286Y-137204819D01*
X116500000Y-137204819D02*
X116500000Y-136204819D01*
X116500000Y-136204819D02*
X116404762Y-136347676D01*
X116404762Y-136347676D02*
X116309524Y-136442914D01*
X116309524Y-136442914D02*
X116214286Y-136490533D01*
X137183333Y-99084580D02*
X137135714Y-99132200D01*
X137135714Y-99132200D02*
X136992857Y-99179819D01*
X136992857Y-99179819D02*
X136897619Y-99179819D01*
X136897619Y-99179819D02*
X136754762Y-99132200D01*
X136754762Y-99132200D02*
X136659524Y-99036961D01*
X136659524Y-99036961D02*
X136611905Y-98941723D01*
X136611905Y-98941723D02*
X136564286Y-98751247D01*
X136564286Y-98751247D02*
X136564286Y-98608390D01*
X136564286Y-98608390D02*
X136611905Y-98417914D01*
X136611905Y-98417914D02*
X136659524Y-98322676D01*
X136659524Y-98322676D02*
X136754762Y-98227438D01*
X136754762Y-98227438D02*
X136897619Y-98179819D01*
X136897619Y-98179819D02*
X136992857Y-98179819D01*
X136992857Y-98179819D02*
X137135714Y-98227438D01*
X137135714Y-98227438D02*
X137183333Y-98275057D01*
X137516667Y-98179819D02*
X138183333Y-98179819D01*
X138183333Y-98179819D02*
X137754762Y-99179819D01*
X187428095Y-110264819D02*
X187428095Y-111074342D01*
X187428095Y-111074342D02*
X187475714Y-111169580D01*
X187475714Y-111169580D02*
X187523333Y-111217200D01*
X187523333Y-111217200D02*
X187618571Y-111264819D01*
X187618571Y-111264819D02*
X187809047Y-111264819D01*
X187809047Y-111264819D02*
X187904285Y-111217200D01*
X187904285Y-111217200D02*
X187951904Y-111169580D01*
X187951904Y-111169580D02*
X187999523Y-111074342D01*
X187999523Y-111074342D02*
X187999523Y-110264819D01*
X188380476Y-110264819D02*
X188999523Y-110264819D01*
X188999523Y-110264819D02*
X188666190Y-110645771D01*
X188666190Y-110645771D02*
X188809047Y-110645771D01*
X188809047Y-110645771D02*
X188904285Y-110693390D01*
X188904285Y-110693390D02*
X188951904Y-110741009D01*
X188951904Y-110741009D02*
X188999523Y-110836247D01*
X188999523Y-110836247D02*
X188999523Y-111074342D01*
X188999523Y-111074342D02*
X188951904Y-111169580D01*
X188951904Y-111169580D02*
X188904285Y-111217200D01*
X188904285Y-111217200D02*
X188809047Y-111264819D01*
X188809047Y-111264819D02*
X188523333Y-111264819D01*
X188523333Y-111264819D02*
X188428095Y-111217200D01*
X188428095Y-111217200D02*
X188380476Y-111169580D01*
X129408333Y-113459580D02*
X129360714Y-113507200D01*
X129360714Y-113507200D02*
X129217857Y-113554819D01*
X129217857Y-113554819D02*
X129122619Y-113554819D01*
X129122619Y-113554819D02*
X128979762Y-113507200D01*
X128979762Y-113507200D02*
X128884524Y-113411961D01*
X128884524Y-113411961D02*
X128836905Y-113316723D01*
X128836905Y-113316723D02*
X128789286Y-113126247D01*
X128789286Y-113126247D02*
X128789286Y-112983390D01*
X128789286Y-112983390D02*
X128836905Y-112792914D01*
X128836905Y-112792914D02*
X128884524Y-112697676D01*
X128884524Y-112697676D02*
X128979762Y-112602438D01*
X128979762Y-112602438D02*
X129122619Y-112554819D01*
X129122619Y-112554819D02*
X129217857Y-112554819D01*
X129217857Y-112554819D02*
X129360714Y-112602438D01*
X129360714Y-112602438D02*
X129408333Y-112650057D01*
X129884524Y-113554819D02*
X130075000Y-113554819D01*
X130075000Y-113554819D02*
X130170238Y-113507200D01*
X130170238Y-113507200D02*
X130217857Y-113459580D01*
X130217857Y-113459580D02*
X130313095Y-113316723D01*
X130313095Y-113316723D02*
X130360714Y-113126247D01*
X130360714Y-113126247D02*
X130360714Y-112745295D01*
X130360714Y-112745295D02*
X130313095Y-112650057D01*
X130313095Y-112650057D02*
X130265476Y-112602438D01*
X130265476Y-112602438D02*
X130170238Y-112554819D01*
X130170238Y-112554819D02*
X129979762Y-112554819D01*
X129979762Y-112554819D02*
X129884524Y-112602438D01*
X129884524Y-112602438D02*
X129836905Y-112650057D01*
X129836905Y-112650057D02*
X129789286Y-112745295D01*
X129789286Y-112745295D02*
X129789286Y-112983390D01*
X129789286Y-112983390D02*
X129836905Y-113078628D01*
X129836905Y-113078628D02*
X129884524Y-113126247D01*
X129884524Y-113126247D02*
X129979762Y-113173866D01*
X129979762Y-113173866D02*
X130170238Y-113173866D01*
X130170238Y-113173866D02*
X130265476Y-113126247D01*
X130265476Y-113126247D02*
X130313095Y-113078628D01*
X130313095Y-113078628D02*
X130360714Y-112983390D01*
X127704819Y-102988094D02*
X128514342Y-102988094D01*
X128514342Y-102988094D02*
X128609580Y-102940475D01*
X128609580Y-102940475D02*
X128657200Y-102892856D01*
X128657200Y-102892856D02*
X128704819Y-102797618D01*
X128704819Y-102797618D02*
X128704819Y-102607142D01*
X128704819Y-102607142D02*
X128657200Y-102511904D01*
X128657200Y-102511904D02*
X128609580Y-102464285D01*
X128609580Y-102464285D02*
X128514342Y-102416666D01*
X128514342Y-102416666D02*
X127704819Y-102416666D01*
X128704819Y-101416666D02*
X128704819Y-101988094D01*
X128704819Y-101702380D02*
X127704819Y-101702380D01*
X127704819Y-101702380D02*
X127847676Y-101797618D01*
X127847676Y-101797618D02*
X127942914Y-101892856D01*
X127942914Y-101892856D02*
X127990533Y-101988094D01*
X127704819Y-100797618D02*
X127704819Y-100702380D01*
X127704819Y-100702380D02*
X127752438Y-100607142D01*
X127752438Y-100607142D02*
X127800057Y-100559523D01*
X127800057Y-100559523D02*
X127895295Y-100511904D01*
X127895295Y-100511904D02*
X128085771Y-100464285D01*
X128085771Y-100464285D02*
X128323866Y-100464285D01*
X128323866Y-100464285D02*
X128514342Y-100511904D01*
X128514342Y-100511904D02*
X128609580Y-100559523D01*
X128609580Y-100559523D02*
X128657200Y-100607142D01*
X128657200Y-100607142D02*
X128704819Y-100702380D01*
X128704819Y-100702380D02*
X128704819Y-100797618D01*
X128704819Y-100797618D02*
X128657200Y-100892856D01*
X128657200Y-100892856D02*
X128609580Y-100940475D01*
X128609580Y-100940475D02*
X128514342Y-100988094D01*
X128514342Y-100988094D02*
X128323866Y-101035713D01*
X128323866Y-101035713D02*
X128085771Y-101035713D01*
X128085771Y-101035713D02*
X127895295Y-100988094D01*
X127895295Y-100988094D02*
X127800057Y-100940475D01*
X127800057Y-100940475D02*
X127752438Y-100892856D01*
X127752438Y-100892856D02*
X127704819Y-100797618D01*
X143884580Y-108741666D02*
X143932200Y-108789285D01*
X143932200Y-108789285D02*
X143979819Y-108932142D01*
X143979819Y-108932142D02*
X143979819Y-109027380D01*
X143979819Y-109027380D02*
X143932200Y-109170237D01*
X143932200Y-109170237D02*
X143836961Y-109265475D01*
X143836961Y-109265475D02*
X143741723Y-109313094D01*
X143741723Y-109313094D02*
X143551247Y-109360713D01*
X143551247Y-109360713D02*
X143408390Y-109360713D01*
X143408390Y-109360713D02*
X143217914Y-109313094D01*
X143217914Y-109313094D02*
X143122676Y-109265475D01*
X143122676Y-109265475D02*
X143027438Y-109170237D01*
X143027438Y-109170237D02*
X142979819Y-109027380D01*
X142979819Y-109027380D02*
X142979819Y-108932142D01*
X142979819Y-108932142D02*
X143027438Y-108789285D01*
X143027438Y-108789285D02*
X143075057Y-108741666D01*
X143313152Y-107884523D02*
X143979819Y-107884523D01*
X142932200Y-108122618D02*
X143646485Y-108360713D01*
X143646485Y-108360713D02*
X143646485Y-107741666D01*
X195309580Y-106266666D02*
X195357200Y-106314285D01*
X195357200Y-106314285D02*
X195404819Y-106457142D01*
X195404819Y-106457142D02*
X195404819Y-106552380D01*
X195404819Y-106552380D02*
X195357200Y-106695237D01*
X195357200Y-106695237D02*
X195261961Y-106790475D01*
X195261961Y-106790475D02*
X195166723Y-106838094D01*
X195166723Y-106838094D02*
X194976247Y-106885713D01*
X194976247Y-106885713D02*
X194833390Y-106885713D01*
X194833390Y-106885713D02*
X194642914Y-106838094D01*
X194642914Y-106838094D02*
X194547676Y-106790475D01*
X194547676Y-106790475D02*
X194452438Y-106695237D01*
X194452438Y-106695237D02*
X194404819Y-106552380D01*
X194404819Y-106552380D02*
X194404819Y-106457142D01*
X194404819Y-106457142D02*
X194452438Y-106314285D01*
X194452438Y-106314285D02*
X194500057Y-106266666D01*
X194404819Y-105409523D02*
X194404819Y-105599999D01*
X194404819Y-105599999D02*
X194452438Y-105695237D01*
X194452438Y-105695237D02*
X194500057Y-105742856D01*
X194500057Y-105742856D02*
X194642914Y-105838094D01*
X194642914Y-105838094D02*
X194833390Y-105885713D01*
X194833390Y-105885713D02*
X195214342Y-105885713D01*
X195214342Y-105885713D02*
X195309580Y-105838094D01*
X195309580Y-105838094D02*
X195357200Y-105790475D01*
X195357200Y-105790475D02*
X195404819Y-105695237D01*
X195404819Y-105695237D02*
X195404819Y-105504761D01*
X195404819Y-105504761D02*
X195357200Y-105409523D01*
X195357200Y-105409523D02*
X195309580Y-105361904D01*
X195309580Y-105361904D02*
X195214342Y-105314285D01*
X195214342Y-105314285D02*
X194976247Y-105314285D01*
X194976247Y-105314285D02*
X194881009Y-105361904D01*
X194881009Y-105361904D02*
X194833390Y-105409523D01*
X194833390Y-105409523D02*
X194785771Y-105504761D01*
X194785771Y-105504761D02*
X194785771Y-105695237D01*
X194785771Y-105695237D02*
X194833390Y-105790475D01*
X194833390Y-105790475D02*
X194881009Y-105838094D01*
X194881009Y-105838094D02*
X194976247Y-105885713D01*
X146938095Y-129809200D02*
X147080952Y-129856819D01*
X147080952Y-129856819D02*
X147319047Y-129856819D01*
X147319047Y-129856819D02*
X147414285Y-129809200D01*
X147414285Y-129809200D02*
X147461904Y-129761580D01*
X147461904Y-129761580D02*
X147509523Y-129666342D01*
X147509523Y-129666342D02*
X147509523Y-129571104D01*
X147509523Y-129571104D02*
X147461904Y-129475866D01*
X147461904Y-129475866D02*
X147414285Y-129428247D01*
X147414285Y-129428247D02*
X147319047Y-129380628D01*
X147319047Y-129380628D02*
X147128571Y-129333009D01*
X147128571Y-129333009D02*
X147033333Y-129285390D01*
X147033333Y-129285390D02*
X146985714Y-129237771D01*
X146985714Y-129237771D02*
X146938095Y-129142533D01*
X146938095Y-129142533D02*
X146938095Y-129047295D01*
X146938095Y-129047295D02*
X146985714Y-128952057D01*
X146985714Y-128952057D02*
X147033333Y-128904438D01*
X147033333Y-128904438D02*
X147128571Y-128856819D01*
X147128571Y-128856819D02*
X147366666Y-128856819D01*
X147366666Y-128856819D02*
X147509523Y-128904438D01*
X148128571Y-128856819D02*
X148223809Y-128856819D01*
X148223809Y-128856819D02*
X148319047Y-128904438D01*
X148319047Y-128904438D02*
X148366666Y-128952057D01*
X148366666Y-128952057D02*
X148414285Y-129047295D01*
X148414285Y-129047295D02*
X148461904Y-129237771D01*
X148461904Y-129237771D02*
X148461904Y-129475866D01*
X148461904Y-129475866D02*
X148414285Y-129666342D01*
X148414285Y-129666342D02*
X148366666Y-129761580D01*
X148366666Y-129761580D02*
X148319047Y-129809200D01*
X148319047Y-129809200D02*
X148223809Y-129856819D01*
X148223809Y-129856819D02*
X148128571Y-129856819D01*
X148128571Y-129856819D02*
X148033333Y-129809200D01*
X148033333Y-129809200D02*
X147985714Y-129761580D01*
X147985714Y-129761580D02*
X147938095Y-129666342D01*
X147938095Y-129666342D02*
X147890476Y-129475866D01*
X147890476Y-129475866D02*
X147890476Y-129237771D01*
X147890476Y-129237771D02*
X147938095Y-129047295D01*
X147938095Y-129047295D02*
X147985714Y-128952057D01*
X147985714Y-128952057D02*
X148033333Y-128904438D01*
X148033333Y-128904438D02*
X148128571Y-128856819D01*
X122690476Y-96859580D02*
X122642857Y-96907200D01*
X122642857Y-96907200D02*
X122500000Y-96954819D01*
X122500000Y-96954819D02*
X122404762Y-96954819D01*
X122404762Y-96954819D02*
X122261905Y-96907200D01*
X122261905Y-96907200D02*
X122166667Y-96811961D01*
X122166667Y-96811961D02*
X122119048Y-96716723D01*
X122119048Y-96716723D02*
X122071429Y-96526247D01*
X122071429Y-96526247D02*
X122071429Y-96383390D01*
X122071429Y-96383390D02*
X122119048Y-96192914D01*
X122119048Y-96192914D02*
X122166667Y-96097676D01*
X122166667Y-96097676D02*
X122261905Y-96002438D01*
X122261905Y-96002438D02*
X122404762Y-95954819D01*
X122404762Y-95954819D02*
X122500000Y-95954819D01*
X122500000Y-95954819D02*
X122642857Y-96002438D01*
X122642857Y-96002438D02*
X122690476Y-96050057D01*
X123547619Y-96954819D02*
X123547619Y-96431009D01*
X123547619Y-96431009D02*
X123500000Y-96335771D01*
X123500000Y-96335771D02*
X123404762Y-96288152D01*
X123404762Y-96288152D02*
X123214286Y-96288152D01*
X123214286Y-96288152D02*
X123119048Y-96335771D01*
X123547619Y-96907200D02*
X123452381Y-96954819D01*
X123452381Y-96954819D02*
X123214286Y-96954819D01*
X123214286Y-96954819D02*
X123119048Y-96907200D01*
X123119048Y-96907200D02*
X123071429Y-96811961D01*
X123071429Y-96811961D02*
X123071429Y-96716723D01*
X123071429Y-96716723D02*
X123119048Y-96621485D01*
X123119048Y-96621485D02*
X123214286Y-96573866D01*
X123214286Y-96573866D02*
X123452381Y-96573866D01*
X123452381Y-96573866D02*
X123547619Y-96526247D01*
X124023810Y-96954819D02*
X124023810Y-95954819D01*
X124500000Y-96288152D02*
X124500000Y-96954819D01*
X124500000Y-96383390D02*
X124547619Y-96335771D01*
X124547619Y-96335771D02*
X124642857Y-96288152D01*
X124642857Y-96288152D02*
X124785714Y-96288152D01*
X124785714Y-96288152D02*
X124880952Y-96335771D01*
X124880952Y-96335771D02*
X124928571Y-96431009D01*
X124928571Y-96431009D02*
X124928571Y-96954819D01*
X121980953Y-95677200D02*
X125066667Y-95677200D01*
X125928571Y-96954819D02*
X125357143Y-96954819D01*
X125642857Y-96954819D02*
X125642857Y-95954819D01*
X125642857Y-95954819D02*
X125547619Y-96097676D01*
X125547619Y-96097676D02*
X125452381Y-96192914D01*
X125452381Y-96192914D02*
X125357143Y-96240533D01*
X176047619Y-116204819D02*
X175571429Y-116204819D01*
X175571429Y-116204819D02*
X175571429Y-115204819D01*
X176380953Y-116204819D02*
X176380953Y-115204819D01*
X176380953Y-115681009D02*
X176952381Y-115681009D01*
X176952381Y-116204819D02*
X176952381Y-115204819D01*
X177428572Y-116204819D02*
X177428572Y-115204819D01*
X178428571Y-115252438D02*
X178333333Y-115204819D01*
X178333333Y-115204819D02*
X178190476Y-115204819D01*
X178190476Y-115204819D02*
X178047619Y-115252438D01*
X178047619Y-115252438D02*
X177952381Y-115347676D01*
X177952381Y-115347676D02*
X177904762Y-115442914D01*
X177904762Y-115442914D02*
X177857143Y-115633390D01*
X177857143Y-115633390D02*
X177857143Y-115776247D01*
X177857143Y-115776247D02*
X177904762Y-115966723D01*
X177904762Y-115966723D02*
X177952381Y-116061961D01*
X177952381Y-116061961D02*
X178047619Y-116157200D01*
X178047619Y-116157200D02*
X178190476Y-116204819D01*
X178190476Y-116204819D02*
X178285714Y-116204819D01*
X178285714Y-116204819D02*
X178428571Y-116157200D01*
X178428571Y-116157200D02*
X178476190Y-116109580D01*
X178476190Y-116109580D02*
X178476190Y-115776247D01*
X178476190Y-115776247D02*
X178285714Y-115776247D01*
X178904762Y-116204819D02*
X178904762Y-115204819D01*
X178904762Y-115681009D02*
X179476190Y-115681009D01*
X179476190Y-116204819D02*
X179476190Y-115204819D01*
X175433334Y-114927200D02*
X179614286Y-114927200D01*
X180476190Y-116204819D02*
X179904762Y-116204819D01*
X180190476Y-116204819D02*
X180190476Y-115204819D01*
X180190476Y-115204819D02*
X180095238Y-115347676D01*
X180095238Y-115347676D02*
X180000000Y-115442914D01*
X180000000Y-115442914D02*
X179904762Y-115490533D01*
X147704819Y-111761904D02*
X148514342Y-111761904D01*
X148514342Y-111761904D02*
X148609580Y-111714285D01*
X148609580Y-111714285D02*
X148657200Y-111666666D01*
X148657200Y-111666666D02*
X148704819Y-111571428D01*
X148704819Y-111571428D02*
X148704819Y-111380952D01*
X148704819Y-111380952D02*
X148657200Y-111285714D01*
X148657200Y-111285714D02*
X148609580Y-111238095D01*
X148609580Y-111238095D02*
X148514342Y-111190476D01*
X148514342Y-111190476D02*
X147704819Y-111190476D01*
X147800057Y-110761904D02*
X147752438Y-110714285D01*
X147752438Y-110714285D02*
X147704819Y-110619047D01*
X147704819Y-110619047D02*
X147704819Y-110380952D01*
X147704819Y-110380952D02*
X147752438Y-110285714D01*
X147752438Y-110285714D02*
X147800057Y-110238095D01*
X147800057Y-110238095D02*
X147895295Y-110190476D01*
X147895295Y-110190476D02*
X147990533Y-110190476D01*
X147990533Y-110190476D02*
X148133390Y-110238095D01*
X148133390Y-110238095D02*
X148704819Y-110809523D01*
X148704819Y-110809523D02*
X148704819Y-110190476D01*
X132583333Y-125954819D02*
X132250000Y-125478628D01*
X132011905Y-125954819D02*
X132011905Y-124954819D01*
X132011905Y-124954819D02*
X132392857Y-124954819D01*
X132392857Y-124954819D02*
X132488095Y-125002438D01*
X132488095Y-125002438D02*
X132535714Y-125050057D01*
X132535714Y-125050057D02*
X132583333Y-125145295D01*
X132583333Y-125145295D02*
X132583333Y-125288152D01*
X132583333Y-125288152D02*
X132535714Y-125383390D01*
X132535714Y-125383390D02*
X132488095Y-125431009D01*
X132488095Y-125431009D02*
X132392857Y-125478628D01*
X132392857Y-125478628D02*
X132011905Y-125478628D01*
X133488095Y-125954819D02*
X133011905Y-125954819D01*
X133011905Y-125954819D02*
X133011905Y-124954819D01*
X134011905Y-124954819D02*
X134202381Y-124954819D01*
X134202381Y-124954819D02*
X134297619Y-125002438D01*
X134297619Y-125002438D02*
X134392857Y-125097676D01*
X134392857Y-125097676D02*
X134440476Y-125288152D01*
X134440476Y-125288152D02*
X134440476Y-125621485D01*
X134440476Y-125621485D02*
X134392857Y-125811961D01*
X134392857Y-125811961D02*
X134297619Y-125907200D01*
X134297619Y-125907200D02*
X134202381Y-125954819D01*
X134202381Y-125954819D02*
X134011905Y-125954819D01*
X134011905Y-125954819D02*
X133916667Y-125907200D01*
X133916667Y-125907200D02*
X133821429Y-125811961D01*
X133821429Y-125811961D02*
X133773810Y-125621485D01*
X133773810Y-125621485D02*
X133773810Y-125288152D01*
X133773810Y-125288152D02*
X133821429Y-125097676D01*
X133821429Y-125097676D02*
X133916667Y-125002438D01*
X133916667Y-125002438D02*
X134011905Y-124954819D01*
X134773810Y-124954819D02*
X135011905Y-125954819D01*
X135011905Y-125954819D02*
X135202381Y-125240533D01*
X135202381Y-125240533D02*
X135392857Y-125954819D01*
X135392857Y-125954819D02*
X135630953Y-124954819D01*
X131873810Y-124677200D02*
X135673810Y-124677200D01*
X136535714Y-125954819D02*
X135964286Y-125954819D01*
X136250000Y-125954819D02*
X136250000Y-124954819D01*
X136250000Y-124954819D02*
X136154762Y-125097676D01*
X136154762Y-125097676D02*
X136059524Y-125192914D01*
X136059524Y-125192914D02*
X135964286Y-125240533D01*
X104838095Y-69859200D02*
X104980952Y-69906819D01*
X104980952Y-69906819D02*
X105219047Y-69906819D01*
X105219047Y-69906819D02*
X105314285Y-69859200D01*
X105314285Y-69859200D02*
X105361904Y-69811580D01*
X105361904Y-69811580D02*
X105409523Y-69716342D01*
X105409523Y-69716342D02*
X105409523Y-69621104D01*
X105409523Y-69621104D02*
X105361904Y-69525866D01*
X105361904Y-69525866D02*
X105314285Y-69478247D01*
X105314285Y-69478247D02*
X105219047Y-69430628D01*
X105219047Y-69430628D02*
X105028571Y-69383009D01*
X105028571Y-69383009D02*
X104933333Y-69335390D01*
X104933333Y-69335390D02*
X104885714Y-69287771D01*
X104885714Y-69287771D02*
X104838095Y-69192533D01*
X104838095Y-69192533D02*
X104838095Y-69097295D01*
X104838095Y-69097295D02*
X104885714Y-69002057D01*
X104885714Y-69002057D02*
X104933333Y-68954438D01*
X104933333Y-68954438D02*
X105028571Y-68906819D01*
X105028571Y-68906819D02*
X105266666Y-68906819D01*
X105266666Y-68906819D02*
X105409523Y-68954438D01*
X105790476Y-69002057D02*
X105838095Y-68954438D01*
X105838095Y-68954438D02*
X105933333Y-68906819D01*
X105933333Y-68906819D02*
X106171428Y-68906819D01*
X106171428Y-68906819D02*
X106266666Y-68954438D01*
X106266666Y-68954438D02*
X106314285Y-69002057D01*
X106314285Y-69002057D02*
X106361904Y-69097295D01*
X106361904Y-69097295D02*
X106361904Y-69192533D01*
X106361904Y-69192533D02*
X106314285Y-69335390D01*
X106314285Y-69335390D02*
X105742857Y-69906819D01*
X105742857Y-69906819D02*
X106361904Y-69906819D01*
X183333333Y-97204819D02*
X182857143Y-97204819D01*
X182857143Y-97204819D02*
X182857143Y-96204819D01*
X184142857Y-97204819D02*
X183666667Y-97204819D01*
X183666667Y-97204819D02*
X183666667Y-96204819D01*
X184666667Y-96204819D02*
X184857143Y-96204819D01*
X184857143Y-96204819D02*
X184952381Y-96252438D01*
X184952381Y-96252438D02*
X185047619Y-96347676D01*
X185047619Y-96347676D02*
X185095238Y-96538152D01*
X185095238Y-96538152D02*
X185095238Y-96871485D01*
X185095238Y-96871485D02*
X185047619Y-97061961D01*
X185047619Y-97061961D02*
X184952381Y-97157200D01*
X184952381Y-97157200D02*
X184857143Y-97204819D01*
X184857143Y-97204819D02*
X184666667Y-97204819D01*
X184666667Y-97204819D02*
X184571429Y-97157200D01*
X184571429Y-97157200D02*
X184476191Y-97061961D01*
X184476191Y-97061961D02*
X184428572Y-96871485D01*
X184428572Y-96871485D02*
X184428572Y-96538152D01*
X184428572Y-96538152D02*
X184476191Y-96347676D01*
X184476191Y-96347676D02*
X184571429Y-96252438D01*
X184571429Y-96252438D02*
X184666667Y-96204819D01*
X185428572Y-96204819D02*
X185666667Y-97204819D01*
X185666667Y-97204819D02*
X185857143Y-96490533D01*
X185857143Y-96490533D02*
X186047619Y-97204819D01*
X186047619Y-97204819D02*
X186285715Y-96204819D01*
X182719048Y-95927200D02*
X186328572Y-95927200D01*
X187190476Y-97204819D02*
X186619048Y-97204819D01*
X186904762Y-97204819D02*
X186904762Y-96204819D01*
X186904762Y-96204819D02*
X186809524Y-96347676D01*
X186809524Y-96347676D02*
X186714286Y-96442914D01*
X186714286Y-96442914D02*
X186619048Y-96490533D01*
X148454819Y-95761904D02*
X149264342Y-95761904D01*
X149264342Y-95761904D02*
X149359580Y-95714285D01*
X149359580Y-95714285D02*
X149407200Y-95666666D01*
X149407200Y-95666666D02*
X149454819Y-95571428D01*
X149454819Y-95571428D02*
X149454819Y-95380952D01*
X149454819Y-95380952D02*
X149407200Y-95285714D01*
X149407200Y-95285714D02*
X149359580Y-95238095D01*
X149359580Y-95238095D02*
X149264342Y-95190476D01*
X149264342Y-95190476D02*
X148454819Y-95190476D01*
X148454819Y-94285714D02*
X148454819Y-94476190D01*
X148454819Y-94476190D02*
X148502438Y-94571428D01*
X148502438Y-94571428D02*
X148550057Y-94619047D01*
X148550057Y-94619047D02*
X148692914Y-94714285D01*
X148692914Y-94714285D02*
X148883390Y-94761904D01*
X148883390Y-94761904D02*
X149264342Y-94761904D01*
X149264342Y-94761904D02*
X149359580Y-94714285D01*
X149359580Y-94714285D02*
X149407200Y-94666666D01*
X149407200Y-94666666D02*
X149454819Y-94571428D01*
X149454819Y-94571428D02*
X149454819Y-94380952D01*
X149454819Y-94380952D02*
X149407200Y-94285714D01*
X149407200Y-94285714D02*
X149359580Y-94238095D01*
X149359580Y-94238095D02*
X149264342Y-94190476D01*
X149264342Y-94190476D02*
X149026247Y-94190476D01*
X149026247Y-94190476D02*
X148931009Y-94238095D01*
X148931009Y-94238095D02*
X148883390Y-94285714D01*
X148883390Y-94285714D02*
X148835771Y-94380952D01*
X148835771Y-94380952D02*
X148835771Y-94571428D01*
X148835771Y-94571428D02*
X148883390Y-94666666D01*
X148883390Y-94666666D02*
X148931009Y-94714285D01*
X148931009Y-94714285D02*
X149026247Y-94761904D01*
D13*
%TO.C,Mode1*%
X125005000Y-73500000D02*
G75*
G02*
X123605000Y-73500000I-700000J0D01*
G01*
X123605000Y-73500000D02*
G75*
G02*
X125005000Y-73500000I700000J0D01*
G01*
%TO.C,R1*%
X195030000Y-120670000D02*
X195030000Y-127210000D01*
X195030000Y-127210000D02*
X195360000Y-127210000D01*
X195360000Y-120670000D02*
X195030000Y-120670000D01*
X197440000Y-120670000D02*
X197770000Y-120670000D01*
X197770000Y-120670000D02*
X197770000Y-127210000D01*
X197770000Y-127210000D02*
X197440000Y-127210000D01*
%TO.C,PWR1*%
X103700000Y-132000000D02*
G75*
G02*
X102300000Y-132000000I-700000J0D01*
G01*
X102300000Y-132000000D02*
G75*
G02*
X103700000Y-132000000I700000J0D01*
G01*
%TO.C,~{RHIGH}1*%
X132000000Y-123800000D02*
G75*
G02*
X130600000Y-123800000I-700000J0D01*
G01*
X130600000Y-123800000D02*
G75*
G02*
X132000000Y-123800000I700000J0D01*
G01*
%TO.C,~{CLK}1*%
X182700000Y-133400000D02*
G75*
G02*
X181300000Y-133400000I-700000J0D01*
G01*
X181300000Y-133400000D02*
G75*
G02*
X182700000Y-133400000I700000J0D01*
G01*
D10*
%TO.C,kibuzzard-6911C7CA*%
G36*
X184959286Y-58681429D02*
G01*
X184959286Y-59370000D01*
X184143571Y-59370000D01*
X184037857Y-59370000D01*
X184037857Y-58741429D01*
X184143571Y-58741429D01*
X184143571Y-59258571D01*
X184849286Y-59258571D01*
X184849286Y-58741429D01*
X184762143Y-58654286D01*
X184230714Y-58654286D01*
X184143571Y-58741429D01*
X184037857Y-58741429D01*
X184037857Y-58681429D01*
X184182143Y-58537143D01*
X184815000Y-58537143D01*
X184959286Y-58681429D01*
G37*
G36*
X185999286Y-59845714D02*
G01*
X186867857Y-59845714D01*
X186867857Y-60250000D01*
X185706429Y-60250000D01*
X185595000Y-60250000D01*
X185595000Y-60141429D01*
X185706429Y-60141429D01*
X186759286Y-60141429D01*
X186759286Y-59957143D01*
X185889286Y-59957143D01*
X185889286Y-58357143D01*
X185706429Y-58357143D01*
X185706429Y-60141429D01*
X185595000Y-60141429D01*
X185595000Y-58250000D01*
X185999286Y-58250000D01*
X185999286Y-59845714D01*
G37*
G36*
X194700714Y-58681429D02*
G01*
X194700714Y-58937143D01*
X194500714Y-59134286D01*
X193987857Y-59134286D01*
X193882143Y-59134286D01*
X193882143Y-59027143D01*
X193987857Y-59027143D01*
X194449286Y-59027143D01*
X194592143Y-58885714D01*
X194592143Y-58741429D01*
X194505000Y-58654286D01*
X193987857Y-58654286D01*
X193987857Y-59027143D01*
X193882143Y-59027143D01*
X193882143Y-58538571D01*
X194555000Y-58538571D01*
X194700714Y-58681429D01*
G37*
G36*
X194766429Y-59497143D02*
G01*
X194766429Y-59811429D01*
X194617857Y-59958571D01*
X193987857Y-59958571D01*
X193882143Y-59958571D01*
X193882143Y-59845714D01*
X193987857Y-59845714D01*
X194567857Y-59845714D01*
X194655000Y-59758571D01*
X194655000Y-59557143D01*
X194529286Y-59431429D01*
X193987857Y-59431429D01*
X193987857Y-59845714D01*
X193882143Y-59845714D01*
X193882143Y-59318571D01*
X194586429Y-59318571D01*
X194766429Y-59497143D01*
G37*
G36*
X194995000Y-58544286D02*
G01*
X194995000Y-59054286D01*
X194867857Y-59181429D01*
X195059286Y-59374286D01*
X195059286Y-59955714D01*
X194765000Y-60250000D01*
X193699286Y-60250000D01*
X193583571Y-60250000D01*
X193583571Y-60141429D01*
X193699286Y-60141429D01*
X194707857Y-60141429D01*
X194949286Y-59900000D01*
X194949286Y-59415714D01*
X194727857Y-59192857D01*
X194702143Y-59192857D01*
X194883571Y-59011429D01*
X194883571Y-58592857D01*
X194645000Y-58354286D01*
X193699286Y-58354286D01*
X193699286Y-60141429D01*
X193583571Y-60141429D01*
X193583571Y-58250000D01*
X194700714Y-58250000D01*
X194995000Y-58544286D01*
G37*
G36*
X185252143Y-58544286D02*
G01*
X185252143Y-60250000D01*
X184849286Y-60250000D01*
X184849286Y-59661429D01*
X184143571Y-59661429D01*
X184143571Y-60250000D01*
X183855000Y-60250000D01*
X183740714Y-60250000D01*
X183740714Y-58592857D01*
X183855000Y-58592857D01*
X183855000Y-60131429D01*
X184037857Y-60131429D01*
X184037857Y-59554286D01*
X184959286Y-59554286D01*
X184959286Y-60131429D01*
X185143571Y-60131429D01*
X185143571Y-58592857D01*
X184903571Y-58354286D01*
X184093571Y-58354286D01*
X183855000Y-58592857D01*
X183740714Y-58592857D01*
X183740714Y-58544286D01*
X184035000Y-58250000D01*
X184957857Y-58250000D01*
X185252143Y-58544286D01*
G37*
G36*
X187543571Y-59758571D02*
G01*
X187630714Y-59845714D01*
X188216429Y-59845714D01*
X188303571Y-59758571D01*
X188303571Y-58250000D01*
X188707857Y-58250000D01*
X188707857Y-59955714D01*
X188413571Y-60250000D01*
X187489286Y-60250000D01*
X187433571Y-60250000D01*
X187139286Y-59955714D01*
X187139286Y-59902857D01*
X187249286Y-59902857D01*
X187489286Y-60140000D01*
X188359286Y-60140000D01*
X188597857Y-59902857D01*
X188597857Y-58357143D01*
X188415000Y-58357143D01*
X188415000Y-59814286D01*
X188269286Y-59955714D01*
X187579286Y-59955714D01*
X187433571Y-59814286D01*
X187433571Y-58357143D01*
X187249286Y-58357143D01*
X187249286Y-59902857D01*
X187139286Y-59902857D01*
X187139286Y-58250000D01*
X187543571Y-58250000D01*
X187543571Y-59758571D01*
G37*
G36*
X190240714Y-59038571D02*
G01*
X190926429Y-59038571D01*
X190926429Y-58250000D01*
X191329286Y-58250000D01*
X191329286Y-60250000D01*
X190926429Y-60250000D01*
X190926429Y-59442857D01*
X190240714Y-59442857D01*
X190240714Y-60250000D01*
X189947857Y-60250000D01*
X189836429Y-60250000D01*
X189836429Y-60141429D01*
X189947857Y-60141429D01*
X190130714Y-60141429D01*
X190130714Y-59330000D01*
X191037857Y-59330000D01*
X191037857Y-60141429D01*
X191220714Y-60141429D01*
X191220714Y-58357143D01*
X191037857Y-58357143D01*
X191037857Y-59145714D01*
X190130714Y-59145714D01*
X190130714Y-58357143D01*
X189947857Y-58357143D01*
X189947857Y-60141429D01*
X189836429Y-60141429D01*
X189836429Y-58250000D01*
X190240714Y-58250000D01*
X190240714Y-59038571D01*
G37*
G36*
X192076429Y-59758571D02*
G01*
X192163571Y-59845714D01*
X192749286Y-59845714D01*
X192836429Y-59758571D01*
X192836429Y-58250000D01*
X193240714Y-58250000D01*
X193240714Y-59955714D01*
X192946429Y-60250000D01*
X192022143Y-60250000D01*
X191966429Y-60250000D01*
X191672143Y-59955714D01*
X191672143Y-59902857D01*
X191782143Y-59902857D01*
X192022143Y-60140000D01*
X192892143Y-60140000D01*
X193130714Y-59902857D01*
X193130714Y-58357143D01*
X192947857Y-58357143D01*
X192947857Y-59814286D01*
X192802143Y-59955714D01*
X192112143Y-59955714D01*
X191966429Y-59814286D01*
X191966429Y-58357143D01*
X191782143Y-58357143D01*
X191782143Y-59902857D01*
X191672143Y-59902857D01*
X191672143Y-58250000D01*
X192076429Y-58250000D01*
X192076429Y-59758571D01*
G37*
D13*
%TO.C,U8*%
X150115000Y-59735000D02*
X150115000Y-60985000D01*
X150115000Y-62985000D02*
X150115000Y-64235000D01*
X150115000Y-64235000D02*
X175635000Y-64235000D01*
X175635000Y-59735000D02*
X150115000Y-59735000D01*
X175635000Y-64235000D02*
X175635000Y-59735000D01*
X150055000Y-67235000D02*
X175695000Y-67235000D01*
X175695000Y-56735000D01*
X150055000Y-56735000D01*
X150055000Y-67235000D01*
X150115000Y-60985000D02*
G75*
G02*
X150115000Y-62985000I0J-1000000D01*
G01*
D10*
%TO.C,kibuzzard-691DDF7A*%
G36*
X197500000Y-81393571D02*
G01*
X197080000Y-81393571D01*
X197080000Y-81059286D01*
X197192857Y-81059286D01*
X197192857Y-81277857D01*
X197385714Y-81277857D01*
X197385714Y-81059286D01*
X197192857Y-81059286D01*
X197080000Y-81059286D01*
X197080000Y-80945000D01*
X197500000Y-80945000D01*
X197500000Y-81277857D01*
X197500000Y-81393571D01*
G37*
G36*
X196605714Y-84753571D02*
G01*
X195791429Y-84753571D01*
X195791429Y-84055000D01*
X195904286Y-84055000D01*
X195904286Y-84642143D01*
X196498571Y-84642143D01*
X196498571Y-84083571D01*
X196384286Y-83967857D01*
X195991429Y-83967857D01*
X195904286Y-84055000D01*
X195791429Y-84055000D01*
X195791429Y-83997857D01*
X195934286Y-83853571D01*
X196435714Y-83853571D01*
X196605714Y-84025000D01*
X196605714Y-84642143D01*
X196605714Y-84753571D01*
G37*
G36*
X196605714Y-86550714D02*
G01*
X195791429Y-86550714D01*
X195791429Y-85852143D01*
X195904286Y-85852143D01*
X195904286Y-86439286D01*
X196498571Y-86439286D01*
X196498571Y-85880714D01*
X196384286Y-85765000D01*
X195991429Y-85765000D01*
X195904286Y-85852143D01*
X195791429Y-85852143D01*
X195791429Y-85795000D01*
X195934286Y-85650714D01*
X196435714Y-85650714D01*
X196605714Y-85822143D01*
X196605714Y-86439286D01*
X196605714Y-86550714D01*
G37*
G36*
X196620000Y-88400714D02*
G01*
X195931429Y-88400714D01*
X195787143Y-88256429D01*
X195787143Y-87676429D01*
X195904286Y-87676429D01*
X195904286Y-88207857D01*
X195991429Y-88295000D01*
X196508571Y-88295000D01*
X196508571Y-87589286D01*
X195991429Y-87589286D01*
X195904286Y-87676429D01*
X195787143Y-87676429D01*
X195787143Y-87623571D01*
X195931429Y-87479286D01*
X196620000Y-87479286D01*
X196620000Y-88295000D01*
X196620000Y-88400714D01*
G37*
G36*
X197500000Y-85046429D02*
G01*
X195500000Y-85046429D01*
X195500000Y-83909286D01*
X195607143Y-83909286D01*
X195607143Y-84937857D01*
X197402857Y-84937857D01*
X197402857Y-84753571D01*
X196788571Y-84753571D01*
X196788571Y-83935000D01*
X196522857Y-83670714D01*
X195845714Y-83670714D01*
X195607143Y-83909286D01*
X195500000Y-83909286D01*
X195500000Y-83859286D01*
X195794286Y-83565000D01*
X196581429Y-83565000D01*
X196902857Y-83886429D01*
X196902857Y-84642143D01*
X197500000Y-84642143D01*
X197500000Y-84937857D01*
X197500000Y-85046429D01*
G37*
G36*
X197500000Y-86843571D02*
G01*
X195500000Y-86843571D01*
X195500000Y-85706429D01*
X195607143Y-85706429D01*
X195607143Y-86735000D01*
X197402857Y-86735000D01*
X197402857Y-86550714D01*
X196788571Y-86550714D01*
X196788571Y-85732143D01*
X196522857Y-85467857D01*
X195845714Y-85467857D01*
X195607143Y-85706429D01*
X195500000Y-85706429D01*
X195500000Y-85656429D01*
X195794286Y-85362143D01*
X196581429Y-85362143D01*
X196902857Y-85683571D01*
X196902857Y-86439286D01*
X197500000Y-86439286D01*
X197500000Y-86735000D01*
X197500000Y-86843571D01*
G37*
G36*
X197500000Y-88697857D02*
G01*
X195794286Y-88697857D01*
X195500000Y-88403571D01*
X195500000Y-87535000D01*
X195604286Y-87535000D01*
X195604286Y-88345000D01*
X195842857Y-88583571D01*
X197381429Y-88583571D01*
X197381429Y-88400714D01*
X196804286Y-88400714D01*
X196804286Y-87479286D01*
X197381429Y-87479286D01*
X197381429Y-87295000D01*
X195842857Y-87295000D01*
X195604286Y-87535000D01*
X195500000Y-87535000D01*
X195500000Y-87480714D01*
X195794286Y-87186429D01*
X197500000Y-87186429D01*
X197500000Y-87589286D01*
X196911429Y-87589286D01*
X196911429Y-88295000D01*
X197500000Y-88295000D01*
X197500000Y-88583571D01*
X197500000Y-88697857D01*
G37*
G36*
X197500000Y-91086429D02*
G01*
X197205714Y-91380714D01*
X195500000Y-91380714D01*
X195500000Y-90976429D01*
X197008571Y-90976429D01*
X197095714Y-90889286D01*
X197095714Y-90303571D01*
X197008571Y-90216429D01*
X195500000Y-90216429D01*
X195500000Y-89922143D01*
X195607143Y-89922143D01*
X195607143Y-90105000D01*
X197064286Y-90105000D01*
X197205714Y-90250714D01*
X197205714Y-90940714D01*
X197064286Y-91086429D01*
X195607143Y-91086429D01*
X195607143Y-91270714D01*
X197152857Y-91270714D01*
X197390000Y-91030714D01*
X197390000Y-90160714D01*
X197152857Y-89922143D01*
X195607143Y-89922143D01*
X195500000Y-89922143D01*
X195500000Y-89812143D01*
X197205714Y-89812143D01*
X197500000Y-90106429D01*
X197500000Y-91030714D01*
X197500000Y-91086429D01*
G37*
G36*
X197500000Y-94760714D02*
G01*
X197205714Y-95055000D01*
X195500000Y-95055000D01*
X195500000Y-94650714D01*
X197008571Y-94650714D01*
X197095714Y-94563571D01*
X197095714Y-93977857D01*
X197008571Y-93890714D01*
X195500000Y-93890714D01*
X195500000Y-93596429D01*
X195607143Y-93596429D01*
X195607143Y-93779286D01*
X197064286Y-93779286D01*
X197205714Y-93925000D01*
X197205714Y-94615000D01*
X197064286Y-94760714D01*
X195607143Y-94760714D01*
X195607143Y-94945000D01*
X197152857Y-94945000D01*
X197390000Y-94705000D01*
X197390000Y-93835000D01*
X197152857Y-93596429D01*
X195607143Y-93596429D01*
X195500000Y-93596429D01*
X195500000Y-93486429D01*
X197205714Y-93486429D01*
X197500000Y-93780714D01*
X197500000Y-94705000D01*
X197500000Y-94760714D01*
G37*
G36*
X197500000Y-92877857D02*
G01*
X197205714Y-93172143D01*
X195794286Y-93172143D01*
X195500000Y-92877857D01*
X195500000Y-92043571D01*
X195607143Y-92043571D01*
X195607143Y-92823571D01*
X195845714Y-93062143D01*
X197150000Y-93062143D01*
X197388571Y-92823571D01*
X197388571Y-92043571D01*
X197150000Y-91805000D01*
X196844286Y-91805000D01*
X196844286Y-91987857D01*
X197061429Y-91987857D01*
X197205714Y-92133571D01*
X197205714Y-92733571D01*
X197061429Y-92879286D01*
X195934286Y-92879286D01*
X195791429Y-92733571D01*
X195791429Y-92133571D01*
X195934286Y-91987857D01*
X196151429Y-91987857D01*
X196151429Y-91805000D01*
X195845714Y-91805000D01*
X195607143Y-92043571D01*
X195500000Y-92043571D01*
X195500000Y-91990714D01*
X195794286Y-91695000D01*
X196254286Y-91695000D01*
X196254286Y-92099286D01*
X195991429Y-92099286D01*
X195904286Y-92186429D01*
X195904286Y-92680714D01*
X195991429Y-92767857D01*
X197008571Y-92767857D01*
X197095714Y-92680714D01*
X197095714Y-92186429D01*
X197008571Y-92099286D01*
X196745714Y-92099286D01*
X196745714Y-91695000D01*
X197205714Y-91695000D01*
X197500000Y-91990714D01*
X197500000Y-92823571D01*
X197500000Y-92877857D01*
G37*
G36*
X197500000Y-82969286D02*
G01*
X197205714Y-83263571D01*
X196845714Y-83263571D01*
X196845714Y-82859286D01*
X197008571Y-82859286D01*
X197095714Y-82772143D01*
X197095714Y-82223571D01*
X197008571Y-82136429D01*
X196788571Y-82136429D01*
X196701429Y-82223571D01*
X196701429Y-82960714D01*
X196407143Y-83255000D01*
X195794286Y-83255000D01*
X195500000Y-82960714D01*
X195500000Y-82102143D01*
X195610000Y-82102143D01*
X195610000Y-82906429D01*
X195848571Y-83145000D01*
X196348571Y-83145000D01*
X196591429Y-82903571D01*
X196591429Y-82160714D01*
X196717143Y-82030714D01*
X197062857Y-82030714D01*
X197207143Y-82175000D01*
X197207143Y-82827857D01*
X197070000Y-82965000D01*
X196947143Y-82965000D01*
X196947143Y-83149286D01*
X197158571Y-83149286D01*
X197390000Y-82917857D01*
X197390000Y-82085000D01*
X197151429Y-81846429D01*
X196631429Y-81846429D01*
X196405714Y-82070714D01*
X196405714Y-82815000D01*
X196261429Y-82960714D01*
X195937143Y-82960714D01*
X195794286Y-82816429D01*
X195794286Y-82192143D01*
X195930000Y-82053571D01*
X196052857Y-82053571D01*
X196052857Y-81870714D01*
X195841429Y-81870714D01*
X195610000Y-82102143D01*
X195500000Y-82102143D01*
X195500000Y-82053571D01*
X195794286Y-81759286D01*
X196154286Y-81759286D01*
X196154286Y-82163571D01*
X195991429Y-82163571D01*
X195904286Y-82250714D01*
X195904286Y-82763571D01*
X195991429Y-82852143D01*
X196210000Y-82852143D01*
X196297143Y-82763571D01*
X196297143Y-82026429D01*
X196591429Y-81732143D01*
X197205714Y-81732143D01*
X197500000Y-82026429D01*
X197500000Y-82917857D01*
X197500000Y-82969286D01*
G37*
D13*
%TO.C,Zero1*%
X115600000Y-132000000D02*
G75*
G02*
X114200000Y-132000000I-700000J0D01*
G01*
X114200000Y-132000000D02*
G75*
G02*
X115600000Y-132000000I700000J0D01*
G01*
%TO.C,C8*%
X120980000Y-124180000D02*
X126220000Y-124180000D01*
X120980000Y-124517000D02*
X120980000Y-124180000D01*
X120980000Y-126920000D02*
X120980000Y-126583000D01*
X126220000Y-124180000D02*
X126220000Y-124517000D01*
X126220000Y-126583000D02*
X126220000Y-126920000D01*
X126220000Y-126920000D02*
X120980000Y-126920000D01*
%TO.C,S3*%
X148200000Y-91200000D02*
G75*
G02*
X146800000Y-91200000I-700000J0D01*
G01*
X146800000Y-91200000D02*
G75*
G02*
X148200000Y-91200000I700000J0D01*
G01*
%TO.C,S1*%
X105700000Y-126400000D02*
G75*
G02*
X104300000Y-126400000I-700000J0D01*
G01*
X104300000Y-126400000D02*
G75*
G02*
X105700000Y-126400000I700000J0D01*
G01*
%TO.C,~{RALU}1*%
X142400000Y-99700000D02*
G75*
G02*
X141000000Y-99700000I-700000J0D01*
G01*
X141000000Y-99700000D02*
G75*
G02*
X142400000Y-99700000I700000J0D01*
G01*
%TO.C,C5*%
X145570000Y-116260000D02*
X148310000Y-116260000D01*
X145570000Y-121500000D02*
X145570000Y-116260000D01*
X148310000Y-116260000D02*
X148310000Y-121500000D01*
X148310000Y-121500000D02*
X145570000Y-121500000D01*
%TO.C,U9*%
X109100000Y-115420000D02*
X109100000Y-119920000D01*
X109100000Y-119920000D02*
X127000000Y-119920000D01*
X127000000Y-115420000D02*
X109100000Y-115420000D01*
X127000000Y-116670000D02*
X127000000Y-115420000D01*
X127000000Y-119920000D02*
X127000000Y-118670000D01*
X127060000Y-112420000D02*
X109040000Y-112420000D01*
X109040000Y-122920000D01*
X127060000Y-122920000D01*
X127060000Y-112420000D01*
X127000000Y-118670000D02*
G75*
G02*
X127000000Y-116670000I0J1000000D01*
G01*
%TO.C,U7*%
X150115000Y-75311200D02*
X150115000Y-76561200D01*
X150115000Y-78561200D02*
X150115000Y-79811200D01*
X150115000Y-79811200D02*
X175635000Y-79811200D01*
X175635000Y-75311200D02*
X150115000Y-75311200D01*
X175635000Y-79811200D02*
X175635000Y-75311200D01*
X150055000Y-82811200D02*
X175695000Y-82811200D01*
X175695000Y-72311200D01*
X150055000Y-72311200D01*
X150055000Y-82811200D01*
X150115000Y-76561200D02*
G75*
G02*
X150115000Y-78561200I0J-1000000D01*
G01*
%TO.C,C1*%
X148430000Y-52530000D02*
X153670000Y-52530000D01*
X148430000Y-52867000D02*
X148430000Y-52530000D01*
X148430000Y-55270000D02*
X148430000Y-54933000D01*
X153670000Y-52530000D02*
X153670000Y-52867000D01*
X153670000Y-54933000D02*
X153670000Y-55270000D01*
X153670000Y-55270000D02*
X148430000Y-55270000D01*
%TO.C,C11*%
X112720000Y-131550000D02*
G75*
G02*
X106180000Y-131550000I-3270000J0D01*
G01*
X106180000Y-131550000D02*
G75*
G02*
X112720000Y-131550000I3270000J0D01*
G01*
%TO.C,C10*%
X135510000Y-68330000D02*
X140750000Y-68330000D01*
X135510000Y-68667000D02*
X135510000Y-68330000D01*
X135510000Y-71070000D02*
X135510000Y-70733000D01*
X140750000Y-68330000D02*
X140750000Y-68667000D01*
X140750000Y-70733000D02*
X140750000Y-71070000D01*
X140750000Y-71070000D02*
X135510000Y-71070000D01*
%TO.C,C3*%
X145505000Y-83755000D02*
X150745000Y-83755000D01*
X145505000Y-84092000D02*
X145505000Y-83755000D01*
X145505000Y-86495000D02*
X145505000Y-86158000D01*
X150745000Y-83755000D02*
X150745000Y-84092000D01*
X150745000Y-86158000D02*
X150745000Y-86495000D01*
X150745000Y-86495000D02*
X145505000Y-86495000D01*
%TO.C,Sign1*%
X110600000Y-125200000D02*
G75*
G02*
X109200000Y-125200000I-700000J0D01*
G01*
X109200000Y-125200000D02*
G75*
G02*
X110600000Y-125200000I700000J0D01*
G01*
%TO.C,U1*%
X150115000Y-122040000D02*
X150115000Y-123290000D01*
X150115000Y-125290000D02*
X150115000Y-126540000D01*
X150115000Y-126540000D02*
X175635000Y-126540000D01*
X175635000Y-122040000D02*
X150115000Y-122040000D01*
X175635000Y-126540000D02*
X175635000Y-122040000D01*
X150055000Y-129540000D02*
X175695000Y-129540000D01*
X175695000Y-119040000D01*
X150055000Y-119040000D01*
X150055000Y-129540000D01*
X150115000Y-123290000D02*
G75*
G02*
X150115000Y-125290000I0J-1000000D01*
G01*
%TO.C,~{Carry}1*%
X107300000Y-93400000D02*
G75*
G02*
X105900000Y-93400000I-700000J0D01*
G01*
X105900000Y-93400000D02*
G75*
G02*
X107300000Y-93400000I700000J0D01*
G01*
%TO.C,C2*%
X145280000Y-75455000D02*
X145617000Y-75455000D01*
X145280000Y-80695000D02*
X145280000Y-75455000D01*
X145617000Y-80695000D02*
X145280000Y-80695000D01*
X147683000Y-75455000D02*
X148020000Y-75455000D01*
X148020000Y-75455000D02*
X148020000Y-80695000D01*
X148020000Y-80695000D02*
X147683000Y-80695000D01*
%TO.C,U4*%
X109010000Y-78545000D02*
X109010000Y-90665000D01*
X109010000Y-90665000D02*
X139610000Y-90665000D01*
X139610000Y-78545000D02*
X109010000Y-78545000D01*
X139610000Y-83605000D02*
X139610000Y-78545000D01*
X139610000Y-90665000D02*
X139610000Y-85605000D01*
X139670000Y-75545000D02*
X108950000Y-75545000D01*
X108950000Y-93665000D01*
X139670000Y-93665000D01*
X139670000Y-75545000D01*
X139610000Y-85605000D02*
G75*
G02*
X139610000Y-83605000I0J1000000D01*
G01*
%TO.C,U5*%
X109110000Y-52215000D02*
X109110000Y-64335000D01*
X109110000Y-64335000D02*
X139710000Y-64335000D01*
X139710000Y-52215000D02*
X109110000Y-52215000D01*
X139710000Y-57275000D02*
X139710000Y-52215000D01*
X139710000Y-64335000D02*
X139710000Y-59275000D01*
X139770000Y-49215000D02*
X109050000Y-49215000D01*
X109050000Y-67335000D01*
X139770000Y-67335000D01*
X139770000Y-49215000D01*
X139710000Y-59275000D02*
G75*
G02*
X139710000Y-57275000I0J1000000D01*
G01*
%TO.C,C7*%
X134805000Y-94705000D02*
X140045000Y-94705000D01*
X134805000Y-95042000D02*
X134805000Y-94705000D01*
X134805000Y-97445000D02*
X134805000Y-97108000D01*
X140045000Y-94705000D02*
X140045000Y-95042000D01*
X140045000Y-97108000D02*
X140045000Y-97445000D01*
X140045000Y-97445000D02*
X134805000Y-97445000D01*
%TO.C,U3*%
X185940000Y-111810000D02*
X185940000Y-129710000D01*
X185940000Y-129710000D02*
X190440000Y-129710000D01*
X187190000Y-111810000D02*
X185940000Y-111810000D01*
X190440000Y-111810000D02*
X189190000Y-111810000D01*
X190440000Y-129710000D02*
X190440000Y-111810000D01*
X182940000Y-111750000D02*
X193440000Y-111750000D01*
X193440000Y-129770000D01*
X182940000Y-129770000D01*
X182940000Y-111750000D01*
X189190000Y-111810000D02*
G75*
G02*
X187190000Y-111810000I-1000000J0D01*
G01*
%TO.C,C9*%
X125330000Y-109205000D02*
X130570000Y-109205000D01*
X125330000Y-109542000D02*
X125330000Y-109205000D01*
X125330000Y-111945000D02*
X125330000Y-111608000D01*
X130570000Y-109205000D02*
X130570000Y-109542000D01*
X130570000Y-111608000D02*
X130570000Y-111945000D01*
X130570000Y-111945000D02*
X125330000Y-111945000D01*
%TO.C,U10*%
X109100000Y-101240000D02*
X109100000Y-105740000D01*
X109100000Y-105740000D02*
X127000000Y-105740000D01*
X127000000Y-101240000D02*
X109100000Y-101240000D01*
X127000000Y-102490000D02*
X127000000Y-101240000D01*
X127000000Y-105740000D02*
X127000000Y-104490000D01*
X127060000Y-98240000D02*
X109040000Y-98240000D01*
X109040000Y-108740000D01*
X127060000Y-108740000D01*
X127060000Y-98240000D01*
X127000000Y-104490000D02*
G75*
G02*
X127000000Y-102490000I0J1000000D01*
G01*
%TO.C,C4*%
X144655000Y-105955000D02*
X144992000Y-105955000D01*
X144655000Y-111195000D02*
X144655000Y-105955000D01*
X144992000Y-111195000D02*
X144655000Y-111195000D01*
X147058000Y-105955000D02*
X147395000Y-105955000D01*
X147395000Y-105955000D02*
X147395000Y-111195000D01*
X147395000Y-111195000D02*
X147058000Y-111195000D01*
%TO.C,C6*%
X191080000Y-103480000D02*
X191417000Y-103480000D01*
X191080000Y-108720000D02*
X191080000Y-103480000D01*
X191417000Y-108720000D02*
X191080000Y-108720000D01*
X193483000Y-103480000D02*
X193820000Y-103480000D01*
X193820000Y-103480000D02*
X193820000Y-108720000D01*
X193820000Y-108720000D02*
X193483000Y-108720000D01*
%TO.C,S0*%
X148900000Y-130900000D02*
G75*
G02*
X147500000Y-130900000I-700000J0D01*
G01*
X147500000Y-130900000D02*
G75*
G02*
X148900000Y-130900000I700000J0D01*
G01*
%TO.C,~{CaIn}1*%
X121700000Y-95000000D02*
G75*
G02*
X120300000Y-95000000I-700000J0D01*
G01*
X120300000Y-95000000D02*
G75*
G02*
X121700000Y-95000000I700000J0D01*
G01*
%TO.C,~{LHIGH}1*%
X180000000Y-117900000D02*
G75*
G02*
X178600000Y-117900000I-700000J0D01*
G01*
X178600000Y-117900000D02*
G75*
G02*
X180000000Y-117900000I700000J0D01*
G01*
%TO.C,U2*%
X150115000Y-106463700D02*
X150115000Y-107713700D01*
X150115000Y-109713700D02*
X150115000Y-110963700D01*
X150115000Y-110963700D02*
X175635000Y-110963700D01*
X175635000Y-106463700D02*
X150115000Y-106463700D01*
X175635000Y-110963700D02*
X175635000Y-106463700D01*
X150055000Y-113963700D02*
X175695000Y-113963700D01*
X175695000Y-103463700D01*
X150055000Y-103463700D01*
X150055000Y-113963700D01*
X150115000Y-107713700D02*
G75*
G02*
X150115000Y-109713700I0J-1000000D01*
G01*
%TO.C,~{RLOW}1*%
X134400000Y-127400000D02*
G75*
G02*
X133000000Y-127400000I-700000J0D01*
G01*
X133000000Y-127400000D02*
G75*
G02*
X134400000Y-127400000I700000J0D01*
G01*
%TO.C,S2*%
X106300000Y-70900000D02*
G75*
G02*
X104900000Y-70900000I-700000J0D01*
G01*
X104900000Y-70900000D02*
G75*
G02*
X106300000Y-70900000I700000J0D01*
G01*
%TO.C,~{LLOW}1*%
X184800000Y-99000000D02*
G75*
G02*
X183400000Y-99000000I-700000J0D01*
G01*
X183400000Y-99000000D02*
G75*
G02*
X184800000Y-99000000I700000J0D01*
G01*
%TO.C,U6*%
X150115000Y-90887500D02*
X150115000Y-92137500D01*
X150115000Y-94137500D02*
X150115000Y-95387500D01*
X150115000Y-95387500D02*
X175635000Y-95387500D01*
X175635000Y-90887500D02*
X150115000Y-90887500D01*
X175635000Y-95387500D02*
X175635000Y-90887500D01*
X150055000Y-98387500D02*
X175695000Y-98387500D01*
X175695000Y-87887500D01*
X150055000Y-87887500D01*
X150055000Y-98387500D01*
X150115000Y-92137500D02*
G75*
G02*
X150115000Y-94137500I0J-1000000D01*
G01*
%TD*%
M02*
