M48
; DRILL file {KiCad 9.0.5} date 2025-11-19T18:10:59+0200
; FORMAT={-:-/ absolute / metric / decimal}
; #@! TF.CreationDate,2025-11-19T18:10:59+02:00
; #@! TF.GenerationSoftware,Kicad,Pcbnew,9.0.5
; #@! TF.FileFunction,Plated,1,2,PTH
FMAT,2
METRIC
; #@! TA.AperFunction,Plated,PTH,ViaDrill
T1C0.300
; #@! TA.AperFunction,Plated,PTH,ViaDrill
T2C0.400
; #@! TA.AperFunction,Plated,PTH,ComponentDrill
T3C0.800
%
G90
G05
T1
X103.25Y-122.75
X104.0Y-122.75
X105.0Y-119.75
X105.0Y-121.25
X105.0Y-122.75
X106.0Y-122.75
X107.0Y-122.75
X112.25Y-40.0
X113.025Y-40.775
X115.025Y-42.175
X118.0Y-113.5
X119.0Y-111.0
X119.0Y-113.25
X120.0Y-38.25
X120.0Y-44.55
X120.0Y-111.0
X120.0Y-113.75
X121.0Y-33.0
X121.0Y-111.0
X121.0Y-114.75
X121.75Y-33.6
X122.0Y-111.0
X122.0Y-115.75
X123.0Y-111.1
X123.0Y-116.75
X123.25Y-35.0
X123.75Y-109.5
X124.0Y-111.25
X124.0Y-117.75
X124.75Y-58.0
X124.75Y-63.25
X125.0Y-111.25
X125.0Y-118.5
X125.75Y-58.0
X125.75Y-63.25
X126.0Y-111.25
X126.0Y-119.5
X126.75Y-58.0
X126.75Y-63.25
X127.75Y-58.0
X127.75Y-63.25
X134.75Y-51.5
X135.15Y-95.25
X135.25Y-120.25
X135.75Y-94.5
X136.0Y-50.25
X136.0Y-119.75
X136.75Y-119.25
X136.755Y-83.905
X137.5Y-118.5
X137.75Y-93.75
X138.25Y-94.5
X138.4Y-85.85
X138.75Y-95.25
X138.999Y-108.75
X139.025Y-86.475
X139.405Y-81.255
X139.5Y-96.0
X139.6Y-87.2
X140.6Y-88.4
X141.2Y-83.05
X141.775Y-83.725
X142.425Y-84.375
X143.25Y-120.25
X143.25Y-121.5
X143.55Y-85.45
X146.0Y-93.75
X146.0Y-94.55
X146.0Y-95.35
X146.0Y-96.15
X146.0Y-96.95
X146.0Y-97.75
X147.75Y-98.5
X149.35Y-44.531
X149.424Y-117.924
X149.451Y-116.951
X153.0Y-122.75
X158.75Y-119.25
X159.744Y-118.25
X160.25Y-93.621
X162.549Y-121.299
X162.625Y-120.375
X162.75Y-93.621
X163.718Y-120.968
X163.75Y-116.25
X163.75Y-118.25
X167.25Y-117.25
X168.0Y-116.25
X168.25Y-119.468
X170.2Y-101.0
X170.8Y-91.0
X170.85Y-93.621
X172.22Y-59.03
X172.75Y-119.468
X172.885Y-54.615
X173.5Y-112.75
X173.5Y-114.0
X173.625Y-121.525
X173.75Y-91.0
X173.8Y-93.621
X174.475Y-122.125
X175.5Y-119.65
X176.15Y-120.45
X177.75Y-110.75
X178.0Y-111.75
X178.0Y-115.25
X178.075Y-117.075
X178.595Y-65.405
X179.075Y-118.075
X179.75Y-113.5
X179.85Y-69.7
X180.325Y-114.825
X180.76Y-62.49
X180.95Y-116.2
X183.7Y-79.7
X185.5Y-62.25
X186.4Y-71.75
X186.4Y-76.25
X187.0Y-74.75
X187.4Y-64.0
X188.03Y-72.28
X190.25Y-112.25
X190.5Y-113.5
X191.25Y-74.5
X192.5Y-110.5
T2
X117.0Y-123.0
X127.0Y-123.25
X136.0Y-123.25
X145.0Y-123.25
X154.0Y-123.25
X169.0Y-122.75
X178.0Y-122.5
T3
X98.88Y-75.68
X98.88Y-78.22
X98.88Y-80.76
X98.88Y-83.3
X98.88Y-85.84
X98.88Y-88.38
X98.88Y-90.92
X98.88Y-93.46
X98.88Y-96.0
X98.88Y-98.54
X98.88Y-101.08
X98.88Y-103.62
X105.0Y-115.741
X105.0Y-118.241
X106.5Y-68.9
X106.5Y-71.4
X106.5Y-75.68
X106.5Y-78.22
X106.5Y-80.76
X106.5Y-83.3
X106.5Y-85.84
X106.5Y-88.38
X106.5Y-90.92
X106.5Y-93.46
X106.5Y-96.0
X106.5Y-98.54
X106.5Y-101.08
X106.5Y-103.62
X114.38Y-75.68
X114.38Y-78.22
X114.38Y-80.76
X114.38Y-83.3
X114.38Y-85.84
X114.38Y-88.38
X114.38Y-90.92
X114.38Y-93.46
X114.38Y-96.0
X114.38Y-98.54
X114.38Y-101.08
X114.38Y-103.62
X122.0Y-69.15
X122.0Y-71.65
X122.0Y-75.68
X122.0Y-78.22
X122.0Y-80.76
X122.0Y-83.3
X122.0Y-85.84
X122.0Y-88.38
X122.0Y-90.92
X122.0Y-93.46
X122.0Y-96.0
X122.0Y-98.54
X122.0Y-101.08
X122.0Y-103.62
X130.94Y-38.385
X130.94Y-40.925
X130.94Y-43.465
X130.94Y-46.005
X130.94Y-48.545
X130.94Y-51.085
X130.94Y-53.625
X138.56Y-38.385
X138.56Y-40.925
X138.56Y-43.465
X138.56Y-46.005
X138.56Y-48.545
X138.56Y-51.085
X138.56Y-53.625
X142.6Y-36.5
X142.6Y-39.0
X144.63Y-106.0
X144.63Y-113.62
X145.25Y-100.25
X145.25Y-102.75
X146.75Y-38.35
X146.75Y-40.89
X146.75Y-43.43
X146.75Y-45.97
X146.75Y-48.51
X146.75Y-51.05
X146.75Y-53.59
X146.75Y-56.13
X146.75Y-58.67
X146.75Y-61.21
X146.75Y-63.75
X146.75Y-66.29
X147.17Y-106.0
X147.17Y-113.62
X149.71Y-106.0
X149.71Y-113.62
X152.25Y-106.0
X152.25Y-113.62
X154.37Y-38.35
X154.37Y-40.89
X154.37Y-43.43
X154.37Y-45.97
X154.37Y-48.51
X154.37Y-51.05
X154.37Y-53.59
X154.37Y-56.13
X154.37Y-58.67
X154.37Y-61.21
X154.37Y-63.75
X154.37Y-66.29
X154.79Y-106.0
X154.79Y-113.62
X157.33Y-106.0
X157.33Y-113.62
X157.75Y-37.0
X157.75Y-39.5
X159.87Y-106.0
X159.87Y-113.62
X161.38Y-38.39
X161.38Y-40.93
X161.38Y-43.47
X161.38Y-46.01
X161.38Y-48.55
X161.38Y-51.09
X161.38Y-53.63
X161.38Y-56.17
X161.38Y-58.71
X161.38Y-61.25
X161.38Y-63.79
X161.38Y-66.33
X162.41Y-106.0
X162.41Y-113.62
X164.95Y-106.0
X164.95Y-113.62
X167.49Y-106.0
X167.49Y-113.62
X167.75Y-82.17
X167.75Y-84.71
X167.75Y-87.25
X167.75Y-89.79
X167.75Y-92.33
X167.75Y-94.87
X167.75Y-97.41
X169.0Y-38.39
X169.0Y-40.93
X169.0Y-43.47
X169.0Y-46.01
X169.0Y-48.55
X169.0Y-51.09
X169.0Y-53.63
X169.0Y-56.17
X169.0Y-58.71
X169.0Y-61.25
X169.0Y-63.79
X169.0Y-66.33
X173.0Y-38.25
X175.37Y-82.17
X175.37Y-84.71
X175.37Y-87.25
X175.37Y-89.79
X175.37Y-92.33
X175.37Y-94.87
X175.37Y-97.41
X175.4Y-75.8
X175.4Y-78.3
X175.5Y-38.25
X179.25Y-87.25
X179.25Y-94.87
X182.94Y-57.05
X182.94Y-59.59
X182.94Y-62.13
X182.94Y-64.67
X182.94Y-67.21
X182.94Y-69.75
X182.94Y-72.29
X182.94Y-82.36
X182.94Y-84.9
X182.94Y-87.44
X182.94Y-89.98
X182.94Y-92.52
X182.94Y-95.06
X182.94Y-97.6
X182.94Y-100.14
X190.4Y-50.35
X190.4Y-52.85
X190.56Y-57.05
X190.56Y-59.59
X190.56Y-62.13
X190.56Y-64.67
X190.56Y-67.21
X190.56Y-69.75
X190.56Y-72.29
X190.56Y-82.36
X190.56Y-84.9
X190.56Y-87.44
X190.56Y-89.98
X190.56Y-92.52
X190.56Y-95.06
X190.56Y-97.6
X190.56Y-100.14
X191.25Y-76.75
X191.25Y-79.25
M30
