%TF.GenerationSoftware,KiCad,Pcbnew,9.0.5*%
%TF.CreationDate,2025-11-19T18:10:56+02:00*%
%TF.ProjectId,core_1,636f7265-5f31-42e6-9b69-6361645f7063,rev?*%
%TF.SameCoordinates,Original*%
%TF.FileFunction,Soldermask,Bot*%
%TF.FilePolarity,Negative*%
%FSLAX46Y46*%
G04 Gerber Fmt 4.6, Leading zero omitted, Abs format (unit mm)*
G04 Created by KiCad (PCBNEW 9.0.5) date 2025-11-19 18:10:56*
%MOMM*%
%LPD*%
G01*
G04 APERTURE LIST*
G04 Aperture macros list*
%AMRoundRect*
0 Rectangle with rounded corners*
0 $1 Rounding radius*
0 $2 $3 $4 $5 $6 $7 $8 $9 X,Y pos of 4 corners*
0 Add a 4 corners polygon primitive as box body*
4,1,4,$2,$3,$4,$5,$6,$7,$8,$9,$2,$3,0*
0 Add four circle primitives for the rounded corners*
1,1,$1+$1,$2,$3*
1,1,$1+$1,$4,$5*
1,1,$1+$1,$6,$7*
1,1,$1+$1,$8,$9*
0 Add four rect primitives between the rounded corners*
20,1,$1+$1,$2,$3,$4,$5,0*
20,1,$1+$1,$4,$5,$6,$7,0*
20,1,$1+$1,$6,$7,$8,$9,0*
20,1,$1+$1,$8,$9,$2,$3,0*%
G04 Aperture macros list end*
%ADD10RoundRect,0.250000X-0.950000X-0.550000X0.950000X-0.550000X0.950000X0.550000X-0.950000X0.550000X0*%
%ADD11O,2.400000X1.600000*%
%ADD12C,1.600000*%
%ADD13R,0.700000X3.200000*%
%ADD14R,0.700000X4.300000*%
%ADD15RoundRect,0.250000X0.550000X-0.950000X0.550000X0.950000X-0.550000X0.950000X-0.550000X-0.950000X0*%
%ADD16O,1.600000X2.400000*%
G04 APERTURE END LIST*
D10*
%TO.C,U1*%
X182940000Y-57050000D03*
D11*
X182940000Y-59590000D03*
X182940000Y-62130000D03*
X182940000Y-64670000D03*
X182940000Y-67210000D03*
X182940000Y-69750000D03*
X182940000Y-72290000D03*
X190560000Y-72290000D03*
X190560000Y-69750000D03*
X190560000Y-67210000D03*
X190560000Y-64670000D03*
X190560000Y-62130000D03*
X190560000Y-59590000D03*
X190560000Y-57050000D03*
%TD*%
D12*
%TO.C,C3*%
X190400000Y-52850000D03*
X190400000Y-50350000D03*
%TD*%
%TO.C,C11*%
X122000000Y-71650000D03*
X122000000Y-69150000D03*
%TD*%
D13*
%TO.C,BC1*%
X103000000Y-125950000D03*
D14*
X104000000Y-126500000D03*
X105000000Y-126500000D03*
X106000000Y-126500000D03*
X107000000Y-126500000D03*
X108000000Y-126500000D03*
X109000000Y-126500000D03*
X110000000Y-126500000D03*
X111000000Y-126500000D03*
X112000000Y-126500000D03*
X113000000Y-126500000D03*
X116000000Y-126500000D03*
X117000000Y-126500000D03*
X118000000Y-126500000D03*
X119000000Y-126500000D03*
X120000000Y-126500000D03*
X121000000Y-126500000D03*
X122000000Y-126500000D03*
X123000000Y-126500000D03*
X124000000Y-126500000D03*
X125000000Y-126500000D03*
X126000000Y-126500000D03*
X127000000Y-126500000D03*
X128000000Y-126500000D03*
X129000000Y-126500000D03*
X130000000Y-126500000D03*
X131000000Y-126500000D03*
X132000000Y-126500000D03*
X133000000Y-126500000D03*
X134000000Y-126500000D03*
X135000000Y-126500000D03*
X136000000Y-126500000D03*
X137000000Y-126500000D03*
X138000000Y-126500000D03*
X139000000Y-126500000D03*
X140000000Y-126500000D03*
X141000000Y-126500000D03*
X142000000Y-126500000D03*
X143000000Y-126500000D03*
X144000000Y-126500000D03*
X145000000Y-126500000D03*
X146000000Y-126500000D03*
X147000000Y-126500000D03*
X148000000Y-126500000D03*
X149000000Y-126500000D03*
X150000000Y-126500000D03*
X151000000Y-126500000D03*
X152000000Y-126500000D03*
X153000000Y-126500000D03*
X154000000Y-126500000D03*
X155000000Y-126500000D03*
X156000000Y-126500000D03*
X157000000Y-126500000D03*
X158000000Y-126500000D03*
X159000000Y-126500000D03*
X160000000Y-126500000D03*
X161000000Y-126500000D03*
X162000000Y-126500000D03*
X163000000Y-126500000D03*
X164000000Y-126500000D03*
X165000000Y-126500000D03*
X166000000Y-126500000D03*
X167000000Y-126500000D03*
X168000000Y-126500000D03*
X169000000Y-126500000D03*
X170000000Y-126500000D03*
X171000000Y-126500000D03*
X172000000Y-126500000D03*
X173000000Y-126500000D03*
X174000000Y-126500000D03*
X175000000Y-126500000D03*
X176000000Y-126500000D03*
X177000000Y-126500000D03*
X178000000Y-126500000D03*
X179000000Y-126500000D03*
X180000000Y-126500000D03*
X181000000Y-126500000D03*
X182000000Y-126500000D03*
X183000000Y-126500000D03*
X184000000Y-126500000D03*
X185000000Y-126500000D03*
X186000000Y-126500000D03*
%TD*%
D12*
%TO.C,C5*%
X105000000Y-118240522D03*
X105000000Y-115740522D03*
%TD*%
%TO.C,C1*%
X191250000Y-79250000D03*
X191250000Y-76750000D03*
%TD*%
%TO.C,R1*%
X179250000Y-87250000D03*
X179250000Y-94870000D03*
%TD*%
%TO.C,C12*%
X106500000Y-71400000D03*
X106500000Y-68900000D03*
%TD*%
%TO.C,C9*%
X157750000Y-39500000D03*
X157750000Y-37000000D03*
%TD*%
D10*
%TO.C,DECODER2*%
X161380000Y-38390000D03*
D11*
X161380000Y-40930000D03*
X161380000Y-43470000D03*
X161380000Y-46010000D03*
X161380000Y-48550000D03*
X161380000Y-51090000D03*
X161380000Y-53630000D03*
X161380000Y-56170000D03*
X161380000Y-58710000D03*
X161380000Y-61250000D03*
X161380000Y-63790000D03*
X161380000Y-66330000D03*
X169000000Y-66330000D03*
X169000000Y-63790000D03*
X169000000Y-61250000D03*
X169000000Y-58710000D03*
X169000000Y-56170000D03*
X169000000Y-53630000D03*
X169000000Y-51090000D03*
X169000000Y-48550000D03*
X169000000Y-46010000D03*
X169000000Y-43470000D03*
X169000000Y-40930000D03*
X169000000Y-38390000D03*
%TD*%
D10*
%TO.C,DECODER4*%
X98880000Y-75680000D03*
D11*
X98880000Y-78220000D03*
X98880000Y-80760000D03*
X98880000Y-83300000D03*
X98880000Y-85840000D03*
X98880000Y-88380000D03*
X98880000Y-90920000D03*
X98880000Y-93460000D03*
X98880000Y-96000000D03*
X98880000Y-98540000D03*
X98880000Y-101080000D03*
X98880000Y-103620000D03*
X106500000Y-103620000D03*
X106500000Y-101080000D03*
X106500000Y-98540000D03*
X106500000Y-96000000D03*
X106500000Y-93460000D03*
X106500000Y-90920000D03*
X106500000Y-88380000D03*
X106500000Y-85840000D03*
X106500000Y-83300000D03*
X106500000Y-80760000D03*
X106500000Y-78220000D03*
X106500000Y-75680000D03*
%TD*%
D10*
%TO.C,U4*%
X167750000Y-82170000D03*
D11*
X167750000Y-84710000D03*
X167750000Y-87250000D03*
X167750000Y-89790000D03*
X167750000Y-92330000D03*
X167750000Y-94870000D03*
X167750000Y-97410000D03*
X175370000Y-97410000D03*
X175370000Y-94870000D03*
X175370000Y-92330000D03*
X175370000Y-89790000D03*
X175370000Y-87250000D03*
X175370000Y-84710000D03*
X175370000Y-82170000D03*
%TD*%
D15*
%TO.C,INSTRUCTION1*%
X144630000Y-113620000D03*
D16*
X147170000Y-113620000D03*
X149710000Y-113620000D03*
X152250000Y-113620000D03*
X154790000Y-113620000D03*
X157330000Y-113620000D03*
X159870000Y-113620000D03*
X162410000Y-113620000D03*
X164950000Y-113620000D03*
X167490000Y-113620000D03*
X167490000Y-106000000D03*
X164950000Y-106000000D03*
X162410000Y-106000000D03*
X159870000Y-106000000D03*
X157330000Y-106000000D03*
X154790000Y-106000000D03*
X152250000Y-106000000D03*
X149710000Y-106000000D03*
X147170000Y-106000000D03*
X144630000Y-106000000D03*
%TD*%
D12*
%TO.C,C10*%
X173000000Y-38250000D03*
X175500000Y-38250000D03*
%TD*%
D10*
%TO.C,U2*%
X130940000Y-38385000D03*
D11*
X130940000Y-40925000D03*
X130940000Y-43465000D03*
X130940000Y-46005000D03*
X130940000Y-48545000D03*
X130940000Y-51085000D03*
X130940000Y-53625000D03*
X138560000Y-53625000D03*
X138560000Y-51085000D03*
X138560000Y-48545000D03*
X138560000Y-46005000D03*
X138560000Y-43465000D03*
X138560000Y-40925000D03*
X138560000Y-38385000D03*
%TD*%
D12*
%TO.C,C16*%
X145250000Y-102750000D03*
X145250000Y-100250000D03*
%TD*%
D10*
%TO.C,U3*%
X182940000Y-82360000D03*
D11*
X182940000Y-84900000D03*
X182940000Y-87440000D03*
X182940000Y-89980000D03*
X182940000Y-92520000D03*
X182940000Y-95060000D03*
X182940000Y-97600000D03*
X182940000Y-100140000D03*
X190560000Y-100140000D03*
X190560000Y-97600000D03*
X190560000Y-95060000D03*
X190560000Y-92520000D03*
X190560000Y-89980000D03*
X190560000Y-87440000D03*
X190560000Y-84900000D03*
X190560000Y-82360000D03*
%TD*%
D10*
%TO.C,DECODER1*%
X146750000Y-38350000D03*
D11*
X146750000Y-40890000D03*
X146750000Y-43430000D03*
X146750000Y-45970000D03*
X146750000Y-48510000D03*
X146750000Y-51050000D03*
X146750000Y-53590000D03*
X146750000Y-56130000D03*
X146750000Y-58670000D03*
X146750000Y-61210000D03*
X146750000Y-63750000D03*
X146750000Y-66290000D03*
X154370000Y-66290000D03*
X154370000Y-63750000D03*
X154370000Y-61210000D03*
X154370000Y-58670000D03*
X154370000Y-56130000D03*
X154370000Y-53590000D03*
X154370000Y-51050000D03*
X154370000Y-48510000D03*
X154370000Y-45970000D03*
X154370000Y-43430000D03*
X154370000Y-40890000D03*
X154370000Y-38350000D03*
%TD*%
D12*
%TO.C,C2*%
X175400000Y-78300000D03*
X175400000Y-75800000D03*
%TD*%
D10*
%TO.C,DECODER3*%
X114380000Y-75680000D03*
D11*
X114380000Y-78220000D03*
X114380000Y-80760000D03*
X114380000Y-83300000D03*
X114380000Y-85840000D03*
X114380000Y-88380000D03*
X114380000Y-90920000D03*
X114380000Y-93460000D03*
X114380000Y-96000000D03*
X114380000Y-98540000D03*
X114380000Y-101080000D03*
X114380000Y-103620000D03*
X122000000Y-103620000D03*
X122000000Y-101080000D03*
X122000000Y-98540000D03*
X122000000Y-96000000D03*
X122000000Y-93460000D03*
X122000000Y-90920000D03*
X122000000Y-88380000D03*
X122000000Y-85840000D03*
X122000000Y-83300000D03*
X122000000Y-80760000D03*
X122000000Y-78220000D03*
X122000000Y-75680000D03*
%TD*%
D12*
%TO.C,C4*%
X142600000Y-39000000D03*
X142600000Y-36500000D03*
%TD*%
M02*
