%TF.GenerationSoftware,KiCad,Pcbnew,9.0.5*%
%TF.CreationDate,2025-11-19T18:10:55+02:00*%
%TF.ProjectId,core_1,636f7265-5f31-42e6-9b69-6361645f7063,rev?*%
%TF.SameCoordinates,Original*%
%TF.FileFunction,Legend,Top*%
%TF.FilePolarity,Positive*%
%FSLAX46Y46*%
G04 Gerber Fmt 4.6, Leading zero omitted, Abs format (unit mm)*
G04 Created by KiCad (PCBNEW 9.0.5) date 2025-11-19 18:10:55*
%MOMM*%
%LPD*%
G01*
G04 APERTURE LIST*
%ADD10C,0.052916*%
%ADD11C,0.000000*%
%ADD12C,0.150000*%
%ADD13C,0.120000*%
G04 APERTURE END LIST*
D10*
X110605056Y-55170299D02*
X110305284Y-55155218D01*
X109700711Y-54293469D01*
X109693831Y-55169505D01*
X109388767Y-55172681D01*
X109388767Y-53770390D01*
X109694890Y-53771447D01*
X110288350Y-54643514D01*
X110288350Y-53770390D01*
X110605850Y-53770390D01*
X110605056Y-55170299D01*
D11*
G36*
X108542100Y-48319972D02*
G01*
X108236770Y-52991721D01*
X107960017Y-48293514D01*
X107933558Y-48161223D01*
X108171683Y-48637473D01*
X108250000Y-51500000D01*
X108303975Y-48637473D01*
X108568558Y-48161223D01*
X108542100Y-48319972D01*
G37*
D10*
X113463349Y-54326014D02*
X113754392Y-53770390D01*
X114124808Y-53770390D01*
X113595642Y-54669972D01*
X113595642Y-55172681D01*
X113304600Y-55172681D01*
X113300895Y-54674470D01*
X112775433Y-53770390D01*
X113145850Y-53770390D01*
X113463349Y-54326014D01*
D11*
G36*
X112193350Y-46732473D02*
G01*
X109521058Y-47235181D01*
X112907725Y-46044556D01*
X112193350Y-46732473D01*
G37*
G36*
X108568558Y-46970598D02*
G01*
X108558769Y-47942412D01*
X108224600Y-48531639D01*
X107895987Y-47937121D01*
X107907100Y-46970598D01*
X108238623Y-46378990D01*
X108568558Y-46970598D01*
G37*
D10*
X106478350Y-55172681D02*
X106134392Y-55172681D01*
X106055017Y-54908098D01*
X105525850Y-54908098D01*
X105446475Y-55172681D01*
X105109131Y-55169771D01*
X105605225Y-53770390D01*
X105975642Y-53770390D01*
X106478350Y-55172681D01*
D11*
G36*
X111796475Y-48663931D02*
G01*
X110968064Y-48817654D01*
X109335850Y-47870181D01*
X111796475Y-48663931D01*
G37*
G36*
X108305298Y-47201313D02*
G01*
X108306091Y-47810120D01*
X108243385Y-48008029D01*
X108242592Y-48006705D01*
X108165334Y-47817263D01*
X108171683Y-47208722D01*
X108236242Y-46996526D01*
X108305298Y-47201313D01*
G37*
D10*
X107421326Y-53781767D02*
X107437279Y-53782690D01*
X107452888Y-53785001D01*
X107468140Y-53788606D01*
X107483026Y-53793413D01*
X107497535Y-53799329D01*
X107511656Y-53806262D01*
X107525379Y-53814117D01*
X107538693Y-53822802D01*
X107551588Y-53832224D01*
X107564053Y-53842291D01*
X107576077Y-53852908D01*
X107587650Y-53863985D01*
X107598762Y-53875427D01*
X107609401Y-53887141D01*
X107629222Y-53911016D01*
X107647027Y-53934865D01*
X107662732Y-53957947D01*
X107676252Y-53979517D01*
X107687504Y-53998833D01*
X107702864Y-54027725D01*
X107708134Y-54038677D01*
X107721892Y-54193723D01*
X107404392Y-54193723D01*
X107404354Y-54195463D01*
X107404292Y-54193954D01*
X107404392Y-54140806D01*
X107404263Y-54134316D01*
X107403841Y-54128185D01*
X107403145Y-54122404D01*
X107402194Y-54116961D01*
X107401008Y-54111847D01*
X107399607Y-54107052D01*
X107398009Y-54102565D01*
X107396235Y-54098377D01*
X107394304Y-54094479D01*
X107392236Y-54090858D01*
X107390050Y-54087507D01*
X107387765Y-54084414D01*
X107385401Y-54081570D01*
X107382978Y-54078964D01*
X107380516Y-54076587D01*
X107378033Y-54074429D01*
X107375549Y-54072479D01*
X107373084Y-54070727D01*
X107370657Y-54069164D01*
X107368288Y-54067779D01*
X107363801Y-54065505D01*
X107359780Y-54063825D01*
X107356381Y-54062657D01*
X107353760Y-54061923D01*
X107351475Y-54061431D01*
X106954600Y-54061431D01*
X106948722Y-54061606D01*
X106943280Y-54062069D01*
X106938258Y-54062800D01*
X106933639Y-54063781D01*
X106929408Y-54064992D01*
X106925547Y-54066413D01*
X106922041Y-54068026D01*
X106918873Y-54069811D01*
X106916027Y-54071749D01*
X106913486Y-54073822D01*
X106911233Y-54076008D01*
X106909254Y-54078291D01*
X106907531Y-54080649D01*
X106906047Y-54083064D01*
X106904787Y-54085517D01*
X106903734Y-54087989D01*
X106902871Y-54090459D01*
X106902183Y-54092910D01*
X106901653Y-54095322D01*
X106901265Y-54097675D01*
X106900847Y-54102128D01*
X106900799Y-54106117D01*
X106900989Y-54109487D01*
X106901287Y-54112085D01*
X106901683Y-54114348D01*
X106901683Y-54828722D01*
X106901888Y-54833646D01*
X106902531Y-54838255D01*
X106903584Y-54842559D01*
X106905018Y-54846569D01*
X106906803Y-54850295D01*
X106908910Y-54853747D01*
X106911310Y-54856936D01*
X106913974Y-54859873D01*
X106916872Y-54862567D01*
X106919976Y-54865030D01*
X106923255Y-54867271D01*
X106926682Y-54869301D01*
X106930226Y-54871131D01*
X106933858Y-54872771D01*
X106937550Y-54874230D01*
X106941272Y-54875521D01*
X106948688Y-54877635D01*
X106955874Y-54879197D01*
X106962595Y-54880291D01*
X106968619Y-54880998D01*
X106977637Y-54881590D01*
X106981058Y-54881639D01*
X107351475Y-54881639D01*
X107356795Y-54881441D01*
X107361749Y-54880958D01*
X107366351Y-54880209D01*
X107370613Y-54879213D01*
X107374548Y-54877990D01*
X107378170Y-54876559D01*
X107381491Y-54874938D01*
X107384523Y-54873148D01*
X107387281Y-54871205D01*
X107389776Y-54869131D01*
X107392021Y-54866944D01*
X107394031Y-54864663D01*
X107395816Y-54862308D01*
X107397391Y-54859896D01*
X107398768Y-54857448D01*
X107399960Y-54854982D01*
X107400980Y-54852518D01*
X107401841Y-54850075D01*
X107402555Y-54847671D01*
X107403136Y-54845326D01*
X107403949Y-54840889D01*
X107404383Y-54836916D01*
X107404542Y-54833560D01*
X107404527Y-54830974D01*
X107404392Y-54828722D01*
X107404392Y-54619173D01*
X107139808Y-54617056D01*
X107139808Y-54378931D01*
X107703635Y-54378664D01*
X107710316Y-54577168D01*
X107713681Y-54751256D01*
X107713916Y-54835413D01*
X107712631Y-54909419D01*
X107711439Y-54926418D01*
X107709009Y-54942746D01*
X107705426Y-54958411D01*
X107700773Y-54973421D01*
X107695134Y-54987785D01*
X107688592Y-55001512D01*
X107681231Y-55014610D01*
X107673134Y-55027088D01*
X107664385Y-55038956D01*
X107655068Y-55050220D01*
X107645266Y-55060891D01*
X107635064Y-55070977D01*
X107624544Y-55080486D01*
X107613790Y-55089427D01*
X107602886Y-55097809D01*
X107591915Y-55105641D01*
X107570109Y-55119687D01*
X107549039Y-55131636D01*
X107529376Y-55141556D01*
X107511788Y-55149516D01*
X107485512Y-55159838D01*
X107475565Y-55163155D01*
X107293697Y-55165801D01*
X107095719Y-55165834D01*
X106852471Y-55162097D01*
X106830216Y-55160856D01*
X106809214Y-55158286D01*
X106789430Y-55154474D01*
X106770828Y-55149512D01*
X106753373Y-55143489D01*
X106737028Y-55136496D01*
X106721757Y-55128621D01*
X106707525Y-55119954D01*
X106694296Y-55110587D01*
X106682033Y-55100607D01*
X106670701Y-55090106D01*
X106660264Y-55079172D01*
X106650687Y-55067897D01*
X106641932Y-55056369D01*
X106633965Y-55044678D01*
X106626749Y-55032915D01*
X106620248Y-55021169D01*
X106614427Y-55009529D01*
X106604680Y-54986930D01*
X106597221Y-54965837D01*
X106591762Y-54946967D01*
X106588015Y-54931039D01*
X106585695Y-54918773D01*
X106584184Y-54908098D01*
X106584184Y-54061431D01*
X106585570Y-54037028D01*
X106588757Y-54014093D01*
X106593623Y-53992579D01*
X106600046Y-53972443D01*
X106607907Y-53953638D01*
X106617084Y-53936119D01*
X106627456Y-53919840D01*
X106638903Y-53904756D01*
X106651303Y-53890822D01*
X106664536Y-53877992D01*
X106678480Y-53866220D01*
X106693014Y-53855462D01*
X106708019Y-53845671D01*
X106723372Y-53836803D01*
X106738954Y-53828812D01*
X106754642Y-53821652D01*
X106785855Y-53809645D01*
X106816046Y-53800418D01*
X106844246Y-53793608D01*
X106869487Y-53788852D01*
X106890804Y-53785785D01*
X106907228Y-53784045D01*
X106921528Y-53783089D01*
X107108522Y-53781534D01*
X107272464Y-53780968D01*
X107421326Y-53781767D01*
D11*
G36*
X107351475Y-47737889D02*
G01*
X107132255Y-47776985D01*
X106863761Y-47833395D01*
X106691405Y-47873014D01*
X106494258Y-47921080D01*
X106272781Y-47978222D01*
X106027435Y-48045067D01*
X105758679Y-48122244D01*
X105466976Y-48210381D01*
X105152786Y-48310107D01*
X104816570Y-48422049D01*
X104458789Y-48546837D01*
X104079902Y-48685097D01*
X105525850Y-49034348D01*
X107748350Y-47790806D01*
X107774808Y-47949556D01*
X105605225Y-49272472D01*
X103329809Y-48716848D01*
X106398975Y-47632056D01*
X107351475Y-47737889D01*
G37*
D10*
X111849391Y-53770390D02*
X111849391Y-54061431D01*
X111187934Y-54061431D01*
X111187934Y-54352473D01*
X111743558Y-54352473D01*
X111743558Y-54617056D01*
X111187934Y-54617056D01*
X111187934Y-55172681D01*
X110870433Y-55172681D01*
X110878635Y-53766950D01*
X111849391Y-53770390D01*
D11*
G36*
X109177100Y-45991639D02*
G01*
X108595017Y-46573723D01*
X108647933Y-46891223D01*
X108251058Y-45991639D01*
X107827725Y-46891223D01*
X107880642Y-46573723D01*
X107298558Y-45991639D01*
X107245642Y-45250806D01*
X107481914Y-45857231D01*
X107535410Y-45929570D01*
X107590689Y-46002534D01*
X107654687Y-46084508D01*
X107719678Y-46163853D01*
X107750130Y-46198902D01*
X107777934Y-46228929D01*
X107802122Y-46252479D01*
X107821728Y-46268097D01*
X107829512Y-46272477D01*
X107835788Y-46274328D01*
X107840436Y-46273468D01*
X107843335Y-46269717D01*
X107850920Y-46253947D01*
X107865130Y-46228542D01*
X107909796Y-46154631D01*
X107970063Y-46059599D01*
X108038664Y-45955061D01*
X108108332Y-45852631D01*
X108171799Y-45763924D01*
X108198936Y-45728347D01*
X108221797Y-45700555D01*
X108239474Y-45682002D01*
X108246085Y-45676644D01*
X108251058Y-45674139D01*
X108256061Y-45674931D01*
X108262753Y-45679186D01*
X108280722Y-45697173D01*
X108303994Y-45726270D01*
X108331599Y-45764647D01*
X108395933Y-45861919D01*
X108465966Y-45974342D01*
X108592098Y-46186071D01*
X108647933Y-46282681D01*
X108991892Y-45885806D01*
X109230017Y-45250806D01*
X109177100Y-45991639D01*
G37*
D10*
X105975642Y-54643514D02*
X105605225Y-54643514D01*
X105790433Y-54087889D01*
X105975642Y-54643514D01*
X108845517Y-53771425D02*
X108859728Y-53773283D01*
X108878170Y-53776537D01*
X108900004Y-53781563D01*
X108924392Y-53788737D01*
X108950494Y-53798436D01*
X108963926Y-53804350D01*
X108977472Y-53811036D01*
X108991027Y-53818542D01*
X109004487Y-53826913D01*
X109017746Y-53836199D01*
X109030701Y-53846444D01*
X109043245Y-53857698D01*
X109055274Y-53870005D01*
X109066684Y-53883415D01*
X109077369Y-53897972D01*
X109087224Y-53913726D01*
X109096145Y-53930722D01*
X109104028Y-53949008D01*
X109110766Y-53968631D01*
X109116255Y-53989638D01*
X109120391Y-54012075D01*
X109123069Y-54035991D01*
X109124183Y-54061431D01*
X109131063Y-54905981D01*
X109129472Y-54917144D01*
X109126978Y-54929957D01*
X109122902Y-54946574D01*
X109116906Y-54966234D01*
X109108655Y-54988176D01*
X109097809Y-55011638D01*
X109091309Y-55023701D01*
X109084033Y-55035858D01*
X109075940Y-55048015D01*
X109066989Y-55060075D01*
X109057136Y-55071945D01*
X109046339Y-55083528D01*
X109034557Y-55094729D01*
X109021747Y-55105454D01*
X109007868Y-55115607D01*
X108992876Y-55125093D01*
X108976730Y-55133816D01*
X108959388Y-55141682D01*
X108940807Y-55148595D01*
X108920946Y-55154460D01*
X108899761Y-55159182D01*
X108877212Y-55162665D01*
X108853256Y-55164815D01*
X108827851Y-55165537D01*
X108297625Y-55166066D01*
X108284779Y-55164489D01*
X108270022Y-55162027D01*
X108250864Y-55158013D01*
X108228174Y-55152120D01*
X108202817Y-55144021D01*
X108175661Y-55133389D01*
X108161680Y-55127021D01*
X108147573Y-55119897D01*
X108133451Y-55111976D01*
X108119420Y-55103217D01*
X108105590Y-55093579D01*
X108092069Y-55083022D01*
X108078965Y-55071505D01*
X108066387Y-55058986D01*
X108054443Y-55045426D01*
X108043241Y-55030782D01*
X108032889Y-55015014D01*
X108023497Y-54998081D01*
X108015173Y-54979943D01*
X108008024Y-54960557D01*
X108002159Y-54939885D01*
X107997687Y-54917884D01*
X107994716Y-54894513D01*
X107993355Y-54869733D01*
X107988485Y-54558368D01*
X107986541Y-54301077D01*
X107986475Y-54061431D01*
X107988297Y-54049902D01*
X107991146Y-54036613D01*
X107995793Y-54019305D01*
X108002621Y-53998725D01*
X108012008Y-53975623D01*
X108017781Y-53963359D01*
X108024337Y-53950745D01*
X108031723Y-53937874D01*
X108039987Y-53924840D01*
X108049177Y-53911736D01*
X108059339Y-53898656D01*
X108070523Y-53885694D01*
X108082774Y-53872942D01*
X108096142Y-53860494D01*
X108110672Y-53848444D01*
X108126414Y-53836885D01*
X108143414Y-53825911D01*
X108161721Y-53815615D01*
X108181381Y-53806091D01*
X108202442Y-53797432D01*
X108224953Y-53789732D01*
X108248959Y-53783084D01*
X108274510Y-53777582D01*
X108301652Y-53773320D01*
X108330433Y-53770390D01*
X108833142Y-53770390D01*
X108845517Y-53771425D01*
X103253344Y-53775681D02*
X103295351Y-53786781D01*
X103315719Y-53793373D01*
X103338469Y-53802224D01*
X103362818Y-53813700D01*
X103375348Y-53820537D01*
X103387984Y-53828168D01*
X103400628Y-53836638D01*
X103413184Y-53845994D01*
X103425552Y-53856281D01*
X103437635Y-53867544D01*
X103449336Y-53879830D01*
X103460556Y-53893185D01*
X103471197Y-53907653D01*
X103481163Y-53923282D01*
X103490354Y-53940116D01*
X103498674Y-53958202D01*
X103506024Y-53977586D01*
X103512307Y-53998312D01*
X103517424Y-54020427D01*
X103521278Y-54043977D01*
X103523772Y-54069007D01*
X103524807Y-54095564D01*
X103533538Y-54864707D01*
X103533921Y-54877843D01*
X103533561Y-54892925D01*
X103532087Y-54912493D01*
X103528940Y-54935657D01*
X103523562Y-54961524D01*
X103519861Y-54975193D01*
X103515392Y-54989203D01*
X103510085Y-55003443D01*
X103503872Y-55017802D01*
X103496680Y-55032167D01*
X103488441Y-55046428D01*
X103479085Y-55060473D01*
X103468542Y-55074190D01*
X103456742Y-55087469D01*
X103443614Y-55100197D01*
X103429090Y-55112263D01*
X103413099Y-55123556D01*
X103395571Y-55133964D01*
X103376437Y-55143376D01*
X103355625Y-55151680D01*
X103333068Y-55158765D01*
X103308694Y-55164519D01*
X103282434Y-55168831D01*
X103254218Y-55171589D01*
X103223975Y-55172682D01*
X102688756Y-55173575D01*
X102403767Y-55172682D01*
X102403767Y-54881639D01*
X102403767Y-54061431D01*
X102694809Y-54061431D01*
X102694809Y-54881639D01*
X102902837Y-54882631D01*
X103055345Y-54882755D01*
X103144600Y-54881639D01*
X103148785Y-54881179D01*
X103152904Y-54880312D01*
X103156952Y-54879066D01*
X103160925Y-54877469D01*
X103164818Y-54875548D01*
X103168628Y-54873332D01*
X103172349Y-54870847D01*
X103175978Y-54868121D01*
X103179510Y-54865182D01*
X103182941Y-54862057D01*
X103186266Y-54858775D01*
X103189481Y-54855362D01*
X103195564Y-54848256D01*
X103201155Y-54840960D01*
X103206219Y-54833695D01*
X103210720Y-54826682D01*
X103214625Y-54820141D01*
X103217898Y-54814295D01*
X103222409Y-54805567D01*
X103223975Y-54802264D01*
X103225265Y-54476661D01*
X103225426Y-54242484D01*
X103223975Y-54114348D01*
X103223445Y-54109890D01*
X103222517Y-54105687D01*
X103221219Y-54101733D01*
X103219577Y-54098021D01*
X103217619Y-54094541D01*
X103215373Y-54091288D01*
X103212865Y-54088254D01*
X103210122Y-54085430D01*
X103207172Y-54082809D01*
X103204041Y-54080385D01*
X103200758Y-54078149D01*
X103197349Y-54076094D01*
X103193841Y-54074213D01*
X103190262Y-54072497D01*
X103182998Y-54069534D01*
X103175774Y-54067144D01*
X103168808Y-54065268D01*
X103162317Y-54063845D01*
X103156519Y-54062816D01*
X103147870Y-54061697D01*
X103144600Y-54061431D01*
X102694809Y-54061431D01*
X102403767Y-54061431D01*
X102403767Y-53770390D01*
X103253344Y-53775681D01*
X104585677Y-54060541D02*
X104590163Y-54060943D01*
X104592532Y-54061323D01*
X104594959Y-54061846D01*
X104597424Y-54062527D01*
X104599908Y-54063383D01*
X104602391Y-54064430D01*
X104604853Y-54065685D01*
X104607276Y-54067165D01*
X104609640Y-54068886D01*
X104611925Y-54070864D01*
X104614111Y-54073116D01*
X104616179Y-54075659D01*
X104618110Y-54078509D01*
X104619884Y-54081683D01*
X104621482Y-54085197D01*
X104622883Y-54089067D01*
X104624069Y-54093311D01*
X104625020Y-54097944D01*
X104625716Y-54102984D01*
X104626138Y-54108446D01*
X104626267Y-54114348D01*
X104626267Y-54352473D01*
X104625903Y-54354703D01*
X104625374Y-54357265D01*
X104624547Y-54360592D01*
X104623373Y-54364533D01*
X104621802Y-54368937D01*
X104619785Y-54373654D01*
X104618593Y-54376083D01*
X104617271Y-54378534D01*
X104615813Y-54380988D01*
X104614212Y-54383427D01*
X104612462Y-54385831D01*
X104610557Y-54388181D01*
X104608491Y-54390460D01*
X104606258Y-54392647D01*
X104603851Y-54394725D01*
X104601264Y-54396675D01*
X104598491Y-54398477D01*
X104595526Y-54400113D01*
X104592362Y-54401564D01*
X104588994Y-54402812D01*
X104585415Y-54403837D01*
X104581618Y-54404621D01*
X104577599Y-54405145D01*
X104573350Y-54405389D01*
X104097100Y-54405389D01*
X104097100Y-54061431D01*
X104573350Y-54061431D01*
X104575635Y-54061025D01*
X104578256Y-54060714D01*
X104581656Y-54060509D01*
X104585677Y-54060541D01*
D11*
G36*
X106954600Y-47235181D02*
G01*
X104282309Y-46732473D01*
X103567934Y-46044556D01*
X106954600Y-47235181D01*
G37*
D10*
X104690574Y-53771067D02*
X104703646Y-53772535D01*
X104720599Y-53775309D01*
X104740656Y-53779804D01*
X104763039Y-53786435D01*
X104774860Y-53790681D01*
X104786971Y-53795616D01*
X104799274Y-53801292D01*
X104811674Y-53807762D01*
X104824071Y-53815076D01*
X104836370Y-53823287D01*
X104848474Y-53832447D01*
X104860284Y-53842607D01*
X104871703Y-53853819D01*
X104882636Y-53866136D01*
X104892983Y-53879608D01*
X104902649Y-53894289D01*
X104911536Y-53910229D01*
X104919546Y-53927480D01*
X104926583Y-53946094D01*
X104932550Y-53966124D01*
X104937349Y-53987621D01*
X104940883Y-54010636D01*
X104943054Y-54035223D01*
X104943767Y-54061431D01*
X104943767Y-54405389D01*
X104941861Y-54413958D01*
X104939121Y-54423957D01*
X104934870Y-54437131D01*
X104928871Y-54453006D01*
X104920885Y-54471106D01*
X104910672Y-54490957D01*
X104904656Y-54501390D01*
X104897994Y-54512082D01*
X104890656Y-54522975D01*
X104882612Y-54534008D01*
X104873833Y-54545122D01*
X104864289Y-54556258D01*
X104853949Y-54567357D01*
X104842783Y-54578359D01*
X104830763Y-54589204D01*
X104817858Y-54599833D01*
X104804039Y-54610187D01*
X104789275Y-54620207D01*
X104773536Y-54629832D01*
X104756793Y-54639005D01*
X104739017Y-54647664D01*
X104720176Y-54655752D01*
X104700242Y-54663207D01*
X104679184Y-54669972D01*
X104690413Y-54690899D01*
X104722489Y-54745412D01*
X104821629Y-54910346D01*
X104967050Y-55149927D01*
X104642671Y-55156542D01*
X104361684Y-54669972D01*
X104097101Y-54669972D01*
X104097101Y-55172681D01*
X103779601Y-55172681D01*
X103779601Y-53770390D01*
X103806059Y-53770390D01*
X104679184Y-53770390D01*
X104690574Y-53771067D01*
D11*
G36*
X112431475Y-47129348D02*
G01*
X108700850Y-47658514D01*
X108700850Y-47499764D01*
X112325641Y-46891223D01*
X112916257Y-46302459D01*
X113317506Y-45894000D01*
X113446318Y-45756771D01*
X113480484Y-45716847D01*
X113488470Y-45705550D01*
X113489808Y-45700598D01*
X112736068Y-45949546D01*
X111100025Y-46514257D01*
X108727308Y-47341014D01*
X108727308Y-47102889D01*
X114310016Y-45144973D01*
X112431475Y-47129348D01*
G37*
G36*
X105507594Y-48817654D02*
G01*
X104679184Y-48663931D01*
X107139808Y-47870181D01*
X105507594Y-48817654D01*
G37*
G36*
X107748350Y-47102889D02*
G01*
X107748350Y-47341014D01*
X105375633Y-46514257D01*
X103739590Y-45949546D01*
X102985850Y-45700598D01*
X102987188Y-45705550D01*
X102995175Y-45716847D01*
X103029340Y-45756771D01*
X103158152Y-45894000D01*
X103559401Y-46302459D01*
X104150017Y-46891223D01*
X107774808Y-47499764D01*
X107774808Y-47658514D01*
X104044184Y-47129348D01*
X102165642Y-45144973D01*
X107748350Y-47102889D01*
G37*
D10*
X112383586Y-54900160D02*
X113016998Y-54903600D01*
X113013558Y-55172681D01*
X112061058Y-55172681D01*
X112061058Y-53770390D01*
X112378558Y-53770390D01*
X112383586Y-54900160D01*
D11*
G36*
X113145850Y-48716848D02*
G01*
X110870433Y-49272472D01*
X108700850Y-47949556D01*
X108727308Y-47790806D01*
X110949808Y-49034348D01*
X112395756Y-48685097D01*
X112016870Y-48546837D01*
X111659088Y-48422049D01*
X111322872Y-48310107D01*
X111008682Y-48210381D01*
X110716979Y-48122244D01*
X110448224Y-48045067D01*
X110202877Y-47978222D01*
X109981400Y-47921080D01*
X109784253Y-47873014D01*
X109611897Y-47833395D01*
X109343403Y-47776985D01*
X109124183Y-47737889D01*
X110076683Y-47632056D01*
X113145850Y-48716848D01*
G37*
D10*
X108782655Y-54061469D02*
X108785146Y-54061644D01*
X108788386Y-54062035D01*
X108792230Y-54062726D01*
X108796535Y-54063803D01*
X108798816Y-54064512D01*
X108801158Y-54065350D01*
X108803544Y-54066325D01*
X108805956Y-54067450D01*
X108808375Y-54068735D01*
X108810784Y-54070190D01*
X108813165Y-54071826D01*
X108815500Y-54073653D01*
X108817771Y-54075682D01*
X108819961Y-54077923D01*
X108822050Y-54080388D01*
X108824022Y-54083086D01*
X108825858Y-54086028D01*
X108827540Y-54089225D01*
X108829051Y-54092687D01*
X108830373Y-54096425D01*
X108831487Y-54100450D01*
X108832376Y-54104772D01*
X108833022Y-54109401D01*
X108833406Y-54114348D01*
X108834328Y-54244940D01*
X108834035Y-54478844D01*
X108832878Y-54802264D01*
X108833339Y-54805643D01*
X108833708Y-54809522D01*
X108833985Y-54814555D01*
X108834034Y-54820514D01*
X108833715Y-54827170D01*
X108832890Y-54834293D01*
X108832245Y-54837958D01*
X108831422Y-54841654D01*
X108830404Y-54845352D01*
X108829173Y-54849025D01*
X108827712Y-54852642D01*
X108826004Y-54856175D01*
X108824032Y-54859597D01*
X108821779Y-54862878D01*
X108819226Y-54865989D01*
X108816358Y-54868902D01*
X108813156Y-54871588D01*
X108809603Y-54874019D01*
X108805683Y-54876166D01*
X108801378Y-54878001D01*
X108796670Y-54879494D01*
X108791543Y-54880617D01*
X108785979Y-54881342D01*
X108779961Y-54881639D01*
X108383086Y-54881639D01*
X108379708Y-54881818D01*
X108370795Y-54881780D01*
X108364836Y-54881410D01*
X108358180Y-54880663D01*
X108351057Y-54879430D01*
X108343696Y-54877604D01*
X108339998Y-54876436D01*
X108336325Y-54875078D01*
X108332708Y-54873518D01*
X108329174Y-54871743D01*
X108325753Y-54869739D01*
X108322472Y-54867492D01*
X108319361Y-54864989D01*
X108316448Y-54862217D01*
X108313762Y-54859162D01*
X108311331Y-54855810D01*
X108309184Y-54852149D01*
X108307350Y-54848164D01*
X108305857Y-54843843D01*
X108304733Y-54839171D01*
X108304009Y-54834135D01*
X108303711Y-54828722D01*
X108304240Y-54140806D01*
X108303822Y-54137482D01*
X108303500Y-54133662D01*
X108303281Y-54128701D01*
X108303297Y-54122823D01*
X108303682Y-54116249D01*
X108304569Y-54109205D01*
X108305243Y-54105576D01*
X108306092Y-54101912D01*
X108307133Y-54098243D01*
X108308384Y-54094595D01*
X108309860Y-54090997D01*
X108311578Y-54087476D01*
X108313555Y-54084061D01*
X108315808Y-54080779D01*
X108318352Y-54077658D01*
X108321206Y-54074727D01*
X108324386Y-54072012D01*
X108327907Y-54069542D01*
X108331788Y-54067346D01*
X108336044Y-54065450D01*
X108340692Y-54063882D01*
X108345749Y-54062671D01*
X108351232Y-54061845D01*
X108357157Y-54061431D01*
X108780490Y-54061431D01*
X108782655Y-54061469D01*
D12*
X167345238Y-77756819D02*
X166869048Y-77756819D01*
X166869048Y-77756819D02*
X166869048Y-76756819D01*
X167678572Y-77756819D02*
X167678572Y-76756819D01*
X166730953Y-76479200D02*
X167816667Y-76479200D01*
X168678571Y-77756819D02*
X168107143Y-77756819D01*
X168392857Y-77756819D02*
X168392857Y-76756819D01*
X168392857Y-76756819D02*
X168297619Y-76899676D01*
X168297619Y-76899676D02*
X168202381Y-76994914D01*
X168202381Y-76994914D02*
X168107143Y-77042533D01*
X185988095Y-54174819D02*
X185988095Y-54984342D01*
X185988095Y-54984342D02*
X186035714Y-55079580D01*
X186035714Y-55079580D02*
X186083333Y-55127200D01*
X186083333Y-55127200D02*
X186178571Y-55174819D01*
X186178571Y-55174819D02*
X186369047Y-55174819D01*
X186369047Y-55174819D02*
X186464285Y-55127200D01*
X186464285Y-55127200D02*
X186511904Y-55079580D01*
X186511904Y-55079580D02*
X186559523Y-54984342D01*
X186559523Y-54984342D02*
X186559523Y-54174819D01*
X187559523Y-55174819D02*
X186988095Y-55174819D01*
X187273809Y-55174819D02*
X187273809Y-54174819D01*
X187273809Y-54174819D02*
X187178571Y-54317676D01*
X187178571Y-54317676D02*
X187083333Y-54412914D01*
X187083333Y-54412914D02*
X186988095Y-54460533D01*
X190233333Y-48359580D02*
X190185714Y-48407200D01*
X190185714Y-48407200D02*
X190042857Y-48454819D01*
X190042857Y-48454819D02*
X189947619Y-48454819D01*
X189947619Y-48454819D02*
X189804762Y-48407200D01*
X189804762Y-48407200D02*
X189709524Y-48311961D01*
X189709524Y-48311961D02*
X189661905Y-48216723D01*
X189661905Y-48216723D02*
X189614286Y-48026247D01*
X189614286Y-48026247D02*
X189614286Y-47883390D01*
X189614286Y-47883390D02*
X189661905Y-47692914D01*
X189661905Y-47692914D02*
X189709524Y-47597676D01*
X189709524Y-47597676D02*
X189804762Y-47502438D01*
X189804762Y-47502438D02*
X189947619Y-47454819D01*
X189947619Y-47454819D02*
X190042857Y-47454819D01*
X190042857Y-47454819D02*
X190185714Y-47502438D01*
X190185714Y-47502438D02*
X190233333Y-47550057D01*
X190566667Y-47454819D02*
X191185714Y-47454819D01*
X191185714Y-47454819D02*
X190852381Y-47835771D01*
X190852381Y-47835771D02*
X190995238Y-47835771D01*
X190995238Y-47835771D02*
X191090476Y-47883390D01*
X191090476Y-47883390D02*
X191138095Y-47931009D01*
X191138095Y-47931009D02*
X191185714Y-48026247D01*
X191185714Y-48026247D02*
X191185714Y-48264342D01*
X191185714Y-48264342D02*
X191138095Y-48359580D01*
X191138095Y-48359580D02*
X191090476Y-48407200D01*
X191090476Y-48407200D02*
X190995238Y-48454819D01*
X190995238Y-48454819D02*
X190709524Y-48454819D01*
X190709524Y-48454819D02*
X190614286Y-48407200D01*
X190614286Y-48407200D02*
X190566667Y-48359580D01*
X121357142Y-66859580D02*
X121309523Y-66907200D01*
X121309523Y-66907200D02*
X121166666Y-66954819D01*
X121166666Y-66954819D02*
X121071428Y-66954819D01*
X121071428Y-66954819D02*
X120928571Y-66907200D01*
X120928571Y-66907200D02*
X120833333Y-66811961D01*
X120833333Y-66811961D02*
X120785714Y-66716723D01*
X120785714Y-66716723D02*
X120738095Y-66526247D01*
X120738095Y-66526247D02*
X120738095Y-66383390D01*
X120738095Y-66383390D02*
X120785714Y-66192914D01*
X120785714Y-66192914D02*
X120833333Y-66097676D01*
X120833333Y-66097676D02*
X120928571Y-66002438D01*
X120928571Y-66002438D02*
X121071428Y-65954819D01*
X121071428Y-65954819D02*
X121166666Y-65954819D01*
X121166666Y-65954819D02*
X121309523Y-66002438D01*
X121309523Y-66002438D02*
X121357142Y-66050057D01*
X122309523Y-66954819D02*
X121738095Y-66954819D01*
X122023809Y-66954819D02*
X122023809Y-65954819D01*
X122023809Y-65954819D02*
X121928571Y-66097676D01*
X121928571Y-66097676D02*
X121833333Y-66192914D01*
X121833333Y-66192914D02*
X121738095Y-66240533D01*
X123261904Y-66954819D02*
X122690476Y-66954819D01*
X122976190Y-66954819D02*
X122976190Y-65954819D01*
X122976190Y-65954819D02*
X122880952Y-66097676D01*
X122880952Y-66097676D02*
X122785714Y-66192914D01*
X122785714Y-66192914D02*
X122690476Y-66240533D01*
X109845238Y-122681009D02*
X109988095Y-122728628D01*
X109988095Y-122728628D02*
X110035714Y-122776247D01*
X110035714Y-122776247D02*
X110083333Y-122871485D01*
X110083333Y-122871485D02*
X110083333Y-123014342D01*
X110083333Y-123014342D02*
X110035714Y-123109580D01*
X110035714Y-123109580D02*
X109988095Y-123157200D01*
X109988095Y-123157200D02*
X109892857Y-123204819D01*
X109892857Y-123204819D02*
X109511905Y-123204819D01*
X109511905Y-123204819D02*
X109511905Y-122204819D01*
X109511905Y-122204819D02*
X109845238Y-122204819D01*
X109845238Y-122204819D02*
X109940476Y-122252438D01*
X109940476Y-122252438D02*
X109988095Y-122300057D01*
X109988095Y-122300057D02*
X110035714Y-122395295D01*
X110035714Y-122395295D02*
X110035714Y-122490533D01*
X110035714Y-122490533D02*
X109988095Y-122585771D01*
X109988095Y-122585771D02*
X109940476Y-122633390D01*
X109940476Y-122633390D02*
X109845238Y-122681009D01*
X109845238Y-122681009D02*
X109511905Y-122681009D01*
X111083333Y-123109580D02*
X111035714Y-123157200D01*
X111035714Y-123157200D02*
X110892857Y-123204819D01*
X110892857Y-123204819D02*
X110797619Y-123204819D01*
X110797619Y-123204819D02*
X110654762Y-123157200D01*
X110654762Y-123157200D02*
X110559524Y-123061961D01*
X110559524Y-123061961D02*
X110511905Y-122966723D01*
X110511905Y-122966723D02*
X110464286Y-122776247D01*
X110464286Y-122776247D02*
X110464286Y-122633390D01*
X110464286Y-122633390D02*
X110511905Y-122442914D01*
X110511905Y-122442914D02*
X110559524Y-122347676D01*
X110559524Y-122347676D02*
X110654762Y-122252438D01*
X110654762Y-122252438D02*
X110797619Y-122204819D01*
X110797619Y-122204819D02*
X110892857Y-122204819D01*
X110892857Y-122204819D02*
X111035714Y-122252438D01*
X111035714Y-122252438D02*
X111083333Y-122300057D01*
X112035714Y-123204819D02*
X111464286Y-123204819D01*
X111750000Y-123204819D02*
X111750000Y-122204819D01*
X111750000Y-122204819D02*
X111654762Y-122347676D01*
X111654762Y-122347676D02*
X111559524Y-122442914D01*
X111559524Y-122442914D02*
X111464286Y-122490533D01*
X101309580Y-117157188D02*
X101357200Y-117204807D01*
X101357200Y-117204807D02*
X101404819Y-117347664D01*
X101404819Y-117347664D02*
X101404819Y-117442902D01*
X101404819Y-117442902D02*
X101357200Y-117585759D01*
X101357200Y-117585759D02*
X101261961Y-117680997D01*
X101261961Y-117680997D02*
X101166723Y-117728616D01*
X101166723Y-117728616D02*
X100976247Y-117776235D01*
X100976247Y-117776235D02*
X100833390Y-117776235D01*
X100833390Y-117776235D02*
X100642914Y-117728616D01*
X100642914Y-117728616D02*
X100547676Y-117680997D01*
X100547676Y-117680997D02*
X100452438Y-117585759D01*
X100452438Y-117585759D02*
X100404819Y-117442902D01*
X100404819Y-117442902D02*
X100404819Y-117347664D01*
X100404819Y-117347664D02*
X100452438Y-117204807D01*
X100452438Y-117204807D02*
X100500057Y-117157188D01*
X100404819Y-116252426D02*
X100404819Y-116728616D01*
X100404819Y-116728616D02*
X100881009Y-116776235D01*
X100881009Y-116776235D02*
X100833390Y-116728616D01*
X100833390Y-116728616D02*
X100785771Y-116633378D01*
X100785771Y-116633378D02*
X100785771Y-116395283D01*
X100785771Y-116395283D02*
X100833390Y-116300045D01*
X100833390Y-116300045D02*
X100881009Y-116252426D01*
X100881009Y-116252426D02*
X100976247Y-116204807D01*
X100976247Y-116204807D02*
X101214342Y-116204807D01*
X101214342Y-116204807D02*
X101309580Y-116252426D01*
X101309580Y-116252426D02*
X101357200Y-116300045D01*
X101357200Y-116300045D02*
X101404819Y-116395283D01*
X101404819Y-116395283D02*
X101404819Y-116633378D01*
X101404819Y-116633378D02*
X101357200Y-116728616D01*
X101357200Y-116728616D02*
X101309580Y-116776235D01*
X193859580Y-78166666D02*
X193907200Y-78214285D01*
X193907200Y-78214285D02*
X193954819Y-78357142D01*
X193954819Y-78357142D02*
X193954819Y-78452380D01*
X193954819Y-78452380D02*
X193907200Y-78595237D01*
X193907200Y-78595237D02*
X193811961Y-78690475D01*
X193811961Y-78690475D02*
X193716723Y-78738094D01*
X193716723Y-78738094D02*
X193526247Y-78785713D01*
X193526247Y-78785713D02*
X193383390Y-78785713D01*
X193383390Y-78785713D02*
X193192914Y-78738094D01*
X193192914Y-78738094D02*
X193097676Y-78690475D01*
X193097676Y-78690475D02*
X193002438Y-78595237D01*
X193002438Y-78595237D02*
X192954819Y-78452380D01*
X192954819Y-78452380D02*
X192954819Y-78357142D01*
X192954819Y-78357142D02*
X193002438Y-78214285D01*
X193002438Y-78214285D02*
X193050057Y-78166666D01*
X193954819Y-77214285D02*
X193954819Y-77785713D01*
X193954819Y-77499999D02*
X192954819Y-77499999D01*
X192954819Y-77499999D02*
X193097676Y-77595237D01*
X193097676Y-77595237D02*
X193192914Y-77690475D01*
X193192914Y-77690475D02*
X193240533Y-77785713D01*
X179083333Y-98324819D02*
X178750000Y-97848628D01*
X178511905Y-98324819D02*
X178511905Y-97324819D01*
X178511905Y-97324819D02*
X178892857Y-97324819D01*
X178892857Y-97324819D02*
X178988095Y-97372438D01*
X178988095Y-97372438D02*
X179035714Y-97420057D01*
X179035714Y-97420057D02*
X179083333Y-97515295D01*
X179083333Y-97515295D02*
X179083333Y-97658152D01*
X179083333Y-97658152D02*
X179035714Y-97753390D01*
X179035714Y-97753390D02*
X178988095Y-97801009D01*
X178988095Y-97801009D02*
X178892857Y-97848628D01*
X178892857Y-97848628D02*
X178511905Y-97848628D01*
X180035714Y-98324819D02*
X179464286Y-98324819D01*
X179750000Y-98324819D02*
X179750000Y-97324819D01*
X179750000Y-97324819D02*
X179654762Y-97467676D01*
X179654762Y-97467676D02*
X179559524Y-97562914D01*
X179559524Y-97562914D02*
X179464286Y-97610533D01*
X105857142Y-66859580D02*
X105809523Y-66907200D01*
X105809523Y-66907200D02*
X105666666Y-66954819D01*
X105666666Y-66954819D02*
X105571428Y-66954819D01*
X105571428Y-66954819D02*
X105428571Y-66907200D01*
X105428571Y-66907200D02*
X105333333Y-66811961D01*
X105333333Y-66811961D02*
X105285714Y-66716723D01*
X105285714Y-66716723D02*
X105238095Y-66526247D01*
X105238095Y-66526247D02*
X105238095Y-66383390D01*
X105238095Y-66383390D02*
X105285714Y-66192914D01*
X105285714Y-66192914D02*
X105333333Y-66097676D01*
X105333333Y-66097676D02*
X105428571Y-66002438D01*
X105428571Y-66002438D02*
X105571428Y-65954819D01*
X105571428Y-65954819D02*
X105666666Y-65954819D01*
X105666666Y-65954819D02*
X105809523Y-66002438D01*
X105809523Y-66002438D02*
X105857142Y-66050057D01*
X106809523Y-66954819D02*
X106238095Y-66954819D01*
X106523809Y-66954819D02*
X106523809Y-65954819D01*
X106523809Y-65954819D02*
X106428571Y-66097676D01*
X106428571Y-66097676D02*
X106333333Y-66192914D01*
X106333333Y-66192914D02*
X106238095Y-66240533D01*
X107190476Y-66050057D02*
X107238095Y-66002438D01*
X107238095Y-66002438D02*
X107333333Y-65954819D01*
X107333333Y-65954819D02*
X107571428Y-65954819D01*
X107571428Y-65954819D02*
X107666666Y-66002438D01*
X107666666Y-66002438D02*
X107714285Y-66050057D01*
X107714285Y-66050057D02*
X107761904Y-66145295D01*
X107761904Y-66145295D02*
X107761904Y-66240533D01*
X107761904Y-66240533D02*
X107714285Y-66383390D01*
X107714285Y-66383390D02*
X107142857Y-66954819D01*
X107142857Y-66954819D02*
X107761904Y-66954819D01*
X97797619Y-111006819D02*
X97797619Y-110006819D01*
X97797619Y-110006819D02*
X98178571Y-110006819D01*
X98178571Y-110006819D02*
X98273809Y-110054438D01*
X98273809Y-110054438D02*
X98321428Y-110102057D01*
X98321428Y-110102057D02*
X98369047Y-110197295D01*
X98369047Y-110197295D02*
X98369047Y-110340152D01*
X98369047Y-110340152D02*
X98321428Y-110435390D01*
X98321428Y-110435390D02*
X98273809Y-110483009D01*
X98273809Y-110483009D02*
X98178571Y-110530628D01*
X98178571Y-110530628D02*
X97797619Y-110530628D01*
X98940476Y-111006819D02*
X98845238Y-110959200D01*
X98845238Y-110959200D02*
X98797619Y-110911580D01*
X98797619Y-110911580D02*
X98750000Y-110816342D01*
X98750000Y-110816342D02*
X98750000Y-110530628D01*
X98750000Y-110530628D02*
X98797619Y-110435390D01*
X98797619Y-110435390D02*
X98845238Y-110387771D01*
X98845238Y-110387771D02*
X98940476Y-110340152D01*
X98940476Y-110340152D02*
X99083333Y-110340152D01*
X99083333Y-110340152D02*
X99178571Y-110387771D01*
X99178571Y-110387771D02*
X99226190Y-110435390D01*
X99226190Y-110435390D02*
X99273809Y-110530628D01*
X99273809Y-110530628D02*
X99273809Y-110816342D01*
X99273809Y-110816342D02*
X99226190Y-110911580D01*
X99226190Y-110911580D02*
X99178571Y-110959200D01*
X99178571Y-110959200D02*
X99083333Y-111006819D01*
X99083333Y-111006819D02*
X98940476Y-111006819D01*
X99607143Y-110340152D02*
X99797619Y-111006819D01*
X99797619Y-111006819D02*
X99988095Y-110530628D01*
X99988095Y-110530628D02*
X100178571Y-111006819D01*
X100178571Y-111006819D02*
X100369047Y-110340152D01*
X101130952Y-110959200D02*
X101035714Y-111006819D01*
X101035714Y-111006819D02*
X100845238Y-111006819D01*
X100845238Y-111006819D02*
X100750000Y-110959200D01*
X100750000Y-110959200D02*
X100702381Y-110863961D01*
X100702381Y-110863961D02*
X100702381Y-110483009D01*
X100702381Y-110483009D02*
X100750000Y-110387771D01*
X100750000Y-110387771D02*
X100845238Y-110340152D01*
X100845238Y-110340152D02*
X101035714Y-110340152D01*
X101035714Y-110340152D02*
X101130952Y-110387771D01*
X101130952Y-110387771D02*
X101178571Y-110483009D01*
X101178571Y-110483009D02*
X101178571Y-110578247D01*
X101178571Y-110578247D02*
X100702381Y-110673485D01*
X101607143Y-111006819D02*
X101607143Y-110340152D01*
X101607143Y-110530628D02*
X101654762Y-110435390D01*
X101654762Y-110435390D02*
X101702381Y-110387771D01*
X101702381Y-110387771D02*
X101797619Y-110340152D01*
X101797619Y-110340152D02*
X101892857Y-110340152D01*
X102750000Y-111006819D02*
X102178572Y-111006819D01*
X102464286Y-111006819D02*
X102464286Y-110006819D01*
X102464286Y-110006819D02*
X102369048Y-110149676D01*
X102369048Y-110149676D02*
X102273810Y-110244914D01*
X102273810Y-110244914D02*
X102178572Y-110292533D01*
X157583333Y-34859580D02*
X157535714Y-34907200D01*
X157535714Y-34907200D02*
X157392857Y-34954819D01*
X157392857Y-34954819D02*
X157297619Y-34954819D01*
X157297619Y-34954819D02*
X157154762Y-34907200D01*
X157154762Y-34907200D02*
X157059524Y-34811961D01*
X157059524Y-34811961D02*
X157011905Y-34716723D01*
X157011905Y-34716723D02*
X156964286Y-34526247D01*
X156964286Y-34526247D02*
X156964286Y-34383390D01*
X156964286Y-34383390D02*
X157011905Y-34192914D01*
X157011905Y-34192914D02*
X157059524Y-34097676D01*
X157059524Y-34097676D02*
X157154762Y-34002438D01*
X157154762Y-34002438D02*
X157297619Y-33954819D01*
X157297619Y-33954819D02*
X157392857Y-33954819D01*
X157392857Y-33954819D02*
X157535714Y-34002438D01*
X157535714Y-34002438D02*
X157583333Y-34050057D01*
X158059524Y-34954819D02*
X158250000Y-34954819D01*
X158250000Y-34954819D02*
X158345238Y-34907200D01*
X158345238Y-34907200D02*
X158392857Y-34859580D01*
X158392857Y-34859580D02*
X158488095Y-34716723D01*
X158488095Y-34716723D02*
X158535714Y-34526247D01*
X158535714Y-34526247D02*
X158535714Y-34145295D01*
X158535714Y-34145295D02*
X158488095Y-34050057D01*
X158488095Y-34050057D02*
X158440476Y-34002438D01*
X158440476Y-34002438D02*
X158345238Y-33954819D01*
X158345238Y-33954819D02*
X158154762Y-33954819D01*
X158154762Y-33954819D02*
X158059524Y-34002438D01*
X158059524Y-34002438D02*
X158011905Y-34050057D01*
X158011905Y-34050057D02*
X157964286Y-34145295D01*
X157964286Y-34145295D02*
X157964286Y-34383390D01*
X157964286Y-34383390D02*
X158011905Y-34478628D01*
X158011905Y-34478628D02*
X158059524Y-34526247D01*
X158059524Y-34526247D02*
X158154762Y-34573866D01*
X158154762Y-34573866D02*
X158345238Y-34573866D01*
X158345238Y-34573866D02*
X158440476Y-34526247D01*
X158440476Y-34526247D02*
X158488095Y-34478628D01*
X158488095Y-34478628D02*
X158535714Y-34383390D01*
X161523333Y-36514819D02*
X161523333Y-35514819D01*
X161523333Y-35514819D02*
X161761428Y-35514819D01*
X161761428Y-35514819D02*
X161904285Y-35562438D01*
X161904285Y-35562438D02*
X161999523Y-35657676D01*
X161999523Y-35657676D02*
X162047142Y-35752914D01*
X162047142Y-35752914D02*
X162094761Y-35943390D01*
X162094761Y-35943390D02*
X162094761Y-36086247D01*
X162094761Y-36086247D02*
X162047142Y-36276723D01*
X162047142Y-36276723D02*
X161999523Y-36371961D01*
X161999523Y-36371961D02*
X161904285Y-36467200D01*
X161904285Y-36467200D02*
X161761428Y-36514819D01*
X161761428Y-36514819D02*
X161523333Y-36514819D01*
X162523333Y-35991009D02*
X162856666Y-35991009D01*
X162999523Y-36514819D02*
X162523333Y-36514819D01*
X162523333Y-36514819D02*
X162523333Y-35514819D01*
X162523333Y-35514819D02*
X162999523Y-35514819D01*
X163999523Y-36419580D02*
X163951904Y-36467200D01*
X163951904Y-36467200D02*
X163809047Y-36514819D01*
X163809047Y-36514819D02*
X163713809Y-36514819D01*
X163713809Y-36514819D02*
X163570952Y-36467200D01*
X163570952Y-36467200D02*
X163475714Y-36371961D01*
X163475714Y-36371961D02*
X163428095Y-36276723D01*
X163428095Y-36276723D02*
X163380476Y-36086247D01*
X163380476Y-36086247D02*
X163380476Y-35943390D01*
X163380476Y-35943390D02*
X163428095Y-35752914D01*
X163428095Y-35752914D02*
X163475714Y-35657676D01*
X163475714Y-35657676D02*
X163570952Y-35562438D01*
X163570952Y-35562438D02*
X163713809Y-35514819D01*
X163713809Y-35514819D02*
X163809047Y-35514819D01*
X163809047Y-35514819D02*
X163951904Y-35562438D01*
X163951904Y-35562438D02*
X163999523Y-35610057D01*
X164618571Y-35514819D02*
X164809047Y-35514819D01*
X164809047Y-35514819D02*
X164904285Y-35562438D01*
X164904285Y-35562438D02*
X164999523Y-35657676D01*
X164999523Y-35657676D02*
X165047142Y-35848152D01*
X165047142Y-35848152D02*
X165047142Y-36181485D01*
X165047142Y-36181485D02*
X164999523Y-36371961D01*
X164999523Y-36371961D02*
X164904285Y-36467200D01*
X164904285Y-36467200D02*
X164809047Y-36514819D01*
X164809047Y-36514819D02*
X164618571Y-36514819D01*
X164618571Y-36514819D02*
X164523333Y-36467200D01*
X164523333Y-36467200D02*
X164428095Y-36371961D01*
X164428095Y-36371961D02*
X164380476Y-36181485D01*
X164380476Y-36181485D02*
X164380476Y-35848152D01*
X164380476Y-35848152D02*
X164428095Y-35657676D01*
X164428095Y-35657676D02*
X164523333Y-35562438D01*
X164523333Y-35562438D02*
X164618571Y-35514819D01*
X165475714Y-36514819D02*
X165475714Y-35514819D01*
X165475714Y-35514819D02*
X165713809Y-35514819D01*
X165713809Y-35514819D02*
X165856666Y-35562438D01*
X165856666Y-35562438D02*
X165951904Y-35657676D01*
X165951904Y-35657676D02*
X165999523Y-35752914D01*
X165999523Y-35752914D02*
X166047142Y-35943390D01*
X166047142Y-35943390D02*
X166047142Y-36086247D01*
X166047142Y-36086247D02*
X165999523Y-36276723D01*
X165999523Y-36276723D02*
X165951904Y-36371961D01*
X165951904Y-36371961D02*
X165856666Y-36467200D01*
X165856666Y-36467200D02*
X165713809Y-36514819D01*
X165713809Y-36514819D02*
X165475714Y-36514819D01*
X166475714Y-35991009D02*
X166809047Y-35991009D01*
X166951904Y-36514819D02*
X166475714Y-36514819D01*
X166475714Y-36514819D02*
X166475714Y-35514819D01*
X166475714Y-35514819D02*
X166951904Y-35514819D01*
X167951904Y-36514819D02*
X167618571Y-36038628D01*
X167380476Y-36514819D02*
X167380476Y-35514819D01*
X167380476Y-35514819D02*
X167761428Y-35514819D01*
X167761428Y-35514819D02*
X167856666Y-35562438D01*
X167856666Y-35562438D02*
X167904285Y-35610057D01*
X167904285Y-35610057D02*
X167951904Y-35705295D01*
X167951904Y-35705295D02*
X167951904Y-35848152D01*
X167951904Y-35848152D02*
X167904285Y-35943390D01*
X167904285Y-35943390D02*
X167856666Y-35991009D01*
X167856666Y-35991009D02*
X167761428Y-36038628D01*
X167761428Y-36038628D02*
X167380476Y-36038628D01*
X168332857Y-35610057D02*
X168380476Y-35562438D01*
X168380476Y-35562438D02*
X168475714Y-35514819D01*
X168475714Y-35514819D02*
X168713809Y-35514819D01*
X168713809Y-35514819D02*
X168809047Y-35562438D01*
X168809047Y-35562438D02*
X168856666Y-35610057D01*
X168856666Y-35610057D02*
X168904285Y-35705295D01*
X168904285Y-35705295D02*
X168904285Y-35800533D01*
X168904285Y-35800533D02*
X168856666Y-35943390D01*
X168856666Y-35943390D02*
X168285238Y-36514819D01*
X168285238Y-36514819D02*
X168904285Y-36514819D01*
X97333333Y-73704819D02*
X97333333Y-72704819D01*
X97333333Y-72704819D02*
X97571428Y-72704819D01*
X97571428Y-72704819D02*
X97714285Y-72752438D01*
X97714285Y-72752438D02*
X97809523Y-72847676D01*
X97809523Y-72847676D02*
X97857142Y-72942914D01*
X97857142Y-72942914D02*
X97904761Y-73133390D01*
X97904761Y-73133390D02*
X97904761Y-73276247D01*
X97904761Y-73276247D02*
X97857142Y-73466723D01*
X97857142Y-73466723D02*
X97809523Y-73561961D01*
X97809523Y-73561961D02*
X97714285Y-73657200D01*
X97714285Y-73657200D02*
X97571428Y-73704819D01*
X97571428Y-73704819D02*
X97333333Y-73704819D01*
X98333333Y-73181009D02*
X98666666Y-73181009D01*
X98809523Y-73704819D02*
X98333333Y-73704819D01*
X98333333Y-73704819D02*
X98333333Y-72704819D01*
X98333333Y-72704819D02*
X98809523Y-72704819D01*
X99809523Y-73609580D02*
X99761904Y-73657200D01*
X99761904Y-73657200D02*
X99619047Y-73704819D01*
X99619047Y-73704819D02*
X99523809Y-73704819D01*
X99523809Y-73704819D02*
X99380952Y-73657200D01*
X99380952Y-73657200D02*
X99285714Y-73561961D01*
X99285714Y-73561961D02*
X99238095Y-73466723D01*
X99238095Y-73466723D02*
X99190476Y-73276247D01*
X99190476Y-73276247D02*
X99190476Y-73133390D01*
X99190476Y-73133390D02*
X99238095Y-72942914D01*
X99238095Y-72942914D02*
X99285714Y-72847676D01*
X99285714Y-72847676D02*
X99380952Y-72752438D01*
X99380952Y-72752438D02*
X99523809Y-72704819D01*
X99523809Y-72704819D02*
X99619047Y-72704819D01*
X99619047Y-72704819D02*
X99761904Y-72752438D01*
X99761904Y-72752438D02*
X99809523Y-72800057D01*
X100428571Y-72704819D02*
X100619047Y-72704819D01*
X100619047Y-72704819D02*
X100714285Y-72752438D01*
X100714285Y-72752438D02*
X100809523Y-72847676D01*
X100809523Y-72847676D02*
X100857142Y-73038152D01*
X100857142Y-73038152D02*
X100857142Y-73371485D01*
X100857142Y-73371485D02*
X100809523Y-73561961D01*
X100809523Y-73561961D02*
X100714285Y-73657200D01*
X100714285Y-73657200D02*
X100619047Y-73704819D01*
X100619047Y-73704819D02*
X100428571Y-73704819D01*
X100428571Y-73704819D02*
X100333333Y-73657200D01*
X100333333Y-73657200D02*
X100238095Y-73561961D01*
X100238095Y-73561961D02*
X100190476Y-73371485D01*
X100190476Y-73371485D02*
X100190476Y-73038152D01*
X100190476Y-73038152D02*
X100238095Y-72847676D01*
X100238095Y-72847676D02*
X100333333Y-72752438D01*
X100333333Y-72752438D02*
X100428571Y-72704819D01*
X101285714Y-73704819D02*
X101285714Y-72704819D01*
X101285714Y-72704819D02*
X101523809Y-72704819D01*
X101523809Y-72704819D02*
X101666666Y-72752438D01*
X101666666Y-72752438D02*
X101761904Y-72847676D01*
X101761904Y-72847676D02*
X101809523Y-72942914D01*
X101809523Y-72942914D02*
X101857142Y-73133390D01*
X101857142Y-73133390D02*
X101857142Y-73276247D01*
X101857142Y-73276247D02*
X101809523Y-73466723D01*
X101809523Y-73466723D02*
X101761904Y-73561961D01*
X101761904Y-73561961D02*
X101666666Y-73657200D01*
X101666666Y-73657200D02*
X101523809Y-73704819D01*
X101523809Y-73704819D02*
X101285714Y-73704819D01*
X102285714Y-73181009D02*
X102619047Y-73181009D01*
X102761904Y-73704819D02*
X102285714Y-73704819D01*
X102285714Y-73704819D02*
X102285714Y-72704819D01*
X102285714Y-72704819D02*
X102761904Y-72704819D01*
X103761904Y-73704819D02*
X103428571Y-73228628D01*
X103190476Y-73704819D02*
X103190476Y-72704819D01*
X103190476Y-72704819D02*
X103571428Y-72704819D01*
X103571428Y-72704819D02*
X103666666Y-72752438D01*
X103666666Y-72752438D02*
X103714285Y-72800057D01*
X103714285Y-72800057D02*
X103761904Y-72895295D01*
X103761904Y-72895295D02*
X103761904Y-73038152D01*
X103761904Y-73038152D02*
X103714285Y-73133390D01*
X103714285Y-73133390D02*
X103666666Y-73181009D01*
X103666666Y-73181009D02*
X103571428Y-73228628D01*
X103571428Y-73228628D02*
X103190476Y-73228628D01*
X104619047Y-73038152D02*
X104619047Y-73704819D01*
X104380952Y-72657200D02*
X104142857Y-73371485D01*
X104142857Y-73371485D02*
X104761904Y-73371485D01*
X188035713Y-109506819D02*
X187702380Y-109030628D01*
X187464285Y-109506819D02*
X187464285Y-108506819D01*
X187464285Y-108506819D02*
X187845237Y-108506819D01*
X187845237Y-108506819D02*
X187940475Y-108554438D01*
X187940475Y-108554438D02*
X187988094Y-108602057D01*
X187988094Y-108602057D02*
X188035713Y-108697295D01*
X188035713Y-108697295D02*
X188035713Y-108840152D01*
X188035713Y-108840152D02*
X187988094Y-108935390D01*
X187988094Y-108935390D02*
X187940475Y-108983009D01*
X187940475Y-108983009D02*
X187845237Y-109030628D01*
X187845237Y-109030628D02*
X187464285Y-109030628D01*
X188845237Y-109459200D02*
X188749999Y-109506819D01*
X188749999Y-109506819D02*
X188559523Y-109506819D01*
X188559523Y-109506819D02*
X188464285Y-109459200D01*
X188464285Y-109459200D02*
X188416666Y-109363961D01*
X188416666Y-109363961D02*
X188416666Y-108983009D01*
X188416666Y-108983009D02*
X188464285Y-108887771D01*
X188464285Y-108887771D02*
X188559523Y-108840152D01*
X188559523Y-108840152D02*
X188749999Y-108840152D01*
X188749999Y-108840152D02*
X188845237Y-108887771D01*
X188845237Y-108887771D02*
X188892856Y-108983009D01*
X188892856Y-108983009D02*
X188892856Y-109078247D01*
X188892856Y-109078247D02*
X188416666Y-109173485D01*
X189273809Y-109459200D02*
X189369047Y-109506819D01*
X189369047Y-109506819D02*
X189559523Y-109506819D01*
X189559523Y-109506819D02*
X189654761Y-109459200D01*
X189654761Y-109459200D02*
X189702380Y-109363961D01*
X189702380Y-109363961D02*
X189702380Y-109316342D01*
X189702380Y-109316342D02*
X189654761Y-109221104D01*
X189654761Y-109221104D02*
X189559523Y-109173485D01*
X189559523Y-109173485D02*
X189416666Y-109173485D01*
X189416666Y-109173485D02*
X189321428Y-109125866D01*
X189321428Y-109125866D02*
X189273809Y-109030628D01*
X189273809Y-109030628D02*
X189273809Y-108983009D01*
X189273809Y-108983009D02*
X189321428Y-108887771D01*
X189321428Y-108887771D02*
X189416666Y-108840152D01*
X189416666Y-108840152D02*
X189559523Y-108840152D01*
X189559523Y-108840152D02*
X189654761Y-108887771D01*
X190511904Y-109459200D02*
X190416666Y-109506819D01*
X190416666Y-109506819D02*
X190226190Y-109506819D01*
X190226190Y-109506819D02*
X190130952Y-109459200D01*
X190130952Y-109459200D02*
X190083333Y-109363961D01*
X190083333Y-109363961D02*
X190083333Y-108983009D01*
X190083333Y-108983009D02*
X190130952Y-108887771D01*
X190130952Y-108887771D02*
X190226190Y-108840152D01*
X190226190Y-108840152D02*
X190416666Y-108840152D01*
X190416666Y-108840152D02*
X190511904Y-108887771D01*
X190511904Y-108887771D02*
X190559523Y-108983009D01*
X190559523Y-108983009D02*
X190559523Y-109078247D01*
X190559523Y-109078247D02*
X190083333Y-109173485D01*
X190845238Y-108840152D02*
X191226190Y-108840152D01*
X190988095Y-108506819D02*
X190988095Y-109363961D01*
X190988095Y-109363961D02*
X191035714Y-109459200D01*
X191035714Y-109459200D02*
X191130952Y-109506819D01*
X191130952Y-109506819D02*
X191226190Y-109506819D01*
X192083333Y-109506819D02*
X191511905Y-109506819D01*
X191797619Y-109506819D02*
X191797619Y-108506819D01*
X191797619Y-108506819D02*
X191702381Y-108649676D01*
X191702381Y-108649676D02*
X191607143Y-108744914D01*
X191607143Y-108744914D02*
X191511905Y-108792533D01*
X174535713Y-108161580D02*
X174488094Y-108209200D01*
X174488094Y-108209200D02*
X174345237Y-108256819D01*
X174345237Y-108256819D02*
X174249999Y-108256819D01*
X174249999Y-108256819D02*
X174107142Y-108209200D01*
X174107142Y-108209200D02*
X174011904Y-108113961D01*
X174011904Y-108113961D02*
X173964285Y-108018723D01*
X173964285Y-108018723D02*
X173916666Y-107828247D01*
X173916666Y-107828247D02*
X173916666Y-107685390D01*
X173916666Y-107685390D02*
X173964285Y-107494914D01*
X173964285Y-107494914D02*
X174011904Y-107399676D01*
X174011904Y-107399676D02*
X174107142Y-107304438D01*
X174107142Y-107304438D02*
X174249999Y-107256819D01*
X174249999Y-107256819D02*
X174345237Y-107256819D01*
X174345237Y-107256819D02*
X174488094Y-107304438D01*
X174488094Y-107304438D02*
X174535713Y-107352057D01*
X175107142Y-108256819D02*
X175011904Y-108209200D01*
X175011904Y-108209200D02*
X174964285Y-108113961D01*
X174964285Y-108113961D02*
X174964285Y-107256819D01*
X175630952Y-108256819D02*
X175535714Y-108209200D01*
X175535714Y-108209200D02*
X175488095Y-108161580D01*
X175488095Y-108161580D02*
X175440476Y-108066342D01*
X175440476Y-108066342D02*
X175440476Y-107780628D01*
X175440476Y-107780628D02*
X175488095Y-107685390D01*
X175488095Y-107685390D02*
X175535714Y-107637771D01*
X175535714Y-107637771D02*
X175630952Y-107590152D01*
X175630952Y-107590152D02*
X175773809Y-107590152D01*
X175773809Y-107590152D02*
X175869047Y-107637771D01*
X175869047Y-107637771D02*
X175916666Y-107685390D01*
X175916666Y-107685390D02*
X175964285Y-107780628D01*
X175964285Y-107780628D02*
X175964285Y-108066342D01*
X175964285Y-108066342D02*
X175916666Y-108161580D01*
X175916666Y-108161580D02*
X175869047Y-108209200D01*
X175869047Y-108209200D02*
X175773809Y-108256819D01*
X175773809Y-108256819D02*
X175630952Y-108256819D01*
X176821428Y-108209200D02*
X176726190Y-108256819D01*
X176726190Y-108256819D02*
X176535714Y-108256819D01*
X176535714Y-108256819D02*
X176440476Y-108209200D01*
X176440476Y-108209200D02*
X176392857Y-108161580D01*
X176392857Y-108161580D02*
X176345238Y-108066342D01*
X176345238Y-108066342D02*
X176345238Y-107780628D01*
X176345238Y-107780628D02*
X176392857Y-107685390D01*
X176392857Y-107685390D02*
X176440476Y-107637771D01*
X176440476Y-107637771D02*
X176535714Y-107590152D01*
X176535714Y-107590152D02*
X176726190Y-107590152D01*
X176726190Y-107590152D02*
X176821428Y-107637771D01*
X177250000Y-108256819D02*
X177250000Y-107256819D01*
X177345238Y-107875866D02*
X177630952Y-108256819D01*
X177630952Y-107590152D02*
X177250000Y-107971104D01*
X173826190Y-106979200D02*
X177721429Y-106979200D01*
X178583333Y-108256819D02*
X178011905Y-108256819D01*
X178297619Y-108256819D02*
X178297619Y-107256819D01*
X178297619Y-107256819D02*
X178202381Y-107399676D01*
X178202381Y-107399676D02*
X178107143Y-107494914D01*
X178107143Y-107494914D02*
X178011905Y-107542533D01*
X170798095Y-79294819D02*
X170798095Y-80104342D01*
X170798095Y-80104342D02*
X170845714Y-80199580D01*
X170845714Y-80199580D02*
X170893333Y-80247200D01*
X170893333Y-80247200D02*
X170988571Y-80294819D01*
X170988571Y-80294819D02*
X171179047Y-80294819D01*
X171179047Y-80294819D02*
X171274285Y-80247200D01*
X171274285Y-80247200D02*
X171321904Y-80199580D01*
X171321904Y-80199580D02*
X171369523Y-80104342D01*
X171369523Y-80104342D02*
X171369523Y-79294819D01*
X172274285Y-79628152D02*
X172274285Y-80294819D01*
X172036190Y-79247200D02*
X171798095Y-79961485D01*
X171798095Y-79961485D02*
X172417142Y-79961485D01*
X170362295Y-114288094D02*
X169562295Y-114288094D01*
X170362295Y-113907142D02*
X169562295Y-113907142D01*
X169562295Y-113907142D02*
X170362295Y-113449999D01*
X170362295Y-113449999D02*
X169562295Y-113449999D01*
X170324200Y-113107143D02*
X170362295Y-112992857D01*
X170362295Y-112992857D02*
X170362295Y-112802381D01*
X170362295Y-112802381D02*
X170324200Y-112726190D01*
X170324200Y-112726190D02*
X170286104Y-112688095D01*
X170286104Y-112688095D02*
X170209914Y-112650000D01*
X170209914Y-112650000D02*
X170133723Y-112650000D01*
X170133723Y-112650000D02*
X170057533Y-112688095D01*
X170057533Y-112688095D02*
X170019438Y-112726190D01*
X170019438Y-112726190D02*
X169981342Y-112802381D01*
X169981342Y-112802381D02*
X169943247Y-112954762D01*
X169943247Y-112954762D02*
X169905152Y-113030952D01*
X169905152Y-113030952D02*
X169867057Y-113069047D01*
X169867057Y-113069047D02*
X169790866Y-113107143D01*
X169790866Y-113107143D02*
X169714676Y-113107143D01*
X169714676Y-113107143D02*
X169638485Y-113069047D01*
X169638485Y-113069047D02*
X169600390Y-113030952D01*
X169600390Y-113030952D02*
X169562295Y-112954762D01*
X169562295Y-112954762D02*
X169562295Y-112764285D01*
X169562295Y-112764285D02*
X169600390Y-112650000D01*
X169562295Y-112421428D02*
X169562295Y-111964285D01*
X170362295Y-112192857D02*
X169562295Y-112192857D01*
X170362295Y-111240475D02*
X169981342Y-111507142D01*
X170362295Y-111697618D02*
X169562295Y-111697618D01*
X169562295Y-111697618D02*
X169562295Y-111392856D01*
X169562295Y-111392856D02*
X169600390Y-111316666D01*
X169600390Y-111316666D02*
X169638485Y-111278571D01*
X169638485Y-111278571D02*
X169714676Y-111240475D01*
X169714676Y-111240475D02*
X169828961Y-111240475D01*
X169828961Y-111240475D02*
X169905152Y-111278571D01*
X169905152Y-111278571D02*
X169943247Y-111316666D01*
X169943247Y-111316666D02*
X169981342Y-111392856D01*
X169981342Y-111392856D02*
X169981342Y-111697618D01*
X169562295Y-110897618D02*
X170209914Y-110897618D01*
X170209914Y-110897618D02*
X170286104Y-110859523D01*
X170286104Y-110859523D02*
X170324200Y-110821428D01*
X170324200Y-110821428D02*
X170362295Y-110745237D01*
X170362295Y-110745237D02*
X170362295Y-110592856D01*
X170362295Y-110592856D02*
X170324200Y-110516666D01*
X170324200Y-110516666D02*
X170286104Y-110478571D01*
X170286104Y-110478571D02*
X170209914Y-110440475D01*
X170209914Y-110440475D02*
X169562295Y-110440475D01*
X170286104Y-109602380D02*
X170324200Y-109640476D01*
X170324200Y-109640476D02*
X170362295Y-109754761D01*
X170362295Y-109754761D02*
X170362295Y-109830952D01*
X170362295Y-109830952D02*
X170324200Y-109945238D01*
X170324200Y-109945238D02*
X170248009Y-110021428D01*
X170248009Y-110021428D02*
X170171819Y-110059523D01*
X170171819Y-110059523D02*
X170019438Y-110097619D01*
X170019438Y-110097619D02*
X169905152Y-110097619D01*
X169905152Y-110097619D02*
X169752771Y-110059523D01*
X169752771Y-110059523D02*
X169676580Y-110021428D01*
X169676580Y-110021428D02*
X169600390Y-109945238D01*
X169600390Y-109945238D02*
X169562295Y-109830952D01*
X169562295Y-109830952D02*
X169562295Y-109754761D01*
X169562295Y-109754761D02*
X169600390Y-109640476D01*
X169600390Y-109640476D02*
X169638485Y-109602380D01*
X169562295Y-109373809D02*
X169562295Y-108916666D01*
X170362295Y-109145238D02*
X169562295Y-109145238D01*
X170362295Y-108649999D02*
X169562295Y-108649999D01*
X169562295Y-108116666D02*
X169562295Y-107964285D01*
X169562295Y-107964285D02*
X169600390Y-107888095D01*
X169600390Y-107888095D02*
X169676580Y-107811904D01*
X169676580Y-107811904D02*
X169828961Y-107773809D01*
X169828961Y-107773809D02*
X170095628Y-107773809D01*
X170095628Y-107773809D02*
X170248009Y-107811904D01*
X170248009Y-107811904D02*
X170324200Y-107888095D01*
X170324200Y-107888095D02*
X170362295Y-107964285D01*
X170362295Y-107964285D02*
X170362295Y-108116666D01*
X170362295Y-108116666D02*
X170324200Y-108192857D01*
X170324200Y-108192857D02*
X170248009Y-108269047D01*
X170248009Y-108269047D02*
X170095628Y-108307143D01*
X170095628Y-108307143D02*
X169828961Y-108307143D01*
X169828961Y-108307143D02*
X169676580Y-108269047D01*
X169676580Y-108269047D02*
X169600390Y-108192857D01*
X169600390Y-108192857D02*
X169562295Y-108116666D01*
X170362295Y-107430952D02*
X169562295Y-107430952D01*
X169562295Y-107430952D02*
X170362295Y-106973809D01*
X170362295Y-106973809D02*
X169562295Y-106973809D01*
X170362295Y-106173810D02*
X170362295Y-106630953D01*
X170362295Y-106402381D02*
X169562295Y-106402381D01*
X169562295Y-106402381D02*
X169676580Y-106478572D01*
X169676580Y-106478572D02*
X169752771Y-106554762D01*
X169752771Y-106554762D02*
X169790866Y-106630953D01*
X173607142Y-36359580D02*
X173559523Y-36407200D01*
X173559523Y-36407200D02*
X173416666Y-36454819D01*
X173416666Y-36454819D02*
X173321428Y-36454819D01*
X173321428Y-36454819D02*
X173178571Y-36407200D01*
X173178571Y-36407200D02*
X173083333Y-36311961D01*
X173083333Y-36311961D02*
X173035714Y-36216723D01*
X173035714Y-36216723D02*
X172988095Y-36026247D01*
X172988095Y-36026247D02*
X172988095Y-35883390D01*
X172988095Y-35883390D02*
X173035714Y-35692914D01*
X173035714Y-35692914D02*
X173083333Y-35597676D01*
X173083333Y-35597676D02*
X173178571Y-35502438D01*
X173178571Y-35502438D02*
X173321428Y-35454819D01*
X173321428Y-35454819D02*
X173416666Y-35454819D01*
X173416666Y-35454819D02*
X173559523Y-35502438D01*
X173559523Y-35502438D02*
X173607142Y-35550057D01*
X174559523Y-36454819D02*
X173988095Y-36454819D01*
X174273809Y-36454819D02*
X174273809Y-35454819D01*
X174273809Y-35454819D02*
X174178571Y-35597676D01*
X174178571Y-35597676D02*
X174083333Y-35692914D01*
X174083333Y-35692914D02*
X173988095Y-35740533D01*
X175178571Y-35454819D02*
X175273809Y-35454819D01*
X175273809Y-35454819D02*
X175369047Y-35502438D01*
X175369047Y-35502438D02*
X175416666Y-35550057D01*
X175416666Y-35550057D02*
X175464285Y-35645295D01*
X175464285Y-35645295D02*
X175511904Y-35835771D01*
X175511904Y-35835771D02*
X175511904Y-36073866D01*
X175511904Y-36073866D02*
X175464285Y-36264342D01*
X175464285Y-36264342D02*
X175416666Y-36359580D01*
X175416666Y-36359580D02*
X175369047Y-36407200D01*
X175369047Y-36407200D02*
X175273809Y-36454819D01*
X175273809Y-36454819D02*
X175178571Y-36454819D01*
X175178571Y-36454819D02*
X175083333Y-36407200D01*
X175083333Y-36407200D02*
X175035714Y-36359580D01*
X175035714Y-36359580D02*
X174988095Y-36264342D01*
X174988095Y-36264342D02*
X174940476Y-36073866D01*
X174940476Y-36073866D02*
X174940476Y-35835771D01*
X174940476Y-35835771D02*
X174988095Y-35645295D01*
X174988095Y-35645295D02*
X175035714Y-35550057D01*
X175035714Y-35550057D02*
X175083333Y-35502438D01*
X175083333Y-35502438D02*
X175178571Y-35454819D01*
X176583333Y-56204819D02*
X176583333Y-55204819D01*
X177059523Y-55538152D02*
X177059523Y-56204819D01*
X177059523Y-55633390D02*
X177107142Y-55585771D01*
X177107142Y-55585771D02*
X177202380Y-55538152D01*
X177202380Y-55538152D02*
X177345237Y-55538152D01*
X177345237Y-55538152D02*
X177440475Y-55585771D01*
X177440475Y-55585771D02*
X177488094Y-55681009D01*
X177488094Y-55681009D02*
X177488094Y-56204819D01*
X177821428Y-55538152D02*
X178202380Y-55538152D01*
X177964285Y-55204819D02*
X177964285Y-56061961D01*
X177964285Y-56061961D02*
X178011904Y-56157200D01*
X178011904Y-56157200D02*
X178107142Y-56204819D01*
X178107142Y-56204819D02*
X178202380Y-56204819D01*
X178535714Y-55681009D02*
X178869047Y-55681009D01*
X179011904Y-56204819D02*
X178535714Y-56204819D01*
X178535714Y-56204819D02*
X178535714Y-55204819D01*
X178535714Y-55204819D02*
X179011904Y-55204819D01*
X176445238Y-54927200D02*
X179102381Y-54927200D01*
X179964285Y-56204819D02*
X179392857Y-56204819D01*
X179678571Y-56204819D02*
X179678571Y-55204819D01*
X179678571Y-55204819D02*
X179583333Y-55347676D01*
X179583333Y-55347676D02*
X179488095Y-55442914D01*
X179488095Y-55442914D02*
X179392857Y-55490533D01*
X133988095Y-35509819D02*
X133988095Y-36319342D01*
X133988095Y-36319342D02*
X134035714Y-36414580D01*
X134035714Y-36414580D02*
X134083333Y-36462200D01*
X134083333Y-36462200D02*
X134178571Y-36509819D01*
X134178571Y-36509819D02*
X134369047Y-36509819D01*
X134369047Y-36509819D02*
X134464285Y-36462200D01*
X134464285Y-36462200D02*
X134511904Y-36414580D01*
X134511904Y-36414580D02*
X134559523Y-36319342D01*
X134559523Y-36319342D02*
X134559523Y-35509819D01*
X134988095Y-35605057D02*
X135035714Y-35557438D01*
X135035714Y-35557438D02*
X135130952Y-35509819D01*
X135130952Y-35509819D02*
X135369047Y-35509819D01*
X135369047Y-35509819D02*
X135464285Y-35557438D01*
X135464285Y-35557438D02*
X135511904Y-35605057D01*
X135511904Y-35605057D02*
X135559523Y-35700295D01*
X135559523Y-35700295D02*
X135559523Y-35795533D01*
X135559523Y-35795533D02*
X135511904Y-35938390D01*
X135511904Y-35938390D02*
X134940476Y-36509819D01*
X134940476Y-36509819D02*
X135559523Y-36509819D01*
X143109580Y-102142857D02*
X143157200Y-102190476D01*
X143157200Y-102190476D02*
X143204819Y-102333333D01*
X143204819Y-102333333D02*
X143204819Y-102428571D01*
X143204819Y-102428571D02*
X143157200Y-102571428D01*
X143157200Y-102571428D02*
X143061961Y-102666666D01*
X143061961Y-102666666D02*
X142966723Y-102714285D01*
X142966723Y-102714285D02*
X142776247Y-102761904D01*
X142776247Y-102761904D02*
X142633390Y-102761904D01*
X142633390Y-102761904D02*
X142442914Y-102714285D01*
X142442914Y-102714285D02*
X142347676Y-102666666D01*
X142347676Y-102666666D02*
X142252438Y-102571428D01*
X142252438Y-102571428D02*
X142204819Y-102428571D01*
X142204819Y-102428571D02*
X142204819Y-102333333D01*
X142204819Y-102333333D02*
X142252438Y-102190476D01*
X142252438Y-102190476D02*
X142300057Y-102142857D01*
X143204819Y-101190476D02*
X143204819Y-101761904D01*
X143204819Y-101476190D02*
X142204819Y-101476190D01*
X142204819Y-101476190D02*
X142347676Y-101571428D01*
X142347676Y-101571428D02*
X142442914Y-101666666D01*
X142442914Y-101666666D02*
X142490533Y-101761904D01*
X142204819Y-100333333D02*
X142204819Y-100523809D01*
X142204819Y-100523809D02*
X142252438Y-100619047D01*
X142252438Y-100619047D02*
X142300057Y-100666666D01*
X142300057Y-100666666D02*
X142442914Y-100761904D01*
X142442914Y-100761904D02*
X142633390Y-100809523D01*
X142633390Y-100809523D02*
X143014342Y-100809523D01*
X143014342Y-100809523D02*
X143109580Y-100761904D01*
X143109580Y-100761904D02*
X143157200Y-100714285D01*
X143157200Y-100714285D02*
X143204819Y-100619047D01*
X143204819Y-100619047D02*
X143204819Y-100428571D01*
X143204819Y-100428571D02*
X143157200Y-100333333D01*
X143157200Y-100333333D02*
X143109580Y-100285714D01*
X143109580Y-100285714D02*
X143014342Y-100238095D01*
X143014342Y-100238095D02*
X142776247Y-100238095D01*
X142776247Y-100238095D02*
X142681009Y-100285714D01*
X142681009Y-100285714D02*
X142633390Y-100333333D01*
X142633390Y-100333333D02*
X142585771Y-100428571D01*
X142585771Y-100428571D02*
X142585771Y-100619047D01*
X142585771Y-100619047D02*
X142633390Y-100714285D01*
X142633390Y-100714285D02*
X142681009Y-100761904D01*
X142681009Y-100761904D02*
X142776247Y-100809523D01*
X184488095Y-78954819D02*
X184488095Y-79764342D01*
X184488095Y-79764342D02*
X184535714Y-79859580D01*
X184535714Y-79859580D02*
X184583333Y-79907200D01*
X184583333Y-79907200D02*
X184678571Y-79954819D01*
X184678571Y-79954819D02*
X184869047Y-79954819D01*
X184869047Y-79954819D02*
X184964285Y-79907200D01*
X184964285Y-79907200D02*
X185011904Y-79859580D01*
X185011904Y-79859580D02*
X185059523Y-79764342D01*
X185059523Y-79764342D02*
X185059523Y-78954819D01*
X185440476Y-78954819D02*
X186059523Y-78954819D01*
X186059523Y-78954819D02*
X185726190Y-79335771D01*
X185726190Y-79335771D02*
X185869047Y-79335771D01*
X185869047Y-79335771D02*
X185964285Y-79383390D01*
X185964285Y-79383390D02*
X186011904Y-79431009D01*
X186011904Y-79431009D02*
X186059523Y-79526247D01*
X186059523Y-79526247D02*
X186059523Y-79764342D01*
X186059523Y-79764342D02*
X186011904Y-79859580D01*
X186011904Y-79859580D02*
X185964285Y-79907200D01*
X185964285Y-79907200D02*
X185869047Y-79954819D01*
X185869047Y-79954819D02*
X185583333Y-79954819D01*
X185583333Y-79954819D02*
X185488095Y-79907200D01*
X185488095Y-79907200D02*
X185440476Y-79859580D01*
X176559524Y-60006819D02*
X176559524Y-59006819D01*
X177035714Y-59340152D02*
X177035714Y-60006819D01*
X177035714Y-59435390D02*
X177083333Y-59387771D01*
X177083333Y-59387771D02*
X177178571Y-59340152D01*
X177178571Y-59340152D02*
X177321428Y-59340152D01*
X177321428Y-59340152D02*
X177416666Y-59387771D01*
X177416666Y-59387771D02*
X177464285Y-59483009D01*
X177464285Y-59483009D02*
X177464285Y-60006819D01*
X177797619Y-59340152D02*
X178178571Y-59340152D01*
X177940476Y-59006819D02*
X177940476Y-59863961D01*
X177940476Y-59863961D02*
X177988095Y-59959200D01*
X177988095Y-59959200D02*
X178083333Y-60006819D01*
X178083333Y-60006819D02*
X178178571Y-60006819D01*
X178464286Y-59959200D02*
X178607143Y-60006819D01*
X178607143Y-60006819D02*
X178845238Y-60006819D01*
X178845238Y-60006819D02*
X178940476Y-59959200D01*
X178940476Y-59959200D02*
X178988095Y-59911580D01*
X178988095Y-59911580D02*
X179035714Y-59816342D01*
X179035714Y-59816342D02*
X179035714Y-59721104D01*
X179035714Y-59721104D02*
X178988095Y-59625866D01*
X178988095Y-59625866D02*
X178940476Y-59578247D01*
X178940476Y-59578247D02*
X178845238Y-59530628D01*
X178845238Y-59530628D02*
X178654762Y-59483009D01*
X178654762Y-59483009D02*
X178559524Y-59435390D01*
X178559524Y-59435390D02*
X178511905Y-59387771D01*
X178511905Y-59387771D02*
X178464286Y-59292533D01*
X178464286Y-59292533D02*
X178464286Y-59197295D01*
X178464286Y-59197295D02*
X178511905Y-59102057D01*
X178511905Y-59102057D02*
X178559524Y-59054438D01*
X178559524Y-59054438D02*
X178654762Y-59006819D01*
X178654762Y-59006819D02*
X178892857Y-59006819D01*
X178892857Y-59006819D02*
X179035714Y-59054438D01*
X179988095Y-60006819D02*
X179416667Y-60006819D01*
X179702381Y-60006819D02*
X179702381Y-59006819D01*
X179702381Y-59006819D02*
X179607143Y-59149676D01*
X179607143Y-59149676D02*
X179511905Y-59244914D01*
X179511905Y-59244914D02*
X179416667Y-59292533D01*
X146893333Y-36474819D02*
X146893333Y-35474819D01*
X146893333Y-35474819D02*
X147131428Y-35474819D01*
X147131428Y-35474819D02*
X147274285Y-35522438D01*
X147274285Y-35522438D02*
X147369523Y-35617676D01*
X147369523Y-35617676D02*
X147417142Y-35712914D01*
X147417142Y-35712914D02*
X147464761Y-35903390D01*
X147464761Y-35903390D02*
X147464761Y-36046247D01*
X147464761Y-36046247D02*
X147417142Y-36236723D01*
X147417142Y-36236723D02*
X147369523Y-36331961D01*
X147369523Y-36331961D02*
X147274285Y-36427200D01*
X147274285Y-36427200D02*
X147131428Y-36474819D01*
X147131428Y-36474819D02*
X146893333Y-36474819D01*
X147893333Y-35951009D02*
X148226666Y-35951009D01*
X148369523Y-36474819D02*
X147893333Y-36474819D01*
X147893333Y-36474819D02*
X147893333Y-35474819D01*
X147893333Y-35474819D02*
X148369523Y-35474819D01*
X149369523Y-36379580D02*
X149321904Y-36427200D01*
X149321904Y-36427200D02*
X149179047Y-36474819D01*
X149179047Y-36474819D02*
X149083809Y-36474819D01*
X149083809Y-36474819D02*
X148940952Y-36427200D01*
X148940952Y-36427200D02*
X148845714Y-36331961D01*
X148845714Y-36331961D02*
X148798095Y-36236723D01*
X148798095Y-36236723D02*
X148750476Y-36046247D01*
X148750476Y-36046247D02*
X148750476Y-35903390D01*
X148750476Y-35903390D02*
X148798095Y-35712914D01*
X148798095Y-35712914D02*
X148845714Y-35617676D01*
X148845714Y-35617676D02*
X148940952Y-35522438D01*
X148940952Y-35522438D02*
X149083809Y-35474819D01*
X149083809Y-35474819D02*
X149179047Y-35474819D01*
X149179047Y-35474819D02*
X149321904Y-35522438D01*
X149321904Y-35522438D02*
X149369523Y-35570057D01*
X149988571Y-35474819D02*
X150179047Y-35474819D01*
X150179047Y-35474819D02*
X150274285Y-35522438D01*
X150274285Y-35522438D02*
X150369523Y-35617676D01*
X150369523Y-35617676D02*
X150417142Y-35808152D01*
X150417142Y-35808152D02*
X150417142Y-36141485D01*
X150417142Y-36141485D02*
X150369523Y-36331961D01*
X150369523Y-36331961D02*
X150274285Y-36427200D01*
X150274285Y-36427200D02*
X150179047Y-36474819D01*
X150179047Y-36474819D02*
X149988571Y-36474819D01*
X149988571Y-36474819D02*
X149893333Y-36427200D01*
X149893333Y-36427200D02*
X149798095Y-36331961D01*
X149798095Y-36331961D02*
X149750476Y-36141485D01*
X149750476Y-36141485D02*
X149750476Y-35808152D01*
X149750476Y-35808152D02*
X149798095Y-35617676D01*
X149798095Y-35617676D02*
X149893333Y-35522438D01*
X149893333Y-35522438D02*
X149988571Y-35474819D01*
X150845714Y-36474819D02*
X150845714Y-35474819D01*
X150845714Y-35474819D02*
X151083809Y-35474819D01*
X151083809Y-35474819D02*
X151226666Y-35522438D01*
X151226666Y-35522438D02*
X151321904Y-35617676D01*
X151321904Y-35617676D02*
X151369523Y-35712914D01*
X151369523Y-35712914D02*
X151417142Y-35903390D01*
X151417142Y-35903390D02*
X151417142Y-36046247D01*
X151417142Y-36046247D02*
X151369523Y-36236723D01*
X151369523Y-36236723D02*
X151321904Y-36331961D01*
X151321904Y-36331961D02*
X151226666Y-36427200D01*
X151226666Y-36427200D02*
X151083809Y-36474819D01*
X151083809Y-36474819D02*
X150845714Y-36474819D01*
X151845714Y-35951009D02*
X152179047Y-35951009D01*
X152321904Y-36474819D02*
X151845714Y-36474819D01*
X151845714Y-36474819D02*
X151845714Y-35474819D01*
X151845714Y-35474819D02*
X152321904Y-35474819D01*
X153321904Y-36474819D02*
X152988571Y-35998628D01*
X152750476Y-36474819D02*
X152750476Y-35474819D01*
X152750476Y-35474819D02*
X153131428Y-35474819D01*
X153131428Y-35474819D02*
X153226666Y-35522438D01*
X153226666Y-35522438D02*
X153274285Y-35570057D01*
X153274285Y-35570057D02*
X153321904Y-35665295D01*
X153321904Y-35665295D02*
X153321904Y-35808152D01*
X153321904Y-35808152D02*
X153274285Y-35903390D01*
X153274285Y-35903390D02*
X153226666Y-35951009D01*
X153226666Y-35951009D02*
X153131428Y-35998628D01*
X153131428Y-35998628D02*
X152750476Y-35998628D01*
X154274285Y-36474819D02*
X153702857Y-36474819D01*
X153988571Y-36474819D02*
X153988571Y-35474819D01*
X153988571Y-35474819D02*
X153893333Y-35617676D01*
X153893333Y-35617676D02*
X153798095Y-35712914D01*
X153798095Y-35712914D02*
X153702857Y-35760533D01*
X175333333Y-73359580D02*
X175285714Y-73407200D01*
X175285714Y-73407200D02*
X175142857Y-73454819D01*
X175142857Y-73454819D02*
X175047619Y-73454819D01*
X175047619Y-73454819D02*
X174904762Y-73407200D01*
X174904762Y-73407200D02*
X174809524Y-73311961D01*
X174809524Y-73311961D02*
X174761905Y-73216723D01*
X174761905Y-73216723D02*
X174714286Y-73026247D01*
X174714286Y-73026247D02*
X174714286Y-72883390D01*
X174714286Y-72883390D02*
X174761905Y-72692914D01*
X174761905Y-72692914D02*
X174809524Y-72597676D01*
X174809524Y-72597676D02*
X174904762Y-72502438D01*
X174904762Y-72502438D02*
X175047619Y-72454819D01*
X175047619Y-72454819D02*
X175142857Y-72454819D01*
X175142857Y-72454819D02*
X175285714Y-72502438D01*
X175285714Y-72502438D02*
X175333333Y-72550057D01*
X175714286Y-72550057D02*
X175761905Y-72502438D01*
X175761905Y-72502438D02*
X175857143Y-72454819D01*
X175857143Y-72454819D02*
X176095238Y-72454819D01*
X176095238Y-72454819D02*
X176190476Y-72502438D01*
X176190476Y-72502438D02*
X176238095Y-72550057D01*
X176238095Y-72550057D02*
X176285714Y-72645295D01*
X176285714Y-72645295D02*
X176285714Y-72740533D01*
X176285714Y-72740533D02*
X176238095Y-72883390D01*
X176238095Y-72883390D02*
X175666667Y-73454819D01*
X175666667Y-73454819D02*
X176285714Y-73454819D01*
X112833333Y-73454819D02*
X112833333Y-72454819D01*
X112833333Y-72454819D02*
X113071428Y-72454819D01*
X113071428Y-72454819D02*
X113214285Y-72502438D01*
X113214285Y-72502438D02*
X113309523Y-72597676D01*
X113309523Y-72597676D02*
X113357142Y-72692914D01*
X113357142Y-72692914D02*
X113404761Y-72883390D01*
X113404761Y-72883390D02*
X113404761Y-73026247D01*
X113404761Y-73026247D02*
X113357142Y-73216723D01*
X113357142Y-73216723D02*
X113309523Y-73311961D01*
X113309523Y-73311961D02*
X113214285Y-73407200D01*
X113214285Y-73407200D02*
X113071428Y-73454819D01*
X113071428Y-73454819D02*
X112833333Y-73454819D01*
X113833333Y-72931009D02*
X114166666Y-72931009D01*
X114309523Y-73454819D02*
X113833333Y-73454819D01*
X113833333Y-73454819D02*
X113833333Y-72454819D01*
X113833333Y-72454819D02*
X114309523Y-72454819D01*
X115309523Y-73359580D02*
X115261904Y-73407200D01*
X115261904Y-73407200D02*
X115119047Y-73454819D01*
X115119047Y-73454819D02*
X115023809Y-73454819D01*
X115023809Y-73454819D02*
X114880952Y-73407200D01*
X114880952Y-73407200D02*
X114785714Y-73311961D01*
X114785714Y-73311961D02*
X114738095Y-73216723D01*
X114738095Y-73216723D02*
X114690476Y-73026247D01*
X114690476Y-73026247D02*
X114690476Y-72883390D01*
X114690476Y-72883390D02*
X114738095Y-72692914D01*
X114738095Y-72692914D02*
X114785714Y-72597676D01*
X114785714Y-72597676D02*
X114880952Y-72502438D01*
X114880952Y-72502438D02*
X115023809Y-72454819D01*
X115023809Y-72454819D02*
X115119047Y-72454819D01*
X115119047Y-72454819D02*
X115261904Y-72502438D01*
X115261904Y-72502438D02*
X115309523Y-72550057D01*
X115928571Y-72454819D02*
X116119047Y-72454819D01*
X116119047Y-72454819D02*
X116214285Y-72502438D01*
X116214285Y-72502438D02*
X116309523Y-72597676D01*
X116309523Y-72597676D02*
X116357142Y-72788152D01*
X116357142Y-72788152D02*
X116357142Y-73121485D01*
X116357142Y-73121485D02*
X116309523Y-73311961D01*
X116309523Y-73311961D02*
X116214285Y-73407200D01*
X116214285Y-73407200D02*
X116119047Y-73454819D01*
X116119047Y-73454819D02*
X115928571Y-73454819D01*
X115928571Y-73454819D02*
X115833333Y-73407200D01*
X115833333Y-73407200D02*
X115738095Y-73311961D01*
X115738095Y-73311961D02*
X115690476Y-73121485D01*
X115690476Y-73121485D02*
X115690476Y-72788152D01*
X115690476Y-72788152D02*
X115738095Y-72597676D01*
X115738095Y-72597676D02*
X115833333Y-72502438D01*
X115833333Y-72502438D02*
X115928571Y-72454819D01*
X116785714Y-73454819D02*
X116785714Y-72454819D01*
X116785714Y-72454819D02*
X117023809Y-72454819D01*
X117023809Y-72454819D02*
X117166666Y-72502438D01*
X117166666Y-72502438D02*
X117261904Y-72597676D01*
X117261904Y-72597676D02*
X117309523Y-72692914D01*
X117309523Y-72692914D02*
X117357142Y-72883390D01*
X117357142Y-72883390D02*
X117357142Y-73026247D01*
X117357142Y-73026247D02*
X117309523Y-73216723D01*
X117309523Y-73216723D02*
X117261904Y-73311961D01*
X117261904Y-73311961D02*
X117166666Y-73407200D01*
X117166666Y-73407200D02*
X117023809Y-73454819D01*
X117023809Y-73454819D02*
X116785714Y-73454819D01*
X117785714Y-72931009D02*
X118119047Y-72931009D01*
X118261904Y-73454819D02*
X117785714Y-73454819D01*
X117785714Y-73454819D02*
X117785714Y-72454819D01*
X117785714Y-72454819D02*
X118261904Y-72454819D01*
X119261904Y-73454819D02*
X118928571Y-72978628D01*
X118690476Y-73454819D02*
X118690476Y-72454819D01*
X118690476Y-72454819D02*
X119071428Y-72454819D01*
X119071428Y-72454819D02*
X119166666Y-72502438D01*
X119166666Y-72502438D02*
X119214285Y-72550057D01*
X119214285Y-72550057D02*
X119261904Y-72645295D01*
X119261904Y-72645295D02*
X119261904Y-72788152D01*
X119261904Y-72788152D02*
X119214285Y-72883390D01*
X119214285Y-72883390D02*
X119166666Y-72931009D01*
X119166666Y-72931009D02*
X119071428Y-72978628D01*
X119071428Y-72978628D02*
X118690476Y-72978628D01*
X119595238Y-72454819D02*
X120214285Y-72454819D01*
X120214285Y-72454819D02*
X119880952Y-72835771D01*
X119880952Y-72835771D02*
X120023809Y-72835771D01*
X120023809Y-72835771D02*
X120119047Y-72883390D01*
X120119047Y-72883390D02*
X120166666Y-72931009D01*
X120166666Y-72931009D02*
X120214285Y-73026247D01*
X120214285Y-73026247D02*
X120214285Y-73264342D01*
X120214285Y-73264342D02*
X120166666Y-73359580D01*
X120166666Y-73359580D02*
X120119047Y-73407200D01*
X120119047Y-73407200D02*
X120023809Y-73454819D01*
X120023809Y-73454819D02*
X119738095Y-73454819D01*
X119738095Y-73454819D02*
X119642857Y-73407200D01*
X119642857Y-73407200D02*
X119595238Y-73359580D01*
X142433333Y-34609580D02*
X142385714Y-34657200D01*
X142385714Y-34657200D02*
X142242857Y-34704819D01*
X142242857Y-34704819D02*
X142147619Y-34704819D01*
X142147619Y-34704819D02*
X142004762Y-34657200D01*
X142004762Y-34657200D02*
X141909524Y-34561961D01*
X141909524Y-34561961D02*
X141861905Y-34466723D01*
X141861905Y-34466723D02*
X141814286Y-34276247D01*
X141814286Y-34276247D02*
X141814286Y-34133390D01*
X141814286Y-34133390D02*
X141861905Y-33942914D01*
X141861905Y-33942914D02*
X141909524Y-33847676D01*
X141909524Y-33847676D02*
X142004762Y-33752438D01*
X142004762Y-33752438D02*
X142147619Y-33704819D01*
X142147619Y-33704819D02*
X142242857Y-33704819D01*
X142242857Y-33704819D02*
X142385714Y-33752438D01*
X142385714Y-33752438D02*
X142433333Y-33800057D01*
X143290476Y-34038152D02*
X143290476Y-34704819D01*
X143052381Y-33657200D02*
X142814286Y-34371485D01*
X142814286Y-34371485D02*
X143433333Y-34371485D01*
D13*
%TO.C,~{LI}1*%
X168450000Y-78750000D02*
G75*
G02*
X167050000Y-78750000I-700000J0D01*
G01*
X167050000Y-78750000D02*
G75*
G02*
X168450000Y-78750000I700000J0D01*
G01*
%TO.C,U1*%
X184500000Y-55720000D02*
X184500000Y-73620000D01*
X184500000Y-73620000D02*
X189000000Y-73620000D01*
X185750000Y-55720000D02*
X184500000Y-55720000D01*
X189000000Y-55720000D02*
X187750000Y-55720000D01*
X189000000Y-73620000D02*
X189000000Y-55720000D01*
X181500000Y-55660000D02*
X192000000Y-55660000D01*
X192000000Y-73680000D01*
X181500000Y-73680000D01*
X181500000Y-55660000D01*
X187750000Y-55720000D02*
G75*
G02*
X185750000Y-55720000I-1000000J0D01*
G01*
%TO.C,C3*%
X189030000Y-48980000D02*
X191770000Y-48980000D01*
X189030000Y-54220000D02*
X189030000Y-48980000D01*
X191770000Y-48980000D02*
X191770000Y-54220000D01*
X191770000Y-54220000D02*
X189030000Y-54220000D01*
%TO.C,C11*%
X120630000Y-67780000D02*
X123370000Y-67780000D01*
X120630000Y-73020000D02*
X120630000Y-67780000D01*
X123370000Y-67780000D02*
X123370000Y-73020000D01*
X123370000Y-73020000D02*
X120630000Y-73020000D01*
%TO.C,C5*%
X108270000Y-116990522D02*
G75*
G02*
X101730000Y-116990522I-3270000J0D01*
G01*
X101730000Y-116990522D02*
G75*
G02*
X108270000Y-116990522I3270000J0D01*
G01*
%TO.C,C1*%
X189880000Y-75380000D02*
X192620000Y-75380000D01*
X189880000Y-80620000D02*
X189880000Y-75380000D01*
X192620000Y-75380000D02*
X192620000Y-80620000D01*
X192620000Y-80620000D02*
X189880000Y-80620000D01*
%TO.C,R1*%
X177880000Y-87790000D02*
X177880000Y-94330000D01*
X177880000Y-94330000D02*
X178210000Y-94330000D01*
X178210000Y-87790000D02*
X177880000Y-87790000D01*
X180290000Y-87790000D02*
X180620000Y-87790000D01*
X180620000Y-87790000D02*
X180620000Y-94330000D01*
X180620000Y-94330000D02*
X180290000Y-94330000D01*
%TO.C,C12*%
X105130000Y-67530000D02*
X107870000Y-67530000D01*
X105130000Y-72770000D02*
X105130000Y-67530000D01*
X107870000Y-67530000D02*
X107870000Y-72770000D01*
X107870000Y-72770000D02*
X105130000Y-72770000D01*
%TO.C,Power1*%
X100950000Y-112000000D02*
G75*
G02*
X99550000Y-112000000I-700000J0D01*
G01*
X99550000Y-112000000D02*
G75*
G02*
X100950000Y-112000000I700000J0D01*
G01*
%TO.C,C9*%
X156380000Y-35630000D02*
X159120000Y-35630000D01*
X156380000Y-40870000D02*
X156380000Y-35630000D01*
X159120000Y-35630000D02*
X159120000Y-40870000D01*
X159120000Y-40870000D02*
X156380000Y-40870000D01*
%TO.C,DECODER2*%
X162940000Y-37060000D02*
X162940000Y-67660000D01*
X162940000Y-67660000D02*
X167440000Y-67660000D01*
X164190000Y-37060000D02*
X162940000Y-37060000D01*
X167440000Y-37060000D02*
X166190000Y-37060000D01*
X167440000Y-67660000D02*
X167440000Y-37060000D01*
X159940000Y-37000000D02*
X170440000Y-37000000D01*
X170440000Y-67720000D01*
X159940000Y-67720000D01*
X159940000Y-37000000D01*
X166190000Y-37060000D02*
G75*
G02*
X164190000Y-37060000I-1000000J0D01*
G01*
%TO.C,DECODER4*%
X100440000Y-74350000D02*
X100440000Y-104950000D01*
X100440000Y-104950000D02*
X104940000Y-104950000D01*
X101690000Y-74350000D02*
X100440000Y-74350000D01*
X104940000Y-74350000D02*
X103690000Y-74350000D01*
X104940000Y-104950000D02*
X104940000Y-74350000D01*
X97440000Y-74290000D02*
X107940000Y-74290000D01*
X107940000Y-105010000D01*
X97440000Y-105010000D01*
X97440000Y-74290000D01*
X103690000Y-74350000D02*
G75*
G02*
X101690000Y-74350000I-1000000J0D01*
G01*
D11*
%TO.C,kibuzzard-6911CC41*%
G36*
X108612829Y-56773187D02*
G01*
X108612829Y-57147473D01*
X108437115Y-57301759D01*
X107787115Y-57301759D01*
X107677115Y-57301759D01*
X107677115Y-57197473D01*
X107787115Y-57197473D01*
X108418543Y-57197473D01*
X108505686Y-57108902D01*
X108505686Y-56828902D01*
X108418543Y-56741759D01*
X107787115Y-56741759D01*
X107787115Y-57197473D01*
X107677115Y-57197473D01*
X107677115Y-56628902D01*
X108468543Y-56628902D01*
X108612829Y-56773187D01*
G37*
G36*
X107039972Y-56631759D02*
G01*
X107039972Y-58043187D01*
X106745686Y-58337473D01*
X105854258Y-58337473D01*
X105797115Y-58337473D01*
X105502829Y-58043187D01*
X105502829Y-56683187D01*
X105615686Y-56683187D01*
X105615686Y-57984616D01*
X105854258Y-58223187D01*
X106689972Y-58223187D01*
X106929972Y-57984616D01*
X106929972Y-56683187D01*
X106689972Y-56444616D01*
X105854258Y-56444616D01*
X105615686Y-56683187D01*
X105502829Y-56683187D01*
X105502829Y-56631759D01*
X105797115Y-56337473D01*
X106745686Y-56337473D01*
X107039972Y-56631759D01*
G37*
G36*
X106745686Y-56771759D02*
G01*
X106745686Y-57896044D01*
X106601400Y-58040330D01*
X105994258Y-58040330D01*
X105944258Y-58040330D01*
X105798543Y-57896044D01*
X105798543Y-56828902D01*
X105907115Y-56828902D01*
X105907115Y-57846044D01*
X105994258Y-57933187D01*
X106548543Y-57933187D01*
X106635686Y-57846044D01*
X106635686Y-56828902D01*
X106548543Y-56741759D01*
X105994258Y-56741759D01*
X105907115Y-56828902D01*
X105798543Y-56828902D01*
X105798543Y-56771759D01*
X105944258Y-56628902D01*
X106601400Y-56628902D01*
X106745686Y-56771759D01*
G37*
G36*
X112378543Y-57933187D02*
G01*
X112764258Y-57933187D01*
X112764258Y-58337473D01*
X111715686Y-58337473D01*
X111595686Y-58337473D01*
X111595686Y-57933187D01*
X111975686Y-57933187D01*
X111975686Y-56810330D01*
X111595686Y-56917473D01*
X111595686Y-56566044D01*
X111705686Y-56566044D01*
X111705686Y-56768902D01*
X112087115Y-56657473D01*
X112087115Y-58047473D01*
X111715686Y-58047473D01*
X111715686Y-58230330D01*
X112642829Y-58230330D01*
X112642829Y-58047473D01*
X112269972Y-58047473D01*
X112269972Y-56447473D01*
X112137115Y-56447473D01*
X111705686Y-56566044D01*
X111595686Y-56566044D01*
X111595686Y-56473187D01*
X112109972Y-56337473D01*
X112378543Y-56337473D01*
X112378543Y-57933187D01*
G37*
G36*
X110538543Y-56741759D02*
G01*
X109642829Y-56741759D01*
X109642829Y-57126044D01*
X110439972Y-57126044D01*
X110439972Y-57530330D01*
X109642829Y-57530330D01*
X109642829Y-57933187D01*
X110538543Y-57933187D01*
X110538543Y-58337473D01*
X109351400Y-58337473D01*
X109238543Y-58337473D01*
X109238543Y-58223187D01*
X109351400Y-58223187D01*
X110441400Y-58223187D01*
X110441400Y-58040330D01*
X109535686Y-58040330D01*
X109535686Y-57418902D01*
X110341400Y-57418902D01*
X110341400Y-57236044D01*
X109535686Y-57236044D01*
X109535686Y-56628902D01*
X110441400Y-56628902D01*
X110441400Y-56444616D01*
X109351400Y-56444616D01*
X109351400Y-58223187D01*
X109238543Y-58223187D01*
X109238543Y-56337473D01*
X110538543Y-56337473D01*
X110538543Y-56741759D01*
G37*
G36*
X108909972Y-56631759D02*
G01*
X108909972Y-57251759D01*
X108735686Y-57411759D01*
X108909972Y-57601759D01*
X108909972Y-58337473D01*
X108505686Y-58337473D01*
X108505686Y-57744616D01*
X108362829Y-57601759D01*
X107787115Y-57601759D01*
X107787115Y-58337473D01*
X107494258Y-58337473D01*
X107382829Y-58337473D01*
X107382829Y-58228902D01*
X107494258Y-58228902D01*
X107677115Y-58228902D01*
X107677115Y-57486044D01*
X108409972Y-57486044D01*
X108618543Y-57704616D01*
X108618543Y-58228902D01*
X108802829Y-58228902D01*
X108802829Y-57644616D01*
X108578543Y-57400330D01*
X108797115Y-57208902D01*
X108797115Y-56684616D01*
X108558543Y-56446044D01*
X107494258Y-56446044D01*
X107494258Y-58228902D01*
X107382829Y-58228902D01*
X107382829Y-56337473D01*
X108615686Y-56337473D01*
X108909972Y-56631759D01*
G37*
G36*
X105188543Y-56631759D02*
G01*
X105188543Y-57091759D01*
X104784258Y-57091759D01*
X104784258Y-56828902D01*
X104697115Y-56741759D01*
X104202829Y-56741759D01*
X104115686Y-56828902D01*
X104115686Y-57846044D01*
X104202829Y-57933187D01*
X104697115Y-57933187D01*
X104784258Y-57846044D01*
X104784258Y-57583187D01*
X105188543Y-57583187D01*
X105188543Y-58043187D01*
X104892829Y-58337473D01*
X104059972Y-58337473D01*
X104005686Y-58337473D01*
X103711400Y-58043187D01*
X103711400Y-56683187D01*
X103821400Y-56683187D01*
X103821400Y-57987473D01*
X104059972Y-58226044D01*
X104839972Y-58226044D01*
X105078543Y-57987473D01*
X105078543Y-57681759D01*
X104895686Y-57681759D01*
X104895686Y-57898902D01*
X104749972Y-58043187D01*
X104149972Y-58043187D01*
X104004258Y-57898902D01*
X104004258Y-56771759D01*
X104149972Y-56628902D01*
X104749972Y-56628902D01*
X104895686Y-56771759D01*
X104895686Y-56988902D01*
X105078543Y-56988902D01*
X105078543Y-56683187D01*
X104839972Y-56444616D01*
X104059972Y-56444616D01*
X103821400Y-56683187D01*
X103711400Y-56683187D01*
X103711400Y-56631759D01*
X104005686Y-56337473D01*
X104892829Y-56337473D01*
X105188543Y-56631759D01*
G37*
D13*
%TO.C,Reset1*%
X190450000Y-110500000D02*
G75*
G02*
X189050000Y-110500000I-700000J0D01*
G01*
X189050000Y-110500000D02*
G75*
G02*
X190450000Y-110500000I700000J0D01*
G01*
%TO.C,~{Clock}1*%
X176950000Y-109250000D02*
G75*
G02*
X175550000Y-109250000I-700000J0D01*
G01*
X175550000Y-109250000D02*
G75*
G02*
X176950000Y-109250000I700000J0D01*
G01*
%TO.C,U4*%
X169310000Y-80840000D02*
X169310000Y-98740000D01*
X169310000Y-98740000D02*
X173810000Y-98740000D01*
X170560000Y-80840000D02*
X169310000Y-80840000D01*
X173810000Y-80840000D02*
X172560000Y-80840000D01*
X173810000Y-98740000D02*
X173810000Y-80840000D01*
X166310000Y-80780000D02*
X176810000Y-80780000D01*
X176810000Y-98800000D01*
X166310000Y-98800000D01*
X166310000Y-80780000D01*
X172560000Y-80840000D02*
G75*
G02*
X170560000Y-80840000I-1000000J0D01*
G01*
%TO.C,INSTRUCTION1*%
X143300000Y-107560000D02*
X143300000Y-108810000D01*
X143300000Y-110810000D02*
X143300000Y-112060000D01*
X143300000Y-112060000D02*
X168820000Y-112060000D01*
X168820000Y-107560000D02*
X143300000Y-107560000D01*
X168820000Y-112060000D02*
X168820000Y-107560000D01*
X143240000Y-115060000D02*
X168880000Y-115060000D01*
X168880000Y-104560000D01*
X143240000Y-104560000D01*
X143240000Y-115060000D01*
X143300000Y-108810000D02*
G75*
G02*
X143300000Y-110810000I0J-1000000D01*
G01*
%TO.C,C10*%
X171630000Y-36880000D02*
X176870000Y-36880000D01*
X171630000Y-39620000D02*
X171630000Y-36880000D01*
X176870000Y-36880000D02*
X176870000Y-39620000D01*
X176870000Y-39620000D02*
X171630000Y-39620000D01*
%TO.C,~{IntE}1*%
X178950000Y-57500000D02*
G75*
G02*
X177550000Y-57500000I-700000J0D01*
G01*
X177550000Y-57500000D02*
G75*
G02*
X178950000Y-57500000I700000J0D01*
G01*
%TO.C,U2*%
X132500000Y-37055000D02*
X132500000Y-54955000D01*
X132500000Y-54955000D02*
X137000000Y-54955000D01*
X133750000Y-37055000D02*
X132500000Y-37055000D01*
X137000000Y-37055000D02*
X135750000Y-37055000D01*
X137000000Y-54955000D02*
X137000000Y-37055000D01*
X129500000Y-36995000D02*
X140000000Y-36995000D01*
X140000000Y-55015000D01*
X129500000Y-55015000D01*
X129500000Y-36995000D01*
X135750000Y-37055000D02*
G75*
G02*
X133750000Y-37055000I-1000000J0D01*
G01*
%TO.C,C16*%
X143880000Y-98880000D02*
X146620000Y-98880000D01*
X143880000Y-104120000D02*
X143880000Y-98880000D01*
X146620000Y-98880000D02*
X146620000Y-104120000D01*
X146620000Y-104120000D02*
X143880000Y-104120000D01*
%TO.C,U3*%
X184500000Y-81030000D02*
X184500000Y-101470000D01*
X184500000Y-101470000D02*
X189000000Y-101470000D01*
X185750000Y-81030000D02*
X184500000Y-81030000D01*
X189000000Y-81030000D02*
X187750000Y-81030000D01*
X189000000Y-101470000D02*
X189000000Y-81030000D01*
X181500000Y-80970000D02*
X192000000Y-80970000D01*
X192000000Y-101530000D01*
X181500000Y-101530000D01*
X181500000Y-80970000D01*
X187750000Y-81030000D02*
G75*
G02*
X185750000Y-81030000I-1000000J0D01*
G01*
%TO.C,IntS1*%
X178950000Y-61000000D02*
G75*
G02*
X177550000Y-61000000I-700000J0D01*
G01*
X177550000Y-61000000D02*
G75*
G02*
X178950000Y-61000000I700000J0D01*
G01*
%TO.C,DECODER1*%
X148310000Y-37020000D02*
X148310000Y-67620000D01*
X148310000Y-67620000D02*
X152810000Y-67620000D01*
X149560000Y-37020000D02*
X148310000Y-37020000D01*
X152810000Y-37020000D02*
X151560000Y-37020000D01*
X152810000Y-67620000D02*
X152810000Y-37020000D01*
X145310000Y-36960000D02*
X155810000Y-36960000D01*
X155810000Y-67680000D01*
X145310000Y-67680000D01*
X145310000Y-36960000D01*
X151560000Y-37020000D02*
G75*
G02*
X149560000Y-37020000I-1000000J0D01*
G01*
D11*
%TO.C,kibuzzard-691DE05D*%
G36*
X193555000Y-34000000D02*
G01*
X193222143Y-34000000D01*
X193106429Y-34000000D01*
X193106429Y-33885714D01*
X193222143Y-33885714D01*
X193440714Y-33885714D01*
X193440714Y-33692857D01*
X193222143Y-33692857D01*
X193222143Y-33885714D01*
X193106429Y-33885714D01*
X193106429Y-33580000D01*
X193555000Y-33580000D01*
X193555000Y-34000000D01*
G37*
G36*
X187020714Y-32431429D02*
G01*
X187020714Y-33120000D01*
X186205000Y-33120000D01*
X186099286Y-33120000D01*
X186099286Y-32491429D01*
X186205000Y-32491429D01*
X186205000Y-33008571D01*
X186910714Y-33008571D01*
X186910714Y-32491429D01*
X186823571Y-32404286D01*
X186292143Y-32404286D01*
X186205000Y-32491429D01*
X186099286Y-32491429D01*
X186099286Y-32431429D01*
X186243571Y-32287143D01*
X186876429Y-32287143D01*
X187020714Y-32431429D01*
G37*
G36*
X188849286Y-32434286D02*
G01*
X188849286Y-32935714D01*
X188677857Y-33105714D01*
X188060714Y-33105714D01*
X187949286Y-33105714D01*
X187949286Y-32998571D01*
X188060714Y-32998571D01*
X188619286Y-32998571D01*
X188735000Y-32884286D01*
X188735000Y-32491429D01*
X188647857Y-32404286D01*
X188060714Y-32404286D01*
X188060714Y-32998571D01*
X187949286Y-32998571D01*
X187949286Y-32291429D01*
X188705000Y-32291429D01*
X188849286Y-32434286D01*
G37*
G36*
X190646429Y-32434286D02*
G01*
X190646429Y-32935714D01*
X190475000Y-33105714D01*
X189857857Y-33105714D01*
X189746429Y-33105714D01*
X189746429Y-32998571D01*
X189857857Y-32998571D01*
X190416429Y-32998571D01*
X190532143Y-32884286D01*
X190532143Y-32491429D01*
X190445000Y-32404286D01*
X189857857Y-32404286D01*
X189857857Y-32998571D01*
X189746429Y-32998571D01*
X189746429Y-32291429D01*
X190502143Y-32291429D01*
X190646429Y-32434286D01*
G37*
G36*
X189137857Y-32294286D02*
G01*
X189137857Y-33081429D01*
X188816429Y-33402857D01*
X188060714Y-33402857D01*
X188060714Y-34000000D01*
X187765000Y-34000000D01*
X187656429Y-34000000D01*
X187656429Y-33902857D01*
X187765000Y-33902857D01*
X187949286Y-33902857D01*
X187949286Y-33288571D01*
X188767857Y-33288571D01*
X189032143Y-33022857D01*
X189032143Y-32345714D01*
X188793571Y-32107143D01*
X187765000Y-32107143D01*
X187765000Y-33902857D01*
X187656429Y-33902857D01*
X187656429Y-32000000D01*
X188843571Y-32000000D01*
X189137857Y-32294286D01*
G37*
G36*
X190935000Y-32294286D02*
G01*
X190935000Y-33081429D01*
X190613571Y-33402857D01*
X189857857Y-33402857D01*
X189857857Y-34000000D01*
X189562143Y-34000000D01*
X189453571Y-34000000D01*
X189453571Y-33902857D01*
X189562143Y-33902857D01*
X189746429Y-33902857D01*
X189746429Y-33288571D01*
X190565000Y-33288571D01*
X190829286Y-33022857D01*
X190829286Y-32345714D01*
X190590714Y-32107143D01*
X189562143Y-32107143D01*
X189562143Y-33902857D01*
X189453571Y-33902857D01*
X189453571Y-32000000D01*
X190640714Y-32000000D01*
X190935000Y-32294286D01*
G37*
G36*
X187313571Y-32294286D02*
G01*
X187313571Y-34000000D01*
X186910714Y-34000000D01*
X186910714Y-33411429D01*
X186205000Y-33411429D01*
X186205000Y-34000000D01*
X185916429Y-34000000D01*
X185802143Y-34000000D01*
X185802143Y-32342857D01*
X185916429Y-32342857D01*
X185916429Y-33881429D01*
X186099286Y-33881429D01*
X186099286Y-33304286D01*
X187020714Y-33304286D01*
X187020714Y-33881429D01*
X187205000Y-33881429D01*
X187205000Y-32342857D01*
X186965000Y-32104286D01*
X186155000Y-32104286D01*
X185916429Y-32342857D01*
X185802143Y-32342857D01*
X185802143Y-32294286D01*
X186096429Y-32000000D01*
X187019286Y-32000000D01*
X187313571Y-32294286D01*
G37*
G36*
X179849286Y-33508571D02*
G01*
X179936429Y-33595714D01*
X180522143Y-33595714D01*
X180609286Y-33508571D01*
X180609286Y-32000000D01*
X181013571Y-32000000D01*
X181013571Y-33705714D01*
X180719286Y-34000000D01*
X179795000Y-34000000D01*
X179739286Y-34000000D01*
X179445000Y-33705714D01*
X179445000Y-33652857D01*
X179555000Y-33652857D01*
X179795000Y-33890000D01*
X180665000Y-33890000D01*
X180903571Y-33652857D01*
X180903571Y-32107143D01*
X180720714Y-32107143D01*
X180720714Y-33564286D01*
X180575000Y-33705714D01*
X179885000Y-33705714D01*
X179739286Y-33564286D01*
X179739286Y-32107143D01*
X179555000Y-32107143D01*
X179555000Y-33652857D01*
X179445000Y-33652857D01*
X179445000Y-32000000D01*
X179849286Y-32000000D01*
X179849286Y-33508571D01*
G37*
G36*
X183523571Y-33508571D02*
G01*
X183610714Y-33595714D01*
X184196429Y-33595714D01*
X184283571Y-33508571D01*
X184283571Y-32000000D01*
X184687857Y-32000000D01*
X184687857Y-33705714D01*
X184393571Y-34000000D01*
X183469286Y-34000000D01*
X183413571Y-34000000D01*
X183119286Y-33705714D01*
X183119286Y-33652857D01*
X183229286Y-33652857D01*
X183469286Y-33890000D01*
X184339286Y-33890000D01*
X184577857Y-33652857D01*
X184577857Y-32107143D01*
X184395000Y-32107143D01*
X184395000Y-33564286D01*
X184249286Y-33705714D01*
X183559286Y-33705714D01*
X183413571Y-33564286D01*
X183413571Y-32107143D01*
X183229286Y-32107143D01*
X183229286Y-33652857D01*
X183119286Y-33652857D01*
X183119286Y-32000000D01*
X183523571Y-32000000D01*
X183523571Y-33508571D01*
G37*
G36*
X182805000Y-32294286D02*
G01*
X182805000Y-32754286D01*
X182400714Y-32754286D01*
X182400714Y-32491429D01*
X182313571Y-32404286D01*
X181819286Y-32404286D01*
X181732143Y-32491429D01*
X181732143Y-33508571D01*
X181819286Y-33595714D01*
X182313571Y-33595714D01*
X182400714Y-33508571D01*
X182400714Y-33245714D01*
X182805000Y-33245714D01*
X182805000Y-33705714D01*
X182509286Y-34000000D01*
X181676429Y-34000000D01*
X181622143Y-34000000D01*
X181327857Y-33705714D01*
X181327857Y-32345714D01*
X181437857Y-32345714D01*
X181437857Y-33650000D01*
X181676429Y-33888571D01*
X182456429Y-33888571D01*
X182695000Y-33650000D01*
X182695000Y-33344286D01*
X182512143Y-33344286D01*
X182512143Y-33561429D01*
X182366429Y-33705714D01*
X181766429Y-33705714D01*
X181620714Y-33561429D01*
X181620714Y-32434286D01*
X181766429Y-32291429D01*
X182366429Y-32291429D01*
X182512143Y-32434286D01*
X182512143Y-32651429D01*
X182695000Y-32651429D01*
X182695000Y-32345714D01*
X182456429Y-32107143D01*
X181676429Y-32107143D01*
X181437857Y-32345714D01*
X181327857Y-32345714D01*
X181327857Y-32294286D01*
X181622143Y-32000000D01*
X182509286Y-32000000D01*
X182805000Y-32294286D01*
G37*
G36*
X192740714Y-32294286D02*
G01*
X192740714Y-32654286D01*
X192336429Y-32654286D01*
X192336429Y-32491429D01*
X192249286Y-32404286D01*
X191736429Y-32404286D01*
X191647857Y-32491429D01*
X191647857Y-32710000D01*
X191736429Y-32797143D01*
X192473571Y-32797143D01*
X192767857Y-33091429D01*
X192767857Y-33705714D01*
X192473571Y-34000000D01*
X191582143Y-34000000D01*
X191530714Y-34000000D01*
X191236429Y-33705714D01*
X191236429Y-33447143D01*
X191350714Y-33447143D01*
X191350714Y-33658571D01*
X191582143Y-33890000D01*
X192415000Y-33890000D01*
X192653571Y-33651429D01*
X192653571Y-33131429D01*
X192429286Y-32905714D01*
X191685000Y-32905714D01*
X191539286Y-32761429D01*
X191539286Y-32437143D01*
X191683571Y-32294286D01*
X192307857Y-32294286D01*
X192446429Y-32430000D01*
X192446429Y-32552857D01*
X192629286Y-32552857D01*
X192629286Y-32341429D01*
X192397857Y-32110000D01*
X191593571Y-32110000D01*
X191355000Y-32348571D01*
X191355000Y-32848571D01*
X191596429Y-33091429D01*
X192339286Y-33091429D01*
X192469286Y-33217143D01*
X192469286Y-33562857D01*
X192325000Y-33707143D01*
X191672143Y-33707143D01*
X191535000Y-33570000D01*
X191535000Y-33447143D01*
X191350714Y-33447143D01*
X191236429Y-33447143D01*
X191236429Y-33345714D01*
X191640714Y-33345714D01*
X191640714Y-33508571D01*
X191727857Y-33595714D01*
X192276429Y-33595714D01*
X192363571Y-33508571D01*
X192363571Y-33288571D01*
X192276429Y-33201429D01*
X191539286Y-33201429D01*
X191245000Y-32907143D01*
X191245000Y-32294286D01*
X191539286Y-32000000D01*
X192446429Y-32000000D01*
X192740714Y-32294286D01*
G37*
D13*
%TO.C,C2*%
X174030000Y-74430000D02*
X176770000Y-74430000D01*
X174030000Y-79670000D02*
X174030000Y-74430000D01*
X176770000Y-74430000D02*
X176770000Y-79670000D01*
X176770000Y-79670000D02*
X174030000Y-79670000D01*
%TO.C,DECODER3*%
X115940000Y-74350000D02*
X115940000Y-104950000D01*
X115940000Y-104950000D02*
X120440000Y-104950000D01*
X117190000Y-74350000D02*
X115940000Y-74350000D01*
X120440000Y-74350000D02*
X119190000Y-74350000D01*
X120440000Y-104950000D02*
X120440000Y-74350000D01*
X112940000Y-74290000D02*
X123440000Y-74290000D01*
X123440000Y-105010000D01*
X112940000Y-105010000D01*
X112940000Y-74290000D01*
X119190000Y-74350000D02*
G75*
G02*
X117190000Y-74350000I-1000000J0D01*
G01*
%TO.C,C4*%
X141230000Y-35130000D02*
X143970000Y-35130000D01*
X141230000Y-40370000D02*
X141230000Y-35130000D01*
X143970000Y-35130000D02*
X143970000Y-40370000D01*
X143970000Y-40370000D02*
X141230000Y-40370000D01*
D11*
%TO.C,kibuzzard-691DE084*%
G36*
X118152143Y-60509643D02*
G01*
X117964286Y-60509643D01*
X117964286Y-60341786D01*
X118009286Y-60341786D01*
X118009286Y-60447500D01*
X118101429Y-60447500D01*
X118101429Y-60341786D01*
X118009286Y-60341786D01*
X117964286Y-60341786D01*
X117964286Y-60279643D01*
X118152143Y-60279643D01*
X118152143Y-60447500D01*
X118152143Y-60509643D01*
G37*
G36*
X118621429Y-63348929D02*
G01*
X118487143Y-63348929D01*
X118410714Y-63272500D01*
X118410714Y-62999643D01*
X118466429Y-62999643D01*
X118466429Y-63246071D01*
X118510000Y-63289643D01*
X118567143Y-63289643D01*
X118567143Y-62985357D01*
X118537143Y-62955357D01*
X118510000Y-62955357D01*
X118466429Y-62999643D01*
X118410714Y-62999643D01*
X118410714Y-62974643D01*
X118483571Y-62901071D01*
X118559286Y-62901071D01*
X118621429Y-62963214D01*
X118621429Y-63289643D01*
X118621429Y-63348929D01*
G37*
G36*
X118621429Y-70778214D02*
G01*
X118487143Y-70778214D01*
X118410714Y-70701786D01*
X118410714Y-70428929D01*
X118466429Y-70428929D01*
X118466429Y-70675357D01*
X118510000Y-70718929D01*
X118567143Y-70718929D01*
X118567143Y-70414643D01*
X118537143Y-70384643D01*
X118510000Y-70384643D01*
X118466429Y-70428929D01*
X118410714Y-70428929D01*
X118410714Y-70403929D01*
X118483571Y-70330357D01*
X118559286Y-70330357D01*
X118621429Y-70392500D01*
X118621429Y-70718929D01*
X118621429Y-70778214D01*
G37*
G36*
X118889286Y-65031071D02*
G01*
X118816429Y-65104643D01*
X118740714Y-65104643D01*
X118678571Y-65042500D01*
X118678571Y-64716071D01*
X118732857Y-64716071D01*
X118732857Y-65020357D01*
X118762857Y-65050357D01*
X118790000Y-65050357D01*
X118833571Y-65006071D01*
X118833571Y-64759643D01*
X118790000Y-64716071D01*
X118732857Y-64716071D01*
X118678571Y-64716071D01*
X118678571Y-64656786D01*
X118812857Y-64656786D01*
X118889286Y-64733214D01*
X118889286Y-65006071D01*
X118889286Y-65031071D01*
G37*
G36*
X118889286Y-67469643D02*
G01*
X118812857Y-67546786D01*
X118483571Y-67546786D01*
X118410714Y-67472500D01*
X118410714Y-67199643D01*
X118466429Y-67199643D01*
X118466429Y-67448929D01*
X118510000Y-67492500D01*
X118790000Y-67492500D01*
X118833571Y-67448929D01*
X118833571Y-67199643D01*
X118790000Y-67156071D01*
X118510000Y-67156071D01*
X118466429Y-67199643D01*
X118410714Y-67199643D01*
X118410714Y-67173929D01*
X118482857Y-67101071D01*
X118816429Y-67101071D01*
X118889286Y-67173929D01*
X118889286Y-67448929D01*
X118889286Y-67469643D01*
G37*
G36*
X118890714Y-64131786D02*
G01*
X118814286Y-64208214D01*
X118477143Y-64208214D01*
X118408571Y-64138929D01*
X118408571Y-63918929D01*
X118465714Y-63918929D01*
X118465714Y-64111071D01*
X118510000Y-64154643D01*
X118790000Y-64154643D01*
X118833571Y-64111071D01*
X118833571Y-63905357D01*
X118790000Y-63861786D01*
X118523571Y-63861786D01*
X118465714Y-63918929D01*
X118408571Y-63918929D01*
X118408571Y-63902500D01*
X118504286Y-63806071D01*
X118814286Y-63806071D01*
X118890714Y-63882500D01*
X118890714Y-63905357D01*
X118890714Y-64131786D01*
G37*
G36*
X119035714Y-67547500D02*
G01*
X118888571Y-67694643D01*
X118411429Y-67694643D01*
X118264286Y-67547500D01*
X118264286Y-67128929D01*
X118318571Y-67128929D01*
X118318571Y-67517500D01*
X118439286Y-67638214D01*
X118857143Y-67638214D01*
X118980714Y-67514643D01*
X118980714Y-67128929D01*
X118860714Y-67008929D01*
X118438571Y-67008929D01*
X118318571Y-67128929D01*
X118264286Y-67128929D01*
X118264286Y-67101071D01*
X118411429Y-66953929D01*
X118888571Y-66953929D01*
X119035714Y-67101071D01*
X119035714Y-67514643D01*
X119035714Y-67547500D01*
G37*
G36*
X119035714Y-60671786D02*
G01*
X118833571Y-60671786D01*
X118833571Y-60481071D01*
X118466429Y-60481071D01*
X118466429Y-60671786D01*
X118264286Y-60671786D01*
X118264286Y-60338214D01*
X118317857Y-60338214D01*
X118317857Y-60616786D01*
X118410000Y-60616786D01*
X118410000Y-60429643D01*
X118889286Y-60429643D01*
X118889286Y-60616786D01*
X118980714Y-60616786D01*
X118980714Y-60143214D01*
X118889286Y-60143214D01*
X118889286Y-60338214D01*
X118317857Y-60338214D01*
X118264286Y-60338214D01*
X118264286Y-60279643D01*
X118833571Y-60279643D01*
X118833571Y-60088929D01*
X119035714Y-60088929D01*
X119035714Y-60616786D01*
X119035714Y-60671786D01*
G37*
G36*
X119035714Y-64208929D02*
G01*
X118888571Y-64356786D01*
X118411429Y-64356786D01*
X118264286Y-64208929D01*
X118264286Y-63876071D01*
X118277857Y-63861786D01*
X117964286Y-63861786D01*
X117964286Y-63713929D01*
X118017857Y-63713929D01*
X118017857Y-63806071D01*
X118395714Y-63806071D01*
X118316429Y-63885357D01*
X118316429Y-64183214D01*
X118432857Y-64300357D01*
X118858571Y-64300357D01*
X118982143Y-64176071D01*
X118982143Y-63838214D01*
X118858571Y-63713929D01*
X118017857Y-63713929D01*
X117964286Y-63713929D01*
X117964286Y-63659643D01*
X118888571Y-63659643D01*
X119035714Y-63807500D01*
X119035714Y-63838214D01*
X119035714Y-64208929D01*
G37*
G36*
X119035714Y-70051071D02*
G01*
X118833571Y-70051071D01*
X118833571Y-69861071D01*
X118272143Y-69861071D01*
X118325714Y-70051071D01*
X118103571Y-70051071D01*
X118035714Y-69793929D01*
X118035714Y-69713929D01*
X118090714Y-69713929D01*
X118090714Y-69780357D01*
X118150000Y-69996071D01*
X118251429Y-69996071D01*
X118195714Y-69805357D01*
X118890714Y-69805357D01*
X118890714Y-69991071D01*
X118982143Y-69991071D01*
X118982143Y-69527500D01*
X118890714Y-69527500D01*
X118890714Y-69713929D01*
X118090714Y-69713929D01*
X118035714Y-69713929D01*
X118035714Y-69659643D01*
X118833571Y-69659643D01*
X118833571Y-69466786D01*
X119035714Y-69466786D01*
X119035714Y-69991071D01*
X119035714Y-70051071D01*
G37*
G36*
X119035714Y-63344643D02*
G01*
X118888571Y-63491786D01*
X118411429Y-63491786D01*
X118264286Y-63344643D01*
X118264286Y-62929643D01*
X118319286Y-62929643D01*
X118319286Y-63317500D01*
X118442857Y-63441071D01*
X118860714Y-63441071D01*
X118981429Y-63320357D01*
X118981429Y-62822500D01*
X118890000Y-62822500D01*
X118890000Y-63275357D01*
X118816429Y-63348929D01*
X118709286Y-63348929D01*
X118709286Y-62926071D01*
X118593571Y-62809643D01*
X118439286Y-62809643D01*
X118319286Y-62929643D01*
X118264286Y-62929643D01*
X118264286Y-62901071D01*
X118411429Y-62753929D01*
X118615000Y-62753929D01*
X118762143Y-62901071D01*
X118762143Y-63289643D01*
X118790000Y-63289643D01*
X118833571Y-63246071D01*
X118833571Y-62763929D01*
X119035714Y-62763929D01*
X119035714Y-63320357D01*
X119035714Y-63344643D01*
G37*
G36*
X119035714Y-70773929D02*
G01*
X118888571Y-70921071D01*
X118411429Y-70921071D01*
X118264286Y-70773929D01*
X118264286Y-70358929D01*
X118319286Y-70358929D01*
X118319286Y-70746786D01*
X118442857Y-70870357D01*
X118860714Y-70870357D01*
X118981429Y-70749643D01*
X118981429Y-70251786D01*
X118890000Y-70251786D01*
X118890000Y-70704643D01*
X118816429Y-70778214D01*
X118709286Y-70778214D01*
X118709286Y-70355357D01*
X118593571Y-70238929D01*
X118439286Y-70238929D01*
X118319286Y-70358929D01*
X118264286Y-70358929D01*
X118264286Y-70330357D01*
X118411429Y-70183214D01*
X118615000Y-70183214D01*
X118762143Y-70330357D01*
X118762143Y-70718929D01*
X118790000Y-70718929D01*
X118833571Y-70675357D01*
X118833571Y-70193214D01*
X119035714Y-70193214D01*
X119035714Y-70749643D01*
X119035714Y-70773929D01*
G37*
G36*
X119035714Y-65104643D02*
G01*
X118888571Y-65251786D01*
X118685000Y-65251786D01*
X118537857Y-65104643D01*
X118537857Y-64716071D01*
X118510000Y-64716071D01*
X118466429Y-64759643D01*
X118466429Y-65241786D01*
X118264286Y-65241786D01*
X118264286Y-64685357D01*
X118318571Y-64685357D01*
X118318571Y-65183214D01*
X118410000Y-65183214D01*
X118410000Y-64730357D01*
X118483571Y-64656786D01*
X118590714Y-64656786D01*
X118590714Y-65079643D01*
X118706429Y-65196071D01*
X118860714Y-65196071D01*
X118980714Y-65076071D01*
X118980714Y-64688214D01*
X118857143Y-64564643D01*
X118439286Y-64564643D01*
X118318571Y-64685357D01*
X118264286Y-64685357D01*
X118264286Y-64661071D01*
X118411429Y-64513929D01*
X118888571Y-64513929D01*
X119035714Y-64661071D01*
X119035714Y-65076071D01*
X119035714Y-65104643D01*
G37*
G36*
X119035714Y-61525357D02*
G01*
X117965000Y-61525357D01*
X117965000Y-61377500D01*
X118018571Y-61377500D01*
X118018571Y-61468929D01*
X118980714Y-61468929D01*
X118980714Y-61377500D01*
X118502143Y-61377500D01*
X118410000Y-61284643D01*
X118410000Y-61044643D01*
X118478571Y-60975357D01*
X118980714Y-60975357D01*
X118980714Y-60883214D01*
X118434286Y-60883214D01*
X118317857Y-60999643D01*
X118317857Y-61301786D01*
X118392857Y-61377500D01*
X118018571Y-61377500D01*
X117965000Y-61377500D01*
X117965000Y-61323214D01*
X118277857Y-61323214D01*
X118264286Y-61309643D01*
X118264286Y-60976071D01*
X118411429Y-60828929D01*
X119035714Y-60828929D01*
X119035714Y-61031071D01*
X118510000Y-61031071D01*
X118465714Y-61074643D01*
X118465714Y-61266071D01*
X118523571Y-61323214D01*
X119035714Y-61323214D01*
X119035714Y-61468929D01*
X119035714Y-61525357D01*
G37*
G36*
X119035714Y-62072500D02*
G01*
X118465714Y-62072500D01*
X118465714Y-62250357D01*
X118264286Y-62250357D01*
X118264286Y-62072500D01*
X118068571Y-62072500D01*
X118068571Y-61925357D01*
X118122857Y-61925357D01*
X118122857Y-62016786D01*
X118317857Y-62016786D01*
X118317857Y-62196071D01*
X118409286Y-62196071D01*
X118409286Y-62016786D01*
X118980714Y-62016786D01*
X118980714Y-61752500D01*
X118889286Y-61752500D01*
X118889286Y-61925357D01*
X118409286Y-61925357D01*
X118409286Y-61746786D01*
X118317857Y-61746786D01*
X118317857Y-61925357D01*
X118122857Y-61925357D01*
X118068571Y-61925357D01*
X118068571Y-61870357D01*
X118264286Y-61870357D01*
X118264286Y-61693214D01*
X118465714Y-61693214D01*
X118465714Y-61870357D01*
X118833571Y-61870357D01*
X118833571Y-61698214D01*
X119035714Y-61698214D01*
X119035714Y-62016786D01*
X119035714Y-62072500D01*
G37*
G36*
X119035714Y-71723929D02*
G01*
X118035714Y-71723929D01*
X118035714Y-71576786D01*
X118089286Y-71576786D01*
X118089286Y-71668929D01*
X118980000Y-71668929D01*
X118980000Y-71576786D01*
X118696429Y-71576786D01*
X118696429Y-71348929D01*
X118810714Y-71236071D01*
X118980000Y-71236071D01*
X118980000Y-71144643D01*
X118773571Y-71144643D01*
X118650714Y-71263929D01*
X118531429Y-71144643D01*
X118317143Y-71144643D01*
X118317143Y-71236071D01*
X118494286Y-71236071D01*
X118605000Y-71347500D01*
X118605000Y-71576786D01*
X118089286Y-71576786D01*
X118035714Y-71576786D01*
X118035714Y-71521786D01*
X118551429Y-71521786D01*
X118551429Y-71376071D01*
X118466429Y-71291071D01*
X118264286Y-71291071D01*
X118264286Y-71088929D01*
X118551429Y-71088929D01*
X118651429Y-71189643D01*
X118753571Y-71088929D01*
X119035714Y-71088929D01*
X119035714Y-71291071D01*
X118837857Y-71291071D01*
X118753571Y-71376071D01*
X118753571Y-71521786D01*
X119035714Y-71521786D01*
X119035714Y-71668929D01*
X119035714Y-71723929D01*
G37*
G36*
X119035714Y-68514643D02*
G01*
X118834286Y-68514643D01*
X118834286Y-68376071D01*
X118476429Y-68376071D01*
X118465714Y-68386786D01*
X118465714Y-68513214D01*
X118264286Y-68513214D01*
X118264286Y-68332500D01*
X118321429Y-68283929D01*
X118264286Y-68228929D01*
X118264286Y-67972500D01*
X118320714Y-67972500D01*
X118320714Y-68207500D01*
X118395000Y-68280357D01*
X118320714Y-68348214D01*
X118320714Y-68461786D01*
X118412143Y-68461786D01*
X118412143Y-68368929D01*
X118464286Y-68321071D01*
X118889286Y-68321071D01*
X118889286Y-68462500D01*
X118980714Y-68462500D01*
X118980714Y-68086786D01*
X118889286Y-68086786D01*
X118889286Y-68228929D01*
X118478571Y-68228929D01*
X118412143Y-68162500D01*
X118412143Y-68016786D01*
X118493571Y-67942500D01*
X118424286Y-67871786D01*
X118320714Y-67972500D01*
X118264286Y-67972500D01*
X118264286Y-67951071D01*
X118420714Y-67794643D01*
X118572143Y-67950357D01*
X118466429Y-68048929D01*
X118466429Y-68130357D01*
X118510000Y-68173929D01*
X118835000Y-68173929D01*
X118835000Y-68035357D01*
X119035714Y-68035357D01*
X119035714Y-68462500D01*
X119035714Y-68514643D01*
G37*
G36*
X119035714Y-69334643D02*
G01*
X118834286Y-69334643D01*
X118834286Y-69196071D01*
X118476429Y-69196071D01*
X118465714Y-69206786D01*
X118465714Y-69333214D01*
X118264286Y-69333214D01*
X118264286Y-69152500D01*
X118321429Y-69103929D01*
X118264286Y-69048929D01*
X118264286Y-68792500D01*
X118320714Y-68792500D01*
X118320714Y-69027500D01*
X118395000Y-69100357D01*
X118320714Y-69168214D01*
X118320714Y-69281786D01*
X118412143Y-69281786D01*
X118412143Y-69188929D01*
X118464286Y-69141071D01*
X118889286Y-69141071D01*
X118889286Y-69282500D01*
X118980714Y-69282500D01*
X118980714Y-68906786D01*
X118889286Y-68906786D01*
X118889286Y-69048929D01*
X118478571Y-69048929D01*
X118412143Y-68982500D01*
X118412143Y-68836786D01*
X118493571Y-68762500D01*
X118424286Y-68691786D01*
X118320714Y-68792500D01*
X118264286Y-68792500D01*
X118264286Y-68771071D01*
X118420714Y-68614643D01*
X118572143Y-68770357D01*
X118466429Y-68868929D01*
X118466429Y-68950357D01*
X118510000Y-68993929D01*
X118835000Y-68993929D01*
X118835000Y-68855357D01*
X119035714Y-68855357D01*
X119035714Y-69282500D01*
X119035714Y-69334643D01*
G37*
G36*
X119035714Y-59971071D02*
G01*
X118833571Y-59971071D01*
X118833571Y-59521071D01*
X118791770Y-59479270D01*
X118750714Y-59519643D01*
X118750714Y-59831071D01*
X118603571Y-59978214D01*
X118411429Y-59978214D01*
X118264286Y-59831071D01*
X118264286Y-59343929D01*
X118318571Y-59343929D01*
X118318571Y-59805357D01*
X118435714Y-59922500D01*
X118580000Y-59922500D01*
X118693571Y-59808929D01*
X118693571Y-59492500D01*
X118760714Y-59423929D01*
X118818571Y-59423929D01*
X118887143Y-59492500D01*
X118887143Y-59916786D01*
X118979286Y-59916786D01*
X118979286Y-59447500D01*
X118862143Y-59331071D01*
X118717857Y-59331071D01*
X118602143Y-59448214D01*
X118602143Y-59764643D01*
X118537143Y-59829643D01*
X118479286Y-59829643D01*
X118410714Y-59761071D01*
X118410714Y-59343929D01*
X118318571Y-59343929D01*
X118264286Y-59343929D01*
X118264286Y-59290357D01*
X118466429Y-59290357D01*
X118466429Y-59733214D01*
X118507857Y-59774642D01*
X118549286Y-59733214D01*
X118549286Y-59423214D01*
X118696429Y-59276071D01*
X118888571Y-59276071D01*
X119035714Y-59423214D01*
X119035714Y-59916786D01*
X119035714Y-59971071D01*
G37*
G36*
X119035714Y-66403929D02*
G01*
X118411429Y-66403929D01*
X118264286Y-66256786D01*
X118264286Y-65980357D01*
X118337143Y-65906071D01*
X118264286Y-65832500D01*
X118264286Y-65584643D01*
X118317143Y-65584643D01*
X118317143Y-65813929D01*
X118409286Y-65906071D01*
X118317143Y-65998214D01*
X118317143Y-66227500D01*
X118437857Y-66348214D01*
X118980714Y-66348214D01*
X118980714Y-66256786D01*
X118482143Y-66256786D01*
X118409286Y-66182500D01*
X118409286Y-66029643D01*
X118485714Y-65951786D01*
X118941429Y-65951786D01*
X118941429Y-65860357D01*
X118485714Y-65860357D01*
X118409286Y-65782500D01*
X118409286Y-65629643D01*
X118482143Y-65555357D01*
X118980714Y-65555357D01*
X118980714Y-65463929D01*
X118437857Y-65463929D01*
X118317143Y-65584643D01*
X118264286Y-65584643D01*
X118264286Y-65556071D01*
X118411429Y-65408929D01*
X119035714Y-65408929D01*
X119035714Y-65611071D01*
X118510000Y-65611071D01*
X118466429Y-65654643D01*
X118466429Y-65761786D01*
X118510000Y-65805357D01*
X118992857Y-65805357D01*
X118992857Y-66007500D01*
X118510000Y-66007500D01*
X118466429Y-66051071D01*
X118466429Y-66158214D01*
X118510000Y-66201786D01*
X119035714Y-66201786D01*
X119035714Y-66348214D01*
X119035714Y-66403929D01*
G37*
%TD*%
M02*
