%TF.GenerationSoftware,KiCad,Pcbnew,9.0.5*%
%TF.CreationDate,2025-11-19T18:16:15+02:00*%
%TF.ProjectId,interface,696e7465-7266-4616-9365-2e6b69636164,rev?*%
%TF.SameCoordinates,Original*%
%TF.FileFunction,Soldermask,Bot*%
%TF.FilePolarity,Negative*%
%FSLAX46Y46*%
G04 Gerber Fmt 4.6, Leading zero omitted, Abs format (unit mm)*
G04 Created by KiCad (PCBNEW 9.0.5) date 2025-11-19 18:16:15*
%MOMM*%
%LPD*%
G01*
G04 APERTURE LIST*
G04 Aperture macros list*
%AMRoundRect*
0 Rectangle with rounded corners*
0 $1 Rounding radius*
0 $2 $3 $4 $5 $6 $7 $8 $9 X,Y pos of 4 corners*
0 Add a 4 corners polygon primitive as box body*
4,1,4,$2,$3,$4,$5,$6,$7,$8,$9,$2,$3,0*
0 Add four circle primitives for the rounded corners*
1,1,$1+$1,$2,$3*
1,1,$1+$1,$4,$5*
1,1,$1+$1,$6,$7*
1,1,$1+$1,$8,$9*
0 Add four rect primitives between the rounded corners*
20,1,$1+$1,$2,$3,$4,$5,0*
20,1,$1+$1,$4,$5,$6,$7,0*
20,1,$1+$1,$6,$7,$8,$9,0*
20,1,$1+$1,$8,$9,$2,$3,0*%
G04 Aperture macros list end*
%ADD10RoundRect,0.250000X0.550000X-0.950000X0.550000X0.950000X-0.550000X0.950000X-0.550000X-0.950000X0*%
%ADD11O,1.600000X2.400000*%
%ADD12C,1.600000*%
%ADD13R,1.700000X1.700000*%
%ADD14C,1.700000*%
%ADD15RoundRect,0.250000X-0.950000X-0.550000X0.950000X-0.550000X0.950000X0.550000X-0.950000X0.550000X0*%
%ADD16O,2.400000X1.600000*%
%ADD17R,0.700000X3.200000*%
%ADD18R,0.700000X4.300000*%
G04 APERTURE END LIST*
D10*
%TO.C,U2*%
X113085000Y-43660000D03*
D11*
X115625000Y-43660000D03*
X118165000Y-43660000D03*
X120705000Y-43660000D03*
X123245000Y-43660000D03*
X125785000Y-43660000D03*
X128325000Y-43660000D03*
X128325000Y-36040000D03*
X125785000Y-36040000D03*
X123245000Y-36040000D03*
X120705000Y-36040000D03*
X118165000Y-36040000D03*
X115625000Y-36040000D03*
X113085000Y-36040000D03*
%TD*%
D10*
%TO.C,U7*%
X143610000Y-69280000D03*
D11*
X146150000Y-69280000D03*
X148690000Y-69280000D03*
X151230000Y-69280000D03*
X153770000Y-69280000D03*
X156310000Y-69280000D03*
X158850000Y-69280000D03*
X161390000Y-69280000D03*
X161390000Y-61660000D03*
X158850000Y-61660000D03*
X156310000Y-61660000D03*
X153770000Y-61660000D03*
X151230000Y-61660000D03*
X148690000Y-61660000D03*
X146150000Y-61660000D03*
X143610000Y-61660000D03*
%TD*%
D12*
%TO.C,C7*%
X177550000Y-72950000D03*
X177550000Y-67950000D03*
%TD*%
D13*
%TO.C,PAD2*%
X105290000Y-52270000D03*
D14*
X102750000Y-52270000D03*
X105290000Y-54810000D03*
X102750000Y-54810000D03*
X105290000Y-57350000D03*
X102750000Y-57350000D03*
X105290000Y-59890000D03*
X102750000Y-59890000D03*
X105290000Y-62430000D03*
X102750000Y-62430000D03*
X105290000Y-64970000D03*
X102750000Y-64970000D03*
X105290000Y-67510000D03*
X102750000Y-67510000D03*
X105290000Y-70050000D03*
X102750000Y-70050000D03*
X105290000Y-72590000D03*
X102750000Y-72590000D03*
X105290000Y-75130000D03*
X102750000Y-75130000D03*
X105290000Y-77670000D03*
X102750000Y-77670000D03*
X105290000Y-80210000D03*
X102750000Y-80210000D03*
X105290000Y-82750000D03*
X102750000Y-82750000D03*
X105290000Y-85290000D03*
X102750000Y-85290000D03*
X105290000Y-87830000D03*
X102750000Y-87830000D03*
X105290000Y-90370000D03*
X102750000Y-90370000D03*
X105290000Y-92910000D03*
X102750000Y-92910000D03*
X105290000Y-95450000D03*
X102750000Y-95450000D03*
X105290000Y-97990000D03*
X102750000Y-97990000D03*
%TD*%
D15*
%TO.C,U1*%
X169840000Y-76085000D03*
D16*
X169840000Y-78625000D03*
X169840000Y-81165000D03*
X169840000Y-83705000D03*
X169840000Y-86245000D03*
X169840000Y-88785000D03*
X169840000Y-91325000D03*
X177460000Y-91325000D03*
X177460000Y-88785000D03*
X177460000Y-86245000D03*
X177460000Y-83705000D03*
X177460000Y-81165000D03*
X177460000Y-78625000D03*
X177460000Y-76085000D03*
%TD*%
D12*
%TO.C,C3*%
X138650000Y-76200000D03*
X138650000Y-81200000D03*
%TD*%
D10*
%TO.C,U6*%
X143660000Y-99260000D03*
D11*
X146200000Y-99260000D03*
X148740000Y-99260000D03*
X151280000Y-99260000D03*
X153820000Y-99260000D03*
X156360000Y-99260000D03*
X158900000Y-99260000D03*
X161440000Y-99260000D03*
X161440000Y-91640000D03*
X158900000Y-91640000D03*
X156360000Y-91640000D03*
X153820000Y-91640000D03*
X151280000Y-91640000D03*
X148740000Y-91640000D03*
X146200000Y-91640000D03*
X143660000Y-91640000D03*
%TD*%
D15*
%TO.C,U4*%
X116890000Y-53120000D03*
D16*
X116890000Y-55660000D03*
X116890000Y-58200000D03*
X116890000Y-60740000D03*
X116890000Y-63280000D03*
X116890000Y-65820000D03*
X116890000Y-68360000D03*
X116890000Y-70900000D03*
X116890000Y-73440000D03*
X116890000Y-75980000D03*
X124510000Y-75980000D03*
X124510000Y-73440000D03*
X124510000Y-70900000D03*
X124510000Y-68360000D03*
X124510000Y-65820000D03*
X124510000Y-63280000D03*
X124510000Y-60740000D03*
X124510000Y-58200000D03*
X124510000Y-55660000D03*
X124510000Y-53120000D03*
%TD*%
D10*
%TO.C,U8*%
X143610000Y-54240000D03*
D11*
X146150000Y-54240000D03*
X148690000Y-54240000D03*
X151230000Y-54240000D03*
X153770000Y-54240000D03*
X156310000Y-54240000D03*
X158850000Y-54240000D03*
X161390000Y-54240000D03*
X161390000Y-46620000D03*
X158850000Y-46620000D03*
X156310000Y-46620000D03*
X153770000Y-46620000D03*
X151230000Y-46620000D03*
X148690000Y-46620000D03*
X146150000Y-46620000D03*
X143610000Y-46620000D03*
%TD*%
D12*
%TO.C,C6*%
X113700000Y-32600000D03*
X118700000Y-32600000D03*
%TD*%
%TO.C,C8*%
X95800000Y-110800000D03*
X95800000Y-108300000D03*
%TD*%
D10*
%TO.C,U5*%
X143450000Y-84370000D03*
D11*
X145990000Y-84370000D03*
X148530000Y-84370000D03*
X151070000Y-84370000D03*
X153610000Y-84370000D03*
X156150000Y-84370000D03*
X158690000Y-84370000D03*
X161230000Y-84370000D03*
X161230000Y-76750000D03*
X158690000Y-76750000D03*
X156150000Y-76750000D03*
X153610000Y-76750000D03*
X151070000Y-76750000D03*
X148530000Y-76750000D03*
X145990000Y-76750000D03*
X143450000Y-76750000D03*
%TD*%
D12*
%TO.C,C4*%
X138800000Y-61300000D03*
X138800000Y-66300000D03*
%TD*%
%TO.C,C5*%
X138700000Y-46200000D03*
X138700000Y-51200000D03*
%TD*%
%TO.C,C2*%
X139000000Y-91300000D03*
X139000000Y-96300000D03*
%TD*%
%TO.C,C1*%
X128700000Y-52650000D03*
X128700000Y-57650000D03*
%TD*%
D17*
%TO.C,BC1*%
X93650000Y-118050000D03*
D18*
X94650000Y-118600000D03*
X95650000Y-118600000D03*
X96650000Y-118600000D03*
X97650000Y-118600000D03*
X98650000Y-118600000D03*
X99650000Y-118600000D03*
X100650000Y-118600000D03*
X101650000Y-118600000D03*
X102650000Y-118600000D03*
X103650000Y-118600000D03*
X106650000Y-118600000D03*
X107650000Y-118600000D03*
X108650000Y-118600000D03*
X109650000Y-118600000D03*
X110650000Y-118600000D03*
X111650000Y-118600000D03*
X112650000Y-118600000D03*
X113650000Y-118600000D03*
X114650000Y-118600000D03*
X115650000Y-118600000D03*
X116650000Y-118600000D03*
X117650000Y-118600000D03*
X118650000Y-118600000D03*
X119650000Y-118600000D03*
X120650000Y-118600000D03*
X121650000Y-118600000D03*
X122650000Y-118600000D03*
X123650000Y-118600000D03*
X124650000Y-118600000D03*
X125650000Y-118600000D03*
X126650000Y-118600000D03*
X127650000Y-118600000D03*
X128650000Y-118600000D03*
X129650000Y-118600000D03*
X130650000Y-118600000D03*
X131650000Y-118600000D03*
X132650000Y-118600000D03*
X133650000Y-118600000D03*
X134650000Y-118600000D03*
X135650000Y-118600000D03*
X136650000Y-118600000D03*
X137650000Y-118600000D03*
X138650000Y-118600000D03*
X139650000Y-118600000D03*
X140650000Y-118600000D03*
X141650000Y-118600000D03*
X142650000Y-118600000D03*
X143650000Y-118600000D03*
X144650000Y-118600000D03*
X145650000Y-118600000D03*
X146650000Y-118600000D03*
X147650000Y-118600000D03*
X148650000Y-118600000D03*
X149650000Y-118600000D03*
X150650000Y-118600000D03*
X151650000Y-118600000D03*
X152650000Y-118600000D03*
X153650000Y-118600000D03*
X154650000Y-118600000D03*
X155650000Y-118600000D03*
X156650000Y-118600000D03*
X157650000Y-118600000D03*
X158650000Y-118600000D03*
X159650000Y-118600000D03*
X160650000Y-118600000D03*
X161650000Y-118600000D03*
X162650000Y-118600000D03*
X163650000Y-118600000D03*
X164650000Y-118600000D03*
X165650000Y-118600000D03*
X166650000Y-118600000D03*
X167650000Y-118600000D03*
X168650000Y-118600000D03*
X169650000Y-118600000D03*
X170650000Y-118600000D03*
X171650000Y-118600000D03*
X172650000Y-118600000D03*
X173650000Y-118600000D03*
X174650000Y-118600000D03*
X175650000Y-118600000D03*
X176650000Y-118600000D03*
%TD*%
M02*
