M48
; DRILL file {KiCad 9.0.5} date 2025-11-19T18:16:16+0200
; FORMAT={-:-/ absolute / metric / decimal}
; #@! TF.CreationDate,2025-11-19T18:16:16+02:00
; #@! TF.GenerationSoftware,Kicad,Pcbnew,9.0.5
; #@! TF.FileFunction,Plated,1,2,PTH
FMAT,2
METRIC
; #@! TA.AperFunction,Plated,PTH,ViaDrill
T1C0.300
; #@! TA.AperFunction,Plated,PTH,ViaDrill
T2C0.400
; #@! TA.AperFunction,Plated,PTH,ComponentDrill
T3C0.800
; #@! TA.AperFunction,Plated,PTH,ComponentDrill
T4C1.000
%
G90
G05
T1
X88.0Y-77.6
X89.2Y-77.6
X90.2Y-77.6
X91.0Y-77.6
X91.4Y-33.4
X92.0Y-77.6
X92.4Y-34.4
X92.8Y-77.6
X93.4Y-35.2
X93.8Y-115.1
X93.849Y-57.8
X93.849Y-67.4
X94.4Y-36.0
X94.4Y-77.85
X94.4Y-91.73
X94.7Y-115.1
X95.2Y-85.0
X95.2Y-86.8
X95.2Y-88.2
X95.2Y-89.8
X95.2Y-91.2
X95.5Y-115.1
X95.6Y-37.0
X95.8Y-112.65
X95.8Y-113.85
X96.2Y-84.0
X96.5Y-115.1
X96.8Y-37.8
X97.6Y-50.2
X97.6Y-72.4
X97.6Y-115.2
X98.1Y-38.7
X98.6Y-39.4
X98.776Y-72.176
X98.8Y-50.2
X99.3Y-40.1
X99.4Y-25.4
X99.8Y-47.0
X99.85Y-40.85
X100.1Y-96.1
X100.4Y-41.6
X100.6Y-26.2
X100.9Y-42.3
X101.8Y-26.8
X102.8Y-27.6
X104.0Y-28.4
X104.692Y-101.56
X105.6Y-29.0
X106.566Y-103.434
X107.0Y-29.8
X107.5Y-30.5
X108.1Y-31.3
X108.6Y-71.4
X108.85Y-31.85
X109.237Y-88.4
X109.237Y-97.4
X109.25Y-103.0
X109.25Y-112.4
X109.4Y-32.6
X110.0Y-33.2
X110.6Y-80.21
X110.957Y-40.707
X112.6Y-76.2
X113.832Y-37.832
X114.25Y-81.55
X114.6Y-55.0
X114.841Y-80.959
X118.2Y-94.4
X118.2Y-95.4
X118.2Y-96.4
X118.95Y-86.25
X119.521Y-85.638
X119.6Y-82.552
X119.6Y-83.6
X119.6Y-84.6
X123.6Y-82.552
X123.6Y-83.6
X123.6Y-84.6
X124.65Y-100.8
X124.65Y-111.4
X125.65Y-94.6
X125.65Y-100.8
X126.435Y-53.735
X126.6Y-78.8
X126.6Y-100.6
X126.6Y-109.2
X127.224Y-48.4
X127.875Y-81.075
X128.541Y-94.659
X129.012Y-83.412
X130.0Y-84.6
X130.6Y-35.0
X130.6Y-46.0
X130.6Y-48.0
X130.6Y-52.8
X130.6Y-63.8
X130.6Y-66.2
X130.974Y-79.6
X131.0Y-75.8
X131.4Y-47.0
X131.575Y-77.375
X133.2Y-55.949
X133.6Y-56.8
X134.03Y-63.83
X134.2Y-57.8
X134.2Y-83.4
X134.8Y-59.151
X134.8Y-60.0
X135.2Y-98.2
X135.2Y-99.2
X135.2Y-100.4
X136.05Y-74.45
X136.11Y-87.6
X136.11Y-91.4
X136.2Y-73.6
X136.83Y-61.03
X137.6Y-100.4
X138.8Y-98.2
X139.0Y-99.2
X140.65Y-108.0
X141.0Y-75.45
X141.025Y-78.125
X141.25Y-51.635
X141.25Y-54.24
X141.25Y-58.25
X141.25Y-59.5
X142.1Y-72.6
X142.2Y-67.0
X142.625Y-49.125
X144.8Y-80.8
X145.05Y-73.0
X145.5Y-94.75
X146.4Y-96.2
X146.6Y-72.0
X146.6Y-73.6
X147.2Y-74.35
X147.301Y-110.65
X147.75Y-79.75
X149.841Y-113.7
X150.35Y-115.18
X150.5Y-95.25
X151.125Y-96.125
X152.83Y-110.59
X152.851Y-82.201
X153.0Y-49.0
X153.6Y-36.4
X153.75Y-57.75
X153.8Y-50.2
X154.0Y-59.0
X154.2Y-40.2
X154.6Y-31.4
X156.0Y-40.0
X156.0Y-50.6
X156.15Y-80.55
X156.4Y-102.2
X156.6Y-37.0
X156.75Y-104.0
X157.0Y-58.2
X157.6Y-31.4
X158.0Y-115.39
X158.2Y-86.6
X158.4Y-102.8
X159.65Y-115.35
X160.2Y-58.4
X160.6Y-66.6
X160.8Y-72.2
X160.8Y-73.6
X161.0Y-107.75
X161.2Y-88.4
X161.3Y-87.0
X162.2Y-66.6
X162.4Y-72.2
X162.8Y-73.6
X163.1Y-88.5
X163.3Y-91.3
X163.34Y-89.74
X163.4Y-85.8
X163.6Y-58.8
X163.6Y-63.4
X163.6Y-77.0
X164.2Y-81.4
X164.8Y-60.4
X164.8Y-64.4
X164.8Y-79.6
X164.9Y-115.39
X165.2Y-82.4
X165.375Y-112.875
X165.4Y-94.0
X165.838Y-77.162
X166.0Y-84.4
X166.653Y-115.597
X166.7Y-95.3
X166.75Y-80.25
X166.8Y-38.6
X167.4Y-64.0
X167.8Y-29.8
X168.0Y-71.2
X168.225Y-95.025
X169.6Y-29.4
X170.6Y-105.0
X171.0Y-29.0
X171.288Y-105.888
X172.4Y-28.4
X173.4Y-28.0
X173.4Y-73.4
X174.4Y-27.4
X174.6Y-101.0
X174.75Y-64.5
X174.75Y-72.25
X175.288Y-101.888
X175.75Y-64.4
X175.75Y-72.25
X176.0Y-97.0
X176.0Y-98.0
X176.4Y-31.0
X178.4Y-61.75
X179.25Y-80.45
X180.2Y-34.8
T2
X107.46Y-114.23
X117.65Y-114.12
X126.65Y-114.16
X135.65Y-114.26
X144.65Y-114.06
X153.64Y-114.0
X159.57Y-113.87
X169.32Y-114.627
T3
X95.8Y-108.3
X95.8Y-110.8
X113.085Y-36.04
X113.085Y-43.66
X113.7Y-32.6
X115.625Y-36.04
X115.625Y-43.66
X116.89Y-53.12
X116.89Y-55.66
X116.89Y-58.2
X116.89Y-60.74
X116.89Y-63.28
X116.89Y-65.82
X116.89Y-68.36
X116.89Y-70.9
X116.89Y-73.44
X116.89Y-75.98
X118.165Y-36.04
X118.165Y-43.66
X118.7Y-32.6
X120.705Y-36.04
X120.705Y-43.66
X123.245Y-36.04
X123.245Y-43.66
X124.51Y-53.12
X124.51Y-55.66
X124.51Y-58.2
X124.51Y-60.74
X124.51Y-63.28
X124.51Y-65.82
X124.51Y-68.36
X124.51Y-70.9
X124.51Y-73.44
X124.51Y-75.98
X125.785Y-36.04
X125.785Y-43.66
X128.325Y-36.04
X128.325Y-43.66
X128.7Y-52.65
X128.7Y-57.65
X138.65Y-76.2
X138.65Y-81.2
X138.7Y-46.2
X138.7Y-51.2
X138.8Y-61.3
X138.8Y-66.3
X139.0Y-91.3
X139.0Y-96.3
X143.45Y-76.75
X143.45Y-84.37
X143.61Y-46.62
X143.61Y-54.24
X143.61Y-61.66
X143.61Y-69.28
X143.66Y-91.64
X143.66Y-99.26
X145.99Y-76.75
X145.99Y-84.37
X146.15Y-46.62
X146.15Y-54.24
X146.15Y-61.66
X146.15Y-69.28
X146.2Y-91.64
X146.2Y-99.26
X148.53Y-76.75
X148.53Y-84.37
X148.69Y-46.62
X148.69Y-54.24
X148.69Y-61.66
X148.69Y-69.28
X148.74Y-91.64
X148.74Y-99.26
X151.07Y-76.75
X151.07Y-84.37
X151.23Y-46.62
X151.23Y-54.24
X151.23Y-61.66
X151.23Y-69.28
X151.28Y-91.64
X151.28Y-99.26
X153.61Y-76.75
X153.61Y-84.37
X153.77Y-46.62
X153.77Y-54.24
X153.77Y-61.66
X153.77Y-69.28
X153.82Y-91.64
X153.82Y-99.26
X156.15Y-76.75
X156.15Y-84.37
X156.31Y-46.62
X156.31Y-54.24
X156.31Y-61.66
X156.31Y-69.28
X156.36Y-91.64
X156.36Y-99.26
X158.69Y-76.75
X158.69Y-84.37
X158.85Y-46.62
X158.85Y-54.24
X158.85Y-61.66
X158.85Y-69.28
X158.9Y-91.64
X158.9Y-99.26
X161.23Y-76.75
X161.23Y-84.37
X161.39Y-46.62
X161.39Y-54.24
X161.39Y-61.66
X161.39Y-69.28
X161.44Y-91.64
X161.44Y-99.26
X169.84Y-76.085
X169.84Y-78.625
X169.84Y-81.165
X169.84Y-83.705
X169.84Y-86.245
X169.84Y-88.785
X169.84Y-91.325
X177.46Y-76.085
X177.46Y-78.625
X177.46Y-81.165
X177.46Y-83.705
X177.46Y-86.245
X177.46Y-88.785
X177.46Y-91.325
X177.55Y-67.95
X177.55Y-72.95
T4
X102.75Y-52.27
X102.75Y-54.81
X102.75Y-57.35
X102.75Y-59.89
X102.75Y-62.43
X102.75Y-64.97
X102.75Y-67.51
X102.75Y-70.05
X102.75Y-72.59
X102.75Y-75.13
X102.75Y-77.67
X102.75Y-80.21
X102.75Y-82.75
X102.75Y-85.29
X102.75Y-87.83
X102.75Y-90.37
X102.75Y-92.91
X102.75Y-95.45
X102.75Y-97.99
X105.29Y-52.27
X105.29Y-54.81
X105.29Y-57.35
X105.29Y-59.89
X105.29Y-62.43
X105.29Y-64.97
X105.29Y-67.51
X105.29Y-70.05
X105.29Y-72.59
X105.29Y-75.13
X105.29Y-77.67
X105.29Y-80.21
X105.29Y-82.75
X105.29Y-85.29
X105.29Y-87.83
X105.29Y-90.37
X105.29Y-92.91
X105.29Y-95.45
X105.29Y-97.99
M30
