%TF.GenerationSoftware,KiCad,Pcbnew,9.0.5*%
%TF.CreationDate,2025-11-19T18:17:22+02:00*%
%TF.ProjectId,pc,70632e6b-6963-4616-945f-706362585858,rev?*%
%TF.SameCoordinates,Original*%
%TF.FileFunction,Legend,Top*%
%TF.FilePolarity,Positive*%
%FSLAX46Y46*%
G04 Gerber Fmt 4.6, Leading zero omitted, Abs format (unit mm)*
G04 Created by KiCad (PCBNEW 9.0.5) date 2025-11-19 18:17:22*
%MOMM*%
%LPD*%
G01*
G04 APERTURE LIST*
%ADD10C,0.000000*%
%ADD11C,0.052916*%
%ADD12C,0.150000*%
%ADD13C,0.120000*%
G04 APERTURE END LIST*
D10*
G36*
X195116249Y-41544167D02*
G01*
X192840832Y-42099791D01*
X190671249Y-40776875D01*
X190697707Y-40618125D01*
X192920207Y-41861667D01*
X194366155Y-41512416D01*
X193987269Y-41374156D01*
X193629487Y-41249368D01*
X193293271Y-41137426D01*
X192979081Y-41037700D01*
X192687378Y-40949563D01*
X192418623Y-40872386D01*
X192173276Y-40805541D01*
X191951799Y-40748399D01*
X191754652Y-40700333D01*
X191582296Y-40660714D01*
X191313802Y-40604304D01*
X191094582Y-40565208D01*
X192047082Y-40459375D01*
X195116249Y-41544167D01*
G37*
D11*
X188448749Y-48000000D02*
X188104791Y-48000000D01*
X188025416Y-47735417D01*
X187496249Y-47735417D01*
X187416874Y-48000000D01*
X187079530Y-47997090D01*
X187575624Y-46597709D01*
X187946041Y-46597709D01*
X188448749Y-48000000D01*
X187946041Y-47470833D02*
X187575624Y-47470833D01*
X187760832Y-46915208D01*
X187946041Y-47470833D01*
X194353985Y-47727479D02*
X194987397Y-47730919D01*
X194983957Y-48000000D01*
X194031457Y-48000000D01*
X194031457Y-46597709D01*
X194348957Y-46597709D01*
X194353985Y-47727479D01*
X193819790Y-46597709D02*
X193819790Y-46888750D01*
X193158333Y-46888750D01*
X193158333Y-47179792D01*
X193713957Y-47179792D01*
X193713957Y-47444375D01*
X193158333Y-47444375D01*
X193158333Y-48000000D01*
X192840832Y-48000000D01*
X192849034Y-46594269D01*
X193819790Y-46597709D01*
D10*
G36*
X190512499Y-41147291D02*
G01*
X190207169Y-45819040D01*
X189930416Y-41120833D01*
X189903957Y-40988542D01*
X190142082Y-41464792D01*
X190220399Y-44327319D01*
X190274374Y-41464792D01*
X190538957Y-40988542D01*
X190512499Y-41147291D01*
G37*
G36*
X194163749Y-39559792D02*
G01*
X191491457Y-40062500D01*
X194878124Y-38871875D01*
X194163749Y-39559792D01*
G37*
D11*
X186556076Y-46887860D02*
X186560562Y-46888262D01*
X186562931Y-46888642D01*
X186565358Y-46889165D01*
X186567823Y-46889846D01*
X186570307Y-46890702D01*
X186572790Y-46891749D01*
X186575252Y-46893004D01*
X186577675Y-46894484D01*
X186580039Y-46896205D01*
X186582324Y-46898183D01*
X186584510Y-46900435D01*
X186586578Y-46902978D01*
X186588509Y-46905828D01*
X186590283Y-46909002D01*
X186591881Y-46912516D01*
X186593282Y-46916386D01*
X186594468Y-46920630D01*
X186595419Y-46925263D01*
X186596115Y-46930303D01*
X186596537Y-46935765D01*
X186596666Y-46941667D01*
X186596666Y-47179792D01*
X186596302Y-47182022D01*
X186595773Y-47184584D01*
X186594946Y-47187911D01*
X186593772Y-47191852D01*
X186592201Y-47196256D01*
X186590184Y-47200973D01*
X186588992Y-47203402D01*
X186587670Y-47205853D01*
X186586212Y-47208307D01*
X186584611Y-47210746D01*
X186582861Y-47213150D01*
X186580956Y-47215500D01*
X186578890Y-47217779D01*
X186576657Y-47219966D01*
X186574250Y-47222044D01*
X186571663Y-47223994D01*
X186568890Y-47225796D01*
X186565925Y-47227432D01*
X186562761Y-47228883D01*
X186559393Y-47230131D01*
X186555814Y-47231156D01*
X186552017Y-47231940D01*
X186547998Y-47232464D01*
X186543749Y-47232708D01*
X186067499Y-47232708D01*
X186067499Y-46888750D01*
X186543749Y-46888750D01*
X186546034Y-46888344D01*
X186548655Y-46888033D01*
X186552055Y-46887828D01*
X186556076Y-46887860D01*
X195433748Y-47153333D02*
X195724791Y-46597709D01*
X196095207Y-46597709D01*
X195566041Y-47497291D01*
X195566041Y-48000000D01*
X195274999Y-48000000D01*
X195271294Y-47501789D01*
X194745832Y-46597709D01*
X195116249Y-46597709D01*
X195433748Y-47153333D01*
X190815916Y-46598744D02*
X190830127Y-46600602D01*
X190848569Y-46603856D01*
X190870403Y-46608882D01*
X190894791Y-46616056D01*
X190920893Y-46625755D01*
X190934325Y-46631669D01*
X190947871Y-46638355D01*
X190961426Y-46645861D01*
X190974886Y-46654232D01*
X190988145Y-46663518D01*
X191001100Y-46673763D01*
X191013644Y-46685017D01*
X191025673Y-46697324D01*
X191037083Y-46710734D01*
X191047768Y-46725291D01*
X191057623Y-46741045D01*
X191066544Y-46758041D01*
X191074427Y-46776327D01*
X191081165Y-46795950D01*
X191086654Y-46816957D01*
X191090790Y-46839394D01*
X191093468Y-46863310D01*
X191094582Y-46888750D01*
X191101462Y-47733300D01*
X191099871Y-47744463D01*
X191097377Y-47757276D01*
X191093301Y-47773893D01*
X191087305Y-47793553D01*
X191079054Y-47815495D01*
X191068208Y-47838957D01*
X191061708Y-47851020D01*
X191054432Y-47863177D01*
X191046339Y-47875334D01*
X191037388Y-47887394D01*
X191027535Y-47899264D01*
X191016738Y-47910847D01*
X191004956Y-47922048D01*
X190992146Y-47932773D01*
X190978267Y-47942926D01*
X190963275Y-47952412D01*
X190947129Y-47961135D01*
X190929787Y-47969001D01*
X190911206Y-47975914D01*
X190891345Y-47981779D01*
X190870160Y-47986501D01*
X190847611Y-47989984D01*
X190823655Y-47992134D01*
X190798250Y-47992856D01*
X190268024Y-47993385D01*
X190255178Y-47991808D01*
X190240421Y-47989346D01*
X190221263Y-47985332D01*
X190198573Y-47979439D01*
X190173216Y-47971340D01*
X190146060Y-47960708D01*
X190132079Y-47954340D01*
X190117972Y-47947216D01*
X190103850Y-47939295D01*
X190089819Y-47930536D01*
X190075989Y-47920898D01*
X190062468Y-47910341D01*
X190049364Y-47898824D01*
X190036786Y-47886305D01*
X190024842Y-47872745D01*
X190013640Y-47858101D01*
X190003288Y-47842333D01*
X189993896Y-47825400D01*
X189985572Y-47807262D01*
X189978423Y-47787876D01*
X189972558Y-47767204D01*
X189968086Y-47745203D01*
X189965115Y-47721832D01*
X189963754Y-47697052D01*
X189958884Y-47385687D01*
X189956940Y-47128396D01*
X189956874Y-46888750D01*
X189958696Y-46877221D01*
X189961545Y-46863932D01*
X189966192Y-46846624D01*
X189973020Y-46826044D01*
X189982407Y-46802942D01*
X189988180Y-46790678D01*
X189994736Y-46778064D01*
X190002122Y-46765193D01*
X190010386Y-46752159D01*
X190019576Y-46739055D01*
X190029738Y-46725975D01*
X190040922Y-46713013D01*
X190053173Y-46700261D01*
X190066541Y-46687813D01*
X190081071Y-46675763D01*
X190096813Y-46664204D01*
X190113813Y-46653230D01*
X190132120Y-46642934D01*
X190151780Y-46633410D01*
X190172841Y-46624751D01*
X190195352Y-46617051D01*
X190219358Y-46610403D01*
X190244909Y-46604901D01*
X190272051Y-46600639D01*
X190300832Y-46597709D01*
X190803541Y-46597709D01*
X190815916Y-46598744D01*
X185223743Y-46603000D02*
X185265750Y-46614100D01*
X185286118Y-46620692D01*
X185308868Y-46629543D01*
X185333217Y-46641019D01*
X185345747Y-46647856D01*
X185358383Y-46655487D01*
X185371027Y-46663957D01*
X185383583Y-46673313D01*
X185395951Y-46683600D01*
X185408034Y-46694863D01*
X185419735Y-46707149D01*
X185430955Y-46720504D01*
X185441596Y-46734972D01*
X185451562Y-46750601D01*
X185460753Y-46767435D01*
X185469073Y-46785521D01*
X185476423Y-46804905D01*
X185482706Y-46825631D01*
X185487823Y-46847746D01*
X185491677Y-46871296D01*
X185494171Y-46896326D01*
X185495206Y-46922883D01*
X185503937Y-47692026D01*
X185504320Y-47705162D01*
X185503960Y-47720244D01*
X185502486Y-47739812D01*
X185499339Y-47762976D01*
X185493961Y-47788843D01*
X185490260Y-47802512D01*
X185485791Y-47816522D01*
X185480484Y-47830762D01*
X185474271Y-47845121D01*
X185467079Y-47859486D01*
X185458840Y-47873747D01*
X185449484Y-47887792D01*
X185438941Y-47901509D01*
X185427141Y-47914788D01*
X185414013Y-47927516D01*
X185399489Y-47939582D01*
X185383498Y-47950875D01*
X185365970Y-47961283D01*
X185346836Y-47970695D01*
X185326024Y-47978999D01*
X185303467Y-47986084D01*
X185279093Y-47991838D01*
X185252833Y-47996150D01*
X185224617Y-47998908D01*
X185194374Y-48000001D01*
X184659155Y-48000894D01*
X184374166Y-48000001D01*
X184374166Y-47708958D01*
X184374166Y-46888750D01*
X184665208Y-46888750D01*
X184665208Y-47708958D01*
X184873236Y-47709950D01*
X185025744Y-47710074D01*
X185114999Y-47708958D01*
X185119184Y-47708498D01*
X185123303Y-47707631D01*
X185127351Y-47706385D01*
X185131324Y-47704788D01*
X185135217Y-47702867D01*
X185139027Y-47700651D01*
X185142748Y-47698166D01*
X185146377Y-47695440D01*
X185149909Y-47692501D01*
X185153340Y-47689376D01*
X185156665Y-47686094D01*
X185159880Y-47682681D01*
X185165963Y-47675575D01*
X185171554Y-47668279D01*
X185176618Y-47661014D01*
X185181119Y-47654001D01*
X185185024Y-47647460D01*
X185188297Y-47641614D01*
X185192808Y-47632886D01*
X185194374Y-47629583D01*
X185195664Y-47303980D01*
X185195825Y-47069803D01*
X185194374Y-46941667D01*
X185193844Y-46937209D01*
X185192916Y-46933006D01*
X185191618Y-46929052D01*
X185189976Y-46925340D01*
X185188018Y-46921860D01*
X185185772Y-46918607D01*
X185183264Y-46915573D01*
X185180521Y-46912749D01*
X185177571Y-46910128D01*
X185174440Y-46907704D01*
X185171157Y-46905468D01*
X185167748Y-46903413D01*
X185164240Y-46901532D01*
X185160661Y-46899816D01*
X185153397Y-46896853D01*
X185146173Y-46894463D01*
X185139207Y-46892587D01*
X185132716Y-46891164D01*
X185126918Y-46890135D01*
X185118269Y-46889016D01*
X185114999Y-46888750D01*
X184665208Y-46888750D01*
X184374166Y-46888750D01*
X184374166Y-46597709D01*
X185223743Y-46603000D01*
D10*
G36*
X187477993Y-41644973D02*
G01*
X186649583Y-41491250D01*
X189110207Y-40697500D01*
X187477993Y-41644973D01*
G37*
D11*
X192575455Y-47997618D02*
X192275683Y-47982537D01*
X191671110Y-47120788D01*
X191664230Y-47996824D01*
X191359166Y-48000000D01*
X191359166Y-46597709D01*
X191665289Y-46598766D01*
X192258749Y-47470833D01*
X192258749Y-46597709D01*
X192576249Y-46597709D01*
X192575455Y-47997618D01*
D10*
G36*
X189321874Y-40565208D02*
G01*
X189102654Y-40604304D01*
X188834160Y-40660714D01*
X188661804Y-40700333D01*
X188464657Y-40748399D01*
X188243180Y-40805541D01*
X187997834Y-40872386D01*
X187729078Y-40949563D01*
X187437375Y-41037700D01*
X187123185Y-41137426D01*
X186786969Y-41249368D01*
X186429188Y-41374156D01*
X186050301Y-41512416D01*
X187496249Y-41861667D01*
X189718749Y-40618125D01*
X189745207Y-40776875D01*
X187575624Y-42099791D01*
X185300208Y-41544167D01*
X188369374Y-40459375D01*
X189321874Y-40565208D01*
G37*
D11*
X189391725Y-46609086D02*
X189407678Y-46610009D01*
X189423287Y-46612320D01*
X189438539Y-46615925D01*
X189453425Y-46620732D01*
X189467934Y-46626648D01*
X189482055Y-46633581D01*
X189495778Y-46641436D01*
X189509092Y-46650121D01*
X189521987Y-46659543D01*
X189534452Y-46669610D01*
X189546476Y-46680227D01*
X189558049Y-46691304D01*
X189569161Y-46702746D01*
X189579800Y-46714460D01*
X189599621Y-46738335D01*
X189617426Y-46762184D01*
X189633131Y-46785266D01*
X189646651Y-46806836D01*
X189657903Y-46826152D01*
X189673263Y-46855044D01*
X189678533Y-46865996D01*
X189692291Y-47021042D01*
X189374791Y-47021042D01*
X189374753Y-47022782D01*
X189374691Y-47021273D01*
X189374791Y-46968125D01*
X189374662Y-46961635D01*
X189374240Y-46955504D01*
X189373544Y-46949723D01*
X189372593Y-46944280D01*
X189371407Y-46939166D01*
X189370006Y-46934371D01*
X189368408Y-46929884D01*
X189366634Y-46925696D01*
X189364703Y-46921798D01*
X189362635Y-46918177D01*
X189360449Y-46914826D01*
X189358164Y-46911733D01*
X189355800Y-46908889D01*
X189353377Y-46906283D01*
X189350915Y-46903906D01*
X189348432Y-46901748D01*
X189345948Y-46899798D01*
X189343483Y-46898046D01*
X189341056Y-46896483D01*
X189338687Y-46895098D01*
X189334200Y-46892824D01*
X189330179Y-46891144D01*
X189326780Y-46889976D01*
X189324159Y-46889242D01*
X189321874Y-46888750D01*
X188924999Y-46888750D01*
X188919121Y-46888925D01*
X188913679Y-46889388D01*
X188908657Y-46890119D01*
X188904038Y-46891100D01*
X188899807Y-46892311D01*
X188895946Y-46893732D01*
X188892440Y-46895345D01*
X188889272Y-46897130D01*
X188886426Y-46899068D01*
X188883885Y-46901141D01*
X188881632Y-46903327D01*
X188879653Y-46905610D01*
X188877930Y-46907968D01*
X188876446Y-46910383D01*
X188875186Y-46912836D01*
X188874133Y-46915308D01*
X188873270Y-46917778D01*
X188872582Y-46920229D01*
X188872052Y-46922641D01*
X188871664Y-46924994D01*
X188871246Y-46929447D01*
X188871198Y-46933436D01*
X188871388Y-46936806D01*
X188871686Y-46939404D01*
X188872082Y-46941667D01*
X188872082Y-47656041D01*
X188872287Y-47660965D01*
X188872930Y-47665574D01*
X188873983Y-47669878D01*
X188875417Y-47673888D01*
X188877202Y-47677614D01*
X188879309Y-47681066D01*
X188881709Y-47684255D01*
X188884373Y-47687192D01*
X188887271Y-47689886D01*
X188890375Y-47692349D01*
X188893654Y-47694590D01*
X188897081Y-47696620D01*
X188900625Y-47698450D01*
X188904257Y-47700090D01*
X188907949Y-47701549D01*
X188911671Y-47702840D01*
X188919087Y-47704954D01*
X188926273Y-47706516D01*
X188932994Y-47707610D01*
X188939018Y-47708317D01*
X188948036Y-47708909D01*
X188951457Y-47708958D01*
X189321874Y-47708958D01*
X189327194Y-47708760D01*
X189332148Y-47708277D01*
X189336750Y-47707528D01*
X189341012Y-47706532D01*
X189344947Y-47705309D01*
X189348569Y-47703878D01*
X189351890Y-47702257D01*
X189354922Y-47700467D01*
X189357680Y-47698524D01*
X189360175Y-47696450D01*
X189362420Y-47694263D01*
X189364430Y-47691982D01*
X189366215Y-47689627D01*
X189367790Y-47687215D01*
X189369167Y-47684767D01*
X189370359Y-47682301D01*
X189371379Y-47679837D01*
X189372240Y-47677394D01*
X189372954Y-47674990D01*
X189373535Y-47672645D01*
X189374348Y-47668208D01*
X189374782Y-47664235D01*
X189374941Y-47660879D01*
X189374926Y-47658293D01*
X189374791Y-47656041D01*
X189374791Y-47446492D01*
X189110207Y-47444375D01*
X189110207Y-47206250D01*
X189674034Y-47205983D01*
X189680715Y-47404487D01*
X189684080Y-47578575D01*
X189684315Y-47662732D01*
X189683030Y-47736738D01*
X189681838Y-47753737D01*
X189679408Y-47770065D01*
X189675825Y-47785730D01*
X189671172Y-47800740D01*
X189665533Y-47815104D01*
X189658991Y-47828831D01*
X189651630Y-47841929D01*
X189643533Y-47854407D01*
X189634784Y-47866275D01*
X189625467Y-47877539D01*
X189615665Y-47888210D01*
X189605463Y-47898296D01*
X189594943Y-47907805D01*
X189584189Y-47916746D01*
X189573285Y-47925128D01*
X189562314Y-47932960D01*
X189540508Y-47947006D01*
X189519438Y-47958955D01*
X189499775Y-47968875D01*
X189482187Y-47976835D01*
X189455911Y-47987157D01*
X189445964Y-47990474D01*
X189264096Y-47993120D01*
X189066118Y-47993153D01*
X188822870Y-47989416D01*
X188800615Y-47988175D01*
X188779613Y-47985605D01*
X188759829Y-47981793D01*
X188741227Y-47976831D01*
X188723772Y-47970808D01*
X188707427Y-47963815D01*
X188692156Y-47955940D01*
X188677924Y-47947273D01*
X188664695Y-47937906D01*
X188652432Y-47927926D01*
X188641100Y-47917425D01*
X188630663Y-47906491D01*
X188621086Y-47895216D01*
X188612331Y-47883688D01*
X188604364Y-47871997D01*
X188597148Y-47860234D01*
X188590647Y-47848488D01*
X188584826Y-47836848D01*
X188575079Y-47814249D01*
X188567620Y-47793156D01*
X188562161Y-47774286D01*
X188558414Y-47758358D01*
X188556094Y-47746092D01*
X188554583Y-47735417D01*
X188554583Y-46888750D01*
X188555969Y-46864347D01*
X188559156Y-46841412D01*
X188564022Y-46819898D01*
X188570445Y-46799762D01*
X188578306Y-46780957D01*
X188587483Y-46763438D01*
X188597855Y-46747159D01*
X188609302Y-46732075D01*
X188621702Y-46718141D01*
X188634935Y-46705311D01*
X188648879Y-46693539D01*
X188663413Y-46682781D01*
X188678418Y-46672990D01*
X188693771Y-46664122D01*
X188709353Y-46656131D01*
X188725041Y-46648971D01*
X188756254Y-46636964D01*
X188786445Y-46627737D01*
X188814645Y-46620927D01*
X188839886Y-46616171D01*
X188861203Y-46613104D01*
X188877627Y-46611364D01*
X188891927Y-46610408D01*
X189078921Y-46608853D01*
X189242863Y-46608287D01*
X189391725Y-46609086D01*
X186660973Y-46598386D02*
X186674045Y-46599854D01*
X186690998Y-46602628D01*
X186711055Y-46607123D01*
X186733438Y-46613754D01*
X186745259Y-46618000D01*
X186757370Y-46622935D01*
X186769673Y-46628611D01*
X186782073Y-46635081D01*
X186794470Y-46642395D01*
X186806769Y-46650606D01*
X186818873Y-46659766D01*
X186830683Y-46669926D01*
X186842102Y-46681138D01*
X186853035Y-46693455D01*
X186863382Y-46706927D01*
X186873048Y-46721608D01*
X186881935Y-46737548D01*
X186889945Y-46754799D01*
X186896982Y-46773413D01*
X186902949Y-46793443D01*
X186907748Y-46814940D01*
X186911282Y-46837955D01*
X186913453Y-46862542D01*
X186914166Y-46888750D01*
X186914166Y-47232708D01*
X186912260Y-47241277D01*
X186909520Y-47251276D01*
X186905269Y-47264450D01*
X186899270Y-47280325D01*
X186891284Y-47298425D01*
X186881071Y-47318276D01*
X186875055Y-47328709D01*
X186868393Y-47339401D01*
X186861055Y-47350294D01*
X186853011Y-47361327D01*
X186844232Y-47372441D01*
X186834688Y-47383577D01*
X186824348Y-47394676D01*
X186813182Y-47405678D01*
X186801162Y-47416523D01*
X186788257Y-47427152D01*
X186774438Y-47437506D01*
X186759674Y-47447526D01*
X186743935Y-47457151D01*
X186727192Y-47466324D01*
X186709416Y-47474983D01*
X186690575Y-47483071D01*
X186670641Y-47490526D01*
X186649583Y-47497291D01*
X186660812Y-47518218D01*
X186692888Y-47572731D01*
X186792028Y-47737665D01*
X186937449Y-47977246D01*
X186613070Y-47983861D01*
X186332083Y-47497291D01*
X186067500Y-47497291D01*
X186067500Y-48000000D01*
X185750000Y-48000000D01*
X185750000Y-46597709D01*
X185776458Y-46597709D01*
X186649583Y-46597709D01*
X186660973Y-46598386D01*
D10*
G36*
X191147499Y-38818958D02*
G01*
X190565416Y-39401042D01*
X190618332Y-39718542D01*
X190221457Y-38818958D01*
X189798124Y-39718542D01*
X189851041Y-39401042D01*
X189268957Y-38818958D01*
X189216041Y-38078125D01*
X189452313Y-38684550D01*
X189505809Y-38756889D01*
X189561088Y-38829853D01*
X189625086Y-38911827D01*
X189690077Y-38991172D01*
X189720529Y-39026221D01*
X189748333Y-39056248D01*
X189772521Y-39079798D01*
X189792127Y-39095416D01*
X189799911Y-39099796D01*
X189806187Y-39101647D01*
X189810835Y-39100787D01*
X189813734Y-39097036D01*
X189821319Y-39081266D01*
X189835529Y-39055861D01*
X189880195Y-38981950D01*
X189940462Y-38886918D01*
X190009063Y-38782380D01*
X190078731Y-38679950D01*
X190142198Y-38591243D01*
X190169335Y-38555666D01*
X190192196Y-38527874D01*
X190209873Y-38509321D01*
X190216484Y-38503963D01*
X190221457Y-38501458D01*
X190226460Y-38502250D01*
X190233152Y-38506505D01*
X190251121Y-38524492D01*
X190274393Y-38553589D01*
X190301998Y-38591966D01*
X190366332Y-38689238D01*
X190436365Y-38801661D01*
X190562497Y-39013390D01*
X190618332Y-39110000D01*
X190962291Y-38713125D01*
X191200416Y-38078125D01*
X191147499Y-38818958D01*
G37*
G36*
X193766874Y-41491250D02*
G01*
X192938463Y-41644973D01*
X191306249Y-40697500D01*
X193766874Y-41491250D01*
G37*
G36*
X190275697Y-40028632D02*
G01*
X190276490Y-40637439D01*
X190213784Y-40835348D01*
X190212991Y-40834024D01*
X190135733Y-40644582D01*
X190142082Y-40036041D01*
X190206641Y-39823845D01*
X190275697Y-40028632D01*
G37*
G36*
X188924999Y-40062500D02*
G01*
X186252708Y-39559792D01*
X185538333Y-38871875D01*
X188924999Y-40062500D01*
G37*
G36*
X194401874Y-39956667D02*
G01*
X190671249Y-40485833D01*
X190671249Y-40327083D01*
X194296040Y-39718542D01*
X194886656Y-39129778D01*
X195287905Y-38721319D01*
X195416717Y-38584090D01*
X195450883Y-38544166D01*
X195458869Y-38532869D01*
X195460207Y-38527917D01*
X194706467Y-38776865D01*
X193070424Y-39341576D01*
X190697707Y-40168333D01*
X190697707Y-39930208D01*
X196280415Y-37972292D01*
X194401874Y-39956667D01*
G37*
D11*
X190753054Y-46888788D02*
X190755545Y-46888963D01*
X190758785Y-46889354D01*
X190762629Y-46890045D01*
X190766934Y-46891122D01*
X190769215Y-46891831D01*
X190771557Y-46892669D01*
X190773943Y-46893644D01*
X190776355Y-46894769D01*
X190778774Y-46896054D01*
X190781183Y-46897509D01*
X190783564Y-46899145D01*
X190785899Y-46900972D01*
X190788170Y-46903001D01*
X190790360Y-46905242D01*
X190792449Y-46907707D01*
X190794421Y-46910405D01*
X190796257Y-46913347D01*
X190797939Y-46916544D01*
X190799450Y-46920006D01*
X190800772Y-46923744D01*
X190801886Y-46927769D01*
X190802775Y-46932091D01*
X190803421Y-46936720D01*
X190803805Y-46941667D01*
X190804727Y-47072259D01*
X190804434Y-47306163D01*
X190803277Y-47629583D01*
X190803738Y-47632962D01*
X190804107Y-47636841D01*
X190804384Y-47641874D01*
X190804433Y-47647833D01*
X190804114Y-47654489D01*
X190803289Y-47661612D01*
X190802644Y-47665277D01*
X190801821Y-47668973D01*
X190800803Y-47672671D01*
X190799572Y-47676344D01*
X190798111Y-47679961D01*
X190796403Y-47683494D01*
X190794431Y-47686916D01*
X190792178Y-47690197D01*
X190789625Y-47693308D01*
X190786757Y-47696221D01*
X190783555Y-47698907D01*
X190780002Y-47701338D01*
X190776082Y-47703485D01*
X190771777Y-47705320D01*
X190767069Y-47706813D01*
X190761942Y-47707936D01*
X190756378Y-47708661D01*
X190750360Y-47708958D01*
X190353485Y-47708958D01*
X190350107Y-47709137D01*
X190341194Y-47709099D01*
X190335235Y-47708729D01*
X190328579Y-47707982D01*
X190321456Y-47706749D01*
X190314095Y-47704923D01*
X190310397Y-47703755D01*
X190306724Y-47702397D01*
X190303107Y-47700837D01*
X190299573Y-47699062D01*
X190296152Y-47697058D01*
X190292871Y-47694811D01*
X190289760Y-47692308D01*
X190286847Y-47689536D01*
X190284161Y-47686481D01*
X190281730Y-47683129D01*
X190279583Y-47679468D01*
X190277749Y-47675483D01*
X190276256Y-47671162D01*
X190275132Y-47666490D01*
X190274408Y-47661454D01*
X190274110Y-47656041D01*
X190274639Y-46968125D01*
X190274221Y-46964801D01*
X190273899Y-46960981D01*
X190273680Y-46956020D01*
X190273696Y-46950142D01*
X190274081Y-46943568D01*
X190274968Y-46936524D01*
X190275642Y-46932895D01*
X190276491Y-46929231D01*
X190277532Y-46925562D01*
X190278783Y-46921914D01*
X190280259Y-46918316D01*
X190281977Y-46914795D01*
X190283954Y-46911380D01*
X190286207Y-46908098D01*
X190288751Y-46904977D01*
X190291605Y-46902046D01*
X190294785Y-46899331D01*
X190298306Y-46896861D01*
X190302187Y-46894665D01*
X190306443Y-46892769D01*
X190311091Y-46891201D01*
X190316148Y-46889990D01*
X190321631Y-46889164D01*
X190327556Y-46888750D01*
X190750889Y-46888750D01*
X190753054Y-46888788D01*
D10*
G36*
X189718749Y-39930208D02*
G01*
X189718749Y-40168333D01*
X187346032Y-39341576D01*
X185709989Y-38776865D01*
X184956249Y-38527917D01*
X184957587Y-38532869D01*
X184965574Y-38544166D01*
X184999739Y-38584090D01*
X185128551Y-38721319D01*
X185529800Y-39129778D01*
X186120416Y-39718542D01*
X189745207Y-40327083D01*
X189745207Y-40485833D01*
X186014583Y-39956667D01*
X184136041Y-37972292D01*
X189718749Y-39930208D01*
G37*
G36*
X190538957Y-39797917D02*
G01*
X190529168Y-40769731D01*
X190194999Y-41358958D01*
X189866386Y-40764440D01*
X189877499Y-39797917D01*
X190209022Y-39206309D01*
X190538957Y-39797917D01*
G37*
D12*
X113333333Y-102335315D02*
X113285714Y-102382935D01*
X113285714Y-102382935D02*
X113142857Y-102430554D01*
X113142857Y-102430554D02*
X113047619Y-102430554D01*
X113047619Y-102430554D02*
X112904762Y-102382935D01*
X112904762Y-102382935D02*
X112809524Y-102287696D01*
X112809524Y-102287696D02*
X112761905Y-102192458D01*
X112761905Y-102192458D02*
X112714286Y-102001982D01*
X112714286Y-102001982D02*
X112714286Y-101859125D01*
X112714286Y-101859125D02*
X112761905Y-101668649D01*
X112761905Y-101668649D02*
X112809524Y-101573411D01*
X112809524Y-101573411D02*
X112904762Y-101478173D01*
X112904762Y-101478173D02*
X113047619Y-101430554D01*
X113047619Y-101430554D02*
X113142857Y-101430554D01*
X113142857Y-101430554D02*
X113285714Y-101478173D01*
X113285714Y-101478173D02*
X113333333Y-101525792D01*
X113666667Y-101430554D02*
X114285714Y-101430554D01*
X114285714Y-101430554D02*
X113952381Y-101811506D01*
X113952381Y-101811506D02*
X114095238Y-101811506D01*
X114095238Y-101811506D02*
X114190476Y-101859125D01*
X114190476Y-101859125D02*
X114238095Y-101906744D01*
X114238095Y-101906744D02*
X114285714Y-102001982D01*
X114285714Y-102001982D02*
X114285714Y-102240077D01*
X114285714Y-102240077D02*
X114238095Y-102335315D01*
X114238095Y-102335315D02*
X114190476Y-102382935D01*
X114190476Y-102382935D02*
X114095238Y-102430554D01*
X114095238Y-102430554D02*
X113809524Y-102430554D01*
X113809524Y-102430554D02*
X113714286Y-102382935D01*
X113714286Y-102382935D02*
X113666667Y-102335315D01*
X153183333Y-102359580D02*
X153135714Y-102407200D01*
X153135714Y-102407200D02*
X152992857Y-102454819D01*
X152992857Y-102454819D02*
X152897619Y-102454819D01*
X152897619Y-102454819D02*
X152754762Y-102407200D01*
X152754762Y-102407200D02*
X152659524Y-102311961D01*
X152659524Y-102311961D02*
X152611905Y-102216723D01*
X152611905Y-102216723D02*
X152564286Y-102026247D01*
X152564286Y-102026247D02*
X152564286Y-101883390D01*
X152564286Y-101883390D02*
X152611905Y-101692914D01*
X152611905Y-101692914D02*
X152659524Y-101597676D01*
X152659524Y-101597676D02*
X152754762Y-101502438D01*
X152754762Y-101502438D02*
X152897619Y-101454819D01*
X152897619Y-101454819D02*
X152992857Y-101454819D01*
X152992857Y-101454819D02*
X153135714Y-101502438D01*
X153135714Y-101502438D02*
X153183333Y-101550057D01*
X153564286Y-101550057D02*
X153611905Y-101502438D01*
X153611905Y-101502438D02*
X153707143Y-101454819D01*
X153707143Y-101454819D02*
X153945238Y-101454819D01*
X153945238Y-101454819D02*
X154040476Y-101502438D01*
X154040476Y-101502438D02*
X154088095Y-101550057D01*
X154088095Y-101550057D02*
X154135714Y-101645295D01*
X154135714Y-101645295D02*
X154135714Y-101740533D01*
X154135714Y-101740533D02*
X154088095Y-101883390D01*
X154088095Y-101883390D02*
X153516667Y-102454819D01*
X153516667Y-102454819D02*
X154135714Y-102454819D01*
X189833333Y-113209580D02*
X189785714Y-113257200D01*
X189785714Y-113257200D02*
X189642857Y-113304819D01*
X189642857Y-113304819D02*
X189547619Y-113304819D01*
X189547619Y-113304819D02*
X189404762Y-113257200D01*
X189404762Y-113257200D02*
X189309524Y-113161961D01*
X189309524Y-113161961D02*
X189261905Y-113066723D01*
X189261905Y-113066723D02*
X189214286Y-112876247D01*
X189214286Y-112876247D02*
X189214286Y-112733390D01*
X189214286Y-112733390D02*
X189261905Y-112542914D01*
X189261905Y-112542914D02*
X189309524Y-112447676D01*
X189309524Y-112447676D02*
X189404762Y-112352438D01*
X189404762Y-112352438D02*
X189547619Y-112304819D01*
X189547619Y-112304819D02*
X189642857Y-112304819D01*
X189642857Y-112304819D02*
X189785714Y-112352438D01*
X189785714Y-112352438D02*
X189833333Y-112400057D01*
X190404762Y-112733390D02*
X190309524Y-112685771D01*
X190309524Y-112685771D02*
X190261905Y-112638152D01*
X190261905Y-112638152D02*
X190214286Y-112542914D01*
X190214286Y-112542914D02*
X190214286Y-112495295D01*
X190214286Y-112495295D02*
X190261905Y-112400057D01*
X190261905Y-112400057D02*
X190309524Y-112352438D01*
X190309524Y-112352438D02*
X190404762Y-112304819D01*
X190404762Y-112304819D02*
X190595238Y-112304819D01*
X190595238Y-112304819D02*
X190690476Y-112352438D01*
X190690476Y-112352438D02*
X190738095Y-112400057D01*
X190738095Y-112400057D02*
X190785714Y-112495295D01*
X190785714Y-112495295D02*
X190785714Y-112542914D01*
X190785714Y-112542914D02*
X190738095Y-112638152D01*
X190738095Y-112638152D02*
X190690476Y-112685771D01*
X190690476Y-112685771D02*
X190595238Y-112733390D01*
X190595238Y-112733390D02*
X190404762Y-112733390D01*
X190404762Y-112733390D02*
X190309524Y-112781009D01*
X190309524Y-112781009D02*
X190261905Y-112828628D01*
X190261905Y-112828628D02*
X190214286Y-112923866D01*
X190214286Y-112923866D02*
X190214286Y-113114342D01*
X190214286Y-113114342D02*
X190261905Y-113209580D01*
X190261905Y-113209580D02*
X190309524Y-113257200D01*
X190309524Y-113257200D02*
X190404762Y-113304819D01*
X190404762Y-113304819D02*
X190595238Y-113304819D01*
X190595238Y-113304819D02*
X190690476Y-113257200D01*
X190690476Y-113257200D02*
X190738095Y-113209580D01*
X190738095Y-113209580D02*
X190785714Y-113114342D01*
X190785714Y-113114342D02*
X190785714Y-112923866D01*
X190785714Y-112923866D02*
X190738095Y-112828628D01*
X190738095Y-112828628D02*
X190690476Y-112781009D01*
X190690476Y-112781009D02*
X190595238Y-112733390D01*
X202845238Y-114954819D02*
X202845238Y-113954819D01*
X202845238Y-113954819D02*
X203226190Y-113954819D01*
X203226190Y-113954819D02*
X203321428Y-114002438D01*
X203321428Y-114002438D02*
X203369047Y-114050057D01*
X203369047Y-114050057D02*
X203416666Y-114145295D01*
X203416666Y-114145295D02*
X203416666Y-114288152D01*
X203416666Y-114288152D02*
X203369047Y-114383390D01*
X203369047Y-114383390D02*
X203321428Y-114431009D01*
X203321428Y-114431009D02*
X203226190Y-114478628D01*
X203226190Y-114478628D02*
X202845238Y-114478628D01*
X203988095Y-114954819D02*
X203892857Y-114907200D01*
X203892857Y-114907200D02*
X203845238Y-114811961D01*
X203845238Y-114811961D02*
X203845238Y-113954819D01*
X204321429Y-114907200D02*
X204416667Y-114954819D01*
X204416667Y-114954819D02*
X204607143Y-114954819D01*
X204607143Y-114954819D02*
X204702381Y-114907200D01*
X204702381Y-114907200D02*
X204750000Y-114811961D01*
X204750000Y-114811961D02*
X204750000Y-114764342D01*
X204750000Y-114764342D02*
X204702381Y-114669104D01*
X204702381Y-114669104D02*
X204607143Y-114621485D01*
X204607143Y-114621485D02*
X204464286Y-114621485D01*
X204464286Y-114621485D02*
X204369048Y-114573866D01*
X204369048Y-114573866D02*
X204321429Y-114478628D01*
X204321429Y-114478628D02*
X204321429Y-114431009D01*
X204321429Y-114431009D02*
X204369048Y-114335771D01*
X204369048Y-114335771D02*
X204464286Y-114288152D01*
X204464286Y-114288152D02*
X204607143Y-114288152D01*
X204607143Y-114288152D02*
X204702381Y-114335771D01*
X205702381Y-114954819D02*
X205130953Y-114954819D01*
X205416667Y-114954819D02*
X205416667Y-113954819D01*
X205416667Y-113954819D02*
X205321429Y-114097676D01*
X205321429Y-114097676D02*
X205226191Y-114192914D01*
X205226191Y-114192914D02*
X205130953Y-114240533D01*
X160642856Y-66256819D02*
X160309523Y-65780628D01*
X160071428Y-66256819D02*
X160071428Y-65256819D01*
X160071428Y-65256819D02*
X160452380Y-65256819D01*
X160452380Y-65256819D02*
X160547618Y-65304438D01*
X160547618Y-65304438D02*
X160595237Y-65352057D01*
X160595237Y-65352057D02*
X160642856Y-65447295D01*
X160642856Y-65447295D02*
X160642856Y-65590152D01*
X160642856Y-65590152D02*
X160595237Y-65685390D01*
X160595237Y-65685390D02*
X160547618Y-65733009D01*
X160547618Y-65733009D02*
X160452380Y-65780628D01*
X160452380Y-65780628D02*
X160071428Y-65780628D01*
X161023809Y-66209200D02*
X161119047Y-66256819D01*
X161119047Y-66256819D02*
X161309523Y-66256819D01*
X161309523Y-66256819D02*
X161404761Y-66209200D01*
X161404761Y-66209200D02*
X161452380Y-66113961D01*
X161452380Y-66113961D02*
X161452380Y-66066342D01*
X161452380Y-66066342D02*
X161404761Y-65971104D01*
X161404761Y-65971104D02*
X161309523Y-65923485D01*
X161309523Y-65923485D02*
X161166666Y-65923485D01*
X161166666Y-65923485D02*
X161071428Y-65875866D01*
X161071428Y-65875866D02*
X161023809Y-65780628D01*
X161023809Y-65780628D02*
X161023809Y-65733009D01*
X161023809Y-65733009D02*
X161071428Y-65637771D01*
X161071428Y-65637771D02*
X161166666Y-65590152D01*
X161166666Y-65590152D02*
X161309523Y-65590152D01*
X161309523Y-65590152D02*
X161404761Y-65637771D01*
X161738095Y-65590152D02*
X162119047Y-65590152D01*
X161880952Y-65256819D02*
X161880952Y-66113961D01*
X161880952Y-66113961D02*
X161928571Y-66209200D01*
X161928571Y-66209200D02*
X162023809Y-66256819D01*
X162023809Y-66256819D02*
X162119047Y-66256819D01*
X162976190Y-66256819D02*
X162404762Y-66256819D01*
X162690476Y-66256819D02*
X162690476Y-65256819D01*
X162690476Y-65256819D02*
X162595238Y-65399676D01*
X162595238Y-65399676D02*
X162500000Y-65494914D01*
X162500000Y-65494914D02*
X162404762Y-65542533D01*
X184642857Y-85506819D02*
X184642857Y-84506819D01*
X185119047Y-84840152D02*
X185119047Y-85506819D01*
X185119047Y-84935390D02*
X185166666Y-84887771D01*
X185166666Y-84887771D02*
X185261904Y-84840152D01*
X185261904Y-84840152D02*
X185404761Y-84840152D01*
X185404761Y-84840152D02*
X185499999Y-84887771D01*
X185499999Y-84887771D02*
X185547618Y-84983009D01*
X185547618Y-84983009D02*
X185547618Y-85506819D01*
X186452380Y-85459200D02*
X186357142Y-85506819D01*
X186357142Y-85506819D02*
X186166666Y-85506819D01*
X186166666Y-85506819D02*
X186071428Y-85459200D01*
X186071428Y-85459200D02*
X186023809Y-85411580D01*
X186023809Y-85411580D02*
X185976190Y-85316342D01*
X185976190Y-85316342D02*
X185976190Y-85030628D01*
X185976190Y-85030628D02*
X186023809Y-84935390D01*
X186023809Y-84935390D02*
X186071428Y-84887771D01*
X186071428Y-84887771D02*
X186166666Y-84840152D01*
X186166666Y-84840152D02*
X186357142Y-84840152D01*
X186357142Y-84840152D02*
X186452380Y-84887771D01*
X187404761Y-85506819D02*
X186833333Y-85506819D01*
X187119047Y-85506819D02*
X187119047Y-84506819D01*
X187119047Y-84506819D02*
X187023809Y-84649676D01*
X187023809Y-84649676D02*
X186928571Y-84744914D01*
X186928571Y-84744914D02*
X186833333Y-84792533D01*
X155178571Y-110204819D02*
X154845238Y-109728628D01*
X154607143Y-110204819D02*
X154607143Y-109204819D01*
X154607143Y-109204819D02*
X154988095Y-109204819D01*
X154988095Y-109204819D02*
X155083333Y-109252438D01*
X155083333Y-109252438D02*
X155130952Y-109300057D01*
X155130952Y-109300057D02*
X155178571Y-109395295D01*
X155178571Y-109395295D02*
X155178571Y-109538152D01*
X155178571Y-109538152D02*
X155130952Y-109633390D01*
X155130952Y-109633390D02*
X155083333Y-109681009D01*
X155083333Y-109681009D02*
X154988095Y-109728628D01*
X154988095Y-109728628D02*
X154607143Y-109728628D01*
X156083333Y-110204819D02*
X155607143Y-110204819D01*
X155607143Y-110204819D02*
X155607143Y-109204819D01*
X154469048Y-108927200D02*
X156078572Y-108927200D01*
X156940476Y-110204819D02*
X156369048Y-110204819D01*
X156654762Y-110204819D02*
X156654762Y-109204819D01*
X156654762Y-109204819D02*
X156559524Y-109347676D01*
X156559524Y-109347676D02*
X156464286Y-109442914D01*
X156464286Y-109442914D02*
X156369048Y-109490533D01*
X158043333Y-88239580D02*
X157995714Y-88287200D01*
X157995714Y-88287200D02*
X157852857Y-88334819D01*
X157852857Y-88334819D02*
X157757619Y-88334819D01*
X157757619Y-88334819D02*
X157614762Y-88287200D01*
X157614762Y-88287200D02*
X157519524Y-88191961D01*
X157519524Y-88191961D02*
X157471905Y-88096723D01*
X157471905Y-88096723D02*
X157424286Y-87906247D01*
X157424286Y-87906247D02*
X157424286Y-87763390D01*
X157424286Y-87763390D02*
X157471905Y-87572914D01*
X157471905Y-87572914D02*
X157519524Y-87477676D01*
X157519524Y-87477676D02*
X157614762Y-87382438D01*
X157614762Y-87382438D02*
X157757619Y-87334819D01*
X157757619Y-87334819D02*
X157852857Y-87334819D01*
X157852857Y-87334819D02*
X157995714Y-87382438D01*
X157995714Y-87382438D02*
X158043333Y-87430057D01*
X158900476Y-87668152D02*
X158900476Y-88334819D01*
X158662381Y-87287200D02*
X158424286Y-88001485D01*
X158424286Y-88001485D02*
X159043333Y-88001485D01*
X194584819Y-84866666D02*
X194108628Y-85199999D01*
X194584819Y-85438094D02*
X193584819Y-85438094D01*
X193584819Y-85438094D02*
X193584819Y-85057142D01*
X193584819Y-85057142D02*
X193632438Y-84961904D01*
X193632438Y-84961904D02*
X193680057Y-84914285D01*
X193680057Y-84914285D02*
X193775295Y-84866666D01*
X193775295Y-84866666D02*
X193918152Y-84866666D01*
X193918152Y-84866666D02*
X194013390Y-84914285D01*
X194013390Y-84914285D02*
X194061009Y-84961904D01*
X194061009Y-84961904D02*
X194108628Y-85057142D01*
X194108628Y-85057142D02*
X194108628Y-85438094D01*
X194584819Y-83914285D02*
X194584819Y-84485713D01*
X194584819Y-84199999D02*
X193584819Y-84199999D01*
X193584819Y-84199999D02*
X193727676Y-84295237D01*
X193727676Y-84295237D02*
X193822914Y-84390475D01*
X193822914Y-84390475D02*
X193870533Y-84485713D01*
X121495238Y-126331009D02*
X121638095Y-126378628D01*
X121638095Y-126378628D02*
X121685714Y-126426247D01*
X121685714Y-126426247D02*
X121733333Y-126521485D01*
X121733333Y-126521485D02*
X121733333Y-126664342D01*
X121733333Y-126664342D02*
X121685714Y-126759580D01*
X121685714Y-126759580D02*
X121638095Y-126807200D01*
X121638095Y-126807200D02*
X121542857Y-126854819D01*
X121542857Y-126854819D02*
X121161905Y-126854819D01*
X121161905Y-126854819D02*
X121161905Y-125854819D01*
X121161905Y-125854819D02*
X121495238Y-125854819D01*
X121495238Y-125854819D02*
X121590476Y-125902438D01*
X121590476Y-125902438D02*
X121638095Y-125950057D01*
X121638095Y-125950057D02*
X121685714Y-126045295D01*
X121685714Y-126045295D02*
X121685714Y-126140533D01*
X121685714Y-126140533D02*
X121638095Y-126235771D01*
X121638095Y-126235771D02*
X121590476Y-126283390D01*
X121590476Y-126283390D02*
X121495238Y-126331009D01*
X121495238Y-126331009D02*
X121161905Y-126331009D01*
X122733333Y-126759580D02*
X122685714Y-126807200D01*
X122685714Y-126807200D02*
X122542857Y-126854819D01*
X122542857Y-126854819D02*
X122447619Y-126854819D01*
X122447619Y-126854819D02*
X122304762Y-126807200D01*
X122304762Y-126807200D02*
X122209524Y-126711961D01*
X122209524Y-126711961D02*
X122161905Y-126616723D01*
X122161905Y-126616723D02*
X122114286Y-126426247D01*
X122114286Y-126426247D02*
X122114286Y-126283390D01*
X122114286Y-126283390D02*
X122161905Y-126092914D01*
X122161905Y-126092914D02*
X122209524Y-125997676D01*
X122209524Y-125997676D02*
X122304762Y-125902438D01*
X122304762Y-125902438D02*
X122447619Y-125854819D01*
X122447619Y-125854819D02*
X122542857Y-125854819D01*
X122542857Y-125854819D02*
X122685714Y-125902438D01*
X122685714Y-125902438D02*
X122733333Y-125950057D01*
X123685714Y-126854819D02*
X123114286Y-126854819D01*
X123400000Y-126854819D02*
X123400000Y-125854819D01*
X123400000Y-125854819D02*
X123304762Y-125997676D01*
X123304762Y-125997676D02*
X123209524Y-126092914D01*
X123209524Y-126092914D02*
X123114286Y-126140533D01*
X185428571Y-93454819D02*
X184952381Y-93454819D01*
X184952381Y-93454819D02*
X184952381Y-92454819D01*
X186238095Y-93454819D02*
X185761905Y-93454819D01*
X185761905Y-93454819D02*
X185761905Y-92454819D01*
X187095238Y-93454819D02*
X186523810Y-93454819D01*
X186809524Y-93454819D02*
X186809524Y-92454819D01*
X186809524Y-92454819D02*
X186714286Y-92597676D01*
X186714286Y-92597676D02*
X186619048Y-92692914D01*
X186619048Y-92692914D02*
X186523810Y-92740533D01*
X161204819Y-95011904D02*
X162014342Y-95011904D01*
X162014342Y-95011904D02*
X162109580Y-94964285D01*
X162109580Y-94964285D02*
X162157200Y-94916666D01*
X162157200Y-94916666D02*
X162204819Y-94821428D01*
X162204819Y-94821428D02*
X162204819Y-94630952D01*
X162204819Y-94630952D02*
X162157200Y-94535714D01*
X162157200Y-94535714D02*
X162109580Y-94488095D01*
X162109580Y-94488095D02*
X162014342Y-94440476D01*
X162014342Y-94440476D02*
X161204819Y-94440476D01*
X161204819Y-93488095D02*
X161204819Y-93964285D01*
X161204819Y-93964285D02*
X161681009Y-94011904D01*
X161681009Y-94011904D02*
X161633390Y-93964285D01*
X161633390Y-93964285D02*
X161585771Y-93869047D01*
X161585771Y-93869047D02*
X161585771Y-93630952D01*
X161585771Y-93630952D02*
X161633390Y-93535714D01*
X161633390Y-93535714D02*
X161681009Y-93488095D01*
X161681009Y-93488095D02*
X161776247Y-93440476D01*
X161776247Y-93440476D02*
X162014342Y-93440476D01*
X162014342Y-93440476D02*
X162109580Y-93488095D01*
X162109580Y-93488095D02*
X162157200Y-93535714D01*
X162157200Y-93535714D02*
X162204819Y-93630952D01*
X162204819Y-93630952D02*
X162204819Y-93869047D01*
X162204819Y-93869047D02*
X162157200Y-93964285D01*
X162157200Y-93964285D02*
X162109580Y-94011904D01*
X197238095Y-110254819D02*
X197238095Y-111064342D01*
X197238095Y-111064342D02*
X197285714Y-111159580D01*
X197285714Y-111159580D02*
X197333333Y-111207200D01*
X197333333Y-111207200D02*
X197428571Y-111254819D01*
X197428571Y-111254819D02*
X197619047Y-111254819D01*
X197619047Y-111254819D02*
X197714285Y-111207200D01*
X197714285Y-111207200D02*
X197761904Y-111159580D01*
X197761904Y-111159580D02*
X197809523Y-111064342D01*
X197809523Y-111064342D02*
X197809523Y-110254819D01*
X198809523Y-111254819D02*
X198238095Y-111254819D01*
X198523809Y-111254819D02*
X198523809Y-110254819D01*
X198523809Y-110254819D02*
X198428571Y-110397676D01*
X198428571Y-110397676D02*
X198333333Y-110492914D01*
X198333333Y-110492914D02*
X198238095Y-110540533D01*
X158083333Y-77109580D02*
X158035714Y-77157200D01*
X158035714Y-77157200D02*
X157892857Y-77204819D01*
X157892857Y-77204819D02*
X157797619Y-77204819D01*
X157797619Y-77204819D02*
X157654762Y-77157200D01*
X157654762Y-77157200D02*
X157559524Y-77061961D01*
X157559524Y-77061961D02*
X157511905Y-76966723D01*
X157511905Y-76966723D02*
X157464286Y-76776247D01*
X157464286Y-76776247D02*
X157464286Y-76633390D01*
X157464286Y-76633390D02*
X157511905Y-76442914D01*
X157511905Y-76442914D02*
X157559524Y-76347676D01*
X157559524Y-76347676D02*
X157654762Y-76252438D01*
X157654762Y-76252438D02*
X157797619Y-76204819D01*
X157797619Y-76204819D02*
X157892857Y-76204819D01*
X157892857Y-76204819D02*
X158035714Y-76252438D01*
X158035714Y-76252438D02*
X158083333Y-76300057D01*
X158940476Y-76204819D02*
X158750000Y-76204819D01*
X158750000Y-76204819D02*
X158654762Y-76252438D01*
X158654762Y-76252438D02*
X158607143Y-76300057D01*
X158607143Y-76300057D02*
X158511905Y-76442914D01*
X158511905Y-76442914D02*
X158464286Y-76633390D01*
X158464286Y-76633390D02*
X158464286Y-77014342D01*
X158464286Y-77014342D02*
X158511905Y-77109580D01*
X158511905Y-77109580D02*
X158559524Y-77157200D01*
X158559524Y-77157200D02*
X158654762Y-77204819D01*
X158654762Y-77204819D02*
X158845238Y-77204819D01*
X158845238Y-77204819D02*
X158940476Y-77157200D01*
X158940476Y-77157200D02*
X158988095Y-77109580D01*
X158988095Y-77109580D02*
X159035714Y-77014342D01*
X159035714Y-77014342D02*
X159035714Y-76776247D01*
X159035714Y-76776247D02*
X158988095Y-76681009D01*
X158988095Y-76681009D02*
X158940476Y-76633390D01*
X158940476Y-76633390D02*
X158845238Y-76585771D01*
X158845238Y-76585771D02*
X158654762Y-76585771D01*
X158654762Y-76585771D02*
X158559524Y-76633390D01*
X158559524Y-76633390D02*
X158511905Y-76681009D01*
X158511905Y-76681009D02*
X158464286Y-76776247D01*
X118083333Y-84859580D02*
X118035714Y-84907200D01*
X118035714Y-84907200D02*
X117892857Y-84954819D01*
X117892857Y-84954819D02*
X117797619Y-84954819D01*
X117797619Y-84954819D02*
X117654762Y-84907200D01*
X117654762Y-84907200D02*
X117559524Y-84811961D01*
X117559524Y-84811961D02*
X117511905Y-84716723D01*
X117511905Y-84716723D02*
X117464286Y-84526247D01*
X117464286Y-84526247D02*
X117464286Y-84383390D01*
X117464286Y-84383390D02*
X117511905Y-84192914D01*
X117511905Y-84192914D02*
X117559524Y-84097676D01*
X117559524Y-84097676D02*
X117654762Y-84002438D01*
X117654762Y-84002438D02*
X117797619Y-83954819D01*
X117797619Y-83954819D02*
X117892857Y-83954819D01*
X117892857Y-83954819D02*
X118035714Y-84002438D01*
X118035714Y-84002438D02*
X118083333Y-84050057D01*
X118988095Y-83954819D02*
X118511905Y-83954819D01*
X118511905Y-83954819D02*
X118464286Y-84431009D01*
X118464286Y-84431009D02*
X118511905Y-84383390D01*
X118511905Y-84383390D02*
X118607143Y-84335771D01*
X118607143Y-84335771D02*
X118845238Y-84335771D01*
X118845238Y-84335771D02*
X118940476Y-84383390D01*
X118940476Y-84383390D02*
X118988095Y-84431009D01*
X118988095Y-84431009D02*
X119035714Y-84526247D01*
X119035714Y-84526247D02*
X119035714Y-84764342D01*
X119035714Y-84764342D02*
X118988095Y-84859580D01*
X118988095Y-84859580D02*
X118940476Y-84907200D01*
X118940476Y-84907200D02*
X118845238Y-84954819D01*
X118845238Y-84954819D02*
X118607143Y-84954819D01*
X118607143Y-84954819D02*
X118511905Y-84907200D01*
X118511905Y-84907200D02*
X118464286Y-84859580D01*
X116954819Y-109261904D02*
X117764342Y-109261904D01*
X117764342Y-109261904D02*
X117859580Y-109214285D01*
X117859580Y-109214285D02*
X117907200Y-109166666D01*
X117907200Y-109166666D02*
X117954819Y-109071428D01*
X117954819Y-109071428D02*
X117954819Y-108880952D01*
X117954819Y-108880952D02*
X117907200Y-108785714D01*
X117907200Y-108785714D02*
X117859580Y-108738095D01*
X117859580Y-108738095D02*
X117764342Y-108690476D01*
X117764342Y-108690476D02*
X116954819Y-108690476D01*
X116954819Y-108309523D02*
X116954819Y-107642857D01*
X116954819Y-107642857D02*
X117954819Y-108071428D01*
X110178571Y-114204819D02*
X110178571Y-113204819D01*
X110178571Y-113204819D02*
X110559523Y-113204819D01*
X110559523Y-113204819D02*
X110654761Y-113252438D01*
X110654761Y-113252438D02*
X110702380Y-113300057D01*
X110702380Y-113300057D02*
X110749999Y-113395295D01*
X110749999Y-113395295D02*
X110749999Y-113538152D01*
X110749999Y-113538152D02*
X110702380Y-113633390D01*
X110702380Y-113633390D02*
X110654761Y-113681009D01*
X110654761Y-113681009D02*
X110559523Y-113728628D01*
X110559523Y-113728628D02*
X110178571Y-113728628D01*
X111083333Y-113538152D02*
X111273809Y-114204819D01*
X111273809Y-114204819D02*
X111464285Y-113728628D01*
X111464285Y-113728628D02*
X111654761Y-114204819D01*
X111654761Y-114204819D02*
X111845237Y-113538152D01*
X112226190Y-114204819D02*
X112226190Y-113538152D01*
X112226190Y-113728628D02*
X112273809Y-113633390D01*
X112273809Y-113633390D02*
X112321428Y-113585771D01*
X112321428Y-113585771D02*
X112416666Y-113538152D01*
X112416666Y-113538152D02*
X112511904Y-113538152D01*
X113369047Y-114204819D02*
X112797619Y-114204819D01*
X113083333Y-114204819D02*
X113083333Y-113204819D01*
X113083333Y-113204819D02*
X112988095Y-113347676D01*
X112988095Y-113347676D02*
X112892857Y-113442914D01*
X112892857Y-113442914D02*
X112797619Y-113490533D01*
X156954819Y-108511904D02*
X157764342Y-108511904D01*
X157764342Y-108511904D02*
X157859580Y-108464285D01*
X157859580Y-108464285D02*
X157907200Y-108416666D01*
X157907200Y-108416666D02*
X157954819Y-108321428D01*
X157954819Y-108321428D02*
X157954819Y-108130952D01*
X157954819Y-108130952D02*
X157907200Y-108035714D01*
X157907200Y-108035714D02*
X157859580Y-107988095D01*
X157859580Y-107988095D02*
X157764342Y-107940476D01*
X157764342Y-107940476D02*
X156954819Y-107940476D01*
X156954819Y-107035714D02*
X156954819Y-107226190D01*
X156954819Y-107226190D02*
X157002438Y-107321428D01*
X157002438Y-107321428D02*
X157050057Y-107369047D01*
X157050057Y-107369047D02*
X157192914Y-107464285D01*
X157192914Y-107464285D02*
X157383390Y-107511904D01*
X157383390Y-107511904D02*
X157764342Y-107511904D01*
X157764342Y-107511904D02*
X157859580Y-107464285D01*
X157859580Y-107464285D02*
X157907200Y-107416666D01*
X157907200Y-107416666D02*
X157954819Y-107321428D01*
X157954819Y-107321428D02*
X157954819Y-107130952D01*
X157954819Y-107130952D02*
X157907200Y-107035714D01*
X157907200Y-107035714D02*
X157859580Y-106988095D01*
X157859580Y-106988095D02*
X157764342Y-106940476D01*
X157764342Y-106940476D02*
X157526247Y-106940476D01*
X157526247Y-106940476D02*
X157431009Y-106988095D01*
X157431009Y-106988095D02*
X157383390Y-107035714D01*
X157383390Y-107035714D02*
X157335771Y-107130952D01*
X157335771Y-107130952D02*
X157335771Y-107321428D01*
X157335771Y-107321428D02*
X157383390Y-107416666D01*
X157383390Y-107416666D02*
X157431009Y-107464285D01*
X157431009Y-107464285D02*
X157526247Y-107511904D01*
X142809523Y-69006819D02*
X142333333Y-69006819D01*
X142333333Y-69006819D02*
X142333333Y-68006819D01*
X143142857Y-69006819D02*
X143142857Y-68006819D01*
X143142857Y-68483009D02*
X143714285Y-68483009D01*
X143714285Y-69006819D02*
X143714285Y-68006819D01*
X144714285Y-69006819D02*
X144142857Y-69006819D01*
X144428571Y-69006819D02*
X144428571Y-68006819D01*
X144428571Y-68006819D02*
X144333333Y-68149676D01*
X144333333Y-68149676D02*
X144238095Y-68244914D01*
X144238095Y-68244914D02*
X144142857Y-68292533D01*
X118093333Y-71439580D02*
X118045714Y-71487200D01*
X118045714Y-71487200D02*
X117902857Y-71534819D01*
X117902857Y-71534819D02*
X117807619Y-71534819D01*
X117807619Y-71534819D02*
X117664762Y-71487200D01*
X117664762Y-71487200D02*
X117569524Y-71391961D01*
X117569524Y-71391961D02*
X117521905Y-71296723D01*
X117521905Y-71296723D02*
X117474286Y-71106247D01*
X117474286Y-71106247D02*
X117474286Y-70963390D01*
X117474286Y-70963390D02*
X117521905Y-70772914D01*
X117521905Y-70772914D02*
X117569524Y-70677676D01*
X117569524Y-70677676D02*
X117664762Y-70582438D01*
X117664762Y-70582438D02*
X117807619Y-70534819D01*
X117807619Y-70534819D02*
X117902857Y-70534819D01*
X117902857Y-70534819D02*
X118045714Y-70582438D01*
X118045714Y-70582438D02*
X118093333Y-70630057D01*
X118426667Y-70534819D02*
X119093333Y-70534819D01*
X119093333Y-70534819D02*
X118664762Y-71534819D01*
X121454819Y-77511904D02*
X122264342Y-77511904D01*
X122264342Y-77511904D02*
X122359580Y-77464285D01*
X122359580Y-77464285D02*
X122407200Y-77416666D01*
X122407200Y-77416666D02*
X122454819Y-77321428D01*
X122454819Y-77321428D02*
X122454819Y-77130952D01*
X122454819Y-77130952D02*
X122407200Y-77035714D01*
X122407200Y-77035714D02*
X122359580Y-76988095D01*
X122359580Y-76988095D02*
X122264342Y-76940476D01*
X122264342Y-76940476D02*
X121454819Y-76940476D01*
X121550057Y-76511904D02*
X121502438Y-76464285D01*
X121502438Y-76464285D02*
X121454819Y-76369047D01*
X121454819Y-76369047D02*
X121454819Y-76130952D01*
X121454819Y-76130952D02*
X121502438Y-76035714D01*
X121502438Y-76035714D02*
X121550057Y-75988095D01*
X121550057Y-75988095D02*
X121645295Y-75940476D01*
X121645295Y-75940476D02*
X121740533Y-75940476D01*
X121740533Y-75940476D02*
X121883390Y-75988095D01*
X121883390Y-75988095D02*
X122454819Y-76559523D01*
X122454819Y-76559523D02*
X122454819Y-75940476D01*
X123809523Y-117454819D02*
X123476190Y-116978628D01*
X123238095Y-117454819D02*
X123238095Y-116454819D01*
X123238095Y-116454819D02*
X123619047Y-116454819D01*
X123619047Y-116454819D02*
X123714285Y-116502438D01*
X123714285Y-116502438D02*
X123761904Y-116550057D01*
X123761904Y-116550057D02*
X123809523Y-116645295D01*
X123809523Y-116645295D02*
X123809523Y-116788152D01*
X123809523Y-116788152D02*
X123761904Y-116883390D01*
X123761904Y-116883390D02*
X123714285Y-116931009D01*
X123714285Y-116931009D02*
X123619047Y-116978628D01*
X123619047Y-116978628D02*
X123238095Y-116978628D01*
X124238095Y-117454819D02*
X124238095Y-116454819D01*
X124238095Y-116931009D02*
X124809523Y-116931009D01*
X124809523Y-117454819D02*
X124809523Y-116454819D01*
X123100000Y-116177200D02*
X124947619Y-116177200D01*
X125809523Y-117454819D02*
X125238095Y-117454819D01*
X125523809Y-117454819D02*
X125523809Y-116454819D01*
X125523809Y-116454819D02*
X125428571Y-116597676D01*
X125428571Y-116597676D02*
X125333333Y-116692914D01*
X125333333Y-116692914D02*
X125238095Y-116740533D01*
X120454819Y-91761904D02*
X121264342Y-91761904D01*
X121264342Y-91761904D02*
X121359580Y-91714285D01*
X121359580Y-91714285D02*
X121407200Y-91666666D01*
X121407200Y-91666666D02*
X121454819Y-91571428D01*
X121454819Y-91571428D02*
X121454819Y-91380952D01*
X121454819Y-91380952D02*
X121407200Y-91285714D01*
X121407200Y-91285714D02*
X121359580Y-91238095D01*
X121359580Y-91238095D02*
X121264342Y-91190476D01*
X121264342Y-91190476D02*
X120454819Y-91190476D01*
X120454819Y-90809523D02*
X120454819Y-90190476D01*
X120454819Y-90190476D02*
X120835771Y-90523809D01*
X120835771Y-90523809D02*
X120835771Y-90380952D01*
X120835771Y-90380952D02*
X120883390Y-90285714D01*
X120883390Y-90285714D02*
X120931009Y-90238095D01*
X120931009Y-90238095D02*
X121026247Y-90190476D01*
X121026247Y-90190476D02*
X121264342Y-90190476D01*
X121264342Y-90190476D02*
X121359580Y-90238095D01*
X121359580Y-90238095D02*
X121407200Y-90285714D01*
X121407200Y-90285714D02*
X121454819Y-90380952D01*
X121454819Y-90380952D02*
X121454819Y-90666666D01*
X121454819Y-90666666D02*
X121407200Y-90761904D01*
X121407200Y-90761904D02*
X121359580Y-90809523D01*
X190916666Y-119109580D02*
X190869047Y-119157200D01*
X190869047Y-119157200D02*
X190726190Y-119204819D01*
X190726190Y-119204819D02*
X190630952Y-119204819D01*
X190630952Y-119204819D02*
X190488095Y-119157200D01*
X190488095Y-119157200D02*
X190392857Y-119061961D01*
X190392857Y-119061961D02*
X190345238Y-118966723D01*
X190345238Y-118966723D02*
X190297619Y-118776247D01*
X190297619Y-118776247D02*
X190297619Y-118633390D01*
X190297619Y-118633390D02*
X190345238Y-118442914D01*
X190345238Y-118442914D02*
X190392857Y-118347676D01*
X190392857Y-118347676D02*
X190488095Y-118252438D01*
X190488095Y-118252438D02*
X190630952Y-118204819D01*
X190630952Y-118204819D02*
X190726190Y-118204819D01*
X190726190Y-118204819D02*
X190869047Y-118252438D01*
X190869047Y-118252438D02*
X190916666Y-118300057D01*
X191488095Y-119204819D02*
X191392857Y-119157200D01*
X191392857Y-119157200D02*
X191345238Y-119061961D01*
X191345238Y-119061961D02*
X191345238Y-118204819D01*
X191869048Y-119204819D02*
X191869048Y-118204819D01*
X191964286Y-118823866D02*
X192250000Y-119204819D01*
X192250000Y-118538152D02*
X191869048Y-118919104D01*
X190207143Y-117927200D02*
X192340477Y-117927200D01*
X193202381Y-119204819D02*
X192630953Y-119204819D01*
X192916667Y-119204819D02*
X192916667Y-118204819D01*
X192916667Y-118204819D02*
X192821429Y-118347676D01*
X192821429Y-118347676D02*
X192726191Y-118442914D01*
X192726191Y-118442914D02*
X192630953Y-118490533D01*
X161704819Y-78511904D02*
X162514342Y-78511904D01*
X162514342Y-78511904D02*
X162609580Y-78464285D01*
X162609580Y-78464285D02*
X162657200Y-78416666D01*
X162657200Y-78416666D02*
X162704819Y-78321428D01*
X162704819Y-78321428D02*
X162704819Y-78130952D01*
X162704819Y-78130952D02*
X162657200Y-78035714D01*
X162657200Y-78035714D02*
X162609580Y-77988095D01*
X162609580Y-77988095D02*
X162514342Y-77940476D01*
X162514342Y-77940476D02*
X161704819Y-77940476D01*
X162038152Y-77035714D02*
X162704819Y-77035714D01*
X161657200Y-77273809D02*
X162371485Y-77511904D01*
X162371485Y-77511904D02*
X162371485Y-76892857D01*
X120833333Y-121109580D02*
X120785714Y-121157200D01*
X120785714Y-121157200D02*
X120642857Y-121204819D01*
X120642857Y-121204819D02*
X120547619Y-121204819D01*
X120547619Y-121204819D02*
X120404762Y-121157200D01*
X120404762Y-121157200D02*
X120309524Y-121061961D01*
X120309524Y-121061961D02*
X120261905Y-120966723D01*
X120261905Y-120966723D02*
X120214286Y-120776247D01*
X120214286Y-120776247D02*
X120214286Y-120633390D01*
X120214286Y-120633390D02*
X120261905Y-120442914D01*
X120261905Y-120442914D02*
X120309524Y-120347676D01*
X120309524Y-120347676D02*
X120404762Y-120252438D01*
X120404762Y-120252438D02*
X120547619Y-120204819D01*
X120547619Y-120204819D02*
X120642857Y-120204819D01*
X120642857Y-120204819D02*
X120785714Y-120252438D01*
X120785714Y-120252438D02*
X120833333Y-120300057D01*
X121785714Y-121204819D02*
X121214286Y-121204819D01*
X121500000Y-121204819D02*
X121500000Y-120204819D01*
X121500000Y-120204819D02*
X121404762Y-120347676D01*
X121404762Y-120347676D02*
X121309524Y-120442914D01*
X121309524Y-120442914D02*
X121214286Y-120490533D01*
D13*
%TO.C,C3*%
X110880000Y-103105735D02*
X116120000Y-103105735D01*
X110880000Y-103442735D02*
X110880000Y-103105735D01*
X110880000Y-105845735D02*
X110880000Y-105508735D01*
X116120000Y-103105735D02*
X116120000Y-103442735D01*
X116120000Y-105508735D02*
X116120000Y-105845735D01*
X116120000Y-105845735D02*
X110880000Y-105845735D01*
%TO.C,C2*%
X150730000Y-103125735D02*
X155970000Y-103125735D01*
X150730000Y-103462735D02*
X150730000Y-103125735D01*
X150730000Y-105865735D02*
X150730000Y-105528735D01*
X155970000Y-103125735D02*
X155970000Y-103462735D01*
X155970000Y-105528735D02*
X155970000Y-105865735D01*
X155970000Y-105865735D02*
X150730000Y-105865735D01*
%TO.C,C8*%
X187380000Y-113680000D02*
X192620000Y-113680000D01*
X187380000Y-114017000D02*
X187380000Y-113680000D01*
X187380000Y-116420000D02*
X187380000Y-116083000D01*
X192620000Y-113680000D02*
X192620000Y-114017000D01*
X192620000Y-116083000D02*
X192620000Y-116420000D01*
X192620000Y-116420000D02*
X187380000Y-116420000D01*
%TO.C,Pls1*%
X202321000Y-114500000D02*
G75*
G02*
X200921000Y-114500000I-700000J0D01*
G01*
X200921000Y-114500000D02*
G75*
G02*
X202321000Y-114500000I700000J0D01*
G01*
%TO.C,Rst1*%
X162200000Y-67250000D02*
G75*
G02*
X160800000Y-67250000I-700000J0D01*
G01*
X160800000Y-67250000D02*
G75*
G02*
X162200000Y-67250000I700000J0D01*
G01*
%TO.C,Inc1*%
X186700000Y-86500000D02*
G75*
G02*
X185300000Y-86500000I-700000J0D01*
G01*
X185300000Y-86500000D02*
G75*
G02*
X186700000Y-86500000I700000J0D01*
G01*
%TO.C,~{RL}1*%
X156450000Y-111250000D02*
G75*
G02*
X155050000Y-111250000I-700000J0D01*
G01*
X155050000Y-111250000D02*
G75*
G02*
X156450000Y-111250000I700000J0D01*
G01*
%TO.C,C4*%
X155590000Y-89010000D02*
X160830000Y-89010000D01*
X155590000Y-89347000D02*
X155590000Y-89010000D01*
X155590000Y-91750000D02*
X155590000Y-91413000D01*
X160830000Y-89010000D02*
X160830000Y-89347000D01*
X160830000Y-91413000D02*
X160830000Y-91750000D01*
X160830000Y-91750000D02*
X155590000Y-91750000D01*
%TO.C,R1*%
X195130000Y-81430000D02*
X195460000Y-81430000D01*
X195130000Y-87970000D02*
X195130000Y-81430000D01*
X195460000Y-87970000D02*
X195130000Y-87970000D01*
X197540000Y-87970000D02*
X197870000Y-87970000D01*
X197870000Y-81430000D02*
X197540000Y-81430000D01*
X197870000Y-87970000D02*
X197870000Y-81430000D01*
D10*
%TO.C,kibuzzard-6911BE41*%
G36*
X178031799Y-49661605D02*
G01*
X178031799Y-50163033D01*
X177860371Y-50333033D01*
X177243228Y-50333033D01*
X177131799Y-50333033D01*
X177131799Y-50225890D01*
X177243228Y-50225890D01*
X177801799Y-50225890D01*
X177917514Y-50111605D01*
X177917514Y-49718748D01*
X177830371Y-49631605D01*
X177243228Y-49631605D01*
X177243228Y-50225890D01*
X177131799Y-50225890D01*
X177131799Y-49518748D01*
X177887514Y-49518748D01*
X178031799Y-49661605D01*
G37*
G36*
X179866085Y-49663033D02*
G01*
X179866085Y-50037319D01*
X179690371Y-50191605D01*
X179040371Y-50191605D01*
X178930371Y-50191605D01*
X178930371Y-50087319D01*
X179040371Y-50087319D01*
X179671799Y-50087319D01*
X179758942Y-49998748D01*
X179758942Y-49718748D01*
X179671799Y-49631605D01*
X179040371Y-49631605D01*
X179040371Y-50087319D01*
X178930371Y-50087319D01*
X178930371Y-49518748D01*
X179721799Y-49518748D01*
X179866085Y-49663033D01*
G37*
G36*
X185427514Y-49663033D02*
G01*
X185427514Y-50037319D01*
X185251799Y-50191605D01*
X184601799Y-50191605D01*
X184491799Y-50191605D01*
X184491799Y-50087319D01*
X184601799Y-50087319D01*
X185233228Y-50087319D01*
X185320371Y-49998748D01*
X185320371Y-49718748D01*
X185233228Y-49631605D01*
X184601799Y-49631605D01*
X184601799Y-50087319D01*
X184491799Y-50087319D01*
X184491799Y-49518748D01*
X185283228Y-49518748D01*
X185427514Y-49663033D01*
G37*
G36*
X187271799Y-49658748D02*
G01*
X187271799Y-50347319D01*
X186456085Y-50347319D01*
X186350371Y-50347319D01*
X186350371Y-49718748D01*
X186456085Y-49718748D01*
X186456085Y-50235890D01*
X187161799Y-50235890D01*
X187161799Y-49718748D01*
X187074657Y-49631605D01*
X186543228Y-49631605D01*
X186456085Y-49718748D01*
X186350371Y-49718748D01*
X186350371Y-49658748D01*
X186494657Y-49514462D01*
X187127514Y-49514462D01*
X187271799Y-49658748D01*
G37*
G36*
X203280371Y-49663033D02*
G01*
X203280371Y-50037319D01*
X203104657Y-50191605D01*
X202454657Y-50191605D01*
X202344657Y-50191605D01*
X202344657Y-50087319D01*
X202454657Y-50087319D01*
X203086085Y-50087319D01*
X203173228Y-49998748D01*
X203173228Y-49718748D01*
X203086085Y-49631605D01*
X202454657Y-49631605D01*
X202454657Y-50087319D01*
X202344657Y-50087319D01*
X202344657Y-49518748D01*
X203136085Y-49518748D01*
X203280371Y-49663033D01*
G37*
G36*
X178320371Y-49521605D02*
G01*
X178320371Y-50308748D01*
X177998942Y-50630176D01*
X177243228Y-50630176D01*
X177243228Y-51227319D01*
X176947514Y-51227319D01*
X176838942Y-51227319D01*
X176838942Y-51130176D01*
X176947514Y-51130176D01*
X177131799Y-51130176D01*
X177131799Y-50515890D01*
X177950371Y-50515890D01*
X178214657Y-50250176D01*
X178214657Y-49573033D01*
X177976085Y-49334462D01*
X176947514Y-49334462D01*
X176947514Y-51130176D01*
X176838942Y-51130176D01*
X176838942Y-49227319D01*
X178026085Y-49227319D01*
X178320371Y-49521605D01*
G37*
G36*
X182028942Y-49521605D02*
G01*
X182028942Y-50933033D01*
X181734657Y-51227319D01*
X180843228Y-51227319D01*
X180786085Y-51227319D01*
X180491799Y-50933033D01*
X180491799Y-49573033D01*
X180604657Y-49573033D01*
X180604657Y-50874462D01*
X180843228Y-51113033D01*
X181678942Y-51113033D01*
X181918942Y-50874462D01*
X181918942Y-49573033D01*
X181678942Y-49334462D01*
X180843228Y-49334462D01*
X180604657Y-49573033D01*
X180491799Y-49573033D01*
X180491799Y-49521605D01*
X180786085Y-49227319D01*
X181734657Y-49227319D01*
X182028942Y-49521605D01*
G37*
G36*
X181734657Y-49661605D02*
G01*
X181734657Y-50785890D01*
X181590371Y-50930176D01*
X180983228Y-50930176D01*
X180933228Y-50930176D01*
X180787514Y-50785890D01*
X180787514Y-49718748D01*
X180896085Y-49718748D01*
X180896085Y-50735890D01*
X180983228Y-50823033D01*
X181537514Y-50823033D01*
X181624657Y-50735890D01*
X181624657Y-49718748D01*
X181537514Y-49631605D01*
X180983228Y-49631605D01*
X180896085Y-49718748D01*
X180787514Y-49718748D01*
X180787514Y-49661605D01*
X180933228Y-49518748D01*
X181590371Y-49518748D01*
X181734657Y-49661605D01*
G37*
G36*
X194480371Y-49521605D02*
G01*
X194480371Y-50933033D01*
X194186085Y-51227319D01*
X193294657Y-51227319D01*
X193237514Y-51227319D01*
X192943228Y-50933033D01*
X192943228Y-49573033D01*
X193056085Y-49573033D01*
X193056085Y-50874462D01*
X193294657Y-51113033D01*
X194130371Y-51113033D01*
X194370371Y-50874462D01*
X194370371Y-49573033D01*
X194130371Y-49334462D01*
X193294657Y-49334462D01*
X193056085Y-49573033D01*
X192943228Y-49573033D01*
X192943228Y-49521605D01*
X193237514Y-49227319D01*
X194186085Y-49227319D01*
X194480371Y-49521605D01*
G37*
G36*
X194186085Y-49661605D02*
G01*
X194186085Y-50785890D01*
X194041799Y-50930176D01*
X193434657Y-50930176D01*
X193384657Y-50930176D01*
X193238942Y-50785890D01*
X193238942Y-49718748D01*
X193347514Y-49718748D01*
X193347514Y-50735890D01*
X193434657Y-50823033D01*
X193988942Y-50823033D01*
X194076085Y-50735890D01*
X194076085Y-49718748D01*
X193988942Y-49631605D01*
X193434657Y-49631605D01*
X193347514Y-49718748D01*
X193238942Y-49718748D01*
X193238942Y-49661605D01*
X193384657Y-49518748D01*
X194041799Y-49518748D01*
X194186085Y-49661605D01*
G37*
G36*
X200136085Y-49631605D02*
G01*
X199640371Y-49631605D01*
X199640371Y-51227319D01*
X199347514Y-51227319D01*
X199237514Y-51227319D01*
X199237514Y-49631605D01*
X198741799Y-49631605D01*
X198741799Y-49518748D01*
X198847514Y-49518748D01*
X199347514Y-49518748D01*
X199347514Y-51120176D01*
X199530371Y-51120176D01*
X199530371Y-49518748D01*
X200030371Y-49518748D01*
X200030371Y-49334462D01*
X198847514Y-49334462D01*
X198847514Y-49518748D01*
X198741799Y-49518748D01*
X198741799Y-49227319D01*
X200136085Y-49227319D01*
X200136085Y-49631605D01*
G37*
G36*
X187564657Y-49521605D02*
G01*
X187564657Y-51227319D01*
X187161799Y-51227319D01*
X187161799Y-50638748D01*
X186456085Y-50638748D01*
X186456085Y-51227319D01*
X186167514Y-51227319D01*
X186053228Y-51227319D01*
X186053228Y-49570176D01*
X186167514Y-49570176D01*
X186167514Y-51108748D01*
X186350371Y-51108748D01*
X186350371Y-50531605D01*
X187271799Y-50531605D01*
X187271799Y-51108748D01*
X187456085Y-51108748D01*
X187456085Y-49570176D01*
X187216085Y-49331605D01*
X186406085Y-49331605D01*
X186167514Y-49570176D01*
X186053228Y-49570176D01*
X186053228Y-49521605D01*
X186347514Y-49227319D01*
X187270371Y-49227319D01*
X187564657Y-49521605D01*
G37*
G36*
X195213228Y-50735890D02*
G01*
X195300371Y-50823033D01*
X195886085Y-50823033D01*
X195973228Y-50735890D01*
X195973228Y-49227319D01*
X196377514Y-49227319D01*
X196377514Y-50933033D01*
X196083228Y-51227319D01*
X195158942Y-51227319D01*
X195103228Y-51227319D01*
X194808942Y-50933033D01*
X194808942Y-50880176D01*
X194918942Y-50880176D01*
X195158942Y-51117319D01*
X196028942Y-51117319D01*
X196267514Y-50880176D01*
X196267514Y-49334462D01*
X196084657Y-49334462D01*
X196084657Y-50791605D01*
X195938942Y-50933033D01*
X195248942Y-50933033D01*
X195103228Y-50791605D01*
X195103228Y-49334462D01*
X194918942Y-49334462D01*
X194918942Y-50880176D01*
X194808942Y-50880176D01*
X194808942Y-49227319D01*
X195213228Y-49227319D01*
X195213228Y-50735890D01*
G37*
G36*
X197990371Y-50817319D02*
G01*
X198051799Y-50817319D01*
X198051799Y-49227319D01*
X198456085Y-49227319D01*
X198456085Y-51227319D01*
X197680371Y-51227319D01*
X197183228Y-49633033D01*
X197124657Y-49633033D01*
X197124657Y-51227319D01*
X196830371Y-51227319D01*
X196720371Y-51227319D01*
X196720371Y-49338748D01*
X196830371Y-49338748D01*
X196830371Y-51120176D01*
X197013228Y-51120176D01*
X197013228Y-49524462D01*
X197261799Y-49524462D01*
X197774657Y-51117319D01*
X198347514Y-51117319D01*
X198347514Y-49334462D01*
X198164657Y-49334462D01*
X198164657Y-50930176D01*
X197914657Y-50930176D01*
X197404657Y-49338748D01*
X196830371Y-49338748D01*
X196720371Y-49338748D01*
X196720371Y-49227319D01*
X197496085Y-49227319D01*
X197990371Y-50817319D01*
G37*
G36*
X201707514Y-49631605D02*
G01*
X200811799Y-49631605D01*
X200811799Y-50015890D01*
X201608942Y-50015890D01*
X201608942Y-50420176D01*
X200811799Y-50420176D01*
X200811799Y-50823033D01*
X201707514Y-50823033D01*
X201707514Y-51227319D01*
X200520371Y-51227319D01*
X200407514Y-51227319D01*
X200407514Y-51113033D01*
X200520371Y-51113033D01*
X201610371Y-51113033D01*
X201610371Y-50930176D01*
X200704657Y-50930176D01*
X200704657Y-50308748D01*
X201510371Y-50308748D01*
X201510371Y-50125890D01*
X200704657Y-50125890D01*
X200704657Y-49518748D01*
X201610371Y-49518748D01*
X201610371Y-49334462D01*
X200520371Y-49334462D01*
X200520371Y-51113033D01*
X200407514Y-51113033D01*
X200407514Y-49227319D01*
X201707514Y-49227319D01*
X201707514Y-49631605D01*
G37*
G36*
X180163228Y-49521605D02*
G01*
X180163228Y-50141605D01*
X179988942Y-50301605D01*
X180163228Y-50491605D01*
X180163228Y-51227319D01*
X179758942Y-51227319D01*
X179758942Y-50634462D01*
X179616085Y-50491605D01*
X179040371Y-50491605D01*
X179040371Y-51227319D01*
X178747514Y-51227319D01*
X178636085Y-51227319D01*
X178636085Y-51118748D01*
X178747514Y-51118748D01*
X178930371Y-51118748D01*
X178930371Y-50375890D01*
X179663228Y-50375890D01*
X179871799Y-50594462D01*
X179871799Y-51118748D01*
X180056085Y-51118748D01*
X180056085Y-50534462D01*
X179831799Y-50290176D01*
X180050371Y-50098748D01*
X180050371Y-49574462D01*
X179811799Y-49335890D01*
X178747514Y-49335890D01*
X178747514Y-51118748D01*
X178636085Y-51118748D01*
X178636085Y-49227319D01*
X179868942Y-49227319D01*
X180163228Y-49521605D01*
G37*
G36*
X185724657Y-49521605D02*
G01*
X185724657Y-50141605D01*
X185550371Y-50301605D01*
X185724657Y-50491605D01*
X185724657Y-51227319D01*
X185320371Y-51227319D01*
X185320371Y-50634462D01*
X185177514Y-50491605D01*
X184601799Y-50491605D01*
X184601799Y-51227319D01*
X184308942Y-51227319D01*
X184197514Y-51227319D01*
X184197514Y-51118748D01*
X184308942Y-51118748D01*
X184491799Y-51118748D01*
X184491799Y-50375890D01*
X185224657Y-50375890D01*
X185433228Y-50594462D01*
X185433228Y-51118748D01*
X185617514Y-51118748D01*
X185617514Y-50534462D01*
X185393228Y-50290176D01*
X185611799Y-50098748D01*
X185611799Y-49574462D01*
X185373228Y-49335890D01*
X184308942Y-49335890D01*
X184308942Y-51118748D01*
X184197514Y-51118748D01*
X184197514Y-49227319D01*
X185430371Y-49227319D01*
X185724657Y-49521605D01*
G37*
G36*
X203577514Y-49521605D02*
G01*
X203577514Y-50141605D01*
X203403228Y-50301605D01*
X203577514Y-50491605D01*
X203577514Y-51227319D01*
X203173228Y-51227319D01*
X203173228Y-50634462D01*
X203030371Y-50491605D01*
X202454657Y-50491605D01*
X202454657Y-51227319D01*
X202161799Y-51227319D01*
X202050371Y-51227319D01*
X202050371Y-51118748D01*
X202161799Y-51118748D01*
X202344657Y-51118748D01*
X202344657Y-50375890D01*
X203077514Y-50375890D01*
X203286085Y-50594462D01*
X203286085Y-51118748D01*
X203470371Y-51118748D01*
X203470371Y-50534462D01*
X203246085Y-50290176D01*
X203464657Y-50098748D01*
X203464657Y-49574462D01*
X203226085Y-49335890D01*
X202161799Y-49335890D01*
X202161799Y-51118748D01*
X202050371Y-51118748D01*
X202050371Y-49227319D01*
X203283228Y-49227319D01*
X203577514Y-49521605D01*
G37*
G36*
X188938942Y-50645890D02*
G01*
X189007514Y-50645890D01*
X189248942Y-49227319D01*
X190037514Y-49227319D01*
X190037514Y-51227319D01*
X189633228Y-51227319D01*
X189633228Y-49633033D01*
X189577514Y-49633033D01*
X189331799Y-51055890D01*
X188614657Y-51055890D01*
X188370371Y-49633033D01*
X188311799Y-49633033D01*
X188311799Y-51227319D01*
X188017514Y-51227319D01*
X187907514Y-51227319D01*
X187907514Y-51117319D01*
X188017514Y-51117319D01*
X188200371Y-51117319D01*
X188200371Y-49521605D01*
X188451799Y-49521605D01*
X188708942Y-50934462D01*
X189236085Y-50934462D01*
X189493228Y-49521605D01*
X189743228Y-49521605D01*
X189743228Y-51117319D01*
X189927514Y-51117319D01*
X189927514Y-49335890D01*
X189344657Y-49335890D01*
X189088942Y-50747319D01*
X188857514Y-50747319D01*
X188600371Y-49335890D01*
X188017514Y-49335890D01*
X188017514Y-51117319D01*
X187907514Y-51117319D01*
X187907514Y-49227319D01*
X188697514Y-49227319D01*
X188938942Y-50645890D01*
G37*
G36*
X192628942Y-49521605D02*
G01*
X192628942Y-49981605D01*
X192224657Y-49981605D01*
X192224657Y-49718748D01*
X192137514Y-49631605D01*
X191643228Y-49631605D01*
X191556085Y-49718748D01*
X191556085Y-50735890D01*
X191643228Y-50823033D01*
X192137514Y-50823033D01*
X192224657Y-50735890D01*
X192224657Y-50473033D01*
X192628942Y-50473033D01*
X192628942Y-50933033D01*
X192333228Y-51227319D01*
X191500371Y-51227319D01*
X191446085Y-51227319D01*
X191151799Y-50933033D01*
X191151799Y-49573033D01*
X191261799Y-49573033D01*
X191261799Y-50877319D01*
X191500371Y-51115890D01*
X192280371Y-51115890D01*
X192518942Y-50877319D01*
X192518942Y-50571605D01*
X192336085Y-50571605D01*
X192336085Y-50788748D01*
X192190371Y-50933033D01*
X191590371Y-50933033D01*
X191444657Y-50788748D01*
X191444657Y-49661605D01*
X191590371Y-49518748D01*
X192190371Y-49518748D01*
X192336085Y-49661605D01*
X192336085Y-49878748D01*
X192518942Y-49878748D01*
X192518942Y-49573033D01*
X192280371Y-49334462D01*
X191500371Y-49334462D01*
X191261799Y-49573033D01*
X191151799Y-49573033D01*
X191151799Y-49521605D01*
X191446085Y-49227319D01*
X192333228Y-49227319D01*
X192628942Y-49521605D01*
G37*
G36*
X183854657Y-49521605D02*
G01*
X183854657Y-49881605D01*
X183451799Y-49881605D01*
X183451799Y-49718748D01*
X183364657Y-49631605D01*
X182846085Y-49631605D01*
X182760371Y-49721605D01*
X182760371Y-50737319D01*
X182846085Y-50823033D01*
X183364657Y-50823033D01*
X183451799Y-50735890D01*
X183451799Y-50538748D01*
X183056085Y-50538748D01*
X183056085Y-50135890D01*
X183854657Y-50135890D01*
X183854657Y-50933033D01*
X183560371Y-51227319D01*
X182707514Y-51227319D01*
X182651799Y-51227319D01*
X182357514Y-50933033D01*
X182357514Y-49573033D01*
X182468942Y-49573033D01*
X182468942Y-50874462D01*
X182707514Y-51113033D01*
X183506085Y-51113033D01*
X183746085Y-50874462D01*
X183746085Y-50247319D01*
X183167514Y-50247319D01*
X183167514Y-50431605D01*
X183561799Y-50431605D01*
X183561799Y-50785890D01*
X183417514Y-50930176D01*
X182797514Y-50930176D01*
X182651799Y-50788748D01*
X182651799Y-49661605D01*
X182797514Y-49518748D01*
X183417514Y-49518748D01*
X183561799Y-49661605D01*
X183561799Y-49775890D01*
X183746085Y-49775890D01*
X183746085Y-49573033D01*
X183506085Y-49334462D01*
X182707514Y-49334462D01*
X182468942Y-49573033D01*
X182357514Y-49573033D01*
X182357514Y-49521605D01*
X182651799Y-49227319D01*
X183560371Y-49227319D01*
X183854657Y-49521605D01*
G37*
D13*
%TO.C,LL1*%
X186700000Y-94600000D02*
G75*
G02*
X185300000Y-94600000I-700000J0D01*
G01*
X185300000Y-94600000D02*
G75*
G02*
X186700000Y-94600000I700000J0D01*
G01*
%TO.C,U5*%
X163890000Y-91940000D02*
X163890000Y-93190000D01*
X163890000Y-95190000D02*
X163890000Y-96440000D01*
X163890000Y-96440000D02*
X184330000Y-96440000D01*
X184330000Y-91940000D02*
X163890000Y-91940000D01*
X184330000Y-96440000D02*
X184330000Y-91940000D01*
X163830000Y-99440000D02*
X184390000Y-99440000D01*
X184390000Y-88940000D01*
X163830000Y-88940000D01*
X163830000Y-99440000D01*
X163890000Y-93190000D02*
G75*
G02*
X163890000Y-95190000I0J-1000000D01*
G01*
%TO.C,U1*%
X194060000Y-91930000D02*
X194060000Y-109830000D01*
X194060000Y-109830000D02*
X195310000Y-109830000D01*
X197310000Y-109830000D02*
X198560000Y-109830000D01*
X198560000Y-91930000D02*
X194060000Y-91930000D01*
X198560000Y-109830000D02*
X198560000Y-91930000D01*
X201560000Y-109890000D02*
X191060000Y-109890000D01*
X191060000Y-91870000D01*
X201560000Y-91870000D01*
X201560000Y-109890000D01*
X195310000Y-109830000D02*
G75*
G02*
X197310000Y-109830000I1000000J0D01*
G01*
%TO.C,C6*%
X155640000Y-73010000D02*
X160880000Y-73010000D01*
X155640000Y-73347000D02*
X155640000Y-73010000D01*
X155640000Y-75750000D02*
X155640000Y-75413000D01*
X160880000Y-73010000D02*
X160880000Y-73347000D01*
X160880000Y-75413000D02*
X160880000Y-75750000D01*
X160880000Y-75750000D02*
X155640000Y-75750000D01*
%TO.C,C5*%
X115630000Y-85630000D02*
X120870000Y-85630000D01*
X115630000Y-85967000D02*
X115630000Y-85630000D01*
X115630000Y-88370000D02*
X115630000Y-88033000D01*
X120870000Y-85630000D02*
X120870000Y-85967000D01*
X120870000Y-88033000D02*
X120870000Y-88370000D01*
X120870000Y-88370000D02*
X115630000Y-88370000D01*
%TO.C,U7*%
X118850000Y-106055735D02*
X118850000Y-107305735D01*
X118850000Y-109305735D02*
X118850000Y-110555735D01*
X118850000Y-110555735D02*
X144370000Y-110555735D01*
X144370000Y-106055735D02*
X118850000Y-106055735D01*
X144370000Y-110555735D02*
X144370000Y-106055735D01*
X118790000Y-113555735D02*
X144430000Y-113555735D01*
X144430000Y-103055735D01*
X118790000Y-103055735D01*
X118790000Y-113555735D01*
X118850000Y-107305735D02*
G75*
G02*
X118850000Y-109305735I0J-1000000D01*
G01*
%TO.C,Pwr1*%
X112450000Y-115500000D02*
G75*
G02*
X111050000Y-115500000I-700000J0D01*
G01*
X111050000Y-115500000D02*
G75*
G02*
X112450000Y-115500000I700000J0D01*
G01*
D10*
%TO.C,kibuzzard-691DE17B*%
G36*
X204500000Y-64393571D02*
G01*
X204080000Y-64393571D01*
X204080000Y-64059286D01*
X204192857Y-64059286D01*
X204192857Y-64277857D01*
X204385714Y-64277857D01*
X204385714Y-64059286D01*
X204192857Y-64059286D01*
X204080000Y-64059286D01*
X204080000Y-63945000D01*
X204500000Y-63945000D01*
X204500000Y-64277857D01*
X204500000Y-64393571D01*
G37*
G36*
X203605714Y-67753571D02*
G01*
X202791429Y-67753571D01*
X202791429Y-67055000D01*
X202904286Y-67055000D01*
X202904286Y-67642143D01*
X203498571Y-67642143D01*
X203498571Y-67083571D01*
X203384286Y-66967857D01*
X202991429Y-66967857D01*
X202904286Y-67055000D01*
X202791429Y-67055000D01*
X202791429Y-66997857D01*
X202934286Y-66853571D01*
X203435714Y-66853571D01*
X203605714Y-67025000D01*
X203605714Y-67642143D01*
X203605714Y-67753571D01*
G37*
G36*
X203605714Y-69550714D02*
G01*
X202791429Y-69550714D01*
X202791429Y-68852143D01*
X202904286Y-68852143D01*
X202904286Y-69439286D01*
X203498571Y-69439286D01*
X203498571Y-68880714D01*
X203384286Y-68765000D01*
X202991429Y-68765000D01*
X202904286Y-68852143D01*
X202791429Y-68852143D01*
X202791429Y-68795000D01*
X202934286Y-68650714D01*
X203435714Y-68650714D01*
X203605714Y-68822143D01*
X203605714Y-69439286D01*
X203605714Y-69550714D01*
G37*
G36*
X203620000Y-71400714D02*
G01*
X202931429Y-71400714D01*
X202787143Y-71256429D01*
X202787143Y-70676429D01*
X202904286Y-70676429D01*
X202904286Y-71207857D01*
X202991429Y-71295000D01*
X203508571Y-71295000D01*
X203508571Y-70589286D01*
X202991429Y-70589286D01*
X202904286Y-70676429D01*
X202787143Y-70676429D01*
X202787143Y-70623571D01*
X202931429Y-70479286D01*
X203620000Y-70479286D01*
X203620000Y-71295000D01*
X203620000Y-71400714D01*
G37*
G36*
X204500000Y-68046429D02*
G01*
X202500000Y-68046429D01*
X202500000Y-66909286D01*
X202607143Y-66909286D01*
X202607143Y-67937857D01*
X204402857Y-67937857D01*
X204402857Y-67753571D01*
X203788571Y-67753571D01*
X203788571Y-66935000D01*
X203522857Y-66670714D01*
X202845714Y-66670714D01*
X202607143Y-66909286D01*
X202500000Y-66909286D01*
X202500000Y-66859286D01*
X202794286Y-66565000D01*
X203581429Y-66565000D01*
X203902857Y-66886429D01*
X203902857Y-67642143D01*
X204500000Y-67642143D01*
X204500000Y-67937857D01*
X204500000Y-68046429D01*
G37*
G36*
X204500000Y-69843571D02*
G01*
X202500000Y-69843571D01*
X202500000Y-68706429D01*
X202607143Y-68706429D01*
X202607143Y-69735000D01*
X204402857Y-69735000D01*
X204402857Y-69550714D01*
X203788571Y-69550714D01*
X203788571Y-68732143D01*
X203522857Y-68467857D01*
X202845714Y-68467857D01*
X202607143Y-68706429D01*
X202500000Y-68706429D01*
X202500000Y-68656429D01*
X202794286Y-68362143D01*
X203581429Y-68362143D01*
X203902857Y-68683571D01*
X203902857Y-69439286D01*
X204500000Y-69439286D01*
X204500000Y-69735000D01*
X204500000Y-69843571D01*
G37*
G36*
X204500000Y-71697857D02*
G01*
X202794286Y-71697857D01*
X202500000Y-71403571D01*
X202500000Y-70535000D01*
X202604286Y-70535000D01*
X202604286Y-71345000D01*
X202842857Y-71583571D01*
X204381429Y-71583571D01*
X204381429Y-71400714D01*
X203804286Y-71400714D01*
X203804286Y-70479286D01*
X204381429Y-70479286D01*
X204381429Y-70295000D01*
X202842857Y-70295000D01*
X202604286Y-70535000D01*
X202500000Y-70535000D01*
X202500000Y-70480714D01*
X202794286Y-70186429D01*
X204500000Y-70186429D01*
X204500000Y-70589286D01*
X203911429Y-70589286D01*
X203911429Y-71295000D01*
X204500000Y-71295000D01*
X204500000Y-71583571D01*
X204500000Y-71697857D01*
G37*
G36*
X204500000Y-74086429D02*
G01*
X204205714Y-74380714D01*
X202500000Y-74380714D01*
X202500000Y-73976429D01*
X204008571Y-73976429D01*
X204095714Y-73889286D01*
X204095714Y-73303571D01*
X204008571Y-73216429D01*
X202500000Y-73216429D01*
X202500000Y-72922143D01*
X202607143Y-72922143D01*
X202607143Y-73105000D01*
X204064286Y-73105000D01*
X204205714Y-73250714D01*
X204205714Y-73940714D01*
X204064286Y-74086429D01*
X202607143Y-74086429D01*
X202607143Y-74270714D01*
X204152857Y-74270714D01*
X204390000Y-74030714D01*
X204390000Y-73160714D01*
X204152857Y-72922143D01*
X202607143Y-72922143D01*
X202500000Y-72922143D01*
X202500000Y-72812143D01*
X204205714Y-72812143D01*
X204500000Y-73106429D01*
X204500000Y-74030714D01*
X204500000Y-74086429D01*
G37*
G36*
X204500000Y-77760714D02*
G01*
X204205714Y-78055000D01*
X202500000Y-78055000D01*
X202500000Y-77650714D01*
X204008571Y-77650714D01*
X204095714Y-77563571D01*
X204095714Y-76977857D01*
X204008571Y-76890714D01*
X202500000Y-76890714D01*
X202500000Y-76596429D01*
X202607143Y-76596429D01*
X202607143Y-76779286D01*
X204064286Y-76779286D01*
X204205714Y-76925000D01*
X204205714Y-77615000D01*
X204064286Y-77760714D01*
X202607143Y-77760714D01*
X202607143Y-77945000D01*
X204152857Y-77945000D01*
X204390000Y-77705000D01*
X204390000Y-76835000D01*
X204152857Y-76596429D01*
X202607143Y-76596429D01*
X202500000Y-76596429D01*
X202500000Y-76486429D01*
X204205714Y-76486429D01*
X204500000Y-76780714D01*
X204500000Y-77705000D01*
X204500000Y-77760714D01*
G37*
G36*
X204500000Y-75877857D02*
G01*
X204205714Y-76172143D01*
X202794286Y-76172143D01*
X202500000Y-75877857D01*
X202500000Y-75043571D01*
X202607143Y-75043571D01*
X202607143Y-75823571D01*
X202845714Y-76062143D01*
X204150000Y-76062143D01*
X204388571Y-75823571D01*
X204388571Y-75043571D01*
X204150000Y-74805000D01*
X203844286Y-74805000D01*
X203844286Y-74987857D01*
X204061429Y-74987857D01*
X204205714Y-75133571D01*
X204205714Y-75733571D01*
X204061429Y-75879286D01*
X202934286Y-75879286D01*
X202791429Y-75733571D01*
X202791429Y-75133571D01*
X202934286Y-74987857D01*
X203151429Y-74987857D01*
X203151429Y-74805000D01*
X202845714Y-74805000D01*
X202607143Y-75043571D01*
X202500000Y-75043571D01*
X202500000Y-74990714D01*
X202794286Y-74695000D01*
X203254286Y-74695000D01*
X203254286Y-75099286D01*
X202991429Y-75099286D01*
X202904286Y-75186429D01*
X202904286Y-75680714D01*
X202991429Y-75767857D01*
X204008571Y-75767857D01*
X204095714Y-75680714D01*
X204095714Y-75186429D01*
X204008571Y-75099286D01*
X203745714Y-75099286D01*
X203745714Y-74695000D01*
X204205714Y-74695000D01*
X204500000Y-74990714D01*
X204500000Y-75823571D01*
X204500000Y-75877857D01*
G37*
G36*
X204500000Y-65969286D02*
G01*
X204205714Y-66263571D01*
X203845714Y-66263571D01*
X203845714Y-65859286D01*
X204008571Y-65859286D01*
X204095714Y-65772143D01*
X204095714Y-65223571D01*
X204008571Y-65136429D01*
X203788571Y-65136429D01*
X203701429Y-65223571D01*
X203701429Y-65960714D01*
X203407143Y-66255000D01*
X202794286Y-66255000D01*
X202500000Y-65960714D01*
X202500000Y-65102143D01*
X202610000Y-65102143D01*
X202610000Y-65906429D01*
X202848571Y-66145000D01*
X203348571Y-66145000D01*
X203591429Y-65903571D01*
X203591429Y-65160714D01*
X203717143Y-65030714D01*
X204062857Y-65030714D01*
X204207143Y-65175000D01*
X204207143Y-65827857D01*
X204070000Y-65965000D01*
X203947143Y-65965000D01*
X203947143Y-66149286D01*
X204158571Y-66149286D01*
X204390000Y-65917857D01*
X204390000Y-65085000D01*
X204151429Y-64846429D01*
X203631429Y-64846429D01*
X203405714Y-65070714D01*
X203405714Y-65815000D01*
X203261429Y-65960714D01*
X202937143Y-65960714D01*
X202794286Y-65816429D01*
X202794286Y-65192143D01*
X202930000Y-65053571D01*
X203052857Y-65053571D01*
X203052857Y-64870714D01*
X202841429Y-64870714D01*
X202610000Y-65102143D01*
X202500000Y-65102143D01*
X202500000Y-65053571D01*
X202794286Y-64759286D01*
X203154286Y-64759286D01*
X203154286Y-65163571D01*
X202991429Y-65163571D01*
X202904286Y-65250714D01*
X202904286Y-65763571D01*
X202991429Y-65852143D01*
X203210000Y-65852143D01*
X203297143Y-65763571D01*
X203297143Y-65026429D01*
X203591429Y-64732143D01*
X204205714Y-64732143D01*
X204500000Y-65026429D01*
X204500000Y-65917857D01*
X204500000Y-65969286D01*
G37*
D13*
%TO.C,U6*%
X158662254Y-106075735D02*
X158662254Y-107325735D01*
X158662254Y-109325735D02*
X158662254Y-110575735D01*
X158662254Y-110575735D02*
X184182254Y-110575735D01*
X184182254Y-106075735D02*
X158662254Y-106075735D01*
X184182254Y-110575735D02*
X184182254Y-106075735D01*
X158602254Y-113575735D02*
X184242254Y-113575735D01*
X184242254Y-103075735D01*
X158602254Y-103075735D01*
X158602254Y-113575735D01*
X158662254Y-107325735D02*
G75*
G02*
X158662254Y-109325735I0J-1000000D01*
G01*
%TO.C,LH1*%
X144200000Y-70000000D02*
G75*
G02*
X142800000Y-70000000I-700000J0D01*
G01*
X142800000Y-70000000D02*
G75*
G02*
X144200000Y-70000000I700000J0D01*
G01*
%TO.C,C7*%
X115640000Y-72010000D02*
X120880000Y-72010000D01*
X115640000Y-72347000D02*
X115640000Y-72010000D01*
X115640000Y-74750000D02*
X115640000Y-74413000D01*
X120880000Y-72010000D02*
X120880000Y-72347000D01*
X120880000Y-74413000D02*
X120880000Y-74750000D01*
X120880000Y-74750000D02*
X115640000Y-74750000D01*
%TO.C,U2*%
X123890000Y-74940000D02*
X123890000Y-76190000D01*
X123890000Y-78190000D02*
X123890000Y-79440000D01*
X123890000Y-79440000D02*
X144330000Y-79440000D01*
X144330000Y-74940000D02*
X123890000Y-74940000D01*
X144330000Y-79440000D02*
X144330000Y-74940000D01*
X123830000Y-82440000D02*
X144390000Y-82440000D01*
X144390000Y-71940000D01*
X123830000Y-71940000D01*
X123830000Y-82440000D01*
X123890000Y-76190000D02*
G75*
G02*
X123890000Y-78190000I0J-1000000D01*
G01*
%TO.C,~{RH}1*%
X124200000Y-118750000D02*
G75*
G02*
X122800000Y-118750000I-700000J0D01*
G01*
X122800000Y-118750000D02*
G75*
G02*
X124200000Y-118750000I700000J0D01*
G01*
%TO.C,U3*%
X123930000Y-88560000D02*
X123930000Y-89810000D01*
X123930000Y-91810000D02*
X123930000Y-93060000D01*
X123930000Y-93060000D02*
X144370000Y-93060000D01*
X144370000Y-88560000D02*
X123930000Y-88560000D01*
X144370000Y-93060000D02*
X144370000Y-88560000D01*
X123870000Y-96060000D02*
X144430000Y-96060000D01*
X144430000Y-85560000D01*
X123870000Y-85560000D01*
X123870000Y-96060000D01*
X123930000Y-89810000D02*
G75*
G02*
X123930000Y-91810000I0J-1000000D01*
G01*
%TO.C,~{Clk}1*%
X193200000Y-120500000D02*
G75*
G02*
X191800000Y-120500000I-700000J0D01*
G01*
X191800000Y-120500000D02*
G75*
G02*
X193200000Y-120500000I700000J0D01*
G01*
%TO.C,U4*%
X163890000Y-75940000D02*
X163890000Y-77190000D01*
X163890000Y-79190000D02*
X163890000Y-80440000D01*
X163890000Y-80440000D02*
X184330000Y-80440000D01*
X184330000Y-75940000D02*
X163890000Y-75940000D01*
X184330000Y-80440000D02*
X184330000Y-75940000D01*
X163830000Y-83440000D02*
X184390000Y-83440000D01*
X184390000Y-72940000D01*
X163830000Y-72940000D01*
X163830000Y-83440000D01*
X163890000Y-77190000D02*
G75*
G02*
X163890000Y-79190000I0J-1000000D01*
G01*
%TO.C,C1*%
X119770000Y-120739010D02*
G75*
G02*
X113230000Y-120739010I-3270000J0D01*
G01*
X113230000Y-120739010D02*
G75*
G02*
X119770000Y-120739010I3270000J0D01*
G01*
%TD*%
M02*
